<?xml version="1.0" encoding="UTF-8"?>
<svg width="24px" height="24px" viewBox="0 0 24 24" version="1.1" xmlns="http://www.w3.org/2000/svg" xmlns:xlink="http://www.w3.org/1999/xlink">
    <!-- Generator: Sketch 52 (66869) - http://www.bohemiancoding.com/sketch -->
    <title>devaluation</title>
    <desc>Created with Sketch.</desc>
    <g id="homepage-new" stroke="none" stroke-width="1" fill="none" fill-rule="evenodd">
        <g id="Main" transform="translate(-392.000000, -770.000000)" fill="#F79B41">
            <g id="Group-8" transform="translate(368.000000, 129.000000)">
                <g id="devaluation" transform="translate(24.000000, 641.000000)">
                    <g id="Group">
                        <path d="M11.0500781,18.936375 C8.938875,18.936375 6.95404687,18.1141875 5.461125,16.6213594 C5.18789062,16.348125 5.18789062,15.9051094 5.461125,15.6318281 C5.73435937,15.3586875 6.177375,15.3586875 6.45065625,15.6318281 C8.98678125,18.168 13.1134687,18.168 15.6495937,15.6318281 C18.1857656,13.0957031 18.1857656,8.96901563 15.6495937,6.43289063 C13.1134687,3.89676563 8.98678125,3.89671875 6.45065625,6.43289063 C6.17751562,6.706125 5.73445312,6.70603125 5.46117187,6.43289063 C5.1879375,6.15965625 5.1879375,5.71664063 5.46117187,5.44335938 C8.542875,2.36165625 13.5573281,2.36165625 16.6390312,5.44335938 C19.7208281,8.52515625 19.7208281,13.5395156 16.6390312,16.6213125 C15.1461094,18.1141875 13.1612812,18.936375 11.0500781,18.936375 Z" id="Path"></path>
                        <path d="M11.0500781,22.0647656 C4.96682812,22.0647656 0.017671875,17.1156563 0.017671875,11.0323594 C0.017671875,8.08546875 1.16521875,5.31496875 3.249,3.23123437 C5.3326875,1.14754688 8.1031875,0 11.0500781,0 C17.1333281,0 22.0824844,4.94910937 22.0824844,11.0324063 C22.0824844,11.41875 21.7692187,11.7320625 21.3828281,11.7320625 C20.9964375,11.7320625 20.6831719,11.41875 20.6831719,11.0324063 C20.6831719,5.72076563 16.3617656,1.39935938 11.050125,1.39935938 C8.4770625,1.39935938 6.0579375,2.40135938 4.23848437,4.2208125 C2.41903125,6.04026563 1.41703125,8.45929688 1.41703125,11.0324531 C1.41703125,16.3440937 5.73839062,20.6655 11.0500781,20.6655 C13.7420156,20.6655 16.2387187,19.58325 18.0803437,17.6182031 C18.3445312,17.33625 18.7873125,17.3219531 19.0693125,17.5860937 C19.3512656,17.850375 19.3656094,18.2931094 19.101375,18.5751094 C17.0228437,20.7928125 14.0882812,22.0647656 11.0500781,22.0647656 Z" id="Path"></path>
                        <path d="M8.25,11.180542 L9.09035496,11.180542 L9.09035496,7.68083588 C9.38820378,7.62410277 9.69668543,7.57978069 10.0158092,7.54786832 C10.3349329,7.51595595 10.6717807,7.5 11.0263626,7.5 C11.3951278,7.5 11.7497044,7.53191189 12.0901031,7.59573664 C12.4305017,7.65956139 12.7283461,7.77657167 12.983645,7.94677099 C13.238944,8.11697032 13.4428256,8.35099088 13.5952958,8.64883969 C13.747766,8.94668851 13.824,9.32963125 13.824,9.79767939 C13.824,10.2302693 13.7495389,10.5954832 13.6006145,10.8933321 C13.4516901,11.1911809 13.2531272,11.4340659 13.0049198,11.6219943 C12.7567125,11.8099227 12.4730512,11.9446618 12.1539275,12.0262156 C11.8348037,12.1077695 11.5015017,12.1485458 11.1540115,12.1485458 L10.4306679,12.1485458 L10.4306679,12.7655153 L12.1326527,12.7655153 L12.1326527,13.7335191 L10.4306679,13.7335191 L10.4306679,15.0525573 L9.09035496,15.0525573 L9.09035496,13.7335191 L8.25,13.7335191 L8.25,12.7655153 L9.09035496,12.7655153 L9.09035496,12.1485458 L8.25,12.1485458 L8.25,11.180542 Z M10.4306679,11.1486298 L10.983813,11.1486298 C11.1752872,11.1486298 11.3578942,11.1255823 11.5316393,11.0794866 C11.7053845,11.033391 11.8560795,10.9607028 11.983729,10.8614198 C12.1113785,10.7621369 12.2124328,10.6291707 12.286895,10.4625172 C12.3613572,10.2958637 12.3985878,10.0955279 12.3985878,9.86150382 C12.3985878,9.42891387 12.2815775,9.1222051 12.0475534,8.94136832 C11.8135294,8.76053154 11.5121392,8.6701145 11.143374,8.6701145 C11.0015413,8.6701145 10.8668022,8.67543315 10.7391527,8.68607061 C10.6115032,8.69670807 10.508676,8.70911825 10.4306679,8.72330153 L10.4306679,11.1486298 Z" id="₽"></path>
                        <path d="M23.5899375,21.0931875 C23.3167031,20.8200937 22.8736875,20.8200469 22.6004531,21.0931875 L22.0824844,21.6111562 L22.0824844,14.9164687 C22.0824844,14.530125 21.7692187,14.2168125 21.3828281,14.2168125 C20.9964375,14.2168125 20.6831719,14.530125 20.6831719,14.9164687 L20.6831719,21.6111562 L20.1651094,21.0931406 C19.891875,20.82 19.4488594,20.82 19.175625,21.0931406 C18.9023906,21.366375 18.9023906,21.8093906 19.175625,22.0826719 L20.8880625,23.7950625 C21.0247031,23.9316562 21.2037656,24 21.3827812,24 C21.5617969,24 21.7408594,23.9316562 21.8775469,23.7950625 L23.5899375,22.0826719 C23.8631719,21.8094375 23.8631719,21.3664219 23.5899375,21.0931875 Z" id="Path"></path>
                    </g>
                </g>
            </g>
        </g>
    </g>
</svg>