<?xml version="1.0" encoding="UTF-8"?>
<svg width="25px" height="24px" viewBox="0 0 25 24" version="1.1" xmlns="http://www.w3.org/2000/svg" xmlns:xlink="http://www.w3.org/1999/xlink">
    <!-- Generator: Sketch 52 (66869) - http://www.bohemiancoding.com/sketch -->
    <title>drill (4)</title>
    <desc>Created with Sketch.</desc>
    <g id="homepage-new" stroke="none" stroke-width="1" fill="none" fill-rule="evenodd">
        <g id="Main" transform="translate(-392.000000, -466.000000)" fill="#FF8F22" fill-rule="nonzero">
            <g id="Group-8" transform="translate(368.000000, 129.000000)">
                <g id="drill-(4)" transform="translate(36.000000, 349.000000) scale(-1, 1) translate(-36.000000, -349.000000) translate(23.000000, 337.000000)">
                    <path d="M24.0005529,-0.000202146834 L10.0068474,-2.53560124e-05 C8.8972943,-1.13383665e-05 7.99678056,0.897472266 7.99302673,2.00701904 L5.9981383,2.0051604 C4.89299744,2.00413074 3.99626905,2.89918971 3.99523938,4.00433058 C3.99523934,4.00437733 3.9952393,4.00442408 3.99523926,4.00447083 L1.00108605,4.00596676 C0.450233295,4.00624197 0.00390201567,4.45301946 0.00417723122,5.00387221 C0.00417724032,5.00389042 0.00417724991,5.00390862 0.00417726,5.00392683 L0.00417726,5.00392683 C0.00448272501,5.55493797 0.451180865,6.00149602 1.00219207,6.00162865 L3.99829102,6.00234985 L3.99829102,6.00234985 C3.99896557,7.10531282 4.89251984,7.99948686 5.99548207,8.00092618 L7.99530029,8.00353584 L7.99530029,8.00353584 C7.9978639,9.11017216 8.89569016,10.005921 10.0023295,10.005921 L11.9947055,10.005921 L12.0024992,12.0032877 C12.0067897,13.1028564 12.8979219,13.992735 13.9974956,13.9954776 L14.9973343,13.9979714 L14.9973942,14.0080349 C15.0006735,14.5590962 15.4491496,15.0036463 16.0002185,15.0020801 L17.0005951,14.9992371 L16.995163,16.9958284 L16.995163,16.9958284 C15.8907072,16.9985376 14.9972613,17.8955002 14.9988907,18.9999581 L15.0018554,21.0093944 C15.0034794,22.110166 15.8946235,23.0025374 16.9953918,23.0056763 L22.9956756,23.0008101 C23.5475573,23.0003626 23.9947428,22.552913 23.9948646,22.0010311 L23.9975106,10.0092947 L24.0051853,10.0092554 C24.5554388,10.0064323 25.0000246,9.55958451 25.000055,9.00932378 L25.0005655,0.999785222 C25.0005961,0.447500473 24.5529056,-0.000239520455 24.0006208,-0.000270043451 C24.0005982,-0.000270044702 24.0005755,-0.000270045184 24.0005529,-0.000270044898 Z M16,12 L15,12 C14.4486,12 14,11.5514 14,11 L14,10 L16,10 L16,12 Z M7,4 L8,4 L8,6 L7,6 C6.44771525,6 6,5.55228475 6,5 C6,4.44771525 6.44771525,4 7,4 Z M20,13 C19.4477153,13 19,12.5522847 19,12 C19,11.4477153 19.4477153,11 20,11 C20.5522847,11 21,11.4477153 21,12 C21,12.5522847 20.5522847,13 20,13 Z M11,2 L22,2 C22.5522847,2 23,2.44771525 23,3 L23,7 C23,7.55228475 22.5522847,8 22,8 L11,8 C10.4477153,8 10,7.55228475 10,7 L10,3 C10,2.44771525 10.4477153,2 11,2 Z M20.9999072,20.9948981 L17.9956867,21.0010382 C17.4434031,21.002167 16.9947737,20.5553677 16.993645,20.0030841 C16.9936421,20.0016755 16.9936422,20.0002669 16.9936453,19.9988583 L16.9958167,19.003701 L18.9962921,19.0033112 L18.999527,14.0010529 L17.9904938,14.0027771 L17.9872131,10.0021362 L22,9.99882507 L21.9978634,19.9951139 C21.9977455,20.5465172 21.5513094,20.9937711 20.9999072,20.9948981 Z" id="XMLID_1163_"></path>
                </g>
            </g>
        </g>
    </g>
</svg>