<?xml version="1.0" encoding="UTF-8"?>
<svg width="15px" height="24px" viewBox="0 0 15 24" version="1.1" xmlns="http://www.w3.org/2000/svg" xmlns:xlink="http://www.w3.org/1999/xlink">
    <!-- Generator: Sketch 52 (66869) - http://www.bohemiancoding.com/sketch -->
    <title>phone</title>
    <desc>Created with Sketch.</desc>
    <g id="homepage-new" stroke="none" stroke-width="1" fill="none" fill-rule="evenodd">
        <g id="Main" transform="translate(-396.000000, -246.000000)">
            <g id="Group-8" transform="translate(368.000000, 129.000000)">
                <g id="phone" transform="translate(24.000000, 117.000000)">
                    <rect id="Rectangle-134-Copy-2" fill="#181818" opacity="0" x="0" y="0" width="24" height="24"></rect>
                    <path d="M5,2.991155 C5,1.89147046 5.89354265,1 7.00276013,1 L15.9972399,1 C17.1033337,1 18,1.89598976 18,3.00333247 L18,6.50604661 L18,7.05354366 L18,20.9926095 C18,22.1012607 17.1097865,23 16.0024083,23 C16.0024083,23 16.0233156,23 15.8450603,23 L7.00369558,23 C5.89708507,23 5,22.1103261 5,21.008845 L5,2.991155 Z" id="Rectangle-34" stroke="#FF8F22" stroke-width="2"></path>
                    <circle id="Oval-7" stroke="#F79B41" cx="11.5" cy="17.5" r="1.5"></circle>
                    <path d="M9.47175732,4.27272727 L13.4715435,4.27272727" id="Path-19" stroke="#F79B41" stroke-linecap="round" stroke-linejoin="round"></path>
                </g>
            </g>
        </g>
    </g>
</svg>