<?xml version="1.0" encoding="UTF-8"?>
<svg width="24px" height="19px" viewBox="0 0 24 19" version="1.1" xmlns="http://www.w3.org/2000/svg" xmlns:xlink="http://www.w3.org/1999/xlink">
    <!-- Generator: Sketch 52 (66869) - http://www.bohemiancoding.com/sketch -->
    <title>hair-dryer</title>
    <desc>Created with Sketch.</desc>
    <g id="homepage-new" stroke="none" stroke-width="1" fill="none" fill-rule="evenodd">
        <g id="Main" transform="translate(-392.000000, -394.000000)" fill="#FF8F22">
            <g id="Group-8" transform="translate(368.000000, 129.000000)">
                <g id="hair-dryer" transform="translate(36.000000, 274.500000) scale(-1, 1) translate(-36.000000, -274.500000) translate(24.000000, 265.000000)">
                    <path d="M24,5.62456566 C24,2.60670707 21.6221414,0.0572121212 18.8074343,0.0572121212 C18.6641616,0.0572121212 18.5189495,0.0636767677 18.3753535,0.0766060606 C15.7212929,0.315959596 8.18294949,1.91684848 7.86319192,1.98488889 C7.48614141,2.06521212 7.21656566,2.39822222 7.21656566,2.78383838 L7.21656566,8.46521212 C7.21656566,8.85074747 7.48614141,9.18383838 7.86319192,9.26416162 C8.07668687,9.30965657 11.5070707,10.0381414 14.5539394,10.5886869 L11.157899,17.0917172 C11.0256162,17.3447273 11.0353131,17.6487273 11.1832727,17.8930101 C11.3313939,18.1372929 11.5962828,18.2864646 11.8818586,18.2864646 L16.6291717,18.2864646 C16.9334141,18.2864646 17.2122828,18.1175758 17.3530505,17.8478384 L21.2645657,10.5050505 C22.8786263,9.54812121 24,7.69680808 24,5.62456566 Z M18.522101,1.70359596 C18.6170505,1.69511111 18.7130505,1.69066667 18.8074343,1.69066667 C20.7364848,1.69066667 22.3664646,3.49212121 22.3664646,5.62456566 C22.3664646,7.7570101 20.7364848,9.55846465 18.8072727,9.55846465 C18.7129697,9.55846465 18.6169697,9.5540202 18.522101,9.54553535 C17.2403232,9.42981818 14.6698182,8.9620202 12.4152727,8.5220202 L12.4152727,2.72694949 C14.6698182,2.28711111 17.2401616,1.81931313 18.522101,1.70359596 Z M8.85010101,3.44678788 C9.31151515,3.35070707 9.98941414,3.21082828 10.7814949,3.05115152 L10.7814949,8.19773737 C9.98933333,8.03814141 9.31151515,7.89818182 8.85010101,7.80193939 L8.85010101,3.44678788 Z M16.1342222,16.6527677 L13.229899,16.6527677 L16.2443636,10.8804848 C17.0894545,11.018101 17.8342626,11.1235556 18.3755152,11.1722828 C18.5189495,11.1853737 18.6642424,11.1918384 18.8073535,11.1918384 C18.8681212,11.1918384 18.928404,11.1890101 18.9887677,11.1867475 L16.1342222,16.6527677 Z" id="Shape" fill-rule="nonzero"></path>
                    <path d="M5.62779798,7.62076768 C4.67620202,7.62076768 4.23709091,7.32266667 3.68121212,6.9449697 C3.05276768,6.51838384 2.27070707,5.98707071 0.816808081,5.98707071 C0.365656566,5.98707071 0,6.35288889 0,6.80379798 C0,7.2550303 0.365656566,7.62068687 0.816727273,7.62068687 C1.76832323,7.62068687 2.20751515,7.91878788 2.76331313,8.29632323 C3.39175758,8.72323232 4.17381818,9.25430303 5.62771717,9.25430303 C6.07870707,9.25430303 6.44444444,8.88848485 6.44444444,8.43741414 C6.44452525,7.98642424 6.07878788,7.62076768 5.62779798,7.62076768 Z" id="Path"></path>
                    <path d="M5.62779798,5.21511111 C4.67620202,5.21511111 4.23709091,4.9170101 3.68121212,4.53947475 C3.05268687,4.11272727 2.27070707,3.58157576 0.816727273,3.58157576 C0.365656566,3.58157576 0,3.94731313 0,4.39838384 C0,4.84929293 0.365656566,5.21511111 0.816727273,5.21511111 C1.76832323,5.21511111 2.20751515,5.51337374 2.76331313,5.89090909 C3.39175758,6.31765657 4.17381818,6.84880808 5.62771717,6.84880808 C6.07870707,6.84880808 6.44444444,6.4829899 6.44444444,6.03208081 C6.44452525,5.58092929 6.07878788,5.21511111 5.62779798,5.21511111 Z" id="Path"></path>
                    <path d="M5.62779798,2.80969697 C4.67620202,2.80969697 4.23709091,2.51159596 3.68121212,2.13389899 C3.05268687,1.70723232 2.27070707,1.176 0.816727273,1.176 C0.365656566,1.176 0,1.54181818 0,1.99272727 C0,2.4439596 0.365656566,2.80969697 0.816727273,2.80969697 C1.76832323,2.80969697 2.20751515,3.10779798 2.76331313,3.48533333 C3.39175758,3.91224242 4.17381818,4.44323232 5.62771717,4.44323232 C6.07870707,4.44323232 6.44444444,4.07757576 6.44444444,3.62650505 C6.44452525,3.17535354 6.07878788,2.80969697 5.62779798,2.80969697 Z" id="Path"></path>
                </g>
            </g>
        </g>
    </g>
</svg>