<?xml version="1.0" encoding="UTF-8"?>
<svg width="22px" height="24px" viewBox="0 0 22 24" version="1.1" xmlns="http://www.w3.org/2000/svg" xmlns:xlink="http://www.w3.org/1999/xlink">
    <!-- Generator: Sketch 52 (66869) - http://www.bohemiancoding.com/sketch -->
    <title>tools</title>
    <desc>Created with Sketch.</desc>
    <g id="homepage-new" stroke="none" stroke-width="1" fill="none" fill-rule="evenodd">
        <g id="Main" transform="translate(-393.000000, -682.000000)" fill="#FF8F22">
            <g id="Group-8" transform="translate(368.000000, 129.000000)">
                <g id="tools" transform="translate(25.000000, 553.000000)">
                    <path d="M18.8912813,1.21298437 C18.4433438,0.7665 17.9152969,0.391171875 17.3217188,0.0975 C17.0316563,-0.045984375 16.6880625,-0.029484375 16.4131875,0.141234375 C16.1382656,0.31190625 15.9710625,0.612515625 15.9710625,0.936140625 L15.9710625,5.00128125 L14.5809375,5.867625 L13.2108281,5.0041875 L13.2108281,0.935625 C13.2108281,0.61228125 13.0438594,0.311859375 12.7692656,0.14109375 C12.4946719,-0.029625 12.1514063,-0.046546875 11.8613906,0.096421875 C11.2290938,0.40809375 10.6901719,0.78375 10.2595313,1.21298437 C9.1284375,2.34046875 8.353125,3.82340625 8.1324375,5.28164062 C7.86665625,7.03729687 8.37614062,8.65790625 9.56704687,9.84496875 C10.0501406,10.3264219 10.905375,10.845 11.7605625,11.1105469 L11.7605625,21.1461094 C11.7605156,21.8952656 12.0484688,22.5989531 12.5714063,23.1276094 C13.0981875,23.6600625 13.802625,23.9533125 14.5546406,23.9532656 C15.3057188,23.9532656 16.0116563,23.6617031 16.5428438,23.13225 C17.079375,22.5975 17.3746875,21.8921719 17.3745469,21.1461094 C17.3745475,21.1496515 15.5032035,21.1488238 15.5032031,21.1465312 C15.50325,21.3914531 15.4032656,21.6259219 15.2218125,21.8068594 C15.0437813,21.9842812 14.8070625,22.0819687 14.554875,22.0819687 C14.3061563,22.0819687 14.0742656,21.9860156 13.9017188,21.8115469 C13.7276719,21.635625 13.6318594,21.3993281 13.6318594,21.1462031 L13.6318594,10.3497187 C13.6318594,9.858 13.2511875,9.4501875 12.7605938,9.41629687 C12.1816406,9.3763125 11.2627969,8.89298437 10.8880781,8.51948437 C10.1299219,7.76371875 9.8083125,6.71325 9.9826875,5.561625 C10.1289844,4.5950625 10.6178438,3.60309375 11.3394375,2.793375 L11.3394375,5.52032812 C11.3394375,5.84170312 11.5043438,6.14057812 11.7762188,6.31190625 L14.0792344,7.76329687 C14.3826094,7.95454687 14.768625,7.95548437 15.0730313,7.76582812 L17.4015937,6.31457812 C17.6757656,6.14367187 17.8424063,5.84353125 17.8424063,5.52046875 L17.8424063,2.82885937 C18.6975469,3.80648437 19.1991094,5.03732812 19.1991094,6.1895625 C19.1991094,6.82664062 19.0366406,7.7480625 18.2627344,8.5194375 C17.8765312,8.90432812 16.9569844,9.39084375 16.3943906,9.41760937 C15.8955,9.441375 15.5032031,9.85279687 15.5032031,10.35225 L15.5032031,21.1464923 L17.3745469,21.1464923 L17.3745469,11.1209531 C18.2284687,10.8601875 19.0892344,10.3379062 19.5838125,9.844875 C20.5563281,8.8755 21.0704531,7.6115625 21.0704531,6.18965625 C21.0704531,4.43348437 20.2558125,2.57310937 18.8912813,1.21298437 Z" id="Path"></path>
                    <path d="M5.74246875,5.82989063 C5.9705625,5.59842188 6.06215625,5.26514063 5.9844375,4.94957813 L4.95520313,0.770203125 C4.85221875,0.352078125 4.47726563,0.058265625 4.04667188,0.058265625 L1.98815625,0.058265625 C1.5575625,0.058265625 1.18260938,0.352125 1.079625,0.770203125 L0.050390625,4.94957813 C-0.027328125,5.26514063 0.064265625,5.59842188 0.292359375,5.82989063 L2.1285,7.693875 L2.1285,12.1951875 C1.0393125,12.5813906 0.25715625,13.6220625 0.25715625,14.8418438 L0.25715625,21.19275 C0.25696875,21.9426094 0.548953125,22.6475156 1.07929688,23.1779062 C1.60945313,23.7080625 2.314125,24 3.06346875,23.9999531 C3.06370313,23.9999063 3.06403125,23.9999531 3.06426563,23.9999531 C3.814125,23.9999531 4.51898438,23.7079688 5.04914063,23.1778594 C5.57934375,22.6476563 5.87132813,21.9426094 5.87123438,21.1928438 L5.87123438,14.8418906 C5.87123438,14.0920312 5.57920313,13.3871719 5.049,12.8569688 C4.74778125,12.55575 4.39007813,12.3314063 3.99989063,12.193875 L3.99989063,7.59890625 L5.74246875,5.82989063 Z M3.99984375,14.8418906 L3.99984375,21.1929375 C3.99989063,21.4429687 3.90257813,21.6779531 3.72585938,21.854625 C3.5491875,22.0312969 3.31425,22.1286094 3.06403125,22.1286094 L3.06375,22.1286094 C2.814,22.1286094 2.57915625,22.0312969 2.40253125,21.854625 C2.2258125,21.6778594 2.1285,21.4430156 2.12854688,21.1930312 L2.12854688,14.8418906 C2.12854688,14.3260312 2.54826563,13.9062656 3.06417187,13.9062187 C3.31410937,13.9062187 3.54909375,14.0035312 3.7258125,14.18025 C3.90253125,14.3570625 3.99989062,14.592 3.99989062,14.8418906 L3.99984375,14.8418906 Z M3.0174375,5.92959375 L1.9925625,4.88915625 L2.72142187,1.92951563 L3.31345312,1.92951563 L4.04235937,4.88915625 L3.0174375,5.92959375 Z" id="Shape" fill-rule="nonzero"></path>
                </g>
            </g>
        </g>
    </g>
</svg>