
<svg width="15px" height="15px" viewBox="0 0 15 15" version="1.1" xmlns="http://www.w3.org/2000/svg" xmlns:xlink="http://www.w3.org/1999/xlink">
    <!-- Generator: Sketch 50.2 (55047) - http://www.bohemiancoding.com/sketch -->
    <desc>Created with Sketch.</desc>
    <defs></defs>
    <g id="main" stroke="none" stroke-width="1" fill="none" fill-rule="evenodd" opacity="0.539453125">
        <g id="main-newpaper-copy" transform="translate(-1022.000000, -77.000000)" fill="#000000" fill-rule="nonzero">
            <g id="signature" transform="translate(1022.000000, 77.000000)">
                <path d="M13.8694681,1.13150091 C12.3599029,-0.376154477 9.90329908,-0.378179124 8.39067366,1.13150091 L6.84264317,2.67964923 C6.82343404,2.6958464 6.80012883,2.70192034 6.78195548,2.72014216 C6.76378213,2.73836398 6.75766157,2.76162387 6.74146563,2.78083447 L1.55005498,7.97264026 C0.550426535,8.97436944 0,10.3059747 0,11.7215793 L0,13.9881476 C0,14.5466675 0.45329798,15 1.0117754,15 L3.27817114,15 C4.693668,15 6.02512488,14.4495316 7.0288494,13.4488383 L13.8684794,6.60868769 C15.3770087,5.09900765 15.3770087,2.64118094 13.8694681,1.13150091 Z M5.53136606,12.052694 C4.91884289,12.6632142 4.10442374,13 3.23908886,13 L2,13 L2,11.7609183 C2,10.8955885 2.33674128,10.0811741 2.94628856,9.46963092 L7.41594546,5 L10,7.58403952 L5.53136606,12.052694 Z M12.4658079,5.1251523 L11.59108,6 L9,3.40856503 L9.87370214,2.53474321 C10.5880873,1.82123941 11.7513761,1.8222653 12.4647822,2.53474321 C13.1782349,3.24922626 13.1782349,4.4116485 12.4658079,5.1251523 Z" id="Shape"></path>
            </g>
        </g>
    </g>
</svg>