<svg xmlns="http://www.w3.org/2000/svg" viewBox="0 0 22 22"><g fill-rule="evenodd"><path d="M11,17.5 C15.6944204,17.5 19.5,13.6944204 19.5,9 C19.5,4.30557963 15.6944204,0.5 11,0.5 C6.30557963,0.5 2.5,4.30557963 2.5,9 C2.5,13.6944204 6.30557963,17.5 11,17.5 Z M11,16.5 C6.85786438,16.5 3.5,13.1421356 3.5,9 C3.5,4.85786438 6.85786438,1.5 11,1.5 C15.1421356,1.5 18.5,4.85786438 18.5,9 C18.5,13.1421356 15.1421356,16.5 11,16.5 Z"></path><rect width="2" height="3" x="10" y="17"></rect><path d="M10.5200981,8.52291935 C10.4441647,8.37625268 10.3580314,8.23403046 10.2588647,8.10014157 C10.0763981,7.85291935 9.85426472,7.63791935 9.60549805,7.45514157 C9.32556472,7.25014157 9.01673139,7.0884749 8.71583139,6.91569713 C8.66369805,6.88569713 8.61213139,6.85458602 8.56113139,6.8234749 C8.46649805,6.76403046 8.37413139,6.70236379 8.28686472,6.6334749 C8.14236472,6.51903046 8.01373139,6.38514157 7.91853139,6.22903046 C7.79499805,6.02680824 7.73889805,5.79458602 7.71509805,5.56236379 C7.68449805,5.26069713 7.72076472,4.9534749 7.81709805,4.66514157 C7.90096472,4.41625268 8.02903139,4.18180824 8.19223139,3.97403046 C8.52033139,3.55625268 8.98613139,3.25125268 9.50236472,3.1034749 C9.70126472,3.04680824 9.90413139,3.01514157 10.1098314,3.00291935 C10.1704647,3.00069713 10.2305314,2.99958602 10.2905981,3.00014157 C10.3699314,3.00236379 10.4492647,3.00680824 10.5280314,3.01569713 C10.7218314,3.03736379 10.9127981,3.08069713 11.0963981,3.14514157 C11.3128647,3.22125268 11.5185647,3.32736379 11.7044314,3.46014157 C11.8591314,3.57125268 12.0002314,3.70014157 12.1220647,3.84514157 C12.2716647,4.02236379 12.3917981,4.22236379 12.4773647,4.43625268 C12.5153314,4.53180824 12.5476314,4.63014157 12.5691647,4.73069713 C12.6076981,4.90625268 12.6161981,5.08791935 12.6167647,5.26736379 C12.6167647,5.47958602 12.6037314,5.69180824 12.5838981,5.90291935 C12.5419647,6.34791935 12.4716981,6.79014157 12.3838647,7.22791935 C12.3186981,7.55125268 12.2438981,7.8734749 12.1520981,8.19069713 C12.1039314,8.35791935 12.0517981,8.52514157 11.9883314,8.68791935 C12.1418981,8.69458602 12.2960314,8.69180824 12.4495981,8.67625268 C12.7601314,8.64569713 13.061598,8.56569713 13.3483314,8.44625268 C13.670198,8.31236379 13.967698,8.13180824 14.2714314,7.9634749 C14.3241314,7.93514157 14.377398,7.90680824 14.4306647,7.87903046 C14.6159647,7.78625268 14.8069314,7.7034749 15.0120647,7.66236379 C15.1004647,7.64403046 15.1894314,7.63514157 15.2795314,7.63291935 C15.3146647,7.63291935 15.314098,7.63291935 15.3492314,7.6334749 C15.4087314,7.63680824 15.4676647,7.64236379 15.5260314,7.65236379 C15.6019647,7.66569713 15.676198,7.68625268 15.749298,7.70958602 C15.8439314,7.74014157 15.936298,7.77625268 16.0258314,7.81903046 C16.1663647,7.88514157 16.2995314,7.96625268 16.422498,8.06014157 C16.5284647,8.14125268 16.6270647,8.23125268 16.7171647,8.32958602 C16.9999314,8.63791935 17.192598,9.02069713 17.279298,9.42514157 C17.3325647,9.67236379 17.3461647,9.92736379 17.3212314,10.1784749 C17.2872314,10.5184749 17.1835314,10.8512527 17.0169314,11.1512527 C16.8027314,11.5368083 16.483698,11.8662527 16.0972314,12.0901416 C15.9487647,12.1762527 15.7912314,12.2468083 15.6274647,12.2990305 C15.4631314,12.3518083 15.291998,12.3862527 15.1191647,12.4012527 C14.851698,12.4240305 14.576298,12.4006972 14.3184647,12.3256972 C14.1161647,12.2668083 13.926898,12.1690305 13.7455647,12.0651416 C13.5126647,11.9318083 13.289398,11.7812527 13.071798,11.6251416 C12.7289647,11.3790305 12.3991647,11.1156972 12.0806981,10.8406972 C11.8092647,10.6062527 11.5446314,10.3629194 11.2969981,10.1034749 C11.2238981,10.0268082 11.1519314,9.94903046 11.0833647,9.8684749 C10.9960981,10.0001416 10.9178981,10.1373638 10.8515981,10.2812527 C10.7235314,10.5584749 10.6441981,10.8540305 10.6067981,11.1562527 C10.5642981,11.4951416 10.5756314,11.8368083 10.5727981,12.1779194 C10.5722314,12.2368083 10.5705314,12.2956972 10.5682647,12.3551416 C10.5625981,12.4745861 10.5529647,12.5940305 10.5314314,12.7123638 C10.4996981,12.8918083 10.4413314,13.0679194 10.3449981,13.2251416 C10.2690647,13.3501416 10.1704647,13.4573638 10.0593981,13.5545861 C9.98573139,13.6190305 9.90696472,13.6790305 9.82423139,13.7340305 C9.71146472,13.8084749 9.59076472,13.8734749 9.46553139,13.9268083 C8.96969805,14.1373638 8.40416472,14.1645861 7.88453139,14.0240305 C7.19999805,13.8384749 6.61236472,13.3673638 6.28426472,12.7529194 C6.17603139,12.5490305 6.09613139,12.3306972 6.04909805,12.1056972 C6.01113139,11.9218083 5.99469805,11.7334749 6.00149805,11.5462527 C6.00886472,11.3406972 6.04456472,11.1356972 6.10859805,10.9395861 C6.19133139,10.6851416 6.32166472,10.4456971 6.49279805,10.2373638 C6.57439805,10.1384749 6.66393139,10.0451416 6.76479805,9.96458602 C6.86623139,9.8834749 6.97559805,9.81180824 7.08779805,9.74569713 C7.21473139,9.67069713 7.34563139,9.60180824 7.47823139,9.53680824 C7.81369805,9.37236379 8.16049805,9.22958602 8.51069805,9.09903046 C8.96403139,8.92958602 9.42529805,8.77903046 9.89449805,8.65791935 C10.0389981,8.62069713 10.1840647,8.58625268 10.3308314,8.55736379 C10.3937314,8.54458602 10.4571981,8.53291935 10.5200981,8.52291935 L10.5200981,8.52291935 Z M10.2849314,9.45903046 C9.95399805,9.53958602 9.62759805,9.63569713 9.30459805,9.74403046 C9.02013139,9.83903046 8.73793139,9.94236379 8.46026472,10.0562527 C8.19109805,10.1662527 7.92533139,10.284586 7.66976472,10.4223638 C7.60176472,10.4590305 7.53546472,10.4979194 7.47029805,10.5390305 C7.39493139,10.5868082 7.32126472,10.6384749 7.25893139,10.7029194 C7.16996472,10.7951416 7.09459805,10.9001416 7.03679805,11.0134749 C6.98466472,11.1156972 6.94669805,11.2240305 6.92233139,11.3356972 C6.90023139,11.4384749 6.89059805,11.5429194 6.89173139,11.6479194 C6.89286472,11.7434749 6.90363139,11.8384749 6.92289805,11.9323638 C7.03396472,12.4640305 7.43006472,12.9206972 7.94346472,13.1251416 C8.30273139,13.2679194 8.71583139,13.2840305 9.07736472,13.1412527 C9.14253139,13.1156972 9.20543139,13.0851416 9.26493139,13.0501416 C9.33576472,13.0084749 9.40263139,12.9601416 9.46439805,12.9062527 C9.51086472,12.8656972 9.55393139,12.8240305 9.58453139,12.7706972 C9.61853139,12.7118083 9.63723139,12.6451416 9.65026472,12.5790305 C9.66726472,12.4929194 9.67406472,12.4051416 9.67746472,12.3173638 C9.68709805,12.1095861 9.68086472,11.9018083 9.68256472,11.6940305 C9.68369805,11.6268083 9.68539805,11.5590305 9.68709805,11.4918083 C9.70013139,11.1951416 9.73129805,10.9006972 9.80043139,10.6112527 C9.86106472,10.359586 9.94776472,10.1140305 10.0593981,9.87958602 C10.1256981,9.74069713 10.2010647,9.60625268 10.2820981,9.47514157 L10.2939981,9.45736379 C10.2905981,9.45791935 10.2877647,9.4584749 10.2849314,9.45903046 L10.2849314,9.45903046 Z M15.2914314,8.5034749 C15.2041647,8.50569713 15.1191647,8.52958602 15.0392647,8.56125268 C14.972398,8.58791935 14.9066647,8.6184749 14.8426314,8.65125268 C14.6539314,8.74736379 14.472598,8.85625268 14.2878647,8.9584749 C14.2272314,8.99180824 14.166598,9.02403046 14.1059647,9.05569713 C13.836798,9.1934749 13.5591314,9.31403046 13.2684314,9.40014157 C13.0145647,9.47514157 12.7538981,9.52458602 12.4898314,9.54736379 C12.3334314,9.56069713 12.1770314,9.56403046 12.0200647,9.56125268 L11.9979647,9.56014157 C12.1883647,9.75736379 12.3912314,9.9434749 12.5974981,10.1240305 C12.8462647,10.3429194 13.1035314,10.5529194 13.3681647,10.7529194 C13.5840647,10.9162527 13.804498,11.0734749 14.0345647,11.2168083 C14.1348647,11.2795861 14.2368647,11.3395861 14.3422647,11.3934749 C14.4119647,11.4290305 14.4839314,11.4629194 14.5587314,11.4868083 C14.6573314,11.5184749 14.7638647,11.5329194 14.866998,11.5373638 C14.9831647,11.5423638 15.1004647,11.5323638 15.2143647,11.5079194 C15.3180647,11.4856972 15.4189314,11.4518083 15.514698,11.4079194 C15.6019647,11.3673638 15.6858314,11.3190305 15.7634647,11.2634749 C16.221898,10.9368083 16.4757647,10.3762527 16.437798,9.82569713 C16.4100314,9.42180824 16.223598,9.02736379 15.9011647,8.76791935 C15.8467647,8.72458602 15.7895314,8.68514157 15.7294647,8.65069713 C15.6478647,8.60403046 15.5611647,8.56569713 15.4716314,8.53736379 C15.4234647,8.52180824 15.375298,8.5084749 15.324298,8.50403046 C15.3135314,8.5034749 15.3027647,8.5034749 15.2914314,8.5034749 L15.2914314,8.5034749 Z M10.1942647,3.87069713 C10.1273981,3.8734749 10.0610981,3.87791935 9.99536472,3.88736379 C9.80666472,3.91403046 9.62249805,3.97125268 9.45306472,4.05569713 C9.07793139,4.2434749 8.77589805,4.57236379 8.65406472,4.96903046 C8.63366472,5.03458602 8.61893139,5.10180824 8.60929805,5.16958602 C8.58946472,5.30569713 8.59229805,5.44458602 8.61723139,5.57958602 C8.62856472,5.63903046 8.64103139,5.70069713 8.66879805,5.75514157 C8.72376472,5.86458602 8.82803139,5.94625268 8.92719805,6.01569713 C8.95099805,6.03180824 8.97593139,6.0484749 9.00029805,6.06403046 C9.19126472,6.18680824 9.39356472,6.29180824 9.59019805,6.40458602 C9.64969805,6.43958602 9.70863139,6.47458602 9.76756472,6.51014157 C10.0236981,6.66903046 10.2696314,6.84291935 10.4917647,7.04569713 C10.6844314,7.22291935 10.8589647,7.41903046 11.0108314,7.63069713 C11.1014981,7.75625268 11.1825314,7.88680824 11.2584647,8.02125268 L11.2686647,8.04014157 C11.3479981,7.78069713 11.4120314,7.51625268 11.4692647,7.25125268 C11.5174314,7.02680824 11.5604981,6.80125268 11.5973314,6.57458602 C11.6471981,6.2684749 11.6879981,5.96069713 11.7100981,5.65180824 C11.7208647,5.50236379 11.7276647,5.35291935 11.7242647,5.20291935 C11.7219981,5.10569713 11.7180314,5.00680824 11.6970647,4.91125268 C11.6828981,4.84569713 11.6590981,4.78069713 11.6324647,4.71903046 C11.5417981,4.50791935 11.3921981,4.3234749 11.2063314,4.1834749 C11.0912981,4.09736379 10.9632314,4.02791935 10.8283647,3.97680824 C10.6504314,3.90958602 10.4628647,3.87625268 10.2724647,3.87069713 C10.2333647,3.87014157 10.2333647,3.87014157 10.1942647,3.87069713 L10.1942647,3.87069713 Z"></path><circle cx="11" cy="9" r="1"></circle><rect width="10" height="1" x="6" y="20" rx=".5"></rect></g></svg>