<svg xmlns="http://www.w3.org/2000/svg" viewBox="0 0 22 22"><g fill-rule="evenodd"><path d="M5,2.99079514 L5,19.0092049 C5,19.5522997 5.44687492,20 5.99188419,20 L17.0081158,20 C17.5551171,20 18,19.555607 18,19.0092049 L18,2.99079514 C18,2.44770034 17.5531251,2 17.0081158,2 L5.99188419,2 C5.44488287,2 5,2.444393 5,2.99079514 Z M4,2.99079514 C4,1.89130934 4.89339733,1 5.99188419,1 L17.0081158,1 C18.1082031,1 19,1.89821238 19,2.99079514 L19,19.0092049 C19,20.1086907 18.1066027,21 17.0081158,21 L5.99188419,21 C4.89179693,21 4,20.1017876 4,19.0092049 L4,2.99079514 Z"></path><path d="M11.5 8C12.8807119 8 14 6.88071187 14 5.5 14 4.11928813 12.8807119 3 11.5 3 10.1192881 3 9 4.11928813 9 5.5 9 6.88071187 10.1192881 8 11.5 8zM11.5 7.16666667C10.5795254 7.16666667 9.83333333 6.42047458 9.83333333 5.5 9.83333333 4.57952542 10.5795254 3.83333333 11.5 3.83333333 12.4204746 3.83333333 13.1666667 4.57952542 13.1666667 5.5 13.1666667 6.42047458 12.4204746 7.16666667 11.5 7.16666667zM11.5 17C12.8807119 17 14 15.8807119 14 14.5 14 13.1192881 12.8807119 12 11.5 12 10.1192881 12 9 13.1192881 9 14.5 9 15.8807119 10.1192881 17 11.5 17zM11.5 16.1666667C10.5795254 16.1666667 9.83333333 15.4204746 9.83333333 14.5 9.83333333 13.5795254 10.5795254 12.8333333 11.5 12.8333333 12.4204746 12.8333333 13.1666667 13.5795254 13.1666667 14.5 13.1666667 15.4204746 12.4204746 16.1666667 11.5 16.1666667z"></path><path d="M11.5,19.5 C14.2614237,19.5 16.5,17.2614237 16.5,14.5 C16.5,11.7385763 14.2614237,9.5 11.5,9.5 C8.73857625,9.5 6.5,11.7385763 6.5,14.5 C6.5,17.2614237 8.73857625,19.5 11.5,19.5 Z M11.5,18.5 C9.290861,18.5 7.5,16.709139 7.5,14.5 C7.5,12.290861 9.290861,10.5 11.5,10.5 C13.709139,10.5 15.5,12.290861 15.5,14.5 C15.5,16.709139 13.709139,18.5 11.5,18.5 Z"></path></g></svg>