<?xml version="1.0" encoding="UTF-8"?>
<svg width="24px" height="24px" viewBox="0 0 24 24" version="1.1" xmlns="http://www.w3.org/2000/svg" xmlns:xlink="http://www.w3.org/1999/xlink">
    <!-- Generator: Sketch 58 (84663) - https://sketch.com -->
    <title>icons/24/review</title>
    <desc>Created with Sketch.</desc>
    <g id="icons/24/review" stroke="none" stroke-width="1" fill="none" fill-rule="evenodd">
        <g id="Group" transform="translate(3.995000, 3.995000)" fill="#B4B4B4" fill-rule="nonzero">
            <path d="M7.44432527,0.716236842 C8.93897074,0.716236842 10.1547497,1.93200655 10.1547497,3.42666124 L10.1547497,5.37942008 L13.2093159,5.37942326 C13.3189329,5.37863047 13.4288176,5.38633554 13.5352797,5.40250776 C14.0748566,5.48439436 14.5508715,5.77190277 14.8745636,6.2113953 C15.1982071,6.6508929 15.3315038,7.19079919 15.2495553,7.73058429 L14.3301433,13.7268043 C14.2563644,14.2134612 14.0086612,14.6577539 13.6330854,14.9769481 C13.2634585,15.2911641 12.7941535,15.4636217 12.3091022,15.4636217 L2.78111385,15.4636217 C1.65379701,15.4636217 0.736846345,14.5466427 0.736846345,13.4193258 L0.736846345,8.75611446 C0.736846345,7.62879762 1.65379701,6.71184695 2.78109146,6.71184695 L4.31594901,6.71157507 L6.79379502,1.13900542 C6.8930797,0.915577504 7.09977236,0.759335529 7.34952592,0.722842253 L7.44432527,0.716236842 Z M4.1933181,7.88281842 L2.78111087,7.88281842 L2.6807196,7.88860577 C2.28501159,7.93422694 1.96497909,8.24617287 1.9146935,8.64678958 L1.90812413,8.74822498 L1.90787943,13.4192976 L1.91301184,13.5143286 C1.96049724,13.9513745 2.33162089,14.292532 2.78111385,14.292532 L4.19337996,14.2918742 L4.31971582,14.1654795 L4.31971582,8.00921316 L4.1933181,7.88281842 Z M7.87401206,2.21378267 L5.49156656,7.54796729 L5.49156656,14.0397991 L12.3091022,14.0397991 C12.5831807,14.0397991 12.8238488,13.8565968 12.9025637,13.6002124 L12.9226275,13.5121914 L13.8420436,7.51586013 C13.8668385,7.3525383 13.8264612,7.18928169 13.7281034,7.05573714 C13.6296629,6.92208044 13.4856766,6.83511204 13.3216362,6.8102246 L13.2717045,6.80475704 L13.2199978,6.80324251 L9.44285254,6.80327081 C9.07991772,6.80327081 8.78042952,6.53169161 8.73650196,6.18067232 L8.73095542,6.09137369 L8.73095542,3.42666124 C8.73095542,2.91533067 8.42835142,2.46258861 7.97999488,2.25680226 L7.87401206,2.21378267 Z" id="Combined-Shape"></path>
        </g>
    </g>
</svg>