
<svg width="420px" height="512px" viewBox="0 0 420 512" version="1.1" xmlns="http://www.w3.org/2000/svg" xmlns:xlink="http://www.w3.org/1999/xlink">
    <!-- Generator: Sketch 51.2 (57519) - http://www.bohemiancoding.com/sketch -->
    <desc>Created with Sketch.</desc>
    <defs></defs>
    <g id="Page-1" stroke="none" stroke-width="1" fill="none" fill-rule="evenodd">
        <g id="guarantee" fill="#000000" fill-rule="nonzero">
            <path d="M130,146 C135.519531,146 140,141.519531 140,136 C140,130.480469 135.519531,126 130,126 C124.480469,126 120,130.480469 120,136 C120,141.519531 124.480469,146 130,146 Z" id="Shape"></path>
            <path d="M130,206 C135.519531,206 140,201.519531 140,196 C140,190.480469 135.519531,186 130,186 C124.480469,186 120,190.480469 120,196 C120,201.519531 124.480469,206 130,206 Z" id="Shape"></path>
            <path d="M110,512 L350,512 C388.597656,512 420,480.597656 420,442 C420,436.476562 415.523438,432 410,432 L380,432 L380,50 C380,22.429688 357.570312,0 330,0 C330,0 42.257812,0 40,0 C17.945312,0 0,17.945312 0,40 L0,90 C0,95.523438 4.476562,100 10,100 L60,100 L60,459.859375 C60,487.035156 80.6875,512 110,512 Z M350,492 L149.976562,492 C156.265625,483.636719 160,473.144531 160,461.898438 L160,451.898438 L398.996094,451.898438 C394.351562,474.695312 374.144531,492 350,492 Z M360,50 L360,432 L150,432 C144.476562,432 140,436.476562 140,442 L140,462 C140,478.542969 126.542969,492 110,492 C92.070312,492 80,476.484375 80,459.859375 L80,40 C80,32.789062 78.078125,25.9375 74.652344,20 L330,20 C346.542969,20 360,33.457031 360,50 Z M20,80 L20,40 C20,28.972656 28.972656,20 40,20 C50.933594,20 60,28.816406 60,40 L60,80 L20,80 Z" id="Shape"></path>
            <path d="M220,286 C220,303.3125 227.242188,319.320312 240,330.6875 L240,396 C240,399.6875 242.03125,403.078125 245.28125,404.816406 C248.53125,406.558594 252.480469,406.367188 255.546875,404.320312 L280,388.019531 L304.453125,404.320312 C307.527344,406.371094 311.472656,406.554688 314.71875,404.816406 C317.96875,403.078125 320,399.6875 320,396 L320,330.6875 C332.761719,319.316406 340,303.308594 340,286 C340,252.917969 313.085938,226 280,226 C246.914062,226 220,252.914062 220,286 Z M285.546875,367.679688 C282.1875,365.441406 277.8125,365.441406 274.453125,367.679688 L260,377.316406 L260,342.585938 C266.355469,344.832031 273.085938,346 280,346 C286.914062,346 293.644531,344.832031 300,342.585938 L300,377.316406 L285.546875,367.679688 Z M320,286 C320,308.574219 301.617188,326 280,326 C258.375,326 240,308.585938 240,286 C240,263.945312 257.945312,246 280,246 C302.054688,246 320,263.945312 320,286 Z" id="Shape"></path>
            <path d="M130,86 L310,86 C315.523438,86 320,81.523438 320,76 C320,70.476562 315.523438,66 310,66 L130,66 C124.476562,66 120,70.476562 120,76 C120,81.523438 124.476562,86 130,86 Z" id="Shape"></path>
            <path d="M170,146 L310,146 C315.523438,146 320,141.523438 320,136 C320,130.476562 315.523438,126 310,126 L170,126 C164.476562,126 160,130.476562 160,136 C160,141.523438 164.476562,146 170,146 Z" id="Shape"></path>
            <path d="M170,206 L310,206 C315.523438,206 320,201.523438 320,196 C320,190.476562 315.523438,186 310,186 L170,186 C164.476562,186 160,190.476562 160,196 C160,201.523438 164.476562,206 170,206 Z" id="Shape"></path>
            <path d="M130,326 L190,326 C195.523438,326 200,321.523438 200,316 C200,310.476562 195.523438,306 190,306 L130,306 C124.476562,306 120,310.476562 120,316 C120,321.523438 124.476562,326 130,326 Z" id="Shape"></path>
            <path d="M130,266 L190,266 C195.523438,266 200,261.523438 200,256 C200,250.476562 195.523438,246 190,246 L130,246 C124.476562,246 120,250.476562 120,256 C120,261.523438 124.476562,266 130,266 Z" id="Shape"></path>
            <path d="M130,386 L190,386 C195.523438,386 200,381.523438 200,376 C200,370.476562 195.523438,366 190,366 L130,366 C124.476562,366 120,370.476562 120,376 C120,381.523438 124.476562,386 130,386 Z" id="Shape"></path>
        </g>
    </g>
</svg>