
<svg width="512px" height="512px" viewBox="0 0 512 512" version="1.1" xmlns="http://www.w3.org/2000/svg" xmlns:xlink="http://www.w3.org/1999/xlink">
    <!-- Generator: Sketch 51.2 (57519) - http://www.bohemiancoding.com/sketch -->
    <desc>Created with Sketch.</desc>
    <defs></defs>
    <g id="Page-1" stroke="none" stroke-width="1" fill="none" fill-rule="evenodd">
        <g id="official" fill="#000000" fill-rule="nonzero">
            <path d="M109.960938,266 C104.441406,266 99.960938,270.480469 99.960938,276 C99.960938,281.519531 104.441406,286 109.960938,286 C115.480469,286 119.960938,281.519531 119.960938,276 C119.960938,270.480469 115.480469,266 109.960938,266 Z" id="Shape"></path>
            <path d="M490.070312,204.644531 C489.121094,199.847656 490.746094,192.9375 492.3125,186.253906 C494.679688,176.179688 497.355469,164.765625 493.027344,154.308594 C488.609375,143.664062 478.53125,137.4375 469.636719,131.945312 C463.890625,128.394531 457.945312,124.722656 455.34375,120.832031 C452.683594,116.855469 451.539062,109.90625 450.4375,103.1875 C448.753906,92.929688 446.84375,81.300781 438.769531,73.226562 C430.695312,65.152344 419.0625,63.246094 408.804688,61.5625 C402.085938,60.460938 395.140625,59.320312 391.175781,56.671875 C387.277344,54.0625 383.609375,48.117188 380.058594,42.367188 C374.5625,33.472656 368.335938,23.386719 357.6875,18.972656 C347.238281,14.640625 335.824219,17.320312 325.753906,19.683594 C319.066406,21.253906 312.152344,22.875 307.359375,21.929688 C302.589844,20.984375 295.726562,16.898438 289.089844,12.945312 C278.40625,6.582031 267.355469,0 256,0 C244.636719,0 233.582031,6.582031 222.890625,12.945312 C216.253906,16.898438 209.390625,20.984375 204.621094,21.929688 C199.832031,22.875 192.921875,21.253906 186.238281,19.683594 C176.164062,17.320312 164.75,14.640625 154.296875,18.972656 C143.652344,23.390625 137.425781,33.472656 131.929688,42.367188 C128.382812,48.117188 124.710938,54.0625 120.820312,56.667969 C116.855469,59.320312 109.910156,60.460938 103.191406,61.5625 C92.929688,63.246094 81.300781,65.15625 73.21875,73.230469 C65.152344,81.296875 63.246094,92.914062 61.5625,103.167969 C60.460938,109.890625 59.320312,116.84375 56.648438,120.828125 C54.042969,124.726562 48.101562,128.394531 42.355469,131.945312 C33.464844,137.441406 23.386719,143.664062 18.972656,154.316406 C14.644531,164.765625 17.316406,176.175781 19.675781,186.242188 C21.242188,192.925781 22.863281,199.839844 21.910156,204.644531 C20.96875,209.417969 16.882812,216.28125 12.929688,222.921875 C6.574219,233.605469 -2.84217094e-14,244.648438 -2.84217094e-14,256 C-2.84217094e-14,267.359375 6.574219,278.410156 12.933594,289.097656 C16.882812,295.738281 20.96875,302.601562 21.910156,307.386719 C22.859375,312.175781 21.242188,319.089844 19.675781,325.773438 C17.316406,335.84375 14.644531,347.253906 18.972656,357.699219 C23.390625,368.347656 33.464844,374.570312 42.355469,380.066406 C48.101562,383.613281 54.042969,387.285156 56.660156,391.195312 C59.320312,395.160156 60.464844,402.113281 61.566406,408.835938 C63.246094,419.085938 65.152344,430.703125 73.21875,438.78125 C81.289062,446.847656 92.90625,448.753906 103.15625,450.4375 C109.882812,451.539062 116.835938,452.679688 120.820312,455.351562 C124.714844,457.957031 128.386719,463.898438 131.9375,469.644531 C137.429688,478.535156 143.65625,488.609375 154.304688,493.027344 C164.746094,497.355469 176.15625,494.679688 186.226562,492.324219 C192.910156,490.757812 199.828125,489.140625 204.625,490.089844 C209.394531,491.03125 216.261719,495.117188 222.902344,499.066406 C233.589844,505.425781 244.640625,512 256,512 C267.351562,512 278.398438,505.425781 289.078125,499.070312 C295.71875,495.117188 302.585938,491.03125 307.363281,490.089844 C312.160156,489.140625 319.074219,490.757812 325.765625,492.324219 C335.832031,494.683594 347.242188,497.355469 357.691406,493.027344 C368.335938,488.613281 374.5625,478.535156 380.054688,469.644531 C383.605469,463.898438 387.273438,457.957031 391.179688,455.347656 C395.15625,452.679688 402.109375,451.539062 408.832031,450.4375 C419.082031,448.753906 430.703125,446.847656 438.769531,438.78125 C446.84375,430.710938 448.753906,419.082031 450.4375,408.824219 C451.539062,402.101562 452.683594,395.15625 455.339844,391.179688 C457.945312,387.285156 463.890625,383.613281 469.636719,380.0625 C478.53125,374.570312 488.609375,368.34375 493.027344,357.695312 C497.355469,347.246094 494.679688,335.832031 492.3125,325.761719 C490.746094,319.078125 489.125,312.171875 490.070312,307.382812 C491.011719,302.609375 495.101562,295.746094 499.050781,289.109375 C505.417969,278.417969 512,267.363281 512,256 C512,244.644531 505.417969,233.59375 499.054688,222.910156 C495.101562,216.273438 491.015625,209.410156 490.070312,204.644531 Z M481.867188,278.878906 C477.050781,286.972656 472.066406,295.34375 470.449219,303.496094 L470.449219,303.5 C468.664062,312.53125 470.789062,321.578125 472.84375,330.332031 C474.601562,337.8125 476.414062,345.546875 474.554688,350.039062 C472.613281,354.722656 465.757812,358.953125 459.128906,363.050781 C451.5625,367.722656 443.742188,372.550781 438.71875,380.0625 C433.652344,387.640625 432.152344,396.761719 430.703125,405.582031 C429.449219,413.21875 428.152344,421.117188 424.628906,424.636719 C421.113281,428.152344 413.226562,429.449219 405.597656,430.699219 C396.761719,432.148438 387.628906,433.648438 380.050781,438.730469 C372.542969,443.75 367.714844,451.570312 363.039062,459.132812 C358.945312,465.757812 354.714844,472.609375 350.03125,474.550781 C345.535156,476.414062 337.804688,474.601562 330.324219,472.851562 C321.570312,470.800781 312.515625,468.679688 303.484375,470.46875 C295.324219,472.078125 286.949219,477.0625 278.851562,481.882812 C270.882812,486.625 261.851562,492 256,492 C250.140625,492 241.105469,486.621094 233.128906,481.878906 C225.03125,477.058594 216.65625,472.078125 208.507812,470.46875 C199.519531,468.6875 190.546875,470.769531 181.664062,472.851562 C174.1875,474.601562 166.453125,476.414062 161.960938,474.554688 C157.277344,472.609375 153.046875,465.757812 148.949219,459.132812 C144.277344,451.570312 139.449219,443.75 131.949219,438.734375 C124.363281,433.648438 115.230469,432.148438 106.394531,430.699219 C98.769531,429.449219 90.878906,428.15625 87.367188,424.640625 C83.847656,421.121094 82.554688,413.230469 81.300781,405.597656 C79.851562,396.765625 78.355469,387.628906 73.273438,380.058594 C68.25,372.554688 60.433594,367.722656 52.871094,363.050781 C46.242188,358.957031 39.390625,354.722656 37.449219,350.042969 C35.585938,345.546875 37.398438,337.8125 39.148438,330.335938 C41.199219,321.578125 43.320312,312.527344 41.53125,303.503906 C39.921875,295.34375 34.941406,286.96875 30.121094,278.871094 C25.378906,270.898438 20,261.859375 20,256 C20,250.148438 25.375,241.117188 30.117188,233.148438 C34.9375,225.050781 39.921875,216.675781 41.527344,208.523438 C43.320312,199.488281 41.199219,190.433594 39.148438,181.679688 C37.398438,174.199219 35.585938,166.46875 37.445312,161.972656 C39.390625,157.285156 46.242188,153.054688 52.867188,148.960938 C60.429688,144.285156 68.25,139.457031 73.265625,131.957031 C78.351562,124.371094 79.851562,115.238281 81.300781,106.402344 C82.550781,98.773438 83.84375,90.886719 87.359375,87.375 C90.886719,83.851562 98.789062,82.554688 106.433594,81.300781 C115.253906,79.851562 124.371094,78.355469 131.945312,73.289062 C139.449219,68.261719 144.277344,60.441406 148.949219,52.878906 C153.042969,46.246094 157.277344,39.390625 161.957031,37.449219 C166.453125,35.585938 174.1875,37.398438 181.667969,39.15625 C190.417969,41.210938 199.46875,43.335938 208.503906,41.550781 C216.65625,39.9375 225.027344,34.953125 233.121094,30.132812 C241.097656,25.382812 250.140625,20 256,20 C261.851562,20 270.886719,25.382812 278.855469,30.128906 C286.949219,34.949219 295.320312,39.933594 303.480469,41.550781 C312.515625,43.335938 321.566406,41.210938 330.320312,39.15625 C337.800781,37.402344 345.535156,35.585938 350.027344,37.445312 C354.710938,39.390625 358.945312,46.246094 363.039062,52.878906 C367.710938,60.441406 372.542969,68.261719 380.054688,73.296875 C387.628906,78.355469 396.746094,79.851562 405.566406,81.296875 C413.207031,82.550781 421.105469,83.847656 424.628906,87.371094 C428.148438,90.890625 429.449219,98.789062 430.703125,106.425781 C432.152344,115.25 433.648438,124.371094 438.71875,131.949219 C443.742188,139.457031 451.5625,144.285156 459.128906,148.960938 C465.757812,153.054688 472.609375,157.285156 474.550781,161.964844 C476.414062,166.464844 474.597656,174.199219 472.84375,181.679688 C470.789062,190.433594 468.664062,199.484375 470.449219,208.519531 C472.066406,216.679688 477.050781,225.050781 481.871094,233.144531 C486.617188,241.113281 492,250.148438 492,256 C492,261.859375 486.617188,270.902344 481.867188,278.878906 Z" id="Shape"></path>
            <path d="M255.960938,60 C151.433594,60 59.960938,151.128906 59.960938,256 C59.960938,360.527344 151.089844,452 255.960938,452 C360.488281,452 451.960938,360.871094 451.960938,256 C451.960938,151.472656 360.832031,60 255.960938,60 Z M255.960938,432 C162.203125,432 79.960938,349.757812 79.960938,256 C79.960938,162.242188 162.203125,80 255.960938,80 C349.71875,80 431.960938,162.242188 431.960938,256 C431.960938,349.757812 349.71875,432 255.960938,432 Z" id="Shape"></path>
            <path d="M255.960938,120 C261.484375,120 265.960938,115.523438 265.960938,110 C265.960938,104.476562 261.484375,100 255.960938,100 C180.726562,100 111.953125,161.613281 101.480469,234.601562 C100.695312,240.066406 104.492188,245.132812 109.960938,245.917969 C110.441406,245.988281 110.917969,246.019531 111.394531,246.019531 C116.285156,246.019531 120.5625,242.425781 121.277344,237.4375 C130.410156,173.78125 192.085938,120 255.960938,120 Z" id="Shape"></path>
            <path d="M347.355469,232.402344 L290.261719,224.109375 L264.738281,172.375 C263.054688,168.960938 259.578125,166.800781 255.769531,166.800781 C251.964844,166.800781 248.488281,168.960938 246.804688,172.375 L221.269531,224.109375 L164.171875,232.402344 C160.40625,232.949219 157.277344,235.589844 156.101562,239.210938 C154.925781,242.828125 155.90625,246.804688 158.632812,249.460938 L199.945312,289.730469 L190.195312,346.601562 C189.550781,350.351562 191.09375,354.144531 194.175781,356.378906 C197.253906,358.617188 201.335938,358.910156 204.707031,357.140625 L255.769531,330.289062 L306.824219,357.140625 C310.160156,358.890625 314.246094,358.640625 317.359375,356.378906 C320.4375,354.144531 321.980469,350.351562 321.335938,346.597656 L311.585938,289.730469 L352.902344,249.460938 C355.628906,246.800781 356.609375,242.828125 355.433594,239.207031 C354.253906,235.589844 351.125,232.949219 347.355469,232.402344 Z M293.859375,279.078125 C291.503906,281.375 290.425781,284.6875 290.984375,287.929688 L298.199219,330.007812 L260.425781,310.140625 C257.511719,308.609375 254.03125,308.609375 251.117188,310.140625 L213.332031,330.007812 L220.546875,287.929688 C221.101562,284.6875 220.027344,281.378906 217.671875,279.078125 L187.101562,249.285156 L229.347656,243.148438 C232.605469,242.675781 235.421875,240.628906 236.878906,237.675781 L255.769531,199.398438 L274.652344,237.675781 C276.109375,240.628906 278.925781,242.675781 282.183594,243.148438 L324.429688,249.285156 L293.859375,279.078125 Z" id="Shape"></path>
        </g>
    </g>
</svg>