
<svg width="512px" height="440px" viewBox="0 0 512 440" version="1.1" xmlns="http://www.w3.org/2000/svg" xmlns:xlink="http://www.w3.org/1999/xlink">
    <!-- Generator: Sketch 51.2 (57519) - http://www.bohemiancoding.com/sketch -->
    <desc>Created with Sketch.</desc>
    <defs></defs>
    <g id="Page-1" stroke="none" stroke-width="1" fill="none" fill-rule="evenodd">
        <g id="repair" fill="#000000" fill-rule="nonzero">
            <path d="M379,360 C373.48,360 369,364.48 369,370 C369,375.52 373.48,380 379,380 C384.52,380 389,375.52 389,370 C389,364.48 384.52,360 379,360 Z" id="Shape"></path>
            <rect id="Rectangle-path" x="166" y="200" width="20" height="20"></rect>
            <path d="M176,140 C170.48,140 166,144.48 166,150 C166,155.52 170.48,160 176,160 C181.52,160 186,155.52 186,150 C186,144.48 181.52,140 176,140 Z" id="Shape"></path>
            <rect id="Rectangle-path" x="126" y="200" width="20" height="20"></rect>
            <path d="M136,140 C130.48,140 126,144.48 126,150 C126,155.52 130.48,160 136,160 C141.52,160 146,155.52 146,150 C146,144.48 141.52,140 136,140 Z" id="Shape"></path>
            <rect id="Rectangle-path" x="83" y="200" width="20" height="20"></rect>
            <path d="M93,140 C87.48,140 83,144.48 83,150 C83,155.52 87.48,160 93,160 C98.52,160 103,155.52 103,150 C103,144.48 98.52,140 93,140 Z" id="Shape"></path>
            <path d="M336,360 L296,360 C290.478,360 286,364.477 286,370 C286,375.523 290.478,380 296,380 L336,380 C341.522,380 346,375.523 346,370 C346,364.477 341.522,360 336,360 Z" id="Shape"></path>
            <path d="M442,340 C425.458,340 412,353.458 412,370 C412,386.542 425.458,400 442,400 C458.542,400 472,386.542 472,370 C472,353.458 458.542,340 442,340 Z M442,380 C436.486,380 432,375.514 432,370 C432,364.486 436.486,360 442,360 C447.514,360 452,364.486 452,370 C452,375.514 447.514,380 442,380 Z" id="Shape"></path>
            <path d="M472,306.768 L472,250 C472,244.477 467.522,240 462,240 L379,240 C373.478,240 369,244.477 369,250 L369,300 L326,300 L326,250 C326,244.477 321.522,240 316,240 L266,240 L266,60 L387.72,60 C390.738,68.509 397.491,75.262 406,78.28 L406,120 L396,120 C391.411,120 387.411,123.123 386.299,127.575 L376.299,167.575 C375.72,169.891 375.988,172.337 377.056,174.472 L387.056,194.472 C389.525,199.411 395.535,201.413 400.472,198.944 C405.412,196.474 407.414,190.467 404.945,185.527 L396.599,168.836 L403.808,140 L428.193,140 L435.402,168.836 L427.056,185.527 C424.586,190.467 426.588,196.474 431.529,198.944 C432.965,199.662 434.49,200.002 435.993,200.002 C439.661,200.002 443.193,197.976 444.945,194.472 L454.945,174.472 C456.012,172.337 456.281,169.89 455.702,167.575 L445.702,127.575 C444.589,123.123 440.589,120 436,120 L426,120 L426,78.28 C437.639,74.152 446,63.037 446,50 C446,33.458 432.542,20 416,20 C402.964,20 391.848,28.361 387.72,40 L264.994,40 C260.348,17.205 240.146,0 216,0 L53,0 C39.839,0 26.535,5.214 16.502,14.306 C5.86,23.948 0,36.625 0,50 L0,430 C0,435.523 4.478,440 10,440 L256,440 L442,440 C480.598,440 512,408.598 512,370 C512,342.133 495.627,318.023 472,306.768 Z M416,40 C421.514,40 426,44.486 426,50 C426,55.514 421.514,60 416,60 C410.486,60 406,55.514 406,50 C406,44.486 410.486,40 416,40 Z M246,420 L20,420 L20,400 L246,400 L246,420 Z M246,380 L20,380 L20,50 C20,34.299 35.729,20 53,20 L216,20 C232.542,20 246,33.458 246,50 L246,380 Z M389,260 L452,260 L452,300 L389,300 L389,260 Z M266,260 L306,260 L306,300 L266,300 L266,260 Z M442,420 L266,420 L266,320 L379,320 L442,320 C469.57,320 492,342.43 492,370 C492,397.57 469.57,420 442,420 Z" id="Shape"></path>
            <path d="M216,60 L53,60 C47.478,60 43,64.477 43,70 L43,250 C43,255.523 47.478,260 53,260 L216,260 C221.522,260 226,255.523 226,250 L226,70 C226,64.477 221.522,60 216,60 Z M206,240 L63,240 L63,80 L206,80 L206,240 Z" id="Shape"></path>
            <path d="M176,100 L93,100 C87.478,100 83,104.477 83,110 C83,115.523 87.478,120 93,120 L176,120 C181.522,120 186,115.523 186,110 C186,104.477 181.522,100 176,100 Z" id="Shape"></path>
        </g>
    </g>
</svg>