
<svg width="421px" height="512px" viewBox="0 0 421 512" version="1.1" xmlns="http://www.w3.org/2000/svg" xmlns:xlink="http://www.w3.org/1999/xlink">
    <!-- Generator: Sketch 51.2 (57519) - http://www.bohemiancoding.com/sketch -->
    <desc>Created with Sketch.</desc>
    <defs></defs>
    <g id="Page-1" stroke="none" stroke-width="1" fill="none" fill-rule="evenodd">
        <g id="shield" transform="translate(0.000000, -1.000000)" fill="#000000" fill-rule="nonzero">
            <path d="M210.398438,293 C215.917969,293 220.398438,288.519531 220.398438,283 C220.398438,277.480469 215.917969,273 210.398438,273 C204.878906,273 200.398438,277.480469 200.398438,283 C200.398438,288.519531 204.878906,293 210.398438,293 Z" id="Shape"></path>
            <path d="M204.6875,511.136719 C206.425781,512.378906 208.460938,513 210.5,513 C212.539062,513 214.574219,512.378906 216.3125,511.136719 C318.199219,438.359375 420.5,406.425781 420.5,256.679688 L420.5,71.289062 C420.5,66.089844 416.511719,61.757812 411.332031,61.324219 L385.339844,59.152344 C325.75,54.1875 267.125,34.601562 215.800781,2.519531 C212.558594,0.492188 208.441406,0.492188 205.199219,2.519531 C153.871094,34.601562 95.246094,54.1875 35.65625,59.15625 L9.667969,61.324219 C4.484375,61.757812 0.5,66.089844 0.5,71.289062 L0.5,256.679688 C0.5,410.648438 117.167969,448.621094 204.6875,511.136719 Z M20.5,80.488281 L37.320312,79.085938 C98.027344,74.023438 157.761719,54.570312 210.5,22.734375 C263.234375,54.570312 322.972656,74.023438 383.675781,79.085938 L400.5,80.488281 L400.5,256.679688 C400.5,391.707031 310.527344,420.679688 210.484375,490.761719 C122.683594,429.816406 20.5,395.230469 20.5,256.679688 L20.5,80.488281 Z" id="Shape"></path>
            <path d="M204.671875,438.449219 C208.304688,440.929688 212.878906,440.75 216.328125,438.1875 C306.855469,375.527344 360.5,354.910156 360.5,256.691406 L360.5,125.53125 C360.5,120.582031 356.878906,116.375 351.984375,115.640625 C304.125,108.449219 258.066406,93.554688 215.085938,71.371094 C211.992188,69.773438 208.308594,69.976562 205.472656,71.59375 C162.613281,93.660156 116.703125,108.480469 69.015625,115.640625 C64.121094,116.375 60.5,120.578125 60.5,125.53125 L60.5,256.691406 C60.5,355.835938 119.253906,380.167969 204.671875,438.449219 Z M80.5,134.058594 C122.089844,127.023438 162.308594,114.371094 200.398438,96.382812 L200.398438,243 C200.398438,248.523438 204.875,253 210.398438,253 C215.921875,253 220.398438,248.523438 220.398438,243 L220.398438,96.289062 C258.542969,114.320312 298.835938,127.007812 340.5,134.058594 L340.5,256.691406 C340.5,337.980469 302.421875,355.703125 220.398438,411.175781 L220.398438,323 C220.398438,317.476562 215.921875,313 210.398438,313 C204.875,313 200.398438,317.476562 200.398438,323 L200.398438,411.464844 C123.761719,360.449219 80.5,338.648438 80.5,256.691406 L80.5,134.058594 Z" id="Shape"></path>
        </g>
    </g>
</svg>