<svg width="107" height="26" viewBox="0 0 107 26" fill="none" xmlns="http://www.w3.org/2000/svg">
<path d="M3 5.6875L22.0464 20.2393C24.4792 22.098 23.1716 26 20.1159 26H7.25382C4.9045 26 3 24.0854 3 21.7237V5.6875Z" fill="url(#paint0_linear_680_496)"/>
<path d="M3.00024 4.62109C3.00024 2.06893 5.0638 0 7.60933 0H12.3957C17.9763 0 22.5002 4.53574 22.5002 10.1309C22.5002 15.726 17.9756 20.2617 12.395 20.2617C9.86928 20.2617 7.54531 20.2617 6.36843 20.2617C3.00024 20.2617 3.00024 22.75 3.00024 22.75V4.62109Z" fill="#449AFF"/>
<path d="M27.5861 2.41364C27.456 2.28257 27.3013 2.17854 27.1308 2.10755C26.9603 2.03655 26.7774 2 26.5927 2C26.408 2 26.2251 2.03655 26.0546 2.10755C25.8841 2.17854 25.7293 2.28257 25.5993 2.41364L16.7984 11.2234L10.7959 5.21039C10.6658 5.07933 10.511 4.9753 10.3405 4.9043C10.17 4.83331 9.98714 4.79676 9.80243 4.79676C9.61772 4.79676 9.43484 4.83331 9.26434 4.9043C9.09383 4.9753 8.93908 5.07933 8.80901 5.21039L0.413878 13.6007C0.282734 13.7307 0.178642 13.8853 0.107607 14.0557C0.0365723 14.2261 0 14.4089 0 14.5935C0 14.7781 0.0365723 14.9609 0.107607 15.1313C0.178642 15.3017 0.282734 15.4564 0.413878 15.5864C0.54395 15.7174 0.698702 15.8215 0.869207 15.8925C1.03971 15.9635 1.22259 16 1.4073 16C1.59201 16 1.77489 15.9635 1.9454 15.8925C2.1159 15.8215 2.27065 15.7174 2.40073 15.5864L9.80243 8.17496L15.805 14.188C15.935 14.3191 16.0898 14.4231 16.2603 14.4941C16.4308 14.5651 16.6137 14.6016 16.7984 14.6016C16.9831 14.6016 17.166 14.5651 17.3365 14.4941C17.507 14.4231 17.6617 14.3191 17.7918 14.188L27.5861 4.39934C27.7173 4.26934 27.8214 4.11468 27.8924 3.94427C27.9634 3.77387 28 3.59109 28 3.40649C28 3.22188 27.9634 3.03911 27.8924 2.8687C27.8214 2.6983 27.7173 2.54364 27.5861 2.41364Z" fill="white"/>
<path d="M42.64 11.3601C41.48 11.3801 40.43 11.5701 39.49 11.9301C38.55 12.2901 37.87 12.8301 37.45 13.5501V23.0001H32.65V7.2501H37.06V10.4301C37.6 9.3701 38.3 8.5401 39.16 7.9401C40.02 7.3401 40.92 7.0301 41.86 7.0101C42.26 7.0101 42.52 7.0201 42.64 7.0401V11.3601Z" fill="#333333"/>
<path d="M52.3445 23.3001C50.5445 23.3001 49.0145 22.9201 47.7545 22.1601C46.5145 21.4001 45.5645 20.4001 44.9045 19.1601C44.2445 17.9201 43.9145 16.5801 43.9145 15.1401C43.9145 13.6801 44.2445 12.3301 44.9045 11.0901C45.5645 9.8501 46.5245 8.8501 47.7845 8.0901C49.0445 7.3301 50.5645 6.9501 52.3445 6.9501C54.1245 6.9501 55.6445 7.3301 56.9045 8.0901C58.1645 8.8501 59.1245 9.8501 59.7845 11.0901C60.4445 12.3301 60.7745 13.6801 60.7745 15.1401C60.7745 16.5801 60.4445 17.9201 59.7845 19.1601C59.1245 20.4001 58.1645 21.4001 56.9045 22.1601C55.6445 22.9201 54.1245 23.3001 52.3445 23.3001ZM48.8345 15.1401C48.8345 16.3601 49.1645 17.3501 49.8245 18.1101C50.5045 18.8701 51.3445 19.2501 52.3445 19.2501C53.3245 19.2501 54.1445 18.8701 54.8045 18.1101C55.4845 17.3501 55.8245 16.3601 55.8245 15.1401C55.8245 13.9201 55.4845 12.9301 54.8045 12.1701C54.1445 11.4101 53.3245 11.0301 52.3445 11.0301C51.3445 11.0301 50.5045 11.4101 49.8245 12.1701C49.1645 12.9301 48.8345 13.9201 48.8345 15.1401Z" fill="#333333"/>
<path d="M78.6351 23.0001H73.8351V14.1501C73.8351 13.1101 73.6351 12.3601 73.2351 11.9001C72.8551 11.4201 72.3451 11.1801 71.7051 11.1801C71.0451 11.1801 70.3751 11.4401 69.6951 11.9601C69.0151 12.4801 68.5351 13.1501 68.2551 13.9701V23.0001H63.4551V7.2501H67.7751V9.8901C68.3551 8.9701 69.1751 8.2501 70.2351 7.7301C71.2951 7.2101 72.5151 6.9501 73.8951 6.9501C74.9151 6.9501 75.7351 7.1401 76.3551 7.5201C76.9951 7.8801 77.4751 8.3601 77.7951 8.9601C78.1351 9.5401 78.3551 10.1801 78.4551 10.8801C78.5751 11.5801 78.6351 12.2601 78.6351 12.9201V23.0001Z" fill="#333333"/>
<path d="M81.2242 15.1101C81.2242 13.5901 81.5142 12.2201 82.0942 11.0001C82.6942 9.7601 83.5142 8.7801 84.5542 8.0601C85.6142 7.3201 86.8242 6.9501 88.1842 6.9501C89.2842 6.9501 90.2742 7.2201 91.1542 7.7601C92.0542 8.2801 92.7442 8.9701 93.2242 9.8301V1.1001H98.0242V17.6601C98.0242 18.1401 98.0942 18.4801 98.2342 18.6801C98.3942 18.8801 98.6642 18.9901 99.0442 19.0101V23.0001C98.2042 23.1601 97.5242 23.2401 97.0042 23.2401C96.1842 23.2401 95.5142 23.0601 94.9942 22.7001C94.4742 22.3401 94.1642 21.8401 94.0642 21.2001L93.9742 20.3901C93.4142 21.3701 92.6542 22.1001 91.6942 22.5801C90.7342 23.0601 89.7242 23.3001 88.6642 23.3001C87.2242 23.3001 85.9442 22.9501 84.8242 22.2501C83.7042 21.5301 82.8242 20.5501 82.1842 19.3101C81.5442 18.0701 81.2242 16.6701 81.2242 15.1101ZM93.2542 17.0601V13.7601C92.9542 12.9601 92.4642 12.3101 91.7842 11.8101C91.1242 11.2901 90.4342 11.0301 89.7142 11.0301C89.0342 11.0301 88.4242 11.2201 87.8842 11.6001C87.3442 11.9801 86.9242 12.4901 86.6242 13.1301C86.3242 13.7701 86.1742 14.4601 86.1742 15.2001C86.1742 16.3601 86.5242 17.3301 87.2242 18.1101C87.9442 18.8701 88.8542 19.2501 89.9542 19.2501C90.6142 19.2501 91.2442 19.0601 91.8442 18.6801C92.4642 18.2801 92.9342 17.7401 93.2542 17.0601Z" fill="#333333"/>
<path d="M102.053 5.4501V1.1001H106.853V5.4501H102.053ZM102.053 23.0001V7.2501H106.853V23.0001H102.053Z" fill="#333333"/>
<defs>
<linearGradient id="paint0_linear_680_496" x1="13.1562" y1="5.6875" x2="13.1562" y2="26" gradientUnits="userSpaceOnUse">
<stop stop-color="#30BD71"/>
<stop offset="1" stop-color="#36DE83"/>
</linearGradient>
</defs>
</svg>
