<svg width="22" height="22" viewBox="0 0 22 22" fill="none" xmlns="http://www.w3.org/2000/svg">
<path d="M11.0002 1.83325C9.18717 1.83325 7.41489 2.37087 5.90744 3.37811C4.39999 4.38536 3.22507 5.817 2.53127 7.49199C1.83747 9.16698 1.65594 11.0101 2.00964 12.7882C2.36333 14.5664 3.23637 16.1997 4.51835 17.4817C5.80034 18.7637 7.43368 19.6368 9.21184 19.9905C10.99 20.3441 12.8331 20.1626 14.5081 19.4688C16.1831 18.775 17.6147 17.6001 18.622 16.0926C19.6292 14.5852 20.1668 12.8129 20.1668 10.9999C20.1668 9.79613 19.9297 8.60414 19.4691 7.49199C19.0084 6.37984 18.3332 5.36931 17.482 4.51811C16.6308 3.6669 15.6203 2.99169 14.5081 2.53102C13.3959 2.07035 12.204 1.83325 11.0002 1.83325V1.83325ZM11.0002 18.3333C9.54977 18.3333 8.13195 17.9032 6.92599 17.0974C5.72002 16.2916 4.78009 15.1463 4.22505 13.8063C3.67001 12.4663 3.52478 10.9918 3.80774 9.56926C4.0907 8.14673 4.78913 6.84005 5.81472 5.81447C6.8403 4.78888 8.14698 4.09045 9.56951 3.80749C10.992 3.52454 12.4665 3.66976 13.8065 4.2248C15.1465 4.77984 16.2918 5.71978 17.0976 6.92574C17.9034 8.1317 18.3335 9.54952 18.3335 10.9999C18.3335 12.9448 17.5609 14.8101 16.1856 16.1854C14.8104 17.5606 12.9451 18.3333 11.0002 18.3333V18.3333ZM14.6668 10.0833H11.9168V7.33325C11.9168 7.09014 11.8203 6.85698 11.6483 6.68507C11.4764 6.51316 11.2433 6.41659 11.0002 6.41659C10.7571 6.41659 10.5239 6.51316 10.352 6.68507C10.1801 6.85698 10.0835 7.09014 10.0835 7.33325V10.0833H7.3335C7.09039 10.0833 6.85723 10.1798 6.68532 10.3517C6.51341 10.5236 6.41683 10.7568 6.41683 10.9999C6.41683 11.243 6.51341 11.4762 6.68532 11.6481C6.85723 11.82 7.09039 11.9166 7.3335 11.9166H10.0835V14.6666C10.0835 14.9097 10.1801 15.1429 10.352 15.3148C10.5239 15.4867 10.7571 15.5833 11.0002 15.5833C11.2433 15.5833 11.4764 15.4867 11.6483 15.3148C11.8203 15.1429 11.9168 14.9097 11.9168 14.6666V11.9166H14.6668C14.9099 11.9166 15.1431 11.82 15.315 11.6481C15.4869 11.4762 15.5835 11.243 15.5835 10.9999C15.5835 10.7568 15.4869 10.5236 15.315 10.3517C15.1431 10.1798 14.9099 10.0833 14.6668 10.0833Z" fill="#AAAAAA"/>
</svg>
