<?xml version="1.0" encoding="utf-8"?>
<!-- Generator: Adobe Illustrator 21.0.0, SVG Export Plug-In . SVG Version: 6.00 Build 0)  -->
<svg version="1.1" id="Слой_1" xmlns="http://www.w3.org/2000/svg" xmlns:xlink="http://www.w3.org/1999/xlink" x="0px" y="0px"
	 viewBox="0 0 35 35" style="enable-background:new 0 0 35 35;" xml:space="preserve">
<style type="text/css">
	.st0{fill:#888888;}
	.st1{fill:url(#SVGID_1_);}
	.st2{fill:#F8B96B;}
</style>
<desc>Created with Sketch.</desc>
<g id="Page-1">
	<g id="Ресурс-4">
		<path id="Shape_6_" class="st0" d="M34.3,25h-1.1v-0.5c0-0.9-0.7-1.7-1.6-1.9l1.7-6.4c1-0.1,1.7-1,1.7-2c-0.1-1-0.9-1.8-1.9-1.8h0
			l-2.3-7.6c0.6-0.5,0.8-1.4,0.5-2.1c-0.3-0.7-1-1.2-1.8-1.2c-0.8,0-1.5,0.5-1.8,1.2h-0.9L26.7,2c-0.1-0.9-0.9-1.7-1.9-1.7h-1.5
			c-1,0-1.8,0.7-1.9,1.7l-0.2,1.3H2.5C1.1,3.3,0,4.5,0,5.8v15.1c0,1.4,1.1,2.5,2.5,2.5h5.9V25H0.7C0.3,25,0,25.4,0,25.7v3.8
			c0,0.4,0.3,0.7,0.7,0.7h1.1V34c0,0.4,0.3,0.7,0.7,0.7s0.7-0.3,0.7-0.7v-3.7h1V34c0,0.4,0.3,0.7,0.7,0.7c0.4,0,0.7-0.3,0.7-0.7
			v-3.7H30V34c0,0.4,0.3,0.7,0.7,0.7c0.4,0,0.7-0.3,0.7-0.7v-3.7h1V34c0,0.4,0.3,0.7,0.7,0.7c0.4,0,0.7-0.3,0.7-0.7v-3.7h0.5
			c0.2,0,0.4-0.1,0.5-0.2c0.1-0.1,0.2-0.3,0.2-0.5v-3.8c0-0.2-0.1-0.4-0.2-0.5S34.5,25,34.3,25z M33.1,13.8c0.3,0,0.5,0.2,0.5,0.5
			s-0.2,0.5-0.5,0.5s-0.5-0.2-0.5-0.5c0-0.1,0.1-0.3,0.1-0.4C32.8,13.9,33,13.8,33.1,13.8z M29.5,2.9c0.3,0,0.5,0.2,0.5,0.5
			s-0.2,0.5-0.5,0.5S29,3.7,29,3.4S29.2,2.9,29.5,2.9z M27.7,4.1c0.3,0.7,1,1.2,1.8,1.2h0l2.3,7.6c-0.4,0.4-0.6,0.9-0.6,1.5
			c0,0.6,0.3,1.1,0.8,1.4l-1.8,6.8h-4.9c-1,0-1.9,0.9-1.9,1.9V25h-7v-1.6h5.3c1.4,0,2.5-1.1,2.5-2.5v-12h4.1c0.4,0,0.7-0.3,0.7-0.7
			V7.6c0-1.1-0.8-2.1-1.9-2.4L27,4.1H27.7z M15,23.4V25H9.8v-1.6H15z M1.4,28.8v-2.4h32.2v2.4L1.4,28.8z"/>
	</g>
</g>
<linearGradient id="SVGID_1_" gradientUnits="userSpaceOnUse" x1="3.0693" y1="21.3963" x2="20.3188" y2="4.1468">
	<stop  offset="0" style="stop-color:#FFE087"/>
	<stop  offset="0.6879" style="stop-color:#FFFFFF"/>
</linearGradient>
<path class="st1" d="M19.9,6c0,0-0.2,0.2-0.4,0.4l0,0.1c0,0,0,0.1-0.1,0.1l0,0c0,0.1-0.1,0.1-0.1,0.2l0,0c0,0.1,0,0.1,0,0.2
	c0,0.1-0.1,0.2-0.1,0.3c0,0,0,0.1,0,0.1l0,0l0,0c0,0.1-0.1,0.2-0.1,0.3v0.6c0,0.4,0.3,0.7,0.7,0.7h2.9v10.6H1.2V5.9
	c0-0.6,0.5-1.1,1.1-1.1H21l-0.1,0.5C20.5,5.5,20.2,5.7,19.9,6"/>
<path id="Shape_18_" class="st2" d="M20.6,7.6h7c-0.1-0.6-0.5-1-1.1-1h-4.8C21.2,6.6,20.7,7,20.6,7.6"/>
<path id="Shape_17_" class="st2" d="M25.4,2.2c0-0.3-0.2-0.4-0.5-0.4h-1.5c-0.3,0-0.5,0.2-0.5,0.4l-0.4,3h3.2L25.4,2.2z"/>
<path id="Shape_14_" class="st2" d="M25.3,24.1c-0.3,0-0.5,0.2-0.5,0.5v0.5h7v-0.5c0-0.3-0.2-0.5-0.5-0.5H25.3z"/>
<path id="Shape_12_" class="st2" d="M22.8,20.9H1.4c0,0.6,0.5,1.1,1.1,1.1h19.2C22.3,22,22.8,21.5,22.8,20.9z"/>
<path class="st2" d="M31.8,24.6v0.5h-7v-0.5c0-0.3,0.2-0.5,0.5-0.5h6C31.6,24.1,31.8,24.3,31.8,24.6z"/>
<path class="st2" d="M22.9,2.2c0-0.3,0.2-0.4,0.5-0.4h1.5c0.3,0,0.5,0.2,0.5,0.4l0.4,3h-3.2L22.9,2.2z"/>
<path class="st2" d="M20.6,7.6c0.1-0.6,0.5-1,1.1-1h4.8c0.6,0,1,0.4,1.1,1H20.6"/>
<path class="st2" d="M2.5,22.1c-0.6-0.1-1.1-0.5-1.1-1.1h21.4c0,0.6-0.5,1.1-1.1,1.1H2.5z"/>
<path id="Shape_15_" class="st2" d="M5.6,24.1"/>
</svg>
