<?xml version="1.0" encoding="utf-8"?>
<!-- Generator: Adobe Illustrator 21.0.0, SVG Export Plug-In . SVG Version: 6.00 Build 0)  -->
<svg version="1.1" id="Слой_1" xmlns="http://www.w3.org/2000/svg" xmlns:xlink="http://www.w3.org/1999/xlink" x="0px" y="0px"
	 viewBox="0 0 35 34" style="enable-background:new 0 0 35 34;" xml:space="preserve">
<style type="text/css">
	.st0{filter:url(#Adobe_OpacityMaskFilter);}
	.st1{fill:#FFFFFF;}
	.st2{mask:url(#mask-2);fill:#888888;}
	.st3{fill:#F8B96B;}
	.st4{fill:#FFEEBB;}
</style>
<desc>Created with Sketch.</desc>
<g id="homepage">
	<g id="d" transform="translate(-836.000000, -462.000000)">
		<g id="Group-3" transform="translate(836.000000, 462.000000)">
			<g id="Clip-2">
			</g>
			<defs>
				<filter id="Adobe_OpacityMaskFilter" filterUnits="userSpaceOnUse" x="0" y="0" width="35" height="33.9">
					<feColorMatrix  type="matrix" values="1 0 0 0 0  0 1 0 0 0  0 0 1 0 0  0 0 0 1 0"/>
				</filter>
			</defs>
			<mask maskUnits="userSpaceOnUse" x="0" y="0" width="35" height="33.9" id="mask-2">
				<g class="st0">
					<polygon id="path-1" class="st1" points="0,0 35,0 35,33.9 0,33.9 					"/>
				</g>
			</mask>
			<path id="Fill-1" class="st2" d="M15.6,19.3l-2,2l-1-1l2-2L15.6,19.3z M18.7,14.1l8-8l0,0C26.9,5.9,27,5.8,27,5.6L27,3.8l3.7-2.2
				l1.5,1.5l-2.1,3.7l-1.8,0.1c-0.2,0-0.4,0.1-0.5,0.2l-8,8L18.7,14.1z M34.9,25.9c-0.3-1-0.8-1.9-1.5-2.6c-1.1-1.1-2.7-1.8-4.3-1.8
				h0c-0.8,0-1.6,0.2-2.4,0.5l-5.9-5.9l7.8-7.8l1.8-0.1c0.3,0,0.5-0.1,0.6-0.4l2.7-4.5c0.2-0.3,0.1-0.7-0.1-0.9l-2.3-2.3
				c-0.2-0.2-0.6-0.3-0.9-0.1l-4.5,2.7c-0.2,0.1-0.4,0.4-0.4,0.6l-0.1,1.8l-7.8,7.8l-5.3-5.3c0.6-3.3-1.7-6.5-5-7.1
				C5.8,0.4,4.2,0.7,2.9,1.6C2.7,1.7,2.6,1.9,2.6,2.1c0,0.2,0,0.4,0.1,0.6c0.1,0.1,0.2,0.2,0.2,0.2l3,1.7C6.6,4.9,6.7,6,6.2,6.9
				C5.6,7.8,4.7,8.3,4,7.9L1.2,6.4c-0.4-0.2-0.8-0.1-1,0.3C0.2,6.8,0.1,7,0.2,7.1c0.2,3.2,2.9,5.8,6.1,5.8c0.1,0,0.3,0,0.4,0
				c0.7,0,1.3-0.2,2-0.5l4.8,4.8l-2,2L11,18.8c-0.6-0.5-1.5-0.5-2,0l-0.7,0.7c-0.5,0.5-0.6,1.3-0.1,1.9l-7.8,7.8
				c-0.3,0.3-0.4,0.6-0.4,1c0,0.4,0.1,0.7,0.4,1c0,0,0,0,0,0l2.2,2.2c0.3,0.3,0.6,0.4,1,0.4c0.3,0,0.7-0.1,1-0.4l7.8-7.8
				c0.6,0.4,1.4,0.4,1.9-0.1l0.7-0.7c0.3-0.3,0.4-0.6,0.4-1c0-0.4-0.1-0.7-0.4-1c0,0,0,0,0,0l-0.4-0.4l2-2.1l6.3,6.4
				c-0.3,1.6,0.1,3.2,1.1,4.5c1,1.3,2.4,2.2,4,2.5c2,0.3,4-0.3,5.4-1.8c0.3-0.3,0.2-0.8-0.1-1c-0.1-0.1-0.2-0.1-0.3-0.2l-3.7-1
				c-0.3-0.1-0.6-0.4-0.7-0.7c-0.2-0.5-0.2-1-0.1-1.5c0.1-0.5,0.4-0.9,0.8-1.2c0.3-0.3,0.7-0.4,1.1-0.3l3.7,1c0.1,0,0.1,0,0.2,0h0
				c0.2,0,0.4-0.1,0.5-0.2c0.1-0.1,0.2-0.3,0.2-0.5C35,26.1,35,26,34.9,25.9z"/>
		</g>
	</g>
</g>
<polyline class="st3" points="10.4,23.5 11.4,24.6 3.7,32.3 1.5,30.2 9.3,22.4 10.4,23.5 "/>
<polygon class="st3" points="13.9,23.8 13.4,24.4 9.5,20.4 10.1,19.9 "/>
<path class="st4" d="M27.2,27.1c-0.2,0.8-0.2,1.7,0.1,2.5c0.3,0.8,0.9,1.3,1.7,1.6l2.3,0.6c-2.2,1.2-5,0.4-6.2-1.7
	c-0.6-1-0.8-2.3-0.5-3.5c0.1-0.2,0-0.5-0.2-0.7l-14.9-15c-0.1-0.1-0.3-0.2-0.5-0.2c-0.1,0-0.2,0-0.4,0.1c-0.7,0.4-1.4,0.5-2.2,0.5h0
	c-1.9,0-3.6-1.1-4.3-2.9l1.3,0.7c0.4,0.2,0.8,0.3,1.2,0.3h0c1.3-0.1,2.4-0.8,2.9-1.9c0.4-0.8,0.6-1.7,0.5-2.5
	C7.8,4.3,7.3,3.6,6.7,3.3l-1.8-1C6,1.9,7.2,2,8.3,2.5c1.1,0.5,2,1.5,2.4,2.6C11,6,11,6.9,10.8,7.7c-0.1,0.2,0,0.5,0.2,0.7l15,15
	c0.2,0.2,0.6,0.3,0.9,0.1c0.7-0.4,1.4-0.5,2.2-0.5h0c1.6,0,3.1,0.8,3.9,2.1l-2.2-0.6c-0.2-0.1-0.4-0.1-0.6-0.1h0
	C28.7,24.6,27.4,25.7,27.2,27.1z"/>
</svg>
