<svg xmlns="http://www.w3.org/2000/svg" width="41" height="38" viewBox="0 0 41 38">
  <metadata><?xpacket begin="﻿" id="W5M0MpCehiHzreSzNTczkc9d"?>
<x:xmpmeta xmlns:x="adobe:ns:meta/" x:xmptk="Adobe XMP Core 5.6-c138 79.159824, 2016/09/14-01:09:01        ">
   <rdf:RDF xmlns:rdf="http://www.w3.org/1999/02/22-rdf-syntax-ns#">
      <rdf:Description rdf:about=""/>
   </rdf:RDF>
</x:xmpmeta>
                                                                                                    
                                                                                                    
                                                                                                    
                                                                                                    
                                                                                                    
                                                                                                    
                                                                                                    
                                                                                                    
                                                                                                    
                                                                                                    
                                                                                                    
                                                                                                    
                                                                                                    
                                                                                                    
                                                                                                    
                                                                                                    
                                                                                                    
                                                                                                    
                                                                                                    
                                                                                                    
                           
<?xpacket end="w"?></metadata>
<defs>
    <style>
      .cls-1 {
        fill: #fff;
        fill-rule: evenodd;
      }
    </style>
  </defs>
  <path class="cls-1" d="M432.192,1206.78a3.61,3.61,0,1,0,3.606,3.61A3.612,3.612,0,0,0,432.192,1206.78Zm0,5.2a1.6,1.6,0,1,1,1.593-1.59A1.591,1.591,0,0,1,432.192,1211.98Zm12.649-5.2a3.61,3.61,0,1,0,3.606,3.61A3.612,3.612,0,0,0,444.841,1206.78Zm0,5.2a1.6,1.6,0,1,1,1.592-1.59A1.591,1.591,0,0,1,444.841,1211.98Zm0.888-24.22H431.3a1.01,1.01,0,0,0,0,2.02h14.427A1.01,1.01,0,0,0,445.729,1187.76Zm-0.786,5.24H432.087a1.01,1.01,0,0,0,0,2.02h12.856A1.01,1.01,0,0,0,444.943,1193Zm10.605-9.73a2.006,2.006,0,0,0-1.56-.74H422.63L422,1179.45a2.017,2.017,0,0,0-1.17-1.44l-4.419-1.92a1,1,0,0,0-1.324.52,1.015,1.015,0,0,0,.522,1.33l4.419,1.92,4.871,23.68a2.025,2.025,0,0,0,1.972,1.61h24.117a1.01,1.01,0,0,0,0-2.02H426.868l-0.593-2.88h24.9a2.025,2.025,0,0,0,1.972-1.61l2.816-13.69A2.015,2.015,0,0,0,455.548,1183.27Zm-4.376,14.96H425.861l-2.816-13.68h30.942Z" transform="translate(-415 -1176)"/>
</svg>
