<svg xmlns="http://www.w3.org/2000/svg" width="36" height="42" viewBox="0 0 36 42">
  <metadata><?xpacket begin="﻿" id="W5M0MpCehiHzreSzNTczkc9d"?>
<x:xmpmeta xmlns:x="adobe:ns:meta/" x:xmptk="Adobe XMP Core 5.6-c138 79.159824, 2016/09/14-01:09:01        ">
   <rdf:RDF xmlns:rdf="http://www.w3.org/1999/02/22-rdf-syntax-ns#">
      <rdf:Description rdf:about=""/>
   </rdf:RDF>
</x:xmpmeta>
                                                                                                    
                                                                                                    
                                                                                                    
                                                                                                    
                                                                                                    
                                                                                                    
                                                                                                    
                                                                                                    
                                                                                                    
                                                                                                    
                                                                                                    
                                                                                                    
                                                                                                    
                                                                                                    
                                                                                                    
                                                                                                    
                                                                                                    
                                                                                                    
                                                                                                    
                                                                                                    
                           
<?xpacket end="w"?></metadata>
<defs>
    <style>
      .cls-1 {
        fill: #fff;
        fill-rule: evenodd;
      }
    </style>
  </defs>
  <path class="cls-1" d="M745.28,1179.05a3.046,3.046,0,0,0-2.321-1.07h-2.937v-0.92a2.061,2.061,0,0,0-2.062-2.06H718.04a2.061,2.061,0,0,0-2.062,2.06v0.92h-2.937a3.046,3.046,0,0,0-2.321,1.07,2.991,2.991,0,0,0-.681,2.43,15.739,15.739,0,0,0,8,11.23,20.811,20.811,0,0,0,1.315,2.63,12.228,12.228,0,0,0,5.635,5.31,4.435,4.435,0,0,1-3.432,4.75s-0.008.01-.012,0.01a0.964,0.964,0,0,0-.747.94v4.46h-1.8a2.923,2.923,0,0,0-2.919,2.92v2.3a0.975,0.975,0,0,0,.973.97h22a0.975,0.975,0,0,0,.973-0.97v-2.3a2.923,2.923,0,0,0-2.919-2.92H735.3v-4.46a0.964,0.964,0,0,0-.748-0.94c0-.01-0.008-0.01-0.012-0.01a4.434,4.434,0,0,1-3.429-4.79,12.336,12.336,0,0,0,5.541-5.27,20.678,20.678,0,0,0,1.315-2.63,15.742,15.742,0,0,0,8-11.23A3,3,0,0,0,745.28,1179.05Zm-33.32,2.12a1.045,1.045,0,0,1,.242-0.86,1.09,1.09,0,0,1,.838-0.39h2.938v1.79a30.611,30.611,0,0,0,1.037,8.01A13.779,13.779,0,0,1,711.96,1181.17Zm25.143,31.58a0.978,0.978,0,0,1,.973.98v1.33H718.017v-1.33a0.978,0.978,0,0,1,.973-0.98H737.1Zm-3.752-5.43v3.49h-10.61v-3.49h10.61Zm-8.058-1.94a6.6,6.6,0,0,0,.657-0.86,6.3,6.3,0,0,0,1-3.34,7.312,7.312,0,0,0,1.046.08,7.207,7.207,0,0,0,1.138-.09,6.407,6.407,0,0,0,1.671,4.21h-5.516Zm12.783-23.67a25.1,25.1,0,0,1-3.1,12.64c-1.9,3.2-4.382,4.96-6.976,4.96s-5.072-1.76-6.976-4.96a25.1,25.1,0,0,1-3.1-12.64v-4.65a0.122,0.122,0,0,1,.116-0.12h19.919a0.123,0.123,0,0,1,.117.12v4.65Zm5.964-.54a13.73,13.73,0,0,1-5.055,8.54,30.48,30.48,0,0,0,1.037-8v-1.79h2.937a1.092,1.092,0,0,1,.839.39A1.049,1.049,0,0,1,744.04,1181.17Zm-10.133,3.81a0.97,0.97,0,0,0-.786-0.66l-2.936-.43-1.313-2.66a0.975,0.975,0,0,0-1.745,0l-1.313,2.66-2.936.43a0.968,0.968,0,0,0-.785.66,0.978,0.978,0,0,0,.246,1l2.125,2.07-0.5,2.92a0.975,0.975,0,0,0,.387.95,1,1,0,0,0,1.025.07l2.626-1.38,2.626,1.38a0.91,0.91,0,0,0,.452.11,0.992,0.992,0,0,0,.573-0.18,0.979,0.979,0,0,0,.387-0.95l-0.5-2.92,2.124-2.07A0.979,0.979,0,0,0,733.907,1184.98Zm-4.1,2.03a0.962,0.962,0,0,0-.28.86l0.254,1.48-1.333-.7a0.988,0.988,0,0,0-.906,0l-1.334.7,0.255-1.48a0.965,0.965,0,0,0-.28-0.86l-1.079-1.05,1.491-.22a0.951,0.951,0,0,0,.733-0.53l0.667-1.35,0.667,1.35a0.949,0.949,0,0,0,.732.53l1.492,0.22Z" transform="translate(-710 -1175)"/>
</svg>
