<svg xmlns="http://www.w3.org/2000/svg" width="43" height="42" viewBox="0 0 43 42">
  <metadata><?xpacket begin="﻿" id="W5M0MpCehiHzreSzNTczkc9d"?>
<x:xmpmeta xmlns:x="adobe:ns:meta/" x:xmptk="Adobe XMP Core 5.6-c138 79.159824, 2016/09/14-01:09:01        ">
   <rdf:RDF xmlns:rdf="http://www.w3.org/1999/02/22-rdf-syntax-ns#">
      <rdf:Description rdf:about=""/>
   </rdf:RDF>
</x:xmpmeta>
                                                                                                    
                                                                                                    
                                                                                                    
                                                                                                    
                                                                                                    
                                                                                                    
                                                                                                    
                                                                                                    
                                                                                                    
                                                                                                    
                                                                                                    
                                                                                                    
                                                                                                    
                                                                                                    
                                                                                                    
                                                                                                    
                                                                                                    
                                                                                                    
                                                                                                    
                                                                                                    
                           
<?xpacket end="w"?></metadata>
<defs>
    <style>
      .cls-1 {
        fill: #fff;
        fill-rule: evenodd;
      }
    </style>
  </defs>
  <path id="Forma_1" data-name="Forma 1" class="cls-1" d="M1047.97,1208.42h-6.52v-8.24a2.069,2.069,0,0,1,.75-0.12,1.026,1.026,0,0,0,1.03-1.02v-2.47a5.145,5.145,0,0,0-5.15-5.13h-7.9v-5.75a1.026,1.026,0,0,0-1.03-1.02h-3.3a1.026,1.026,0,0,0-1.03,1.02v5.75h-7.9a5.145,5.145,0,0,0-5.15,5.13v2.47a1.026,1.026,0,0,0,1.03,1.02,2.069,2.069,0,0,1,.75.12v8.24h-6.52a1.025,1.025,0,1,0,0,2.05h2.58l0.94,4.7a1.037,1.037,0,0,0,1.01.83h31.88a1.037,1.037,0,0,0,1.01-.83l0.94-4.7h2.58A1.025,1.025,0,1,0,1047.97,1208.42Zm-21.09-21.7h1.24v4.72h-1.24v-4.72Zm-13.05,9.85a3.09,3.09,0,0,1,3.09-3.08h21.16a3.09,3.09,0,0,1,3.09,3.08v1.55a4.677,4.677,0,0,0-2.08,1.16,2.444,2.444,0,0,1-3.58,0,4.443,4.443,0,0,0-6.22,0,2.444,2.444,0,0,1-3.58,0,4.443,4.443,0,0,0-6.22,0,2.444,2.444,0,0,1-3.58,0,4.734,4.734,0,0,0-2.08-1.16v-1.55h0Zm1.78,5.03a4.1,4.1,0,0,0,2.09.52,4.361,4.361,0,0,0,3.11-1.27,2.423,2.423,0,0,1,3.58,0,4.443,4.443,0,0,0,6.22,0,2.423,2.423,0,0,1,3.58,0,4.361,4.361,0,0,0,3.11,1.27,4.1,4.1,0,0,0,2.09-.52v6.82h-23.78v-6.82Zm26.98,12.34h-30.18l-0.7-3.47h31.58Zm-15.09-30.3a3.8,3.8,0,0,0,3.81-3.79c0-1.77-2.31-4.64-3.02-5.48a1.028,1.028,0,0,0-1.58,0c-0.71.84-3.02,3.71-3.02,5.48A3.8,3.8,0,0,0,1027.5,1183.64Zm0-6.95a8.746,8.746,0,0,1,1.74,3.16,1.74,1.74,0,0,1-3.48,0A8.746,8.746,0,0,1,1027.5,1176.69Z" transform="translate(-1006 -1174)"/>
</svg>
