<svg xmlns="http://www.w3.org/2000/svg" width="42" height="42" viewBox="0 0 42 42">
  <metadata><?xpacket begin="﻿" id="W5M0MpCehiHzreSzNTczkc9d"?>
<x:xmpmeta xmlns:x="adobe:ns:meta/" x:xmptk="Adobe XMP Core 5.6-c138 79.159824, 2016/09/14-01:09:01        ">
   <rdf:RDF xmlns:rdf="http://www.w3.org/1999/02/22-rdf-syntax-ns#">
      <rdf:Description rdf:about=""/>
   </rdf:RDF>
</x:xmpmeta>
                                                                                                    
                                                                                                    
                                                                                                    
                                                                                                    
                                                                                                    
                                                                                                    
                                                                                                    
                                                                                                    
                                                                                                    
                                                                                                    
                                                                                                    
                                                                                                    
                                                                                                    
                                                                                                    
                                                                                                    
                                                                                                    
                                                                                                    
                                                                                                    
                                                                                                    
                                                                                                    
                           
<?xpacket end="w"?></metadata>
<defs>
    <style>
      .cls-1 {
        fill: #fff;
        fill-rule: evenodd;
      }
    </style>
  </defs>
  <path class="cls-1" d="M1335.85,1181.15A21,21,0,1,0,1342,1196,20.854,20.854,0,0,0,1335.85,1181.15Zm-5.01,2.88,0.93-3.84a19.234,19.234,0,0,1,7.66,10.66l-0.48.09a1.9,1.9,0,0,0-1.49,1.41l-0.18.75a0.022,0.022,0,0,1-.02.02,0.032,0.032,0,0,1-.03,0l-1.12-.84a1.879,1.879,0,0,0-2.01-.16l-1.4.73a1.864,1.864,0,0,0-1.01,1.79,1.891,1.891,0,0,0,1.22,1.66l0.07,0.02,0.02,0.02a0.028,0.028,0,0,1-.01.03l-0.87,1a0.019,0.019,0,0,1-.03,0l-2.35-1.51a1.89,1.89,0,0,0-1.8-.14,1.91,1.91,0,0,0-1.1,1.42l-0.18,1.11a1.875,1.875,0,0,0,.58,1.69l1.22,1.15c0.01,0,.01.02,0,0.03l-1.99,3.02a1.887,1.887,0,0,0-.31.97l-0.18,4.33v0.02l-2.66,2.61a0.032,0.032,0,0,1-.03,0l-1.73-1.01a0.035,0.035,0,0,1-.01-0.02s-0.84-3.79-.87-3.87l-0.76-2.04a1.876,1.876,0,0,0-1.61-1.23l-3.48-.3-0.02-.02-1.98-3.41v-0.02l0.5-3.3c0-.01,0-0.02.01-0.02l3.04-2.29a0.031,0.031,0,0,1,.02-0.01l2.95,1.23a1.909,1.909,0,0,0,.52.14l4.08,0.44a1.869,1.869,0,0,0,1.31-.35l2.7-1.93a1.906,1.906,0,0,0,.63-2.31l-0.26-.56a1.885,1.885,0,0,0-1.62-1.12l-7.59-.42h-0.01l-0.01-.01h0a0.055,0.055,0,0,1,0-.04h0.02l2.27-.62a1.805,1.805,0,0,0,.81-0.45l2.79-2.62a0.01,0.01,0,0,1,.01-0.01l4.19-.43A1.909,1.909,0,0,0,1330.84,1184.03Zm-14.2-1.55,1.57-2.94a2.153,2.153,0,0,0,.2-1.43l-0.21-1.04a19.84,19.84,0,0,1,5.62,0,3.115,3.115,0,0,1-.26.27l-2.22.89a2.11,2.11,0,0,0-.83.59l-3.45,4.04a0.284,0.284,0,0,1-.19.09,0.233,0.233,0,0,1-.21-0.09A0.394,0.394,0,0,1,1316.64,1182.48Zm-8.16-.94v2.8a2.309,2.309,0,0,1-1.04,1.93l-2.01,1.3a4.168,4.168,0,0,0-1.18,1.15l-1.82,2.67A19.12,19.12,0,0,1,1308.48,1181.54Zm1.22,27.55-0.26,2.15a19.247,19.247,0,0,1-6.54-9.04h1.19a0.423,0.423,0,0,1,.36.2l2.4,3.74a2.062,2.062,0,0,0,.38.45l2.34,2.13A0.429,0.429,0,0,1,1309.7,1209.09Zm11.3,6.04a18.957,18.957,0,0,1-9.82-2.72l0.38-3.09a2.3,2.3,0,0,0-.73-1.97s-2.39-2.19-2.41-2.22l-2.4-3.74a2.3,2.3,0,0,0-1.93-1.06h-1.73a19.286,19.286,0,0,1-.49-4.33v-0.48l3.93-5.75a2.258,2.258,0,0,1,.64-0.63l2.01-1.31a4.136,4.136,0,0,0,1.9-3.49v-4.23a19.123,19.123,0,0,1,6.02-2.68l0.22,1.05a0.278,0.278,0,0,1-.03.18l-1.57,2.95a5.4,5.4,0,0,0-.22.67,2.107,2.107,0,0,0,.47,1.8,2.123,2.123,0,0,0,3.23-.01l3.46-4.04a0.229,0.229,0,0,1,.1-0.07l2.22-.89a2.106,2.106,0,0,0,.82-0.59l0.84-.97a18.423,18.423,0,0,1,4.19,1.67c-0.02.05-1.07,4.41-1.07,4.41a0.053,0.053,0,0,1-.03.02l-4.19.43a1.846,1.846,0,0,0-1.1.51l-2.79,2.63h-0.01l-2.28.62a1.9,1.9,0,0,0-.45,3.47,2.1,2.1,0,0,0,.84.25l7.59,0.41a0.022,0.022,0,0,1,.02.02l0.25,0.56c0.01,0.01,0,.02-0.01.03l-2.7,1.94h-0.02l-4.08-.44-2.95-1.23a1.883,1.883,0,0,0-1.87.24l-3.04,2.29a1.919,1.919,0,0,0-.73,1.23l-0.49,3.31a1.888,1.888,0,0,0,.23,1.23l1.98,3.41a1.925,1.925,0,0,0,1.47.94l3.48,0.3a0.022,0.022,0,0,1,.02.02l0.77,2.04,0.79,3.62a1.867,1.867,0,0,0,.89,1.23l1.72,1.01a1.906,1.906,0,0,0,2.29-.28l2.65-2.61a1.869,1.869,0,0,0,.57-1.27l0.17-4.33a0.02,0.02,0,0,1,.01-0.02l1.99-3.02a1.9,1.9,0,0,0-.28-2.43l-1.23-1.14c0-.01-0.01-0.02-0.01-0.03l0.18-1.1a0.038,0.038,0,0,1,.02-0.02,0.019,0.019,0,0,1,.03,0l2.34,1.51a1.9,1.9,0,0,0,2.46-.35l0.87-1a1.894,1.894,0,0,0,.41-1.71,1.865,1.865,0,0,0-1.17-1.3l-0.07-.03h-0.01a0.06,0.06,0,0,1-.01-0.04,0.02,0.02,0,0,0,.02-0.01l1.4-.73h0.02l1.12,0.84a1.9,1.9,0,0,0,2.98-1.06l0.19-.75a0.022,0.022,0,0,1,.02-0.02l0.54-.11A19.141,19.141,0,0,1,1321,1215.13Z" transform="translate(-1300 -1175)"/>
</svg>
