<?xml version="1.0" encoding="utf-8"?>
<!-- Generator: Adobe Illustrator 19.2.1, SVG Export Plug-In . SVG Version: 6.00 Build 0)  -->
<svg version="1.1" id="Слой_1" xmlns="http://www.w3.org/2000/svg" xmlns:xlink="http://www.w3.org/1999/xlink" x="0px" y="0px"
	 viewBox="0 0 42 42" style="enable-background:new 0 0 42 42;" xml:space="preserve">
<path d="M35.8,6.1c-8.2-8.2-21.5-8.2-29.7,0s-8.2,21.5,0,29.7s21.5,8.2,29.7,0C39.8,31.9,42,26.6,42,21C42,15.4,39.8,10.1,35.8,6.1z
	 M30.8,9l0.9-3.8c3.7,2.5,6.4,6.3,7.7,10.7L39,15.9c-0.7,0.1-1.3,0.7-1.5,1.4l-0.2,0.8c0,0,0,0,0,0c0,0,0,0,0,0l-1.1-0.8
	c-0.6-0.4-1.4-0.5-2-0.2l-1.4,0.7c-0.7,0.3-1.1,1-1,1.8c0,0.7,0.5,1.4,1.2,1.7l0.1,0l0,0c0,0,0,0,0,0l-0.9,1c0,0,0,0,0,0
	c0,0,0,0,0,0l-2.3-1.5c-0.5-0.3-1.2-0.4-1.8-0.1c-0.6,0.3-1,0.8-1.1,1.4l-0.2,1.1c-0.1,0.6,0.1,1.3,0.6,1.7l1.2,1.2c0,0,0,0,0,0
	l-2,3c-0.2,0.3-0.3,0.6-0.3,1L26,34.4v0l-2.7,2.6c0,0,0,0,0,0l-1.7-1c0,0,0,0,0,0c0,0-0.8-3.8-0.9-3.9l-0.8-2
	c-0.3-0.7-0.9-1.2-1.6-1.2l-3.5-0.3l0,0l-2-3.4v0l0.5-3.3c0,0,0,0,0,0l3-2.3c0,0,0,0,0,0l2.9,1.2c0.2,0.1,0.3,0.1,0.5,0.1l4.1,0.4
	c0.5,0.1,0.9-0.1,1.3-0.3l2.7-1.9c0.7-0.5,1-1.5,0.6-2.3l-0.3-0.6c-0.3-0.6-0.9-1.1-1.6-1.1l-7.6-0.4h0l0,0l0,0c0,0,0,0,0,0h0
	l2.3-0.6c0.3-0.1,0.6-0.2,0.8-0.4l2.8-2.6c0,0,0,0,0,0l0,0l4.2-0.4C30,10.4,30.6,9.8,30.8,9z M16.6,7.5l1.6-2.9
	c0.2-0.4,0.3-0.9,0.2-1.4l-0.2-1c1.9-0.3,3.8-0.3,5.6,0c-0.1,0.1-0.2,0.2-0.3,0.3l-2.2,0.9c-0.3,0.1-0.6,0.3-0.8,0.6l-3.4,4
	c0,0.1-0.1,0.1-0.2,0.1c-0.1,0-0.2,0-0.2-0.1C16.6,7.7,16.6,7.6,16.6,7.5z M8.5,6.5v2.8c0,0.8-0.4,1.5-1,1.9l-2,1.3
	c-0.5,0.3-0.9,0.7-1.2,1.2l-1.8,2.7C3.4,12.6,5.5,9.1,8.5,6.5z M9.7,34.1l-0.3,2.2c-3-2.3-5.3-5.4-6.5-9h1.2c0.1,0,0.3,0.1,0.4,0.2
	l2.4,3.7c0.1,0.2,0.2,0.3,0.4,0.4l2.3,2.1C9.7,33.8,9.7,34,9.7,34.1L9.7,34.1z M21,40.1c-3.5,0-6.9-0.9-9.8-2.7l0.4-3.1
	c0.1-0.7-0.2-1.5-0.7-2c0,0-2.4-2.2-2.4-2.2L6,26.4c-0.4-0.7-1.1-1.1-1.9-1.1H2.4C2,23.9,1.9,22.5,1.9,21v-0.5l3.9-5.8
	c0.2-0.3,0.4-0.5,0.6-0.6l2-1.3c1.2-0.8,1.9-2.1,1.9-3.5V5.1c1.8-1.2,3.9-2.1,6-2.7l0.2,1.1c0,0.1,0,0.1,0,0.2L15,6.6
	c-0.1,0.2-0.2,0.4-0.2,0.7c-0.1,0.6,0,1.3,0.5,1.8c0.8,0.9,2.1,1,3,0.2c0.1-0.1,0.2-0.2,0.2-0.2l3.5-4C22,5,22,5,22,5l2.2-0.9
	c0.3-0.1,0.6-0.3,0.8-0.6l0.8-1c1.5,0.4,2.9,0.9,4.2,1.7c0,0.1-1.1,4.4-1.1,4.4c0,0,0,0,0,0L24.8,9c-0.4,0-0.8,0.2-1.1,0.5l-2.8,2.6
	h0l-2.3,0.6c-1,0.3-1.6,1.3-1.3,2.3c0.1,0.5,0.4,0.9,0.9,1.1c0.3,0.1,0.5,0.2,0.8,0.3l7.6,0.4c0,0,0,0,0,0l0.3,0.6c0,0,0,0,0,0
	l-2.7,1.9h0L20.1,19l-2.9-1.2c-0.6-0.3-1.3-0.2-1.9,0.2l-3,2.3c-0.4,0.3-0.7,0.7-0.7,1.2L11,24.9c-0.1,0.4,0,0.9,0.2,1.2l2,3.4
	c0.3,0.5,0.9,0.9,1.5,0.9l3.5,0.3c0,0,0,0,0,0l0.8,2l0.8,3.6c0.1,0.5,0.4,1,0.9,1.2l1.7,1c0.7,0.4,1.7,0.3,2.3-0.3l2.7-2.6
	c0.3-0.3,0.6-0.8,0.6-1.3l0.2-4.3c0,0,0,0,0,0l2-3c0.5-0.8,0.4-1.8-0.3-2.4l-1.2-1.1c0,0,0,0,0,0l0.2-1.1c0,0,0,0,0,0c0,0,0,0,0,0
	c0,0,0,0,0,0l2.3,1.5c0.8,0.5,1.8,0.4,2.5-0.3l0.9-1c0.4-0.5,0.6-1.1,0.4-1.7c-0.2-0.6-0.6-1.1-1.2-1.3l-0.1,0h0c0,0,0,0,0,0
	c0,0,0,0,0,0l1.4-0.7h0l1.1,0.8c0.8,0.6,2,0.5,2.7-0.4c0.2-0.2,0.3-0.4,0.3-0.7l0.2-0.8c0,0,0,0,0,0l0.5-0.1
	c1.8,10.4-5.1,20.3-15.5,22.2C23.2,40,22.1,40.1,21,40.1L21,40.1z"/>
</svg>
