<?xml version="1.0" encoding="UTF-8"?>
<svg width="163px" height="18px" viewBox="0 0 163 18" version="1.1" xmlns="http://www.w3.org/2000/svg" xmlns:xlink="http://www.w3.org/1999/xlink">
    <!-- Generator: Sketch 52 (66869) - http://www.bohemiancoding.com/sketch -->
    <title>dns</title>
    <desc>Created with Sketch.</desc>
    <g id="Page-1" stroke="none" stroke-width="1" fill="none" fill-rule="evenodd">
        <g id="Artboard" transform="translate(-33.000000, -79.000000)" fill="#F28A1E">
            <g id="dns" transform="translate(33.000000, 79.000000)">
                <path d="M39.9563788,0.0185389949 L43.9520167,0.0185389949 L43.9520167,14.8659661 C43.9520167,15.7286607 43.452562,16.5005453 42.7260824,16.8183801 C42.4990575,16.90919 42.2266276,17 41.9541978,17 C41.4093381,17 40.9098833,16.7729751 40.5466435,16.3643303 L27.1521756,6.2390207 L27.1521756,17 L23.1565377,17 L23.1565377,2.10716789 C23.1565377,1.24447335 23.6559925,0.472588754 24.3824721,0.154753923 C25.1543567,-0.163080909 26.0170512,0.0185389949 26.5619109,0.608803682 L39.9563788,10.7341133 L39.9563788,0.0185389949 Z M64.8837106,7.96440979 C64.4296609,7.46495505 63.8848012,7.10171524 63.2945365,6.82928539 C62.6588668,6.55685553 62.0231971,6.4206406 61.3421225,6.4206406 L50.6265482,6.4206406 C50.0362835,6.4206406 49.5822337,5.92118587 49.5822337,5.33092118 C49.5822337,4.74065649 50.0362835,4.24120176 50.6265482,4.24120176 L63.3399414,4.24120176 C64.4296609,4.24120176 65.3377604,3.28769726 65.3377604,2.15257286 C65.3377604,0.97204349 64.4296609,0.0639439708 63.3399414,0.0639439708 L50.6265482,0.0639439708 C49.9454735,0.0639439708 49.2643989,0.200158899 48.6741342,0.472588754 C48.0838695,0.74501861 47.5390098,1.10825842 47.0849601,1.60771315 C46.6309103,2.10716789 46.2676705,2.6520276 45.9952406,3.28769726 C45.7228108,3.92336693 45.5865959,4.64984654 45.5865959,5.33092118 C45.5865959,6.0574008 45.7228108,6.73847544 45.9952406,7.3741451 C46.2676705,8.00981476 46.6309103,8.55467447 47.0849601,9.05412921 C47.5390098,9.55358394 48.0838695,9.91682375 48.6741342,10.1892536 C49.3098039,10.4616835 49.9454735,10.5978984 50.6265482,10.5978984 L61.3421225,10.5978984 C61.9323872,10.5978984 62.386437,11.0973531 62.386437,11.6876178 C62.386437,12.2778825 61.9323872,12.7773372 61.3421225,12.7773372 L47.5844148,12.7773372 C46.4946954,12.7773372 45.5865959,13.7308417 45.5865959,14.8659661 C45.5865959,16.0464955 46.4946954,16.954595 47.5844148,16.954595 L61.3421225,16.954595 C62.0231971,16.954595 62.7042718,16.8183801 63.2945365,16.5459502 C63.8848012,16.2735204 64.4296609,15.9102806 64.8837106,15.4108258 C65.3377604,14.9113711 65.7010002,14.3665114 65.9734301,13.7308417 C66.2458599,13.0951721 66.3820748,12.3686925 66.3820748,11.6876178 C66.3820748,11.0065432 66.2458599,10.2800636 65.9734301,9.6443939 C65.7010002,9.00872423 65.3377604,8.41845955 64.8837106,7.96440979 Z M20.840884,8.5092695 C20.840884,13.185982 17.2084859,17 12.7587982,17 L3.31456324,17 L1.49836421,17 L7.10542736e-15,17 L7.10542736e-15,8.5092695 L7.10542736e-15,0.0185389949 L12.7133933,0.0185389949 C17.2084859,0.0185389949 20.840884,3.83255697 20.840884,8.5092695 Z M16.981461,8.87250931 C16.981461,7.73738491 16.7090311,6.10280577 15.9371466,5.28551621 C15.165262,4.46822664 13.9393276,3.74174702 12.8042032,3.74174702 L3.85942296,3.74174702 L3.85942296,8.87250931 L3.85942296,13.0951721 L12.8042032,13.0951721 C13.9393276,13.0951721 14.9836421,12.6411223 15.7555267,11.8692377 C16.5274112,11.0973531 16.981461,10.0076337 16.981461,8.87250931 Z" id="SVGID_1_-Copy-2"></path>
                <g id="Group-2" transform="translate(71.000000, 0.000000)">
                    <path d="M6.9012796,6.47599066 L6.9012796,7.80985143 C6.9012796,8.05149287 6.83362,8.23514037 6.69830079,8.37045958 C6.56298158,8.49611313 6.38899975,8.56377273 6.17635528,8.56377273 C5.96371081,8.56377273 5.78972897,8.49611313 5.65440976,8.37045958 C5.51909055,8.23514037 5.45143095,8.05149287 5.45143095,7.80985143 L5.45143095,6.99793618 L0.724924328,6.99793618 C0.512279859,6.99793618 0.33829802,6.93027658 0.21264447,6.80462303 C0.067659604,6.65963816 3.10862447e-15,6.47599066 3.10862447e-15,6.24401488 L3.10862447e-15,0.811915248 C3.10862447e-15,0.570273805 0.067659604,0.386626308 0.202978812,0.2513071 C0.33829802,0.12565355 0.512279859,0.0579939463 0.724924328,0.0579939463 C0.937568798,0.0579939463 1.11155064,0.12565355 1.24686984,0.2513071 C1.38218905,0.386626308 1.44984866,0.570273805 1.44984866,0.811915248 L1.44984866,5.72206936 L4.48486518,5.72206936 L4.48486518,0.811915248 C4.48486518,0.570273805 4.55252478,0.386626308 4.68784399,0.2513071 C4.8231632,0.12565355 4.99714504,0.0579939463 5.20978951,0.0579939463 C5.42243397,0.0579939463 5.59641581,0.12565355 5.73173502,0.2513071 C5.86705423,0.386626308 5.93471383,0.570273805 5.93471383,0.811915248 L5.93471383,5.72206936 L6.17635528,5.72206936 C6.38899975,5.72206936 6.56298158,5.78972897 6.68863513,5.91538252 C6.83362,6.06036738 6.9012796,6.24401488 6.9012796,6.47599066 Z" id="Path"></path>
                    <path d="M13.6522045,0.811915248 L13.6522045,6.30200883 C13.6522045,6.54365027 13.5845449,6.72729777 13.4492257,6.86261697 C13.3139065,6.98827052 13.1399247,7.05593013 12.9272802,7.05593013 C12.7146357,7.05593013 12.5406539,6.98827052 12.4053347,6.86261697 C12.2700155,6.72729777 12.2023559,6.54365027 12.2023559,6.30200883 L12.2023559,2.6967185 L12.1830246,2.6967185 L9.05135147,6.73696342 C8.88703529,6.94960789 8.68405648,7.05593013 8.44241503,7.05593013 C8.22977056,7.05593013 8.05578873,6.98827052 7.92046952,6.86261697 C7.78515031,6.72729777 7.71749071,6.54365027 7.71749071,6.30200883 L7.71749071,0.811915248 C7.71749071,0.570273805 7.78515031,0.386626308 7.92046952,0.2513071 C8.05578873,0.12565355 8.22977056,0.0579939463 8.44241503,0.0579939463 C8.6550595,0.0579939463 8.82904134,0.12565355 8.96436055,0.2513071 C9.09967976,0.386626308 9.16733936,0.570273805 9.16733936,0.811915248 L9.16733936,4.46553386 L9.18667068,4.46553386 L12.3183438,0.376960651 C12.48266,0.164316181 12.6856388,0.0579939463 12.9272802,0.0579939463 C13.1399247,0.0579939463 13.3139065,0.12565355 13.4492257,0.2513071 C13.5845449,0.386626308 13.6522045,0.570273805 13.6522045,0.811915248 Z" id="Path"></path>
                    <path d="M21.7369902,5.41276832 C21.263373,5.94437949 20.6641022,6.20535225 19.9585092,6.20535225 C19.881184,6.20535225 19.7651961,6.19568659 19.6202112,6.17635528 C19.4752263,6.15702396 19.3592384,6.13769265 19.2722475,6.10869567 L19.2722475,6.30200883 C19.2722475,6.54365027 19.2045879,6.72729777 19.0692687,6.86261697 C18.9339495,6.98827052 18.7599677,7.05593013 18.5473232,7.05593013 C18.3346787,7.05593013 18.1606969,6.98827052 18.0253777,6.86261697 C17.8900585,6.72729777 17.8223989,6.54365027 17.8223989,6.30200883 L17.8223989,6.10869567 C17.7354079,6.13769265 17.6194201,6.15702396 17.4744352,6.17635528 C17.3294503,6.19568659 17.2134624,6.20535225 17.1361372,6.20535225 C16.4305442,6.20535225 15.840939,5.94437949 15.3673218,5.41276832 C14.8937046,4.90048846 14.6617288,4.27222071 14.6617288,3.52796506 C14.6617288,2.78370942 14.8937046,2.14577601 15.3479905,1.63349615 C15.8216077,1.10188498 16.4208785,0.840912221 17.1361372,0.840912221 C17.2134624,0.840912221 17.3294503,0.850577878 17.4841008,0.869909194 C17.6194201,0.879574851 17.7354079,0.898906167 17.8223989,0.918237482 L17.8223989,0.811915248 C17.8223989,0.570273805 17.8900585,0.386626308 18.0253777,0.2513071 C18.1606969,0.12565355 18.3346787,0.0579939463 18.5473232,0.0579939463 C18.7599677,0.0579939463 18.9339495,0.12565355 19.0692687,0.2513071 C19.2045879,0.386626308 19.2722475,0.570273805 19.2722475,0.811915248 L19.2722475,0.918237482 C19.3592384,0.898906167 19.4752263,0.879574851 19.6105455,0.869909194 C19.7651961,0.850577878 19.881184,0.840912221 19.9585092,0.840912221 C20.6737679,0.840912221 21.2730387,1.10188498 21.7466559,1.63349615 C22.2009418,2.14577601 22.4329176,2.78370942 22.4329176,3.52796506 C22.4329176,4.27222071 22.2009418,4.90048846 21.7369902,5.41276832 Z M20.528783,2.55173364 C20.2678103,2.30042653 19.9585092,2.17477298 19.6008799,2.17477298 C19.5428859,2.17477298 19.4752263,2.18443864 19.4075667,2.1941043 L19.3109102,2.22310127 L19.2335849,2.24243259 L19.2335849,4.79416622 L19.3205758,4.8231632 L19.4075667,4.84249451 C19.4752263,4.86182583 19.5332203,4.87149149 19.6008799,4.87149149 C19.9681749,4.87149149 20.2774759,4.74583794 20.528783,4.50419649 C20.7897558,4.25288939 20.925075,3.92425703 20.925075,3.52796506 C20.925075,3.1316731 20.7897558,2.81270639 20.528783,2.55173364 Z M17.8610615,4.79416622 L17.8610615,2.24243259 L17.7837362,2.22310127 L17.6967453,2.1941043 C17.6194201,2.18443864 17.5517604,2.17477298 17.4937665,2.17477298 C17.1361372,2.17477298 16.8268361,2.30042653 16.5658634,2.55173364 C16.3048906,2.81270639 16.1695714,3.1316731 16.1695714,3.52796506 C16.1695714,3.92425703 16.3048906,4.25288939 16.5658634,4.50419649 C16.8171705,4.74583794 17.1264715,4.87149149 17.4937665,4.87149149 C17.5807574,4.87149149 17.706411,4.84249451 17.8610615,4.79416622 Z" id="Combined-Shape"></path>
                    <path d="M23.4521075,6.30200883 L23.4521075,0.869909194 C23.4521075,0.367294993 23.7034146,0.115987893 24.2060288,0.115987893 L25.9168502,0.115987893 C26.6321089,0.115987893 27.221714,0.328632362 27.6856656,0.753921301 C28.1592828,1.1888759 28.3912586,1.73981839 28.3912586,2.42608008 C28.3912586,3.11234178 28.1496172,3.67294993 27.6759999,4.09823887 C27.221714,4.51386215 26.6611059,4.71684096 25.9748442,4.71684096 L24.9019562,4.71684096 L24.9019562,6.30200883 C24.9019562,6.54365027 24.8342966,6.72729777 24.6989774,6.86261697 C24.5636581,6.98827052 24.3896763,7.05593013 24.1770318,7.05593013 C23.9643874,7.05593013 23.7904055,6.98827052 23.6550863,6.86261697 C23.5197671,6.72729777 23.4521075,6.54365027 23.4521075,6.30200883 Z M24.9019562,1.39185471 L24.9019562,3.44097414 L25.8878532,3.44097414 C26.1874886,3.44097414 26.4291301,3.34431757 26.6127776,3.14133876 C26.7964251,2.95769126 26.883416,2.71604982 26.883416,2.41641443 C26.883416,2.11677904 26.7964251,1.8751376 26.6127776,1.68182444 C26.4291301,1.48851129 26.1874886,1.39185471 25.8878532,1.39185471 L24.9019562,1.39185471 Z" id="Combined-Shape"></path>
                    <path d="M29.9130627,6.08936436 C29.2944606,5.41276832 28.9851596,4.5718561 28.9851596,3.55696204 C28.9851596,2.54206798 29.2944606,1.6914901 29.9130627,1.02455972 C30.5413305,0.33829802 31.3339144,3.10862447e-15 32.3101458,3.10862447e-15 C33.2670459,3.10862447e-15 34.0692955,0.347963678 34.6975633,1.04389103 C35.325831,1.73015273 35.6351321,2.56139929 35.6351321,3.55696204 C35.6351321,4.5718561 35.325831,5.41276832 34.7168946,6.08936436 C34.0886268,6.77562605 33.2863773,7.11392407 32.3101458,7.11392407 C31.3339144,7.11392407 30.5413305,6.77562605 29.9130627,6.08936436 Z M33.6826692,5.11313293 C33.9823046,4.7071753 34.1272895,4.18522979 34.1272895,3.55696204 C34.1272895,2.92869429 33.9726389,2.41641443 33.6730036,2.0104568 C33.3347055,1.55617089 32.8804196,1.33386076 32.3101458,1.33386076 C31.739872,1.33386076 31.2855861,1.55617089 30.9472881,2.0104568 C30.6476527,2.41641443 30.4930022,2.92869429 30.4930022,3.55696204 C30.4930022,4.18522979 30.637987,4.7071753 30.9376224,5.11313293 C31.2662548,5.55775318 31.7205407,5.78006331 32.3101458,5.78006331 C32.8997509,5.78006331 33.3540369,5.55775318 33.6826692,5.11313293 Z" id="Combined-Shape"></path>
                    <path d="M36.6639876,6.2633462 L36.6639876,0.840912221 C36.6639876,0.618602093 36.7316472,0.434954597 36.8766321,0.299635389 C37.021617,0.173981839 37.2052645,0.115987893 37.4275746,0.115987893 L39.2833809,0.115987893 C39.7956607,0.115987893 40.2306153,0.270638416 40.5689134,0.579939463 C40.9265427,0.898906167 41.1005245,1.31452945 41.1005245,1.81714365 C41.1005245,2.48407403 40.8008891,2.95769126 40.2016184,3.23799533 L40.2016184,3.25732665 C40.6172416,3.31532059 40.9652053,3.49896809 41.2455094,3.80826914 C41.5258135,4.11757018 41.6707983,4.48486518 41.6707983,4.90048846 C41.6707983,5.56741884 41.4678195,6.08936436 41.0521962,6.45665935 C40.6559043,6.81428868 40.1146274,6.99793618 39.4283658,6.99793618 L37.4372403,6.99793618 C37.2149301,6.99793618 37.0312826,6.93027658 36.8862978,6.80462303 C36.7413129,6.66930382 36.6639876,6.48565632 36.6639876,6.2633462 Z M38.1138363,1.39185471 L38.1138363,2.84170337 L38.8677576,2.84170337 C39.109399,2.84170337 39.2930465,2.77404376 39.4380314,2.63872455 C39.5830163,2.50340535 39.6506759,2.31975785 39.6506759,2.07811641 C39.6506759,1.85580628 39.5733506,1.6914901 39.4187001,1.56583655 C39.2737152,1.44984866 39.0900677,1.39185471 38.8677576,1.39185471 L38.1138363,1.39185471 Z M38.1138363,4.11757018 L38.1138363,5.72206936 L39.2543839,5.72206936 C39.5250223,5.72206936 39.7376668,5.6447441 39.901983,5.49975924 C40.0759648,5.35477437 40.1629557,5.1421299 40.1629557,4.88115714 C40.1629557,4.36887728 39.8246577,4.11757018 39.138396,4.11757018 L38.1138363,4.11757018 Z" id="Combined-Shape"></path>
                    <path d="M42.2936963,6.06036738 L44.2364935,0.80224959 C44.4394723,0.270638416 44.7777703,8.8817842e-16 45.2707189,8.8817842e-16 C45.7733331,8.8817842e-16 46.1212967,0.270638416 46.3049442,0.80224959 L48.1994131,6.06036738 C48.2284101,6.12802699 48.2477414,6.20535225 48.2574071,6.27301185 C48.2670728,6.3310058 48.2767384,6.37933409 48.2767384,6.41799672 C48.2767384,6.60164422 48.2090788,6.75629474 48.0737596,6.88194829 C47.948106,6.99793618 47.7934555,7.05593013 47.609808,7.05593013 C47.2521787,7.05593013 47.0105372,6.89161395 46.904215,6.55331593 L46.6142453,5.6447441 L43.9271924,5.6447441 L43.6372227,6.54365027 C43.5309005,6.88194829 43.2989247,7.05593013 42.9412954,7.05593013 C42.7479822,7.05593013 42.583666,6.98827052 42.4386812,6.86261697 C42.2936963,6.73696342 42.2260367,6.57264724 42.2260367,6.37933409 C42.2260367,6.31167448 42.2357023,6.24401488 42.2550337,6.17635528 L42.274365,6.10869567 L42.2840306,6.0796987 L42.2936963,6.06036738 Z M45.2610532,1.5078426 L44.3428157,4.31088334 L46.1792907,4.31088334 L45.2803845,1.5078426 L45.2610532,1.5078426 Z" id="Combined-Shape"></path>
                    <path d="M53.8097905,0.869909194 L53.8097905,6.30200883 C53.8097905,6.54365027 53.7421309,6.72729777 53.6068117,6.86261697 C53.4714925,6.98827052 53.2975106,7.05593013 53.0848661,7.05593013 C52.8722217,7.05593013 52.6982398,6.98827052 52.5629206,6.86261697 C52.4276014,6.72729777 52.3599418,6.54365027 52.3599418,6.30200883 L52.3599418,4.2045611 L52.3406105,4.2045611 L50.1948345,6.80462303 C50.1271749,6.89161395 50.0305183,6.94960789 49.9241961,6.99793618 C49.8275395,7.03659881 49.7308829,7.05593013 49.6342263,7.05593013 C49.4312475,7.05593013 49.2572657,6.97860487 49.1122808,6.82395434 C48.9769616,6.67896948 48.909302,6.50498764 48.909302,6.31167448 C48.909302,6.16668962 48.9769616,6.02170475 49.1026152,5.88638554 L50.745777,4.12723584 C50.2238315,4.04024492 49.7985425,3.85659743 49.4795758,3.55696204 C49.1316121,3.22832967 48.9576303,2.81270639 48.9576303,2.30042653 C48.9576303,0.840912221 49.7598799,0.115987893 51.3643791,0.115987893 L53.0655348,0.115987893 C53.5584834,0.115987893 53.8097905,0.367294993 53.8097905,0.869909194 Z M52.3599418,3.16067007 L52.3599418,1.44984866 L51.3643791,1.44984866 C51.0937407,1.44984866 50.8810962,1.52717392 50.71678,1.67215878 C50.5524638,1.81714365 50.4654729,2.02978812 50.4654729,2.30042653 C50.4654729,2.56139929 50.5524638,2.77404376 50.71678,2.92869429 C50.8810962,3.08334481 51.0937407,3.16067007 51.3643791,3.16067007 L52.3599418,3.16067007 Z" id="Combined-Shape"></path>
                    <path d="M63.9189945,0.811915248 L63.9189945,6.30200883 C63.9189945,6.54365027 63.8513349,6.72729777 63.7160157,6.86261697 C63.5806965,6.98827052 63.4067146,7.05593013 63.1940702,7.05593013 C62.9814257,7.05593013 62.8074438,6.98827052 62.6721246,6.86261697 C62.5368054,6.72729777 62.4691458,6.54365027 62.4691458,6.30200883 L62.4691458,2.6967185 L62.4498145,2.6967185 L59.3181414,6.73696342 C59.1538252,6.94960789 58.9508464,7.05593013 58.709205,7.05593013 C58.4965605,7.05593013 58.3225787,6.98827052 58.1872595,6.86261697 C58.0519403,6.72729777 57.9842807,6.54365027 57.9842807,6.30200883 L57.9842807,0.811915248 C57.9842807,0.570273805 58.0519403,0.386626308 58.1872595,0.2513071 C58.3225787,0.12565355 58.4965605,0.0579939463 58.709205,0.0579939463 C58.9218495,0.0579939463 59.0958313,0.12565355 59.2311505,0.2513071 C59.3664697,0.386626308 59.4341293,0.570273805 59.4341293,0.811915248 L59.4341293,4.46553386 L59.4534606,4.46553386 L62.5851337,0.376960651 C62.7494499,0.164316181 62.9524287,0.0579939463 63.1940702,0.0579939463 C63.4067146,0.0579939463 63.5806965,0.12565355 63.7160157,0.2513071 C63.8513349,0.386626308 63.9189945,0.570273805 63.9189945,0.811915248 Z" id="Path"></path>
                </g>
                <g id="Group" transform="translate(71.000000, 10.000000)">
                    <path d="M4.42288554,6.39077734 C4.02346195,6.75123277 3.47790779,6.9363315 2.78622305,6.9363315 L0.77936309,6.9363315 C0.555296202,6.9363315 0.370197468,6.86813723 0.224066888,6.74149073 C0.077936309,6.60510219 1.33226763e-15,6.42000345 1.33226763e-15,6.19593657 L1.33226763e-15,0.730652897 C1.33226763e-15,0.506586008 0.0681942704,0.321487275 0.21432485,0.185098734 C0.360455429,0.0584522317 0.545554163,6.21724894e-15 0.769621051,6.21724894e-15 L3.67274856,6.21724894e-15 C3.89681545,6.21724894e-15 4.07217215,0.0681942704 4.19881865,0.204582811 C4.30598107,0.331229313 4.3644333,0.487101931 4.3644333,0.672200665 C4.3644333,0.857299399 4.30598107,1.00342998 4.18907661,1.13007648 C4.06243011,1.27620706 3.88707341,1.34440133 3.67274856,1.34440133 L1.46130579,1.34440133 L1.46130579,2.74725489 L2.61086635,2.74725489 C3.36100333,2.74725489 3.9357836,2.91286955 4.35469127,3.23435682 C4.81256708,3.59481225 5.04637601,4.12088234 5.04637601,4.82230912 C5.04637601,5.49450978 4.8417932,6.02057987 4.42288554,6.39077734 Z M1.46130579,4.03320399 L1.46130579,5.6503824 L2.61086635,5.6503824 C2.88364343,5.6503824 3.09796828,5.57244609 3.26358294,5.42631551 C3.43893963,5.28018493 3.52661798,5.06586008 3.52661798,4.80282504 C3.52661798,4.28649699 3.18564663,4.03320399 2.49396189,4.03320399 L1.46130579,4.03320399 Z" id="Combined-Shape"></path>
                    <path d="M11.6321839,6.29335695 L11.6321839,0.759879013 C11.6321839,0.516328047 11.7003782,0.331229313 11.8367667,0.194840772 C11.9731553,0.0681942704 12.148512,-8.8817842e-16 12.3628368,-8.8817842e-16 C12.5771617,-8.8817842e-16 12.7525183,0.0681942704 12.8889069,0.194840772 C13.0252954,0.331229313 13.0934897,0.516328047 13.0934897,0.759879013 L13.0934897,6.29335695 C13.0934897,6.53690792 13.0252954,6.72200665 12.8889069,6.85839519 C12.7525183,6.98504169 12.5771617,7.05323596 12.3628368,7.05323596 C12.148512,7.05323596 11.9731553,6.98504169 11.8367667,6.85839519 C11.7003782,6.72200665 11.6321839,6.53690792 11.6321839,6.29335695 Z" id="Path"></path>
                    <path d="M7.80613338,2.70828674 L8.80956336,2.70828674 C9.54995829,2.70828674 10.1344806,2.88364343 10.5533883,3.22461478 C11.0112641,3.59481225 11.245073,4.13062438 11.245073,4.83205116 C11.245073,5.50425182 11.0404902,6.04006395 10.6215825,6.42974549 C10.2124169,6.809685 9.66686276,6.99478373 8.98492005,6.99478373 L7.12419068,6.99478373 C6.90012379,6.99478373 6.71502505,6.92658946 6.56889447,6.79994296 C6.4227639,6.66355442 6.34482759,6.47845569 6.34482759,6.2543888 L6.34482759,0.759879013 C6.34482759,0.516328047 6.41302186,0.331229313 6.5494104,0.194840772 C6.68579894,0.0681942704 6.86115563,-5.32907052e-15 7.07548048,-5.32907052e-15 C7.28980533,-5.32907052e-15 7.46516203,0.0681942704 7.60155057,0.194840772 C7.73793911,0.331229313 7.80613338,0.516328047 7.80613338,0.759879013 L7.80613338,2.70828674 Z M7.80613338,3.99423584 L7.80613338,5.70883463 L8.80956336,5.70883463 C9.0725984,5.70883463 9.29666529,5.63089833 9.46227995,5.46528367 C9.63763664,5.29966901 9.72531499,5.07560212 9.72531499,4.81256708 C9.72531499,4.56901611 9.63763664,4.37417534 9.46227995,4.22804476 C9.27718121,4.07217215 9.02388821,3.99423584 8.69265889,3.99423584 L7.80613338,3.99423584 Z" id="Combined-Shape"></path>
                    <path d="M15.4714673,6.23490472 L15.4714673,1.34440133 L14.4095851,1.34440133 C14.1855182,1.34440133 14.0199035,1.27620706 13.9029991,1.13007648 C13.7958366,1.00342998 13.7471264,0.857299399 13.7471264,0.672200665 C13.7471264,0.487101931 13.8055787,0.331229313 13.9224831,0.204582811 C14.0491296,0.0681942704 14.2050023,-3.55271368e-15 14.4095851,-3.55271368e-15 L17.9946553,-3.55271368e-15 C18.1992381,-3.55271368e-15 18.3551107,0.0681942704 18.4817572,0.204582811 C18.5986617,0.331229313 18.6571139,0.487101931 18.6571139,0.672200665 C18.6571139,0.857299399 18.6084037,1.00342998 18.5012413,1.13007648 C18.3843368,1.27620706 18.2187222,1.34440133 17.9946553,1.34440133 L16.9327731,1.34440133 L16.9327731,6.23490472 C16.9327731,6.47845569 16.8645788,6.66355442 16.7281903,6.79994296 C16.5918017,6.92658946 16.416445,6.99478373 16.2021202,6.99478373 C15.9877953,6.99478373 15.8124386,6.92658946 15.6760501,6.79994296 C15.5396615,6.66355442 15.4714673,6.47845569 15.4714673,6.23490472 Z" id="Path"></path>
                    <path d="M19.9697185,6.13748433 C19.346228,5.45554163 19.0344828,4.60798427 19.0344828,3.58507021 C19.0344828,2.56215616 19.346228,1.70485676 19.9697185,1.03265609 C20.602951,0.340971352 21.4017981,2.66453526e-15 22.385744,2.66453526e-15 C23.3502059,2.66453526e-15 24.1587951,0.35071339 24.7920276,1.05214017 C25.4252601,1.74382491 25.7370053,2.58164024 25.7370053,3.58507021 C25.7370053,4.60798427 25.4252601,5.45554163 24.8115117,6.13748433 C24.1782792,6.82916908 23.3696899,7.17014043 22.385744,7.17014043 C21.4017981,7.17014043 20.602951,6.82916908 19.9697185,6.13748433 Z M23.7691135,5.15353843 C24.0711167,4.74437281 24.2172473,4.21830272 24.2172473,3.58507021 C24.2172473,2.9518377 24.0613747,2.43550966 23.7593715,2.02634403 C23.4184001,1.56846822 22.9605243,1.34440133 22.385744,1.34440133 C21.8109638,1.34440133 21.353088,1.56846822 21.0121166,2.02634403 C20.7101134,2.43550966 20.5542408,2.9518377 20.5542408,3.58507021 C20.5542408,4.21830272 20.7003714,4.74437281 21.0023746,5.15353843 C21.3336039,5.60167221 21.7914797,5.8257391 22.385744,5.8257391 C22.9800084,5.8257391 23.4378842,5.60167221 23.7691135,5.15353843 Z" id="Combined-Shape"></path>
                    <path d="M27.4942529,6.19593657 L27.4942529,0.730652897 C27.4942529,0.506586008 27.5624471,0.321487275 27.7085777,0.185098734 C27.8547083,0.0584522317 28.039807,6.21724894e-15 28.2638739,6.21724894e-15 L30.1343453,6.21724894e-15 C30.6506734,6.21724894e-15 31.0890651,0.155872618 31.4300365,0.467617854 C31.7904919,0.789105129 31.9658486,1.20801279 31.9658486,1.7145988 C31.9658486,2.38679946 31.6638454,2.86415936 31.059839,3.14667848 L31.059839,3.16616255 C31.4787467,3.22461478 31.8294601,3.40971352 32.1119792,3.72145875 C32.3944983,4.03320399 32.5406289,4.40340146 32.5406289,4.82230912 C32.5406289,5.49450978 32.3360461,6.02057987 31.9171384,6.39077734 C31.5177148,6.75123277 30.9721607,6.9363315 30.2804759,6.9363315 L28.273616,6.9363315 C28.0495491,6.9363315 27.8644503,6.86813723 27.7183198,6.74149073 C27.5721892,6.60510219 27.4942529,6.42000345 27.4942529,6.19593657 Z M28.9555587,1.2859491 L28.9555587,2.74725489 L29.7154377,2.74725489 C29.9589886,2.74725489 30.1440874,2.67906062 30.290218,2.54267208 C30.4363485,2.40628354 30.5045428,2.22118481 30.5045428,1.97763384 C30.5045428,1.75356695 30.4266065,1.5879523 30.2707339,1.46130579 C30.1246033,1.34440133 29.9395046,1.2859491 29.7154377,1.2859491 L28.9555587,1.2859491 Z M28.9555587,4.03320399 L28.9555587,5.6503824 L30.1051192,5.6503824 C30.3778963,5.6503824 30.5922212,5.57244609 30.7578358,5.42631551 C30.9331925,5.28018493 31.0208709,5.06586008 31.0208709,4.80282504 C31.0208709,4.28649699 30.6798995,4.03320399 29.9882148,4.03320399 L28.9555587,4.03320399 Z" id="Combined-Shape"></path>
                    <path d="M32.8498035,6.10825822 L34.8079532,0.808589206 C35.012536,0.272777081 35.3535074,8.8817842e-16 35.8503514,8.8817842e-16 C36.3569374,8.8817842e-16 36.7076508,0.272777081 36.8927495,0.808589206 L38.8021891,6.10825822 C38.8314152,6.17645249 38.8508993,6.2543888 38.8606413,6.32258307 C38.8703833,6.3810353 38.8801254,6.42974549 38.8801254,6.46871365 C38.8801254,6.65381238 38.8119311,6.809685 38.6755426,6.9363315 C38.5488961,7.05323596 38.3930234,7.1116882 38.2079247,7.1116882 C37.8474693,7.1116882 37.6039183,6.94607354 37.4967559,6.60510219 L37.2044947,5.68935056 L34.496208,5.68935056 L34.2039468,6.59536015 C34.0967844,6.9363315 33.8629755,7.1116882 33.5025201,7.1116882 C33.3076793,7.1116882 33.1420646,7.04349393 32.995934,6.91684742 C32.8498035,6.79020092 32.7816092,6.62458626 32.7816092,6.42974549 C32.7816092,6.36155122 32.7913512,6.29335695 32.8108353,6.22516268 L32.8303194,6.15696841 L32.8400614,6.12774229 L32.8498035,6.10825822 Z M35.8406093,1.51975803 L34.9151157,4.34494923 L36.766103,4.34494923 L35.8600934,1.51975803 L35.8406093,1.51975803 Z" id="Combined-Shape"></path>
                    <path d="M44.0656504,0.759879013 L44.0656504,6.23490472 C44.0656504,6.47845569 43.9974561,6.66355442 43.8610676,6.79994296 C43.724679,6.92658946 43.5493223,6.99478373 43.3349975,6.99478373 C43.1206726,6.99478373 42.9453159,6.92658946 42.8089274,6.79994296 C42.6725388,6.66355442 42.6043446,6.47845569 42.6043446,6.23490472 L42.6043446,4.12088234 L42.5848605,4.12088234 L40.4221279,6.74149073 C40.3539336,6.82916908 40.2565133,6.88762131 40.1493508,6.9363315 C40.0519305,6.97529966 39.9545101,6.99478373 39.8570897,6.99478373 C39.6525069,6.99478373 39.4771502,6.91684742 39.3310196,6.76097481 C39.1946311,6.61484423 39.1264368,6.43948753 39.1264368,6.24464676 C39.1264368,6.09851618 39.1946311,5.9523856 39.3212776,5.81599706 L40.9774241,4.04294603 C40.451354,3.95526768 40.0227043,3.77016895 39.7012171,3.46816575 C39.3505037,3.13693644 39.175147,2.71802878 39.175147,2.20170073 C39.175147,0.730652897 39.9837362,-3.55271368e-15 41.6009146,-3.55271368e-15 L43.3155134,-3.55271368e-15 C43.8123574,-3.55271368e-15 44.0656504,0.253293004 44.0656504,0.759879013 Z M42.6043446,3.06874217 L42.6043446,1.34440133 L41.6009146,1.34440133 C41.3281375,1.34440133 41.1138127,1.42233764 40.948198,1.56846822 C40.7825833,1.7145988 40.694905,1.92892365 40.694905,2.20170073 C40.694905,2.46473577 40.7825833,2.67906062 40.948198,2.83493324 C41.1138127,2.99080586 41.3281375,3.06874217 41.6009146,3.06874217 L42.6043446,3.06874217 Z" id="Combined-Shape"></path>
                    <path d="M49.3105477,6.23490472 L49.3105477,1.34440133 L48.2486655,1.34440133 C48.0245986,1.34440133 47.858984,1.27620706 47.7420795,1.13007648 C47.6349171,1.00342998 47.5862069,0.857299399 47.5862069,0.672200665 C47.5862069,0.487101931 47.6446591,0.331229313 47.7615636,0.204582811 C47.8882101,0.0681942704 48.0440827,-3.55271368e-15 48.2486655,-3.55271368e-15 L51.8337357,-3.55271368e-15 C52.0383185,-3.55271368e-15 52.1941912,0.0681942704 52.3208377,0.204582811 C52.4377421,0.331229313 52.4961944,0.487101931 52.4961944,0.672200665 C52.4961944,0.857299399 52.4474842,1.00342998 52.3403217,1.13007648 C52.2234173,1.27620706 52.0578026,1.34440133 51.8337357,1.34440133 L50.7718535,1.34440133 L50.7718535,6.23490472 C50.7718535,6.47845569 50.7036593,6.66355442 50.5672707,6.79994296 C50.4308822,6.92658946 50.2555255,6.99478373 50.0412006,6.99478373 C49.8268758,6.99478373 49.6515191,6.92658946 49.5151305,6.79994296 C49.378742,6.66355442 49.3105477,6.47845569 49.3105477,6.23490472 Z" id="Path"></path>
                    <path d="M53.9310345,6.2056786 L53.9310345,0.84755736 C53.9310345,0.28251912 54.1843275,6.21724894e-15 54.6909135,6.21724894e-15 L57.1069391,6.21724894e-15 C57.331006,6.21724894e-15 57.5063627,0.0681942704 57.6330092,0.204582811 C57.7401716,0.331229313 57.7986238,0.487101931 57.7986238,0.672200665 C57.7986238,0.857299399 57.7401716,1.00342998 57.6232671,1.13007648 C57.4966206,1.27620706 57.3212639,1.34440133 57.1069391,1.34440133 L55.3923403,1.34440133 L55.3923403,2.76673897 L56.9900346,2.76673897 C57.2141015,2.76673897 57.3992002,2.83493324 57.5258467,2.97132178 C57.6427512,3.09796828 57.7012034,3.2538409 57.7012034,3.43893963 C57.7012034,3.62403837 57.6427512,3.77016895 57.5258467,3.89681545 C57.3894582,4.04294603 57.2141015,4.1111403 56.9900346,4.1111403 L55.3923403,4.1111403 L55.3923403,5.59193017 L57.1946174,5.59193017 C57.4186843,5.59193017 57.594041,5.66012444 57.7206875,5.79651298 C57.8278499,5.92315948 57.8863022,6.0790321 57.8863022,6.26413084 C57.8863022,6.44922957 57.8278499,6.59536015 57.7109455,6.72200665 C57.584299,6.86813723 57.4089423,6.9363315 57.1946174,6.9363315 L54.6811715,6.9363315 C54.4668466,6.9363315 54.2914899,6.86813723 54.1453593,6.73174869 C53.9992288,6.59536015 53.9310345,6.42000345 53.9310345,6.2056786 Z" id="Path"></path>
                    <path d="M58.3265342,5.87444929 L60.2554578,3.28306702 L58.6772476,1.13981852 C58.5700852,1.00342998 58.521375,0.857299399 58.521375,0.71116882 C58.521375,0.49684397 58.5895692,0.321487275 58.7356998,0.194840772 C58.8720884,0.0681942704 59.0474451,-8.8817842e-16 59.2617699,-8.8817842e-16 C59.5150629,-8.8817842e-16 59.7293878,0.116904463 59.8950024,0.360455429 L61.1030152,2.07505423 L62.311028,0.360455429 C62.4766427,0.116904463 62.6909675,-8.8817842e-16 62.9442605,-8.8817842e-16 C63.1585854,-8.8817842e-16 63.333942,0.0681942704 63.4703306,0.194840772 C63.6164612,0.321487275 63.6846554,0.49684397 63.6846554,0.71116882 C63.6846554,0.857299399 63.6359452,1.00342998 63.5287828,1.13981852 L61.9505726,3.28306702 L63.8794962,5.87444929 C63.9282064,5.94264356 63.9671746,6.01083783 63.9964007,6.08877414 C64.0256268,6.18619453 64.0451109,6.28361491 64.0451109,6.37129326 C64.0451109,6.57587607 63.9769166,6.74149073 63.8405281,6.86813723 C63.6943975,6.99478373 63.5190408,7.05323596 63.3047159,7.05323596 C63.061165,7.05323596 62.8565822,6.94607354 62.7007095,6.73174869 L61.1030152,4.51056388 L59.5053209,6.73174869 C59.3494483,6.94607354 59.1448654,7.05323596 58.9013145,7.05323596 C58.6869896,7.05323596 58.5116329,6.99478373 58.3752444,6.86813723 C58.2291138,6.74149073 58.1609195,6.57587607 58.1609195,6.37129326 C58.1609195,6.28361491 58.1804036,6.18619453 58.2193718,6.08877414 C58.2485979,6.01083783 58.277824,5.94264356 58.3265342,5.87444929 Z" id="Path"></path>
                    <path d="M64.5057471,6.29335695 L64.5057471,0.759879013 C64.5057471,0.516328047 64.5739414,0.331229313 64.7103299,0.194840772 C64.8467185,0.0681942704 65.0220752,-8.8817842e-16 65.2364,-8.8817842e-16 C65.4507249,-8.8817842e-16 65.6260816,0.0681942704 65.7624701,0.194840772 C65.8988586,0.331229313 65.9670529,0.516328047 65.9670529,0.759879013 L65.9670529,2.8251912 L69.026053,2.8251912 L69.026053,0.759879013 C69.026053,0.516328047 69.0942473,0.331229313 69.2306359,0.194840772 C69.3670244,0.0681942704 69.5423811,-8.8817842e-16 69.7567059,-8.8817842e-16 C69.9710308,-8.8817842e-16 70.1463875,0.0681942704 70.282776,0.194840772 C70.4191646,0.331229313 70.4873588,0.516328047 70.4873588,0.759879013 L70.4873588,6.29335695 C70.4873588,6.53690792 70.4191646,6.72200665 70.282776,6.85839519 C70.1463875,6.98504169 69.9710308,7.05323596 69.7567059,7.05323596 C69.5423811,7.05323596 69.3670244,6.98504169 69.2306359,6.85839519 C69.0942473,6.72200665 69.026053,6.53690792 69.026053,6.29335695 L69.026053,4.16959253 L65.9670529,4.16959253 L65.9670529,6.29335695 C65.9670529,6.53690792 65.8988586,6.72200665 65.7624701,6.85839519 C65.6260816,6.98504169 65.4507249,7.05323596 65.2364,7.05323596 C65.0220752,7.05323596 64.8467185,6.98504169 64.7103299,6.85839519 C64.5739414,6.72200665 64.5057471,6.53690792 64.5057471,6.29335695 Z" id="Path"></path>
                    <path d="M77.8896577,0.759879013 L77.8896577,6.29335695 C77.8896577,6.53690792 77.8214634,6.72200665 77.6850749,6.85839519 C77.5486863,6.98504169 77.3733296,7.05323596 77.1590048,7.05323596 C76.9446799,7.05323596 76.7693233,6.98504169 76.6329347,6.85839519 C76.4965462,6.72200665 76.4283519,6.53690792 76.4283519,6.29335695 L76.4283519,2.65957654 L76.4088678,2.65957654 L73.2524473,6.73174869 C73.0868327,6.94607354 72.8822498,7.05323596 72.6386989,7.05323596 C72.424374,7.05323596 72.2490173,6.98504169 72.1126288,6.85839519 C71.9762402,6.72200665 71.908046,6.53690792 71.908046,6.29335695 L71.908046,0.759879013 C71.908046,0.516328047 71.9762402,0.331229313 72.1126288,0.194840772 C72.2490173,0.0681942704 72.424374,-8.8817842e-16 72.6386989,-8.8817842e-16 C72.8530237,-8.8817842e-16 73.0283804,0.0681942704 73.164769,0.194840772 C73.3011575,0.331229313 73.3693518,0.516328047 73.3693518,0.759879013 L73.3693518,4.44236961 L73.3888358,4.44236961 L76.5452564,0.321487275 C76.710871,0.107162425 76.9154538,-8.8817842e-16 77.1590048,-8.8817842e-16 C77.3733296,-8.8817842e-16 77.5486863,0.0681942704 77.6850749,0.194840772 C77.8214634,0.331229313 77.8896577,0.516328047 77.8896577,0.759879013 Z" id="Path"></path>
                    <path d="M79.3103448,6.35180918 L79.3103448,0.720910858 C79.3103448,0.516328047 79.3785391,0.35071339 79.5149276,0.21432485 C79.6513162,0.0681942704 79.8266729,-8.8817842e-16 80.0409977,-8.8817842e-16 C80.2553226,-8.8817842e-16 80.4306793,0.0681942704 80.5670678,0.194840772 C80.7034564,0.321487275 80.7716506,0.49684397 80.7716506,0.720910858 L80.7716506,2.8251912 L83.1681921,0.272777081 C83.2363864,0.194840772 83.3143227,0.136388541 83.392259,0.0876783476 C83.4994214,0.0292261159 83.6065839,-8.8817842e-16 83.7332304,-8.8817842e-16 C83.9280711,-8.8817842e-16 84.0936858,0.0681942704 84.2300743,0.194840772 C84.3762049,0.331229313 84.4541412,0.49684397 84.4541412,0.701426781 C84.4541412,0.906009592 84.2982686,1.1593026 83.9767813,1.48078987 L82.135536,3.29280906 L84.385947,5.64064036 C84.658724,5.92315948 84.7951126,6.17645249 84.7951126,6.3810353 C84.7951126,6.59536015 84.7171763,6.76097481 84.5613036,6.88762131 C84.4249151,6.99478373 84.2495584,7.05323596 84.0352336,7.05323596 C83.8306507,7.05323596 83.5773577,6.89736335 83.2948386,6.59536015 L80.7716506,3.86758933 L80.7716506,6.35180918 C80.7716506,6.54664996 80.7034564,6.71226461 80.5670678,6.84865315 C80.4306793,6.98504169 80.2553226,7.05323596 80.0409977,7.05323596 C79.8266729,7.05323596 79.6513162,6.98504169 79.5149276,6.85839519 C79.3785391,6.73174869 79.3103448,6.56613403 79.3103448,6.35180918 Z" id="Path"></path>
                    <path d="M85.7233667,6.10825822 L87.6815164,0.808589206 C87.8860993,0.272777081 88.2270706,8.8817842e-16 88.7239146,8.8817842e-16 C89.2305006,8.8817842e-16 89.581214,0.272777081 89.7663127,0.808589206 L91.6757523,6.10825822 C91.7049784,6.17645249 91.7244625,6.2543888 91.7342045,6.32258307 C91.7439466,6.3810353 91.7536886,6.42974549 91.7536886,6.46871365 C91.7536886,6.65381238 91.6854943,6.809685 91.5491058,6.9363315 C91.4224593,7.05323596 91.2665867,7.1116882 91.0814879,7.1116882 C90.7210325,7.1116882 90.4774815,6.94607354 90.3703191,6.60510219 L90.0780579,5.68935056 L87.3697712,5.68935056 L87.0775101,6.59536015 C86.9703476,6.9363315 86.7365387,7.1116882 86.3760833,7.1116882 C86.1812425,7.1116882 86.0156278,7.04349393 85.8694973,6.91684742 C85.7233667,6.79020092 85.6551724,6.62458626 85.6551724,6.42974549 C85.6551724,6.36155122 85.6649145,6.29335695 85.6843985,6.22516268 L85.7038826,6.15696841 L85.7136246,6.12774229 L85.7233667,6.10825822 Z M88.7141725,1.51975803 L87.7886789,4.34494923 L89.6396662,4.34494923 L88.7336566,1.51975803 L88.7141725,1.51975803 Z" id="Combined-Shape"></path>
                </g>
            </g>
        </g>
    </g>
</svg>