<?xml version="1.0" encoding="utf-8"?>
<!-- Generator: Adobe Illustrator 21.0.0, SVG Export Plug-In . SVG Version: 6.00 Build 0)  -->
<svg version="1.1" id="Слой_1" xmlns="http://www.w3.org/2000/svg" xmlns:xlink="http://www.w3.org/1999/xlink" x="0px" y="0px"
	 viewBox="0 0 501 48" style="enable-background:new 0 0 501 48;" xml:space="preserve">
<style type="text/css">
	.st0{fill:#FC8507;}
</style>
<g>
	<path class="st0" d="M37.6,0.4H0v23.9v23.9h4.4h5.4h27.9c13.2,0,23.9-10.7,23.9-23.9C61.5,11.1,50.8,0.4,37.6,0.4z M46.1,32.8
		c-2.3,2.3-5.3,3.5-8.5,3.5H11.9v-12v-12h25.7c3.2,0,6.2,1.2,8.5,3.5c2.3,2.3,3.5,5.3,3.5,8.5S48.4,30.5,46.1,32.8z"/>
	<path class="st0" d="M185.9,22.7c-1.4-1.4-3-2.4-4.7-3.2c-1.8-0.8-3.8-1.2-5.8-1.2v0h-31.6c-1.7,0-3.1-1.4-3.1-3.1
		c0-1.7,1.4-3.1,3.1-3.1h37.5c3.3,0,5.9-2.7,5.9-5.9c0-3.3-2.7-5.9-5.9-5.9h-37.5c-2,0-4,0.4-5.8,1.2c-1.8,0.8-3.4,1.8-4.7,3.2
		c-1.4,1.4-2.4,3-3.2,4.7c-0.8,1.8-1.2,3.8-1.2,5.8c0,2,0.4,4,1.2,5.8c0.8,1.8,1.8,3.4,3.2,4.7c1.4,1.4,3,2.4,4.7,3.2
		c1.8,0.8,3.8,1.2,5.8,1.2h31.6v0c1.7,0,3.1,1.4,3.1,3.1c0,1.7-1.4,3.1-3.1,3.1h-40.6c-3.3,0-5.9,2.7-5.9,5.9c0,3.3,2.7,5.9,5.9,5.9
		h40.6c2,0,4-0.4,5.8-1.2c1.8-0.8,3.4-1.8,4.7-3.2c1.4-1.4,2.4-3,3.2-4.7c0.8-1.8,1.2-3.8,1.2-5.8c0-2-0.4-4-1.2-5.8
		C188.3,25.7,187.3,24.1,185.9,22.7z"/>
	<path class="st0" d="M114,30.7L74.5,2.1c-1.7-1.7-4.2-2.2-6.5-1.3c-2.2,0.9-3.7,3.1-3.7,5.5v41.9h11.8V17.9l39.5,28.6
		c1.1,1.1,2.6,1.7,4.2,1.7c0.8,0,1.5-0.1,2.3-0.5c2.2-0.9,3.7-3.1,3.7-5.5V0.4H114V30.7z"/>
	<path class="st0" d="M206.2,4.8v11.9c0,0.7,0.2,1.3,0.7,1.8c0.4,0.4,1,0.6,1.7,0.6c0.7,0,1.2-0.2,1.7-0.6c0.4-0.4,0.7-1,0.7-1.8
		V4.8h2.2c0.7,0,1.3-0.2,1.6-0.7c0.3-0.4,0.5-0.9,0.5-1.5c0-0.6-0.2-1.1-0.6-1.5c-0.4-0.4-0.9-0.7-1.6-0.7h-9
		c-0.6,0-1.2,0.2-1.6,0.7c-0.4,0.4-0.6,0.9-0.6,1.5c0,0.6,0.2,1.1,0.5,1.5c0.4,0.5,0.9,0.7,1.7,0.7H206.2z"/>
	<path class="st0" d="M226.3,18.9c0.7,0,1.2-0.2,1.7-0.7c0.4-0.4,0.6-0.9,0.6-1.5c0-0.6-0.2-1.1-0.6-1.5c-0.4-0.4-1-0.7-1.7-0.7
		h-4.1v-2.8h3.5c0.7,0,1.3-0.2,1.7-0.7c0.4-0.4,0.6-0.9,0.6-1.5c0-0.6-0.2-1.1-0.6-1.5c-0.4-0.4-1-0.7-1.7-0.7h-3.5V4.8h3.8
		c0.7,0,1.2-0.2,1.7-0.7c0.4-0.4,0.6-0.9,0.6-1.5c0-0.6-0.2-1.1-0.6-1.5c-0.4-0.4-1-0.7-1.7-0.7h-6.1c-1.5,0-2.4,0.9-2.4,2.6v13.5
		c0,0.7,0.2,1.2,0.7,1.7c0.5,0.4,1,0.6,1.7,0.6H226.3z"/>
	<path class="st0" d="M243.4,11.4c1.3-1.2,2-2.7,2-4.6c0-1.9-0.7-3.4-2-4.6c-1.3-1.2-2.9-1.7-4.8-1.7h-4.3c-1.5,0-2.4,0.9-2.4,2.4
		v13.8c0,0.7,0.2,1.3,0.7,1.8c0.4,0.4,1,0.6,1.7,0.6c0.7,0,1.2-0.2,1.7-0.6c0.4-0.4,0.7-1,0.7-1.8v-3.5h2.2
		C240.6,13.1,242.2,12.5,243.4,11.4z M240.6,6.8c0,0.6-0.2,1.1-0.6,1.5c-0.4,0.4-0.9,0.6-1.5,0.6h-2V4.6h2c0.6,0,1.1,0.2,1.5,0.6
		C240.4,5.6,240.6,6.1,240.6,6.8z"/>
	<path class="st0" d="M263.5,16.9c0.2,1.4,1,2.1,2.4,2.1c0.6,0,1.2-0.2,1.6-0.6c0.4-0.4,0.7-1,0.7-1.6v-0.2l-2.3-14
		c-0.1-0.6-0.4-1.1-0.9-1.6c-0.6-0.5-1.2-0.7-2-0.7c-0.7,0-1.3,0.2-1.9,0.6c-0.5,0.4-0.8,0.9-1,1.5l-2.5,8.3l-2.5-8.3
		c-0.2-0.6-0.5-1.1-1-1.5c-0.6-0.4-1.2-0.6-1.9-0.6c-0.7,0-1.4,0.2-2,0.7c-0.5,0.4-0.8,1-0.9,1.6L247,16.3l0,0.2l0,0.3
		c0,0.7,0.2,1.2,0.7,1.6c0.4,0.4,1,0.6,1.6,0.6c1.3,0,2.2-0.8,2.4-2.1l1.1-7.9l2.4,8.3c0.1,0.5,0.4,0.9,0.7,1.2
		c0.4,0.4,1,0.6,1.7,0.6c0.7,0,1.3-0.2,1.8-0.6c0.3-0.3,0.5-0.7,0.7-1.2l2.4-8.3L263.5,16.9z"/>
	<path class="st0" d="M273.7,19c0.8,0,1.4-0.3,1.9-1l7.1-9.2v7.8c0,0.7,0.2,1.3,0.7,1.8c0.4,0.4,1,0.6,1.7,0.6
		c0.7,0,1.2-0.2,1.7-0.6c0.4-0.4,0.7-1,0.7-1.8v-14c0-0.7-0.2-1.3-0.7-1.8c-0.4-0.4-1-0.6-1.7-0.6c-0.8,0-1.4,0.3-1.9,1l-7.1,9.3
		V2.7c0-0.7-0.2-1.3-0.7-1.8c-0.4-0.4-1-0.6-1.7-0.6c-0.7,0-1.2,0.2-1.7,0.6c-0.4,0.4-0.7,1-0.7,1.8v14c0,0.7,0.2,1.3,0.7,1.8
		C272.4,18.8,273,19,273.7,19z"/>
	<path class="st0" d="M293.9,19c0.7,0,1.2-0.2,1.7-0.6c0.4-0.4,0.7-1,0.7-1.8v-4.9h6.8v4.9c0,0.7,0.2,1.3,0.7,1.8
		c0.4,0.4,1,0.6,1.7,0.6c0.7,0,1.2-0.2,1.7-0.6c0.4-0.4,0.7-1,0.7-1.8v-14c0-0.7-0.2-1.3-0.7-1.8c-0.4-0.4-1-0.6-1.7-0.6
		c-0.7,0-1.2,0.2-1.7,0.6c-0.4,0.4-0.7,1-0.7,1.8v4.7h-6.8V2.7c0-0.7-0.2-1.3-0.7-1.8c-0.4-0.4-1-0.6-1.7-0.6
		c-0.7,0-1.2,0.2-1.7,0.6c-0.4,0.4-0.7,1-0.7,1.8v14c0,0.7,0.2,1.3,0.7,1.8C292.7,18.8,293.2,19,293.9,19z"/>
	<path class="st0" d="M322.2,17.4c0.3,1.1,1.1,1.6,2.3,1.6c0.6,0,1.1-0.2,1.5-0.6c0.4-0.4,0.7-0.9,0.7-1.5c0-0.1,0-0.3-0.1-0.5
		c0-0.2-0.1-0.4-0.2-0.6l-4.8-13.4C321,1,320,0.1,318.5,0.1c-1,0-2.4,0.4-3.1,2.4l-4.9,13.3l-0.1,0.4c-0.1,0.2-0.1,0.4-0.1,0.6
		c0,0.6,0.2,1.2,0.7,1.6c0.4,0.4,1,0.6,1.6,0.6c1.1,0,1.9-0.6,2.2-1.6l0.6-2h6.1L322.2,17.4z M320.1,11.1h-3.3l1.7-5.2L320.1,11.1z"
		/>
	<path class="st0" d="M330.6,19c1.1,0,2.2-0.5,3.2-1.4c1.9-1.7,2.9-4.4,2.9-8v-5h3.9v12c0,0.7,0.2,1.3,0.7,1.8
		c0.4,0.4,1,0.6,1.7,0.6c0.7,0,1.2-0.2,1.7-0.6c0.4-0.4,0.7-1,0.7-1.8V2.8c0-0.7-0.2-1.3-0.7-1.8c-0.4-0.4-1-0.6-1.6-0.6h-8.6
		c-0.7,0-1.2,0.2-1.6,0.6c-0.5,0.5-0.7,1-0.7,1.8v7.6c0,1.2-0.2,2.2-0.7,3c-0.4,0.6-0.8,1.1-1.3,1.3c-1.1,0.5-1.7,1.2-1.7,2.2
		c0,0.6,0.2,1.1,0.5,1.5C329.3,18.8,329.9,19,330.6,19z"/>
	<path class="st0" d="M215.5,42.1c-0.2,0-0.6,0.1-1.7,0.6c-0.7,0.3-1.5,0.5-2.2,0.5c-1.3,0-2.3-0.5-3.1-1.4
		c-0.7-0.9-1.1-2.1-1.1-3.5c0-1.5,0.4-2.7,1.1-3.6c0.7-1,1.7-1.5,3.1-1.5c0.7,0,1.4,0.1,2.1,0.4l0.8,0.3c1,0.3,1.8,0.1,2.3-0.5
		c0.4-0.4,0.5-0.9,0.5-1.5c0-1.2-0.8-2.1-2.3-2.6c-0.5-0.2-1.2-0.4-1.8-0.5c-0.6-0.1-1.1-0.1-1.6-0.1c-2.6,0-4.8,0.9-6.4,2.8
		c-1.6,1.8-2.5,4.1-2.5,6.8c0,2.7,0.8,5,2.5,6.8c1.7,1.8,3.8,2.8,6.4,2.8c0.5,0,1.1,0,1.7-0.1c0.7-0.1,1.4-0.3,1.9-0.5
		c1.6-0.6,2.4-1.5,2.4-2.8c0-0.5-0.2-0.9-0.5-1.4C216.6,42.4,216.1,42.1,215.5,42.1z"/>
	<path class="st0" d="M235.3,44.3l-4.8-13.4c-0.5-1.5-1.6-2.4-3.1-2.4c-1,0-2.4,0.4-3.1,2.4l-4.9,13.3l-0.1,0.4
		c-0.1,0.2-0.1,0.4-0.1,0.6c0,0.6,0.2,1.2,0.7,1.6c0.4,0.4,1,0.6,1.6,0.6c1.1,0,1.9-0.6,2.2-1.6l0.6-2h6.1l0.6,2
		c0.3,1.1,1.1,1.6,2.3,1.6c0.6,0,1.1-0.2,1.5-0.6c0.4-0.4,0.7-0.9,0.7-1.5c0-0.1,0-0.3-0.1-0.5C235.5,44.7,235.4,44.5,235.3,44.3z
		 M229.1,39.5h-3.3l1.7-5.2L229.1,39.5z"/>
	<path class="st0" d="M255.6,29.4c-0.6-0.5-1.2-0.7-2-0.7c-0.7,0-1.3,0.2-1.9,0.6c-0.5,0.4-0.8,0.9-1,1.5l-2.5,8.3l-2.5-8.3
		c-0.2-0.6-0.5-1.1-1-1.5c-0.6-0.4-1.2-0.6-1.9-0.6c-0.7,0-1.4,0.2-2,0.7c-0.5,0.4-0.8,1-0.9,1.6l-2.3,13.7l0,0.2l0,0.3
		c0,0.7,0.2,1.2,0.7,1.6c0.4,0.4,1,0.6,1.6,0.6c1.3,0,2.2-0.8,2.4-2.1l1.1-7.9l2.4,8.3c0.1,0.5,0.4,0.9,0.7,1.2
		c0.4,0.4,1,0.6,1.7,0.6c0.7,0,1.3-0.2,1.8-0.6c0.3-0.3,0.5-0.7,0.7-1.2l2.4-8.3l1.1,7.9c0.2,1.4,1,2.1,2.4,2.1
		c0.6,0,1.2-0.2,1.6-0.6c0.4-0.4,0.7-1,0.7-1.6V45l-2.3-14C256.4,30.4,256.1,29.9,255.6,29.4z"/>
	<path class="st0" d="M269.8,28.6c-2.6,0-4.8,0.9-6.4,2.8c-1.6,1.8-2.5,4.1-2.5,6.8c0,2.7,0.8,5,2.5,6.8h0c1.7,1.8,3.8,2.8,6.4,2.8
		c2.6,0,4.8-0.9,6.5-2.8c1.6-1.8,2.5-4.1,2.5-6.8c0-2.6-0.8-4.9-2.5-6.7C274.5,29.5,272.4,28.6,269.8,28.6z M266.7,34.4
		c0.8-1,1.8-1.5,3.1-1.5s2.3,0.5,3.1,1.5c0.7,0.9,1.1,2.2,1.1,3.6c0,1.5-0.3,2.7-1,3.7c-0.7,1-1.8,1.5-3.1,1.5
		c-1.3,0-2.4-0.5-3.1-1.5c-0.7-0.9-1-2.2-1-3.7C265.7,36.6,266,35.4,266.7,34.4z"/>
	<path class="st0" d="M289.5,28.6c-2.6,0-4.8,0.9-6.4,2.8c-1.6,1.8-2.5,4.1-2.5,6.8c0,2.7,0.8,5,2.5,6.8h0c1.7,1.8,3.8,2.8,6.4,2.8
		c2.6,0,4.8-0.9,6.5-2.8c1.6-1.8,2.5-4.1,2.5-6.8c0-2.6-0.8-4.9-2.5-6.7C294.2,29.5,292.1,28.6,289.5,28.6z M286.4,34.4
		c0.8-1,1.8-1.5,3.1-1.5s2.3,0.5,3.1,1.5c0.7,0.9,1.1,2.2,1.1,3.6c0,1.5-0.3,2.7-1,3.7c-0.7,1-1.8,1.5-3.1,1.5
		c-1.3,0-2.4-0.5-3.1-1.5c-0.7-0.9-1-2.2-1-3.7C285.4,36.6,285.7,35.4,286.4,34.4z"/>
	<path class="st0" d="M312.7,37.1c-1.1-0.9-2.7-1.3-4.7-1.3h-2.4v-2.6h5.1c0.7,0,1.2-0.2,1.7-0.7c0.4-0.4,0.6-0.9,0.6-1.5
		c0-0.6-0.2-1.1-0.6-1.5c-0.4-0.4-1-0.7-1.7-0.7h-7.3c-0.7,0-1.3,0.2-1.7,0.6c-0.5,0.4-0.7,1-0.7,1.7V45c0,0.7,0.2,1.3,0.7,1.7
		c0.5,0.4,1,0.6,1.7,0.6h5.1c1.9,0,3.3-0.5,4.5-1.5c1.1-1,1.7-2.5,1.7-4.3C314.7,39.6,314,38.1,312.7,37.1z M309.9,41.5
		c0,0.5-0.2,0.9-0.5,1.2c-0.3,0.3-0.8,0.4-1.3,0.4h-2.4V40h2.1C309.6,40,309.9,40.8,309.9,41.5z"/>
	<path class="st0" d="M329.2,42.1c-0.2,0-0.6,0.1-1.7,0.6c-0.7,0.3-1.5,0.5-2.2,0.5c-1.3,0-2.3-0.5-3.1-1.4
		c-0.7-0.9-1.1-2.1-1.1-3.5c0-1.5,0.4-2.7,1.1-3.6c0.7-1,1.7-1.5,3.1-1.5c0.7,0,1.4,0.1,2.1,0.4l0.8,0.3c1,0.3,1.8,0.1,2.3-0.5
		c0.4-0.4,0.5-0.9,0.5-1.5c0-1.2-0.8-2.1-2.3-2.6c-0.5-0.2-1.2-0.4-1.8-0.5c-0.6-0.1-1.1-0.1-1.6-0.1c-2.6,0-4.8,0.9-6.4,2.8
		c-1.6,1.8-2.5,4.1-2.5,6.8c0,2.7,0.8,5,2.5,6.8c1.7,1.8,3.8,2.8,6.4,2.8c0.5,0,1.1,0,1.7-0.1c0.7-0.1,1.4-0.3,1.9-0.5
		c1.6-0.6,2.4-1.5,2.4-2.8c0-0.5-0.2-0.9-0.5-1.4C330.4,42.4,329.8,42.1,329.2,42.1z"/>
	<path class="st0" d="M347.2,28.9h-8.6c-0.7,0-1.2,0.2-1.6,0.6c-0.5,0.5-0.7,1-0.7,1.8v7.6c0,1.2-0.2,2.2-0.7,3
		c-0.4,0.6-0.8,1.1-1.3,1.3c-1.1,0.5-1.7,1.2-1.7,2.2c0,0.6,0.2,1.1,0.5,1.5c0.4,0.5,0.9,0.7,1.7,0.7c1.1,0,2.2-0.5,3.2-1.4
		c1.9-1.7,2.9-4.4,2.9-8v-5h3.9v12c0,0.7,0.2,1.3,0.7,1.8c0.4,0.4,1,0.6,1.7,0.6c0.7,0,1.2-0.2,1.7-0.6c0.4-0.4,0.7-1,0.7-1.8V31.3
		c0-0.7-0.2-1.3-0.7-1.8C348.5,29.1,347.9,28.9,347.2,28.9z"/>
	<path class="st0" d="M364.4,28.7c-0.9,0-1.7,0.5-2.1,1.4l-2.6,5.7l-2.8-5.7c-0.5-1.1-1.4-1.4-2-1.4c-0.6,0-1.2,0.2-1.7,0.6
		c-0.5,0.5-0.8,1-0.8,1.6c0,0.4,0.1,0.7,0.2,1.1l4.5,9.2l-1.3,2.9c-0.2,0.4-0.2,0.7-0.2,1c0,0.7,0.3,1.2,0.8,1.6
		c0.5,0.4,1,0.6,1.7,0.6c0.6,0,1.5-0.2,2-1.4l6.5-14.1l0,0c0.2-0.4,0.2-0.7,0.2-1c0-0.7-0.3-1.2-0.8-1.6
		C365.5,28.9,365,28.7,364.4,28.7z"/>
	<path class="st0" d="M386.3,37.5l4.3-4.2c0.9-0.9,1.3-1.7,1.3-2.3c0-0.6-0.2-1.2-0.7-1.6c-0.4-0.4-1-0.6-1.6-0.6
		c-0.4,0-0.8,0.1-1.1,0.3c-0.2,0.1-0.5,0.3-0.7,0.6l-5.2,5.6V31c0-0.7-0.2-1.3-0.7-1.7c-0.4-0.4-1-0.6-1.7-0.6
		c-0.7,0-1.2,0.2-1.7,0.7c-0.4,0.4-0.7,1-0.7,1.6v4.1l-5.2-5.5c-0.2-0.2-0.4-0.4-0.7-0.6c-0.3-0.2-0.7-0.3-1.1-0.3
		c-0.6,0-1.1,0.2-1.6,0.6c-0.5,0.4-0.7,1-0.7,1.6c0,0.6,0.4,1.4,1.3,2.3l4.3,4.2l-5.3,5.6c-0.8,0.8-1.2,1.5-1.2,2.2
		c0,0.7,0.3,1.3,0.8,1.7c0.4,0.3,1,0.5,1.6,0.5c0.7,0,1.4-0.4,2.2-1.3l5.5-6v5c0,0.7,0.2,1.2,0.7,1.6c0.4,0.4,1,0.6,1.7,0.6
		c0.7,0,1.2-0.2,1.7-0.7c0.4-0.4,0.7-1,0.7-1.6v-5l5.5,6c0.8,0.9,1.5,1.3,2.2,1.3c0.6,0,1.2-0.2,1.6-0.5c0.5-0.4,0.8-1,0.8-1.7
		c0-0.7-0.4-1.4-1.2-2.2L386.3,37.5z"/>
	<path class="st0" d="M408.7,28.7c-0.8,0-1.4,0.3-1.9,1l-7.1,9.3v-7.9c0-0.7-0.2-1.3-0.7-1.8c-0.4-0.4-1-0.6-1.7-0.6
		c-0.7,0-1.2,0.2-1.7,0.6c-0.4,0.4-0.7,1-0.7,1.8v14c0,0.7,0.2,1.3,0.7,1.8c0.4,0.4,1,0.6,1.7,0.6c0.8,0,1.4-0.3,1.9-1l7.1-9.2v7.8
		c0,0.7,0.2,1.3,0.7,1.8c0.4,0.4,1,0.6,1.7,0.6c0.7,0,1.2-0.2,1.7-0.6c0.4-0.4,0.7-1,0.7-1.8v-14c0-0.7-0.2-1.3-0.7-1.8
		C409.9,28.9,409.3,28.7,408.7,28.7z"/>
	<path class="st0" d="M425.3,37.1c1.1-0.8,1.6-2,1.6-3.5c0-1.4-0.5-2.6-1.5-3.5c-1-0.9-2.2-1.3-3.6-1.3h-4.7c-0.7,0-1.3,0.2-1.7,0.6
		c-0.5,0.4-0.7,1-0.7,1.7V45c0,0.7,0.2,1.3,0.7,1.7c0.5,0.4,1,0.6,1.7,0.6h5.1c1.9,0,3.3-0.5,4.4-1.5c1.2-1,1.7-2.5,1.7-4.3
		c0-1.2-0.4-2.2-1.2-3.1C426.6,37.8,426,37.4,425.3,37.1z M423.6,41.5c0,0.5-0.2,0.9-0.5,1.2c-0.3,0.3-0.8,0.4-1.3,0.4h-2.4V40h2.1
		C423.3,40,423.6,40.8,423.6,41.5z M419.3,35.8v-2.7h1.4c0.5,0,0.8,0.1,1.1,0.3c0.3,0.2,0.4,0.5,0.4,0.9c0,0.5-0.1,0.8-0.4,1.1
		c-0.3,0.3-0.6,0.4-1.1,0.4H419.3z"/>
	<path class="st0" d="M446.3,44.3l-4.8-13.4c-0.5-1.5-1.6-2.4-3.1-2.4c-1,0-2.4,0.4-3.1,2.4l-4.9,13.3l-0.1,0.4
		c-0.1,0.2-0.1,0.4-0.1,0.6c0,0.6,0.2,1.2,0.7,1.6c0.4,0.4,1,0.6,1.6,0.6c1.1,0,1.9-0.6,2.2-1.6l0.6-2h6.1l0.6,2
		c0.3,1.1,1.1,1.6,2.3,1.6c0.6,0,1.1-0.2,1.5-0.6c0.4-0.4,0.7-0.9,0.7-1.5c0-0.1,0-0.3-0.1-0.5C446.4,44.7,446.4,44.5,446.3,44.3z
		 M440.1,39.5h-3.3l1.7-5.2L440.1,39.5z"/>
	<path class="st0" d="M462.4,28.7c-0.7,0-1.2,0.2-1.7,0.6c-0.4,0.4-0.7,1-0.7,1.8v4.7h-6.8v-4.7c0-0.7-0.2-1.3-0.7-1.8
		c-0.4-0.4-1-0.6-1.7-0.6s-1.2,0.2-1.7,0.6c-0.4,0.4-0.7,1-0.7,1.8v14c0,0.7,0.2,1.3,0.7,1.8c0.4,0.4,1,0.6,1.7,0.6
		c0.7,0,1.2-0.2,1.7-0.6c0.4-0.4,0.7-1,0.7-1.8v-4.9h6.8v4.9c0,0.7,0.2,1.3,0.7,1.8c0.4,0.4,1,0.6,1.7,0.6s1.2-0.2,1.7-0.6
		c0.4-0.4,0.7-1,0.7-1.8v-14c0-0.7-0.2-1.3-0.7-1.8C463.6,28.9,463.1,28.7,462.4,28.7z"/>
	<path class="st0" d="M481.7,28.7c-0.8,0-1.4,0.3-1.9,1l-7.1,9.3v-7.9c0-0.7-0.2-1.3-0.7-1.8c-0.4-0.4-1-0.6-1.7-0.6
		c-0.7,0-1.2,0.2-1.7,0.6c-0.4,0.4-0.7,1-0.7,1.8v14c0,0.7,0.2,1.3,0.7,1.8c0.4,0.4,1,0.6,1.7,0.6c0.8,0,1.4-0.3,1.9-1l7.1-9.2v7.8
		c0,0.7,0.2,1.3,0.7,1.8c0.4,0.4,1,0.6,1.7,0.6c0.7,0,1.2-0.2,1.7-0.6c0.4-0.4,0.7-1,0.7-1.8v-14c0-0.7-0.2-1.3-0.7-1.8
		C482.9,28.9,482.3,28.7,481.7,28.7z"/>
	<path class="st0" d="M497.6,28.9h-4.3c-4.3,0-6.6,2.1-6.6,6c0,1.4,0.5,2.6,1.5,3.5c0.7,0.6,1.6,1.1,2.6,1.4l-3.6,3.8
		c-0.4,0.4-0.6,0.9-0.6,1.4c0,0.6,0.2,1.2,0.6,1.6c0.5,0.5,1,0.7,1.7,0.7c0.3,0,0.6-0.1,0.9-0.2c0.3-0.1,0.6-0.4,0.9-0.6l4.7-5.6
		v4.1c0,0.7,0.2,1.3,0.7,1.8c0.4,0.4,1,0.6,1.7,0.6c0.7,0,1.2-0.2,1.7-0.6c0.4-0.4,0.7-1,0.7-1.8V31.3
		C500,29.7,499.2,28.9,497.6,28.9z M492,33.7c0.3-0.3,0.8-0.4,1.3-0.4h2v3.4h-2c-0.6,0-1-0.1-1.3-0.5c-0.3-0.3-0.5-0.7-0.5-1.2
		C491.5,34.4,491.7,33.9,492,33.7z"/>
</g>
</svg>
