<?xml version="1.0" encoding="UTF-8"?>
<svg width="158px" height="17px" viewBox="0 0 158 17" version="1.1" xmlns="http://www.w3.org/2000/svg" xmlns:xlink="http://www.w3.org/1999/xlink">
    <!-- Generator: Sketch 52 (66869) - http://www.bohemiancoding.com/sketch -->
    <title>club</title>
    <desc>Created with Sketch.</desc>
    <g id="Page-1" stroke="none" stroke-width="1" fill="none" fill-rule="evenodd">
        <g id="Artboard" transform="translate(-240.000000, -172.000000)">
            <g id="club" transform="translate(240.000000, 172.000000)">
                <path d="M39.9563788,0.0185389949 L43.9520167,0.0185389949 L43.9520167,14.8659661 C43.9520167,15.7286607 43.452562,16.5005453 42.7260824,16.8183801 C42.4990575,16.90919 42.2266276,17 41.9541978,17 C41.4093381,17 40.9098833,16.7729751 40.5466435,16.3643303 L27.1521756,6.2390207 L27.1521756,17 L23.1565377,17 L23.1565377,2.10716789 C23.1565377,1.24447335 23.6559925,0.472588754 24.3824721,0.154753923 C25.1543567,-0.163080909 26.0170512,0.0185389949 26.5619109,0.608803682 L39.9563788,10.7341133 L39.9563788,0.0185389949 Z M64.8837106,7.96440979 C64.4296609,7.46495505 63.8848012,7.10171524 63.2945365,6.82928539 C62.6588668,6.55685553 62.0231971,6.4206406 61.3421225,6.4206406 L50.6265482,6.4206406 C50.0362835,6.4206406 49.5822337,5.92118587 49.5822337,5.33092118 C49.5822337,4.74065649 50.0362835,4.24120176 50.6265482,4.24120176 L63.3399414,4.24120176 C64.4296609,4.24120176 65.3377604,3.28769726 65.3377604,2.15257286 C65.3377604,0.97204349 64.4296609,0.0639439708 63.3399414,0.0639439708 L50.6265482,0.0639439708 C49.9454735,0.0639439708 49.2643989,0.200158899 48.6741342,0.472588754 C48.0838695,0.74501861 47.5390098,1.10825842 47.0849601,1.60771315 C46.6309103,2.10716789 46.2676705,2.6520276 45.9952406,3.28769726 C45.7228108,3.92336693 45.5865959,4.64984654 45.5865959,5.33092118 C45.5865959,6.0574008 45.7228108,6.73847544 45.9952406,7.3741451 C46.2676705,8.00981476 46.6309103,8.55467447 47.0849601,9.05412921 C47.5390098,9.55358394 48.0838695,9.91682375 48.6741342,10.1892536 C49.3098039,10.4616835 49.9454735,10.5978984 50.6265482,10.5978984 L61.3421225,10.5978984 C61.9323872,10.5978984 62.386437,11.0973531 62.386437,11.6876178 C62.386437,12.2778825 61.9323872,12.7773372 61.3421225,12.7773372 L47.5844148,12.7773372 C46.4946954,12.7773372 45.5865959,13.7308417 45.5865959,14.8659661 C45.5865959,16.0464955 46.4946954,16.954595 47.5844148,16.954595 L61.3421225,16.954595 C62.0231971,16.954595 62.7042718,16.8183801 63.2945365,16.5459502 C63.8848012,16.2735204 64.4296609,15.9102806 64.8837106,15.4108258 C65.3377604,14.9113711 65.7010002,14.3665114 65.9734301,13.7308417 C66.2458599,13.0951721 66.3820748,12.3686925 66.3820748,11.6876178 C66.3820748,11.0065432 66.2458599,10.2800636 65.9734301,9.6443939 C65.7010002,9.00872423 65.3377604,8.41845955 64.8837106,7.96440979 Z M20.840884,8.5092695 C20.840884,13.185982 17.2084859,17 12.7587982,17 L3.31456324,17 L1.49836421,17 L7.10542736e-15,17 L7.10542736e-15,8.5092695 L7.10542736e-15,0.0185389949 L12.7133933,0.0185389949 C17.2084859,0.0185389949 20.840884,3.83255697 20.840884,8.5092695 Z M16.981461,8.87250931 C16.981461,7.73738491 16.7090311,6.10280577 15.9371466,5.28551621 C15.165262,4.46822664 13.9393276,3.74174702 12.8042032,3.74174702 L3.85942296,3.74174702 L3.85942296,8.87250931 L3.85942296,13.0951721 L12.8042032,13.0951721 C13.9393276,13.0951721 14.9836421,12.6411223 15.7555267,11.8692377 C16.5274112,11.0973531 16.981461,10.0076337 16.981461,8.87250931 Z" id="SVGID_1_" fill="#F28A1E"></path>
                <rect id="Rectangle" fill="#5C2D91" fill-rule="nonzero" x="70" y="0" width="88" height="17" rx="2"></rect>
                <path d="M76.98,12.136 L76.98,6.112 L75.672,6.112 C75.396,6.112 75.192,6.028 75.048,5.848 C74.916,5.692 74.856,5.512 74.856,5.284 C74.856,5.056 74.928,4.864 75.072,4.708 C75.228,4.54 75.42,4.456 75.672,4.456 L80.088,4.456 C80.34,4.456 80.532,4.54 80.688,4.708 C80.832,4.864 80.904,5.056 80.904,5.284 C80.904,5.512 80.844,5.692 80.712,5.848 C80.568,6.028 80.364,6.112 80.088,6.112 L78.78,6.112 L78.78,12.136 C78.78,12.436 78.696,12.664 78.528,12.832 C78.36,12.988 78.144,13.072 77.88,13.072 C77.616,13.072 77.4,12.988 77.232,12.832 C77.064,12.664 76.98,12.436 76.98,12.136 Z M81.5742857,12.1 L81.5742857,5.5 C81.5742857,4.804 81.8862857,4.456 82.5102857,4.456 L85.4862857,4.456 C85.7622857,4.456 85.9782857,4.54 86.1342857,4.708 C86.2662857,4.864 86.3382857,5.056 86.3382857,5.284 C86.3382857,5.512 86.2662857,5.692 86.1222857,5.848 C85.9662857,6.028 85.7502857,6.112 85.4862857,6.112 L83.3742857,6.112 L83.3742857,7.864 L85.3422857,7.864 C85.6182857,7.864 85.8462857,7.948 86.0022857,8.116 C86.1462857,8.272 86.2182857,8.464 86.2182857,8.692 C86.2182857,8.92 86.1462857,9.1 86.0022857,9.256 C85.8342857,9.436 85.6182857,9.52 85.3422857,9.52 L83.3742857,9.52 L83.3742857,11.344 L85.5942857,11.344 C85.8702857,11.344 86.0862857,11.428 86.2422857,11.596 C86.3742857,11.752 86.4462857,11.944 86.4462857,12.172 C86.4462857,12.4 86.3742857,12.58 86.2302857,12.736 C86.0742857,12.916 85.8582857,13 85.5942857,13 L82.4982857,13 C82.2342857,13 82.0182857,12.916 81.8382857,12.748 C81.6582857,12.58 81.5742857,12.364 81.5742857,12.1 Z M87.1165715,11.62 L89.4925715,8.428 L87.5485715,5.788 C87.4165715,5.62 87.3565715,5.44 87.3565715,5.26 C87.3565715,4.996 87.4405715,4.78 87.6205715,4.624 C87.7885715,4.468 88.0045715,4.384 88.2685715,4.384 C88.5805715,4.384 88.8445715,4.528 89.0485715,4.828 L90.5365715,6.94 L92.0245715,4.828 C92.2285715,4.528 92.4925715,4.384 92.8045715,4.384 C93.0685715,4.384 93.2845715,4.468 93.4525715,4.624 C93.6325715,4.78 93.7165715,4.996 93.7165715,5.26 C93.7165715,5.44 93.6565715,5.62 93.5245715,5.788 L91.5805715,8.428 L93.9565715,11.62 C94.0165715,11.704 94.0645715,11.788 94.1005715,11.884 C94.1365715,12.004 94.1605715,12.124 94.1605715,12.232 C94.1605715,12.484 94.0765715,12.688 93.9085715,12.844 C93.7285715,13 93.5125715,13.072 93.2485715,13.072 C92.9485715,13.072 92.6965715,12.94 92.5045715,12.676 L90.5365715,9.94 L88.5685715,12.676 C88.3765715,12.94 88.1245715,13.072 87.8245715,13.072 C87.5605715,13.072 87.3445715,13 87.1765715,12.844 C86.9965715,12.688 86.9125715,12.484 86.9125715,12.232 C86.9125715,12.124 86.9365715,12.004 86.9845715,11.884 C87.0205715,11.788 87.0565715,11.704 87.1165715,11.62 Z M95.0228572,12.136 L95.0228572,5.32 C95.0228572,5.02 95.1068572,4.792 95.2748572,4.624 C95.4428572,4.468 95.6588572,4.384 95.9228572,4.384 C96.1868572,4.384 96.4028572,4.468 96.5708572,4.624 C96.7388572,4.792 96.8228572,5.02 96.8228572,5.32 L96.8228572,7.864 L100.590857,7.864 L100.590857,5.32 C100.590857,5.02 100.674857,4.792 100.842857,4.624 C101.010857,4.468 101.226857,4.384 101.490857,4.384 C101.754857,4.384 101.970857,4.468 102.138857,4.624 C102.306857,4.792 102.390857,5.02 102.390857,5.32 L102.390857,12.136 C102.390857,12.436 102.306857,12.664 102.138857,12.832 C101.970857,12.988 101.754857,13.072 101.490857,13.072 C101.226857,13.072 101.010857,12.988 100.842857,12.832 C100.674857,12.664 100.590857,12.436 100.590857,12.136 L100.590857,9.52 L96.8228572,9.52 L96.8228572,12.136 C96.8228572,12.436 96.7388572,12.664 96.5708572,12.832 C96.4028572,12.988 96.1868572,13.072 95.9228572,13.072 C95.6588572,13.072 95.4428572,12.988 95.2748572,12.832 C95.1068572,12.664 95.0228572,12.436 95.0228572,12.136 Z M109.241143,10.66 C109.613143,10.156 109.793143,9.508 109.793143,8.728 C109.793143,7.948 109.601143,7.312 109.229143,6.808 C108.809143,6.244 108.245143,5.968 107.537143,5.968 C106.829143,5.968 106.265143,6.244 105.845143,6.808 C105.473143,7.312 105.281143,7.948 105.281143,8.728 C105.281143,9.508 105.461143,10.156 105.833143,10.66 C106.241143,11.212 106.805143,11.488 107.537143,11.488 C108.269143,11.488 108.833143,11.212 109.241143,10.66 Z M104.561143,11.872 C103.793143,11.032 103.409143,9.988 103.409143,8.728 C103.409143,7.468 103.793143,6.412 104.561143,5.584 C105.341143,4.732 106.325143,4.312 107.537143,4.312 C108.725143,4.312 109.721143,4.744 110.501143,5.608 C111.281143,6.46 111.665143,7.492 111.665143,8.728 C111.665143,9.988 111.281143,11.032 110.525143,11.872 C109.745143,12.724 108.749143,13.144 107.537143,13.144 C106.325143,13.144 105.341143,12.724 104.561143,11.872 Z M113.583429,4.456 L119.151429,4.456 C119.415429,4.456 119.631429,4.54 119.787429,4.696 C119.967429,4.876 120.051429,5.104 120.051429,5.392 L120.051429,12.136 C120.051429,12.436 119.967429,12.664 119.799429,12.832 C119.631429,12.988 119.415429,13.072 119.151429,13.072 C118.887429,13.072 118.671429,12.988 118.503429,12.832 C118.335429,12.664 118.251429,12.436 118.251429,12.136 L118.251429,6.04 L114.483429,6.04 L114.483429,12.136 C114.483429,12.436 114.399429,12.664 114.231429,12.832 C114.063429,12.988 113.847429,13.072 113.583429,13.072 C113.319429,13.072 113.103429,12.988 112.935429,12.832 C112.767429,12.664 112.683429,12.436 112.683429,12.136 L112.683429,5.392 C112.683429,5.104 112.767429,4.876 112.947429,4.696 C113.103429,4.54 113.319429,4.456 113.583429,4.456 Z M126.901714,10.66 C127.273714,10.156 127.453714,9.508 127.453714,8.728 C127.453714,7.948 127.261714,7.312 126.889714,6.808 C126.469714,6.244 125.905714,5.968 125.197714,5.968 C124.489714,5.968 123.925714,6.244 123.505714,6.808 C123.133714,7.312 122.941714,7.948 122.941714,8.728 C122.941714,9.508 123.121714,10.156 123.493714,10.66 C123.901714,11.212 124.465714,11.488 125.197714,11.488 C125.929714,11.488 126.493714,11.212 126.901714,10.66 Z M122.221714,11.872 C121.453714,11.032 121.069714,9.988 121.069714,8.728 C121.069714,7.468 121.453714,6.412 122.221714,5.584 C123.001714,4.732 123.985714,4.312 125.197714,4.312 C126.385714,4.312 127.381714,4.744 128.161714,5.608 C128.941714,6.46 129.325714,7.492 129.325714,8.728 C129.325714,9.988 128.941714,11.032 128.185714,11.872 C127.405714,12.724 126.409714,13.144 125.197714,13.144 C123.985714,13.144 123.001714,12.724 122.221714,11.872 Z M137.712,5.32 L137.712,12.136 C137.712,12.436 137.628,12.664 137.46,12.832 C137.292,12.988 137.076,13.072 136.812,13.072 C136.548,13.072 136.332,12.988 136.164,12.832 C135.996,12.664 135.912,12.436 135.912,12.136 L135.912,7.66 L135.888,7.66 L132,12.676 C131.796,12.94 131.544,13.072 131.244,13.072 C130.98,13.072 130.764,12.988 130.596,12.832 C130.428,12.664 130.344,12.436 130.344,12.136 L130.344,5.32 C130.344,5.02 130.428,4.792 130.596,4.624 C130.764,4.468 130.98,4.384 131.244,4.384 C131.508,4.384 131.724,4.468 131.892,4.624 C132.06,4.792 132.144,5.02 132.144,5.32 L132.144,9.856 L132.168,9.856 L136.056,4.78 C136.26,4.516 136.512,4.384 136.812,4.384 C137.076,4.384 137.292,4.468 137.46,4.624 C137.628,4.792 137.712,5.02 137.712,5.32 Z M139.066286,12.136 L139.066286,5.32 C139.066286,5.02 139.150286,4.792 139.318286,4.624 C139.486286,4.468 139.702286,4.384 139.966286,4.384 C140.230286,4.384 140.446286,4.468 140.614286,4.624 C140.782286,4.792 140.866286,5.02 140.866286,5.32 L140.866286,7.864 L144.634286,7.864 L144.634286,5.32 C144.634286,5.02 144.718286,4.792 144.886286,4.624 C145.054286,4.468 145.270286,4.384 145.534286,4.384 C145.798286,4.384 146.014286,4.468 146.182286,4.624 C146.350286,4.792 146.434286,5.02 146.434286,5.32 L146.434286,12.136 C146.434286,12.436 146.350286,12.664 146.182286,12.832 C146.014286,12.988 145.798286,13.072 145.534286,13.072 C145.270286,13.072 145.054286,12.988 144.886286,12.832 C144.718286,12.664 144.634286,12.436 144.634286,12.136 L144.634286,9.52 L140.866286,9.52 L140.866286,12.136 C140.866286,12.436 140.782286,12.664 140.614286,12.832 C140.446286,12.988 140.230286,13.072 139.966286,13.072 C139.702286,13.072 139.486286,12.988 139.318286,12.832 C139.150286,12.664 139.066286,12.436 139.066286,12.136 Z M149.228572,12.136 L149.228572,6.112 L147.920572,6.112 C147.644572,6.112 147.440572,6.028 147.296572,5.848 C147.164572,5.692 147.104572,5.512 147.104572,5.284 C147.104572,5.056 147.176572,4.864 147.320572,4.708 C147.476572,4.54 147.668572,4.456 147.920572,4.456 L152.336572,4.456 C152.588572,4.456 152.780572,4.54 152.936572,4.708 C153.080572,4.864 153.152572,5.056 153.152572,5.284 C153.152572,5.512 153.092572,5.692 152.960572,5.848 C152.816572,6.028 152.612572,6.112 152.336572,6.112 L151.028572,6.112 L151.028572,12.136 C151.028572,12.436 150.944572,12.664 150.776572,12.832 C150.608572,12.988 150.392572,13.072 150.128572,13.072 C149.864572,13.072 149.648572,12.988 149.480572,12.832 C149.312572,12.664 149.228572,12.436 149.228572,12.136 Z" id="ТЕХНОПОИНТ" fill="#FFFFFF"></path>
            </g>
        </g>
    </g>
</svg>