<svg width="12" height="14" viewBox="0 0 12 14" fill="none" xmlns="http://www.w3.org/2000/svg">
<path d="M0.190012 6.82773C0.190012 6.82773 0.743121 7.64031 1.90239 8.32811C1.90239 8.32811 1.0628 1.23236 6.53327 0C5.13171 5.14393 8.31608 6.5946 9.47685 3.87696C11.4153 6.46507 9.9435 8.72307 9.9435 8.72307C10.7384 8.83758 11.406 7.9692 11.406 7.9692C11.412 8.07617 11.4153 8.18388 11.4153 8.29235C11.4154 11.4446 8.85995 14 5.70768 14C2.55541 14 0 11.4446 0 8.29232C0 7.78597 0.0662812 7.29515 0.190012 6.82773Z" fill="#FF6536"/>
<path d="M3.20459 11.4968C3.20459 12.8793 4.3253 14 5.70775 14C7.09019 14 8.2109 12.8793 8.2109 11.4968C8.2109 10.7569 7.88986 10.0919 7.37943 9.63369C6.41163 10.9485 5.03246 8.95404 6.10729 7.49754C6.10729 7.49754 3.20459 7.8613 3.20459 11.4968Z" fill="#FBBF00"/>
</svg>
