<svg xmlns="http://www.w3.org/2000/svg" width="512" height="410" viewBox="0 0 512 410">
  <metadata><?xpacket begin="﻿" id="W5M0MpCehiHzreSzNTczkc9d"?>
<x:xmpmeta xmlns:x="adobe:ns:meta/" x:xmptk="Adobe XMP Core 5.6-c138 79.159824, 2016/09/14-01:09:01        ">
   <rdf:RDF xmlns:rdf="http://www.w3.org/1999/02/22-rdf-syntax-ns#">
      <rdf:Description rdf:about=""/>
   </rdf:RDF>
</x:xmpmeta>
                                                                                                    
                                                                                                    
                                                                                                    
                                                                                                    
                                                                                                    
                                                                                                    
                                                                                                    
                                                                                                    
                                                                                                    
                                                                                                    
                                                                                                    
                                                                                                    
                                                                                                    
                                                                                                    
                                                                                                    
                                                                                                    
                                                                                                    
                                                                                                    
                                                                                                    
                                                                                                    
                           
<?xpacket end="w"?></metadata>
<defs>
    <style>
      .cls-1 {
        fill-rule: evenodd;
      }
    </style>
  </defs>
  <path class="cls-1" d="M372.29,0H28.831A28.846,28.846,0,0,0,0,28.795V234.609a28.847,28.847,0,0,0,28.831,28.8H51.1v76.62a12.081,12.081,0,0,0,20.619,8.531l85.251-85.15h17.1a12.065,12.065,0,1,0,0-24.129s-22.69.016-22.927,0.04a12.039,12.039,0,0,0-7.722,3.494L75.258,310.9s-0.021-60.321-.06-60.633a12.069,12.069,0,0,0-12.024-10.99H28.831a4.676,4.676,0,0,1-4.674-4.668V28.795a4.676,4.676,0,0,1,4.674-4.668H372.29a4.676,4.676,0,0,1,4.674,4.668v78.962a12.078,12.078,0,0,0,24.156,0V28.795A28.846,28.846,0,0,0,372.29,0Zm110.879,147.56H242.754a28.847,28.847,0,0,0-28.831,28.8V316.761a28.847,28.847,0,0,0,28.831,28.8H393.268l60.98,60.908a12.08,12.08,0,0,0,20.619-8.531V345.558h8.3A28.847,28.847,0,0,0,512,316.76v-140.4A28.844,28.844,0,0,0,483.169,147.559Zm4.675,169.2a4.677,4.677,0,0,1-4.674,4.669H462.794a12.064,12.064,0,0,0-12.031,11.134c-0.031.264-.051,36.247-0.051,36.247l-43.854-43.8c-0.046-.046-0.094-0.089-0.14-0.135-0.172-.168-0.335-0.314-0.489-0.445a12.031,12.031,0,0,0-7.951-3H242.754a4.677,4.677,0,0,1-4.674-4.669v-140.4a4.676,4.676,0,0,1,4.674-4.668H483.17a4.676,4.676,0,0,1,4.674,4.668V316.761ZM362.964,234.5a12.064,12.064,0,1,0,12.078,12.064A12.076,12.076,0,0,0,362.964,234.5ZM310.472,79.758H90.65a12.064,12.064,0,1,0,0,24.127H310.472A12.064,12.064,0,1,0,310.472,79.758Zm-136.4,79.76H90.65a12.064,12.064,0,1,0,0,24.128h83.425A12.064,12.064,0,1,0,174.075,159.518ZM306.837,234.5a12.064,12.064,0,1,0,12.078,12.064A12.076,12.076,0,0,0,306.837,234.5Zm112.242,0a12.064,12.064,0,1,0,12.078,12.064A12.076,12.076,0,0,0,419.079,234.5Z"/>
</svg>
