
<svg width="512px" height="512px" viewBox="0 0 512 512" version="1.1" xmlns="http://www.w3.org/2000/svg" xmlns:xlink="http://www.w3.org/1999/xlink">
    <!-- Generator: Sketch 51.2 (57519) - http://www.bohemiancoding.com/sketch -->
    <desc>Created with Sketch.</desc>
    <defs>
        <polygon id="path-1" points="0.0002 0 511.999992 0 511.999992 511.9998 0.0002 511.9998"></polygon>
    </defs>
    <g id="homepage" stroke="none" stroke-width="1" fill="none" fill-rule="evenodd">
        <g id="d" transform="translate(-584.000000, -665.000000)">
            <g id="Group-3" transform="translate(584.000000, 665.000000)">
                <mask id="mask-2" fill="white">
                    <use xlink:href="#path-1"></use>
                </mask>
                <g id="Clip-2"></g>
                <path d="M392.3312,312.9998 L151.9402,312.9998 L134.0902,148.9998 L467.3972,148.9998 L438.1242,282.2348 C429.4582,300.6908 411.2282,312.9998 392.3312,312.9998 M201.0002,433.9998 C211.4772,433.9998 220.0002,442.5238 220.0002,452.9998 C220.0002,463.4778 211.4772,471.9998 201.0002,471.9998 C190.5222,471.9998 182.0002,463.4778 182.0002,452.9998 C182.0002,442.5228 190.5222,433.9998 201.0002,433.9998 M399.0002,433.9998 C409.4772,433.9998 418.0002,442.5228 418.0002,452.9998 C418.0002,463.4778 409.4772,471.9998 399.0002,471.9998 C388.5222,471.9998 380.0002,463.4778 380.0002,452.9998 C380.0002,442.5228 388.5222,433.9998 399.0002,433.9998 M507.5192,116.3838 C503.7212,111.7118 498.0202,108.9998 492.0002,108.9998 L129.7362,108.9998 L128.2522,95.3678 L128.1992,94.9308 C121.0992,40.8128 74.5832,-0.0002 20.0002,-0.0002 C8.9542,-0.0002 0.0002,8.9538 0.0002,19.9998 C0.0002,31.0458 8.9542,39.9998 20.0002,39.9998 C54.5062,39.9998 83.9232,65.7488 88.5122,99.9288 L112.2852,318.3288 C91.4952,327.7658 77.0002,348.7228 77.0002,372.9998 C77.0002,373.1668 77.0022,373.3338 77.0062,373.4998 C77.0022,373.6658 77.0002,373.8328 77.0002,373.9998 C77.0002,407.0838 103.9162,433.9998 137.0002,433.9998 L145.1382,433.9998 C143.1032,439.9638 142.0002,446.3548 142.0002,452.9998 C142.0002,485.5318 168.4672,511.9998 201.0002,511.9998 C233.5332,511.9998 260.0002,485.5318 260.0002,452.9998 C260.0002,446.3548 258.8952,439.9638 256.8612,433.9998 L343.1392,433.9998 C341.1042,439.9638 340.0012,446.3548 340.0012,452.9998 C340.0012,485.5318 366.4682,511.9998 399.0012,511.9998 C431.5342,511.9998 458.0012,485.5318 458.0012,452.9998 C458.0012,420.4678 431.5342,393.9998 399.0012,393.9998 L137.0002,393.9998 C125.9722,393.9998 117.0002,385.0278 117.0002,373.9998 C117.0002,373.8328 116.9982,373.6658 116.9942,373.4998 C116.9982,373.3338 117.0002,373.1668 117.0002,372.9998 C117.0002,361.9728 125.9722,352.9998 137.0002,352.9998 L392.3312,352.9998 C426.7542,352.9998 458.4282,332.3498 473.9252,300.1068 C475.1712,298.1378 476.0962,295.9188 476.6002,293.5028 L511.5782,133.0838 C512.8082,127.1898 511.3162,121.0568 507.5192,116.3838" id="Fill-1" fill="#000000" mask="url(#mask-2)"></path>
            </g>
        </g>
    </g>
</svg>