<?xml version="1.0" encoding="utf-8"?>
<!-- Generator: Adobe Illustrator 19.2.1, SVG Export Plug-In . SVG Version: 6.00 Build 0)  -->
<svg version="1.1" id="Слой_1" xmlns="http://www.w3.org/2000/svg" xmlns:xlink="http://www.w3.org/1999/xlink" x="0px" y="0px"
	 viewBox="0 0 189 189" style="enable-background:new 0 0 189 189;" xml:space="preserve">
<g>
	<path d="M36.1,152.9c1.3,1.3,3,2,4.7,2c1.7,0,3.4-0.7,4.7-2L152.9,45.5c2.6-2.6,2.6-6.8,0-9.4s-6.8-2.6-9.4,0L36.1,143.5
		C33.5,146.1,33.5,150.3,36.1,152.9z"/>
	<path d="M56.4,30.7c-14.2,0-25.7,11.5-25.7,25.7s11.5,25.7,25.7,25.7s25.7-11.5,25.7-25.7S70.6,30.7,56.4,30.7z M56.4,68.8
		c-6.8,0-12.4-5.5-12.4-12.4s5.5-12.4,12.4-12.4c6.8,0,12.4,5.5,12.4,12.4S63.2,68.8,56.4,68.8z"/>
	<path d="M132.6,106.9c-14.2,0-25.7,11.5-25.7,25.7c0,14.2,11.5,25.7,25.7,25.7c14.2,0,25.7-11.5,25.7-25.7
		C158.3,118.4,146.7,106.9,132.6,106.9z M132.6,144.9c-6.8,0-12.4-5.5-12.4-12.4c0-6.8,5.5-12.4,12.4-12.4c6.8,0,12.4,5.5,12.4,12.4
		C144.9,139.4,139.4,144.9,132.6,144.9z"/>
</g>
</svg>
