<?xml version="1.0" encoding="UTF-8" standalone="no"?>
<!-- Created with Inkscape (http://www.inkscape.org/) -->
<svg
   xmlns:svg="http://www.w3.org/2000/svg"
   xmlns="http://www.w3.org/2000/svg"
   version="1.0"
   width="956.69287"
   height="446.10236"
   id="svg2">
  <defs
     id="defs4" />
  <g
     transform="translate(827.43544,156.04966)"
     id="layer1">
    <g
       transform="translate(35.43305,35.421298)"
       id="g2414"
       style="fill:#000000">
      <path
         d="M -755.77392,173.4791 C -767.82256,173.4791 -781.38401,173.4791 -781.38401,173.4791 L -781.38401,94.615965 C -781.38401,94.615965 -768.23097,94.615965 -755.77392,94.615965 C -738.22426,94.615965 -730.09685,107.70073 -730.09685,131.11777 C -730.09685,163.27288 -739.8487,173.4791 -755.77392,173.4791 M -781.38401,-19.802156 C -781.38401,-19.802156 -768.44896,-19.802156 -756.40032,-19.802156 C -743.50334,-19.802156 -733.06469,-10.311633 -733.06469,15.834251 C -733.06469,42.257222 -745.12778,51.397119 -756.40032,51.397119 C -768.85737,51.397119 -781.38401,51.397119 -781.38401,51.397119 L -781.38401,-19.802156 z M -713.03964,70.02754 L -713.03964,69.810861 C -702.88595,62.684105 -686.65476,50.426662 -686.65476,11.033179 C -686.65476,-39.865281 -713.21167,-62.917258 -749.08708,-62.917258 C -761.23947,-62.917258 -827.43544,-62.917258 -827.43544,-62.917258 L -827.43544,216.57056 C -827.43544,216.57056 -783.77011,216.57056 -749.4968,216.57056 C -705.32457,216.57056 -683.8143,183.82583 -683.8143,135.039 C -683.8143,89.523361 -701.66993,76.954689 -713.03964,70.02754 z"
         id="path7"
         style="fill:#000000" />
      <path
         d="M -599.12054,-19.802156 C -599.12054,-19.802156 -586.19336,-19.802156 -574.13684,-19.802156 C -561.23987,-19.802156 -550.83798,-10.311633 -550.83798,15.834251 C -550.83798,42.257222 -562.8643,51.397119 -574.13684,51.397119 C -586.5952,51.397119 -599.12054,51.397119 -599.12054,51.397119 L -599.12054,-19.802156 M -505.25012,123.035 C -505.25012,88.204904 -516.06041,78.421537 -530.77748,70.02754 L -530.77748,69.810861 C -520.62248,62.684105 -504.53311,50.426662 -504.53311,11.033179 C -504.53311,-39.865281 -530.9482,-62.917258 -566.82361,-62.917258 C -578.98388,-62.917258 -645.17328,-62.917258 -645.17328,-62.917258 L -645.17328,216.57056 L -599.15206,216.57056 L -599.12185,94.615965 C -599.12185,94.615965 -586.59652,94.615965 -574.14603,94.615965 C -561.04683,94.615965 -551.68369,105.4998 -551.68369,130.20116 L -551.68369,216.57187 L -505.27507,216.57187 L -505.25012,123.035 z"
         id="path9"
         style="fill:#000000" />
      <path
         d="M -415.47164,-88.181983 C -415.47164,-109.19849 -396.17674,-111.91289 -385.51615,-111.91289 C -374.85425,-111.91289 -355.6342,-109.25102 -355.6342,-88.181983 L -355.65127,51.397119 L -415.50315,51.397119 L -415.47164,-88.181983 M -385.51615,-156.04966 C -404.98177,-156.04966 -461.4574,-151.63598 -461.4574,-95.123577 L -461.4574,216.60864 L -415.41386,216.60864 L -415.41386,94.638289 L -355.62895,94.638289 L -355.64471,216.55743 L -309.56308,216.55743 L -309.56308,-95.123577 C -309.56176,-151.74104 -366.11094,-156.04966 -385.51615,-156.04966 z"
         id="path11"
         style="fill:#000000" />
      <path
         d="M -171.64518,-62.976352 L -171.64518,157.04041 C -171.64518,168.23679 -180.90326,175.7168 -194.65776,175.7168 C -208.47397,175.7168 -217.56134,168.22366 -217.56134,157.04041 L -217.5968,-62.976352 L -263.62721,-62.917258 L -263.63772,164.39041 C -263.63772,207.66967 -219.14375,219.2101 -194.60786,219.2101 C -170.2952,219.2101 -125.6082,207.61057 -125.6082,164.3392 L -125.6082,-62.976352 L -171.64518,-62.976352"
         id="path13"
         style="fill:#000000" />
      <path
         d="M 12.363544,216.5351 L 12.346472,-3.3857971 C 12.346472,-14.582171 3.0949526,-22.060866 -10.652976,-22.060866 C -24.469192,-22.060866 -33.571006,-14.56116 -33.571006,-3.3857971 L -33.585452,216.5351 L -79.630311,216.57056 L -79.630311,-10.735798 C -79.630311,-54.01505 -35.128466,-65.555484 -10.592569,-65.555484 C 13.720083,-65.555484 58.391332,-53.955956 58.391332,-10.684583 L 58.391332,216.53379 L 12.363544,216.53379"
         id="path15"
         style="fill:#000000" />
    </g>
  </g>
</svg>
