
<svg width="10px" height="15px" viewBox="0 0 10 15" version="1.1" xmlns="http://www.w3.org/2000/svg" xmlns:xlink="http://www.w3.org/1999/xlink">
    <!-- Generator: Sketch 50.2 (55047) - http://www.bohemiancoding.com/sketch -->
    <desc>Created with Sketch.</desc>
    <defs></defs>
    <g id="main" stroke="none" stroke-width="1" fill="none" fill-rule="evenodd" opacity="0.539453125">
        <g id="main-newpaper-copy" transform="translate(-1146.000000, -76.000000)" fill="#000000" fill-rule="nonzero">
            <g id="question" transform="translate(1146.000000, 76.000000)">
                <path d="M4.80488129,0 C1.51217874,0 0,1.90230467 0,3.18630916 C0,4.11372532 0.804825313,4.54172681 1.46340781,4.54172681 C2.78043285,4.54172681 2.24388264,2.7107671 4.73168991,2.7107671 C5.95124306,2.7107671 6.92687159,3.23398614 6.92687159,4.32776017 C6.92687159,5.61183287 5.56100565,6.34895035 4.75611036,7.01472288 C4.04882691,7.60921867 3.12196931,8.22981775 3.12196931,9.40687952 C3.12196931,10.6433435 3.46336582,11 4.4634148,11 C5.65847754,11 5.90240216,10.4769174 5.90240216,10.0251115 C5.90240216,8.78857935 5.92682261,9.29742027 7.26826811,8.2749912 C7.9268506,7.77564475 10,6.15865168 10,3.92349485 C10,1.68833802 7.92678063,6.82074101e-05 4.80488129,0 Z" id="Shape"></path>
                <path d="M4.49018395,12 C3.66670417,12 3,12.6818283 3,13.5 C3,14.2986701 3.64707206,15 4.49018395,15 C5.33329583,15 6,14.298726 6,13.5 C6,12.6818283 5.31366372,12 4.49018395,12 Z" id="Shape"></path>
            </g>
        </g>
    </g>
</svg>