<svg width="22" height="22" viewBox="0 0 22 22" fill="none" xmlns="http://www.w3.org/2000/svg">
<path d="M15.5834 12.2926L11.6509 8.40591C11.5657 8.32 11.4643 8.2518 11.3526 8.20526C11.2409 8.15873 11.1211 8.13477 11.0001 8.13477C10.879 8.13477 10.7592 8.15873 10.6475 8.20526C10.5358 8.2518 10.4344 8.32 10.3492 8.40591L6.46255 12.2926C6.37664 12.3778 6.30844 12.4792 6.2619 12.5909C6.21537 12.7026 6.19141 12.8224 6.19141 12.9434C6.19141 13.0644 6.21537 13.1842 6.2619 13.2959C6.30844 13.4076 6.37664 13.509 6.46255 13.5942C6.6343 13.765 6.86663 13.8608 7.1088 13.8608C7.35097 13.8608 7.58331 13.765 7.75505 13.5942L11.0001 10.3492L14.2451 13.5942C14.4158 13.7636 14.6462 13.8591 14.8867 13.8601C15.0074 13.8608 15.127 13.8377 15.2386 13.792C15.3503 13.7464 15.4519 13.6792 15.5376 13.5942C15.6265 13.5121 15.6984 13.4131 15.7489 13.3031C15.7994 13.193 15.8276 13.074 15.8319 12.953C15.8361 12.8319 15.8164 12.7113 15.7737 12.5979C15.7311 12.4846 15.6664 12.3808 15.5834 12.2926Z" fill="#AAAAAA"/>
</svg>
