<svg width="24" height="24" viewBox="0 0 24 24" fill="none" xmlns="http://www.w3.org/2000/svg">
<path d="M8.57409 1.45199C5.85609 2.38199 3.54009 4.41599 2.25009 6.98999C1.80009 7.87799 1.47609 8.81999 1.27809 9.79799C0.786086 12.222 1.12809 14.808 2.24409 17.016C2.97009 18.456 4.01409 19.74 5.27409 20.742C6.46809 21.69 7.85409 22.398 9.33009 22.788C11.1901 23.286 13.1701 23.274 15.0421 22.848C16.7341 22.458 18.3361 21.648 19.6141 20.472C20.9641 19.23 21.9301 17.598 22.4401 15.84C22.9981 13.926 23.0701 11.88 22.7221 9.91199C19.2241 9.91199 15.7201 9.91199 12.2221 9.91199C12.2221 11.364 12.2221 12.816 12.2221 14.268C14.2501 14.268 16.2781 14.268 18.3061 14.268C18.0721 15.66 17.2441 16.932 16.0741 17.718C15.3361 18.216 14.4901 18.534 13.6141 18.69C12.7381 18.84 11.8261 18.858 10.9501 18.684C10.0561 18.504 9.21009 18.132 8.46609 17.61C7.27809 16.776 6.37209 15.558 5.91009 14.184C5.43609 12.786 5.43009 11.232 5.91009 9.83999C6.24609 8.85599 6.79809 7.94999 7.53009 7.20599C8.43009 6.28199 9.60009 5.62199 10.8661 5.35199C11.9461 5.12399 13.0861 5.16599 14.1421 5.48399C15.0421 5.75399 15.8701 6.25199 16.5481 6.89999C17.2321 6.21599 17.9161 5.53199 18.6001 4.84799C18.9601 4.48199 19.3381 4.12799 19.6861 3.74999C18.6481 2.78999 17.4241 2.01599 16.0921 1.52399C13.6921 0.635988 10.9921 0.617988 8.57409 1.45199Z" fill="white"/>
<path d="M8.574 1.45219C10.986 0.618194 13.692 0.636194 16.092 1.51819C17.424 2.01019 18.642 2.77819 19.686 3.74419C19.338 4.12219 18.96 4.47619 18.6 4.84219C17.916 5.52619 17.232 6.21019 16.548 6.89419C15.87 6.24619 15.042 5.75419 14.142 5.47819C13.086 5.16019 11.946 5.11219 10.866 5.34619C9.606 5.61619 8.436 6.27619 7.53 7.20019C6.798 7.93819 6.246 8.85019 5.91 9.83419C4.692 8.88619 3.474 7.94419 2.25 6.99619C3.54 4.41619 5.856 2.38219 8.574 1.45219Z" fill="#EA4335"/>
<path d="M1.28412 9.79237C1.48212 8.82037 1.80612 7.87237 2.25612 6.98438C3.47412 7.93237 4.69212 8.87437 5.91612 9.82237C5.43612 11.2204 5.43612 12.7744 5.91612 14.1664C4.69812 15.1144 3.48012 16.0624 2.26212 17.0044C1.13412 14.8024 0.792117 12.2164 1.28412 9.79237Z" fill="#FBBC05"/>
<path d="M12.2221 9.90625C15.7201 9.90625 19.2241 9.90625 22.7221 9.90625C23.0701 11.8683 22.9921 13.9142 22.4401 15.8342C21.9301 17.5922 20.9641 19.2243 19.6141 20.4663C18.4321 19.5483 17.2501 18.6303 16.0681 17.7123C17.2381 16.9263 18.0661 15.6542 18.3001 14.2622C16.2721 14.2622 14.2441 14.2622 12.2161 14.2622C12.2221 12.8102 12.2221 11.3583 12.2221 9.90625Z" fill="#4285F4"/>
<path d="M2.25 17.0104C3.468 16.0684 4.686 15.1204 5.904 14.1724C6.372 15.5464 7.272 16.7644 8.46 17.5984C9.204 18.1204 10.056 18.4924 10.944 18.6724C11.82 18.8524 12.726 18.8284 13.608 18.6784C14.484 18.5224 15.33 18.2044 16.068 17.7064C17.25 18.6244 18.432 19.5424 19.614 20.4604C18.336 21.6424 16.734 22.4464 15.042 22.8364C13.17 23.2624 11.19 23.2744 9.33 22.7764C7.854 22.3864 6.468 21.6844 5.274 20.7304C4.02 19.7344 2.976 18.4504 2.25 17.0104Z" fill="#34A853"/>
</svg>
