<svg width="24" height="25" viewBox="0 0 24 25" fill="none" xmlns="http://www.w3.org/2000/svg">
<path d="M20.71 9.79L14.71 3.79C14.6178 3.70005 14.5092 3.62874 14.39 3.58C14.266 3.52962 14.1338 3.5025 14 3.5L6 3.5C5.20435 3.5 4.44129 3.81607 3.87868 4.37868C3.31607 4.94129 3 5.70435 3 6.5L3 18.5C3 19.2956 3.31607 20.0587 3.87868 20.6213C4.44129 21.1839 5.20435 21.5 6 21.5L18 21.5C18.7956 21.5 19.5587 21.1839 20.1213 20.6213C20.6839 20.0587 21 19.2956 21 18.5L21 10.5C21.0008 10.3684 20.9755 10.2379 20.9258 10.1161C20.876 9.99426 20.8027 9.88344 20.71 9.79ZM9 5.5L13 5.5V7.5L9 7.5V5.5ZM15 19.5L9 19.5L9 16.5C9 16.2348 9.10536 15.9804 9.29289 15.7929C9.48043 15.6054 9.73478 15.5 10 15.5H14C14.2652 15.5 14.5196 15.6054 14.7071 15.7929C14.8946 15.9804 15 16.2348 15 16.5V19.5ZM19 18.5C19 18.7652 18.8946 19.0196 18.7071 19.2071C18.5196 19.3946 18.2652 19.5 18 19.5H17V16.5C17 15.7044 16.6839 14.9413 16.1213 14.3787C15.5587 13.8161 14.7956 13.5 14 13.5H10C9.20435 13.5 8.44129 13.8161 7.87868 14.3787C7.31607 14.9413 7 15.7044 7 16.5L7 19.5H6C5.73478 19.5 5.48043 19.3946 5.29289 19.2071C5.10536 19.0196 5 18.7652 5 18.5L5 6.5C5 6.23478 5.10536 5.98043 5.29289 5.79289C5.48043 5.60536 5.73478 5.5 6 5.5H7L7 8.5C7 8.76522 7.10536 9.01957 7.29289 9.20711C7.48043 9.39464 7.73478 9.5 8 9.5L14 9.5C14.2652 9.5 14.5196 9.39464 14.7071 9.20711C14.8946 9.01957 15 8.76522 15 8.5V6.91L19 10.91V18.5Z" fill="#999999"/>
</svg>
