<svg width="34" height="34" viewBox="0 0 34 34" fill="none" xmlns="http://www.w3.org/2000/svg">
<path fill-rule="evenodd" clip-rule="evenodd" d="M25.8573 9.3555C25.8102 9.2973 25.7572 9.24326 25.6977 9.19609C21.1495 4.7383 13.9017 4.74199 9.35785 9.20168C9.29816 9.24968 9.24293 9.30385 9.19483 9.36489C4.73506 13.9168 4.74607 21.1653 9.20397 25.7051C9.25102 25.7633 9.30401 25.8174 9.36357 25.8645C13.9035 30.3142 21.1515 30.3252 25.7021 25.8602C25.7598 25.814 25.8119 25.7615 25.8583 25.7041C30.3402 21.1387 30.3049 13.8848 25.8573 9.3555ZM13.7515 12.6583C13.6847 11.7287 13.5829 10.3112 12.1678 9.52692C13.5777 8.57899 15.2504 7.99359 17.0518 7.90497C17.4142 8.40052 17.5254 8.71849 17.4654 9.0163C17.4347 9.169 17.3582 9.32117 17.2383 9.4933C17.1184 9.66563 16.9575 9.85474 16.7606 10.0821L16.7591 10.0838C16.4162 10.4798 15.9718 10.9929 15.7277 11.6413C15.4861 12.2829 15.4414 13.0543 15.8741 13.9734C15.6146 14.0948 15.3705 14.2436 15.1456 14.4163C14.5071 14.3255 14.1889 14.179 14.0137 13.9233C13.9243 13.7928 13.8692 13.6299 13.8314 13.4219C13.7935 13.2137 13.7735 12.9643 13.7518 12.6622L13.7515 12.6583ZM18.2823 11.4371C18.9612 10.6444 19.8422 9.61575 19.3966 8.07481C21.145 8.41918 22.7253 9.23749 23.9974 10.3906C23.9095 10.9465 23.7452 11.2976 23.5194 11.4567C23.3924 11.5462 23.2189 11.6014 23.0072 11.639C22.7958 11.6766 22.5519 11.6957 22.2866 11.7165L22.283 11.7168C21.696 11.7628 21.0092 11.8167 20.3854 12.1032C19.7677 12.3869 19.2146 12.8972 18.8745 13.8432C18.6099 13.7465 18.332 13.6778 18.0446 13.6401C17.6862 13.1613 17.5417 12.7796 17.5906 12.4971C17.6173 12.3429 17.7011 12.1807 17.8243 12.0044C17.9472 11.8283 18.1061 11.6428 18.2789 11.441L18.2823 11.4371ZM8.07517 15.6643C8.41953 13.9159 9.2378 12.3356 10.3909 11.0636C10.994 11.158 11.2962 11.3037 11.4641 11.5564C11.5501 11.6859 11.6036 11.8475 11.6407 12.0539C11.6778 12.2605 11.6979 12.5081 11.7194 12.8082L11.7196 12.8106C11.7571 13.333 11.8057 14.01 12.0915 14.641C12.3743 15.2653 12.888 15.8424 13.8436 16.1864C13.7468 16.4511 13.6781 16.7289 13.6404 17.0164C13.1247 17.4033 12.796 17.5239 12.4915 17.4665C12.3361 17.4373 12.1821 17.3608 12.0086 17.2406C11.8348 17.1201 11.6447 16.9581 11.4164 16.7602L11.4132 16.7575C10.708 16.1468 9.63244 15.2154 8.07517 15.6643ZM22.4027 13.7511C23.3323 13.6843 24.7498 13.5825 25.534 12.1674C26.4819 13.5773 27.0673 15.2501 27.156 17.0515C26.6604 17.4138 26.3424 17.525 26.0446 17.4651C25.8919 17.4343 25.7397 17.3578 25.5676 17.238C25.3953 17.118 25.2062 16.9571 24.9789 16.7602L24.9769 16.7585C24.5809 16.4156 24.0679 15.9713 23.4196 15.7272C22.778 15.4857 22.0066 15.441 21.0874 15.8737C20.9661 15.6141 20.8173 15.3701 20.6446 15.1451C20.7354 14.5067 20.8819 14.1885 21.1376 14.0133C21.2681 13.9239 21.431 13.8688 21.639 13.831C21.8472 13.7931 22.0966 13.7731 22.3986 13.7514L22.4027 13.7511ZM15.6431 17.5303C15.6431 16.4895 16.4899 15.6428 17.5306 15.6428C18.5714 15.6428 19.4181 16.4895 19.4181 17.5303C19.4181 18.571 18.5714 19.4178 17.5306 19.4178C16.4899 19.4178 15.6431 18.571 15.6431 17.5303ZM9.5272 22.8932C8.5794 21.4832 7.99395 19.8105 7.90533 18.0092C8.40089 17.6468 8.71886 17.5356 9.01669 17.5955C9.16939 17.6263 9.32156 17.7028 9.49368 17.8226C9.66602 17.9426 9.85511 18.1035 10.0824 18.3004L10.0864 18.3038C10.6618 18.8022 11.4845 19.5147 12.6151 19.5147C13.0279 19.5147 13.4799 19.4196 13.9739 19.1871C14.0952 19.4466 14.244 19.6906 14.4166 19.9155C14.3317 20.5087 14.1638 20.8816 13.9292 21.0469C13.8003 21.1378 13.6256 21.1935 13.4133 21.2311C13.2014 21.2686 12.9574 21.2873 12.6921 21.3075L12.6871 21.3079C11.6483 21.3873 10.3031 21.49 9.5272 22.8932ZM21.2177 18.8741C21.3145 18.6095 21.3831 18.3317 21.4209 18.0442C21.9366 17.6573 22.2653 17.5367 22.5698 17.594C22.7251 17.6233 22.8791 17.6997 23.0526 17.82C23.2264 17.9405 23.4165 18.1025 23.6449 18.3003C24.1621 18.7482 24.6683 19.1265 25.2198 19.3374C25.7519 19.541 26.3242 19.5879 26.9862 19.396C26.6418 21.1445 25.8235 22.7249 24.6704 23.9969C24.0673 23.9026 23.7651 23.7568 23.5972 23.5042C23.5112 23.3747 23.4577 23.2131 23.4206 23.0067C23.3835 22.8001 23.3634 22.5525 23.3419 22.2523L23.3417 22.25C23.3042 21.7276 23.2556 21.0506 22.9698 20.4196C22.687 19.7953 22.1733 19.2182 21.2177 18.8741ZM19.1872 21.0871C19.4467 20.9658 19.6908 20.817 19.9157 20.6443C20.5541 20.735 20.8724 20.8816 21.0476 21.1373C21.137 21.2678 21.1921 21.4307 21.2299 21.6387C21.2678 21.8469 21.2878 22.0963 21.3095 22.3983L21.3098 22.4023C21.3766 23.3318 21.4784 24.7494 22.8935 25.5337C21.4836 26.4816 19.8108 27.067 18.0095 27.1556C17.6471 26.66 17.5359 26.3421 17.5959 26.0443C17.6266 25.8916 17.7031 25.7394 17.8229 25.5673C17.9429 25.3949 18.1038 25.2058 18.3007 24.9785L18.3022 24.9768C18.6451 24.5808 19.0895 24.0677 19.3336 23.4193C19.5752 22.7777 19.6199 22.0062 19.1872 21.0871ZM14.6759 22.9574C15.2936 22.6737 15.8467 22.1634 16.1868 21.2174C16.4514 21.3141 16.7292 21.3827 17.0167 21.4205C17.3751 21.8993 17.5196 22.2809 17.4707 22.5634C17.4439 22.7177 17.3602 22.8799 17.237 23.0562C17.1141 23.2322 16.9552 23.4178 16.7824 23.6196L16.779 23.6235C16.1001 24.4162 15.219 25.4448 15.6647 26.9858C13.9163 26.6414 12.336 25.8231 11.0639 24.6699C11.1518 24.114 11.3161 23.763 11.5419 23.6039C11.6689 23.5144 11.8424 23.4592 12.0541 23.4216C12.2655 23.384 12.5093 23.3648 12.7747 23.344L12.7783 23.3438C13.3653 23.2977 14.0521 23.2439 14.6759 22.9574Z" fill="#B3B3B3"/>
<path d="M6.87402 5.85529C6.31138 5.85529 5.85527 6.3114 5.85527 6.87404C5.85527 7.43668 6.31138 7.89279 6.87402 7.89279C7.43666 7.89279 7.89277 7.43668 7.89277 6.87404C7.89277 6.3114 7.43666 5.85529 6.87402 5.85529Z" fill="#B3B3B3"/>
<path d="M28.1865 5.85529C27.6239 5.85529 27.1678 6.3114 27.1678 6.87404C27.1678 7.43668 27.6239 7.89279 28.1865 7.89279C28.7492 7.89279 29.2053 7.43668 29.2053 6.87404C29.2053 6.3114 28.7492 5.85529 28.1865 5.85529Z" fill="#B3B3B3"/>
<path d="M6.87402 27.1678C6.31138 27.1678 5.85527 27.6239 5.85527 28.1865C5.85527 28.7492 6.31138 29.2053 6.87402 29.2053C7.43666 29.2053 7.89277 28.7492 7.89277 28.1865C7.89277 27.6239 7.43666 27.1678 6.87402 27.1678Z" fill="#B3B3B3"/>
<path d="M28.1865 27.1678C27.6239 27.1678 27.1678 27.6239 27.1678 28.1865C27.1678 28.7492 27.6239 29.2053 28.1865 29.2053C28.7492 29.2053 29.2053 28.7492 29.2053 28.1865C29.2053 27.6239 28.7492 27.1678 28.1865 27.1678Z" fill="#B3B3B3"/>
<path fill-rule="evenodd" clip-rule="evenodd" d="M6.35937 1.95001C3.92799 1.95001 1.95 3.928 1.95 6.35939V28.6406C1.95 31.072 3.92799 33.05 6.35937 33.05H28.6406C31.072 33.05 33.05 31.072 33.05 28.6406V6.35939C33.05 3.928 31.072 1.95001 28.6406 1.95001H6.35937ZM3.9875 6.35939C3.9875 5.05158 5.05156 3.98751 6.35937 3.98751H28.6406C29.9484 3.98751 31.0125 5.05158 31.0125 6.35939V28.6406C31.0125 29.9484 29.9484 31.0125 28.6406 31.0125H6.35937C5.05156 31.0125 3.9875 29.9484 3.9875 28.6406V6.35939Z" fill="#B3B3B3"/>
</svg>
