<svg width="34" height="34" viewBox="0 0 34 34" fill="none" xmlns="http://www.w3.org/2000/svg">
<path d="M33.0039 6.04297H5.97656V3.05469C5.97656 2.5045 5.53065 2.05859 4.98047 2.05859H0.996094C0.445908 2.05859 0 2.5045 0 3.05469C0 3.60487 0.445908 4.05078 0.996094 4.05078H3.98438V10.0273H0.996094C0.445908 10.0273 0 10.4733 0 11.0234V22.9766C0 23.5267 0.445908 23.9727 0.996094 23.9727H3.98438V30.9453C3.98438 31.4955 4.43028 31.9414 4.98047 31.9414C5.53065 31.9414 5.97656 31.4955 5.97656 30.9453V27.957H8.03516V28.9531C8.03516 29.5033 8.48106 29.9492 9.03125 29.9492C9.58144 29.9492 10.0273 29.5033 10.0273 28.9531V27.957H12.0195V28.9531C12.0195 29.5033 12.4654 29.9492 13.0156 29.9492C13.5658 29.9492 14.0117 29.5033 14.0117 28.9531V27.957H16.0039V28.9531C16.0039 29.5033 16.4498 29.9492 17 29.9492C17.5502 29.9492 17.9961 29.5033 17.9961 28.9531V27.957H19.9883V28.9531C19.9883 29.5033 20.4342 29.9492 20.9844 29.9492C21.5346 29.9492 21.9805 29.5033 21.9805 28.9531V27.957H33.0039C33.5541 27.957 34 27.5111 34 26.9609V7.03906C34 6.48888 33.5541 6.04297 33.0039 6.04297ZM3.98438 21.9805H1.99219V19.9883H3.98438V21.9805ZM3.98438 17.9961H1.99219V16.0039H3.98438V17.9961ZM3.98438 14.0117H1.99219V12.0195H3.98438V14.0117ZM32.0078 25.9648H5.97656V8.03516H32.0078V25.9648Z" fill="#B5B5B5"/>
<path d="M22.9766 23.9727C26.8577 23.9727 30.0154 20.8451 30.0156 17.0005C30.0156 17.0003 30.0156 16.9997 30.0156 16.9995C30.0154 13.1552 26.858 10.0276 22.9771 10.0273C22.9768 10.0273 22.9763 10.0273 22.976 10.0273C19.1341 10.0276 16.0039 13.1549 16.0039 17C16.0039 20.8425 19.1315 23.9727 22.9766 23.9727ZM19.1512 20.1852C18.7995 19.7636 18.5167 19.2832 18.3188 18.7613C18.539 18.8002 18.7639 18.8212 18.9922 18.8212C19.4895 18.8212 19.9722 18.726 20.4199 18.5455C20.4583 18.6091 20.4998 18.6703 20.5429 18.7307C20.4137 19.4508 19.8601 20.0251 19.1512 20.1852ZM24.7361 21.6676C24.7763 21.4443 24.7978 21.216 24.7978 20.9844C24.7978 20.4871 24.7026 20.0044 24.5221 19.5566C24.5854 19.5182 24.6468 19.4767 24.7073 19.4339C25.4372 19.5647 26.018 20.1315 26.1685 20.8547C25.7431 21.1984 25.2601 21.4746 24.7361 21.6676ZM28.0016 17.4547C27.9477 18.0384 27.7915 18.5932 27.5506 19.1017C27.1404 18.4928 26.5599 18.0083 25.8774 17.717C25.8951 17.6446 25.9104 17.5712 25.9228 17.497C26.5371 17.0726 27.3723 17.0586 28.0016 17.4547ZM26.8447 13.8055C27.2053 14.2301 27.4953 14.7147 27.6976 15.2415C27.4683 15.2005 27.2333 15.1788 26.9941 15.1788C26.4836 15.1788 25.9903 15.2747 25.535 15.4574C25.4958 15.393 25.4541 15.3305 25.4105 15.2693C25.542 14.5349 26.115 13.9515 26.8447 13.8055ZM23.4308 12.0408C23.9981 12.0909 24.5384 12.2343 25.0367 12.4551C24.4474 12.8634 23.9778 13.4325 23.6933 14.0991C23.6207 14.0812 23.5472 14.0662 23.4725 14.0537C23.0554 13.4527 23.0414 12.6548 23.4308 12.0408ZM21.9805 16.9997C21.9805 16.4506 22.4274 16.0039 22.9766 16.0039C23.5257 16.0039 23.9727 16.4506 23.9727 16.9997C23.9727 17.5489 23.526 17.9961 22.9768 17.9961C22.9771 17.9961 22.9766 17.9961 22.9768 17.9961C22.4277 17.9961 21.9807 17.5489 21.9805 16.9997C21.9805 17 21.9805 16.9995 21.9805 16.9997ZM22.2596 19.9009C22.3322 19.9188 22.4059 19.9338 22.4803 19.9463C22.8977 20.547 22.9117 21.3447 22.5226 21.9589C21.9584 21.9076 21.4215 21.7615 20.927 21.5374C21.5112 21.1296 21.9768 20.5634 22.2596 19.9009ZM21.2152 12.3422C21.1763 12.5625 21.1553 12.7874 21.1553 13.0156C21.1553 13.5129 21.2505 13.9956 21.4311 14.4434C21.3678 14.4818 21.3063 14.5233 21.2458 14.5661C20.5258 14.4371 19.9514 13.8836 19.7914 13.1746C20.2129 12.8232 20.6933 12.5401 21.2152 12.3422ZM18.4391 14.9505C18.8469 15.5347 19.4132 16.0003 20.0757 16.283C20.0578 16.3557 20.0428 16.4293 20.0303 16.5038C19.4295 16.9211 18.6319 16.9352 18.0176 16.5461C18.069 15.9819 18.215 15.4449 18.4391 14.9505Z" fill="#B5B5B5"/>
<path d="M9.03125 16.0039H13.0156C13.5658 16.0039 14.0117 15.558 14.0117 15.0078C14.0117 14.4576 13.5658 14.0117 13.0156 14.0117H9.03125C8.48106 14.0117 8.03516 14.4576 8.03516 15.0078C8.03516 15.558 8.48106 16.0039 9.03125 16.0039Z" fill="#B5B5B5"/>
<path d="M9.03125 19.9883H13.0156C13.5658 19.9883 14.0117 19.5424 14.0117 18.9922C14.0117 18.442 13.5658 17.9961 13.0156 17.9961H9.03125C8.48106 17.9961 8.03516 18.442 8.03516 18.9922C8.03516 19.5424 8.48106 19.9883 9.03125 19.9883Z" fill="#B5B5B5"/>
<path d="M10.0273 11.0234C10.0273 11.5736 9.58144 12.0195 9.03125 12.0195C8.48106 12.0195 8.03516 11.5736 8.03516 11.0234C8.03516 10.4733 8.48106 10.0273 9.03125 10.0273C9.58144 10.0273 10.0273 10.4733 10.0273 11.0234Z" fill="#B5B5B5"/>
<path d="M14.0117 11.0234C14.0117 11.5736 13.5658 12.0195 13.0156 12.0195C12.4654 12.0195 12.0195 11.5736 12.0195 11.0234C12.0195 10.4733 12.4654 10.0273 13.0156 10.0273C13.5658 10.0273 14.0117 10.4733 14.0117 11.0234Z" fill="#B5B5B5"/>
</svg>
