<svg width="34" height="34" viewBox="0 0 34 34" fill="none" xmlns="http://www.w3.org/2000/svg">
<path d="M22.3438 25.2188C21.8088 25.2188 21.375 25.6525 21.375 26.1875V28.125C21.375 28.66 21.8088 29.0938 22.3438 29.0938C22.8787 29.0938 23.3125 28.66 23.3125 28.125V26.1875C23.3125 25.6525 22.8787 25.2188 22.3438 25.2188Z" fill="#B3B3B3"/>
<path d="M19.4375 25.2188C18.9025 25.2188 18.4688 25.6525 18.4688 26.1875V28.125C18.4688 28.66 18.9025 29.0938 19.4375 29.0938C19.9725 29.0938 20.4062 28.66 20.4062 28.125V26.1875C20.4062 25.6525 19.9725 25.2188 19.4375 25.2188Z" fill="#B3B3B3"/>
<path d="M16.5312 25.2188C15.9963 25.2188 15.5625 25.6525 15.5625 26.1875V28.125C15.5625 28.66 15.9963 29.0938 16.5312 29.0938C17.0662 29.0938 17.5 28.66 17.5 28.125V26.1875C17.5 25.6525 17.0662 25.2188 16.5312 25.2188Z" fill="#B3B3B3"/>
<path d="M26.2188 28.125C26.7538 28.125 27.1875 27.6913 27.1875 27.1562C27.1875 26.6212 26.7538 26.1875 26.2188 26.1875C25.6837 26.1875 25.25 26.6212 25.25 27.1562C25.25 27.6913 25.6837 28.125 26.2188 28.125Z" fill="#B3B3B3"/>
<path d="M26.2188 6.8125C26.7538 6.8125 27.1875 6.37878 27.1875 5.84375C27.1875 5.30872 26.7538 4.875 26.2188 4.875C25.6837 4.875 25.25 5.30872 25.25 5.84375C25.25 6.37878 25.6837 6.8125 26.2188 6.8125Z" fill="#B3B3B3"/>
<path d="M8.78125 6.8125C9.31628 6.8125 9.75 6.37878 9.75 5.84375C9.75 5.30872 9.31628 4.875 8.78125 4.875C8.24622 4.875 7.8125 5.30872 7.8125 5.84375C7.8125 6.37878 8.24622 6.8125 8.78125 6.8125Z" fill="#B3B3B3"/>
<path d="M28.1562 1H6.84375C5.24126 1 3.9375 2.30376 3.9375 3.90625V29.0938C3.9375 30.6962 5.24126 32 6.84375 32H28.1562C29.7587 32 31.0625 30.6962 31.0625 29.0938V3.90625C31.0625 2.30376 29.7587 1 28.1562 1ZM6.84375 30.0625C6.30961 30.0625 5.875 29.6279 5.875 29.0938V25.2188H7.54416L11.6875 27.7047V30.0625H6.84375ZM29.125 29.0938C29.125 29.6279 28.6904 30.0625 28.1562 30.0625H13.625V27.1562C13.625 26.816 13.4464 26.5006 13.1547 26.3255L11.1913 25.1475L13.1314 23.2074C19.5277 26.4529 27.1875 21.7891 27.1875 14.5625C27.1875 9.22081 22.8417 4.875 17.5 4.875C12.1583 4.875 7.8125 9.22081 7.8125 14.5625C7.8125 17.6239 9.24026 20.3577 11.4645 22.1343L9.47875 24.12C8.25752 23.3873 8.16779 23.2812 7.8125 23.2812H5.875V3.90625C5.875 3.37211 6.30961 2.9375 6.84375 2.9375H28.1562C28.6904 2.9375 29.125 3.37211 29.125 3.90625V29.0938ZM15.2787 19.69C14.9004 19.3117 14.287 19.3117 13.9087 19.69L12.8444 20.7543C10.9664 19.3387 9.75 17.0901 9.75 14.5625C9.75 10.2891 13.2266 6.8125 17.5 6.8125C21.7734 6.8125 25.25 10.2891 25.25 14.5625C25.25 20.0697 19.6507 23.8006 14.5927 21.7461L15.2787 21.06C15.6571 20.6817 15.6571 20.0683 15.2787 19.69Z" fill="#B3B3B3"/>
<path d="M18.4688 9.71875C18.4688 9.18376 18.035 8.75 17.5 8.75C14.295 8.75 11.6875 11.3575 11.6875 14.5625C11.6875 15.0975 12.1213 15.5312 12.6562 15.5312C13.1912 15.5312 13.625 15.0975 13.625 14.5625C13.625 12.4258 15.3633 10.6875 17.5 10.6875C18.035 10.6875 18.4688 10.2537 18.4688 9.71875Z" fill="#B3B3B3"/>
<path d="M16.5312 19.4062C16.5312 19.9412 16.965 20.375 17.5 20.375C20.705 20.375 23.3125 17.7675 23.3125 14.5625C23.3125 14.0275 22.8787 13.5938 22.3438 13.5938C21.8088 13.5938 21.375 14.0275 21.375 14.5625C21.375 16.6992 19.6367 18.4375 17.5 18.4375C16.965 18.4375 16.5312 18.8713 16.5312 19.4062Z" fill="#B3B3B3"/>
<path d="M15.5625 14.5625C15.5625 15.6308 16.4317 16.5 17.5 16.5C18.5683 16.5 19.4375 15.6308 19.4375 14.5625C19.4375 13.4942 18.5683 12.625 17.5 12.625C16.4317 12.625 15.5625 13.4942 15.5625 14.5625Z" fill="#B3B3B3"/>
</svg>
