<svg width="34" height="34" viewBox="0 0 34 34" fill="none" xmlns="http://www.w3.org/2000/svg">
<path fill-rule="evenodd" clip-rule="evenodd" d="M21.1879 26.7266C21.1879 27.2948 21.6486 27.7555 22.2168 27.7555H27.313C27.8812 27.7555 28.3419 27.2948 28.3419 26.7266L28.3419 19.2867C28.3419 18.7185 27.8812 18.2578 27.313 18.2578H22.2168C21.6486 18.2578 21.1879 18.7185 21.1879 19.2867L21.1879 26.7266ZM26.2841 25.6977H23.2457L23.2457 24.0355H26.2841L26.2841 25.6977ZM26.2841 21.9777H23.2457V20.3156H26.2841V21.9777Z" fill="#B5B5B5"/>
<path d="M5.65863 26.7266C5.65863 27.2948 6.1193 27.7555 6.68754 27.7555H17.8789C18.4472 27.7555 18.9079 27.2948 18.9079 26.7266C18.9079 26.1583 18.4472 25.6977 17.8789 25.6977L6.68754 25.6977C6.1193 25.6977 5.65863 26.1583 5.65863 26.7266Z" fill="#B5B5B5"/>
<path d="M5.65863 23.0059C5.65863 23.5741 6.1193 24.0348 6.68754 24.0348H17.8789C18.4472 24.0348 18.9078 23.5741 18.9078 23.0059C18.9078 22.4376 18.4472 21.977 17.8789 21.977L6.68754 21.977C6.1193 21.977 5.65863 22.4376 5.65863 23.0059Z" fill="#B5B5B5"/>
<path fill-rule="evenodd" clip-rule="evenodd" d="M5.65863 12.9554C5.65863 13.5236 6.1193 13.9843 6.68754 13.9843H8.58832V14.1273C8.58832 14.6955 9.04899 15.1562 9.61722 15.1562H9.76019V17.057C9.76019 17.6252 10.2209 18.0859 10.7891 18.0859C11.3573 18.0859 11.818 17.6252 11.818 17.057V15.1562H12.5126V17.057C12.5126 17.6252 12.9732 18.0859 13.5415 18.0859C14.1097 18.0859 14.5704 17.6252 14.5704 17.057V15.1562H14.7134C15.2816 15.1562 15.7423 14.6955 15.7423 14.1273V13.9843H17.643C18.2113 13.9843 18.6719 13.5236 18.6719 12.9554C18.6719 12.3872 18.2113 11.9265 17.643 11.9265H15.7423V11.2319H17.643C18.2113 11.2319 18.6719 10.7712 18.6719 10.203C18.6719 9.63478 18.2113 9.1741 17.643 9.1741H15.7423V9.03113C15.7423 8.4629 15.2816 8.00223 14.7134 8.00223H14.5704V6.10145C14.5704 5.53321 14.1097 5.07254 13.5415 5.07254C12.9732 5.07254 12.5126 5.53321 12.5126 6.10145V8.00223H11.818V6.10145C11.818 5.53321 11.3573 5.07254 10.7891 5.07254C10.2209 5.07254 9.76019 5.53321 9.76019 6.10145V8.00223H9.61722C9.04899 8.00223 8.58832 8.4629 8.58832 9.03113V9.1741H6.68754C6.1193 9.1741 5.65863 9.63478 5.65863 10.203C5.65863 10.7712 6.1193 11.2319 6.68754 11.2319H8.58832V11.9265H6.68754C6.1193 11.9265 5.65863 12.3872 5.65863 12.9554ZM13.6844 13.0984H10.6461V10.06H13.6844V13.0984Z" fill="#B5B5B5"/>
<path d="M21.1879 14.1273C21.1879 14.6955 21.6486 15.1562 22.2168 15.1562C22.7851 15.1562 23.2457 14.6955 23.2457 14.1273V9.03113C23.2457 8.4629 22.7851 8.00223 22.2168 8.00223C21.6486 8.00223 21.1879 8.4629 21.1879 9.03113V14.1273Z" fill="#B5B5B5"/>
<path d="M24.9077 14.1273C24.9077 14.6955 25.3683 15.1562 25.9366 15.1562C26.5048 15.1562 26.9655 14.6955 26.9655 14.1273V9.03113C26.9655 8.4629 26.5048 8.00223 25.9366 8.00223C25.3683 8.00223 24.9077 8.4629 24.9077 9.03113V14.1273Z" fill="#B5B5B5"/>
<path fill-rule="evenodd" clip-rule="evenodd" d="M1.85004 31.1211C1.85004 31.6893 2.31071 32.15 2.87894 32.15L31.1211 32.15C31.6894 32.15 32.15 31.6893 32.15 31.1211L32.15 2.87891C32.15 2.31068 31.6894 1.85001 31.1211 1.85001L2.87894 1.85001C2.31071 1.85001 1.85004 2.31068 1.85004 2.87891L1.85004 31.1211ZM30.0922 30.0922H3.90785L3.90785 3.90782L30.0922 3.90782L30.0922 30.0922Z" fill="#B5B5B5"/>
</svg>
