<svg width="34" height="34" viewBox="0 0 34 34" fill="none" xmlns="http://www.w3.org/2000/svg">
<g clip-path="url(#clip0)">
<path d="M18.0437 9.56174V8.46992C18.0437 7.24245 19.0424 6.24376 20.2701 6.24376C22.5962 6.24376 24.4885 4.35144 24.4885 2.02541V-0.0625H22.4963V2.02515C22.4963 3.25288 21.4976 4.25131 20.2701 4.25131C17.9441 4.25131 16.0515 6.14389 16.0515 8.46992V9.56174C12.0824 10.0541 9 13.4475 9 17.5479V25.8896C9 30.3272 12.6101 33.9375 17.0476 33.9375C21.4852 33.9375 25.0955 30.3274 25.0955 25.8899V17.5479C25.0955 13.4475 22.013 10.0541 18.0437 9.56174V9.56174ZM23.103 17.5479V17.9764H18.0437V11.5749C20.9106 12.0515 23.103 14.5482 23.103 17.5479ZM16.0515 11.5749V17.9764H10.9922V17.5479C10.9922 14.5482 13.1849 12.0515 16.0515 11.5749ZM17.0476 31.9453C13.7086 31.9453 10.9922 29.2289 10.9922 25.8899V19.9686H23.103V25.8899C23.103 29.2289 20.3866 31.9453 17.0476 31.9453Z" fill="#B3B3B3"/>
</g>
<defs>
<clipPath id="clip0">
<rect width="34" height="34" fill="white"/>
</clipPath>
</defs>
</svg>
