<svg width="34" height="34" viewBox="0 0 34 34" fill="none" xmlns="http://www.w3.org/2000/svg">
<path d="M25.2812 1H11.7188C10.1162 1 8.8125 2.30376 8.8125 3.90625V29.0938C8.8125 30.6962 10.1162 32 11.7188 32H25.2812C26.8838 32 28.1875 30.6962 28.1875 29.0938V3.90625C28.1875 2.30376 26.8838 1 25.2812 1ZM26.25 29.0938C26.25 29.6279 25.8154 30.0625 25.2812 30.0625H11.7188C11.1846 30.0625 10.75 29.6279 10.75 29.0938V3.90625C10.75 3.37211 11.1846 2.9375 11.7188 2.9375H25.2812C25.8154 2.9375 26.25 3.37211 26.25 3.90625V29.0938Z" fill="#B3B3B3"/>
<path d="M23.3438 4.875H13.6562C13.1212 4.875 12.6875 5.30876 12.6875 5.84375V9.71875C12.6875 10.2537 13.1212 10.6875 13.6562 10.6875H23.3438C23.8788 10.6875 24.3125 10.2537 24.3125 9.71875V5.84375C24.3125 5.30876 23.8788 4.875 23.3438 4.875ZM22.375 8.75H14.625V6.8125H22.375V8.75Z" fill="#B3B3B3"/>
<path d="M23.3438 12.625H13.6562C13.1212 12.625 12.6875 13.0588 12.6875 13.5938V17.4688C12.6875 18.0037 13.1212 18.4375 13.6562 18.4375H23.3438C23.8788 18.4375 24.3125 18.0037 24.3125 17.4688V13.5938C24.3125 13.0588 23.8788 12.625 23.3438 12.625ZM22.375 16.5H14.625V14.5625H22.375V16.5Z" fill="#B3B3B3"/>
<path d="M18.5 24.25C17.4317 24.25 16.5625 25.1192 16.5625 26.1875C16.5625 27.2558 17.4317 28.125 18.5 28.125C19.5683 28.125 20.4375 27.2558 20.4375 26.1875C20.4375 25.1192 19.5683 24.25 18.5 24.25Z" fill="#B3B3B3"/>
<path d="M19.4688 22.3125V21.3438C19.4688 20.8088 19.0351 20.375 18.5 20.375C17.9649 20.375 17.5312 20.8088 17.5312 21.3438V22.3125C17.5312 22.8475 17.9649 23.2812 18.5 23.2812C19.0351 23.2812 19.4688 22.8475 19.4688 22.3125Z" fill="#B3B3B3"/>
</svg>
