<svg width="34" height="34" viewBox="0 0 34 34" fill="none" xmlns="http://www.w3.org/2000/svg">
<path fill-rule="evenodd" clip-rule="evenodd" d="M11.6874 5.82501C8.5385 5.82501 5.85103 8.34618 5.82502 11.6783C5.82093 14.9395 8.47536 17.5501 11.6865 17.5501C14.8404 17.5501 17.5238 15.0246 17.5498 11.6964C17.5539 8.43213 14.8959 5.82501 11.6874 5.82501ZM11.7369 9.26171C11.754 8.88338 11.8954 8.44957 12.2187 7.90053C13.4304 8.06971 14.4617 8.80832 15.033 9.83703C13.7627 9.50511 12.787 9.82926 11.9936 10.2774C11.8204 9.94905 11.7203 9.62892 11.7369 9.26171ZM9.26157 11.6379C8.88323 11.6208 8.44943 11.4794 7.90041 11.1561C8.0696 9.94453 8.8082 8.91325 9.83691 8.34195C9.505 9.61221 9.82914 10.5879 10.2773 11.3812C9.94893 11.5545 9.62879 11.6546 9.26157 11.6379ZM13.5379 15.0331C13.8698 13.7628 13.5456 12.7871 13.0975 11.9937C13.4259 11.8205 13.746 11.7204 14.1132 11.737C14.4916 11.7542 14.9254 11.8955 15.4744 12.2188C15.3052 13.4305 14.5666 14.4618 13.5379 15.0331ZM11.156 15.4746C9.94419 15.3053 8.91267 14.5664 8.34147 13.5374C9.44082 13.8254 10.3981 13.6521 11.3811 13.0976C11.5543 13.426 11.6545 13.7461 11.6379 14.1133C11.6207 14.4917 11.4794 14.9255 11.156 15.4746Z" fill="#B3B3B3"/>
<path fill-rule="evenodd" clip-rule="evenodd" d="M21.8594 5.82501C21.5892 5.82501 21.3301 5.93237 21.139 6.12344L19.6859 7.57657C19.4949 7.76764 19.3875 8.02672 19.3875 8.29689V10.7188C19.3875 11.2814 19.8437 11.7375 20.4063 11.7375H26.2188C26.7814 11.7375 27.2375 11.2814 27.2375 10.7188V8.29689C27.2375 8.02673 27.1302 7.76758 26.9391 7.57656L25.486 6.12345C25.295 5.93236 25.0359 5.82501 24.7656 5.82501H21.8594ZM21.425 8.71884L22.2813 7.86251H24.3436L25.2 8.71884V9.70001H21.425V8.71884Z" fill="#B3B3B3"/>
<path fill-rule="evenodd" clip-rule="evenodd" d="M21.8594 13.575C21.5892 13.575 21.3301 13.6824 21.139 13.8734L19.6859 15.3266C19.4949 15.5176 19.3875 15.7767 19.3875 16.0469V18.4688C19.3875 19.0314 19.8437 19.4875 20.4063 19.4875H26.2188C26.7814 19.4875 27.2375 19.0314 27.2375 18.4688V16.0469C27.2375 15.7767 27.1302 15.5176 26.9391 15.3266L25.486 13.8734C25.295 13.6824 25.0359 13.575 24.7656 13.575H21.8594ZM21.425 16.4688L22.2813 15.6125H24.3436L25.2 16.4688V17.45H21.425V16.4688Z" fill="#B3B3B3"/>
<path fill-rule="evenodd" clip-rule="evenodd" d="M2.96876 1.95001C2.40616 1.95001 1.95001 2.40609 1.95001 2.96876V22.3438C1.95001 22.9064 2.40616 23.3625 2.96876 23.3625H5.82501V25.7344C5.82501 28.1658 7.803 30.1438 10.2344 30.1438C16.0048 30.1438 19.4659 30.1424 21.5144 30.1416L21.9007 30.1414C22.8953 30.141 23.5056 30.1408 23.8672 30.1411C24.048 30.1413 24.1665 30.1415 24.2398 30.142L24.2922 30.1424C24.3183 31.7502 25.6342 33.05 27.2481 33.05H29.125C29.6709 33.05 30.1165 32.6207 30.1426 32.0813H32.0313C32.5939 32.0813 33.05 31.6252 33.05 31.0625C33.05 30.4998 32.5939 30.0438 32.0313 30.0438H30.1438V28.2063H32.0313C32.5939 28.2063 33.05 27.7502 33.05 27.1875C33.05 26.6248 32.5939 26.1688 32.0313 26.1688H30.1426C30.1165 25.6293 29.6709 25.2 29.125 25.2H27.2481C25.6424 25.2 24.32 26.4899 24.2923 28.1074C24.1312 28.1058 23.3366 28.1059 19.0375 28.1061C16.996 28.1061 14.1641 28.1063 10.2344 28.1063C8.92658 28.1063 7.86251 27.0422 7.86251 25.7344V23.3625H30.0938C30.6564 23.3625 31.1125 22.9064 31.1125 22.3438V2.96876C31.1125 2.40609 30.6564 1.95001 30.0938 1.95001H2.96876ZM3.98751 21.325V3.98751H29.075V21.325H7.86251V19.4375C7.86251 18.8748 7.40637 18.4188 6.84376 18.4188C6.28116 18.4188 5.82501 18.8748 5.82501 19.4375V21.325H3.98751ZM26.3293 28.1563C26.3293 27.6497 26.7415 27.2375 27.2481 27.2375H28.1063V31.0125H27.2481C26.7415 31.0125 26.3293 30.6003 26.3293 30.0938V28.1563Z" fill="#B3B3B3"/>
</svg>
