<svg width="34" height="34" viewBox="0 0 34 34" fill="none" xmlns="http://www.w3.org/2000/svg">
<path d="M0.996094 25.9648H9.03125C9.58136 25.9648 10.0273 25.5189 10.0273 24.9688V21.9805H12.0195V24.9688C12.0195 25.5189 12.4655 25.9648 13.0156 25.9648H33.0039C33.554 25.9648 34 25.5189 34 24.9688V17C34 16.4499 33.554 16.0039 33.0039 16.0039H31.9414V14.0117H33.0039C33.554 14.0117 34 13.5657 34 13.0156V9.03125C34 8.48114 33.554 8.03516 33.0039 8.03516H0.996094C0.445984 8.03516 0 8.48114 0 9.03125V13.0156C0 13.5657 0.445984 14.0117 0.996094 14.0117H2.05859V16.0039H0.996094C0.445984 16.0039 0 16.4499 0 17V24.9688C0 25.5189 0.445984 25.9648 0.996094 25.9648ZM1.99219 17.9961H3.05469C3.6048 17.9961 4.05078 17.5501 4.05078 17V13.0156C4.05078 12.4655 3.6048 12.0195 3.05469 12.0195H1.99219V10.0273H32.0078V12.0195H30.9453C30.3952 12.0195 29.9492 12.4655 29.9492 13.0156V17C29.9492 17.5501 30.3952 17.9961 30.9453 17.9961H32.0078V23.9727H29.9492V20.9844C29.9492 20.4343 29.5032 19.9883 28.9531 19.9883C28.403 19.9883 27.957 20.4343 27.957 20.9844V23.9727H25.9648V20.9844C25.9648 20.4343 25.5189 19.9883 24.9688 19.9883C24.4186 19.9883 23.9727 20.4343 23.9727 20.9844V23.9727H21.9805V20.9844C21.9805 20.4343 21.5345 19.9883 20.9844 19.9883C20.4343 19.9883 19.9883 20.4343 19.9883 20.9844V23.9727H17.9961V20.9844C17.9961 20.4343 17.5501 19.9883 17 19.9883C16.4499 19.9883 16.0039 20.4343 16.0039 20.9844V23.9727H14.0117V20.9844C14.0117 20.4343 13.5657 19.9883 13.0156 19.9883H9.03125C8.48114 19.9883 8.03516 20.4343 8.03516 20.9844V23.9727H6.04297V20.9844C6.04297 20.4343 5.59698 19.9883 5.04688 19.9883C4.49677 19.9883 4.05078 20.4343 4.05078 20.9844V23.9727H1.99219V17.9961Z" fill="#B3B3B3"/>
<path d="M7.03906 17.9961H11.0234C11.5735 17.9961 12.0195 17.5501 12.0195 17V13.0156C12.0195 12.4655 11.5735 12.0195 11.0234 12.0195H7.03906C6.48895 12.0195 6.04297 12.4655 6.04297 13.0156V17C6.04297 17.5501 6.48895 17.9961 7.03906 17.9961ZM8.03516 14.0117H10.0273V16.0039H8.03516V14.0117Z" fill="#B3B3B3"/>
<path d="M15.0078 17.9961H18.9922C19.5423 17.9961 19.9883 17.5501 19.9883 17V13.0156C19.9883 12.4655 19.5423 12.0195 18.9922 12.0195H15.0078C14.4577 12.0195 14.0117 12.4655 14.0117 13.0156V17C14.0117 17.5501 14.4577 17.9961 15.0078 17.9961ZM16.0039 14.0117H17.9961V16.0039H16.0039V14.0117Z" fill="#B3B3B3"/>
<path d="M22.9766 17.9961H26.9609C27.511 17.9961 27.957 17.5501 27.957 17V13.0156C27.957 12.4655 27.511 12.0195 26.9609 12.0195H22.9766C22.4265 12.0195 21.9805 12.4655 21.9805 13.0156V17C21.9805 17.5501 22.4265 17.9961 22.9766 17.9961ZM23.9727 14.0117H25.9648V16.0039H23.9727V14.0117Z" fill="#B3B3B3"/>
</svg>
