<?xml version="1.0" encoding="UTF-8"?>
<svg width="24px" height="24px" viewBox="0 0 24 24" version="1.1" xmlns="http://www.w3.org/2000/svg" xmlns:xlink="http://www.w3.org/1999/xlink">
    <!-- Generator: Sketch 58 (84663) - https://sketch.com -->
    <title>icons/24/accessuar</title>
    <desc>Created with Sketch.</desc>
    <g id="icons/24/accessuar" stroke="none" stroke-width="1" fill="none" fill-rule="evenodd">
        <g id="Group" transform="translate(3.995000, 3.995000)" fill="#B4B4B4" fill-rule="nonzero">
            <path d="M8.8055,4.0025 L7.2045,4.0025 L7.2045,7.2045 L4.0025,7.2045 L4.0025,8.8055 L7.2045,8.8055 L7.2045,12.0075 L8.8055,12.0075 L8.8055,8.8055 L12.0075,8.8055 L12.0075,7.2045 L8.8055,7.2045 L8.8055,4.0025 Z M8.005,0 C3.60225,0 0,3.60225 0,8.005 C0,12.40775 3.60225,16.01 8.005,16.01 C12.40775,16.01 16.01,12.40775 16.01,8.005 C16.01,3.60225 12.40775,0 8.005,0 Z M8.005,14.409 C4.4828,14.409 1.601,11.5272 1.601,8.005 C1.601,4.4828 4.4828,1.601 8.005,1.601 C11.5272,1.601 14.409,4.4828 14.409,8.005 C14.409,11.5272 11.5272,14.409 8.005,14.409 Z" id="Shape"></path>
        </g>
    </g>
</svg>