<?xml version="1.0" encoding="UTF-8"?>
<svg width="24px" height="24px" viewBox="0 0 24 24" version="1.1" xmlns="http://www.w3.org/2000/svg" xmlns:xlink="http://www.w3.org/1999/xlink">
    <!-- Generator: Sketch 58 (84663) - https://sketch.com -->
    <title>icons/24/characteristics</title>
    <desc>Created with Sketch.</desc>
    <g id="icons/24/characteristics" stroke="none" stroke-width="1" fill="none" fill-rule="evenodd">
        <g id="Group" transform="translate(5.000000, 6.000000)" fill="#B4B4B4" fill-rule="nonzero">
            <path d="M4.30637914,9.55101487 L13.01,9.55589452 L13.01,11.2784126 L4.30637914,11.2735329 L4.30637914,9.55101487 Z M1.07655274,9.33580533 C0.481907939,9.33580533 0,9.81771329 0,10.412358 C0,11.0068345 0.481907939,11.4889107 1.07655274,11.4889107 C1.67119751,11.4889107 2.15310545,11.0068345 2.15310545,10.412358 C2.15310545,9.81771329 1.67119751,9.33580533 1.07655274,9.33580533 Z M13.0051204,4.73243189 L4.30637914,4.73243189 L4.30637914,6.45494988 L13.0051204,6.45494988 L13.0051204,4.73243189 Z M1.07655274,4.51722229 C0.481907939,4.51722229 0,4.99913023 0,5.59377503 C0,6.18841979 0.481907939,6.67032773 1.07655274,6.67032773 C1.67119751,6.67032773 2.15310545,6.18841979 2.15310545,5.59377503 C2.15310545,4.99913023 1.67119751,4.51722229 1.07655274,4.51722229 L1.07655274,4.51722229 Z M13.0051204,0.21537785 L4.30637914,0.21537785 L4.30637914,1.93789585 L13.0051204,1.93789585 L13.0051204,0.21537785 Z M1.07655274,1.42108547e-14 C0.481907939,1.42108547e-14 0,0.482076193 0,1.07655274 C0,1.67119751 0.481907939,2.1532737 1.07655274,2.1532737 C1.67119751,2.1532737 2.15310545,1.67119751 2.15310545,1.07655274 C2.15310545,0.482076193 1.67119751,1.42108547e-14 1.07655274,1.42108547e-14 Z" id="Shape"></path>
        </g>
    </g>
</svg>