<?xml version="1.0" encoding="UTF-8"?>
<svg width="24px" height="24px" viewBox="0 0 24 24" version="1.1" xmlns="http://www.w3.org/2000/svg" xmlns:xlink="http://www.w3.org/1999/xlink">
    <!-- Generator: Sketch 58 (84663) - https://sketch.com -->
    <title>icons/24/communicator</title>
    <desc>Created with Sketch.</desc>
    <g id="icons/24/communicator" stroke="none" stroke-width="1" fill="none" fill-rule="evenodd">
        <g id="Group" transform="translate(3.995000, 5.138571)" fill="#B4B4B4" fill-rule="nonzero">
            <path d="M4.54170533,4.70265242 L11.4682946,4.70265242 C11.8101393,4.70265242 12.078851,4.43394071 12.078851,4.09209605 C12.078851,3.7502514 11.8101393,3.48153969 11.4682946,3.48153969 L4.54170533,3.48153969 C4.19986068,3.48153969 3.93114896,3.7502514 3.93114896,4.09209605 C3.93114896,4.43394071 4.19986068,4.70265242 4.54170533,4.70265242 Z" id="Path"></path>
            <path d="M4.54170533,7.28301872 L11.4682946,7.28301872 C11.8101393,7.28301872 12.078851,7.01430701 12.078851,6.67246235 C12.078851,6.33061769 11.8101393,6.06190598 11.4682946,6.06190598 L4.54170533,6.06190598 C4.19986068,6.06190598 3.93114896,6.33061769 3.93114896,6.67246235 C3.93114896,7.01430701 4.19986068,7.28301872 4.54170533,7.28301872 Z" id="Path"></path>
            <path d="M1.34882784,0.0280191291 L14.6611721,0.0280191291 C14.9767211,0.0280191291 15.2299555,0.256980588 15.2670475,0.561075509 L15.2717285,0.638575499 L15.2717285,10.1390151 C15.2717285,10.454564 15.0427671,10.7077984 14.7386721,10.7448904 L14.6611721,10.7495714 L6.8423632,10.7340578 L3.97350663,12.9117404 C3.86793985,12.9871452 3.73486699,13.0301982 3.60339032,13.0301982 C3.50614546,13.0301982 3.41858994,13.0119575 3.33471685,12.9700209 C3.15083629,12.8780806 3.02699261,12.7058447 2.99890482,12.5065536 L2.99283395,12.4196418 L2.99283395,10.7365393 L1.34882784,10.7365393 C1.04139109,10.7365393 0.781292498,10.5040305 0.743096482,10.2026643 L0.738271469,10.1259829 L0.738271469,0.638575499 C0.738271469,0.323026585 0.967232928,0.0697921318 1.27132785,0.0327001386 L1.34882784,0.0280191291 L14.6611721,0.0280191291 L1.34882784,0.0280191291 Z M14.0375836,1.24913187 L1.95938421,1.24913187 L1.95938421,9.51542655 L3.60339032,9.51542655 C3.94523497,9.51542655 4.21394668,9.78413824 4.21394668,10.1259829 L4.21394668,11.1838328 L6.24370135,9.63388439 C6.34926813,9.5584795 6.48234099,9.51542655 6.61381767,9.51542655 L14.0375836,9.51542655 L14.0375836,1.24913187 Z" id="Shape"></path>
        </g>
    </g>
</svg>