<?xml version="1.0" encoding="UTF-8"?>
<svg width="24px" height="24px" viewBox="0 0 24 24" version="1.1" xmlns="http://www.w3.org/2000/svg" xmlns:xlink="http://www.w3.org/1999/xlink">
    <!-- Generator: Sketch 58 (84663) - https://sketch.com -->
    <title>icons/24/description</title>
    <desc>Created with Sketch.</desc>
    <g id="icons/24/description" stroke="none" stroke-width="1" fill="none" fill-rule="evenodd">
        <g id="Group" transform="translate(3.995000, 4.416316)" fill="#B4B4B4" fill-rule="nonzero">
            <path d="M11.3621926,5.24089847 C11.3621926,4.8575146 11.0505545,4.54673974 10.6661056,4.54673974 L3.49640998,4.54673974 C3.11196115,4.54673974 2.80032302,4.8575146 2.80032302,5.24089847 C2.80032302,5.62428235 3.11196115,5.93505721 3.49640998,5.93505721 L10.6661056,5.93505721 C11.0505545,5.93505721 11.3621926,5.62428235 11.3621926,5.24089847 Z" id="Path"></path>
            <path d="M3.49640998,7.32337468 C3.11196115,7.32337468 2.80032302,7.63414955 2.80032302,8.01753342 C2.80032302,8.40091729 3.11196115,8.71169219 3.49640998,8.71169219 L7.85081674,8.71169219 C8.23526557,8.71169219 8.5469037,8.40091729 8.5469037,8.01753342 C8.5469037,7.63414955 8.23526557,7.32337468 7.85081674,7.32337468 L3.49640998,7.32337468 Z" id="Path"></path>
            <path d="M5.13221433,13.189016 L2.8041863,13.189016 C2.03654161,13.189016 1.41201239,12.5662168 1.41201239,11.8006986 L1.41201239,2.77663495 C1.41201239,2.01111669 2.03654161,1.38831747 2.8041863,1.38831747 L11.3621926,1.38831747 C12.1298373,1.38831747 12.7543665,2.01111669 12.7543665,2.77663495 L12.7543665,3.85258099 C12.7543665,4.23596486 13.0660046,4.54673974 13.4504535,4.54673974 C13.8349023,4.54673974 14.1465404,4.23596486 14.1465404,3.85258099 L14.1465404,2.77663495 C14.1465404,1.24559844 12.897482,0 11.3621926,0 L2.8041863,0 C1.26889691,0 0.0198384783,1.24559844 0.0198384783,2.77663495 L0.0198384783,11.8006986 C0.0198384783,13.331735 1.26889691,14.5773335 2.8041863,14.5773335 L5.13221433,14.5773335 C5.51666315,14.5773335 5.82830128,14.2665586 5.82830128,13.8831747 C5.82830128,13.4997909 5.51666315,13.189016 5.13221433,13.189016 Z" id="Path"></path>
            <path d="M15.3794844,6.85731651 C14.5652715,6.04535903 13.2404788,6.04532432 12.426788,6.85676118 L8.6051662,10.6593628 C8.52400241,10.7401281 8.46413899,10.8396011 8.4307964,10.9490005 L7.59852002,13.6813828 C7.5247348,13.9236442 7.58901843,14.1866957 7.76631178,14.3679058 C7.89912517,14.5036485 8.07955091,14.5773335 8.26460563,14.5773335 C8.32652257,14.5773335 8.38903117,14.569073 8.45039121,14.5521008 L11.2599722,13.7759966 C11.3755923,13.7440653 11.4809798,13.6828752 11.5659024,13.5983267 L15.3795192,9.80242383 C16.1937322,8.99046631 16.1937322,7.6693434 15.3794844,6.85731651 Z M10.711943,12.486805 L9.2984688,12.8772693 L9.71211849,11.5191824 L12.2907378,8.95339827 L13.2753528,9.93528576 L10.711943,12.486805 Z M14.3956003,8.82032804 L14.2607335,8.95454358 L13.2762925,7.9728296 L13.4107069,7.83906521 C13.6821112,7.56841272 14.1237088,7.56841272 14.3951131,7.83906521 C14.6665174,8.1097177 14.6665174,8.55009196 14.3956003,8.82032804 Z" id="Shape"></path>
        </g>
    </g>
</svg>