<?xml version="1.0" encoding="UTF-8"?>
<svg width="24px" height="24px" viewBox="0 0 24 24" version="1.1" xmlns="http://www.w3.org/2000/svg" xmlns:xlink="http://www.w3.org/1999/xlink">
    <!-- Generator: Sketch 58 (84663) - https://sketch.com -->
    <title>icons/24/driver</title>
    <desc>Created with Sketch.</desc>
    <g id="icons/24/driver" stroke="none" stroke-width="1" fill="none" fill-rule="evenodd">
        <g id="Group" transform="translate(3.995000, 3.995000)" fill="#B4B4B4" fill-rule="nonzero">
            <path d="M7.99624761,0.547710526 C12.1035362,0.547710526 15.4447847,3.88895903 15.4447847,7.99624761 C15.4447847,12.1035362 12.1035362,15.4447847 7.99624761,15.4447847 C3.88895903,15.4447847 0.547710526,12.1035362 0.547710526,7.99624761 C0.547710526,3.88895903 3.88895903,0.547710526 7.99624761,0.547710526 Z M7.99624761,1.85233074 C4.60857716,1.85233074 1.85233074,4.60857716 1.85233074,7.99624761 C1.85233074,11.3839181 4.60857716,14.1401645 7.99624761,14.1401645 C11.3839181,14.1401645 14.1401645,11.3839181 14.1401645,7.99624761 C14.1401645,4.60857716 11.3839181,1.85233074 7.99624761,1.85233074 Z M7.99624761,4.23538209 C8.35751541,4.23538209 8.65001644,4.52788313 8.65001644,4.88915093 L8.65001644,4.88915093 L8.65001644,9.53069073 L9.54693633,8.63377084 C9.80214837,8.37855883 10.2135266,8.37855883 10.4687385,8.63377084 C10.7239506,8.8889828 10.7239506,9.30036101 10.4687385,9.55557305 L10.4687385,9.55557305 L8.45860745,11.5657041 C8.33422206,11.6900895 8.16977589,11.7541957 7.99624761,11.7541957 C7.82314715,11.7541957 7.65819937,11.6870983 7.53388778,11.5627867 L7.53388778,11.5627867 L5.52375668,9.55265561 C5.26854468,9.29744357 5.26854468,8.88606535 5.52375668,8.6308534 C5.77896867,8.37564137 6.1903469,8.37564137 6.4455589,8.6308534 L6.4455589,8.6308534 L7.34247877,9.5277732 L7.34247877,4.88915093 C7.34247877,4.52788313 7.63497982,4.23538209 7.99624761,4.23538209 Z" id="Combined-Shape"></path>
        </g>
    </g>
</svg>