<?xml version="1.0" encoding="UTF-8"?>
<svg width="24px" height="24px" viewBox="0 0 24 24" version="1.1" xmlns="http://www.w3.org/2000/svg" xmlns:xlink="http://www.w3.org/1999/xlink">
    <!-- Generator: Sketch 58 (84663) - https://sketch.com -->
    <title>icons/24/opinion</title>
    <desc>Created with Sketch.</desc>
    <g id="icons/24/opinion" stroke="none" stroke-width="1" fill="none" fill-rule="evenodd">
        <g id="Group" transform="translate(3.995000, 4.416316)" fill="#B4B4B4" fill-rule="nonzero">
            <path d="M8.00333705,0.526409624 C8.57966252,0.526409624 9.0842828,0.83628247 9.34237993,1.33942643 L9.39748509,1.45891435 L10.6939916,4.61529869 L14.0933691,4.85953133 L14.2217242,4.8726577 C14.7716428,4.95343497 15.2348046,5.34094321 15.4152398,5.88225047 C15.5994203,6.43131693 15.4650146,7.01189621 15.0621844,7.41994916 L14.9644815,7.51095975 L12.2965176,9.68733013 L13.102289,12.9818605 C13.2060436,13.4450506 13.1013413,13.9147152 12.8124887,14.2748391 C12.5338743,14.6249896 12.1049112,14.8338133 11.6647514,14.8338133 C11.4263318,14.8338133 11.1912818,14.7732458 10.9861946,14.6632591 L7.96444682,12.8089849 L5.10176523,14.5897804 C4.86661895,14.7478295 4.58494784,14.8338133 4.29816071,14.8338133 C3.83522282,14.8338133 3.39462231,14.6135131 3.10985171,14.2413947 C2.86422294,13.9150113 2.7682828,13.507568 2.8351917,13.1116167 L2.86794179,12.9638544 L3.66887438,9.68629866 L1.03672389,7.51223648 C0.558715898,7.1051828 0.386509545,6.47620959 0.588933068,5.88393508 C0.773402005,5.34096991 1.23586832,4.95721251 1.78545336,4.87828194 L1.91374028,4.86554459 L5.30962529,4.62116505 L6.6097138,1.46056165 C6.84875704,0.885363845 7.3830145,0.526409624 8.00333705,0.526409624 Z M8.00625451,1.915293 C7.9595312,1.915293 7.92110191,1.93289937 7.89785168,1.98945398 L6.56481807,5.23015327 C6.38558716,5.66827328 5.97779133,5.96273077 5.50388641,5.99887279 L2.00506212,6.25018483 C1.9501219,6.25304629 1.92312292,6.28195109 1.90618394,6.33065064 C1.89154788,6.37272934 1.89574325,6.41434748 1.93387443,6.44735543 L4.62630869,8.67306267 C4.99176667,8.97426427 5.15504614,9.46522879 5.04277468,9.92634316 L4.21380026,13.3173429 C4.20004715,13.3654787 4.20419225,13.3830701 4.21846989,13.4018614 C4.24998441,13.4429673 4.30756881,13.4540801 4.3506876,13.4257164 L7.3096614,11.5862092 C7.50592258,11.4620439 7.73454197,11.3968719 7.96832751,11.3968719 C8.19904153,11.3968719 8.42340879,11.4603914 8.62036584,11.5809779 L11.6443481,13.4401945 C11.6555706,13.4463045 11.6620997,13.4478474 11.6676689,13.4478474 C11.6831324,13.4478474 11.7107101,13.4337004 11.7335603,13.4051702 C11.7543089,13.3798108 11.7648086,13.345917 11.7545795,13.299125 L10.9293178,9.93099146 C10.8132483,9.46671384 10.9792473,8.9709754 11.3494791,8.66915614 L14.0776553,6.4417764 L14.1028196,6.40745476 C14.1135033,6.38347718 14.1128917,6.35782049 14.1063251,6.3335681 C14.0894183,6.28496109 14.0624232,6.25571639 14.0064203,6.25267471 L10.5071433,5.99876324 C10.0347177,5.96273077 9.62692187,5.66827328 9.44793731,5.2307539 L8.11463212,1.98939264 C8.09140711,1.93289937 8.05297782,1.915293 8.00625451,1.915293 Z" id="Shape"></path>
        </g>
    </g>
</svg>