<?xml version="1.0" encoding="utf-8"?>
<!-- Generator: Adobe Illustrator 21.0.0, SVG Export Plug-In . SVG Version: 6.00 Build 0)  -->
<svg version="1.1" id="Слой_1" xmlns="http://www.w3.org/2000/svg" xmlns:xlink="http://www.w3.org/1999/xlink" x="0px" y="0px"
	 viewBox="0 0 74 93" style="enable-background:new 0 0 74 93;" xml:space="preserve">
<style type="text/css">
	.st0{filter:url(#Adobe_OpacityMaskFilter);}
	.st1{fill:#FFFFFF;}
	.st2{mask:url(#mask-2);}
</style>
<path id="Fill-1" d="M43.8,51c-2,0-3.7,1.7-3.7,3.7c0,2,1.7,3.7,3.7,3.7s3.7-1.7,3.7-3.7C47.5,52.6,45.9,51,43.8,51"/>
<path id="Fill-3" d="M31.4,43.1l-1.7-6.9h18.4l-1.7,6.9H31.4z M51.5,31h-23l-0.9-3.6c-0.3-1.2-1.3-2-2.5-2h-4.1
	c-1.4,0-2.6,1.2-2.6,2.6c0,1.4,1.2,2.6,2.6,2.6h2l3.7,15.7c0.3,1.2,1.3,2,2.5,2h19.2c1.2,0,2.2-0.8,2.5-2l3-12.1
	c0.2-0.8,0-1.6-0.5-2.2C53.1,31.4,52.3,31,51.5,31z"/>
<path id="Fill-5" d="M31,51c-2,0-3.7,1.7-3.7,3.7c0,2,1.7,3.7,3.7,3.7s3.7-1.7,3.7-3.7C34.7,52.6,33,51,31,51"/>
<defs>
	<filter id="Adobe_OpacityMaskFilter" filterUnits="userSpaceOnUse" x="3.2" y="4.1" width="67.5" height="84.7">
		<feColorMatrix  type="matrix" values="1 0 0 0 0  0 1 0 0 0  0 0 1 0 0  0 0 0 1 0"/>
	</filter>
</defs>
<mask maskUnits="userSpaceOnUse" x="3.2" y="4.1" width="67.5" height="84.7" id="mask-2">
	<g class="st0">
		<polygon id="path-1" class="st1" points="3.3,4.1 70.7,4.1 70.7,88.8 3.3,88.8 		"/>
	</g>
</mask>
<path id="Fill-7" class="st2" d="M64.2,44v0.2C61.4,56.3,43.2,75.4,37,81.6c-6.2-6.2-24.4-25.3-27.2-37.7c0-0.1,0-0.2-0.1-0.4
	c-0.4-1.9-0.6-3.8-0.6-5.7C9.2,22.5,21.6,10,37,10s27.9,12.5,27.9,27.9C64.8,40,64.6,42,64.2,44 M37,4.1C18.4,4.1,3.2,19.3,3.2,37.9
	c0,2.3,0.2,4.5,0.7,6.7c0,0.1,0.1,0.3,0.1,0.5C7.7,61.9,33.9,87,35,88c0.6,0.6,1.3,0.8,2,0.8c0.7,0,1.5-0.3,2-0.8
	c1.1-1.1,27.1-26.1,30.9-42.5c0-0.1,0.1-0.3,0.1-0.4c0.5-2.3,0.7-4.7,0.7-7.2C70.8,19.3,55.6,4.1,37,4.1"/>
</svg>
