<svg xmlns="http://www.w3.org/2000/svg" width="512" height="456" viewBox="0 0 512 456">
  <metadata><?xpacket begin="﻿" id="W5M0MpCehiHzreSzNTczkc9d"?>
<x:xmpmeta xmlns:x="adobe:ns:meta/" x:xmptk="Adobe XMP Core 5.6-c138 79.159824, 2016/09/14-01:09:01        ">
   <rdf:RDF xmlns:rdf="http://www.w3.org/1999/02/22-rdf-syntax-ns#">
      <rdf:Description rdf:about=""/>
   </rdf:RDF>
</x:xmpmeta>
                                                                                                    
                                                                                                    
                                                                                                    
                                                                                                    
                                                                                                    
                                                                                                    
                                                                                                    
                                                                                                    
                                                                                                    
                                                                                                    
                                                                                                    
                                                                                                    
                                                                                                    
                                                                                                    
                                                                                                    
                                                                                                    
                                                                                                    
                                                                                                    
                                                                                                    
                                                                                                    
                           
<?xpacket end="w"?></metadata>
<defs>
    <style>
      .cls-1 {
        fill-rule: evenodd;
      }
    </style>
  </defs>
  <path class="cls-1" d="M506.777,180.019L263.866,2.423a13.328,13.328,0,0,0-15.73,0L5.223,180.019a13.3,13.3,0,1,0,15.732,21.456L256,29.629,491.045,201.474A13.3,13.3,0,1,0,506.777,180.019Zm-64.366,24.465a13.306,13.306,0,0,0-13.315,13.3V429.408H322.58V313.888a66.579,66.579,0,0,0-133.158,0V429.409H82.9V217.781a13.315,13.315,0,0,0-26.63,0V442.705A13.306,13.306,0,0,0,69.59,456H202.737A13.3,13.3,0,0,0,216,443.741a10.035,10.035,0,0,0,.052-1.036V313.889a39.95,39.95,0,0,1,79.9,0V442.705a9.763,9.763,0,0,0,.052,1.024A13.3,13.3,0,0,0,309.265,456H442.412a13.305,13.305,0,0,0,13.314-13.3V217.781A13.307,13.307,0,0,0,442.411,204.484Z"/>
</svg>
