<?xml version="1.0" encoding="utf-8"?>
<!-- Generator: Adobe Illustrator 21.1.0, SVG Export Plug-In . SVG Version: 6.00 Build 0)  -->
<svg version="1.1" id="Режим_изоляции"
	 xmlns="http://www.w3.org/2000/svg" xmlns:xlink="http://www.w3.org/1999/xlink" x="0px" y="0px" viewBox="0 0 157.3 39.3"
	 style="enable-background:new 0 0 157.3 39.3;" xml:space="preserve">
<style type="text/css">
	.st0{fill:#FFFFFF;}
	.st1{fill:#CC1A55;}
</style>
<g id="Layer_2">
	<rect x="19.4" y="33.6" class="st0" width="34.7" height="1.7"/>
	<rect x="41.6" y="7.5" class="st0" width="1.7" height="24.3"/>
	<rect x="19.6" y="20.8" class="st0" width="11" height="1.7"/>
	<rect x="42.7" y="20.8" class="st0" width="2.9" height="1.7"/>
	<rect x="51" y="20.8" class="st0" width="3.1" height="1.7"/>
	<path class="st0" d="M40.2,20.7h-6.7v-8.2l2-1.2h2.7l2,1.2L40.2,20.7z M35.2,19h3.3v-5.6L37.7,13h-1.8l-0.8,0.4L35.2,19z"/>
	<path class="st0" d="M40.2,35.3h-6.7V24.5h6.7L40.2,35.3z M35.2,33.6h3.3v-7.4h-3.2L35.2,33.6z"/>
	<rect x="30.3" y="7.5" class="st0" width="1.7" height="24.3"/>
	<path class="st0" d="M28.8,22.5h-6.7v-7.3h6.7L28.8,22.5z M23.8,20.8h3.3v-3.9h-3.2L23.8,20.8z"/>
	<path class="st0" d="M51.5,31.8h-6.7V15.2h6.7L51.5,31.8z M46.5,30.1h3.3V16.9h-3.2L46.5,30.1z"/>
	<path class="st0" d="M28.8,31.8h-6.7v-7.3h6.7L28.8,31.8z M23.8,30.1h3.3v-3.9h-3.2L23.8,30.1z"/>
	<polygon class="st1" points="44.6,38.9 18.8,38.9 18.8,12.3 20.5,12.3 20.5,37.2 44.6,37.2 	"/>
	<polygon class="st1" points="54.9,38.9 43.3,38.9 43.3,37.2 53.2,37.2 53.2,12.3 54.9,12.3 	"/>
	<rect x="36" y="10.7" class="st0" width="1.7" height="1.5"/>
	<rect x="24.5" y="14.6" class="st0" width="1.7" height="1.5"/>
	<rect x="24.6" y="23.9" class="st0" width="1.7" height="1.5"/>
	<rect x="47.3" y="14.6" class="st0" width="1.7" height="1.5"/>
	<path class="st1" d="M41.2,26.4c-2.4-2.4-6.3-2.4-8.7,0l-1.2-1.2c3.1-3.1,8-3.1,11.1,0L41.2,26.4z"/>
	<rect x="45" y="0.9" class="st0" width="7.3" height="1.7"/>
	<path class="st1" d="M12.9,29.7c-2.4,0-4.3-1.9-4.3-4.3s1.9-4.3,4.3-4.3c2.4,0,4.3,1.9,4.3,4.3l0,0C17.2,27.8,15.3,29.7,12.9,29.7z
		 M12.9,22.8c-1.4,0-2.6,1.2-2.6,2.6c0,1.4,1.2,2.6,2.6,2.6s2.6-1.2,2.6-2.6v0C15.5,24,14.4,22.8,12.9,22.8z"/>
	<polygon class="st1" points="16.4,38.9 12.1,38.9 12.1,28.9 13.8,28.9 13.8,37.2 16.4,37.2 	"/>
	<path class="st1" d="M4.3,39.3C1.9,39.3,0,37.4,0,35c0-2.4,1.9-4.3,4.3-4.3c2.4,0,4.3,1.9,4.3,4.3C8.6,37.4,6.7,39.3,4.3,39.3
		C4.3,39.3,4.3,39.3,4.3,39.3z M4.3,32.4c-1.4,0-2.6,1.2-2.6,2.6s1.2,2.6,2.6,2.6c1.4,0,2.6-1.2,2.6-2.6c0,0,0,0,0,0
		C6.9,33.6,5.8,32.4,4.3,32.4z"/>
	<rect x="9.4" y="37.2" class="st1" width="3.5" height="1.7"/>
	<polygon class="st0" points="56.2,13.6 51,13.6 51,11.9 54.5,11.9 54.5,10.5 56.2,10.5 	"/>
	<polygon class="st0" points="22.9,13.6 17.8,13.6 17.8,10.5 19.5,10.5 19.5,11.9 22.9,11.9 	"/>
	<polygon class="st0" points="33.5,8.4 26.9,8.4 26.9,5.4 28.6,5.4 28.6,6.8 33.5,6.8 	"/>
	<polygon class="st1" points="52.3,8 50.6,8 50.6,5.3 46.8,5.3 46.8,5.3 45.1,5.3 45.1,3.6 52.3,3.6 	"/>
	<polygon class="st0" points="46.8,8.4 40.2,8.4 40.2,6.7 45.1,6.7 45.1,5.3 46.8,5.3 	"/>
	<polygon class="st1" points="16.6,11.9 15.8,10.3 37,0 58.1,10.3 57.4,11.9 37,1.9 	"/>
	<polygon class="st0" points="20.1,13.2 19.4,11.7 37,3.2 54.5,11.7 53.8,13.2 37,5.1 	"/>
	<path class="st0" d="M66.1,26.6V15.4h10.1v11.1h-3.4v-8.2h-3.3v8.2L66.1,26.6z"/>
	<path class="st0" d="M80.5,16.9c2.4-2.3,6.1-2.3,8.5,0c1.1,1.1,1.7,2.6,1.7,4.1c0,1.5-0.6,3-1.7,4.1c-2.4,2.3-6.1,2.3-8.5,0
		c-1.1-1.1-1.7-2.6-1.7-4.1C78.8,19.5,79.4,18,80.5,16.9z M84.8,23.7c0.7,0,1.3-0.3,1.8-0.8c0.5-0.5,0.7-1.2,0.7-1.9
		c0-0.7-0.2-1.4-0.7-1.9c-0.9-1-2.4-1-3.4-0.1c0,0-0.1,0.1-0.1,0.1c-0.5,0.5-0.7,1.2-0.7,1.9c0,0.7,0.2,1.4,0.7,1.9
		C83.5,23.4,84.1,23.7,84.8,23.7z"/>
	<path class="st0" d="M98.4,15.4c1.1-0.1,2.2,0.3,3.1,1c0.8,0.6,1.2,1.6,1.2,2.6c0,1-0.4,2-1.2,2.6c-0.9,0.7-1.9,1.1-3.1,1h-1.7v3.9
		h-3.4V15.4H98.4z M97.9,20.2c0.6,0,1-0.4,1-1s-0.4-1-1-1h-1.2v2H97.9z"/>
	<path class="st0" d="M103.2,26.6l4.6-11.2h3.3l4.6,11.2H112l-0.6-1.4h-4.1l-0.6,1.4L103.2,26.6z M108.2,22.6h2.4l-1.3-3.3
		L108.2,22.6z"/>
	<path class="st0" d="M117.2,28.6v-5h1.1c0.8-1.9,1.2-3.9,1.1-6v-2.2h8.6v8.2h1.4v5h-3.2v-2.1h-5.9v2L117.2,28.6z M124.6,23.6v-5.3
		h-2.1c0,1-0.1,1.9-0.2,2.8c-0.1,0.8-0.3,1.6-0.6,2.4L124.6,23.6z"/>
	<path class="st0" d="M133.2,16.9c2.4-2.3,6.1-2.3,8.5,0c1.1,1.1,1.7,2.6,1.7,4.1c0,1.5-0.6,3-1.7,4.1c-2.4,2.3-6.1,2.3-8.5,0
		c-1.1-1.1-1.7-2.6-1.7-4.1C131.4,19.5,132.1,18,133.2,16.9z M137.4,23.7c0.7,0,1.3-0.3,1.8-0.8c0.5-0.5,0.7-1.2,0.7-1.9
		c0-0.7-0.2-1.4-0.7-1.9c-0.9-1-2.4-1-3.4-0.1c0,0-0.1,0.1-0.1,0.1c-0.5,0.5-0.7,1.2-0.7,1.9c0,0.7,0.2,1.4,0.7,1.9
		C136.2,23.4,136.8,23.7,137.4,23.7z"/>
	<path class="st0" d="M145.7,26.6V15.4h3.4l2.4,4l2.4-4h3.4v11.1h-3.3v-6.2l-1.6,2.7h-1.9l-1.6-2.7v6.2H145.7z"/>
</g>
</svg>
