<?xml version="1.0" encoding="utf-8"?>
<!-- Generator: Adobe Illustrator 21.1.0, SVG Export Plug-In . SVG Version: 6.00 Build 0)  -->
<svg version="1.1" id="Слой_1" xmlns="http://www.w3.org/2000/svg" xmlns:xlink="http://www.w3.org/1999/xlink" x="0px" y="0px"
	 viewBox="0 0 78 83" style="enable-background:new 0 0 78 83;" xml:space="preserve">
<path id="Forma_1" d="M25.7,58.3H21c-0.9,0-1.6,0.7-1.6,1.6c0,0.9,0.7,1.6,1.6,1.6h4.7c0.9,0,1.6-0.7,1.6-1.6
	C27.3,59,26.6,58.3,25.7,58.3z M28.3,64.7H21c-0.9,0-1.6,0.7-1.6,1.6c0,0.9,0.7,1.6,1.6,1.6h7.3c0.9,0,1.6-0.7,1.6-1.6
	C29.9,65.5,29.2,64.7,28.3,64.7z M32.4,42.1H21c-0.9,0-1.6,0.7-1.6,1.6c0,0.9,0.7,1.6,1.6,1.6h11.3c0.9,0,1.6-0.7,1.6-1.6
	C34,42.9,33.3,42.2,32.4,42.1z M36.9,48.6H21c-0.9,0-1.6,0.7-1.6,1.6c0,0.9,0.7,1.6,1.6,1.6h15.9c0.9,0,1.6-0.7,1.6-1.6
	C38.5,49.4,37.8,48.6,36.9,48.6z M39,55c-3.6,0-6.5,2.9-6.5,6.5c0,3.6,2.9,6.5,6.5,6.5c3.6,0,6.5-2.9,6.5-6.5c0,0,0,0,0,0
	C45.5,57.9,42.6,55,39,55L39,55z M39,64.7c-1.8,0-3.2-1.4-3.3-3.2c0-1.8,1.4-3.2,3.2-3.3c1.8,0,3.2,1.4,3.3,3.2c0,0,0,0,0,0
	C42.3,63.3,40.8,64.7,39,64.7L39,64.7z M77.9,74.2l-2.1-7.8c-0.2-0.9-1.1-1.4-2-1.2c0,0,0,0,0,0l-4.4,1.2c0.1-3.1,0-6.2-0.2-9.3
	c-0.4-5.3-3.6-22.7-12.6-33.9V8.1C56.6,3.6,53,0,48.6,0c0,0,0,0,0,0H8.1C3.6,0,0,3.6,0,8.1v6.5c0,0.9,0.7,1.6,1.6,1.6h11.3v56.6
	c0,0.9,0.7,1.6,1.6,1.6c0,0,0,0,0,0h33.3l2,7.3c0.1,0.4,0.4,0.8,0.8,1c0.2,0.1,0.5,0.2,0.8,0.2c0.1,0,0.3,0,0.4-0.1l25-6.7
	C77.7,76,78.2,75.1,77.9,74.2L77.9,74.2z M55.7,52.4c0.6-0.3,1-0.8,1-1.5V28.9c2.9,4.7,5.1,9.8,6.6,15.2c1.3,4.4,2.2,8.9,2.7,13.4
	c0.3,3.3,0.3,6.6,0.2,9.9l-9,2.4c-0.9-6-3.3-11.6-7-16.4c0,0-5.4-5.5-5.4-5.5l2.3-2.4l6.8,6.6C54.4,52.5,55.1,52.7,55.7,52.4
	L55.7,52.4z M3.2,13V8.1c0-2.7,2.2-4.9,4.9-4.9h34c-1.1,1.4-1.6,3.1-1.6,4.9V13H3.2L3.2,13z M16.2,71.2v-55h25.9
	c0.9,0,1.6-0.7,1.6-1.6V9.7h4.9c0.9,0,1.6-0.7,1.6-1.6s-0.7-1.6-1.6-1.6H44c0.7-1.9,2.5-3.2,4.6-3.2c2.7,0,4.9,2.2,4.9,4.9v39
	l-7.9-7.6c-1.9-1.9-5-1.8-6.9,0.1c-1.9,1.9-1.8,4.9,0,6.8l9.1,9.1c3.3,4.4,5.5,9.6,6.3,15.1l-2.2,0.6H16.2L16.2,71.2z M44.7,43.3
	l-2.2,2.4L41,44.1c-0.3-0.3-0.5-0.7-0.5-1.1c0-0.9,0.7-1.6,1.6-1.6c0.4,0,0.8,0.2,1.2,0.5C43.3,41.9,44.7,43.3,44.7,43.3L44.7,43.3z
	 M52.5,79.4l-1.2-4.6l21.9-5.9l1.2,4.7L52.5,79.4z"/>
<g>
	<path d="M20.5,27.2c0-2.2,0.4-3.8,1.1-4.9c0.8-1.1,1.8-1.6,3.2-1.6c1.5,0,2.6,0.5,3.3,1.6c0.7,1.1,1.1,2.7,1.1,4.9
		c0,2.2-0.4,3.8-1.1,4.9c-0.8,1.1-1.8,1.6-3.2,1.6c-1.5,0-2.6-0.6-3.3-1.7C20.8,30.9,20.5,29.3,20.5,27.2z M22.8,27.2
		c0,1.5,0.2,2.6,0.5,3.4c0.3,0.8,0.8,1.2,1.6,1.2c0.7,0,1.2-0.4,1.5-1.1c0.3-0.7,0.5-1.9,0.5-3.5c0-1.4-0.2-2.6-0.5-3.3
		s-0.8-1.2-1.6-1.2c-0.7,0-1.2,0.4-1.5,1.1C22.9,24.5,22.8,25.6,22.8,27.2z"/>
	<path d="M30.8,23.7c0-0.5,0.1-1,0.2-1.4c0.2-0.4,0.4-0.7,0.6-0.9s0.6-0.4,1-0.5c0.4-0.1,0.8-0.2,1.3-0.2c0.5,0,0.9,0.1,1.3,0.2
		c0.4,0.1,0.7,0.3,1,0.5c0.3,0.2,0.5,0.6,0.7,0.9c0.2,0.4,0.2,0.9,0.3,1.4c0,0.6-0.1,1-0.3,1.4c-0.2,0.4-0.4,0.7-0.7,0.9
		c-0.3,0.2-0.6,0.4-1,0.5c-0.4,0.1-0.8,0.2-1.3,0.2c-0.5,0-0.9-0.1-1.3-0.2c-0.4-0.1-0.7-0.3-1-0.5c-0.3-0.2-0.5-0.6-0.6-0.9
		C30.9,24.8,30.8,24.3,30.8,23.7z M42,20.7l1.3,1.2L33,33.7l-1.3-1.2L42,20.7z M32.9,23.7c0,1,0.4,1.5,1.1,1.5
		c0.4,0,0.6-0.1,0.8-0.3c0.2-0.2,0.2-0.6,0.3-1.2c0-0.6-0.1-1-0.3-1.2c-0.2-0.2-0.4-0.3-0.8-0.3s-0.6,0.1-0.8,0.3
		C32.9,22.8,32.9,23.2,32.9,23.7z M38,30.4c0-0.5,0.1-1,0.2-1.4c0.2-0.4,0.4-0.7,0.6-0.9c0.3-0.3,0.6-0.4,1-0.5
		c0.4-0.1,0.8-0.2,1.3-0.2c0.5,0,0.9,0.1,1.3,0.2c0.4,0.1,0.7,0.3,1,0.5c0.3,0.2,0.5,0.6,0.7,0.9c0.2,0.4,0.2,0.9,0.3,1.4
		c0,0.6-0.1,1-0.3,1.4c-0.2,0.4-0.4,0.7-0.7,0.9c-0.3,0.2-0.6,0.4-1,0.5c-0.4,0.1-0.8,0.2-1.3,0.2c-0.5,0-0.9-0.1-1.3-0.2
		c-0.4-0.1-0.7-0.3-1-0.5c-0.3-0.2-0.5-0.6-0.6-0.9S38,30.9,38,30.4z M40.1,30.4c0,1,0.4,1.5,1.1,1.5c0.4,0,0.6-0.1,0.8-0.3
		s0.2-0.6,0.3-1.2c0-0.6-0.1-1-0.3-1.2s-0.4-0.3-0.8-0.3s-0.6,0.1-0.8,0.3C40.2,29.4,40.1,29.8,40.1,30.4z"/>
</g>
</svg>
