<?xml version="1.0" encoding="UTF-8"?>
<svg width="20px" height="24px" viewBox="0 0 20 24" version="1.1" xmlns="http://www.w3.org/2000/svg" xmlns:xlink="http://www.w3.org/1999/xlink">
    <!-- Generator: Sketch 52 (66869) - http://www.bohemiancoding.com/sketch -->
    <title>Shape</title>
    <desc>Created with Sketch.</desc>
    <g id="homepage-new" stroke="none" stroke-width="1" fill="none" fill-rule="evenodd">
        <g id="Main" transform="translate(-394.000000, -319.000000)" fill="#FF8F22" fill-rule="nonzero">
            <g id="Group-8" transform="translate(368.000000, 129.000000)">
                <path d="M33,194 C33,194.552344 32.5523438,195 32,195 C31.4478125,195 31,194.552344 31,194 C31,193.447656 31.4478125,193 32,193 C32.5523438,193 33,193.447656 33,194 Z M36,193 C35.4476563,193 35,193.447656 35,194 C35,194.552344 35.4476563,195 36,195 C36.5523438,195 37,194.552344 37,194 C37,193.447656 36.5523438,193 36,193 Z M40,193 C39.4476562,193 39,193.447656 39,194 C39,194.552344 39.4476562,195 40,195 C40.5521875,195 41,194.552344 41,194 C41,193.447656 40.5521875,193 40,193 Z M28,190 L44,190 C45.1045695,190 46,190.895431 46,192 L46,212 C46,213.104569 45.1045695,214 44,214 L28,214 C26.8954305,214 26,213.104569 26,212 L26,192 C26,190.895431 26.8954305,190 28,190 Z M28,196 L44,196 L44,193 C44,192.447715 43.5522847,192 43,192 L29,192 C28.4477153,192 28,192.447715 28,193 L28,196 Z M44,211 L44,198 L28,198 L28,211 C28,211.552285 28.4477153,212 29,212 L43,212 C43.5522847,212 44,211.552285 44,211 Z M41,205 C41,207.757037 38.7568391,210 36,210 C33.2429629,210 31,207.757037 31,205 C31,202.242963 33.2429629,200 36,200 C38.7568391,200 41,202.242963 41,205 Z M39,205 C39,203.345895 37.6541048,202 36,202 C34.3456954,202 33,203.345895 33,205 C33,206.654105 34.3456954,208 36,208 C37.6541048,208 39,206.654105 39,205 Z" id="Shape"></path>
            </g>
        </g>
    </g>
</svg>