<?xml version="1.0" encoding="UTF-8"?>
<svg width="24px" height="24px" viewBox="0 0 24 24" version="1.1" xmlns="http://www.w3.org/2000/svg" xmlns:xlink="http://www.w3.org/1999/xlink">
    <!-- Generator: Sketch 52 (66869) - http://www.bohemiancoding.com/sketch -->
    <title>steering-wheel (1)</title>
    <desc>Created with Sketch.</desc>
    <g id="homepage-new" stroke="none" stroke-width="1" fill="none" fill-rule="evenodd">
        <g id="Main" transform="translate(-392.000000, -607.000000)">
            <g id="Group-8" transform="translate(368.000000, 129.000000)">
                <g id="steering-wheel-(1)" transform="translate(24.000000, 478.000000)">
                    <path d="M12,0 C5.3925,0 0,5.39292188 0,12 C0,18.6075 5.39292188,24 12,24 C18.6075,24 24,18.6070781 24,12 C24,5.3925 18.6070781,0 12,0 Z M12,22.2222222 C6.36343953,22.2222222 1.77777778,17.6365605 1.77777778,12 C1.77777778,6.36343953 6.36343953,1.77777778 12,1.77777778 C17.6365605,1.77777778 22.2222222,6.36343953 22.2222222,12 C22.2222222,17.6365605 17.6365605,22.2222222 12,22.2222222 Z" id="Shape" fill="#FF8F22" fill-rule="nonzero"></path>
                    <path d="M12,4.31944444 C16.2417936,4.31944444 19.6805556,7.77337058 19.6805556,12 C19.6805556,16.2174127 16.2509709,19.6805556 12,19.6805556 C7.81760271,19.6805556 4.37860442,16.3096976 4.32078362,12.1070945 C4.32019281,12.0966962 4.32042913,12.0864161 4.32038974,12.0760966 C4.32015342,12.0506917 4.31944444,12.0254443 4.31944444,12 C4.31944444,7.77494608 7.75659152,4.31944444 12,4.31944444 Z M12,6.09722222 C8.73879095,6.09722222 6.09722222,8.75289708 6.09722222,12 C6.09722222,12.0195548 6.09776709,12.0389583 6.09794872,12.0584829 C6.09797899,12.0664138 6.09779736,12.0743145 6.09825142,12.0823059 C6.14268875,15.3121546 8.7856802,17.9027778 12,17.9027778 C15.267021,17.9027778 17.9027778,15.2412304 17.9027778,12 C17.9027778,8.75168625 15.2599679,6.09722222 12,6.09722222 Z M5.33333333,8.88888889 L18.6388552,8.88888889 L18.6657455,14.324894 C18.6704593,15.2778132 18.2221693,16.1762965 17.4579698,16.7455734 L15.2456407,18.3936088 L9.26636416,18.6666667 L7.03205807,16.9115665 C6.38609215,16.404145 5.97644545,15.6540445 5.8987087,14.8363003 L5.33333333,8.88888889 Z M6.7607654,16.520765 C7.52296748,16.520765 7.11316371,16.4897943 7.65413944,16.0347949 C8.33267611,15.4640969 8.76388889,14.6087949 8.76388889,13.6527778 C8.76388889,12.1584532 7.71035107,10.9101956 6.30552783,10.6102573 C6.09504315,10.5653176 5.48336863,12.1975225 5.7066854,12.1860383 C5.90801693,12.1756848 6.77049422,16.520765 6.7607654,16.520765 Z M15.0180665,18.1425695 C15.0180665,17.8270164 14.9391319,17.4770885 14.8517863,17.1900932 C14.4635258,15.9143694 13.2776661,14.9861111 11.875,14.9861111 C10.5148205,14.9861111 9.35851213,15.8589875 8.93567397,17.0751412 C8.8243704,17.3952691 8.76388889,17.7391825 8.76388889,18.0972222 C8.76388889,18.1216752 15.0180665,18.1557443 15.0180665,18.1425695 Z M18.2182248,14.6701912 C18.191305,14.6679459 18.1151777,10.5861786 18.0972222,10.5416667 C16.379003,10.5416667 14.9861111,11.9345586 14.9861111,13.6527778 C14.9861111,14.7429216 15.5468076,15.7021077 16.3955479,16.2576834 C16.8845411,16.5777728 17.5901494,14.6701912 18.2182248,14.6701912 Z" id="Shape" fill="#FF8F22" fill-rule="nonzero"></path>
                    <circle id="Oval" fill="#FFFFFF" cx="12" cy="12" r="1.33333333"></circle>
                </g>
            </g>
        </g>
    </g>
</svg>