<?xml version="1.0" encoding="utf-8"?>
<!-- Generator: Adobe Illustrator 21.0.0, SVG Export Plug-In . SVG Version: 6.00 Build 0)  -->
<svg version="1.1" id="Слой_1" xmlns="http://www.w3.org/2000/svg" xmlns:xlink="http://www.w3.org/1999/xlink" x="0px" y="0px"
	 viewBox="0 0 35 35" style="enable-background:new 0 0 35 35;" xml:space="preserve">
<style type="text/css">
	.st0{fill:#F2B568;}
	.st1{fill:none;stroke:#FFEEBC;stroke-width:4;}
	.st2{filter:url(#Adobe_OpacityMaskFilter);}
	.st3{fill:#FFFFFF;}
	.st4{mask:url(#mask-2);fill:#888888;}
	.st5{fill:#888888;}
	.st6{filter:url(#Adobe_OpacityMaskFilter_1_);}
	.st7{mask:url(#mask-4);fill:#888888;}
	.st8{filter:url(#Adobe_OpacityMaskFilter_2_);}
	.st9{mask:url(#mask-6);fill:#888888;}
	.st10{filter:url(#Adobe_OpacityMaskFilter_3_);}
	.st11{mask:url(#mask-8);fill:#888888;}
	.st12{filter:url(#Adobe_OpacityMaskFilter_4_);}
	.st13{mask:url(#mask-10);fill:#888888;}
</style>
<desc>Created with Sketch.</desc>
<g id="Page-1">
	<g id="Group">
		<circle id="Oval-2" class="st0" cx="18" cy="16" r="3"/>
		<circle id="Oval" class="st1" cx="17.5" cy="17.5" r="15.5"/>
		<g id="cddar">
			<g id="Group-3">
				<g id="Fill-1-Clipped">
					<g id="path-1_1_">
					</g>
					<defs>
						<filter id="Adobe_OpacityMaskFilter" filterUnits="userSpaceOnUse" x="0" y="0" width="35" height="35">
							<feColorMatrix  type="matrix" values="1 0 0 0 0  0 1 0 0 0  0 0 1 0 0  0 0 0 1 0"/>
						</filter>
					</defs>
					<mask maskUnits="userSpaceOnUse" x="0" y="0" width="35" height="35" id="mask-2">
						<g class="st2">
							<polygon id="path-1" class="st3" points="0,0 35,0 35,35 0,35 							"/>
						</g>
					</mask>
					<path id="Fill-1" class="st4" d="M17.5,33.5c-8.9,0-16-7.2-16-16c0-8.9,7.2-16,16-16c8.9,0,16,7.2,16,16
						C33.5,26.4,26.4,33.5,17.5,33.5 M17.5,0C7.8,0,0,7.8,0,17.5C0,27.2,7.8,35,17.5,35C27.2,35,35,27.2,35,17.5
						C35,7.8,27.2,0,17.5,0"/>
				</g>
			</g>
			<path id="Fill-4" class="st5" d="M22.6,28.8v-6.9c0,0,0-0.1,0-0.1c0-0.4,0.4-0.6,0.7-0.6h4.4c0.4,0,0.7-0.3,0.7-0.7
				c0-0.4-0.3-0.7-0.7-0.7h-4.4c0,0-0.1,0-0.1,0c-1.2,0-2.1,1-2.1,2.2v7.5c-1.2,0.4-2.4,0.5-3.6,0.5c-1.3,0-2.5-0.2-3.6-0.5v-7.5
				c0,0,0-0.1,0-0.1c0-1.2-1-2.1-2.2-2.1H7.3c-0.4,0-0.7,0.3-0.7,0.7c0,0.4,0.3,0.7,0.7,0.7h4.4c0,0,0.1,0,0.1,0
				c0.4,0,0.6,0.4,0.6,0.7v6.9c-4.3-1.9-7.3-6.3-7.3-11.3c0-1.8,0.4-3.5,1.1-5.1h6.2c0.4,0,0.7-0.3,0.7-0.7v-1.2c0,0,0,0,0-0.1
				c0.1-0.1,0.2-0.2,0.3-0.2h8c0.2,0,0.3,0.1,0.3,0.2c0,0,0,0,0,0.1v1.2c0,0.4,0.3,0.7,0.7,0.7h6.2c0.7,1.6,1.1,3.3,1.1,5.1
				C29.9,22.5,26.9,26.8,22.6,28.8 M17.5,5.1c4.4,0,8.3,2.3,10.5,5.8h-4.7v-0.7c0-0.2-0.1-0.4-0.2-0.5c-0.3-0.6-0.9-1-1.6-1h-8
				c-0.6,0-1.2,0.3-1.6,0.9c-0.2,0.1-0.3,0.3-0.3,0.6v0.7H7C9.2,7.4,13.1,5.1,17.5,5.1 M17.5,3.6C9.8,3.6,3.6,9.8,3.6,17.5
				s6.2,13.9,13.9,13.9c7.6,0,13.8-6.2,13.9-13.9C31.4,9.8,25.2,3.6,17.5,3.6"/>
			<path id="Fill-6" class="st5" d="M17.5,18.2c-1.2,0-2.2-1-2.2-2.2c0-1.2,1-2.2,2.2-2.2s2.2,1,2.2,2.2
				C19.7,17.2,18.7,18.2,17.5,18.2 M17.5,12.4c-2,0-3.6,1.6-3.6,3.6c0,2,1.6,3.6,3.6,3.6c2,0,3.6-1.6,3.6-3.6
				C21.1,14,19.5,12.4,17.5,12.4"/>
			<g id="Fill-8-Clipped">
				<g id="path-3_1_">
				</g>
				<defs>
					<filter id="Adobe_OpacityMaskFilter_1_" filterUnits="userSpaceOnUse" x="16.8" y="15.3" width="1.5" height="1.5">
						<feColorMatrix  type="matrix" values="1 0 0 0 0  0 1 0 0 0  0 0 1 0 0  0 0 0 1 0"/>
					</filter>
				</defs>
				<mask maskUnits="userSpaceOnUse" x="16.8" y="15.3" width="1.5" height="1.5" id="mask-4">
					<g class="st6">
						<polygon id="path-3" class="st3" points="0,35 35,35 35,0 0,0 						"/>
					</g>
				</mask>
				<polygon id="Fill-8" class="st7" points="16.8,16.8 18.2,16.8 18.2,15.3 16.8,15.3 				"/>
			</g>
			<g id="Fill-10-Clipped">
				<g id="path-3_2_">
				</g>
				<defs>
					<filter id="Adobe_OpacityMaskFilter_2_" filterUnits="userSpaceOnUse" x="15.3" y="21.9" width="4.4" height="5.8">
						<feColorMatrix  type="matrix" values="1 0 0 0 0  0 1 0 0 0  0 0 1 0 0  0 0 0 1 0"/>
					</filter>
				</defs>
				<mask maskUnits="userSpaceOnUse" x="15.3" y="21.9" width="4.4" height="5.8" id="mask-6">
					<g class="st8">
						<polygon id="path-5" class="st3" points="0,35 35,35 35,0 0,0 						"/>
					</g>
				</mask>
				<path id="Fill-10" class="st9" d="M16,23.3h0.7V27c0,0.4,0.3,0.7,0.7,0.7s0.7-0.3,0.7-0.7v-3.6H19c0.4,0,0.7-0.3,0.7-0.7
					c0-0.4-0.3-0.7-0.7-0.7H16c-0.4,0-0.7,0.3-0.7,0.7C15.3,23,15.6,23.3,16,23.3"/>
			</g>
			<g id="Fill-11-Clipped">
				<g id="path-3_3_">
				</g>
				<defs>
					<filter id="Adobe_OpacityMaskFilter_3_" filterUnits="userSpaceOnUse" x="23.3" y="13.9" width="4.4" height="4.4">
						<feColorMatrix  type="matrix" values="1 0 0 0 0  0 1 0 0 0  0 0 1 0 0  0 0 0 1 0"/>
					</filter>
				</defs>
				<mask maskUnits="userSpaceOnUse" x="23.3" y="13.9" width="4.4" height="4.4" id="mask-8">
					<g class="st10">
						<polygon id="path-7" class="st3" points="0,35 35,35 35,0 0,0 						"/>
					</g>
				</mask>
				<path id="Fill-11" class="st11" d="M25.5,16.8c-0.4,0-0.7-0.3-0.7-0.7c0-0.4,0.3-0.7,0.7-0.7c0.4,0,0.7,0.3,0.7,0.7
					C26.2,16.4,25.9,16.8,25.5,16.8 M25.5,13.9c-1.2,0-2.2,1-2.2,2.2s1,2.2,2.2,2.2s2.2-1,2.2-2.2S26.7,13.9,25.5,13.9"/>
			</g>
			<g id="Fill-12-Clipped">
				<g id="path-3_4_">
				</g>
				<defs>
					<filter id="Adobe_OpacityMaskFilter_4_" filterUnits="userSpaceOnUse" x="7.3" y="13.9" width="4.4" height="4.4">
						<feColorMatrix  type="matrix" values="1 0 0 0 0  0 1 0 0 0  0 0 1 0 0  0 0 0 1 0"/>
					</filter>
				</defs>
				<mask maskUnits="userSpaceOnUse" x="7.3" y="13.9" width="4.4" height="4.4" id="mask-10">
					<g class="st12">
						<polygon id="path-9" class="st3" points="0,35 35,35 35,0 0,0 						"/>
					</g>
				</mask>
				<path id="Fill-12" class="st13" d="M9.5,16.8c-0.4,0-0.7-0.3-0.7-0.7c0-0.4,0.3-0.7,0.7-0.7c0.4,0,0.7,0.3,0.7,0.7
					C10.2,16.4,9.9,16.8,9.5,16.8 M9.5,13.9c-1.2,0-2.2,1-2.2,2.2s1,2.2,2.2,2.2s2.2-1,2.2-2.2S10.7,13.9,9.5,13.9"/>
			</g>
		</g>
	</g>
</g>
</svg>
