<?xml version="1.0" encoding="UTF-8"?>
<svg width="24px" height="21px" viewBox="0 0 24 21" version="1.1" xmlns="http://www.w3.org/2000/svg" xmlns:xlink="http://www.w3.org/1999/xlink">
    <!-- Generator: Sketch 52 (66869) - http://www.bohemiancoding.com/sketch -->
    <title>Fill 332</title>
    <desc>Created with Sketch.</desc>
    <g id="homepage-new" stroke="none" stroke-width="1" fill="none" fill-rule="evenodd">
        <g id="Main" transform="translate(-392.000000, -174.000000)" fill="#FF8F22">
            <g id="Group-8" transform="translate(368.000000, 129.000000)">
                <g id="Fill-332" transform="translate(24.000000, 45.000000)">
                    <path d="M2,13 L21.997,13 L21.997,15 L2,15 L2,13 Z M22,2 L21.998,11 L2,11 L2,2 L22,2 Z M2,0 C0.897,0 0,0.897 0,2 L0,15 C0,16.103 0.897,17 2,17 L11,17 L11,19 L8.0093689,19 C7.45190985,19 7,19.4438648 7,20 L7,20 C7,20.5522847 7.4556644,21 7.99539757,21 L16.0046024,21 C16.5543453,21 17,20.5561352 17,20 L17,20 C17,19.4477153 16.5566468,19 15.9906311,19 L13,19 L13,17 L22,17 C23.103,17 24,16.103 24,15 L24,2 C24,0.897 23.103,0 22,0 L2,0 Z"></path>
                </g>
            </g>
        </g>
    </g>
</svg>