<?xml version="1.0" encoding="utf-8"?>
<!-- Generator: Adobe Illustrator 21.0.0, SVG Export Plug-In . SVG Version: 6.00 Build 0)  -->
<svg version="1.1" id="Слой_1" xmlns="http://www.w3.org/2000/svg" xmlns:xlink="http://www.w3.org/1999/xlink" x="0px" y="0px"
	 viewBox="0 0 35 35" style="enable-background:new 0 0 35 35;" xml:space="preserve">
<style type="text/css">
	.st0{fill:url(#SVGID_1_);}
	.st1{fill:url(#SVGID_2_);}
	.st2{fill:url(#SVGID_3_);}
	.st3{fill:#F8B96B;}
	.st4{fill:#888888;}
</style>
<desc>Created with Sketch.</desc>
<linearGradient id="SVGID_1_" gradientUnits="userSpaceOnUse" x1="11.667" y1="34.7283" x2="11.667" y2="25.4974">
	<stop  offset="0" style="stop-color:#F7DB87"/>
	<stop  offset="0.4974" style="stop-color:#FFFFFF"/>
</linearGradient>
<rect x="0.7" y="25.5" class="st0" width="21.9" height="9.2"/>
<linearGradient id="SVGID_2_" gradientUnits="userSpaceOnUse" x1="-1.5602" y1="13.3791" x2="12.488" y2="8.2659">
	<stop  offset="0" style="stop-color:#F7DB87"/>
	<stop  offset="0.4974" style="stop-color:#FFFFFF"/>
</linearGradient>
<rect x="1.4" class="st1" width="8" height="21.6"/>
<linearGradient id="SVGID_3_" gradientUnits="userSpaceOnUse" x1="14.5303" y1="16.7532" x2="32.1418" y2="-0.8582">
	<stop  offset="0" style="stop-color:#F7DB87"/>
	<stop  offset="0.4974" style="stop-color:#FFFFFF"/>
</linearGradient>
<rect x="12.8" y="0.9" class="st2" width="21.2" height="14.1"/>
<path class="st3" d="M32.5,18.2H14.2c-1,0-1.8-0.8-1.8-1.8v0c0-1,0.8-1.8,1.8-1.8h18.4c1,0,1.8,0.8,1.8,1.8v0
	C34.3,17.4,33.5,18.2,32.5,18.2z"/>
<path class="st3" d="M7.7,8.2H2.5c-1,0-1.8-0.8-1.8-1.8v0c0-1,0.8-1.8,1.8-1.8h5.2c1,0,1.8,0.8,1.8,1.8v0C9.5,7.4,8.7,8.2,7.7,8.2z"
	/>
<g id="homepage">
	<g id="d" transform="translate(-487.000000, -340.000000)">
		<g id="icon-01" transform="translate(487.000000, 340.000000)">
			<path id="Shape" class="st4" d="M32.8,0h-19c-1.2,0-2.2,1-2.2,2.2v14.6c0,1.2,1,2.2,2.2,2.2h6.6v1.5h-0.7c-0.4,0-0.7,0.3-0.7,0.7
				c0,0.4,0.3,0.7,0.7,0.7H27c0.4,0,0.7-0.3,0.7-0.7c0-0.4-0.3-0.7-0.7-0.7h-0.7V19h6.6c1.2,0,2.2-1,2.2-2.2V2.2C35,1,34,0,32.8,0z
				 M13.1,2.2c0-0.4,0.3-0.7,0.7-0.7h19c0.4,0,0.7,0.3,0.7,0.7v11.7H13.1V2.2z M24.8,20.4h-2.9V19h2.9V20.4z M32.8,17.5h-19
				c-0.4,0-0.7-0.3-0.7-0.7v-1.5h20.4v1.5C33.5,17.2,33.2,17.5,32.8,17.5z"/>
			<rect id="Rectangle-path" x="4.4" y="10.2" class="st4" width="1.5" height="1.5"/>
			<path id="Shape_1_" class="st4" d="M21.1,24.8h-4.5c-0.3-1.3-1.5-2.2-2.8-2.2H7.3c-0.5,0-1-0.3-1.3-0.7h2c1.2,0,2.2-1,2.2-2.2
				V2.2c0-0.6-0.2-1.1-0.6-1.5C9.2,0.2,8.6,0,8,0H2.2C1.6,0,1.1,0.2,0.6,0.6S0,1.6,0,2.2v17.5c0,1.2,1,2.2,2.2,2.2h2.3
				c0.3,1.3,1.5,2.2,2.8,2.2h6.6c0.5,0,1,0.3,1.3,0.7H2.2c-0.6,0-1.1,0.2-1.5,0.6S0,26.4,0,27v5.8C0,34,1,35,2.2,35h19
				c1.2,0,2.2-1,2.2-2.2V27c0-0.6-0.2-1.1-0.6-1.5C22.3,25,21.7,24.8,21.1,24.8z M1.5,2.2c0-0.4,0.3-0.7,0.7-0.7H8
				c0.4,0,0.7,0.3,0.7,0.7v1.5H1.5V2.2z M1.5,5.1h7.3v2.2H1.5V5.1z M2.2,20.4c-0.4,0-0.7-0.3-0.7-0.7V8.8h7.3v10.9
				c0,0.4-0.3,0.7-0.7,0.7L2.2,20.4z M21.9,32.8c0,0.4-0.3,0.7-0.7,0.7h-19c-0.4,0-0.7-0.3-0.7-0.7V27c0-0.4,0.3-0.7,0.7-0.7h19
				c0.4,0,0.7,0.3,0.7,0.7V32.8z"/>
			<path id="Shape_2_" class="st4" d="M30.6,24.1c-2.4,0-4.4,2-4.4,4.4v2.2c0,2.4,2,4.4,4.4,4.4s4.4-2,4.4-4.4v-2.2
				C35,26,33,24.1,30.6,24.1z M33.5,30.6c0,1.1-0.5,2-1.4,2.6s-2,0.5-2.9,0c-0.9-0.5-1.5-1.5-1.4-2.6v-2.2c0-1.3,0.9-2.5,2.2-2.8
				v2.1h1.5v-2.1c1.3,0.3,2.2,1.5,2.2,2.8L33.5,30.6z"/>
			<rect id="Rectangle-path_1_" x="3.6" y="27.7" class="st4" width="2.9" height="1.5"/>
			<rect id="Rectangle-path_2_" x="3.6" y="30.6" class="st4" width="2.9" height="1.5"/>
			<rect id="Rectangle-path_3_" x="8" y="27.7" class="st4" width="2.9" height="1.5"/>
			<rect id="Rectangle-path_4_" x="8" y="30.6" class="st4" width="2.9" height="1.5"/>
			<rect id="Rectangle-path_5_" x="12.4" y="27.7" class="st4" width="2.9" height="1.5"/>
			<rect id="Rectangle-path_6_" x="12.4" y="30.6" class="st4" width="2.9" height="1.5"/>
			<rect id="Rectangle-path_7_" x="16.8" y="27.7" class="st4" width="2.9" height="1.5"/>
			<rect id="Rectangle-path_8_" x="16.8" y="30.6" class="st4" width="2.9" height="1.5"/>
		</g>
	</g>
</g>
</svg>
