<?xml version="1.0" encoding="utf-8"?>
<!-- Generator: Adobe Illustrator 21.0.0, SVG Export Plug-In . SVG Version: 6.00 Build 0)  -->
<svg version="1.1" id="Capa_1" xmlns="http://www.w3.org/2000/svg" xmlns:xlink="http://www.w3.org/1999/xlink" x="0px" y="0px"
	 viewBox="0 0 512 512" style="enable-background:new 0 0 512 512;" xml:space="preserve">
<style type="text/css">
	.st0{fill:url(#SVGID_1_);}
	.st1{fill:url(#SVGID_2_);}
	.st2{fill:#F8B96B;}
	.st3{fill:#888888;}
</style>
<linearGradient id="SVGID_1_" gradientUnits="userSpaceOnUse" x1="131.0272" y1="347.437" x2="298.647" y2="347.437" gradientTransform="matrix(1 0 0 -1 0 514)">
	<stop  offset="0" style="stop-color:#F7DB87"/>
	<stop  offset="0.7376" style="stop-color:#FFFFFF"/>
</linearGradient>
<rect x="130.7" y="83" class="st0" width="167.1" height="167.2"/>
<linearGradient id="SVGID_2_" gradientUnits="userSpaceOnUse" x1="101.1599" y1="186.4682" x2="210.546" y2="186.4682" gradientTransform="matrix(1 0 0 -1 0 514)">
	<stop  offset="0" style="stop-color:#F7DB87"/>
	<stop  offset="0.7376" style="stop-color:#FFFFFF"/>
</linearGradient>
<polygon class="st1" points="100.9,254.1 210,254.1 172,401 100.9,401 "/>
<path class="st2" d="M352.7,222L311,250.2c-6.5,0-6.4-158.5,0.1-158.5l52.5,27C370.2,118.7,359.2,222,352.7,222z"/>
<path class="st2" d="M231.8,455H74.5c-6.5,0,6.7-49.8,13.3-49.8h108.3C202.7,405.2,238.3,455,231.8,455z"/>
<g>
	<g>
		<path class="st3" d="M469,160.3h-50.6c-4.2-12.8-16.2-22-30.4-22h-12v-18.1c0-3.3-1.7-6.5-4.4-8.3l-60-40.1c0,0,0,0,0,0l0,0
			c-1.6-1.1-3.5-1.7-5.6-1.7H98c-54,0-98,44-98,98c0,50,37.6,91.3,86,97.3V390c-1.3,1-2.5,2.4-3.2,4l-28,64
			c-1.4,3.1-1.1,6.7,0.8,9.5s5,4.5,8.4,4.5h173c5.5,0,10-4.5,10-10c0-35.9-25.7-65.9-59.6-72.6l18-75.3h25.5
			c13.8,0,25.1-11.2,25.1-25.1v-17.9c0-1.7-0.2-3.4-0.5-5.1H306c2.1,0,4-0.6,5.6-1.7c0,0,0,0,0,0l0,0c0,0,0,0,0,0l60-40.1
			c2.8-1.9,4.4-5,4.4-8.3v-13.7h12c14.2,0,26.2-9.2,30.4-22H469c5.5,0,10-4.5,10-10C479,164.8,474.5,160.3,469,160.3z M20,168.1
			c0-43,35-78,78-78h20v156H98C55,246.1,20,211.1,20,168.1z M226.1,452H79.3l19.2-44H173C199.4,408,221.4,427,226.1,452z M167.2,388
			H106v-10.9h18.2c5.5,0,10-4.5,10-10s-4.5-10-10-10H106v-20h18.2c5.5,0,10-4.5,10-10s-4.5-10-10-10H106v-20h18.2
			c5.5,0,10-4.5,10-10s-4.5-10-10-10H106v-10.9h90.3L167.2,388z M236,289.1c0,2.8-2.3,5.1-5.1,5.1h-20.7l6.7-28h14
			c2.8,0,5.1,2.3,5.1,5.1V289.1z M296,246.1H138v-156h158V246.1z M356,148.3v44v18.3l-40,26.8V98.8l40,26.8V148.3z M388,182.3h-12
			v-24h12c6.6,0,12,5.4,12,12S394.6,182.3,388,182.3z"/>
	</g>
</g>
<g>
	<g>
		<path class="st3" d="M214,116.6h-51c-5.5,0-10,4.5-10,10s4.5,10,10,10h51c5.5,0,10-4.5,10-10S219.5,116.6,214,116.6z"/>
	</g>
</g>
<g>
	<g>
		<path class="st3" d="M263.1,119.5c-1.9-1.9-4.4-2.9-7.1-2.9s-5.2,1.1-7.1,2.9c-1.9,1.9-2.9,4.4-2.9,7.1c0,2.6,1.1,5.2,2.9,7.1
			c1.9,1.9,4.4,2.9,7.1,2.9s5.2-1.1,7.1-2.9c1.9-1.9,2.9-4.4,2.9-7.1S264.9,121.4,263.1,119.5z"/>
	</g>
</g>
<g>
	<g>
		<path class="st3" d="M214,156.6h-51c-5.5,0-10,4.5-10,10s4.5,10,10,10h51c5.5,0,10-4.5,10-10S219.5,156.6,214,156.6z"/>
	</g>
</g>
<g>
	<g>
		<path class="st3" d="M214,196.6h-51c-5.5,0-10,4.5-10,10s4.5,10,10,10h51c5.5,0,10-4.5,10-10S219.5,196.6,214,196.6z"/>
	</g>
</g>
<g>
	<g>
		<path class="st3" d="M438,202.1c-5.5,0-10,4.5-10,10V296c0,5.5,4.5,10,10,10s10-4.5,10-10v-83.9C448,206.6,443.5,202.1,438,202.1z
			"/>
	</g>
</g>
<g>
	<g>
		<path class="st3" d="M445.1,326.9c-1.9-1.9-4.4-2.9-7.1-2.9s-5.2,1.1-7.1,2.9c-1.9,1.9-2.9,4.4-2.9,7.1s1.1,5.2,2.9,7.1
			c1.9,1.9,4.4,2.9,7.1,2.9s5.2-1.1,7.1-2.9c1.9-1.9,2.9-4.4,2.9-7.1S446.9,328.8,445.1,326.9z"/>
	</g>
</g>
<g>
	<g>
		<path class="st3" d="M502,0h-64c-5.5,0-10,4.5-10,10v116.6c0,5.5,4.5,10,10,10s10-4.5,10-10V20h44v472h-44V377.4
			c0-5.5-4.5-10-10-10s-10,4.5-10,10V502c0,5.5,4.5,10,10,10h64c5.5,0,10-4.5,10-10V10C512,4.5,507.5,0,502,0z"/>
	</g>
</g>
<g>
	<g>
		<path class="st3" d="M98,202.1c-18.7,0-34-15.3-34-34c0-5.5-4.5-10-10-10s-10,4.5-10,10c0,29.8,24.2,54,54,54c5.5,0,10-4.5,10-10
			S103.5,202.1,98,202.1z"/>
	</g>
</g>
<g>
	<g>
		<path class="st3" d="M395.1,268.9c-3.9-3.9-10.2-3.9-14.1,0l-11.5,11.5c-3.9,3.9-3.9,10.2,0,14.1c2,2,4.5,2.9,7.1,2.9
			s5.1-1,7.1-2.9l11.5-11.5C399,279.2,399,272.8,395.1,268.9z"/>
	</g>
</g>
<g>
	<g>
		<path class="st3" d="M366,328c-5.5,0-10,4.5-10,10v14.3c0,5.5,4.5,10,10,10s10-4.5,10-10V338C376,332.5,371.5,328,366,328z"/>
	</g>
</g>
<g>
	<g>
		<path class="st3" d="M373.1,409.7c-3.9-3.9-10.2-3.9-14.1,0l-5.1,5.1c-3.9,3.9-3.9,10.2,0,14.1c2,2,4.5,2.9,7.1,2.9s5.1-1,7.1-2.9
			l5.1-5.1C377,419.9,377,413.6,373.1,409.7z"/>
	</g>
</g>
<g>
	<g>
		<path class="st3" d="M405.1,75.1l-9.2-9.2c-3.9-3.9-10.2-3.9-14.1,0c-3.9,3.9-3.9,10.2,0,14.1l9.2,9.2c2,2,4.5,2.9,7.1,2.9
			s5.1-1,7.1-2.9C409,85.3,409,79,405.1,75.1z"/>
	</g>
</g>
</svg>
