<?xml version="1.0" encoding="UTF-8"?>
<svg width="24px" height="21px" viewBox="0 0 24 21" version="1.1" xmlns="http://www.w3.org/2000/svg" xmlns:xlink="http://www.w3.org/1999/xlink">
    <!-- Generator: Sketch 52 (66869) - http://www.bohemiancoding.com/sketch -->
    <title>printer</title>
    <desc>Created with Sketch.</desc>
    <g id="homepage-new" stroke="none" stroke-width="1" fill="none" fill-rule="evenodd">
        <g id="Main" transform="translate(-392.000000, -539.000000)">
            <g id="Group-8" transform="translate(368.000000, 129.000000)">
                <g id="printer" transform="translate(24.000000, 408.000000)">
                    <rect id="cont" fill="#181818" opacity="0" x="0" y="0" width="24" height="24"></rect>
                    <path d="M19,18 L19,15.9970301 C19,15.4530363 18.5492199,15 17.9931545,15 L6.00684547,15 C5.44994876,15 5,15.4463856 5,15.9970301 L5,18 L2.00246167,18 C1.44881738,18 1,17.555163 1,17.0044225 L1,7.9955775 C1,7.44573523 1.43945834,7 2.00246167,7 L21.9975383,7 C22.5511826,7 23,7.44483697 23,7.9955775 L23,17.0044225 C23,17.5542648 22.5605417,18 21.9975383,18 L19,18 Z" id="Rectangle-39" stroke="#FF8F22" stroke-width="2" stroke-linejoin="round"></path>
                    <rect id="Rectangle-39-Copy" stroke="#FF8F22" stroke-width="2" x="5" y="3" width="14" height="4" rx="1"></rect>
                    <rect id="Rectangle-39-Copy-3" stroke="#FF8F22" stroke-width="2" stroke-linecap="round" stroke-linejoin="round" x="5" y="15" width="14" height="7" rx="1"></rect>
                    <circle id="Oval-38" stroke="#FF8F22" stroke-linecap="round" stroke-linejoin="round" cx="18" cy="10.3636364" r="1.09090909"></circle>
                </g>
            </g>
        </g>
    </g>
</svg>