<?xml version="1.0" encoding="utf-8"?>
<!-- Generator: Adobe Illustrator 19.2.1, SVG Export Plug-In . SVG Version: 6.00 Build 0)  -->
<svg version="1.1" id="Слой_1" xmlns="http://www.w3.org/2000/svg" xmlns:xlink="http://www.w3.org/1999/xlink" x="0px" y="0px"
	 viewBox="0 0 41 38" style="enable-background:new 0 0 41 38;" xml:space="preserve">
<path d="M17.2,30.8c-2,0-3.6,1.6-3.6,3.6c0,2,1.6,3.6,3.6,3.6s3.6-1.6,3.6-3.6c0,0,0,0,0,0C20.8,32.4,19.2,30.8,17.2,30.8z M17.2,36
	c-0.9,0-1.6-0.7-1.6-1.6s0.7-1.6,1.6-1.6c0.9,0,1.6,0.7,1.6,1.6c0,0,0,0,0,0C18.8,35.3,18.1,36,17.2,36C17.2,36,17.2,36,17.2,36z
	 M29.8,30.8c-2,0-3.6,1.6-3.6,3.6c0,2,1.6,3.6,3.6,3.6s3.6-1.6,3.6-3.6c0,0,0,0,0,0C33.4,32.4,31.8,30.8,29.8,30.8L29.8,30.8z
	 M29.8,36c-0.9,0-1.6-0.7-1.6-1.6s0.7-1.6,1.6-1.6c0.9,0,1.6,0.7,1.6,1.6c0,0,0,0,0,0C31.4,35.3,30.7,36,29.8,36L29.8,36z
	 M30.7,11.8H16.3c-0.6,0-1,0.5-1,1s0.5,1,1,1h14.4c0.6,0,1-0.5,1-1S31.3,11.8,30.7,11.8L30.7,11.8z M29.9,17H17.1c-0.6,0-1,0.5-1,1
	s0.5,1,1,1h12.9c0.6,0,1-0.5,1-1S30.5,17,29.9,17L29.9,17z M40.5,7.3c-0.4-0.5-1-0.7-1.6-0.7H7.6L7,3.4C6.9,2.8,6.4,2.3,5.8,2
	L1.4,0.1c-0.5-0.2-1.1,0-1.3,0.5c0,0,0,0,0,0c-0.2,0.5,0,1.1,0.5,1.3L5,3.9l4.9,23.7c0.2,0.9,1,1.6,2,1.6H36c0.6,0,1-0.5,1-1
	s-0.5-1-1-1H11.9l-0.6-2.9h24.9c1,0,1.8-0.7,2-1.6L41,8.9C41.1,8.4,40.9,7.7,40.5,7.3L40.5,7.3z M36.2,22.2H10.9L8,8.5H39L36.2,22.2
	z"/>
</svg>
