<?xml version="1.0" encoding="utf-8"?>
<!-- Generator: Adobe Illustrator 19.2.1, SVG Export Plug-In . SVG Version: 6.00 Build 0)  -->
<svg version="1.1" id="Слой_1" xmlns="http://www.w3.org/2000/svg" xmlns:xlink="http://www.w3.org/1999/xlink" x="0px" y="0px"
	 viewBox="0 0 43 42" style="enable-background:new 0 0 43 42;" xml:space="preserve">
<path id="Forma_1" d="M42,34.4h-6.5v-8.2c0.2-0.1,0.5-0.1,0.8-0.1c0.6,0,1-0.5,1-1v-2.5c0-2.8-2.3-5.1-5.2-5.1h-7.9v-5.8
	c0-0.6-0.5-1-1-1h-3.3c-0.6,0-1,0.5-1,1v5.8h-7.9c-2.8,0-5.1,2.3-5.2,5.1V25c0,0.6,0.5,1,1,1c0.3,0,0.5,0,0.8,0.1v8.2H1
	c-0.6,0-1,0.5-1,1s0.5,1,1,1h2.6l0.9,4.7c0.1,0.5,0.5,0.8,1,0.8h31.9c0.5,0,0.9-0.3,1-0.8l0.9-4.7H42c0.6,0,1-0.4,1-1
	C43,34.9,42.5,34.4,42,34.4z M20.9,12.7h1.2v4.7h-1.2V12.7z M7.8,22.6c0-1.7,1.4-3.1,3.1-3.1h21.2c1.7,0,3.1,1.4,3.1,3.1v1.6
	c-0.8,0.2-1.5,0.6-2.1,1.2c-0.9,1-2.5,1-3.5,0.1c0,0-0.1-0.1-0.1-0.1c-1.7-1.7-4.5-1.7-6.2,0c-0.9,1-2.5,1-3.5,0.1
	c0,0-0.1-0.1-0.1-0.1c-1.7-1.7-4.5-1.7-6.2,0c-0.9,1-2.5,1-3.5,0.1c0,0-0.1-0.1-0.1-0.1c-0.6-0.6-1.3-1-2.1-1.2L7.8,22.6L7.8,22.6
	L7.8,22.6z M9.6,27.6c0.6,0.4,1.4,0.5,2.1,0.5c1.2,0,2.3-0.4,3.1-1.3c0.9-1,2.4-1.1,3.4-0.2c0.1,0,0.1,0.1,0.2,0.2
	c1.7,1.7,4.5,1.7,6.2,0c0.9-1,2.4-1.1,3.4-0.2c0.1,0,0.1,0.1,0.2,0.2c0.8,0.8,1.9,1.3,3.1,1.3c0.7,0,1.5-0.2,2.1-0.5v6.8H9.6
	L9.6,27.6L9.6,27.6z M36.6,39.9H6.4l-0.7-3.5h31.6L36.6,39.9z M21.5,9.6c2.1,0,3.8-1.7,3.8-3.8v0c0-1.8-2.3-4.6-3-5.5
	c-0.4-0.4-1-0.5-1.4-0.1c0,0-0.1,0.1-0.1,0.1c-0.7,0.8-3,3.7-3,5.5C17.7,7.9,19.4,9.6,21.5,9.6L21.5,9.6z M21.5,2.7
	c0.8,0.9,1.4,2,1.7,3.2c0,1-0.8,1.7-1.7,1.7c-1,0-1.7-0.8-1.7-1.7C20.1,4.7,20.7,3.6,21.5,2.7L21.5,2.7z"/>
</svg>
