<svg id="Группа_33" data-name="Группа 33" xmlns="http://www.w3.org/2000/svg" width="30" height="22" viewBox="0 0 30 22">
  <defs>
    <style>
      .cls-1 {
        fill: #f7941d;
      }

      .cls-1, .cls-2, .cls-3, .cls-4 {
        fill-rule: evenodd;
      }

      .cls-2 {
        fill: #fcb116;
      }

      .cls-3 {
        fill: #fff;
      }
    </style>
  </defs>
  <path id="Forma_1_copy_4" data-name="Forma 1 copy 4" class="cls-1" d="M2531.99,771.467a1,1,0,0,0-1.08-.47h-25.84a1,1,0,0,0-1.08.47v13.059a0.994,0.994,0,0,0,1.08.471h25.84a0.994,0.994,0,0,0,1.08-.471V771.467h0Z" transform="translate(-2503 -770)"/>
  <path id="Forma_1_copy_4-2" data-name="Forma 1 copy 4" class="cls-2" d="M2531.99,771.333a1.141,1.141,0,0,0-1.08-.336h-25.84a1.141,1.141,0,0,0-1.08.336v9.327a1.138,1.138,0,0,0,1.08.337h25.84a1.138,1.138,0,0,0,1.08-.337v-9.327h0Z" transform="translate(-2503 -770)"/>
  <path id="Forma_1_copy_5" data-name="Forma 1 copy 5" class="cls-3" d="M2528.99,771.165a1.324,1.324,0,0,0-.89-0.168h-21.22a1.324,1.324,0,0,0-.89.168v4.664a1.331,1.331,0,0,0,.89.168h21.22a1.331,1.331,0,0,0,.89-0.168v-4.664h0Z" transform="translate(-2503 -770)"/>
  <path id="Forma_1" data-name="Forma 1" class="cls-4" d="M2530.93,770h-25.88a2.037,2.037,0,0,0-2.06,2.014v10.377a3.386,3.386,0,0,0,3.42,3.347h23.16a3.386,3.386,0,0,0,3.42-3.347V772.01A2.037,2.037,0,0,0,2530.93,770Zm-23.48,1.616h21.08v1.9a1.372,1.372,0,0,1-1.39,1.356h-18.31a1.37,1.37,0,0,1-1.38-1.356v-1.9h0Zm23.89,10.775a1.756,1.756,0,0,1-1.77,1.731h-23.16a1.75,1.75,0,0,1-1.77-1.731V772.01a0.4,0.4,0,0,1,.41-0.4h0.75v1.9a3,3,0,0,0,3.03,2.971h18.31a3.007,3.007,0,0,0,3.04-2.971v-1.9h0.75a0.408,0.408,0,0,1,.41.4v10.377h0Zm-2.99-2.808h-20.73a0.808,0.808,0,1,0,0,1.615h20.73A0.808,0.808,0,1,0,2528.35,779.579Zm-15.43,8.7a0.9,0.9,0,0,1-.08-0.044,0.806,0.806,0,0,0,.46-0.994,0.832,0.832,0,0,0-1.04-.515,1.834,1.834,0,0,0-1.33,1.338,1.763,1.763,0,0,0,1.18,1.623,0.789,0.789,0,0,1,.34.281,1.2,1.2,0,0,1-.44.572,0.8,0.8,0,0,0-.16,1.132,0.829,0.829,0,0,0,.66.321,0.854,0.854,0,0,0,.5-0.164,2.542,2.542,0,0,0,1.08-1.969A1.968,1.968,0,0,0,2512.92,788.283Zm5.47,0a0.624,0.624,0,0,1-.07-0.044,0.8,0.8,0,0,0,.45-0.994,0.824,0.824,0,0,0-1.04-.515,1.84,1.84,0,0,0-1.32,1.338,1.748,1.748,0,0,0,1.18,1.623,0.645,0.645,0,0,1,.33.281,1.106,1.106,0,0,1-.43.572,0.8,0.8,0,0,0-.16,1.132,0.829,0.829,0,0,0,.66.321,0.854,0.854,0,0,0,.5-0.164,2.542,2.542,0,0,0,1.08-1.969A1.962,1.962,0,0,0,2518.39,788.283Zm5.48,0c-0.03-.016-0.05-0.03-0.08-0.044a0.806,0.806,0,0,0,.46-0.994,0.828,0.828,0,0,0-1.04-.515,1.81,1.81,0,0,0-1.32,1.338,1.736,1.736,0,0,0,1.17,1.623,0.71,0.71,0,0,1,.34.281,1.106,1.106,0,0,1-.43.572,0.787,0.787,0,0,0-.16,1.132,0.829,0.829,0,0,0,.66.321,0.8,0.8,0,0,0,.49-0.164,2.572,2.572,0,0,0,1.09-1.969A1.962,1.962,0,0,0,2523.87,788.283Z" transform="translate(-2503 -770)"/>
</svg>
