<svg xmlns="http://www.w3.org/2000/svg" width="42" height="24" viewBox="0 0 42 24">
  <defs>
    <style>
      .cls-1 {
        fill-rule: evenodd;
        opacity: 0.6;
      }
    </style>
  </defs>
  <path id="Forma_1" data-name="Forma 1" class="cls-1" d="M5572.65,1200.53a1.478,1.478,0,0,0-1.15-.53h-25.43a1.918,1.918,0,0,0-1.83,1.55l-3.62,20.66a1.559,1.559,0,0,0,.32,1.26,1.483,1.483,0,0,0,1.16.53h25.43a1.9,1.9,0,0,0,1.82-1.55l3.62-20.66A1.524,1.524,0,0,0,5572.65,1200.53Zm-11.75.84-0.81,4.65-0.06-.03a0.659,0.659,0,0,0-.61-0.02l-0.76.34-0.59-.32a0.658,0.658,0,0,0-.61-0.02l-0.75.34-0.59-.32a0.684,0.684,0,0,0-.33-0.09,0.508,0.508,0,0,0-.17.03l0.8-4.56h4.48Zm10.73,0.18-3.62,20.66a0.541,0.541,0,0,1-.48.42H5542.1a0.147,0.147,0,0,1-.12-0.04,0.2,0.2,0,0,1-.02-0.14l3.62-20.66a0.552,0.552,0,0,1,.49-0.42h8.97l-0.98,5.59a0.667,0.667,0,0,0,.25.66,0.638,0.638,0,0,0,.41.14,0.717,0.717,0,0,0,.29-0.06l0.75-.35,0.59,0.33a0.689,0.689,0,0,0,.61.02l0.76-.35,0.59,0.33a0.689,0.689,0,0,0,.61.02l0.75-.35,0.6,0.33a0.669,0.669,0,0,0,.99-0.48l1.03-5.83h9.21a0.128,0.128,0,0,1,.11.04A0.2,0.2,0,0,1,5571.63,1201.55Zm-29.84,4.97a0.681,0.681,0,0,0-.68-0.68h-7.98a0.685,0.685,0,0,0,0,1.37h7.98A0.683,0.683,0,0,0,5541.79,1206.52Zm-2.13,8.08h-3.63a0.685,0.685,0,0,0,0,1.37h3.63A0.685,0.685,0,0,0,5539.66,1214.6Zm1.41-3.69a0.689,0.689,0,0,0-.68-0.69h-5.81a0.685,0.685,0,0,0,0,1.37h5.81A0.687,0.687,0,0,0,5541.07,1210.91Zm1.45-8.77a0.687,0.687,0,0,0-.68-0.68h-10.16a0.685,0.685,0,0,0,0,1.37h10.16A0.689,0.689,0,0,0,5542.52,1202.14Z" transform="translate(-5531 -1200)"/>
</svg>
