<?xml version="1.0" encoding="utf-8"?>
<!-- Generator: Adobe Illustrator 19.2.1, SVG Export Plug-In . SVG Version: 6.00 Build 0)  -->
<svg version="1.1" id="Слой_1" xmlns="http://www.w3.org/2000/svg" xmlns:xlink="http://www.w3.org/1999/xlink" x="0px" y="0px"
	 viewBox="0 0 10.9 10.9" width="12" height="12" style="enable-background:new 0 0 10.9 10.9;" xml:space="preserve">
<style type="text/css">
	.st0{fill:#9D9D9D;}
</style>
<path class="st0" d="M6.2,10.7L3.7,8.2H1.4C0.7,8.2,0,7.6,0,6.9V1.4C0,0.6,0.6,0,1.4,0c0,0,0,0,0,0h8.1c0,0,0,0,0,0
	c0.8,0,1.4,0.6,1.4,1.4v5.5c0,0.8-0.6,1.4-1.4,1.4c0,0,0,0,0,0H8.8L6.2,10.7z M4.7,7.5L6.2,9l1.6-1.6L8.3,7h1.2
	c0.1,0,0.2-0.1,0.2-0.2V1.4c0-0.1-0.1-0.2-0.2-0.2h0H1.4c-0.1,0-0.2,0.1-0.2,0.2v5.5C1.2,7,1.3,7,1.4,7c0,0,0,0,0,0h2.8L4.7,7.5z"/>
<rect x="2.4" y="2.3" class="st0" width="5.6" height="1.2"/>
<rect x="2.4" y="4.4" class="st0" width="4.4" height="1.2"/>
</svg>
