<svg xmlns="http://www.w3.org/2000/svg" width="40" height="42.97" viewBox="0 0 40 42.97">
  <defs>
    <style>
      .cls-1 {
        fill: #f7941d;
        fill-rule: evenodd;
      }
    </style>
  </defs>
  <path id="Forma_1" data-name="Forma 1" class="cls-1" d="M2883.03,1290.21a0.94,0.94,0,0,0-.96.92v11.4h-7.95v-14.09h0v-1.76h8.91a0.921,0.921,0,1,0,0-1.84h-9.87a0.94,0.94,0,0,0-.96.92v0.47l-6.13-5.86a3.373,3.373,0,0,0-3.46-.71,9.413,9.413,0,0,0,3.13-7.01,9.664,9.664,0,0,0-5.31-8.54,1,1,0,0,0-.95.02,0.891,0.891,0,0,0-.48.79v8.18h-6.89v-8.18a0.9,0.9,0,0,0-.47-0.79,1,1,0,0,0-.95-0.02,9.674,9.674,0,0,0-5.32,8.54,9.5,9.5,0,0,0,3.63,7.44v2.39h-1.74a3.205,3.205,0,0,0-3.27,3.13v0.04a3.07,3.07,0,0,0,.96,2.21,3.03,3.03,0,0,0-.96,2.2v0.05a3.03,3.03,0,0,0,.96,2.2,3.07,3.07,0,0,0-.96,2.21v0.04a3.024,3.024,0,0,1,0,4.42v0.04a3.212,3.212,0,0,0,3.27,3.13h1.9a6.448,6.448,0,0,0,6.34,4.85h0.11a6.438,6.438,0,0,0,6.34-4.85h7.68a0.921,0.921,0,1,0,0-1.84h-7.52v-7.58a0.961,0.961,0,0,0-1.92,0v8.06a4.487,4.487,0,0,1-4.58,4.37h-0.11a4.566,4.566,0,0,1-4.35-3.01h1.51a3.214,3.214,0,0,0,3.28-3.13v-0.04a3.024,3.024,0,0,1,0-4.42v-0.04a3.07,3.07,0,0,0-.96-2.21,3.03,3.03,0,0,0,.96-2.2v-0.05a3.03,3.03,0,0,0-.96-2.2,3.07,3.07,0,0,0,.96-2.21v-0.04a3.208,3.208,0,0,0-3.28-3.13h-1.73v-2.83a0.892,0.892,0,0,0-.38-0.73,7.663,7.663,0,0,1-.36-12.26v7.35a0.94,0.94,0,0,0,.96.92h8.82a0.94,0.94,0,0,0,.96-0.92v-7.35a7.663,7.663,0,0,1-.36,12.26,0.892,0.892,0,0,0-.38.73v1.92l-2.56,2.45a3.024,3.024,0,0,0,0,4.42l0.03,0.03a3.373,3.373,0,0,0,4.63,0l1.91-1.83a0.884,0.884,0,0,0,0-1.3,0.991,0.991,0,0,0-1.36,0l-1.91,1.83a1.4,1.4,0,0,1-1.91,0l-0.03-.03a1.235,1.235,0,0,1,0-1.82l3.82-3.65a1.391,1.391,0,0,1,1.9,0h0l7.49,7.15v14.63a0.94,0.94,0,0,0,.96.92h9.87a0.94,0.94,0,0,0,.96-0.92v-12.32A0.94,0.94,0,0,0,2883.03,1290.21Zm-29.02-.15v0.05a1.312,1.312,0,0,1-1.35,1.28h-5.4a1.309,1.309,0,0,1-1.34-1.28v-0.05a1.309,1.309,0,0,1,1.34-1.28h5.4A1.312,1.312,0,0,1,2854.01,1290.06Zm0,4.46v0.04a1.32,1.32,0,0,1-1.35,1.29h-5.4a1.317,1.317,0,0,1-1.34-1.29v-0.04a1.317,1.317,0,0,1,1.34-1.29h5.4A1.32,1.32,0,0,1,2854.01,1294.52Zm0,4.5a1.32,1.32,0,0,1-1.35,1.29h-5.4a1.317,1.317,0,0,1-1.34-1.29v-0.04a1.317,1.317,0,0,1,1.34-1.29h5.4a1.32,1.32,0,0,1,1.35,1.29v0.04h0Zm0-13.41v0.04a1.32,1.32,0,0,1-1.35,1.29h-5.4a1.317,1.317,0,0,1-1.34-1.29v-0.04a1.317,1.317,0,0,1,1.34-1.29h5.4A1.32,1.32,0,0,1,2854.01,1285.61Z" transform="translate(-2844 -1264.03)"/>
</svg>
