<svg id="Группа_38" data-name="Группа 38" xmlns="http://www.w3.org/2000/svg" width="25" height="25" viewBox="0 0 25 25">
  <defs>
    <style>
      .cls-1 {
        fill: #f7941d;
      }

      .cls-1, .cls-2, .cls-3 {
        fill-rule: evenodd;
      }

      .cls-2 {
        fill: #fcb116;
      }
    </style>
  </defs>
  <path id="Forma_1_copy_9" data-name="Forma 1 copy 9" class="cls-1" d="M2915.47,940.508a0.715,0.715,0,0,0-1.17-.241l-3.55,3.547a0.724,0.724,0,0,1-1.02,0l-1.56-1.562a0.718,0.718,0,0,1,0-1.015l3.55-3.548a0.746,0.746,0,0,0,.2-0.652,0.733,0.733,0,0,0-.44-0.523,7.19,7.19,0,0,0-9.87,6.668v2.578l-7.67,7.67a3.264,3.264,0,0,0,4.62,4.612l7.67-7.671h2.57a7.318,7.318,0,0,0,1.13-.087A7.175,7.175,0,0,0,2915.47,940.508Z" transform="translate(-2892 -935)"/>
  <path id="Forma_1_copy_10" data-name="Forma 1 copy 10" class="cls-2" d="M2914.52,941.116a0.662,0.662,0,0,0-1.08-.22l-3.24,3.239a0.648,0.648,0,0,1-.92,0l-1.43-1.427a0.66,0.66,0,0,1,0-.927l3.24-3.239a0.655,0.655,0,0,0-.22-1.073,6.55,6.55,0,0,0-8.92,5.057,6.019,6.019,0,0,0-.09,1.031v2.354l-7,7a2.977,2.977,0,0,0,4.21,4.21l7.01-7h2.35a6.87,6.87,0,0,0,1.03-.079,6.566,6.566,0,0,0,5.36-4.964A6.7,6.7,0,0,0,2914.52,941.116Z" transform="translate(-2892 -935)"/>
  <path id="Forma_1_copy" data-name="Forma 1 copy" class="cls-3" d="M2895.9,955.309a0.781,0.781,0,1,1-.78.781A0.781,0.781,0,0,1,2895.9,955.309Zm20.52-15.409a0.765,0.765,0,0,0-.56-0.474,0.774,0.774,0,0,0-.71.212l-3.86,3.856a0.777,0.777,0,0,1-1.1,0l-1.7-1.7a0.777,0.777,0,0,1,0-1.1l3.86-3.856a0.8,0.8,0,0,0,.21-0.709,0.771,0.771,0,0,0-.48-0.569,7.8,7.8,0,0,0-10.62,6.021,8.507,8.507,0,0,0-.1,1.228v2.8l-8.33,8.337a3.543,3.543,0,1,0,5.01,5.012l8.34-8.337h2.8a7.8,7.8,0,0,0,7.6-6A7.767,7.767,0,0,0,2916.42,939.9Zm-1.16,4.365a6.237,6.237,0,0,1-5.09,4.718,6.6,6.6,0,0,1-.99.076h-3.13a0.775,0.775,0,0,0-.55.229l-8.57,8.566a1.98,1.98,0,0,1-2.8-2.8l8.57-8.567a0.77,0.77,0,0,0,.23-0.553v-3.125a6.665,6.665,0,0,1,.07-0.992,6.243,6.243,0,0,1,4.72-5.089,6.4,6.4,0,0,1,1.45-.167,6.286,6.286,0,0,1,1.14.1l-2.92,2.925a2.335,2.335,0,0,0,0,3.314l1.69,1.7a2.354,2.354,0,0,0,3.32,0l2.92-2.924A6.29,6.29,0,0,1,2915.26,944.265Z" transform="translate(-2892 -935)"/>
</svg>
