<svg id="Группа_36" data-name="Группа 36" xmlns="http://www.w3.org/2000/svg" width="23" height="26" viewBox="0 0 23 26">
  <defs>
    <style>
      .cls-1 {
        fill: #f7941d;
      }

      .cls-1, .cls-2, .cls-3, .cls-4 {
        fill-rule: evenodd;
      }

      .cls-2 {
        fill: #fcb116;
      }

      .cls-3 {
        fill: #fff;
      }
    </style>
  </defs>
  <path id="Forma_1_copy_7" data-name="Forma 1 copy 7" class="cls-1" d="M2527.99,937.77a0.814,0.814,0,0,0-.85-0.773h-20.3a0.814,0.814,0,0,0-.85.773v21.454a0.814,0.814,0,0,0,.85.773h20.3a0.814,0.814,0,0,0,.85-0.773V937.77h0Z" transform="translate(-2506 -935)"/>
  <path id="Forma_1_copy_7-2" data-name="Forma 1 copy 7" class="cls-2" d="M2527.99,937.548a0.751,0.751,0,0,0-.85-0.551h-20.3a0.751,0.751,0,0,0-.85.551v15.326a0.751,0.751,0,0,0,.85.551h20.3a0.751,0.751,0,0,0,.85-0.551V937.548h0Z" transform="translate(-2506 -935)"/>
  <path id="Forma_1_copy_8" data-name="Forma 1 copy 8" class="cls-3" d="M2524.99,952.165a0.64,0.64,0,0,0-.58-0.168h-13.84a0.64,0.64,0,0,0-.58.168v4.662a0.644,0.644,0,0,0,.58.167h13.84a0.644,0.644,0,0,0,.58-0.167v-4.662h0Z" transform="translate(-2506 -935)"/>
  <path id="Forma_1" data-name="Forma 1" class="cls-4" d="M2528.19,935h-21.4a0.812,0.812,0,0,0-.8.822v24.355a0.813,0.813,0,0,0,.8.823h21.4a0.813,0.813,0,0,0,.8-0.823V935.819A0.812,0.812,0,0,0,2528.19,935Zm-0.81,1.645v6.122H2507.6v-6.122h19.78Zm-19.78,22.711V944.409h19.78v14.944H2507.6Zm3.84-20.624a0.974,0.974,0,1,1-.95.974A0.965,0.965,0,0,1,2511.44,938.729Zm3.66,0a0.974,0.974,0,1,1-.95.974A0.959,0.959,0,0,1,2515.1,938.729Zm4.78,0a0.974,0.974,0,1,1-.95.974A0.959,0.959,0,0,1,2519.88,938.729Zm3.66,0a0.974,0.974,0,1,1-.96.974A0.959,0.959,0,0,1,2523.54,938.729Zm0.95,12.131h-14a0.814,0.814,0,0,0-.81.822v4.72a0.814,0.814,0,0,0,.81.822h14a0.814,0.814,0,0,0,.81-0.822v-4.72A0.814,0.814,0,0,0,2524.49,950.86Zm-0.8,4.72h-12.4v-3.075h12.4v3.075Zm0.8-8.586h-14a0.823,0.823,0,0,0,0,1.645h14A0.823,0.823,0,0,0,2524.49,946.994Z" transform="translate(-2506 -935)"/>
</svg>
