<svg id="Группа_35" data-name="Группа 35" xmlns="http://www.w3.org/2000/svg" width="19" height="29" viewBox="0 0 19 29">
  <defs>
    <style>
      .cls-1 {
        fill: #f7941d;
      }

      .cls-1, .cls-2, .cls-3, .cls-4 {
        fill-rule: evenodd;
      }

      .cls-2 {
        fill: #fcb116;
      }

      .cls-3 {
        fill: #fff;
      }
    </style>
  </defs>
  <path id="Forma_1_copy_11" data-name="Forma 1 copy 11" class="cls-1" d="M2154.99,934.9a0.817,0.817,0,0,0-.66-0.907h-15.69a0.811,0.811,0,0,0-.65.907v25.185a0.812,0.812,0,0,0,.65.908h15.69a0.818,0.818,0,0,0,.66-0.908V934.9h0Z" transform="translate(-2137 -933)"/>
  <path id="Forma_1_copy_11-2" data-name="Forma 1 copy 11" class="cls-2" d="M2154.99,934.77a0.726,0.726,0,0,0-.66-0.773h-15.69a0.719,0.719,0,0,0-.65.773v21.459a0.719,0.719,0,0,0,.65.773h15.69a0.726,0.726,0,0,0,.66-0.773V934.77h0Z" transform="translate(-2137 -933)"/>
  <path id="Forma_1_copy_12" data-name="Forma 1 copy 12" class="cls-3" d="M2154.99,937.568a0.623,0.623,0,0,0-.66-0.571h-15.69a0.614,0.614,0,0,0-.65.571v15.861a0.614,0.614,0,0,0,.65.572h15.69a0.624,0.624,0,0,0,.66-0.572V937.568h0Z" transform="translate(-2137 -933)"/>
  <path id="Forma_1" data-name="Forma 1" class="cls-4" d="M2154.09,933h-15.2a1.887,1.887,0,0,0-1.9,1.874v25.251a1.888,1.888,0,0,0,1.9,1.875h15.2a1.888,1.888,0,0,0,1.9-1.875V934.871A1.887,1.887,0,0,0,2154.09,933Zm-15.2,1.874h15.2v1.751h-15.2v-1.751Zm15.2,3.626v14h-15.2v-14h15.2Zm-15.2,21.625v-5.75h15.2v5.75h-15.2Z" transform="translate(-2137 -933)"/>
  <circle cx="9.5" cy="24.5" r="1.5"/>
</svg>
