<?xml version="1.0" encoding="iso-8859-1"?>
<!-- Generator: Adobe Illustrator 19.2.1, SVG Export Plug-In . SVG Version: 6.00 Build 0)  -->
<svg version="1.1" id="&#x421;&#x43B;&#x43E;&#x439;_1"
	 xmlns="http://www.w3.org/2000/svg" xmlns:xlink="http://www.w3.org/1999/xlink" x="0px" y="0px" viewBox="0 0 463 463"
	 style="enable-background:new 0 0 463 463;" xml:space="preserve">
<style type="text/css">
	.st0{fill:#868686;}
</style>
<g>
	<path class="st0" d="M241.1,0C144.3,0,65.6,78.7,65.6,175.5c0,44.6,21.4,99.4,63.7,163c33.9,51.1,72.8,94.8,93,116.3
		c4.9,5.2,11.7,8.2,18.8,8.2s13.9-3,18.8-8.2c20.2-21.5,59.1-65.3,93-116.3c42.3-63.6,63.7-118.4,63.7-163
		C416.6,78.7,337.9,0,241.1,0L241.1,0z M340.4,330.2c-33.3,50.2-71.6,93.2-91.5,114.4c-2.1,2.2-4.8,3.4-7.8,3.4s-5.8-1.2-7.8-3.4
		c-19.8-21.2-58.1-64.2-91.5-114.4c-40.6-61.1-61.2-113.1-61.2-154.7C80.6,87,152.6,15,241.1,15s160.5,72,160.5,160.5
		C401.6,217.1,381,269.1,340.4,330.2L340.4,330.2z"/>
</g>
<path class="st0" d="M241.1,241.2c-39.59,0-71.8-32.21-71.8-71.8c0-39.59,32.21-71.8,71.8-71.8c39.59,0,71.8,32.21,71.8,71.8
	C312.9,208.99,280.69,241.2,241.1,241.2z M241.1,114.6c-30.22,0-54.8,24.58-54.8,54.8s24.58,54.8,54.8,54.8s54.8-24.58,54.8-54.8
	S271.32,114.6,241.1,114.6z"/>
</svg>
