<?xml version="1.0" encoding="iso-8859-1"?>
<!-- Generator: Adobe Illustrator 19.2.1, SVG Export Plug-In . SVG Version: 6.00 Build 0)  -->
<svg version="1.1" id="&#x421;&#x43B;&#x43E;&#x439;_1"
	 xmlns="http://www.w3.org/2000/svg" xmlns:xlink="http://www.w3.org/1999/xlink" x="0px" y="0px" viewBox="0 0 463 463"
	 style="enable-background:new 0 0 463 463;" xml:space="preserve">
<style type="text/css">
	.st0{fill:#868686;}
</style>
<g>
	<path class="st0" d="M423.77,357.17L304.43,237.83c-4.27-4.27-9.47-7.05-14.95-8.35l53.38-53.38c0.08-0.09,0.35-0.13,0.67-0.05
		c27.27,6.95,56.36-0.7,75.92-19.97c13.89-13.69,22.24-31.93,23.52-51.37c0.43-6.59-3.16-12.6-9.14-15.31
		c-5.92-2.68-12.71-1.44-17.31,3.17l-25.23,25.23l-36.26-9.71l-9.71-36.26l25.23-25.23c4.6-4.6,5.85-11.4,3.17-17.32
		c-2.71-5.98-8.72-9.55-15.29-9.14c-19.23,1.26-37.33,9.47-50.97,23.1c-19.91,19.91-27.8,49.24-20.6,76.54
		c0.09,0.33,0.04,0.6-0.04,0.68l-77.87,77.87L102.48,91.87c4.35-8.79,2.89-19.74-4.42-27.05c-0.35-0.35-0.73-0.66-1.14-0.94
		L62.97,41.26c-2.97-1.99-6.93-1.59-9.46,0.94L42.2,53.51c-2.53,2.53-2.92,6.49-0.94,9.46l22.63,33.94
		c0.27,0.41,0.59,0.79,0.94,1.14c4.58,4.58,10.6,6.87,16.62,6.87c3.58,0,7.15-0.83,10.43-2.45l106.44,106.44L120.24,287
		c-0.08,0.08-0.35,0.13-0.67,0.05c-27.28-6.95-56.36,0.7-75.92,19.98c-13.89,13.69-22.24,31.93-23.52,51.37
		c-0.43,6.59,3.16,12.6,9.15,15.31c5.91,2.68,12.71,1.44,17.31-3.17l25.23-25.23l36.26,9.72l9.71,36.26l-25.22,25.23
		c-4.6,4.6-5.85,11.4-3.17,17.32c2.56,5.66,8.07,9.18,14.23,9.18c0.35,0,0.71-0.01,1.06-0.03c19.23-1.26,37.33-9.46,50.97-23.1
		c19.91-19.91,27.8-49.24,20.6-76.54c-0.09-0.33-0.04-0.59,0.04-0.68l53.15-53.15c1.33,5.61,4.19,10.76,8.37,14.94l119.34,119.34
		c6.14,6.14,14.21,9.21,22.27,9.21s16.13-3.07,22.27-9.21l22.06-22.06c5.95-5.95,9.23-13.86,9.23-22.27
		C433,371.03,429.72,363.12,423.77,357.17L423.77,357.17z M75.89,87.88L57.15,59.77l2.62-2.62l28.11,18.74
		c2.88,3.34,2.74,8.4-0.43,11.56S79.23,90.76,75.89,87.88z M259.89,237.83l-22.06,22.06c-0.21,0.21-0.42,0.43-0.62,0.65l-6.05-6.04
		c-1.61-1.61-2.49-3.74-2.49-6.01c0-1.96,0.66-3.82,1.88-5.33l12.6-12.6c1.51-1.22,3.37-1.88,5.33-1.88c2.27,0,4.4,0.88,6.01,2.49
		l6.05,6.05l-0.01,0.01C260.31,237.42,260.1,237.62,259.89,237.83L259.89,237.83z M297.39,131.05c3.87-3.87,5.38-9.66,3.94-15.11
		c-5.85-22.15,0.55-45.95,16.7-62.1c11.06-11.06,25.75-17.72,41.35-18.74c0.2-0.02,0.47-0.03,0.65,0.36
		c0.13,0.28,0.05,0.36-0.11,0.52l-28.29,28.29c-1.89,1.9-2.64,4.66-1.94,7.25l11.96,44.62c0.69,2.59,2.71,4.61,5.3,5.3l44.62,11.96
		c2.59,0.69,5.35-0.05,7.24-1.94l28.29-28.29c0.16-0.16,0.24-0.24,0.51-0.11c0.4,0.18,0.38,0.46,0.37,0.66
		c-1.04,15.76-7.81,30.56-19.08,41.67c-15.84,15.61-39.47,21.79-61.68,16.12c-5.49-1.4-11.09,0.09-14.98,3.98l-61.11,61.11
		l-6.05-6.04c-2.08-2.08-4.48-3.71-7.08-4.87l61.61-61.61c2.93-2.93,2.93-7.68,0-10.61c-2.93-2.93-7.68-2.93-10.61,0l-77.51,77.43
		l-11.98-11.98L297.39,131.05L297.39,131.05z M165.7,332.04c-3.87,3.87-5.38,9.66-3.94,15.11c5.85,22.16-0.55,45.95-16.71,62.1
		c-11.06,11.06-25.75,17.72-41.35,18.74c-0.2,0.02-0.47,0.03-0.65-0.36c-0.13-0.28-0.05-0.36,0.11-0.52l28.29-28.29
		c1.9-1.9,2.64-4.66,1.94-7.24l-11.96-44.62c-0.69-2.59-2.71-4.61-5.3-5.3L71.51,329.7c-0.64-0.17-1.29-0.26-1.94-0.26
		c-1.96,0-3.88,0.77-5.3,2.2l-28.29,28.29c-0.16,0.16-0.23,0.23-0.51,0.11c-0.4-0.18-0.38-0.47-0.37-0.67
		c1.04-15.76,7.81-30.56,19.08-41.67c15.83-15.61,39.47-21.79,61.68-16.12c5.49,1.4,11.09-0.09,14.98-3.98l78.08-78.08l11.98,11.98
		l-77.43,77.51c-2.93,2.93-2.93,7.68,0,10.61c1.46,1.46,3.38,2.2,5.3,2.2s3.84-0.73,5.3-2.2l61.61-61.61
		c1.16,2.61,2.79,5.01,4.87,7.08l6.05,6.05L165.7,332.04L165.7,332.04z M413.17,391.11l-22.06,22.06c-6.43,6.43-16.9,6.43-23.33,0
		L248.43,293.83c-3.12-3.12-4.83-7.26-4.83-11.67c0-4.26,1.61-8.25,4.53-11.33l22.69-22.69c3.17-3.01,7.25-4.53,11.34-4.53
		c4.23,0,8.45,1.61,11.67,4.82l119.34,119.34c3.12,3.12,4.83,7.26,4.83,11.67C418,383.85,416.28,387.99,413.17,391.11L413.17,391.11
		z"/>
	<path class="st0" d="M281.18,270.58c-2.93-2.93-7.68-2.93-10.61,0c-2.93,2.93-2.93,7.68,0,10.61l108.93,108.93
		c1.46,1.46,3.38,2.2,5.3,2.2s3.84-0.73,5.3-2.2c2.93-2.93,2.93-7.68,0-10.61L281.18,270.58z"/>
</g>
</svg>
