<svg id="Группа_32" data-name="Группа 32" xmlns="http://www.w3.org/2000/svg" width="21" height="24" viewBox="0 0 21 24">
  <defs>
    <style>
      .cls-1 {
        fill: #f7941d;
      }

      .cls-1, .cls-2, .cls-4 {
        fill-rule: evenodd;
      }

      .cls-2 {
        fill: #fcb116;
      }

      .cls-3 {
        fill: #fff;
        stroke: #000;
        stroke-width: 1.84px;
      }
    </style>
  </defs>
  <path id="Forma_1_copy_2" data-name="Forma 1 copy 2" class="cls-1" d="M2156.99,767.8a0.807,0.807,0,0,0-.81-0.807H2136.8a0.807,0.807,0,0,0-.81.807V790.19a0.806,0.806,0,0,0,.81.806h19.38a0.806,0.806,0,0,0,.81-0.806V767.8h0Z" transform="translate(-2136 -767)"/>
  <path id="Forma_1_copy_3" data-name="Forma 1 copy 3" class="cls-2" d="M2156.99,767.669a0.749,0.749,0,0,0-.81-0.672H2136.8a0.749,0.749,0,0,0-.81.672v18.656a0.749,0.749,0,0,0,.81.672h19.38a0.75,0.75,0,0,0,.81-0.672V767.669h0Z" transform="translate(-2136 -767)"/>
  <circle class="cls-3" cx="11" cy="15" r="5"/>
  <path id="Forma_1" data-name="Forma 1" class="cls-4" d="M2156.99,767.8a0.807,0.807,0,0,0-.81-0.807H2136.8a0.807,0.807,0,0,0-.81.807V790.19a0.806,0.806,0,0,0,.81.806h19.38a0.806,0.806,0,0,0,.81-0.806V767.8h0Zm-1.65.834v5.828c-1.1-.584-6.99-1.268-9.85-1.268-2.91,0-6.82.7-7.92,1.29v-5.85h17.77Zm-17.77,20.717V776.413a21.711,21.711,0,0,1,7.92-1.6,39.5,39.5,0,0,1,9.85,1.575v12.969h-17.77Zm14.9-19.324a1.024,1.024,0,1,1-1.02,1.024A1.026,1.026,0,0,1,2152.47,770.031Zm-12.65,1.8h3.56a0.79,0.79,0,1,0,0-1.58h-3.56A0.79,0.79,0,1,0,2139.82,771.827Z" transform="translate(-2136 -767)"/>
</svg>
