<svg xmlns="http://www.w3.org/2000/svg" width="512" height="512" viewBox="0 0 512 512">
  <metadata><?xpacket begin="﻿" id="W5M0MpCehiHzreSzNTczkc9d"?>
<x:xmpmeta xmlns:x="adobe:ns:meta/" x:xmptk="Adobe XMP Core 5.6-c138 79.159824, 2016/09/14-01:09:01        ">
   <rdf:RDF xmlns:rdf="http://www.w3.org/1999/02/22-rdf-syntax-ns#">
      <rdf:Description rdf:about=""/>
   </rdf:RDF>
</x:xmpmeta>
                                                                                                    
                                                                                                    
                                                                                                    
                                                                                                    
                                                                                                    
                                                                                                    
                                                                                                    
                                                                                                    
                                                                                                    
                                                                                                    
                                                                                                    
                                                                                                    
                                                                                                    
                                                                                                    
                                                                                                    
                                                                                                    
                                                                                                    
                                                                                                    
                                                                                                    
                                                                                                    
                           
<?xpacket end="w"?></metadata>
<defs>
    <style>
      .cls-1 {
        fill-rule: evenodd;
      }
    </style>
  </defs>
  <path class="cls-1" d="M492.539,400.56l-100.4-100.321a30.79,30.79,0,0,0-43.47,0l-26.109,26.088a30.71,30.71,0,0,0-7.779,30.241l-9.851,9.843-0.008.008c-7,7-50.564-3.741-103.228-56.363s-63.408-96.139-56.412-103.142a0,0,0,0,1,0,0l9.86-9.851a30.781,30.781,0,0,0,30.265-7.773L211.514,163.2a30.728,30.728,0,0,0,0-43.433L111.111,19.443a30.757,30.757,0,0,0-43.467,0L41.532,45.533a30.713,30.713,0,0,0-7.779,30.241S25.4,84.2,24.987,84.73C-2.788,115.579-8,164.147,10.414,222.216,28.446,279.073,67.317,339.3,119.87,391.81S232.7,483.158,289.6,501.177C312.461,508.414,333.845,512,353.264,512c31.839,0,58.384-9.648,77.412-28.66l5.479-5.474a30.874,30.874,0,0,0,8.539,1.213,30.551,30.551,0,0,0,21.733-8.994L492.538,444A30.731,30.731,0,0,0,492.539,400.56ZM89.377,41.159L189.782,141.483l-26.095,26.1-0.014-.014L163.3,167.2,113.47,117.41l-50.2-50.161ZM408.944,461.623l0,0c-22.112,22.091-61.2,25.74-110.05,10.27-52.294-16.558-108.152-52.714-157.283-101.8S56.288,265.19,39.718,212.937C24.235,164.12,27.887,125.068,50,102.971l0,0,2.772-2.77,77.92,77.855-7.146,7.141-0.015.017c-29.609,29.622,5.967,96.147,56.423,146.562,37.764,37.734,84.561,67.139,118.146,67.139,11.293,0,21.093-3.325,28.551-10.778l0.008-.008L333.8,381l77.92,77.855ZM444.7,448.368L344.291,348.045,370.4,321.957,470.805,422.278S444.705,448.377,444.7,448.368Zm-55.98-325.182A153.8,153.8,0,0,0,279.284,77.893a15.356,15.356,0,1,0,0,30.712,123.968,123.968,0,0,1,124.022,123.92,15.369,15.369,0,0,0,30.737,0A153.562,153.562,0,0,0,388.716,123.186Zm55.122-55.077A231.292,231.292,0,0,0,279.278,0a15.356,15.356,0,1,0,0,30.712A201.9,201.9,0,0,1,481.26,232.53a15.369,15.369,0,0,0,30.737,0A230.909,230.909,0,0,0,443.838,68.109ZM333.591,178.261a75.311,75.311,0,0,0-54.3-22.477h-0.006a15.356,15.356,0,1,0,0,30.712h0a44.589,44.589,0,0,1,32.565,13.481,45.1,45.1,0,0,1,13.49,32.544,15.364,15.364,0,0,0,15.367,15.358h0a15.362,15.362,0,0,0,15.368-15.354A75.2,75.2,0,0,0,333.591,178.261Z"/>
</svg>
