<svg viewBox="0 0 22 22" version="1.1" xmlns="http://www.w3.org/2000/svg" xmlns:xlink="http://www.w3.org/1999/xlink"><g fill-rule="evenodd"><g><path d="M2,5.00585866 L2,14.9941413 C2,15.5519165 2.44487071,16 2.99079514,16 L19.0092049,16 C19.5507318,16 20,15.548414 20,14.9941413 L20,5.00585866 C20,4.44808353 19.5551293,4 19.0092049,4 L2.99079514,4 C2.44926822,4 2,4.45158603 2,5.00585866 Z M1,5.00585866 C1,3.89805351 1.89821238,3 2.99079514,3 L19.0092049,3 C20.1086907,3 21,3.89706013 21,5.00585866 L21,14.9941413 C21,16.1019465 20.1017876,17 19.0092049,17 L2.99079514,17 C1.89130934,17 1,16.1029399 1,14.9941413 L1,5.00585866 Z" fill-rule="nonzero"></path><path d="M4,13 L15,13 L15,6 L4,6 L4,13 Z M3,5 L16,5 L16,14 L3,14 L3,5 Z" fill-rule="nonzero"></path><circle cx="18" cy="6" r="1"></circle><circle cx="18" cy="9" r="1"></circle><circle cx="18" cy="13" r="1"></circle><rect x="3" y="16" width="3" height="3" rx="1"></rect><rect x="16" y="16" width="3" height="3" rx="1"></rect></g></g></svg>