<svg xmlns="http://www.w3.org/2000/svg" viewBox="0 0 22 22"><g fill-rule="evenodd"><path d="M6.43142857 4.47645161C6.54971429 4.48109677 6.66742857 4.4903871 6.78514286 4.5083871 7.08057143 4.55425806 7.36857143 4.64890323 7.63428571 4.78767742 8.17542857 5.06929032 8.61942857 5.53090323 8.88342857 6.08774194 9.00342857 6.34090323 9.08628571 6.61148387 9.128 6.88903226 9.17085714 7.17529032 9.17085714 7.46793548 9.128 7.75419355 9.08628571 8.03174194 9.00342857 8.30290323 8.88342857 8.55548387 8.73714286 8.8643871 8.53542857 9.14483871 8.29142857 9.38174194 8.04685714 9.61864516 7.76057143 9.80967742 7.44914286 9.94380645 7.10514286 10.091871 6.73257143 10.1679355 6.35942857 10.1679355 5.98571429 10.1679355 5.61314286 10.091871 5.26914286 9.94380645 4.95828571 9.80967742 4.67142857 9.61864516 4.42685714 9.38174194 4.18342857 9.14483871 3.98171429 8.8643871 3.83485714 8.55548387 3.71485714 8.30290323 3.63257143 8.03174194 3.59085714 7.75419355 3.54742857 7.46793548 3.54742857 7.17529032 3.59085714 6.88903226 3.63257143 6.61148387 3.71485714 6.34090323 3.83485714 6.08774194 4.09942857 5.53090323 4.54285714 5.06929032 5.084 4.78767742 5.35028571 4.64890323 5.63771429 4.55425806 5.93371429 4.5083871 6.05085714 4.4903871 6.16857143 4.48109677 6.28742857 4.47645161 6.35942857 4.47587097 6.35942857 4.47587097 6.43142857 4.47645161L6.43142857 4.47645161zM6.31371429 5.53845161C6.23942857 5.54135484 6.16514286 5.54658065 6.09142857 5.55819355 5.90685714 5.58664516 5.72685714 5.64587097 5.56057143 5.7323871 5.22114286 5.90948387 4.94228571 6.19980645 4.77657143 6.54877419 4.708 6.69335484 4.65885714 6.84780645 4.63085714 7.00574194 4.59657143 7.19967742 4.59428571 7.39941935 4.624 7.59393548 4.64971429 7.76696774 4.70171429 7.93651613 4.77657143 8.09445161 4.86857143 8.2883871 4.99485714 8.46432258 5.148 8.61296774 5.30171429 8.7616129 5.48114286 8.88180645 5.67657143 8.966 5.892 9.05832258 6.12514286 9.10593548 6.35942857 9.10593548 6.59314286 9.10593548 6.82628571 9.05832258 7.04228571 8.966 7.23714286 8.88180645 7.41714286 8.7616129 7.57028571 8.61296774 7.72342857 8.46432258 7.85028571 8.2883871 7.94228571 8.09445161 8.01714286 7.93651613 8.06857143 7.76696774 8.09485714 7.59393548 8.124 7.39941935 8.12171429 7.19967742 8.08742857 7.00574194 8.05714286 6.83329032 8.00171429 6.66606452 7.92342857 6.51045161 7.75542857 6.17774194 7.48457143 5.90309677 7.15771429 5.7323871 6.99142857 5.64587097 6.812 5.58664516 6.62685714 5.55819355 6.55314286 5.54658065 6.47942857 5.54135484 6.40457143 5.53845161 6.35885714 5.53787097 6.35942857 5.53787097 6.31371429 5.53845161L6.31371429 5.53845161zM17.2354286 4.77316129C17.3251429 4.7783871 17.4137143 4.78883871 17.5017143 4.80858065 17.7651429 4.86664516 18.012 4.98858065 18.2342857 5.14303226 18.3102857 5.19587097 18.384 5.25277419 18.4554286 5.31316129 18.5005714 5.35148387 18.5445714 5.39212903 18.5908571 5.42987097 18.6154286 5.44845161 18.6405714 5.46645161 18.6662857 5.48387097 18.7222857 5.51870968 18.7811429 5.54832258 18.8434286 5.56922581 19.016 5.62787097 19.204 5.62787097 19.384 5.62496774 19.5497143 5.62264516 19.7148571 5.61567742 19.8805714 5.61335484 19.9634286 5.61335484 19.9634286 5.61335484 20.0462857 5.61393548 20.12 5.61567742 20.1937143 5.618 20.2674286 5.62206452 20.3022857 5.6243871 20.3022857 5.62380645 20.3371429 5.62729032 20.4325714 5.64064516 20.5222857 5.67490323 20.5988571 5.73529032 20.7377143 5.84503226 20.8142857 6.02270968 20.7988571 6.20096774 20.7942857 6.25380645 20.7822857 6.30548387 20.7622857 6.35483871 20.7428571 6.4036129 20.716 6.44948387 20.6828571 6.49070968 20.6388571 6.54529032 20.584 6.59116129 20.5228571 6.62367742 20.4525714 6.66141935 20.3771429 6.68 20.2982857 6.68522581 20.256 6.68580645 20.2142857 6.68174194 20.1725714 6.68 20.1005714 6.67709677 20.1005714 6.67709677 20.0291429 6.67535484 19.8188571 6.6736129 19.6091429 6.68232258 19.3994286 6.68696774 19.3274286 6.68754839 19.3274286 6.68754839 19.2548571 6.68754839 19.1017143 6.68406452 18.9485714 6.67593548 18.7977143 6.64922581 18.5834286 6.61090323 18.3765714 6.53890323 18.188 6.42974194 18.0908571 6.37458065 17.9994286 6.31012903 17.9131429 6.23870968 17.8537143 6.18993548 17.7971429 6.13709677 17.7371429 6.08832258 17.7062857 6.06451613 17.6754286 6.04129032 17.644 6.01922581 17.5537143 5.95767742 17.4582857 5.90251613 17.3542857 5.86709677 17.2994286 5.84851613 17.2411429 5.83458065 17.1828571 5.834 17.1531429 5.834 17.1251429 5.84270968 17.096 5.84735484 17.0702857 5.85025806 17.0702857 5.85025806 17.0445714 5.852 16.9474286 5.85258065 16.8542857 5.83109677 16.7697143 5.78232258 16.7245714 5.75619355 16.6828571 5.72309677 16.6474286 5.68419355 16.5268571 5.55412903 16.4788571 5.36658065 16.5211429 5.19296774 16.5337143 5.14187097 16.5542857 5.09251613 16.5811429 5.04664516 16.644 4.94096774 16.7434286 4.85909677 16.8588571 4.81903226 16.9382857 4.79116129 17.0217143 4.78070968 17.1045714 4.77432258 17.1485714 4.77258065 17.1914286 4.77258065 17.2354286 4.77316129L17.2354286 4.77316129zM17.16 5.83458065C17.1645714 5.834 17.1685714 5.83283871 17.1725714 5.83109677 17.1685714 5.83225806 17.164 5.83341935 17.16 5.83458065L17.16 5.83458065zM17.2354286 6.79787097C17.3251429 6.80309677 17.4137143 6.81354839 17.5017143 6.83329032 17.7651429 6.89135484 18.012 7.01329032 18.2342857 7.16774194 18.3102857 7.22058065 18.384 7.27806452 18.4554286 7.33787097 18.5005714 7.37677419 18.5445714 7.41741935 18.5908571 7.45458065 18.6154286 7.47374194 18.6405714 7.49174194 18.6662857 7.50858065 18.7222857 7.54341935 18.7811429 7.57303226 18.8434286 7.59393548 19.016 7.65258065 19.204 7.65258065 19.384 7.64967742 19.5497143 7.64735484 19.7148571 7.6403871 19.8805714 7.63806452 19.9634286 7.63806452 19.9634286 7.63806452 20.0462857 7.63864516 20.12 7.6403871 20.1937143 7.64270968 20.2674286 7.64677419 20.3022857 7.64909677 20.3022857 7.64851613 20.3371429 7.652 20.4154286 7.66303226 20.4891429 7.68683871 20.5565714 7.72980645 20.6154286 7.76754839 20.6668571 7.81690323 20.7062857 7.87496774 20.8074286 8.02129032 20.8285714 8.21406452 20.7622857 8.37954839 20.7428571 8.42890323 20.716 8.47477419 20.6828571 8.51541935 20.6497143 8.55664516 20.6108571 8.59264516 20.5674286 8.62167742 20.4862857 8.67625806 20.3942857 8.70354839 20.2977143 8.70993548 20.256 8.71051613 20.2142857 8.70703226 20.1725714 8.70470968 20.1005714 8.70180645 20.1005714 8.70180645 20.0291429 8.70006452 19.8188571 8.69832258 19.6091429 8.7076129 19.3994286 8.71167742 19.3274286 8.71225806 19.3274286 8.71225806 19.2548571 8.71225806 19.1017143 8.70935484 18.9491429 8.70064516 18.7977143 8.67393548 18.5834286 8.63619355 18.3771429 8.5636129 18.188 8.45445161 18.0908571 8.39929032 17.9994286 8.33483871 17.9131429 8.26341935 17.8537143 8.21464516 17.7971429 8.16180645 17.7371429 8.11303226 17.7062857 8.08922581 17.6754286 8.06658065 17.644 8.04393548 17.5537143 7.9823871 17.4582857 7.92722581 17.3542857 7.89180645 17.2994286 7.87322581 17.2411429 7.85929032 17.1828571 7.85929032 17.1531429 7.85870968 17.1245714 7.868 17.0954286 7.87264516 17.0691429 7.87496774 17.0697143 7.87496774 17.0434286 7.87670968 16.9468571 7.87670968 16.8531429 7.85580645 16.7691429 7.80703226 16.7234286 7.78032258 16.6822857 7.74722581 16.6468571 7.70832258 16.5268571 7.57825806 16.4788571 7.39012903 16.5217143 7.21709677 16.5342857 7.16541935 16.5542857 7.11606452 16.5811429 7.07077419 16.6445714 6.96451613 16.7445714 6.88322581 16.86 6.84316129 16.9388571 6.81587097 17.0217143 6.80541935 17.1045714 6.79903226 17.1485714 6.79729032 17.1914286 6.79729032 17.2354286 6.79787097L17.2354286 6.79787097zM17.16 7.85929032C17.164 7.85870968 17.168 7.85754839 17.172 7.8563871 17.168 7.85754839 17.164 7.85870968 17.16 7.85929032L17.16 7.85929032zM17.2354286 8.77032258C17.3251429 8.77554839 17.4137143 8.786 17.5017143 8.80574194 17.7651429 8.86380645 18.012 8.98574194 18.2342857 9.14019355 18.3102857 9.19303226 18.384 9.25051613 18.4554286 9.31032258 18.5005714 9.34922581 18.5445714 9.38987097 18.5908571 9.42703226 18.6154286 9.44619355 18.6405714 9.46419355 18.6662857 9.48103226 18.7222857 9.51587097 18.7811429 9.54548387 18.8434286 9.5663871 19.016 9.62503226 19.204 9.62503226 19.384 9.62212903 19.5497143 9.61980645 19.7148571 9.61283871 19.8805714 9.61051613 19.9634286 9.61051613 19.9634286 9.61051613 20.0462857 9.61109677 20.12 9.61283871 20.1937143 9.61516129 20.2674286 9.61922581 20.3022857 9.62154839 20.3022857 9.62096774 20.3371429 9.62445161 20.4325714 9.63780645 20.5222857 9.67206452 20.5994286 9.73303226 20.6405714 9.76496774 20.6765714 9.80387097 20.7062857 9.84741935 20.8074286 9.99374194 20.8285714 10.1865161 20.7622857 10.352 20.7428571 10.4013548 20.716 10.4472258 20.6828571 10.487871 20.6388571 10.5430323 20.584 10.5883226 20.5222857 10.6214194 20.4525714 10.6591613 20.3765714 10.6771613 20.2977143 10.6823871 20.256 10.6829677 20.2142857 10.6794839 20.1725714 10.6771613 20.1005714 10.6742581 20.1005714 10.6742581 20.0291429 10.6725161 19.8188571 10.6707742 19.6091429 10.6800645 19.3994286 10.684129 19.3274286 10.6847097 19.3274286 10.6847097 19.2548571 10.6847097 19.1017143 10.6818064 18.9491429 10.6730968 18.7977143 10.6463871 18.5834286 10.6086452 18.3771429 10.5360645 18.188 10.4269032 18.0908571 10.3717419 17.9994286 10.3072903 17.9131429 10.235871 17.8537143 10.1870968 17.7971429 10.1342581 17.7371429 10.0854839 17.7062857 10.0616774 17.6754286 10.0390323 17.644 10.0163871 17.5537143 9.95483871 17.4582857 9.89967742 17.3542857 9.86425806 17.2994286 9.84567742 17.2411429 9.83174194 17.1828571 9.83116129 17.1531429 9.83116129 17.1251429 9.83987097 17.096 9.84451613 17.0702857 9.84741935 17.0702857 9.84741935 17.0445714 9.84916129 16.9474286 9.84974194 16.8542857 9.82883871 16.7697143 9.77948387 16.7245714 9.75335484 16.6828571 9.72025806 16.6474286 9.68193548 16.5268571 9.55129032 16.4788571 9.36374194 16.5211429 9.19012903 16.5337143 9.13903226 16.5542857 9.08967742 16.5811429 9.0443871 16.644 8.93812903 16.7434286 8.85625806 16.8588571 8.81619355 16.9382857 8.78832258 17.0217143 8.77787097 17.1045714 8.77206452 17.148 8.76974194 17.1914286 8.76974194 17.2354286 8.77032258L17.2354286 8.77032258zM17.16 9.83174194C17.1645714 9.83116129 17.1685714 9.83 17.1725714 9.82883871 17.1685714 9.83 17.164 9.83058065 17.16 9.83174194L17.16 9.83174194z"></path><path d="M4.23085714,12.466129 C3.76228571,14.1383871 3.29371429,15.8222581 2.912,17.5270323 C2.90114286,17.5816129 2.89771429,17.6367742 2.904,17.6925161 C2.92,17.8330323 2.99485714,17.9648387 3.10685714,18.0490323 C3.15428571,18.0850323 3.20742857,18.1105806 3.264,18.1285806 C3.93771429,18.3207742 4.61028571,18.5222581 5.29257143,18.6801935 C5.34171429,18.6900645 5.392,18.694129 5.44285714,18.6894839 C5.58571429,18.6767097 5.72057143,18.6000645 5.80571429,18.4821935 C5.84114286,18.434 5.86685714,18.38 5.884,18.3225161 C6.41942857,16.3924516 6.97657143,14.4670323 7.42114286,12.512 L6.80971429,12.6432258 C6.64571429,12.674 6.47828571,12.7041935 6.31142857,12.71 C6.25257143,12.7123226 6.19371429,12.7105806 6.13485714,12.7088387 C6.00057143,12.7053548 5.86628571,12.6972258 5.73257143,12.6832903 C5.23371429,12.6316129 4.74342857,12.5073548 4.276,12.3047097 L4.23085714,12.466129 L4.23085714,12.466129 Z M9.048,11.0150968 C10.8611429,10.5383871 12.6651429,10.0262581 14.4668571,9.50774194 L14.8405714,9.39974194 L14.7942857,5.08032258 C14.3045714,4.94909677 13.8148571,4.81845161 13.3251429,4.68896774 C11.8754286,4.30748387 10.4245714,3.9323871 8.96628571,3.58806452 C8.41371429,3.45741935 7.85942857,3.33083871 7.30285714,3.21993548 C7.09942857,3.17929032 6.896,3.1403871 6.69085714,3.10845161 C6.564,3.08812903 6.436,3.07012903 6.30742857,3.06258065 C6.27714286,3.06141935 6.24685714,3.062 6.216,3.062 C6.036,3.06548387 5.85714286,3.07825806 5.67942857,3.10322581 C5.33485714,3.15258065 4.99657143,3.24490323 4.67428571,3.37903226 C3.83942857,3.72567742 3.12514286,4.34696774 2.65657143,5.13025806 C2.44285714,5.48793548 2.28057143,5.87696774 2.17771429,6.28225806 C2.05771429,6.75722581 2.01885714,7.25251613 2.06171429,7.74025806 C2.10514286,8.2343871 2.23314286,8.71922581 2.43942857,9.16864516 C2.66228571,9.65290323 2.97485714,10.0936129 3.356,10.4629032 L3.68742857,10.7253548 L4.01828571,10.9878064 L4.57657143,11.2717419 L4.77028571,11.369871 C5.11314286,11.5028387 5.47314286,11.5893548 5.83828571,11.6265161 C5.92742857,11.6358064 6.01714286,11.6421935 6.10685714,11.6456774 C6.16342857,11.648 6.22057143,11.6509032 6.27657143,11.6485806 C6.33428571,11.6468387 6.39257143,11.6375484 6.44914286,11.6282581 C6.54,11.6137419 6.63085714,11.5974839 6.72114286,11.5794839 L7.34685714,11.4424516 L9.048,11.0150968 L9.048,11.0150968 Z M3.32628571,11.7885161 C3.02057143,11.5852903 2.74742857,11.3536129 2.5,11.0958064 C2.04114286,10.6185161 1.67085714,10.054129 1.41485714,9.43922581 C1.18457143,8.8876129 1.048,8.29651613 1.01085714,7.69845161 C0.974285714,7.11258065 1.03142857,6.52032258 1.18285714,5.9536129 C1.31714286,5.4496129 1.52514286,4.96651613 1.79714286,4.52348387 C2.38114286,3.57354839 3.25771429,2.82045161 4.27885714,2.396 C4.68114286,2.22877419 5.104,2.11322581 5.53428571,2.05167742 C5.73371429,2.02322581 5.93371429,2.00812903 6.13485714,2.00174194 C6.19428571,2.00058065 6.25314286,1.99941935 6.31257143,2.00058065 C6.53257143,2.00812903 6.75142857,2.04180645 6.968,2.0783871 C7.19714286,2.11670968 7.42514286,2.16141935 7.65314286,2.20787097 C8.36457143,2.3536129 9.07257143,2.52083871 9.77885714,2.69154839 C11.804,3.1816129 13.8188571,3.71696774 15.8302857,4.26219355 L15.8942857,10.198129 C13.8348571,10.7967742 11.772,11.387871 9.69942857,11.9400645 L8.536,12.2350323 L8.52571429,12.4074839 C8.00514286,14.4861935 7.45885714,16.5585161 6.88628571,18.6232903 C6.83257143,18.7998065 6.75428571,18.965871 6.64571429,19.1145161 C6.384,19.4733548 5.97428571,19.7073548 5.536,19.7474194 C5.36742857,19.7625161 5.19942857,19.748 5.03485714,19.7096774 C4.34342857,19.5308387 3.65485714,19.3432903 2.968,19.1470323 C2.79428571,19.0924516 2.63142857,19.0123226 2.48457143,18.902 C2.13142857,18.6360645 1.90114286,18.2197419 1.86171429,17.7743871 C1.84685714,17.6030968 1.86171429,17.4329677 1.89885714,17.2651613 L3.34057143,11.7983871 L3.32628571,11.7885161 L3.32628571,11.7885161 Z"></path></g></svg>