<svg viewBox="0 0 21 22" version="1.1" xmlns="http://www.w3.org/2000/svg" xmlns:xlink="http://www.w3.org/1999/xlink"><g fill-rule="evenodd"><path d="M20.4485234,18.1832816 L17.4256057,21.3202716 L6.01452169,9.4783897 C5.56991444,9.62318695 5.10569974,9.69816516 4.63316237,9.69799853 C2.06953666,9.69757484 0.000174962747,7.54966722 0,4.90254438 C0.00091367729,4.81578814 0.0108303,4.73390889 0.0362133513,4.64445541 C0.0741740278,4.50707179 0.145922869,4.37257 0.25067976,4.26098847 C0.331787822,4.17336665 0.433171539,4.10046121 0.537855512,4.05392127 C0.661458227,3.99775704 0.789136465,3.97277999 0.918037431,3.97333277 C1.0527669,3.97526124 1.15119316,3.99910557 1.2648821,4.044156 C1.32603061,4.06905261 1.36945019,4.0922133 1.43750692,4.13369744 C1.50275748,4.17585827 1.55647503,4.21742117 1.62105821,4.2732247 C1.7092694,4.34996602 1.80065531,4.43988728 1.91082232,4.55647247 C2.08561928,4.74221897 2.29498461,4.98217925 2.53289872,5.26660411 C2.72787087,5.49989335 2.91752571,5.73295869 3.11305327,5.97726627 L4.7040858,6.18133459 L5.83981941,4.99823467 L5.64240125,3.30766053 C5.30349095,3.01607588 4.97037154,2.72185792 4.67569775,2.44833179 C4.46062109,2.24836523 4.29563974,2.08772534 4.16354721,1.94688673 C4.06214054,1.83789506 3.9931069,1.75694285 3.92119934,1.6566145 C3.8909043,1.61213111 3.8909043,1.61213111 3.85887683,1.5597654 C3.83035214,1.51089567 3.80531643,1.45956497 3.77519483,1.38259273 C3.73643772,1.2719887 3.71647599,1.18285372 3.71469955,1.04497967 C3.71469955,0.906064866 3.74425816,0.762818159 3.80971255,0.631911015 C3.88582973,0.473931979 4.01405747,0.335945341 4.15314733,0.253408406 C4.23261415,0.20453992 4.31362793,0.171285671 4.40185577,0.148040986 C4.47552578,0.129368863 4.54304282,0.121172961 4.61225084,0.119648199 C7.19681662,0.11936566 9.26647598,2.26712538 9.26688136,4.90818722 C9.26688136,5.40234992 9.19244034,5.88801519 9.04889777,6.35348136 L20.4485234,18.1832816 Z M4.89429728,1.26424459 C5.00624963,1.38360449 5.15682677,1.53021922 5.35631304,1.71569091 C5.68150973,2.0175492 6.06100114,2.35054718 6.4410634,2.67515701 L6.590211,2.80254345 L6.8877615,5.35059261 L5.07658602,7.23730401 L2.58355574,6.91754404 L2.45719413,6.75866528 C2.22063243,6.46122818 1.99620004,6.18381289 1.76572751,5.90804646 C1.53937822,5.63744734 1.34167217,5.41085013 1.18328674,5.24254164 C1.11229871,5.16741895 1.05353083,5.10852767 1.00292784,5.06191037 C1.08060835,7.08781459 2.67967824,8.69767567 4.63342131,8.69799857 C5.08996433,8.69815956 5.53646102,8.60787744 5.95797988,8.43433097 L6.27242154,8.30487 L17.4256115,19.8791217 L19.0597848,18.1832816 L7.89648811,6.59872843 L8.00947095,6.30222494 C8.17863208,5.85829148 8.26688136,5.38837207 8.26688137,4.90826397 C8.2665668,2.8588441 6.70909964,1.19616932 4.76932411,1.12155575 C4.80024829,1.16071346 4.8391396,1.2049568 4.89429728,1.26424459 Z M4.71221901,1.03384865 C4.71271203,1.03496459 4.71331269,1.0370203 4.71379071,1.03836233 C4.71341938,1.03681163 4.71283222,1.0353775 4.71221901,1.03384865 Z M4.63880911,1.11894631 C4.63862135,1.11894601 4.63757879,1.11896315 4.63568143,1.11899772 C4.6351877,1.11938685 4.63669111,1.11925371 4.63880911,1.11894631 Z M4.64386324,1.11880904 L4.63933134,1.11886883 C4.63925149,1.11888093 4.64076213,1.118861 4.64386324,1.11880904 Z M10.7655993,14.9320636 L10.6720057,15.0687245 L4.64761179,21.3202533 L0.289049199,16.7974411 L6.28775151,10.5723727 L6.4244065,10.4719944 L7.70204135,9.83397241 L11.3374982,13.6984006 L10.7655993,14.9320636 Z M7.48335097,11.0609371 L6.94813699,11.3282109 L1.67780444,16.7974239 L4.64760548,19.87914 L9.8936654,14.4352903 L10.1459016,13.8911827 L7.48335097,11.0609371 Z M13.9821151,10.3250261 L12.7481021,11.6056056 L9.70136958,8.3379493 L10.8843178,7.11023799 L11.5646326,7.81622502 L17.5555888,1.60943155 L19.7693169,0 L20.8379706,1.10815014 L20.6118091,1.44356554 L19.2536426,3.44438433 L13.3026653,9.61974808 L13.9821151,10.3250261 Z M11.2330319,8.18954748 L10.7503165,8.69052905 L10.7559596,8.00262568 L13.1197819,10.5378528 L12.3940434,10.5318811 L12.9277515,9.97803305 L12.9277051,10.6718782 L11.9140065,9.61964523 L12.248302,9.27274483 L18.4790445,2.81790324 L19.7826809,0.884507011 L19.8373359,1.51111758 L19.3515177,1.00734399 L20.0054466,1.06467874 L18.2096526,2.36078901 L11.5643411,9.25706645 L10.524297,8.17777535 L11.2156717,8.17775797 L11.5646326,7.81622502 L11.9243749,8.18954249 L11.2330319,8.18954748 Z M11.2330319,8.18954748 L11.2042919,8.18954769 L11.2156717,8.17775797 L11.2443923,8.17775725 L11.2330319,8.18954748 Z" fill-rule="nonzero"></path></g></svg>