<svg xmlns="http://www.w3.org/2000/svg" viewBox="0 0 22 22"><g fill-rule="evenodd"><path d="M13.7672333,20.8405556 L5.01563333,20.8411111 C4.79973333,20.8388889 4.58666667,20.8077778 4.38153333,20.7422222 C4.10783333,20.6544444 3.85566667,20.5088889 3.64713333,20.32 C3.4386,20.1311111 3.27426667,19.8994444 3.16886667,19.6444444 C3.10823333,19.4994444 3.06743333,19.3466667 3.04646667,19.1916667 C3.03796667,19.1277778 3.034,19.0638889 3.03116667,18.9994444 C2.9609,13.6383333 3.0306,8.27611111 3.0306,2.91388889 C3.03343333,2.70888889 3.06573333,2.50611111 3.13486667,2.31111111 C3.32016667,1.79 3.74686667,1.36111111 4.28576667,1.15833333 C4.4382,1.10111111 4.598,1.06166667 4.7612,1.04166667 C4.8275,1.03388889 4.89493333,1.03 4.9618,1.02722222 C7.97873333,0.990555556 10.9956667,0.991111111 14.0120333,1.02722222 C14.2279333,1.035 14.4398667,1.07055556 14.6433,1.14166667 C15.1867333,1.33111111 15.6247667,1.74888889 15.8231,2.26555556 C15.8973333,2.45833333 15.9347333,2.66 15.9426667,2.865 L15.9523,5.74555556 L14.9685667,5.74555556 L14.9498667,2.88888889 C14.9453333,2.78611111 14.9272,2.68555556 14.8898,2.58888889 C14.7912,2.33111111 14.5719,2.12222222 14.3004667,2.02722222 C14.1996,1.99222222 14.0942,1.97444444 13.9871,1.97055556 C10.9968,1.93444444 8.0065,1.97055556 5.0162,1.97055556 C4.8989,1.97166667 4.78443333,1.98888889 4.6745,2.02722222 C4.4025,2.12222222 4.18376667,2.33277778 4.08403333,2.59111111 C4.0472,2.68777778 4.0285,2.78944444 4.02453333,2.89222222 C3.9537,8.25277778 3.95426667,13.615 4.02453333,18.9761111 C4.02906667,19.0866667 4.05003333,19.1955556 4.0931,19.2994444 C4.19623333,19.5483333 4.41213333,19.7488889 4.67676667,19.8405556 C4.7782,19.8761111 4.88473333,19.8933333 4.99296667,19.8972222 L12.7132333,19.8972222 L12.7234333,19.9688889 C12.7381667,20.06 12.7631,20.1477778 12.8022,20.2322222 C12.9229,20.4905556 13.1580667,20.695 13.4391333,20.7872222 L13.7672333,20.8405556 L13.7672333,20.8405556 Z"></path><path d="M9.5178 15.2861111C9.58636667 15.2888889 9.65436667 15.2938889 9.7218 15.3038889 9.89293333 15.3294444 10.0595333 15.3822222 10.2136667 15.4594444 10.5264667 15.6166667 10.7826 15.8738889 10.9350333 16.1844444 11.0047333 16.3255556 11.0523333 16.4766667 11.0767 16.6316667 11.1016333 16.7911111 11.1016333 16.9544444 11.0767 17.1138889 11.0523333 17.2688889 11.0047333 17.42 10.9350333 17.5616667 10.8506 17.7333333 10.7344333 17.89 10.5933333 18.0222222 10.4516667 18.1538889 10.2862 18.2605556 10.1065667 18.3355556 9.90766667 18.4177778 9.69233333 18.4605556 9.47643333 18.4605556 9.25996667 18.4605556 9.04463333 18.4177778 8.84573333 18.3355556 8.6661 18.2605556 8.50063333 18.1538889 8.35896667 18.0222222 8.21843333 17.89 8.1017 17.7333333 8.01726667 17.5616667 7.94756667 17.42 7.89996667 17.2688889 7.8756 17.1138889 7.85066667 16.9544444 7.85066667 16.7911111 7.8756 16.6316667 7.89996667 16.4766667 7.94756667 16.3255556 8.01726667 16.1844444 8.1697 15.8738889 8.42583333 15.6166667 8.73863333 15.4594444 8.89276667 15.3822222 9.05936667 15.3294444 9.2305 15.3038889 9.29793333 15.2938889 9.36593333 15.2888889 9.4345 15.2861111 9.47643333 15.2855556 9.47643333 15.2855556 9.5178 15.2861111L9.5178 15.2861111zM9.46226667 16.3438889C9.38123333 16.3472222 9.30303333 16.3655556 9.2305 16.4016667 9.0945 16.47 8.99136667 16.595 8.9534 16.74 8.9364 16.8055556 8.93243333 16.8738889 8.94093333 16.9411111 8.94773333 16.9927778 8.9619 17.0433333 8.984 17.0905556 9.01063333 17.1488889 9.0486 17.2022222 9.0945 17.2472222 9.14096667 17.2922222 9.1948 17.3294444 9.2543 17.3555556 9.31946667 17.3844444 9.3903 17.4 9.46226667 17.4016667 9.53423333 17.4033333 9.60676667 17.3916667 9.6742 17.3655556 9.73483333 17.3422222 9.79093333 17.3077778 9.8391 17.2644444 9.88726667 17.2216667 9.9275 17.1705556 9.95696667 17.1133333 9.98133333 17.0672222 9.99833333 17.0183333 10.0074 16.9672222 10.0193 16.9005556 10.0187333 16.8322222 10.0045667 16.7655556 9.97396667 16.6183333 9.87706667 16.4883333 9.74446667 16.4138889 9.67476667 16.3744444 9.59826667 16.3522222 9.51836667 16.3455556 9.49966667 16.3444444 9.48096667 16.3438889 9.46226667 16.3438889L9.46226667 16.3438889zM10.5774667 2.595C10.6568 2.59888889 10.7333 2.61222222 10.8041333 2.63833333 10.8676 2.66222222 10.9242667 2.695 10.9701667 2.73444444 11.0115333 2.77 11.0438333 2.81111111 11.0653667 2.855 11.1299667 2.98833333 11.0874667 3.14055556 10.956 3.24555556 10.9174667 3.27611111 10.8727 3.30222222 10.8228333 3.32222222 10.7469 3.35333333 10.6636 3.36944444 10.5774667 3.37333333 9.84363333 3.38333333 9.10923333 3.38333333 8.37483333 3.37333333 8.29606667 3.36944444 8.21956667 3.35611111 8.14873333 3.33 8.0847 3.30611111 8.02803333 3.27333333 7.98213333 3.23388889 7.94076667 3.19777778 7.90846667 3.15722222 7.88693333 3.11333333 7.82233333 2.98 7.86483333 2.82777778 7.9963 2.72277778 8.03483333 2.69222222 8.0796 2.66611111 8.12946667 2.64555556 8.2054 2.615 8.2887 2.59888889 8.37483333 2.595 9.10923333 2.58444444 9.84363333 2.58444444 10.5774667 2.595L10.5774667 2.595z"></path><path d="M13.4646333,19.8883333 C14.0908,19.9322222 14.7186667,19.9266667 15.3527667,19.9138889 L16.8125,19.8883333 C16.8176,19.8883333 16.8227,19.8883333 16.8278,19.8872222 C16.8584,19.8794444 16.8839,19.855 16.889,19.8255556 L17.1117,18.2183333 L15.6417667,18.2183333 L14.6501,18.2188889 L13.1739333,18.2188889 L13.3966333,19.8255556 C13.3972,19.83 13.3983333,19.8338889 13.4000333,19.8383333 L13.4646333,19.8883333 L13.4646333,19.8883333 L13.4646333,19.8883333 Z M12.7925667,9.31444444 C12.6146333,9.31611111 12.4401,9.34222222 12.2729333,9.4 C11.8632333,9.54111111 11.5323,9.85388889 11.3827,10.2405556 C11.3266,10.385 11.2988333,10.5361111 11.2926,10.6894444 C11.2693667,12.4266667 11.2693667,14.1644444 11.2926,15.9016667 C11.2988333,16.0544444 11.3266,16.205 11.3827,16.3488889 C11.5289,16.725 11.8462333,17.0316667 12.2406333,17.1788889 C12.4038333,17.24 12.5755333,17.27 12.7506333,17.2766667 L17.5355667,17.2766667 C17.6987667,17.2705556 17.8591333,17.2444444 18.0127,17.1911111 C18.4105,17.0538889 18.7352,16.755 18.8904667,16.3827778 C18.9545,16.2288889 18.9862333,16.0666667 18.9930333,15.9016667 C19.0162667,14.1644444 19.0162667,12.4266667 18.9930333,10.69 C18.9868,10.5366667 18.9590333,10.3861111 18.9029333,10.2422222 C18.7567333,9.86611111 18.4394,9.55944444 18.045,9.41222222 C17.8818,9.35166667 17.7101,9.32111111 17.535,9.31444444 L15.6508333,9.31444444 L14.6795667,9.31444444 L12.7925667,9.31444444 L12.7925667,9.31444444 Z M16.889,6.76555556 C16.8884333,6.76111111 16.8873,6.75722222 16.8856,6.75277778 C16.8754,6.72944444 16.8487667,6.70611111 16.821,6.70277778 L15.6531,6.68277778 L15.1482,6.67388889 L14.6693667,6.68166667 L13.4731333,6.70277778 C13.4680333,6.70277778 13.4629333,6.70277778 13.4578333,6.70388889 C13.4278,6.71166667 13.4017333,6.73611111 13.3966333,6.76555556 L13.1739333,8.37333333 L17.1122667,8.37333333 L16.889,6.76555556 L16.889,6.76555556 Z M11.9896,18.095 C11.6841667,17.9972222 11.4002667,17.8433333 11.1571667,17.6438889 C10.854,17.3961111 10.616,17.0794444 10.4686667,16.7272222 C10.3933,16.5466667 10.3417333,16.3566667 10.3156667,16.1638889 C10.3049,16.0844444 10.2992333,16.005 10.2964,15.9255556 C10.2731667,14.1916667 10.2952667,12.4572222 10.2952667,10.7233333 C10.2964,10.6438889 10.2998,10.565 10.3083,10.4861111 C10.327,10.3111111 10.3666667,10.1383333 10.4261667,9.97166667 C10.5293,9.68388889 10.6919333,9.41555556 10.9027333,9.18555556 C11.1651,8.89944444 11.5005667,8.67444444 11.8734333,8.53555556 L12.1556333,8.46777778 L12.4100667,6.63166667 C12.4253667,6.54055556 12.4497333,6.45222222 12.4899667,6.36722222 C12.6044333,6.12277778 12.8226,5.92666667 13.0861,5.82944444 C13.1926333,5.79 13.3031333,5.77 13.4170333,5.76166667 L16.8691667,5.76222222 C16.9836333,5.77 17.0947,5.79055556 17.2023667,5.83055556 C17.4641667,5.92888889 17.6817667,6.125 17.7962333,6.36888889 C17.8359,6.45333333 17.8602667,6.54055556 17.8755667,6.63166667 L18.1305667,8.46833333 L18.4110667,8.53611111 C18.7652333,8.66833333 19.0859667,8.87833333 19.3421,9.14444444 C19.5585667,9.36888889 19.728,9.63277778 19.8385,9.91777778 C19.9025333,10.0822222 19.9467333,10.2533333 19.9699667,10.4277778 C19.9807333,10.5066667 19.9864,10.5861111 19.9892333,10.6661111 C20.0124667,12.4 19.9903667,14.1338889 19.9903667,15.8677778 C19.9892333,15.9472222 19.9858333,16.0261111 19.9773333,16.105 C19.9586333,16.28 19.9189667,16.4527778 19.8594667,16.6194444 C19.7563333,16.9077778 19.5937,17.1761111 19.3829,17.4055556 C19.1205333,17.6922222 18.7850667,17.9166667 18.4122,18.0555556 L18.13,18.1238889 L17.8755667,19.9594444 L17.8687667,20.0011111 C17.8455333,20.1077778 17.8092667,20.2094444 17.7531667,20.305 C17.6234,20.525 17.4069333,20.6961111 17.1547667,20.7772222 C17.0618333,20.8072222 16.9666333,20.8227778 16.8686,20.8294444 C15.733,20.8555556 14.5968333,20.8305556 13.4612333,20.8305556 L13.4578333,20.83 L13.1286,20.7761111 C12.8464,20.6844444 12.6101,20.48 12.4894,20.2222222 C12.4497333,20.1383333 12.4253667,20.0505556 12.4100667,19.9594444 L12.4004333,19.8883333 L12.1562,18.1288889 L11.9896,18.095 L11.9896,18.095 Z"></path><path d="M15.1725667,11.455 L15.1130667,11.455 L14.7073333,11.5027778 C14.5146667,11.5338889 14.3412667,11.5883333 14.1763667,11.6644444 C13.7338,11.8666667 13.3637667,12.2088889 13.1303,12.6294444 C13.0237667,12.8222222 12.9461333,13.0305556 12.9013667,13.2455556 C12.8486667,13.4977778 12.8407333,13.7583333 12.877,14.0127778 C12.9093,14.2405556 12.9784333,14.4633333 13.0798667,14.6711111 C13.2,14.9144444 13.3649,15.1361111 13.5643667,15.3222222 C13.7706333,15.5155556 14.0137333,15.6705556 14.2778,15.7761111 L14.6937333,15.8977778 L14.7011,15.8994444 C14.8518333,15.9283333 14.9974667,15.9422222 15.1431,15.9422222 C15.3000667,15.9422222 15.4570333,15.9261111 15.6208,15.8894444 L16.0078333,15.7761111 C16.2719,15.6705556 16.515,15.5155556 16.7218333,15.3222222 C16.9213,15.1361111 17.0862,14.9144444 17.2057667,14.6711111 C17.3077667,14.4633333 17.3763333,14.2405556 17.4086333,14.0127778 C17.4449,13.7583333 17.4369667,13.4977778 17.3848333,13.2455556 C17.3395,13.0305556 17.2618667,12.8222222 17.1553333,12.6294444 C16.9224333,12.2088889 16.5518333,11.8666667 16.1092667,11.6644444 C15.9534333,11.5927778 15.7902333,11.54 15.6253333,11.5083333 L15.1725667,11.455 L15.1725667,11.455 Z M15.0178667,10.5261111 C15.0734,10.5244444 15.1289333,10.5233333 15.1844667,10.5238889 L15.6259,10.5594444 L15.6355333,10.56 C15.9381333,10.6055556 16.2339333,10.6933333 16.5116,10.8205556 C17.1729,11.1233333 17.7191667,11.6466667 18.0438667,12.2872222 C18.1798667,12.555 18.2767667,12.8422222 18.3306,13.1366667 C18.3906667,13.4683333 18.3969,13.8088889 18.3493,14.1416667 C18.3034,14.465 18.2059333,14.7811111 18.0614333,15.075 C17.8976667,15.4077778 17.6744,15.7122222 17.4046667,15.97 C17.1162333,16.2466667 16.7751,16.4694444 16.4033667,16.6233333 C16.1540333,16.7272222 15.8911,16.7988889 15.6202333,16.8261111 L15.1844667,16.8727778 L14.6863667,16.8322222 L14.6807,16.8316667 C14.4381667,16.8072222 14.1916667,16.7438889 13.9553667,16.6527778 C13.5796667,16.5077778 13.2328667,16.2922222 12.9370667,16.0227778 C12.6520333,15.7622222 12.4151667,15.4516667 12.2417667,15.1094444 C12.0938667,14.8177778 11.9924333,14.5033333 11.942,14.1811111 C11.8904333,13.8488889 11.8921333,13.5077778 11.9482333,13.1761111 C12.0003667,12.8677778 12.0995333,12.5672222 12.2417667,12.2872222 C12.5545667,11.67 13.0736333,11.1605556 13.7037667,10.8538889 C13.9769,10.7205556 14.2698667,10.6255556 14.5702,10.5733333 L15.0178667,10.5261111 L15.0178667,10.5261111 Z"></path></g></svg>