<svg xmlns="http://www.w3.org/2000/svg" viewBox="0 0 22 22"><g fill-rule="evenodd"><path d="M2,5.00276013 L2,13.9972399 C2,14.5541909 2.44362365,15 2.99079514,15 L19.0092049,15 C19.5510795,15 20,14.5494605 20,13.9972399 L20,5.00276013 C20,4.4458091 19.5563763,4 19.0092049,4 L2.99079514,4 C2.44892048,4 2,4.45053946 2,5.00276013 Z M1,5.00276013 C1,3.89666625 1.89821238,3 2.99079514,3 L19.0092049,3 C20.1086907,3 21,3.89354265 21,5.00276013 L21,13.9972399 C21,15.1033337 20.1017876,16 19.0092049,16 L2.99079514,16 C1.89130934,16 1,15.1064574 1,13.9972399 L1,5.00276013 Z"></path><rect width="10" height="1" x="6" y="18" rx=".5"></rect></g></svg>