<svg viewBox="0 0 22 22" version="1.1" xmlns="http://www.w3.org/2000/svg" xmlns:xlink="http://www.w3.org/1999/xlink"><g fill-rule="evenodd"><g fill-rule="nonzero"><path d="M2,7.99201702 L2,15.007983 C2,15.5511932 2.44724123,16 2.99079514,16 L19.0092049,16 C19.5522848,16 20,15.5530804 20,15.007983 L20,7.99201702 C20,7.44880678 19.5527588,7 19.0092049,7 L2.99079514,7 C2.44771523,7 2,7.44691959 2,7.99201702 Z M18,17 L18,18.9970707 C18,19.5509732 17.5500512,20 16.9931545,20 L5.00684547,20 C4.45078007,20 4,19.5621186 4,18.9970707 L4,17 L2.99079514,17 C1.89130934,17 1,16.0998238 1,15.007983 L1,7.99201702 C1,6.8918564 1.89821238,6 2.99079514,6 L19.0092049,6 C20.1086907,6 21,6.90017617 21,7.99201702 L21,15.007983 C21,16.1081436 20.1017876,17 19.0092049,17 L18,17 Z M4.99539185,18.9986024 C4.99539185,19.0023828 17.0023956,19.0003602 17.0023956,19.0003602 C17.0074638,19.0003602 17.0039673,16 17.0039673,16 L4.99565125,16 L4.99539185,18.9986024 Z"></path><path d="M17,6 L17,4.0048815 C17,3.44786429 16.551343,3 15.9941413,3 L6.00585866,3 C5.44965548,3 5,3.44959023 5,4.0048815 L5,6 L17,6 Z M4,4.0048815 C4,2.89761602 4.89706013,2 6.00585866,2 L15.9941413,2 C17.1019465,2 18,2.8938998 18,4.0048815 L18,7 L4,7 L4,4.0048815 Z"></path><path d="M17,10.5 C17.8284271,10.5 18.5,9.82842712 18.5,9 C18.5,8.17157288 17.8284271,7.5 17,7.5 C16.1715729,7.5 15.5,8.17157288 15.5,9 C15.5,9.82842712 16.1715729,10.5 17,10.5 Z M17,9.5 C16.7238576,9.5 16.5,9.27614237 16.5,9 C16.5,8.72385763 16.7238576,8.5 17,8.5 C17.2761424,8.5 17.5,8.72385763 17.5,9 C17.5,9.27614237 17.2761424,9.5 17,9.5 Z"></path><path d="M4,15.0059191 C4,13.8980806 4.89706013,13 6.00585866,13 L15.9941413,13 C17.1019465,13 18,13.8865548 18,15.0059191 L18,18.9970707 C18,19.5509732 17.5500512,20 16.9931545,20 L5.00684547,20 C4.45078007,20 4,19.5621186 4,18.9970707 L4,15.0059191 Z M5,15.0059191 L5,18.9970707 C5,19.0033707 16.9931545,19 16.9931545,19 C16.9982227,19 17,15.0059191 17,15.0059191 C17,14.4437057 16.5545397,14 15.9941413,14 L6.00585866,14 C5.44977131,14 5,14.4499388 5,15.0059191 Z"></path></g></g></svg>