<svg xmlns="http://www.w3.org/2000/svg" viewBox="0 0 198.23 198.23"><defs><style>.cls-1{fill:#ff6464;}.cls-2{fill:#d2555a;}.cls-3{fill:#fff;}</style></defs><title>Ресурс 1</title><g id="Слой_2" data-name="Слой 2"><g id="Layer_1" data-name="Layer 1"><path class="cls-1" d="M85.26,1.26C44,7.79,11,41.51,5.05,82.88a96.6,96.6,0,0,0,12.68,63.8L.45,189.89a6.07,6.07,0,0,0,7.89,7.89l43.21-17.28a96.61,96.61,0,0,0,63.8,12.68c41.36-6,75.09-38.93,81.62-80.21A97.22,97.22,0,0,0,85.26,1.26Z"/><path class="cls-2" d="M39.33,97.1A97.08,97.08,0,0,1,118.68,1.7a98.92,98.92,0,0,0-33.42-.44C44,7.79,11,41.51,5.05,82.88a96.6,96.6,0,0,0,12.68,63.8L.45,189.89a6.07,6.07,0,0,0,7.89,7.89l43.21-17.28a96.61,96.61,0,0,0,63.8,12.68c1.17-.17,2.3-.44,3.45-.65A97.08,97.08,0,0,1,39.33,97.1Z"/><path class="cls-3" d="M65.81,150.07a8.83,8.83,0,0,1-6.89-14.34l70.62-88.28a8.83,8.83,0,0,1,13.79,11L72.7,146.76A8.81,8.81,0,0,1,65.81,150.07Z"/><path class="cls-3" d="M65.81,97.1A26.48,26.48,0,1,1,92.3,70.62,26.51,26.51,0,0,1,65.81,97.1Zm0-35.31a8.83,8.83,0,1,0,8.83,8.83A8.84,8.84,0,0,0,65.81,61.79Z"/><path class="cls-3" d="M136.43,150.07a26.48,26.48,0,1,1,26.48-26.48A26.51,26.51,0,0,1,136.43,150.07Zm0-35.31a8.83,8.83,0,1,0,8.83,8.83A8.84,8.84,0,0,0,136.43,114.76Z"/></g></g></svg>