<?xml version="1.0" encoding="utf-8"?>
<!-- Generator: Adobe Illustrator 21.0.0, SVG Export Plug-In . SVG Version: 6.00 Build 0)  -->
<svg version="1.1" id="Capa_1" xmlns="http://www.w3.org/2000/svg" xmlns:xlink="http://www.w3.org/1999/xlink" x="0px" y="0px"
	 viewBox="0 0 512 512" style="enable-background:new 0 0 512 512;" xml:space="preserve">
<style type="text/css">
	.st0{fill:#A67E74;}
	.st1{fill:#CEB08D;}
	.st2{fill:#EBD2AF;}
	.st3{fill:#F5E6AB;}
	.st4{fill:#F2C55A;}
	.st5{fill:#FFFFFF;}
	.st6{fill:#495059;}
	.st7{fill:url(#SVGID_1_);}
	.st8{fill:url(#SVGID_2_);}
	.st9{fill:url(#SVGID_3_);}
	.st10{fill:url(#SVGID_4_);}
	.st11{fill:url(#SVGID_5_);}
	.st12{fill:url(#SVGCleanerId_0_3_);}
	.st13{fill:url(#SVGCleanerId_0_4_);}
	.st14{fill:url(#SVGCleanerId_0_5_);}
	.st15{fill:url(#SVGID_6_);}
	.st16{fill:url(#SVGID_7_);}
	.st17{fill:#6AC259;}
</style>
<path class="st0" d="M311.7,417.8H61.9c-10.6,0-19.2-8.6-19.2-19.2V176.8h269.1V417.8z"/>
<path class="st1" d="M311.7,417.8H61.9c-10.6,0-19.2-8.6-19.2-19.2V176.8h269.1V417.8z"/>
<g>
	<path class="st2" d="M246.6,94.2H10.7c-8.4,0-13.6,9.2-9.1,16.4l41,66.2h269.1L267.9,106C263.3,98.7,255.3,94.2,246.6,94.2z"/>
	<path class="st2" d="M376.8,94.2h124.4c8.4,0,13.6,9.2,9.1,16.4l-41,66.2H311.7l43.9-70.8C360.2,98.7,368.2,94.2,376.8,94.2z"/>
</g>
<path class="st1" d="M477.4,163.9c-91.8-3.3-108.6-44.9-103.4-69.5c-7.5,0.9-14.3,5.1-18.3,11.6l-43.9,70.8h157.6L477.4,163.9z"/>
<path class="st2" d="M311.7,417.8h138.4c10.6,0,19.2-8.6,19.2-19.2V176.8H311.7V417.8z"/>
<path class="st3" d="M398.9,267.4h70.4v-41.9h-70.4c-4.6,0-8.4,3.8-8.4,8.4V259C390.5,263.6,394.3,267.4,398.9,267.4z"/>
<path class="st4" d="M211,176.8h-67.7v79.1c0,2.8,2.9,4.7,5.5,3.5l9.8-4.5c1-0.5,2.2-0.5,3.3,0l13.6,6.3c1,0.5,2.2,0.5,3.3,0
	l13.6-6.3c1-0.5,2.2-0.5,3.3,0l9.8,4.5c2.6,1.2,5.5-0.7,5.5-3.5L211,176.8L211,176.8z"/>
<polygon class="st3" points="92.2,94.2 143.4,176.8 211,176.8 159.8,94.2 "/>
<path class="st5" d="M134.6,369.8h-45c-4.8,0-8.8-3.9-8.8-8.8v-32.2c0-4.8,3.9-8.8,8.8-8.8h45c4.8,0,8.8,3.9,8.8,8.8V361
	C143.4,365.9,139.4,369.8,134.6,369.8z"/>
<g>
	<path class="st6" d="M232.9,338.7h-55.7c-4.1,0-7.5-3.4-7.5-7.5s3.4-7.5,7.5-7.5h55.7c4.1,0,7.5,3.4,7.5,7.5S237,338.7,232.9,338.7
		z"/>
	<path class="st6" d="M213.9,366.1h-36.7c-4.1,0-7.5-3.4-7.5-7.5s3.4-7.5,7.5-7.5h36.7c4.1,0,7.5,3.4,7.5,7.5
		C221.4,362.8,218.1,366.1,213.9,366.1z"/>
</g>
<g>
	<path class="st1" d="M411.9,345.4c-1.9,0-3.8-0.7-5.3-2.2c-2.9-2.9-2.9-7.7,0-10.6l16.9-16.9c2.9-2.9,7.7-2.9,10.6,0
		s2.9,7.7,0,10.6l-16.9,16.9C415.7,344.7,413.8,345.4,411.9,345.4z"/>
	<path class="st1" d="M410.9,381.7c-1.9,0-3.8-0.7-5.3-2.2c-2.9-2.9-2.9-7.7,0-10.6l9.4-9.4c2.9-2.9,7.7-2.9,10.6,0s2.9,7.7,0,10.6
		l-9.4,9.4C414.7,381,412.8,381.7,410.9,381.7z"/>
</g>
<g>
	
		<linearGradient id="SVGID_1_" gradientUnits="userSpaceOnUse" x1="288.2798" y1="588.3565" x2="467.2751" y2="588.3565" gradientTransform="matrix(1.0667 0 0 1.0667 -12.6079 -286.2885)">
		<stop  offset="0" style="stop-color:#1ACEB8"/>
		<stop  offset="1" style="stop-color:#0BBFBA"/>
	</linearGradient>
	<path class="st7" d="M478,426H302.8c-4.3,0-7.9-3.5-7.9-7.9V264.5c0-4.3,3.5-7.9,7.9-7.9H478c4.3,0,7.9,3.5,7.9,7.9v153.7
		C485.8,422.5,482.3,426,478,426z"/>
	
		<linearGradient id="SVGID_2_" gradientUnits="userSpaceOnUse" x1="377.7773" y1="652.6845" x2="377.7773" y2="663.9951" gradientTransform="matrix(1.0667 0 0 1.0667 -12.6079 -286.2885)">
		<stop  offset="1.000000e-04" style="stop-color:#1ACEB8;stop-opacity:0"/>
		<stop  offset="1" style="stop-color:#04959C"/>
	</linearGradient>
	<path class="st8" d="M485.8,396.7v21.5c0,4.3-3.5,7.9-7.9,7.9H302.8c-4.3,0-7.9-3.5-7.9-7.9v-21.5H485.8L485.8,396.7z"/>
	
		<linearGradient id="SVGID_3_" gradientUnits="userSpaceOnUse" x1="429.0921" y1="633.7604" x2="447.8909" y2="652.5554" gradientTransform="matrix(1.0667 0 0 1.0667 -12.6079 -286.2885)">
		<stop  offset="0" style="stop-color:#97AAAA"/>
		<stop  offset="1" style="stop-color:#E8EFEE"/>
	</linearGradient>
	<path class="st9" d="M465.4,272.3v125.4c0,4.3-3.5,7.9-7.9,7.9H323.2c-4.3,0-7.9-3.5-7.9-7.9V272.3c0-4.3,3.5-7.9,7.9-7.9h134.3
		C461.9,264.5,465.4,268,465.4,272.3z"/>
	
		<linearGradient id="SVGID_4_" gradientUnits="userSpaceOnUse" x1="377.7771" y1="545.4669" x2="377.7771" y2="617.8428" gradientTransform="matrix(1.0667 0 0 1.0667 -12.6079 -286.2885)">
		<stop  offset="0" style="stop-color:#FFFFFF"/>
		<stop  offset="1" style="stop-color:#E8EFEE"/>
	</linearGradient>
	<path class="st10" d="M425.8,405.6H323.2c-4.3,0-7.9-3.5-7.9-7.9V272.3c0-4.3,3.5-7.9,7.9-7.9h134.3c4.3,0,7.9,3.5,7.9,7.9V368
		c0,1.2-0.5,2.4-1.3,3.2l-30.7,31.2C431.4,404.4,428.6,405.6,425.8,405.6z"/>
	
		<linearGradient id="SVGID_5_" gradientUnits="userSpaceOnUse" x1="377.7771" y1="640.2104" x2="377.7771" y2="649.9324" gradientTransform="matrix(1.0667 0 0 1.0667 -12.6079 -286.2885)">
		<stop  offset="0" style="stop-color:#C2CECE;stop-opacity:0"/>
		<stop  offset="0.179" style="stop-color:#AFBCBC;stop-opacity:0.179"/>
		<stop  offset="1" style="stop-color:#5B6A6A"/>
	</linearGradient>
	<path class="st11" d="M465.4,391.4v6.3c0,4.3-3.5,7.9-7.9,7.9H323.2c-4.3,0-7.9-3.5-7.9-7.9v-6.3H465.4z"/>
	<g>
		
			<linearGradient id="SVGCleanerId_0_3_" gradientUnits="userSpaceOnUse" x1="377.7773" y1="522.704" x2="377.7773" y2="526.6383" gradientTransform="matrix(1.0667 0 0 1.0667 -12.6079 -286.2885)">
			<stop  offset="0" style="stop-color:#C2CECE"/>
			<stop  offset="1" style="stop-color:#97AAAA"/>
		</linearGradient>
		<path id="SVGCleanerId_0" class="st12" d="M426.6,250.3h-20.7c-0.1-8.4-7-15.2-15.5-15.2s-15.3,6.8-15.5,15.2h-20.7
			c-4.3,0-7.9,3.5-7.9,7.9v10.5c0,4.3,3.5,7.9,7.9,7.9h72.4c4.3,0,7.9-3.5,7.9-7.9v-10.5C434.4,253.8,430.9,250.3,426.6,250.3z
			 M390.4,256.6c-3.3,0-6-2.7-6-6s2.7-6,6-6s6,2.7,6,6S393.7,256.6,390.4,256.6z"/>
	</g>
	<g>
		
			<linearGradient id="SVGCleanerId_0_4_" gradientUnits="userSpaceOnUse" x1="377.7773" y1="507.4152" x2="377.7773" y2="539.7762" gradientTransform="matrix(1.0667 0 0 1.0667 -12.6079 -286.2885)">
			<stop  offset="0" style="stop-color:#C2CECE"/>
			<stop  offset="1" style="stop-color:#97AAAA"/>
		</linearGradient>
		<path id="SVGCleanerId_0_1_" class="st13" d="M426.6,250.3h-20.7c-0.1-8.4-7-15.2-15.5-15.2s-15.3,6.8-15.5,15.2h-20.7
			c-4.3,0-7.9,3.5-7.9,7.9v10.5c0,4.3,3.5,7.9,7.9,7.9h72.4c4.3,0,7.9-3.5,7.9-7.9v-10.5C434.4,253.8,430.9,250.3,426.6,250.3z
			 M390.4,256.6c-3.3,0-6-2.7-6-6s2.7-6,6-6s6,2.7,6,6S393.7,256.6,390.4,256.6z"/>
	</g>
	<g>
		
			<linearGradient id="SVGCleanerId_0_5_" gradientUnits="userSpaceOnUse" x1="384.9019" y1="508.742" x2="287.5853" y2="514.1343" gradientTransform="matrix(1.0667 0 0 1.0667 -12.6079 -286.2885)">
			<stop  offset="0" style="stop-color:#C2CECE;stop-opacity:0"/>
			<stop  offset="1" style="stop-color:#97AAAA"/>
		</linearGradient>
		<path id="SVGCleanerId_0_2_" class="st14" d="M426.6,250.3h-20.7c-0.1-8.4-7-15.2-15.5-15.2s-15.3,6.8-15.5,15.2h-20.7
			c-4.3,0-7.9,3.5-7.9,7.9v10.5c0,4.3,3.5,7.9,7.9,7.9h72.4c4.3,0,7.9-3.5,7.9-7.9v-10.5C434.4,253.8,430.9,250.3,426.6,250.3z
			 M390.4,256.6c-3.3,0-6-2.7-6-6s2.7-6,6-6s6,2.7,6,6S393.7,256.6,390.4,256.6z"/>
	</g>
	
		<linearGradient id="SVGID_6_" gradientUnits="userSpaceOnUse" x1="385.5921" y1="508.859" x2="370.4815" y2="498.5191" gradientTransform="matrix(1.0667 0 0 1.0667 -12.6079 -286.2885)">
		<stop  offset="0" style="stop-color:#C2CECE;stop-opacity:0"/>
		<stop  offset="1" style="stop-color:#97AAAA"/>
	</linearGradient>
	<path class="st15" d="M398.6,251.6c0,3.9-3.2,7.1-7.1,7.1c-3.8,0-7-3-7.1-6.8c0.6,2.7,3,4.7,5.9,4.7c3.3,0,6-2.7,6-6
		c0-3.1-2.4-5.7-5.5-6c0.2,0,0.4,0,0.6,0C395.5,244.5,398.6,247.7,398.6,251.6z"/>
	
		<linearGradient id="SVGID_7_" gradientUnits="userSpaceOnUse" x1="415.9867" y1="618.6408" x2="430.5226" y2="633.1768" gradientTransform="matrix(1.0667 0 0 1.0667 -12.6079 -286.2885)">
		<stop  offset="0" style="stop-color:#FFFFFF"/>
		<stop  offset="1" style="stop-color:#E8EFEE"/>
	</linearGradient>
	<path class="st16" d="M465,369.9c0,0-0.2,0.7-1.1,1.6c-0.3,0.3-30.3,30.7-30.3,30.7c-2.1,2.2-5,3.4-8,3.4l0,0l0,0
		c2.6,0,4.7-2.1,4.7-4.7v-23.1c0-4.3,3.5-7.9,7.9-7.9L465,369.9L465,369.9z"/>
</g>
<path class="st17" d="M392.5,298c-20.9,0-37.8,16.9-37.8,37.8s16.9,37.8,37.8,37.8c20.9,0,37.8-16.9,37.8-37.8S413.4,298,392.5,298z
	 M385.6,355.1L369,338.5l5.5-5.5l11.1,11.1l25-25l5.5,5.5L385.6,355.1z"/>
</svg>
