<?xml version="1.0" encoding="utf-8"?>
<!-- Generator: Adobe Illustrator 21.0.0, SVG Export Plug-In . SVG Version: 6.00 Build 0)  -->
<svg version="1.1" id="Layer_1" xmlns="http://www.w3.org/2000/svg" xmlns:xlink="http://www.w3.org/1999/xlink" x="0px" y="0px"
	 viewBox="0 0 248 224" style="enable-background:new 0 0 248 224;" xml:space="preserve">
<style type="text/css">
	.st0{fill:#EBD2AF;}
	.st1{fill:#E1C3A0;}
	.st2{fill:#F0DCBE;}
	.st3{fill:#B99678;}
	.st4{fill:url(#SVGID_1_);}
	.st5{fill:url(#SVGID_2_);}
	.st6{fill:url(#SVGID_3_);}
	.st7{fill:url(#SVGID_4_);}
	.st8{fill:url(#SVGID_5_);}
	.st9{fill:url(#SVGID_6_);}
	.st10{fill:url(#SVGID_7_);}
	.st11{fill:url(#SVGID_8_);}
	.st12{fill:url(#SVGCleanerId_0_3_);}
	.st13{fill:url(#SVGID_9_);}
	.st14{fill:url(#SVGID_10_);}
	.st15{fill:url(#SVGCleanerId_0_4_);}
	.st16{fill:url(#SVGCleanerId_0_5_);}
	.st17{fill:#C2CECE;}
	.st18{fill:url(#SVGID_11_);}
	.st19{fill:url(#SVGID_12_);}
</style>
<path class="st0" d="M223.6,214.3H12.2c-4.5,0-8.1-3.6-8.1-8.1V47.9h227.7v158.3C231.8,210.7,228.1,214.3,223.6,214.3z"/>
<rect x="4.1" y="47.9" class="st1" width="227.7" height="12.2"/>
<path class="st2" d="M231.8,52H4.1C1.8,52,0,50.2,0,47.9V10.5C0,6,3.6,2.3,8.1,2.3h219.6c4.5,0,8.1,3.6,8.1,8.1v37.5
	C235.8,50.2,234,52,231.8,52z"/>
<path class="st3" d="M146.4,68.3H89.5c-4.5,0-8.1,3.6-8.1,8.1l0,0c0,4.5,3.6,8.1,8.1,8.1h56.9c4.5,0,8.1-3.6,8.1-8.1l0,0
	C154.5,71.9,150.9,68.3,146.4,68.3z"/>
<linearGradient id="SVGID_1_" gradientUnits="userSpaceOnUse" x1="125.1927" y1="419.8943" x2="243.1008" y2="419.8943" gradientTransform="matrix(1.0667 0 0 1.0667 -10.7403 -281.6862)">
	<stop  offset="0" style="stop-color:#1ACEB8"/>
	<stop  offset="1" style="stop-color:#0BBFBA"/>
</linearGradient>
<path class="st4" d="M243.4,222H128c-2.9,0-5.2-2.3-5.2-5.2V115.6c0-2.9,2.3-5.2,5.2-5.2h115.4c2.9,0,5.2,2.3,5.2,5.2v101.2
	C248.6,219.7,246.3,222,243.4,222z"/>
<linearGradient id="SVGID_2_" gradientUnits="userSpaceOnUse" x1="184.1468" y1="375.0754" x2="184.1468" y2="369.1503" gradientTransform="matrix(1.0667 0 0 1.0667 -10.7403 -281.6862)">
	<stop  offset="1.000000e-04" style="stop-color:#1ACEB8;stop-opacity:0"/>
	<stop  offset="0.104" style="stop-color:#24CEBB;stop-opacity:0.103"/>
	<stop  offset="1" style="stop-color:#78CDD1"/>
</linearGradient>
<path class="st5" d="M122.8,129.8v-14.2c0-2.9,2.3-5.2,5.2-5.2h115.4c2.9,0,5.2,2.3,5.2,5.2v14.2H122.8z"/>
<linearGradient id="SVGID_3_" gradientUnits="userSpaceOnUse" x1="217.0385" y1="376.0972" x2="213.5085" y2="372.5673" gradientTransform="matrix(1.0667 0 0 1.0667 -10.7403 -281.6862)">
	<stop  offset="1.000000e-04" style="stop-color:#1ACEB8;stop-opacity:0"/>
	<stop  offset="1" style="stop-color:#07ADB5"/>
</linearGradient>
<polygon class="st6" points="214.2,110.1 219.9,115.8 214.2,115.8 "/>
<linearGradient id="SVGID_4_" gradientUnits="userSpaceOnUse" x1="248.5065" y1="480.5272" x2="185.5418" y2="417.5648" gradientTransform="matrix(1.0667 0 0 1.0667 -10.7403 -281.6862)">
	<stop  offset="1.000000e-04" style="stop-color:#1ACEB8;stop-opacity:0"/>
	<stop  offset="1" style="stop-color:#07ADB5"/>
</linearGradient>
<path class="st7" d="M248.6,132.5v84.3c0,2.9-2.3,5.2-5.2,5.2h-90.5l-15.5-15.5l0.4-0.1c0.6,0.3,1.3,0.4,2,0.4h88.5
	c2.9,0,5.2-2.3,5.2-5.2v-82.6c0-0.5-0.1-1-0.2-1.5l0.2-0.2L248.6,132.5z"/>
<linearGradient id="SVGID_5_" gradientUnits="userSpaceOnUse" x1="184.1466" y1="462.2686" x2="184.1466" y2="469.7191" gradientTransform="matrix(1.0667 0 0 1.0667 -10.7403 -281.6862)">
	<stop  offset="1.000000e-04" style="stop-color:#1ACEB8;stop-opacity:0"/>
	<stop  offset="1" style="stop-color:#04959C"/>
</linearGradient>
<path class="st8" d="M248.6,202.7v14.2c0,2.9-2.3,5.2-5.2,5.2H128c-2.9,0-5.2-2.3-5.2-5.2v-14.2H248.6L248.6,202.7z"/>
<linearGradient id="SVGID_6_" gradientUnits="userSpaceOnUse" x1="217.9489" y1="449.8028" x2="230.332" y2="462.1835" gradientTransform="matrix(1.0667 0 0 1.0667 -10.7403 -281.6862)">
	<stop  offset="0" style="stop-color:#97AAAA"/>
	<stop  offset="1" style="stop-color:#E8EFEE"/>
</linearGradient>
<path class="st9" d="M235.1,120.8v82.6c0,2.9-2.3,5.2-5.2,5.2h-88.5c-2.9,0-5.2-2.3-5.2-5.2v-82.6c0-2.9,2.3-5.2,5.2-5.2h88.5
	C232.8,115.6,235.1,117.9,235.1,120.8z"/>
<linearGradient id="SVGID_7_" gradientUnits="userSpaceOnUse" x1="184.1465" y1="391.642" x2="184.1465" y2="439.3175" gradientTransform="matrix(1.0667 0 0 1.0667 -10.7403 -281.6862)">
	<stop  offset="0" style="stop-color:#FFFFFF"/>
	<stop  offset="1" style="stop-color:#E8EFEE"/>
</linearGradient>
<path class="st10" d="M209,208.5h-67.5c-2.9,0-5.2-2.3-5.2-5.2v-82.6c0-2.9,2.3-5.2,5.2-5.2h88.5c2.9,0,5.2,2.3,5.2,5.2v63
	c0,0.8-0.3,1.6-0.9,2.1L214,206.4C212.7,207.8,210.9,208.5,209,208.5z"/>
<linearGradient id="SVGID_8_" gradientUnits="userSpaceOnUse" x1="184.1465" y1="454.0516" x2="184.1465" y2="460.4557" gradientTransform="matrix(1.0667 0 0 1.0667 -10.7403 -281.6862)">
	<stop  offset="0" style="stop-color:#C2CECE;stop-opacity:0"/>
	<stop  offset="0.179" style="stop-color:#AFBCBC;stop-opacity:0.179"/>
	<stop  offset="1" style="stop-color:#5B6A6A"/>
</linearGradient>
<path class="st11" d="M235.1,199.2v4.1c0,2.9-2.3,5.2-5.2,5.2h-88.5c-2.9,0-5.2-2.3-5.2-5.2v-4.1H235.1z"/>
<g>
	
		<linearGradient id="SVGCleanerId_0_3_" gradientUnits="userSpaceOnUse" x1="184.1466" y1="376.6475" x2="184.1466" y2="379.2391" gradientTransform="matrix(1.0667 0 0 1.0667 -10.7403 -281.6862)">
		<stop  offset="0" style="stop-color:#C2CECE"/>
		<stop  offset="1" style="stop-color:#97AAAA"/>
	</linearGradient>
	<path id="SVGCleanerId_0" class="st12" d="M209.5,106.3h-13.7c-0.1-5.5-4.6-10-10.2-10s-10.1,4.5-10.2,10h-13.7
		c-2.9,0-5.2,2.3-5.2,5.2v6.9c0,2.9,2.3,5.2,5.2,5.2h47.7c2.9,0,5.2-2.3,5.2-5.2v-6.9C214.7,108.6,212.4,106.3,209.5,106.3z
		 M185.7,110.4c-2.2,0-4-1.8-4-4s1.8-4,4-4s4,1.8,4,4C189.7,108.6,187.9,110.4,185.7,110.4z"/>
</g>
<linearGradient id="SVGID_9_" gradientUnits="userSpaceOnUse" x1="184.1465" y1="402.9762" x2="184.1465" y2="469.8886" gradientTransform="matrix(1.0667 0 0 1.0667 -10.7403 -281.6862)">
	<stop  offset="0" style="stop-color:#C2CECE;stop-opacity:0"/>
	<stop  offset="0.179" style="stop-color:#AFBCBC;stop-opacity:0.179"/>
	<stop  offset="1" style="stop-color:#5B6A6A"/>
</linearGradient>
<path class="st13" d="M235.1,164.7v-43.9c0-2.9-2.3-5.2-5.2-5.2h-10h-78.4c-2.9,0-5.2,2.3-5.2,5.2v43.9
	C136.3,165,235.1,164.7,235.1,164.7z"/>
<linearGradient id="SVGID_10_" gradientUnits="userSpaceOnUse" x1="207.4457" y1="395.4152" x2="147.1045" y2="335.0715" gradientTransform="matrix(1.0667 0 0 1.0667 -10.7403 -281.6862)">
	<stop  offset="0" style="stop-color:#C2CECE;stop-opacity:0"/>
	<stop  offset="0.179" style="stop-color:#AFBCBC;stop-opacity:0.179"/>
	<stop  offset="1" style="stop-color:#5B6A6A"/>
</linearGradient>
<polygon class="st14" points="235.1,130.8 235.1,198.5 159.4,122.9 159.4,115.6 219.9,115.6 "/>
<g>
	
		<linearGradient id="SVGCleanerId_0_4_" gradientUnits="userSpaceOnUse" x1="184.1466" y1="366.5764" x2="184.1466" y2="387.8933" gradientTransform="matrix(1.0667 0 0 1.0667 -10.7403 -281.6862)">
		<stop  offset="0" style="stop-color:#C2CECE"/>
		<stop  offset="1" style="stop-color:#97AAAA"/>
	</linearGradient>
	<path id="SVGCleanerId_0_1_" class="st15" d="M209.5,106.3h-13.7c-0.1-5.5-4.6-10-10.2-10s-10.1,4.5-10.2,10h-13.7
		c-2.9,0-5.2,2.3-5.2,5.2v6.9c0,2.9,2.3,5.2,5.2,5.2h47.7c2.9,0,5.2-2.3,5.2-5.2v-6.9C214.7,108.6,212.4,106.3,209.5,106.3z
		 M185.7,110.4c-2.2,0-4-1.8-4-4s1.8-4,4-4s4,1.8,4,4C189.7,108.6,187.9,110.4,185.7,110.4z"/>
</g>
<g>
	
		<linearGradient id="SVGCleanerId_0_5_" gradientUnits="userSpaceOnUse" x1="188.8398" y1="367.4504" x2="124.7352" y2="371.0025" gradientTransform="matrix(1.0667 0 0 1.0667 -10.7403 -281.6862)">
		<stop  offset="0" style="stop-color:#C2CECE;stop-opacity:0"/>
		<stop  offset="1" style="stop-color:#97AAAA"/>
	</linearGradient>
	<path id="SVGCleanerId_0_2_" class="st16" d="M209.5,106.3h-13.7c-0.1-5.5-4.6-10-10.2-10s-10.1,4.5-10.2,10h-13.7
		c-2.9,0-5.2,2.3-5.2,5.2v6.9c0,2.9,2.3,5.2,5.2,5.2h47.7c2.9,0,5.2-2.3,5.2-5.2v-6.9C214.7,108.6,212.4,106.3,209.5,106.3z
		 M185.7,110.4c-2.2,0-4-1.8-4-4s1.8-4,4-4s4,1.8,4,4C189.7,108.6,187.9,110.4,185.7,110.4z"/>
</g>
<g>
	<rect x="152.3" y="141.5" class="st17" width="66.7" height="3.8"/>
	<rect x="152.3" y="156" class="st17" width="66.7" height="3.8"/>
	<rect x="152.3" y="170.5" class="st17" width="66.7" height="3.8"/>
	<rect x="152.3" y="185" class="st17" width="52.7" height="3.8"/>
</g>
<linearGradient id="SVGID_11_" gradientUnits="userSpaceOnUse" x1="189.2945" y1="367.5275" x2="179.3408" y2="360.7164" gradientTransform="matrix(1.0667 0 0 1.0667 -10.7403 -281.6862)">
	<stop  offset="0" style="stop-color:#C2CECE;stop-opacity:0"/>
	<stop  offset="1" style="stop-color:#97AAAA"/>
</linearGradient>
<path class="st18" d="M191.1,107.1c0,2.6-2.1,4.7-4.7,4.7c-2.5,0-4.6-2-4.7-4.5c0.4,1.8,2,3.1,3.9,3.1c2.2,0,4-1.8,4-4
	c0-2.1-1.6-3.8-3.6-4c0.1,0,0.3,0,0.4,0C189,102.5,191.1,104.6,191.1,107.1z"/>
<linearGradient id="SVGID_12_" gradientUnits="userSpaceOnUse" x1="209.316" y1="439.8432" x2="218.8911" y2="449.4183" gradientTransform="matrix(1.0667 0 0 1.0667 -10.7403 -281.6862)">
	<stop  offset="0" style="stop-color:#FFFFFF"/>
	<stop  offset="1" style="stop-color:#E8EFEE"/>
</linearGradient>
<path class="st19" d="M234.8,185c0,0-0.2,0.4-0.8,1c-0.2,0.2-19.9,20.2-19.9,20.2c-1.4,1.4-3.3,2.2-5.3,2.2l0,0l0,0
	c1.7,0,3.1-1.4,3.1-3.1v-15.2c0-2.9,2.3-5.2,5.2-5.2L234.8,185L234.8,185z"/>
</svg>
