
<svg width="74px" height="93px" viewBox="0 0 74 93" version="1.1" xmlns="http://www.w3.org/2000/svg" xmlns:xlink="http://www.w3.org/1999/xlink">
    <!-- Generator: Sketch 51.2 (57519) - http://www.bohemiancoding.com/sketch -->
    <desc>Created with Sketch.</desc>
    <defs>
        <polygon id="path-1" points="0 0.1213 74 0.1213 74 92.9993 0 92.9993"></polygon>
    </defs>
    <g id="UI" stroke="none" stroke-width="1" fill="none" fill-rule="evenodd">
        <g id="Buttons-Des." transform="translate(-435.000000, -2683.000000)">
            <g id="Group" transform="translate(140.000000, 2676.000000)">
                <g id="Group-10" transform="translate(295.000000, 6.000000)">
                    <path d="M44.502,51.4088 C42.267,51.4088 40.448,53.2268 40.448,55.4618 C40.448,57.6968 42.267,59.5148 44.502,59.5148 C46.737,59.5148 48.555,57.6968 48.555,55.4618 C48.555,53.2268 46.737,51.4088 44.502,51.4088" id="Fill-1" fill="#000000"></path>
                    <path d="M30.854,42.8023 L29.044,35.2293 L49.259,35.2293 L47.386,42.8023 L30.854,42.8023 Z M52.9,29.5303 L27.682,29.5303 L26.742,25.5973 C26.434,24.3103 25.294,23.4113 23.971,23.4113 L19.517,23.4113 C17.945,23.4113 16.666,24.6893 16.666,26.2603 C16.666,27.8323 17.945,29.1103 19.517,29.1103 L21.722,29.1103 L25.833,46.3143 C26.141,47.6023 27.281,48.5013 28.605,48.5013 L49.616,48.5013 C50.929,48.5013 52.067,47.6123 52.382,46.3373 L55.666,33.0643 C55.878,32.2083 55.688,31.3193 55.145,30.6233 C54.601,29.9283 53.783,29.5303 52.9,29.5303 Z" id="Fill-3" fill="#000000"></path>
                    <path d="M30.4185,51.4088 C28.1835,51.4088 26.3645,53.2268 26.3645,55.4618 C26.3645,57.6968 28.1835,59.5148 30.4185,59.5148 C32.6535,59.5148 34.4715,57.6968 34.4715,55.4618 C34.4715,53.2268 32.6535,51.4088 30.4185,51.4088" id="Fill-5" fill="#000000"></path>
                    <g id="Group-9" transform="translate(0.000000, 0.879000)">
                        <mask id="mask-2" fill="white">
                            <use xlink:href="#path-1"></use>
                        </mask>
                        <g id="Clip-8"></g>
                        <path d="M66.8008,43.8833 L66.8008,44.1203 C63.7618,57.4023 43.8398,78.3593 37.0388,85.1593 C30.2378,78.3593 10.2378,57.4023 7.1988,43.8013 C7.1988,43.6413 7.1988,43.5623 7.1208,43.4023 C6.7188,41.3203 6.4798,39.2413 6.4798,37.1593 C6.4798,20.3593 20.1598,6.6013 36.9608,6.6013 C53.7618,6.6013 67.5198,20.2803 67.5198,37.1593 C67.5198,39.4803 67.2808,41.7233 66.8008,43.8833 M37.0388,0.1213 C16.6408,0.1213 -0.0002,16.7623 -0.0002,37.2413 C-0.0002,39.7233 0.2378,42.1983 0.7188,44.6013 C0.7188,44.7623 0.8008,44.9223 0.8008,45.1593 C4.8788,63.4803 33.6018,90.9993 34.8008,92.1203 C35.4408,92.7623 36.2388,92.9993 37.0388,92.9993 C37.8398,92.9993 38.6408,92.6803 39.2808,92.1203 C40.4798,90.9223 69.0388,63.4803 73.1208,45.5623 C73.1208,45.4023 73.1988,45.2413 73.1988,45.0813 C73.7618,42.5193 73.9998,39.8833 73.9998,37.2413 C74.0778,16.7623 57.4408,0.1213 37.0388,0.1213" id="Fill-7" fill="#000000" mask="url(#mask-2)"></path>
                    </g>
                </g>
            </g>
        </g>
    </g>
</svg>