<?xml version="1.0" encoding="utf-8"?>
<!-- Generator: Adobe Illustrator 21.0.0, SVG Export Plug-In . SVG Version: 6.00 Build 0)  -->
<svg version="1.1" id="Слой_1" xmlns="http://www.w3.org/2000/svg" xmlns:xlink="http://www.w3.org/1999/xlink" x="0px" y="0px"
	 viewBox="0 0 35 35" style="enable-background:new 0 0 35 35;" xml:space="preserve">
<style type="text/css">
	.st0{fill:#F8B96B;}
	.st1{fill:url(#SVGID_1_);}
	.st2{fill:url(#SVGID_2_);}
	.st3{fill:#888888;}
</style>
<path class="st0" d="M15.1,22.5H2.8c-1,0-1.8-0.8-1.8-1.8v0c0-1,0.8-1.8,1.8-1.8h12.3c1,0,1.8,0.8,1.8,1.8v0
	C16.9,21.7,16.1,22.5,15.1,22.5z"/>
<linearGradient id="SVGID_1_" gradientUnits="userSpaceOnUse" x1="4.9324" y1="22.7654" x2="30.3176" y2="-2.6199">
	<stop  offset="0" style="stop-color:#F7DB87"/>
	<stop  offset="0.4974" style="stop-color:#FFFFFF"/>
</linearGradient>
<rect x="1.1" y="1.2" class="st1" width="33" height="17.8"/>
<linearGradient id="SVGID_2_" gradientUnits="userSpaceOnUse" x1="20.1875" y1="24.792" x2="29.8125" y2="24.792">
	<stop  offset="0" style="stop-color:#F7DB87"/>
	<stop  offset="0.4974" style="stop-color:#FFFFFF"/>
</linearGradient>
<rect x="20.2" y="15.9" class="st2" width="9.6" height="17.8"/>
<desc>Created with Sketch.</desc>
<g id="homepage">
	<g id="d" transform="translate(-142.000000, -265.000000)">
		<g id="icon-02" transform="translate(142.000000, 265.000000)">
			<path id="Shape" class="st3" d="M28.4,14.6h-7.3c-1.2,0-2.2,1-2.2,2.2v16c0,1.2,1,2.2,2.2,2.2h7.3c1.2,0,2.2-1,2.2-2.2v-16
				C30.6,15.6,29.6,14.6,28.4,14.6z M29.2,32.8c0,0.4-0.3,0.7-0.7,0.7h-7.3c-0.4,0-0.7-0.3-0.7-0.7v-16c0-0.4,0.3-0.7,0.7-0.7h7.3
				c0.4,0,0.7,0.3,0.7,0.7V32.8z"/>
			<path id="Shape_1_" class="st3" d="M24.8,24.8c-1.2,0-2.2,1-2.2,2.2s1,2.2,2.2,2.2s2.2-1,2.2-2.2S26,24.8,24.8,24.8z M24.8,27.7
				c-0.4,0-0.7-0.3-0.7-0.7c0-0.4,0.3-0.7,0.7-0.7c0.4,0,0.7,0.3,0.7,0.7C25.5,27.4,25.2,27.7,24.8,27.7L24.8,27.7z"/>
			<rect id="Rectangle-path" x="22.6" y="17.5" class="st3" width="1.5" height="1.5"/>
			<rect id="Rectangle-path_1_" x="25.5" y="17.5" class="st3" width="1.5" height="1.5"/>
			<rect id="Rectangle-path_2_" x="22.6" y="20.4" class="st3" width="1.5" height="1.5"/>
			<rect id="Rectangle-path_3_" x="25.5" y="20.4" class="st3" width="1.5" height="1.5"/>
			<rect id="Rectangle-path_4_" x="25.5" y="30.6" class="st3" width="1.5" height="1.5"/>
			<rect id="Rectangle-path_5_" x="22.6" y="30.6" class="st3" width="1.5" height="1.5"/>
			<path id="Shape_2_" class="st3" d="M22.7,12.5l1,1c0.6-0.6,1.5-0.6,2.1,0l1-1C25.7,11.4,23.9,11.4,22.7,12.5z"/>
			<path id="Shape_3_" class="st3" d="M28.9,10.5c-2.3-2.3-6-2.3-8.2,0l1,1c1.7-1.7,4.5-1.7,6.2,0L28.9,10.5z"/>
			<path id="Shape_4_" class="st3" d="M18.6,8.4l1,1c2.8-2.8,7.5-2.8,10.3,0l1-1C27.6,5,22,5,18.6,8.4z"/>
			<path id="Shape_5_" class="st3" d="M32.8,0H2.2C1.6,0,1.1,0.2,0.6,0.6S0,1.6,0,2.2v19c0,1.2,1,2.2,2.2,2.2h8.8v2.9H8.8
				C8.3,26.2,8,26.6,8,27c0,0.4,0.3,0.7,0.7,0.7h8c0.4,0,0.7-0.3,0.7-0.7c0-0.4-0.3-0.7-0.7-0.7h-4.4v-2.9h4.4
				c0.2,0,0.4-0.1,0.5-0.2c0.1-0.1,0.2-0.3,0.2-0.5c0-0.4-0.3-0.7-0.7-0.7H2.2c-0.4,0-0.7-0.3-0.7-0.7v-1.5h15.3
				c0.4,0,0.7-0.3,0.7-0.7c0-0.4-0.3-0.7-0.7-0.7H1.5v-16c0-0.4,0.3-0.7,0.7-0.7h30.6c0.4,0,0.7,0.3,0.7,0.7v19
				c0,0.4-0.3,0.7-0.7,0.7s-0.7,0.3-0.7,0.7c0,0.4,0.3,0.7,0.7,0.7c1.2,0,2.2-1,2.2-2.2v-19C35,1,34,0,32.8,0z"/>
		</g>
	</g>
</g>
</svg>
