<svg width="50" height="50" viewBox="0 0 50 50" fill="none" xmlns="http://www.w3.org/2000/svg">
<rect width="50" height="50" fill="#EAEAEA"/>
<path d="M25.0054 8C29.5098 8 33.1599 11.6014 33.1599 16.0422C33.1599 20.4841 29.5098 24.0843 25.0054 24.0843C20.5032 24.0843 16.8531 20.4841 16.8531 16.0422C16.8531 11.6014 20.5032 8 25.0054 8ZM25 43C20.5075 43 16.3929 41.3862 13.2192 38.7151C12.4461 38.0647 12 37.111 12 36.1102C12 31.6064 15.6956 28.0018 20.2628 28.0018H29.7502C34.3185 28.0018 38 31.6064 38 36.1102C38 37.112 37.5561 38.0636 36.7819 38.7141C33.6093 41.3862 29.4936 43 25 43Z" fill="white"/>
</svg>
