<?xml version="1.0" standalone="no"?>
<!DOCTYPE svg PUBLIC "-//W3C//DTD SVG 1.1//EN" "http://www.w3.org/Graphics/SVG/1.1/DTD/svg11.dtd" >
<svg xmlns="http://www.w3.org/2000/svg">
<metadata>
<json>
<![CDATA[
{
	"fontFamily": "icon-ui",
	"majorVersion": 1,
	"minorVersion": 0,
	"designer": "",
	"designerURL": "",
	"version": "Version 1.0",
	"fontId": "icon-ui",
	"psName": "icon-ui",
	"subFamily": "Regular",
	"fullName": "icon-ui",
	"description": "Font generated by IcoMoon."
}
]]>
</json>
</metadata>
<defs>
<font id="icon-ui" horiz-adv-x="1024">
<font-face units-per-em="1024" ascent="860.16" descent="-163.84" />
<missing-glyph horiz-adv-x="1024" />
<glyph unicode="&#x20;" horiz-adv-x="0" d="" />
<glyph unicode="&#x4d;" glyph-name="Date-range" data-tags="date_range" d="M810-0.667v470h-596v-470h596zM810 683.333c46 0 86-40 86-86v-598c0-46-40-84-86-84h-596c-48 0-86 38-86 84v598c0 46 38 86 86 86h42v84h86v-84h340v84h86v-84h42zM726 383.333v-84h-86v84h86zM554 383.333v-84h-84v84h84zM384 383.333v-84h-86v84h86z" />
<glyph unicode="&#x53;" glyph-name="Check" data-tags="check" d="M384 163.333l452 452 60-60-512-512-238 238 60 60z" />
<glyph unicode="&#x7e;" glyph-name="settings-Line" data-tags="settings Line" d="M829.013 299.52c1.707 13.653 2.987 27.307 2.987 41.813s-1.28 28.16-2.987 41.813l90.027 70.4c8.107 6.4 10.24 17.92 5.12 27.307l-85.333 147.627c-3.84 6.827-11.093 10.667-18.773 10.667-2.56 0-5.12-0.427-7.253-1.28l-106.24-42.667c-22.187 17.067-46.080 31.147-72.107 41.813l-16.213 113.067c-1.28 10.24-10.24 17.92-20.907 17.92h-170.667c-10.667 0-19.627-7.68-20.907-17.92l-16.213-113.067c-26.027-10.667-49.92-25.173-72.107-41.813l-106.24 42.667c-2.56 0.853-5.12 1.28-7.68 1.28-7.253 0-14.507-3.84-18.347-10.667l-85.333-147.627c-5.547-9.387-2.987-20.907 5.12-27.307l90.027-70.4c-1.707-13.653-2.987-27.733-2.987-41.813s1.28-28.16 2.987-41.813l-90.027-70.4c-8.107-6.4-10.24-17.92-5.12-27.307l85.333-147.627c3.84-6.827 11.093-10.667 18.773-10.667 2.56 0 5.12 0.427 7.253 1.28l106.24 42.667c22.187-17.067 46.080-31.147 72.107-41.813l16.213-113.067c1.28-10.24 10.24-17.92 20.907-17.92h170.667c10.667 0 19.627 7.68 20.907 17.92l16.213 113.067c26.027 10.667 49.92 25.173 72.107 41.813l106.24-42.667c2.56-0.853 5.12-1.28 7.68-1.28 7.253 0 14.507 3.84 18.347 10.667l85.333 147.627c5.12 9.387 2.987 20.907-5.12 27.307l-90.027 70.4zM744.533 372.48c1.707-13.227 2.133-22.187 2.133-31.147s-0.853-18.347-2.133-31.147l-5.973-48.213 37.973-29.867 46.080-35.84-29.867-51.627-54.187 21.76-44.373 17.92-38.4-29.013c-18.347-13.653-35.84-23.893-53.333-31.147l-45.227-18.347-6.827-48.213-8.533-57.6h-59.733l-8.107 57.6-6.827 48.213-45.227 18.347c-18.347 7.68-35.413 17.493-52.48 30.293l-38.827 29.867-45.227-18.347-54.187-21.76-29.867 51.627 46.080 35.84 37.973 29.867-5.973 48.213c-1.28 13.227-2.133 23.040-2.133 31.573s0.853 18.347 2.133 31.147l5.973 48.213-37.973 29.867-46.080 35.84 29.867 51.627 54.187-21.76 44.373-17.92 38.4 29.013c18.347 13.653 35.84 23.893 53.333 31.147l45.227 18.347 6.827 48.213 8.533 57.6h59.307l8.107-57.6 6.827-48.213 45.227-18.347c18.347-7.68 35.413-17.493 52.48-30.293l38.827-29.867 45.227 18.347 54.187 21.76 29.867-51.627-45.653-36.267-37.973-29.867 5.973-48.213zM512 512c-94.293 0-170.667-76.373-170.667-170.667s76.373-170.667 170.667-170.667c94.293 0 170.667 76.373 170.667 170.667s-76.373 170.667-170.667 170.667zM512 256c-46.933 0-85.333 38.4-85.333 85.333s38.4 85.333 85.333 85.333c46.933 0 85.333-38.4 85.333-85.333s-38.4-85.333-85.333-85.333z" />
<glyph unicode="&#xe008;" glyph-name="person" data-tags="person" d="M213.333 21.333h597.333v64c0 35.346-33.429 64-74.667 64h-448c-41.237 0-74.667-28.654-74.667-64v-64zM256 234.666h512c70.692 0 128-57.308 128-128v-85.333h-768v85.333c0 70.692 57.308 128 128 128zM533.333 320c-106.039 0-192 85.961-192 192s85.961 192 192 192c106.039 0 192-85.961 192-192s-85.961-192-192-192zM533.333 405.333c58.91 0 106.667 47.756 106.667 106.667s-47.756 106.667-106.667 106.667c-58.91 0-106.667-47.756-106.667-106.667s47.756-106.667 106.667-106.667z" />
<glyph unicode="&#xe014;" glyph-name="Close" data-tags="close" d="M810 579.333l-238-238 238-238-60-60-238 238-238-238-60 60 238 238-238 238 60 60 238-238 238 238z" />
<glyph unicode="&#xe016;" glyph-name="Lock_open" data-tags="lock_open" d="M768-0.667v428h-512v-428h512zM768 511.333c46 0 86-38 86-84v-428c0-46-40-84-86-84h-512c-46 0-86 38-86 84v428c0 46 40 84 86 84h388v86c0 72-60 132-132 132s-132-60-132-132h-82c0 118 96 214 214 214s214-96 214-214v-86h42zM512 127.333c-46 0-86 40-86 86s40 86 86 86 86-40 86-86-40-86-86-86z" />
<glyph unicode="&#xe017;" glyph-name="lock_outline2" data-tags="lock_outline" d="M768-0.667v428h-512v-428h512zM380 597.333v-86h264v86c0 72-60 132-132 132s-132-60-132-132zM768 511.333c46 0 86-38 86-84v-428c0-46-40-84-86-84h-512c-46 0-86 38-86 84v428c0 46 40 84 86 84h42v86c0 118 96 214 214 214s214-96 214-214v-86h42zM512 127.333c-46 0-86 40-86 86s40 86 86 86 86-40 86-86-40-86-86-86z" />
<glyph unicode="&#xe021;" glyph-name="home" data-tags="home" d="M512 682.666l-426.667-384h128v-341.333h256v256h85.333v-256h256v341.333h128l-426.667 384zM298.709 298.666v77.227l213.291 192 213.333-192v-333.227h-85.333v256h-256v-256h-85.291v256z" />
<glyph unicode="&#xe039;" glyph-name="activity" data-tags="activity" d="M432.596 435.353l-70.997-204.657h-233.599v47.341h196.253l110.767 319.296 129.485-412.11 139.843 311.708 46.293-218.894h145.361v-47.341h-187.518l-21.832 103.234-130.671-291.263z" />
<glyph unicode="&#xe056;" glyph-name="menu" data-tags="menu" d="M128 42.666h768v85.333h-768v-85.333zM128 298.666h768v85.333h-768v-85.333zM128 640v-85.333h768v85.333h-768z" />
<glyph unicode="&#xe105;" glyph-name="Visibility" data-tags="visibility" d="M512 469.333c70 0 128-58 128-128s-58-128-128-128-128 58-128 128 58 128 128 128zM512 127.333c118 0 214 96 214 214s-96 214-214 214-214-96-214-214 96-214 214-214zM512 661.333c214 0 396-132 470-320-74-188-256-320-470-320s-396 132-470 320c74 188 256 320 470 320z" />
<glyph unicode="&#xe223;" glyph-name="home-Fill" data-tags="home Fill" d="M426.667-42.667v256h170.667v-256h213.333v341.333h128l-426.667 384-426.667-384h128v-341.333z" />
<glyph unicode="&#xe259;" glyph-name="Expand_more" data-tags="expand_more" d="M708 487.333l60-60-256-256-256 256 60 60 196-196z" />
<glyph unicode="&#xe260;" glyph-name="Expand_less" data-tags="expand_less" d="M512 511.333l256-256-60-60-196 196-196-196-60 60z" />
<glyph unicode="&#xe900;" glyph-name="Exit" data-tags="Exit" d="M128 724.906h512c46.933 0 85.333-38.4 85.333-85.333v-170.24h-85.333v171.093h-512v-598.613h512v171.52h85.333v-171.093c0-46.933-38.4-84.48-85.333-84.48h-512c-46.933 0-85.333 37.547-85.333 84.48v597.333c0 47.36 38.4 85.333 85.333 85.333zM810.667 512l170.667-170.667-170.667-170.667v128h-426.667v85.333h426.667v128z" />
<glyph unicode="&#xe901;" glyph-name="Notifications_none" data-tags="notifications_none" d="M682 127.333v256c0 106-64 192-170 192s-170-86-170-192v-256h340zM768 171.333l86-86v-42h-684v42l86 86v212c0 132 70 240 192 270v30c0 36 28 64 64 64s64-28 64-64v-30c122-30 192-140 192-270v-212zM512-84.667c-46 0-86 38-86 84h172c0-46-40-84-86-84z" />
<glyph unicode="&#xe902;" glyph-name="Star" data-tags="Left 24 px  Copy 2" d="M686.675 47.443l-174.609 111.964-174.609-111.964c-10.865-6.855-24.833-6.093-34.922 0.762-10.089 7.617-14.745 20.565-11.641 32.751l55.099 190.415-164.52 136.337c-9.312 7.617-13.193 20.565-9.312 32.751s14.745 19.803 27.161 21.326l196.338 13.71 88.469 189.653c4.656 10.663 15.521 17.518 27.937 17.518s23.281-6.855 27.937-17.518l88.469-189.653 196.338-13.71c12.417-0.762 23.281-9.14 27.161-21.326 3.88-11.425 0-24.373-9.312-32.751l-163.744-135.575 55.099-190.415c3.88-12.187-0.776-25.135-11.641-32.751-5.432-3.808-11.641-6.093-18.625-6.093-6.208 0-11.641 1.523-17.073 4.57z" />
<glyph unicode="&#xe903;" glyph-name="fire" data-tags="fire" d="M608.457-146.833c197.486-36.366 394.971 109.829 394.971 327.293 0 182.159-157.989 327.549-236.983 363.659 0-72.439-78.994-181.464-157.989-181.83 0 218.342-78.994 400.025-157.989 472.757-78.994-254.562-434.469-417.141-434.469-618.221 0-148.474 136.904-276.461 276.48-363.659-118.491 182.451 0 400.025 157.989 436.391-39.497-36.366-76.812-393.154 157.989-436.391z" />
<glyph unicode="&#xe904;" glyph-name="Vert-Bold" data-tags="Vert Bold" d="M512 725.333c46.933 0 85.333-38.4 85.333-85.333s-38.4-85.333-85.333-85.333c-46.933 0-85.333 38.4-85.333 85.333s38.4 85.333 85.333 85.333zM512 426.666c46.933 0 85.333-38.4 85.333-85.333s-38.4-85.333-85.333-85.333c-46.933 0-85.333 38.4-85.333 85.333s38.4 85.333 85.333 85.333zM512 128c46.933 0 85.333-38.4 85.333-85.333s-38.4-85.333-85.333-85.333c-46.933 0-85.333 38.4-85.333 85.333s38.4 85.333 85.333 85.333z" />
<glyph unicode="&#xe905;" glyph-name="add_a_photo" data-tags="add_a_photo" d="M128 682.666v128h85.333v-128h128v-85.333h-128v-128h-85.333v128h-128v85.333h128zM256 426.666v128h128v128h298.667l78.080-85.333h135.253c46.933 0 85.333-38.4 85.333-85.333v-512c0-46.933-38.4-85.333-85.333-85.333h-682.667c-46.933 0-85.333 38.4-85.333 85.333v426.667h128zM554.667 42.666c117.76 0 213.333 95.573 213.333 213.333s-95.573 213.333-213.333 213.333c-117.76 0-213.333-95.573-213.333-213.333s95.573-213.333 213.333-213.333zM418.133 256c0-75.52 61.013-136.533 136.533-136.533s136.533 61.013 136.533 136.533c0 75.52-61.013 136.533-136.533 136.533s-136.533-61.013-136.533-136.533z" />
<glyph unicode="&#xe906;" glyph-name="person-fill-copy" data-tags="person fill copy" d="M256 256h512c70.692 0 128-57.308 128-128v-85.333h-768v85.333c0 70.692 57.308 128 128 128zM512 320c-106.039 0-192 85.961-192 192s85.961 192 192 192c106.039 0 192-85.961 192-192s-85.961-192-192-192z" />
<glyph unicode="&#xe907;" glyph-name="settings" data-tags="settings" d="M829.013 299.52c1.707 13.653 2.987 27.307 2.987 41.813s-1.28 28.16-2.987 41.813l90.027 70.4c8.107 6.4 10.24 17.92 5.12 27.307l-85.333 147.627c-5.12 9.387-16.64 12.8-26.027 9.387l-106.24-42.667c-22.187 17.067-46.080 31.147-72.107 41.813l-16.213 113.067c-1.28 10.24-10.24 17.92-20.907 17.92h-170.667c-10.667 0-19.627-7.68-20.907-17.92l-16.213-113.067c-26.027-10.667-49.92-25.173-72.107-41.813l-106.24 42.667c-9.813 3.84-20.907 0-26.027-9.387l-85.333-147.627c-5.547-9.387-2.987-20.907 5.12-27.307l90.027-70.4c-1.707-13.653-2.987-27.733-2.987-41.813s1.28-28.16 2.987-41.813l-90.027-70.4c-8.107-6.4-10.24-17.92-5.12-27.307l85.333-147.627c5.12-9.387 16.64-12.8 26.027-9.387l106.24 42.667c22.187-17.067 46.080-31.147 72.107-41.813l16.213-113.067c1.28-10.24 10.24-17.92 20.907-17.92h170.667c10.667 0 19.627 7.68 20.907 17.92l16.213 113.067c26.027 10.667 49.92 25.173 72.107 41.813l106.24-42.667c9.813-3.84 20.907 0 26.027 9.387l85.333 147.627c5.12 9.387 2.987 20.907-5.12 27.307l-90.027 70.4zM512 192c-82.347 0-149.333 66.987-149.333 149.333s66.987 149.333 149.333 149.333c82.347 0 149.333-66.987 149.333-149.333s-66.987-149.333-149.333-149.333z" />
<glyph unicode="&#xe908;" glyph-name="Email" data-tags="Email" d="M853.333 682.666h-682.667c-46.933 0-84.907-38.4-84.907-85.333l-0.427-512c0-46.933 38.4-85.333 85.333-85.333h682.667c46.933 0 85.333 38.4 85.333 85.333v512c0 46.933-38.4 85.333-85.333 85.333zM853.333 512l-341.333-213.333-341.333 213.333v85.333l341.333-213.333 341.333 213.333v-85.333z" />
<glyph unicode="&#xe909;" glyph-name="Email-Line" data-tags="Email  Line" d="M938.667 597.333c0 46.933-38.4 85.333-85.333 85.333h-682.667c-46.933 0-85.333-38.4-85.333-85.333v-512c0-46.933 38.4-85.333 85.333-85.333h682.667c46.933 0 85.333 38.4 85.333 85.333v512zM853.333 597.333l-341.333-213.333-341.333 213.333h682.667zM853.333 85.333h-682.667v426.667l341.333-213.333 341.333 213.333v-426.667z" />
<glyph unicode="&#xe90a;" glyph-name="Award" data-tags="Award" d="M511.573 768c-235.52 0-426.24-191.147-426.24-426.667s190.72-426.667 426.24-426.667c235.947 0 427.093 191.147 427.093 426.667s-191.147 426.667-427.093 426.667zM830.72 462.506l-213.76 18.347-85.333 200.96c136.96-8.107 252.16-96.853 299.093-219.307zM614.4 195.413l-102.4 61.44-101.973-61.44 26.88 116.053-90.027 78.080 118.613 10.24 46.507 109.653 46.507-109.227 118.613-10.24-90.027-78.080 27.307-116.48zM492.373 681.813l-85.333-201.387-214.187-18.347c46.933 122.88 162.133 212.053 299.52 219.733zM170.667 341.333c0 27.307 3.413 53.76 9.813 79.36l161.707-139.947-47.36-202.667c-75.947 62.72-124.16 157.44-124.16 263.253zM334.507 50.346l177.493 107.093 177.493-106.667c-52.053-32-112.64-50.773-177.92-50.773-64.853 0-125.44 18.773-177.067 50.347zM729.173 78.080l-47.36 202.667 161.707 139.947c5.973-25.173 9.813-52.053 9.813-79.36 0-105.813-48.64-200.533-124.16-263.253z" />
<glyph unicode="&#xe90b;" glyph-name="Award-Full" data-tags="Award Full" d="M533.333-128c-247.424 0-448 200.576-448 448s200.576 448 448 448c247.424 0 448-200.576 448-448s-200.576-448-448-448zM720.030 145.6l-37.041 124.179 111.598 89.617c14.108 12.287 19.614 30.786 13.76 47.504-5.51 16.797-21.197 28.682-39.235 29.755l-134.653 9.12-60.953 126.731c-6.812 15.147-22.702 24.827-40.174 24.827s-33.362-9.68-40.402-25.316l-60.725-126.243-134.828-9.131c-18.633-2.189-33.66-13.283-39.195-30.141-5.663-17.249-0.073-36.028 13.994-47.187l112.082-90.085-37.216-124.741c-4.763-18.092 1.988-36.454 16.568-47.131 15.433-10.202 34.811-10.787 49.925-1.538l119.796 74.502 120.738-75.046c7.221-3.928 14.794-5.917 22.996-5.917 9.442 0 18.256 2.884 25.961 8.123 15.865 10.787 22.94 30.030 17.003 48.115z" />
<glyph unicode="&#xe90c;" glyph-name="dissatisfied" data-tags="dissatisfied" d="M511.573 768c235.947 0 427.093-191.147 427.093-426.667s-191.147-426.667-427.093-426.667c-235.52 0-426.24 191.147-426.24 426.667s190.72 426.667 426.24 426.667zM512 0c188.587 0 341.333 152.747 341.333 341.333s-152.747 341.333-341.333 341.333c-188.587 0-341.333-152.747-341.333-341.333s152.747-341.333 341.333-341.333zM661.333 384c-35.346 0-64 28.654-64 64s28.654 64 64 64c35.346 0 64-28.654 64-64s-28.654-64-64-64zM362.667 384c-35.346 0-64 28.654-64 64s28.654 64 64 64c35.346 0 64-28.654 64-64s-28.654-64-64-64zM512 256c99.413 0 184.32-61.867 218.453-149.333h-71.253c-29.867 50.773-84.053 85.333-147.2 85.333s-117.76-34.56-147.2-85.333h-71.253c34.133 87.467 119.040 149.333 218.453 149.333z" />
<glyph unicode="&#xe90d;" glyph-name="Delete_outline" data-tags="Outline" d="M682.667 469.333h-341.333v-426.667h341.333v426.667zM256 42.666v512h512v-512c0-46.933-38.4-85.333-85.333-85.333h-341.333c-46.933 0-85.333 38.4-85.333 85.333zM810.667 682.666v-85.333h-597.333v85.333h149.333l42.667 42.667h213.333l42.667-42.667h149.333z" />
<glyph unicode="&#xe90e;" glyph-name="Compare_thin" data-tags="Thin" d="M213.333 341.333h85.333v-341.333h-85.333v341.333zM725.333 512h85.333v-512h-85.333v512zM469.333 682.666h85.333v-682.667h-85.333v682.667z" />
<glyph unicode="&#xe90f;" glyph-name="print" data-tags="print" d="M725.333 725.333h-426.667c-23.467 0-42.667-19.2-42.667-42.667v-85.333c0-23.467 19.2-42.667 42.667-42.667h426.667c23.467 0 42.667 19.2 42.667 42.667v85.333c0 23.467-19.2 42.667-42.667 42.667zM810.667 341.333c-23.467 0-42.667 19.2-42.667 42.667s19.2 42.667 42.667 42.667c23.467 0 42.667-19.2 42.667-42.667s-19.2-42.667-42.667-42.667zM640 42.666h-256c-23.467 0-42.667 19.2-42.667 42.667v170.667h341.333v-170.667c0-23.467-19.2-42.667-42.667-42.667zM810.667 512h-597.333c-70.827 0-128-57.173-128-128v-170.667c0-46.933 38.4-85.333 85.333-85.333h85.333v-85.333c0-46.933 38.4-85.333 85.333-85.333h341.333c46.933 0 85.333 38.4 85.333 85.333v85.333h85.333c46.933 0 85.333 38.4 85.333 85.333v170.667c0 70.827-57.173 128-128 128z" />
<glyph unicode="&#xe910;" glyph-name="offerts" data-tags="offerts" d="M662.705-82.28c-7.229-1.99-14.843-3.054-22.705-3.054h-512c-47.128 0-85.333 38.205-85.333 85.333v640c0 47.128 38.205 85.333 85.333 85.333h512c47.128 0 85.333-38.205 85.333-85.333v-171.475c143.199-10.893 256-130.536 256-276.525 0-153.167-124.166-277.333-277.333-277.333-14.033 0-27.823 1.042-41.295 3.054zM640 461.912v135.421c0 23.564-19.103 42.667-42.667 42.667h-426.667c-23.564 0-42.667-19.103-42.667-42.667v-554.667c0-23.564 19.103-42.667 42.667-42.667h333.208c-33.825 35.248-58.429 79.413-69.933 128.618-2.364-0.406-4.795-0.618-7.276-0.618h-213.333c-23.564 0-42.667 19.103-42.667 42.667s19.103 42.667 42.667 42.667h213.333c0.27 0 0.539-0.003 0.808-0.007 2.284 30.038 9.353 58.738 20.447 85.341h-234.588c-23.564 0-42.667 19.103-42.667 42.667s19.103 42.667 42.667 42.667h290.542c36.336 37.864 83.314 65.437 136.125 77.912zM213.333 554.666h341.333c23.564 0 42.667-19.103 42.667-42.667s-19.103-42.667-42.667-42.667h-341.333c-23.564 0-42.667 19.103-42.667 42.667s19.103 42.667 42.667 42.667zM704 0c106.039 0 192 85.961 192 192s-85.961 192-192 192c-106.039 0-192-85.961-192-192s85.961-192 192-192zM725.333 213.333h64c11.782 0 21.333-9.551 21.333-21.333s-9.551-21.333-21.333-21.333h-85.333c-11.782 0-21.333 9.551-21.333 21.333v128c0 11.782 9.551 21.333 21.333 21.333s21.333-9.551 21.333-21.333v-106.667z" />
<glyph unicode="&#xe911;" glyph-name="bussnes" data-tags="bussnes" horiz-adv-x="862" d="M754.526-170.667v92.391c0 127.565-90.486 230.977-202.105 230.977h-242.526c-111.62 0-202.105-103.412-202.105-230.977v-92.391h-107.789v123.188c0 170.087 120.647 307.97 269.474 307.97h323.368c148.826 0 269.474-137.883 269.474-307.97v-123.188h-107.789zM431.158 152.701c29.765 0 53.895-24.129 53.895-53.895s-24.129-53.895-53.895-53.895c-29.765 0-53.895 24.129-53.895 53.895s24.129 53.895 53.895 53.895zM431.158 44.912c29.765 0 53.895-24.129 53.895-53.895v-161.684h-107.789v161.684c0 29.765 24.129 53.895 53.895 53.895zM431.158 314.386c-148.826 0-269.474 120.647-269.474 269.474s120.647 269.474 269.474 269.474c148.826 0 269.474-120.647 269.474-269.474s-120.647-269.474-269.474-269.474zM431.158 422.175c89.296 0 161.684 72.388 161.684 161.684s-72.388 161.684-161.684 161.684c-89.296 0-161.684-72.388-161.684-161.684s72.388-161.684 161.684-161.684z" />
<glyph unicode="&#xe912;" glyph-name="pk-build" data-tags="pk-build" d="M85.333 640h213.333c23.564 0 42.667-19.103 42.667-42.667v-512c0-23.564-19.103-42.667-42.667-42.667h-213.333c-23.564 0-42.667 19.103-42.667 42.667v512c0 23.564 19.103 42.667 42.667 42.667zM192 384c35.346 0 64 28.654 64 64s-28.654 64-64 64c-35.346 0-64-28.654-64-64s28.654-64 64-64zM192 298.666c11.782 0 21.333 9.551 21.333 21.333s-9.551 21.333-21.333 21.333c-11.782 0-21.333-9.551-21.333-21.333s9.551-21.333 21.333-21.333zM192 213.333c11.782 0 21.333 9.551 21.333 21.333s-9.551 21.333-21.333 21.333c-11.782 0-21.333-9.551-21.333-21.333s9.551-21.333 21.333-21.333zM938.667 640c23.564 0 42.667-19.103 42.667-42.667v-384c0-23.564-19.103-42.667-42.667-42.667h-512c-23.564 0-42.667 19.103-42.667 42.667v384c0 23.564 19.103 42.667 42.667 42.667h512zM896 554.666h-426.667v-298.667h426.667v298.667zM426.667 128h512c23.564 0 42.667-19.103 42.667-42.667s-19.103-42.667-42.667-42.667h-512c-23.564 0-42.667 19.103-42.667 42.667s19.103 42.667 42.667 42.667z" />
<glyph unicode="&#xe913;" glyph-name="setting" data-tags="setting" d="M481.31 445.503c-25.11 73.812-8.763 158.076 49.343 216.182 57.66 57.66 141.076 74.199 214.478 49.915l-93.617-93.617c-26.993-26.993-26.993-70.757 0-97.75l39.385-39.385c26.993-26.993 70.757-26.993 97.75 0l93.617 93.617c24.284-73.402 7.745-156.818-49.915-214.478-58.106-58.106-142.369-74.453-216.182-49.343-2.647-4.138-5.779-8.055-9.395-11.671l-279.031-279.031c-26.993-26.993-70.757-26.993-97.75 0l-39.385 39.385c-26.993 26.993-26.993 70.757 0 97.75l279.031 279.031c3.616 3.616 7.533 6.748 11.671 9.395z" />
<glyph unicode="&#xe914;" glyph-name="chat" data-tags="chat" d="M215.395 682.666h595.272c47.128 0 85.333-38.205 85.333-85.333 0-0.124 0-0.249-0.001-0.373l-1.689-386.53c-0.205-46.982-38.35-84.96-85.333-84.96h-510.893l-147.131-122.458c-5.433-4.522-13.504-3.784-18.027 1.65-1.865 2.241-2.909 5.050-2.96 7.965l-1.961 112.377c-0.005 0.31-0.007 0.621-0.006 0.931l2.062 471.77c0.205 46.982 38.35 84.96 85.333 84.96zM256 597.333c-23.564 0-42.667-19.103-42.667-42.667v-298.667c0-23.564 19.103-42.667 42.667-42.667h512c23.564 0 42.667 19.103 42.667 42.667v298.667c0 23.564-19.103 42.667-42.667 42.667h-512zM341.333 512h341.333c23.564 0 42.667-19.103 42.667-42.667s-19.103-42.667-42.667-42.667h-341.333c-23.564 0-42.667 19.103-42.667 42.667s19.103 42.667 42.667 42.667zM341.333 384h256c23.564 0 42.667-19.103 42.667-42.667s-19.103-42.667-42.667-42.667h-256c-23.564 0-42.667 19.103-42.667 42.667s19.103 42.667 42.667 42.667z" />
<glyph unicode="&#xe915;" glyph-name="bell-list" data-tags="bell-list" d="M128 768h298.667c23.564 0 42.667-19.103 42.667-42.667s-19.103-42.667-42.667-42.667h-298.667c-23.564 0-42.667 19.103-42.667 42.667s19.103 42.667 42.667 42.667zM128 597.333h170.667c23.564 0 42.667-19.103 42.667-42.667s-19.103-42.667-42.667-42.667h-170.667c-23.564 0-42.667 19.103-42.667 42.667s19.103 42.667 42.667 42.667zM128 426.666h128c23.564 0 42.667-19.103 42.667-42.667s-19.103-42.667-42.667-42.667h-128c-23.564 0-42.667 19.103-42.667 42.667s19.103 42.667 42.667 42.667zM128 256h128c23.564 0 42.667-19.103 42.667-42.667s-19.103-42.667-42.667-42.667h-128c-23.564 0-42.667 19.103-42.667 42.667s19.103 42.667 42.667 42.667zM622.356-106.667c-47.36 0-85.333 38.4-85.333 85.333h170.667c0-46.933-38.4-85.333-85.333-85.333zM793.023 106.666v256c0 105.813-64.427 192-170.667 192s-170.667-86.187-170.667-192v-256h341.333zM933.396 94.293c26.88-26.88 8.107-72.96-30.293-72.96h-561.92c-37.973 0-56.747 46.080-29.867 72.96l55.040 55.040v213.333c0 131.413 69.547 240.64 192 269.653v29.013c0 35.413 28.587 64 64 64s64-28.587 64-64v-29.013c122.027-29.013 192-138.667 192-269.653v-213.333l55.040-55.040z" />
<glyph unicode="&#xe916;" glyph-name="rename" data-tags="rename" d="M512.176 57.529l-4.267 4.309c-203.093 183.893-337.067 305.493-337.067 428.8 0 85.333 64 149.333 149.333 149.333 65.707 0 129.707-42.24 152.32-100.693 8.468-28.444 21.766-42.667 39.893-42.667s31.425 14.222 39.893 42.667c22.187 58.453 86.187 100.693 151.893 100.693 85.333 0 149.333-64 149.333-149.333 0-123.307-133.973-244.907-337.067-428.8l-4.267-4.309zM512.176 636.132c-75.093 87.893-214.187 124.16-326.827 46.933-59.733-40.96-97.28-110.080-99.84-183.040-5.973-165.547 140.8-298.24 364.8-501.76l4.267-3.84c32.427-29.483 82.347-29.483 114.773 0.427l4.693 4.267c224 203.093 370.347 335.787 364.8 501.333-2.56 72.533-40.149 141.653-99.84 182.613-112.683 76.8-251.733 40.96-326.827-46.933z" />
<glyph unicode="&#xe917;" glyph-name="bonus" data-tags="bonus" d="M384 426.666v213.333c0 23.564 19.103 42.667 42.667 42.667h341.333c23.564 0 42.667-19.103 42.667-42.667s-19.103-42.667-42.667-42.667h-298.667v-170.667h151.199c128.572 0 232.801-105.064 232.801-234.667s-104.228-234.667-232.801-234.667h-193.866c-23.564 0-42.667 19.103-42.667 42.667v170.667h-128c-23.564 0-42.667 19.103-42.667 42.667s19.103 42.667 42.667 42.667h128v85.333h-128c-23.564 0-42.667 19.103-42.667 42.667s19.103 42.667 42.667 42.667h128zM469.333 170.666v-128h158.986c77.143 0 139.68 66.859 139.68 149.333s-62.537 149.333-139.68 149.333h-158.986v-85.333h42.667c23.564 0 42.667-19.103 42.667-42.667s-19.103-42.667-42.667-42.667h-42.667z" />
<glyph unicode="&#xe918;" glyph-name="bag" data-tags="bag" d="M354.878 554.666c19.391 114.486 66.182 213.333 178.455 213.333s159.064-98.848 178.455-213.333h59.825c47.854 0 89.145-39.597 92.226-88.443l32-463.115c3.081-48.846-38.367-88.443-92.577-88.443h-539.856c-54.21 0-95.658 39.597-92.577 88.443l32 463.115c3.081 48.846 44.372 88.443 92.226 88.443h59.825zM439.751 554.666h187.164c-13.249 71.32-39.915 128-93.582 128s-80.333-56.68-93.582-128zM429.714 469.333c-3.038-46.272-3.047-92.055-3.047-128h-85.333c0 38.781 0.515 82.91 3.676 127.73-33.937-3.010-62.192-30.778-64.416-64.587l-24.471-339.617c-2.356-35.82 29.34-64.858 70.794-64.858h412.831c41.455 0 73.15 29.038 70.794 64.858l-24.471 339.617c-2.224 33.81-30.479 61.577-64.416 64.587 3.162-44.82 3.676-88.949 3.676-127.73h-85.333c0 35.945-0.009 81.728-3.048 128h-207.239z" />
<glyph unicode="&#xe919;" glyph-name="left-2" data-tags="left-2" d="M529.493 145.493l-195.413 195.84 195.413 195.84-60.16 60.16-256-256 256-256 60.16 60.16zM785.493 145.493l-195.413 195.84 195.413 195.84-60.16 60.16-256-256 256-256 60.16 60.16z" />
<glyph unicode="&#xe91a;" glyph-name="Right-2" data-tags="Right-2" d="M469.333 145.493l195.413 195.84-195.413 195.84 60.16 60.16 256-256-256-256-60.16 60.16zM213.333 145.493l195.413 195.84-195.413 195.84 60.16 60.16 256-256-256-256-60.16 60.16z" />
<glyph unicode="&#xe91b;" glyph-name="calc" data-tags="calc" horiz-adv-x="878" d="M97.524 853.333h682.667c53.861 0 97.524-43.663 97.524-97.524v-828.952c0-53.861-43.663-97.524-97.524-97.524h-682.667c-53.861 0-97.524 43.663-97.524 97.524v828.952c0 53.861 43.663 97.524 97.524 97.524zM146.286 755.809c-26.93 0-48.762-21.831-48.762-48.762v-146.286c0-26.93 21.831-48.762 48.762-48.762h585.143c26.93 0 48.762 21.831 48.762 48.762v146.286c0 26.93-21.831 48.762-48.762 48.762h-585.143zM146.286 414.476c-26.93 0-48.762-21.831-48.762-48.762v-97.524c0-26.93 21.831-48.762 48.762-48.762h97.524c26.93 0 48.762 21.831 48.762 48.762v97.524c0 26.93-21.831 48.762-48.762 48.762h-97.524zM390.095 414.476c-26.93 0-48.762-21.831-48.762-48.762v-97.524c0-26.93 21.831-48.762 48.762-48.762h97.524c26.93 0 48.762 21.831 48.762 48.762v97.524c0 26.93-21.831 48.762-48.762 48.762h-97.524zM633.905 414.476c-26.93 0-48.762-21.831-48.762-48.762v-97.524c0-26.93 21.831-48.762 48.762-48.762h97.524c26.93 0 48.762 21.831 48.762 48.762v97.524c0 26.93-21.831 48.762-48.762 48.762h-97.524zM146.286 121.904c-26.93 0-48.762-21.831-48.762-48.762v-97.524c0-26.93 21.831-48.762 48.762-48.762h97.524c26.93 0 48.762 21.831 48.762 48.762v97.524c0 26.93-21.831 48.762-48.762 48.762h-97.524zM390.095 121.904c-26.93 0-48.762-21.831-48.762-48.762v-97.524c0-26.93 21.831-48.762 48.762-48.762h97.524c26.93 0 48.762 21.831 48.762 48.762v97.524c0 26.93-21.831 48.762-48.762 48.762h-97.524zM633.905 121.904c-26.93 0-48.762-21.831-48.762-48.762v-97.524c0-26.93 21.831-48.762 48.762-48.762h97.524c26.93 0 48.762 21.831 48.762 48.762v97.524c0 26.93-21.831 48.762-48.762 48.762h-97.524z" />
<glyph unicode="&#xe91c;" glyph-name="filter" data-tags="filter" d="M891.199 622.079c-5.069 10.929-16.023 17.92-28.071 17.92h-704.182c-12.046 0-23-6.99-28.071-17.92s-3.337-23.807 4.442-33.007l274.356-324.426v-218.936c0-11.72 6.622-22.436 17.106-27.679l140.836-70.417c4.368-2.185 9.109-3.266 13.839-3.266 5.659 0 11.3 1.55 16.27 4.622 9.123 5.639 14.677 15.6 14.677 26.325v289.352l274.356 324.426c7.779 9.2 9.51 22.078 4.441 33.007zM557.825 295.959c-4.724-5.587-7.315-12.667-7.315-19.982v-250.614l-78.946 39.472v211.14c0 7.317-2.593 14.395-7.317 19.982l-238.604 282.152h570.788l-238.607-282.15z" />
<glyph unicode="&#xe91d;" glyph-name="card-payment" data-tags="card-payment" d="M277.333 239.703c11.323 10.134 26.275 16.296 42.667 16.296 35.346 0 64-28.654 64-64s-28.654-64-64-64c-16.392 0-31.344 6.162-42.667 16.296-11.323-10.134-26.275-16.296-42.667-16.296-35.346 0-64 28.654-64 64s28.654 64 64 64c16.392 0 31.344-6.162 42.667-16.296zM887.467 682.666c52.096 0 93.867-37.973 93.867-85.333v-512c0-47.36-41.771-85.333-93.867-85.333h-750.933c-52.096 0-93.867 37.973-93.867 85.333l0.469 512c0 47.36 41.301 85.333 93.397 85.333h750.933zM840.533 85.333c25.813 0 46.933 19.2 46.933 42.667v213.333h-750.933v-213.333c0-23.467 21.12-42.667 46.933-42.667h657.067zM887.467 512v42.667c0 23.467-21.12 42.667-46.933 42.667h-657.067c-25.813 0-46.933-19.2-46.933-42.667v-42.667h750.933z" />
<glyph unicode="&#xe91e;" glyph-name="double-man-full" data-tags="double-man-full" d="M384 341.333c82.347 0 149.333 66.987 149.333 149.333s-66.987 149.333-149.333 149.333c-82.347 0-149.333-66.987-149.333-149.333s66.987-149.333 149.333-149.333zM384 266.666c-99.84 0-298.667-49.92-298.667-149.333v-32c0-23.467 19.2-42.667 42.667-42.667h512c23.467 0 42.667 19.2 42.667 42.667v32c0 99.413-198.827 149.333-298.667 149.333zM684.373 264.106c49.493-35.84 83.627-83.627 83.627-146.773v-74.667h128c23.467 0 42.667 19.2 42.667 42.667v32c0 86.187-149.333 135.253-254.293 146.773zM640 341.333c82.347 0 149.333 66.987 149.333 149.333s-66.987 149.333-149.333 149.333c-23.040 0-44.373-5.547-64-14.933 26.88-37.973 42.667-84.48 42.667-134.4s-15.787-96.427-42.667-134.4c19.627-9.387 40.96-14.933 64-14.933z" />
<glyph unicode="&#xe91f;" glyph-name="arrow-chart" data-tags="arrow-chart" d="M768 554.666v-554.667c0-23.564-19.103-42.667-42.667-42.667s-42.667 19.103-42.667 42.667v554.667h-85.333l128 170.667 128-170.667h-85.333zM213.333 256c23.564 0 42.667-19.103 42.667-42.667v-213.333c0-23.564-19.103-42.667-42.667-42.667s-42.667 19.103-42.667 42.667v213.333c0 23.564 19.103 42.667 42.667 42.667zM384 341.333c23.564 0 42.667-19.103 42.667-42.667v-298.667c0-23.564-19.103-42.667-42.667-42.667s-42.667 19.103-42.667 42.667v298.667c0 23.564 19.103 42.667 42.667 42.667zM554.667 469.333c23.564 0 42.667-19.103 42.667-42.667v-426.667c0-23.564-19.103-42.667-42.667-42.667s-42.667 19.103-42.667 42.667v426.667c0 23.564 19.103 42.667 42.667 42.667z" />
<glyph unicode="&#xe920;" glyph-name="info-full" data-tags="info-full" d="M512 768c235.52 0 426.667-191.147 426.667-426.667s-191.147-426.667-426.667-426.667c-235.52 0-426.667 191.147-426.667 426.667s191.147 426.667 426.667 426.667zM512 128c23.467 0 42.667 19.2 42.667 42.667v170.667c0 23.467-19.2 42.667-42.667 42.667s-42.667-19.2-42.667-42.667v-170.667c0-23.467 19.2-42.667 42.667-42.667zM512 469.333c23.564 0 42.667 19.103 42.667 42.667s-19.103 42.667-42.667 42.667c-23.564 0-42.667-19.103-42.667-42.667s19.103-42.667 42.667-42.667z" />
<glyph unicode="&#xe921;" glyph-name="double-man" data-tags="double-man" d="M384 341.333c82.347 0 149.333 66.987 149.333 149.333s-66.987 149.333-149.333 149.333c-82.347 0-149.333-66.987-149.333-149.333s66.987-149.333 149.333-149.333zM384 554.666c35.413 0 64-28.587 64-64s-28.587-64-64-64c-35.413 0-64 28.587-64 64s28.587 64 64 64zM384 266.666c-99.84 0-298.667-49.92-298.667-149.333v-32c0-23.467 19.2-42.667 42.667-42.667h512c23.467 0 42.667 19.2 42.667 42.667v32c0 99.413-198.827 149.333-298.667 149.333zM185.173 128c35.84 24.747 122.453 53.333 198.827 53.333s162.987-28.587 198.827-53.333h-397.653zM684.373 264.106c49.493-35.84 83.627-83.627 83.627-146.773v-74.667h128c23.467 0 42.667 19.2 42.667 42.667v32c0 86.187-149.333 135.253-254.293 146.773zM640 341.333c82.347 0 149.333 66.987 149.333 149.333s-66.987 149.333-149.333 149.333c-23.040 0-44.373-5.547-64-14.933 26.88-37.973 42.667-84.48 42.667-134.4s-15.787-96.427-42.667-134.4c19.627-9.387 40.96-14.933 64-14.933z" />
<glyph unicode="&#xe922;" glyph-name="info" data-tags="info" d="M512 768c235.52 0 426.667-191.147 426.667-426.667s-191.147-426.667-426.667-426.667c-235.52 0-426.667 191.147-426.667 426.667s191.147 426.667 426.667 426.667zM512 682.666c-188.416 0-341.333-152.917-341.333-341.333s152.917-341.333 341.333-341.333c188.416 0 341.333 152.917 341.333 341.333s-152.917 341.333-341.333 341.333zM512 128c-23.467 0-42.667 19.2-42.667 42.667v170.667c0 23.467 19.2 42.667 42.667 42.667s42.667-19.2 42.667-42.667v-170.667c0-23.467-19.2-42.667-42.667-42.667zM512 469.333c-23.564 0-42.667 19.103-42.667 42.667s19.103 42.667 42.667 42.667c23.564 0 42.667-19.103 42.667-42.667s-19.103-42.667-42.667-42.667z" />
<glyph unicode="&#xe923;" glyph-name="bag-full" data-tags="bag-full" d="M354.878 554.666c19.391 114.486 66.182 213.333 178.455 213.333s159.064-98.848 178.455-213.333h59.825c47.854 0 89.145-39.597 92.226-88.443l32-463.115c3.081-48.846-38.367-88.443-92.577-88.443h-539.856c-54.21 0-95.658 39.597-92.577 88.443l32 463.115c3.081 48.846 44.372 88.443 92.226 88.443h59.825zM439.751 554.666h187.164c-13.249 71.32-39.915 128-93.582 128s-80.333-56.68-93.582-128z" />
<glyph unicode="&#xe924;" glyph-name="info-list-full" data-tags="info-list-full" d="M128 725.333h256c23.564 0 42.667-19.103 42.667-42.667s-19.103-42.667-42.667-42.667h-256c-23.564 0-42.667 19.103-42.667 42.667s19.103 42.667 42.667 42.667zM128 554.666h85.333c23.564 0 42.667-19.103 42.667-42.667s-19.103-42.667-42.667-42.667h-85.333c-23.564 0-42.667 19.103-42.667 42.667s19.103 42.667 42.667 42.667zM128 384h42.667c23.564 0 42.667-19.103 42.667-42.667s-19.103-42.667-42.667-42.667h-42.667c-23.564 0-42.667 19.103-42.667 42.667s19.103 42.667 42.667 42.667zM597.333-42.667c-188.513 0-341.333 152.82-341.333 341.333s152.82 341.333 341.333 341.333c188.513 0 341.333-152.82 341.333-341.333s-152.82-341.333-341.333-341.333zM597.333 341.333c-23.564 0-42.667-19.103-42.667-42.667v-128c0-23.564 19.103-42.667 42.667-42.667s42.667 19.103 42.667 42.667v128c0 23.564-19.103 42.667-42.667 42.667zM597.333 384c23.564 0 42.667 19.103 42.667 42.667s-19.103 42.667-42.667 42.667c-23.564 0-42.667-19.103-42.667-42.667s19.103-42.667 42.667-42.667z" />
<glyph unicode="&#xe925;" glyph-name="man-ask-full" data-tags="man-ask-full" d="M42.667-125.789v97.524c0 134.652 95.513 243.81 213.333 243.81h256c117.821 0 213.333-109.157 213.333-243.81v-97.524h-682.667zM384 258.211c-117.821 0-213.333 95.513-213.333 213.333s95.513 213.333 213.333 213.333c117.821 0 213.333-95.513 213.333-213.333s-95.513-213.333-213.333-213.333zM747.584 553.271c4.268 10.054 12.705 15.372 25.313 15.954 5.078 0.316 11.325-0.11 18.739-1.28l20.986-2.975c37.427-5.010 61.742 5.682 72.945 32.075 5.69 13.406 5.135 27.238-1.668 41.497-6.32 13.065-16.392 22.532-30.217 28.4-11.73 4.979-23.956 6.461-36.678 4.444-8.24-1.941-18.804-5.862-31.691-11.763-26.906-13.3-46.642-17.283-59.21-11.948-11.311 4.801-18.749 12.903-22.315 24.304-3.743 10.983-2.681 23.386 3.188 37.211 12.981 30.582 39.957 49.291 80.929 56.126 36.134 5.922 70.33 2.037 102.587-11.656 42.312-17.961 72.434-44.837 90.367-80.631 19.075-37.762 19.987-76.96 2.738-117.597-28.097-66.192-82.294-93.121-162.594-80.791l-9.603-22.622c-5.335-12.568-13.881-21.054-25.638-25.457-12.354-4.644-25.025-4.21-38.011 1.302-13.825 5.868-23.148 14.77-27.97 26.705-4.759 10.92-4.382 22.873 1.131 35.86l26.674 62.84zM690.401 292.761c-13.406 5.69-22.881 15.398-28.427 29.124s-5.473 27.291 0.217 40.697c5.69 13.406 15.398 22.881 29.124 28.427s27.291 5.473 40.697-0.217c13.406-5.69 22.881-15.398 28.427-29.124s5.473-27.291-0.217-40.697c-5.69-13.406-15.398-22.881-29.124-28.427s-27.291-5.473-40.697 0.217z" />
<glyph unicode="&#xe926;" glyph-name="info-list" data-tags="info-list" d="M128 725.333h256c23.564 0 42.667-19.103 42.667-42.667s-19.103-42.667-42.667-42.667h-256c-23.564 0-42.667 19.103-42.667 42.667s19.103 42.667 42.667 42.667zM128 554.666h85.333c23.564 0 42.667-19.103 42.667-42.667s-19.103-42.667-42.667-42.667h-85.333c-23.564 0-42.667 19.103-42.667 42.667s19.103 42.667 42.667 42.667zM128 384h42.667c23.564 0 42.667-19.103 42.667-42.667s-19.103-42.667-42.667-42.667h-42.667c-23.564 0-42.667 19.103-42.667 42.667s19.103 42.667 42.667 42.667zM597.333-42.667c-188.513 0-341.333 152.82-341.333 341.333s152.82 341.333 341.333 341.333c188.513 0 341.333-152.82 341.333-341.333s-152.82-341.333-341.333-341.333zM597.333 48.355c138.243 0 250.311 112.068 250.311 250.311s-112.068 250.311-250.311 250.311c-138.243 0-250.311-112.068-250.311-250.311s112.068-250.311 250.311-250.311zM597.333 341.333c23.564 0 42.667-19.103 42.667-42.667v-128c0-23.564-19.103-42.667-42.667-42.667s-42.667 19.103-42.667 42.667v128c0 23.564 19.103 42.667 42.667 42.667zM597.333 384c-23.564 0-42.667 19.103-42.667 42.667s19.103 42.667 42.667 42.667c23.564 0 42.667-19.103 42.667-42.667s-19.103-42.667-42.667-42.667z" />
<glyph unicode="&#xe927;" glyph-name="man-ask" data-tags="man-ask" d="M640-125.789v73.143c0 100.989-71.634 182.857-160 182.857h-192c-88.366 0-160-81.868-160-182.857v-73.143h-85.333v97.524c0 134.652 95.513 243.81 213.333 243.81h256c117.821 0 213.333-109.157 213.333-243.81v-97.524h-85.333zM384 258.211c-117.821 0-213.333 95.513-213.333 213.333s95.513 213.333 213.333 213.333c117.821 0 213.333-95.513 213.333-213.333s-95.513-213.333-213.333-213.333zM384 343.544c70.692 0 128 57.308 128 128s-57.308 128-128 128c-70.692 0-128-57.308-128-128s57.308-128 128-128zM747.584 553.271c4.268 10.054 12.705 15.372 25.313 15.954 5.078 0.316 11.325-0.11 18.739-1.28l20.986-2.975c37.427-5.010 61.742 5.682 72.945 32.075 5.69 13.406 5.135 27.238-1.668 41.497-6.32 13.065-16.392 22.532-30.217 28.4-11.73 4.979-23.956 6.461-36.678 4.444-8.24-1.941-18.804-5.862-31.691-11.763-26.906-13.3-46.642-17.283-59.21-11.948-11.311 4.801-18.749 12.903-22.315 24.304-3.743 10.983-2.681 23.386 3.188 37.211 12.981 30.582 39.957 49.291 80.929 56.126 36.134 5.922 70.33 2.037 102.587-11.656 42.312-17.961 72.434-44.837 90.367-80.631 19.075-37.762 19.987-76.96 2.738-117.597-28.097-66.192-82.294-93.121-162.594-80.791l-9.603-22.622c-5.335-12.568-13.881-21.054-25.638-25.457-12.354-4.644-25.025-4.21-38.011 1.302-13.825 5.868-23.148 14.77-27.97 26.705-4.759 10.92-4.382 22.873 1.131 35.86l26.674 62.84zM690.401 292.761c-13.406 5.69-22.881 15.398-28.427 29.124s-5.473 27.291 0.217 40.697c5.69 13.406 15.398 22.881 29.124 28.427s27.291 5.473 40.697-0.217c13.406-5.69 22.881-15.398 28.427-29.124s5.473-27.291-0.217-40.697c-5.69-13.406-15.398-22.881-29.124-28.427s-27.291-5.473-40.697 0.217z" />
<glyph unicode="&#xe928;" glyph-name="offerts-full" data-tags="offerts-full" d="M662.705-82.28c-7.229-1.99-14.843-3.054-22.705-3.054h-512c-47.128 0-85.333 38.205-85.333 85.333v640c0 47.128 38.205 85.333 85.333 85.333h512c47.128 0 85.333-38.205 85.333-85.333v-171.475c143.199-10.893 256-130.536 256-276.525 0-153.167-124.166-277.333-277.333-277.333-14.033 0-27.823 1.042-41.295 3.054zM433.943 128.618c-4.759 20.356-7.276 41.575-7.276 63.382 0 7.176 0.273 14.287 0.808 21.326-0.269 0.005-0.538 0.007-0.808 0.007h-213.333c-23.564 0-42.667-19.103-42.667-42.667s19.103-42.667 42.667-42.667h213.333c2.48 0 4.911 0.212 7.276 0.618zM447.922 298.666c13.302 31.898 32.39 60.779 55.953 85.333h-290.542c-23.564 0-42.667-19.103-42.667-42.667s19.103-42.667 42.667-42.667h234.588zM213.333 554.666c-23.564 0-42.667-19.103-42.667-42.667s19.103-42.667 42.667-42.667h341.333c23.564 0 42.667 19.103 42.667 42.667s-19.103 42.667-42.667 42.667h-341.333zM704 0c106.039 0 192 85.961 192 192s-85.961 192-192 192c-106.039 0-192-85.961-192-192s85.961-192 192-192zM725.333 213.333h64c11.782 0 21.333-9.551 21.333-21.333s-9.551-21.333-21.333-21.333h-85.333c-11.782 0-21.333 9.551-21.333 21.333v128c0 11.782 9.551 21.333 21.333 21.333s21.333-9.551 21.333-21.333v-106.667z" />
<glyph unicode="&#xe929;" glyph-name="bussnesFull" data-tags="bussnesFull" horiz-adv-x="862" d="M485.053-170.667v161.684c0 29.765-24.129 53.895-53.895 53.895s-53.895-24.129-53.895-53.895v-161.684h-377.263v123.188c0 170.087 120.647 307.97 269.474 307.97h323.368c148.826 0 269.474-137.883 269.474-307.97v-123.188h-377.263zM431.158 152.701c-29.765 0-53.895-24.129-53.895-53.895s24.129-53.895 53.895-53.895c29.765 0 53.895 24.129 53.895 53.895s-24.129 53.895-53.895 53.895zM431.158 314.386c-148.826 0-269.474 120.647-269.474 269.474s120.647 269.474 269.474 269.474c148.826 0 269.474-120.647 269.474-269.474s-120.647-269.474-269.474-269.474z" />
<glyph unicode="&#xe92a;" glyph-name="pk-build-full" data-tags="pk-build-full" d="M85.333 640h213.333c23.564 0 42.667-19.103 42.667-42.667v-512c0-23.564-19.103-42.667-42.667-42.667h-213.333c-23.564 0-42.667 19.103-42.667 42.667v512c0 23.564 19.103 42.667 42.667 42.667zM192 384c35.346 0 64 28.654 64 64s-28.654 64-64 64c-35.346 0-64-28.654-64-64s28.654-64 64-64zM192 298.666c11.782 0 21.333 9.551 21.333 21.333s-9.551 21.333-21.333 21.333c-11.782 0-21.333-9.551-21.333-21.333s9.551-21.333 21.333-21.333zM192 213.333c11.782 0 21.333 9.551 21.333 21.333s-9.551 21.333-21.333 21.333c-11.782 0-21.333-9.551-21.333-21.333s9.551-21.333 21.333-21.333zM938.667 640c23.564 0 42.667-19.103 42.667-42.667v-384c0-23.564-19.103-42.667-42.667-42.667h-512c-23.564 0-42.667 19.103-42.667 42.667v384c0 23.564 19.103 42.667 42.667 42.667h512zM426.667 128h512c23.564 0 42.667-19.103 42.667-42.667s-19.103-42.667-42.667-42.667h-512c-23.564 0-42.667 19.103-42.667 42.667s19.103 42.667 42.667 42.667z" />
<glyph unicode="&#xe92b;" glyph-name="chat-full" data-tags="chat-full" d="M215.395 682.666h595.272c47.128 0 85.333-38.205 85.333-85.333 0-0.124 0-0.249-0.001-0.373l-1.689-386.53c-0.205-46.982-38.35-84.96-85.333-84.96h-510.893l-147.131-122.458c-5.433-4.522-13.504-3.784-18.027 1.65-1.865 2.241-2.909 5.050-2.96 7.965l-1.961 112.377c-0.005 0.31-0.007 0.621-0.006 0.931l2.062 471.77c0.205 46.982 38.35 84.96 85.333 84.96zM341.333 512c-23.564 0-42.667-19.103-42.667-42.667s19.103-42.667 42.667-42.667h341.333c23.564 0 42.667 19.103 42.667 42.667s-19.103 42.667-42.667 42.667h-341.333zM341.333 384c-23.564 0-42.667-19.103-42.667-42.667s19.103-42.667 42.667-42.667h256c23.564 0 42.667 19.103 42.667 42.667s-19.103 42.667-42.667 42.667h-256z" />
<glyph unicode="&#xe92c;" glyph-name="bell-list-full" data-tags="bell-list-full" d="M128 768h298.667c23.564 0 42.667-19.103 42.667-42.667s-19.103-42.667-42.667-42.667h-298.667c-23.564 0-42.667 19.103-42.667 42.667s19.103 42.667 42.667 42.667zM128 597.333h170.667c23.564 0 42.667-19.103 42.667-42.667s-19.103-42.667-42.667-42.667h-170.667c-23.564 0-42.667 19.103-42.667 42.667s19.103 42.667 42.667 42.667zM128 426.666h128c23.564 0 42.667-19.103 42.667-42.667s-19.103-42.667-42.667-42.667h-128c-23.564 0-42.667 19.103-42.667 42.667s19.103 42.667 42.667 42.667zM128 256h128c23.564 0 42.667-19.103 42.667-42.667s-19.103-42.667-42.667-42.667h-128c-23.564 0-42.667 19.103-42.667 42.667s19.103 42.667 42.667 42.667zM622.356-106.667c-47.36 0-85.333 38.4-85.333 85.333h170.667c0-46.933-38.4-85.333-85.333-85.333zM878.356 149.333l55.040-55.040c26.88-26.88 8.107-72.96-30.293-72.96h-561.92c-37.973 0-56.747 46.080-29.867 72.96l55.040 55.040v213.333c0 131.413 69.547 240.64 192 269.653v29.013c0 35.413 28.587 64 64 64s64-28.587 64-64v-29.013c122.027-29.013 192-138.667 192-269.653v-213.333z" />
<glyph unicode="&#xe92d;" glyph-name="Arrow_back" data-tags="arrow_back" d="M854 383.333v-84h-520l238-240-60-60-342 342 342 342 60-60-238-240h520z" />
<glyph unicode="&#xe92e;" glyph-name="Arrow_downward" data-tags="arrow_downward" d="M854 341.333l-342-342-342 342 62 60 238-238v520h84v-520l240 238z" />
<glyph unicode="&#xe92f;" glyph-name="phone" data-tags="phone" d="M819.399 202.666l-108.373 12.373c-26.027 2.944-51.627-6.016-70.016-24.32l-78.507-78.507c-120.747 61.397-219.691 160-281.131 281.173l78.933 78.933c18.304 18.347 27.264 43.947 24.32 69.973l-12.373 107.52c-5.163 43.093-41.429 75.52-84.949 75.52h-73.813c-48.213 0-88.32-40.107-85.333-88.32 22.656-364.373 314.069-655.403 677.973-677.973 48.213-2.987 88.363 37.12 88.363 85.333v73.813c0.427 43.051-32 79.36-75.093 84.48z" />
<glyph unicode="&#xe930;" glyph-name="search" data-tags="search" d="M705.328 51.462c-73.534-53.884-164.071-85.595-261.594-85.595-245.077 0-443.733 198.656-443.733 443.733s198.656 443.733 443.733 443.733c245.077 0 443.733-198.656 443.733-443.733 0-97.524-31.711-188.060-85.595-261.594l198.703-198.703c26.66-26.66 26.66-69.884 0-96.544s-69.884-26.66-96.544 0l-198.703 198.703zM443.733 102.4c169.984 0 307.2 137.216 307.2 307.2s-137.216 307.2-307.2 307.2c-169.984 0-307.2-137.216-307.2-307.2s137.216-307.2 307.2-307.2z" />
<glyph unicode="&#xe931;" glyph-name="Cart" data-tags="Cart" horiz-adv-x="1152" d="M252.591 629.333h-124.591v96h192v-0.481l0.154 0.083 48.878-143.602h622.968l-0.354-87.037-191.646-344.963-384.031 0.091-163.379 479.909zM488-42.667c-39.764 0-72 32.236-72 72s32.236 72 72 72c39.764 0 72-32.236 72-72s-32.236-72-72-72zM728-42.667c-39.764 0-72 32.236-72 72s32.236 72 72 72c39.764 0 72-32.236 72-72s-32.236-72-72-72z" />
<glyph unicode="&#xe932;" glyph-name="Arrow_forward" data-tags="arrow_forward" d="M512 683.333l342-342-342-342-60 60 238 240h-520v84h520l-238 240z" />
<glyph unicode="&#xe933;" glyph-name="Arrow_upward" data-tags="arrow_upward" d="M170 341.333l342 342 342-342-62-60-238 238v-520h-84v520l-240-238z" />
<glyph unicode="&#xe934;" glyph-name="rub" data-tags="rub" d="M256 327.547h75.922v381.747c27.090 6.416 56.139 10.693 87.149 12.832s61.842 3.208 92.496 3.208c32.793 0 65.050-3.208 96.773-9.624s59.882-18.178 84.476-35.288c24.594-17.109 44.377-40.278 59.347-69.506s22.456-66.654 22.456-112.278c0-44.912-7.663-82.337-22.99-112.278s-35.644-54.179-60.951-72.714c-25.307-18.535-54.179-31.723-86.615-39.565s-65.406-12.119-98.912-12.832l-84.476-1.069v-75.922h177.507v-66.298h-177.507v-149.705h-88.753v149.705h-75.922v66.298h75.922v76.991h-75.922v66.298zM513.706 650.481c-18.535 0-36.179-0.535-52.931-1.604s-30.119-2.673-40.099-4.812v-310.102h81.268c21.386 0 42.773 2.139 64.159 6.416s40.634 12.475 57.743 24.594c17.109 12.119 31.010 28.693 41.703 49.723s15.683 48.654 14.97 82.872c0.713 29.228-3.386 53.644-12.297 73.248s-21.030 35.287-36.357 47.050c-15.327 11.763-33.149 20.139-53.466 25.129s-41.882 7.485-64.694 7.485z" />
<glyph unicode="&#xe935;" glyph-name="eye" data-tags="eye" d="M512 517.107c-97.652 0-175.774-78.122-175.774-175.774s78.122-175.774 175.774-175.774c97.652 0 175.774 78.122 175.774 175.774s-78.122 175.774-175.774 175.774zM512 233.915c-58.591 0-107.418 48.826-107.418 107.418s48.826 107.418 107.418 107.418c58.591 0 107.418-48.826 107.418-107.418s-48.826-107.418-107.418-107.418zM916.413 415.523c-19.971 24.73-69.898 98.92-149.782 158.273s-164.761 93.974-254.63 93.974c-84.877 0-174.746-34.622-254.63-93.974-84.877-59.352-134.804-128.597-149.782-158.273-29.956-44.514-29.956-103.867 0-148.381 19.971-24.73 69.898-98.92 149.782-158.273 84.877-59.352 169.753-93.974 254.63-93.974 134.804 0 244.645 74.19 309.55 138.489 19.971 19.784 64.906 64.298 94.862 113.759 29.956 44.514 29.956 103.867 0 148.381zM856.5 306.711c-14.978-34.622-69.898-84.082-84.877-98.92-54.92-54.406-149.782-118.705-259.623-118.705-159.768 0-289.579 138.489-344.5 217.625-14.978 19.784-14.978 49.46 0 69.244 54.92 79.136 184.732 217.625 344.5 217.625s289.579-138.489 344.5-217.625c14.978-19.784 14.978-44.514 0-69.244z" />
<glyph unicode="&#xe936;" glyph-name="speech" data-tags="speech" d="M853.504 768.213h-683.008c-46.957 0-85.376-38.419-85.376-85.376v-768.384l170.752 170.752h597.632c46.957 0 85.376 38.419 85.376 85.376v512.256c0 46.957-38.419 85.376-85.376 85.376zM853.504 170.581h-597.632l-85.376-85.376v597.632h683.008v-512.256z" />
<glyph unicode="&#xe937;" glyph-name="t-down" data-tags="t-down" d="M391.051 711.296h352.176c32.478 0 60.261-18.498 72-45.135l118.175-260.824c3.522-8.509 5.478-17.388 5.478-27.007v-73.993c0-40.696-35.218-73.993-78.261-73.993h-246.915l37.174-169.073 1.174-11.839c0-15.168-6.652-29.227-17.217-39.216l-41.479-38.846-257.871 243.805c-14.087 13.319-22.696 31.817-22.696 52.165v369.963c0 40.696 35.218 73.993 78.261 73.993zM391.051 267.34l169.827-160.564-52.435 197.56h352.176v73.993l-117.392 258.974h-352.176v-369.963zM85.12 199.040h170.752v455.339h-170.752z" />
<glyph unicode="&#xe938;" glyph-name="t-up" data-tags="t-up" d="M391.051-28.63h352.176c32.478 0 60.261 18.498 72 45.135l118.175 260.824c3.522 8.509 5.478 17.388 5.478 27.007v73.993c0 40.696-35.218 73.993-78.261 73.993h-246.915l37.174 169.073 1.174 11.839c0 15.168-6.652 29.227-17.217 39.216l-41.479 38.846-257.871-243.805c-14.087-13.319-22.696-31.817-22.696-52.165v-369.963c0-40.696 35.218-73.993 78.261-73.993zM391.051 415.326l169.827 160.564-52.435-197.56h352.176v-73.993l-117.392-258.974h-352.176v369.963zM85.12 426.709h170.752v-455.339h-170.752z" />
<glyph unicode="&#xe978;" glyph-name="Phone" data-tags="phone" d="M282 393.333c62-120 162-220 282-282l94 94c12 12 30 16 44 10 48-16 100-24 152-24 24 0 42-18 42-42v-150c0-24-18-42-42-42-400 0-726 326-726 726 0 24 18 42 42 42h150c24 0 42-18 42-42 0-54 8-104 24-152 4-14 2-32-10-44z" />
<glyph unicode="&#xe99a;" glyph-name="Navigate_before" data-tags="navigate_before" d="M658 537.333l-196-196 196-196-60-60-256 256 256 256z" />
<glyph unicode="&#xe99b;" glyph-name="Navigate_next" data-tags="navigate_next" d="M426 597.333l256-256-256-256-60 60 196 196-196 196z" />
<glyph unicode="&#xe9cc;" glyph-name="Delete_fill" data-tags="delete" d="M810 683.333v-86h-596v86h148l44 42h212l44-42h148zM256 43.333v512h512v-512c0-46-40-86-86-86h-340c-46 0-86 40-86 86z" />
<glyph unicode="&#xea0f;" glyph-name="Favorite" data-tags="favorite" d="M512-56.667l-62 56c-220 200-364 330-364 492 0 132 102 234 234 234 74 0 146-36 192-90 46 54 118 90 192 90 132 0 234-102 234-234 0-162-144-294-364-494z" />
<glyph unicode="&#xea10;" glyph-name="Favorite_border" data-tags="favorite_border" d="M516 61.333c204 184 338 306 338 430 0 86-64 148-150 148-66 0-130-42-152-100h-80c-22 58-86 100-152 100-86 0-150-62-150-148 0-124 134-246 338-430l4-4zM704 725.333c132 0 234-102 234-234 0-162-144-292-364-492l-62-56-62 54c-220 200-364 332-364 494 0 132 102 234 234 234 74 0 146-36 192-90 46 54 118 90 192 90z" />
<glyph unicode="&#xeb0f;" glyph-name="Notifications" data-tags="notifications" d="M768 171.333l86-86v-42h-684v42l86 86v212c0 132 70 240 192 270v30c0 36 28 64 64 64s64-28 64-64v-30c122-30 192-140 192-270v-212zM512-84.667c-48 0-86 38-86 84h172c0-46-40-84-86-84z" />
<glyph unicode="&#xeb93;" glyph-name="Send" data-tags="send" d="M86-42.667v298l640 86-640 86v298l896-384z" />
</font>
</defs>
</svg>
