<svg id="_x31__x2C_5" enable-background="new 0 0 24 24" height="512" viewBox="0 0 24 24" width="512" xmlns="http://www.w3.org/2000/svg"><g><path d="m15.25 19h-8.5c-.414 0-.75-.336-.75-.75v-8.5c0-.965.785-1.75 1.75-1.75h2.02c.269 0 .517.144.65.377.134.233.133.52-.003.752-.107.183-.167.404-.167.621 0 .689.561 1.25 1.25 1.25s1.25-.561 1.25-1.25c0-.217-.06-.438-.167-.621-.136-.232-.137-.519-.003-.752s.382-.377.65-.377h2.02c.965 0 1.75.785 1.75 1.75v1.011c1.589-.14 3 1.139 3 2.739.001 1.601-1.41 2.892-3 2.738v1.012c0 .965-.785 1.75-1.75 1.75zm-7.75-1.5h7.75c.136 0 .25-.114.25-.25v-2.02c0-.269.144-.517.377-.65.232-.133.52-.132.752.003.184.107.404.167.621.167.689 0 1.25-.561 1.25-1.25s-.561-1.25-1.25-1.25c-.217 0-.437.06-.621.167-.232.137-.52.137-.752.004-.233-.134-.377-.382-.377-.651v-2.02c0-.136-.114-.25-.25-.25h-1.012c.008.083.012.167.012.25 0 1.517-1.233 2.75-2.75 2.75s-2.75-1.233-2.75-2.75c0-.083.004-.167.012-.25h-1.012c-.136 0-.25.114-.25.25z"/></g><g><path d="m21.25 23h-18.5c-1.517 0-2.75-1.233-2.75-2.75v-16.5c0-1.517 1.233-2.75 2.75-2.75h18.5c1.517 0 2.75 1.233 2.75 2.75v16.5c0 1.517-1.233 2.75-2.75 2.75zm-18.5-20.5c-.689 0-1.25.561-1.25 1.25v16.5c0 .689.561 1.25 1.25 1.25h18.5c.689 0 1.25-.561 1.25-1.25v-16.5c0-.689-.561-1.25-1.25-1.25z"/></g><g><path d="m23.25 6h-22.5c-.414 0-.75-.336-.75-.75s.336-.75.75-.75h22.5c.414 0 .75.336.75.75s-.336.75-.75.75z"/></g></svg>