<svg id="_x31__x2C_5" enable-background="new 0 0 24 24" height="512" viewBox="0 0 24 24" width="512" xmlns="http://www.w3.org/2000/svg"><g><path d="m19.337 24c-2.571 0-4.663-2.092-4.663-4.663v-2.446c0-.935-.761-1.695-1.696-1.695s-1.695.761-1.695 1.695v1.468c0 3.11-2.531 5.641-5.642 5.641-3.11 0-5.641-2.531-5.641-5.641v-6.359c0-6.617 5.383-12 12-12s12 5.383 12 12v7.337c0 2.571-2.092 4.663-4.663 4.663zm-6.359-10.304c1.762 0 3.196 1.434 3.196 3.195v2.446c0 1.744 1.419 3.163 3.163 3.163s3.163-1.419 3.163-3.163v-7.337c0-5.79-4.71-10.5-10.5-10.5s-10.5 4.71-10.5 10.5v6.359c0 2.283 1.858 4.141 4.141 4.141 2.284 0 4.142-1.858 4.142-4.141v-1.468c0-1.762 1.433-3.195 3.195-3.195z"/></g><g><path d="m5.5 21c-1.654 0-3-1.346-3-3s1.346-3 3-3 3 1.346 3 3-1.346 3-3 3zm0-4.5c-.827 0-1.5.673-1.5 1.5s.673 1.5 1.5 1.5 1.5-.673 1.5-1.5-.673-1.5-1.5-1.5z"/></g><g><path d="m19.5 18c-1.378 0-2.5-1.122-2.5-2.5s1.122-2.5 2.5-2.5 2.5 1.122 2.5 2.5-1.122 2.5-2.5 2.5zm0-3.5c-.551 0-1 .449-1 1s.449 1 1 1 1-.449 1-1-.449-1-1-1z"/></g><g><path d="m6.5 13.5c-1.93 0-3.5-1.57-3.5-3.5s1.57-3.5 3.5-3.5 3.5 1.57 3.5 3.5-1.57 3.5-3.5 3.5zm0-5.5c-1.103 0-2 .897-2 2s.897 2 2 2 2-.897 2-2-.897-2-2-2z"/></g><g><path d="m15.5 12c-2.206 0-4-1.794-4-4s1.794-4 4-4 4 1.794 4 4-1.794 4-4 4zm0-6.5c-1.378 0-2.5 1.122-2.5 2.5s1.122 2.5 2.5 2.5 2.5-1.122 2.5-2.5-1.122-2.5-2.5-2.5z"/></g></svg>