<svg id="_x31__x2C_5" enable-background="new 0 0 24 24" height="512" viewBox="0 0 24 24" width="512" xmlns="http://www.w3.org/2000/svg"><g><path d="m12 24c-.414 0-.75-.336-.75-.75v-22.5c0-.414.336-.75.75-.75s.75.336.75.75v22.5c0 .414-.336.75-.75.75z"/></g><g><path d="m23.25 12.75h-22.5c-.414 0-.75-.336-.75-.75s.336-.75.75-.75h22.5c.414 0 .75.336.75.75s-.336.75-.75.75z"/></g><g><path d="m20.25 9h-3.5c-.965 0-1.75-.785-1.75-1.75v-3.5c0-.965.785-1.75 1.75-1.75h3.5c.965 0 1.75.785 1.75 1.75v3.5c0 .965-.785 1.75-1.75 1.75zm-3.5-5.5c-.138 0-.25.112-.25.25v3.5c0 .138.112.25.25.25h3.5c.138 0 .25-.112.25-.25v-3.5c0-.138-.112-.25-.25-.25z"/></g><g><path d="m20.25 22h-3.5c-.965 0-1.75-.785-1.75-1.75v-3.5c0-.965.785-1.75 1.75-1.75h3.5c.965 0 1.75.785 1.75 1.75v3.5c0 .965-.785 1.75-1.75 1.75zm-3.5-5.5c-.138 0-.25.112-.25.25v3.5c0 .138.112.25.25.25h3.5c.138 0 .25-.112.25-.25v-3.5c0-.138-.112-.25-.25-.25z"/></g><g><path d="m7.25 22h-3.5c-.965 0-1.75-.785-1.75-1.75v-3.5c0-.965.785-1.75 1.75-1.75h3.5c.965 0 1.75.785 1.75 1.75v3.5c0 .965-.785 1.75-1.75 1.75zm-3.5-5.5c-.138 0-.25.112-.25.25v3.5c0 .138.112.25.25.25h3.5c.138 0 .25-.112.25-.25v-3.5c0-.138-.112-.25-.25-.25z"/></g><g><path d="m7.25 9h-3.5c-.965 0-1.75-.785-1.75-1.75v-3.5c0-.965.785-1.75 1.75-1.75h3.5c.965 0 1.75.785 1.75 1.75v3.5c0 .965-.785 1.75-1.75 1.75zm-3.5-5.5c-.138 0-.25.112-.25.25v3.5c0 .138.112.25.25.25h3.5c.138 0 .25-.112.25-.25v-3.5c0-.138-.112-.25-.25-.25z"/></g></svg>