<svg id="_x31__x2C_5" enable-background="new 0 0 24 24" height="512" viewBox="0 0 24 24" width="512" xmlns="http://www.w3.org/2000/svg"><g><path d="m8.75 11h-6.5c-1.241 0-2.25-1.009-2.25-2.25v-6.5c0-1.241 1.009-2.25 2.25-2.25h6.5c1.241 0 2.25 1.009 2.25 2.25v6.5c0 1.241-1.009 2.25-2.25 2.25zm-6.5-9.5c-.414 0-.75.336-.75.75v6.5c0 .414.336.75.75.75h6.5c.414 0 .75-.336.75-.75v-6.5c0-.414-.336-.75-.75-.75z"/></g><g><path d="m10.25 5h-9.5c-.414 0-.75-.336-.75-.75s.336-.75.75-.75h9.5c.414 0 .75.336.75.75s-.336.75-.75.75z"/></g><g><path d="m21.75 11h-6.5c-1.241 0-2.25-1.009-2.25-2.25v-6.5c0-1.241 1.009-2.25 2.25-2.25h6.5c1.241 0 2.25 1.009 2.25 2.25v6.5c0 1.241-1.009 2.25-2.25 2.25zm-6.5-9.5c-.414 0-.75.336-.75.75v6.5c0 .414.336.75.75.75h6.5c.414 0 .75-.336.75-.75v-6.5c0-.414-.336-.75-.75-.75z"/></g><g><path d="m23.25 5h-9.5c-.414 0-.75-.336-.75-.75s.336-.75.75-.75h9.5c.414 0 .75.336.75.75s-.336.75-.75.75z"/></g><g><path d="m8.75 24h-6.5c-1.241 0-2.25-1.009-2.25-2.25v-6.5c0-1.241 1.009-2.25 2.25-2.25h6.5c1.241 0 2.25 1.009 2.25 2.25v6.5c0 1.241-1.009 2.25-2.25 2.25zm-6.5-9.5c-.414 0-.75.336-.75.75v6.5c0 .414.336.75.75.75h6.5c.414 0 .75-.336.75-.75v-6.5c0-.414-.336-.75-.75-.75z"/></g><g><path d="m10.25 18h-9.5c-.414 0-.75-.336-.75-.75s.336-.75.75-.75h9.5c.414 0 .75.336.75.75s-.336.75-.75.75z"/></g><g><path d="m21.75 24h-6.5c-1.241 0-2.25-1.009-2.25-2.25v-6.5c0-1.241 1.009-2.25 2.25-2.25h6.5c1.241 0 2.25 1.009 2.25 2.25v6.5c0 1.241-1.009 2.25-2.25 2.25zm-6.5-9.5c-.414 0-.75.336-.75.75v6.5c0 .414.336.75.75.75h6.5c.414 0 .75-.336.75-.75v-6.5c0-.414-.336-.75-.75-.75z"/></g><g><path d="m23.25 18h-9.5c-.414 0-.75-.336-.75-.75s.336-.75.75-.75h9.5c.414 0 .75.336.75.75s-.336.75-.75.75z"/></g></svg>