<svg id="_x31__x2C_5" enable-background="new 0 0 24 24" height="512" viewBox="0 0 24 24" width="512" xmlns="http://www.w3.org/2000/svg"><g><path d="m21.75 13h-10.5c-1.24 0-2.25-1.009-2.25-2.25v-8.5c0-1.241 1.01-2.25 2.25-2.25h10.5c1.24 0 2.25 1.009 2.25 2.25v8.5c0 1.241-1.01 2.25-2.25 2.25zm-10.5-11.5c-.413 0-.75.336-.75.75v8.5c0 .414.337.75.75.75h10.5c.413 0 .75-.336.75-.75v-8.5c0-.414-.337-.75-.75-.75z"/></g><g><path d="m23.25 5h-13.5c-.414 0-.75-.336-.75-.75s.336-.75.75-.75h13.5c.414 0 .75.336.75.75s-.336.75-.75.75z"/></g><g><path d="m12.75 24h-10.5c-1.24 0-2.25-1.009-2.25-2.25v-8.5c0-1.241 1.01-2.25 2.25-2.25h4c.414 0 .75.336.75.75s-.336.75-.75.75h-4c-.413 0-.75.336-.75.75v8.5c0 .414.337.75.75.75h10.5c.413 0 .75-.336.75-.75v-6c0-.414.336-.75.75-.75s.75.336.75.75v6c0 1.241-1.01 2.25-2.25 2.25z"/></g><g><path d="m8.25 16h-7.5c-.414 0-.75-.336-.75-.75s.336-.75.75-.75h7.5c.414 0 .75.336.75.75s-.336.75-.75.75z"/></g><g><path d="m4 8c-.192 0-.384-.073-.53-.22l-1.5-1.5c-.293-.293-.293-.768 0-1.061s.768-.293 1.061 0l.969.97.97-.97c.293-.293.768-.293 1.061 0s.293.768 0 1.061l-1.5 1.5c-.147.147-.339.22-.531.22z"/></g><g><path d="m4 7.5c-.414 0-.75-.336-.75-.75v-1.5c0-1.517 1.233-2.75 2.75-2.75h.25c.414 0 .75.336.75.75s-.336.75-.75.75h-.25c-.689 0-1.25.561-1.25 1.25v1.5c0 .414-.336.75-.75.75z"/></g><g><path d="m21.5 19c-.192 0-.384-.073-.53-.22l-.97-.969-.97.97c-.293.293-.768.293-1.061 0s-.293-.768 0-1.061l1.5-1.5c.293-.293.768-.293 1.061 0l1.5 1.5c.293.293.293.768 0 1.061-.146.146-.338.219-.53.219z"/></g><g><path d="m18 21.5h-.25c-.414 0-.75-.336-.75-.75s.336-.75.75-.75h.25c.689 0 1.25-.561 1.25-1.25v-1.5c0-.414.336-.75.75-.75s.75.336.75.75v1.5c0 1.517-1.233 2.75-2.75 2.75z"/></g></svg>