<svg id="_x31__x2C_5" enable-background="new 0 0 24 24" height="512" viewBox="0 0 24 24" width="512" xmlns="http://www.w3.org/2000/svg"><g><path d="m19.25 9h-7c-.414 0-.75-.336-.75-.75s.336-.75.75-.75h7c.138 0 .25-.112.25-.25v-2.5c0-.138-.112-.25-.25-.25h-7c-.414 0-.75-.336-.75-.75s.336-.75.75-.75h7c.965 0 1.75.785 1.75 1.75v2.5c0 .965-.785 1.75-1.75 1.75z"/></g><g><path d="m6.25 9h-1.5c-.965 0-1.75-.785-1.75-1.75v-2.5c0-.965.785-1.75 1.75-1.75h1.5c.414 0 .75.336.75.75s-.336.75-.75.75h-1.5c-.138 0-.25.112-.25.25v2.5c0 .138.112.25.25.25h1.5c.414 0 .75.336.75.75s-.336.75-.75.75z"/></g><g><path d="m9.25 4.25c-.414 0-.75-.336-.75-.75v-1.75c0-.138-.112-.25-.25-.25h-1.5c-.414 0-.75-.336-.75-.75s.336-.75.75-.75h1.5c.965 0 1.75.785 1.75 1.75v1.75c0 .414-.336.75-.75.75z"/></g><g><path d="m8.25 12h-1.5c-.414 0-.75-.336-.75-.75s.336-.75.75-.75h1.5c.138 0 .25-.112.25-.25v-1.75c0-.414.336-.75.75-.75s.75.336.75.75v1.75c0 .965-.785 1.75-1.75 1.75z"/></g><g><path d="m11.75 12h-1.5c-.965 0-1.75-.785-1.75-1.75v-8.5c0-.965.785-1.75 1.75-1.75h1.5c.414 0 .75.336.75.75s-.336.75-.75.75h-1.5c-.138 0-.25.112-.25.25v8.5c0 .138.112.25.25.25h1.5c.414 0 .75.336.75.75s-.336.75-.75.75z"/></g><g><path d="m22.25 21h-20.5c-.965 0-1.75-.785-1.75-1.75v-14.5c0-.414.336-.75.75-.75s.75.336.75.75v14.5c0 .138.112.25.25.25h20.5c.138 0 .25-.112.25-.25v-14.5c0-.414.336-.75.75-.75s.75.336.75.75v14.5c0 .965-.785 1.75-1.75 1.75z"/></g><g><path d="m23.25 17.5h-22.5c-.414 0-.75-.336-.75-.75s.336-.75.75-.75h22.5c.414 0 .75.336.75.75s-.336.75-.75.75z"/></g><g><path d="m15.25 24h-6.5c-.304 0-.577-.183-.693-.463-.115-.28-.052-.603.163-.817 1.046-1.046 1.266-2.555 1.268-2.57.056-.409.428-.693.844-.642.409.056.697.431.643.84-.007.059-.147 1.066-.743 2.152h3.522c-.591-1.08-.737-2.088-.746-2.146-.057-.41.229-.789.64-.847.412-.058.788.229.846.639.007.044.232 1.469 1.186 2.488.193.136.32.361.32.616 0 .414-.336.75-.75.75z"/></g></svg>