<svg width="491px" height="458px" viewBox="0 0 491 458" version="1.1" xmlns="http://www.w3.org/2000/svg" xmlns:xlink="http://www.w3.org/1999/xlink">
    <!-- Generator: Sketch 51.2 (57519) - http://www.bohemiancoding.com/sketch -->
    <desc>Created with Sketch.</desc>
    <defs></defs>
    <g id="homepage" stroke="none" stroke-width="1" fill="none" fill-rule="evenodd">
        <g id="d" transform="translate(-660.000000, -602.000000)" fill="#000000">
            <g id="Group-5" transform="translate(660.000000, 602.000000)">
                <path d="M399.629,416.344 L450.214,416.344 L450.214,288.333 L399.629,288.333 L399.629,416.344 Z M359.161,271.619 L359.161,434.071 C359.161,447.189 369.796,457.824 382.914,457.824 L466.929,457.824 C480.048,457.824 490.682,447.189 490.682,434.071 L490.682,417.356 L490.682,271.619 C490.682,258.501 480.048,247.866 466.929,247.866 L382.914,247.866 C369.796,247.866 359.161,258.501 359.161,271.619 Z" id="Fill-1"></path>
                <path d="M40.468,417.356 L91.053,417.356 L91.053,40.467 L40.468,40.467 L40.468,417.356 Z M0,23.752 L0,434.071 C0,447.189 10.635,457.824 23.753,457.824 L107.768,457.824 C120.886,457.824 131.52,447.189 131.52,434.071 L131.52,23.752 C131.52,10.634 120.886,0 107.768,0 L23.753,0 C10.635,0 0,10.634 0,23.752 Z" id="Fill-3"></path>
                <path d="M219.583,416.344 L270.168,416.344 L270.168,141.637 L219.583,141.637 L219.583,416.344 Z M179.115,124.922 L179.115,434.071 C179.115,447.189 189.75,457.824 202.868,457.824 L286.883,457.824 C300.001,457.824 310.636,447.189 310.636,434.071 L310.636,124.922 C310.636,111.804 300.001,101.169 286.883,101.169 L202.868,101.169 C189.75,101.169 179.115,111.804 179.115,124.922 Z" id="Fill-4"></path>
            </g>
        </g>
    </g>
</svg>