<?xml version="1.0" encoding="utf-8"?>
<!-- Generator: Adobe Illustrator 21.0.0, SVG Export Plug-In . SVG Version: 6.00 Build 0)  -->
<svg version="1.1" id="Слой_1" xmlns="http://www.w3.org/2000/svg" xmlns:xlink="http://www.w3.org/1999/xlink" x="0px" y="0px"
	 viewBox="0 0 1000 1000" style="enable-background:new 0 0 1000 1000;" xml:space="preserve">
<style type="text/css">
	.st0{filter:url(#Adobe_OpacityMaskFilter);}
	.st1{fill:#FFFFFF;}
	.st2{mask:url(#mask-2_1_);}
</style>
<path id="Fill-1" d="M579.6,553.1c-23.7,0-43,19.3-43,43s19.3,43,43,43s43-19.3,43-43S603.3,553.1,579.6,553.1"/>
<path id="Fill-3" d="M434.8,461.9l-19.2-80.3H630l-19.9,80.3H434.8z M668.6,321.1H401.2l-10-41.7c-3.3-13.6-15.4-23.2-29.4-23.2
	h-47.2c-16.7,0-30.2,13.6-30.2,30.2c0,16.7,13.6,30.2,30.2,30.2H338l43.6,182.4c3.3,13.7,15.4,23.2,29.4,23.2h222.8
	c13.9,0,26-9.4,29.3-22.9l34.8-140.7c2.2-9.1,0.2-18.5-5.5-25.9C686.6,325.4,678,321.1,668.6,321.1z"/>
<path id="Fill-5" d="M430.2,553.1c-23.7,0-43,19.3-43,43s19.3,43,43,43s43-19.3,43-43S453.9,553.1,430.2,553.1"/>
<defs>
	<filter id="Adobe_OpacityMaskFilter" filterUnits="userSpaceOnUse" x="107.7" y="8" width="784.7" height="984.9">
		<feColorMatrix  type="matrix" values="1 0 0 0 0  0 1 0 0 0  0 0 1 0 0  0 0 0 1 0"/>
	</filter>
</defs>
<mask maskUnits="userSpaceOnUse" x="107.7" y="8" width="784.7" height="984.9" id="mask-2_1_">
	<g class="st0">
		<polygon id="path-1_1_" class="st1" points="107.7,8 892.3,8 892.3,992.9 107.7,992.9 		"/>
	</g>
</mask>
<path id="Fill-7" class="st2" d="M816,472.1v2.5c-32.2,140.8-243.5,363.1-315.6,435.2C428.3,837.6,216.2,615.4,184,471.2
	c0-1.7,0-2.5-0.8-4.2c-4.3-22.1-6.8-44.1-6.8-66.2c0-178.1,145.1-324,323.2-324s324,145.1,324,324
	C823.6,425.4,821.1,449.1,816,472.1 M500.4,8C284.1,8,107.7,184.5,107.7,401.6c0,26.3,2.5,52.6,7.6,78c0,1.7,0.9,3.4,0.9,5.9
	c43.2,194.3,347.8,486.1,360.5,498c6.8,6.8,15.2,9.3,23.7,9.3c8.5,0,17-3.4,23.8-9.3c12.7-12.7,315.6-303.7,358.8-493.7
	c0-1.7,0.8-3.4,0.8-5.1c6-27.2,8.5-55.1,8.5-83.1C893.2,184.5,716.8,8,500.4,8"/>
</svg>
