<?xml version="1.0" encoding="utf-8"?>
<!-- Generator: Adobe Illustrator 21.0.0, SVG Export Plug-In . SVG Version: 6.00 Build 0)  -->
<svg version="1.1" id="Слой_1" xmlns="http://www.w3.org/2000/svg" xmlns:xlink="http://www.w3.org/1999/xlink" x="0px" y="0px"
	 viewBox="0 0 35 35" style="enable-background:new 0 0 35 35;" xml:space="preserve">
<style type="text/css">
	.st0{fill:#F8B96B;}
	.st1{fill:url(#SVGID_1_);}
	.st2{fill:url(#SVGID_2_);}
	.st3{fill:#888888;}
</style>
<desc>Created with Sketch.</desc>
<path class="st0" d="M11.6,34.2H2.5c-1,0-1.8-0.8-1.8-1.8l0,0c0-1,0.8-1.8,1.8-1.8h9.1c1,0,1.8,0.8,1.8,1.8l0,0
	C13.4,33.5,12.6,34.2,11.6,34.2z"/>
<linearGradient id="SVGID_1_" gradientUnits="userSpaceOnUse" x1="-0.5169" y1="25.281" x2="29.9963" y2="14.175">
	<stop  offset="0" style="stop-color:#F7DB87"/>
	<stop  offset="0.4974" style="stop-color:#FFFFFF"/>
</linearGradient>
<rect x="1.5" y="8.7" class="st1" width="26.6" height="22"/>
<linearGradient id="SVGID_2_" gradientUnits="userSpaceOnUse" x1="8.154" y1="26.1913" x2="21.342" y2="13.0033">
	<stop  offset="0" style="stop-color:#F7DB87"/>
	<stop  offset="0.4974" style="stop-color:#FFFFFF"/>
</linearGradient>
<circle class="st2" cx="14.7" cy="19.6" r="9.3"/>
<g id="homepage">
	<g id="d" transform="translate(-111.000000, -355.000000)">
		<g id="icon-03" transform="translate(111.000000, 355.000000)">
			<path id="Shape" class="st3" d="M13.5,30.6h-12V8.7H28v9.7c0,0.4,0.3,0.7,0.7,0.7c0.4,0,0.7-0.3,0.7-0.7V3.6c0-2-1.7-3.7-3.7-3.6
				H3.7C1.7,0,0,1.6,0,3.6v29.2C0,34,1,35,2.2,35h10.3c0.3,0,0.5-0.1,0.6-0.4c0.1-0.2,0.1-0.5,0-0.7c-0.1-0.2-0.4-0.4-0.6-0.4H2.2
				c-0.2,0-0.4-0.1-0.5-0.2c-0.1-0.1-0.2-0.3-0.2-0.5v-0.7h12c0.4,0,0.7-0.3,0.7-0.7C14.2,30.9,13.9,30.6,13.5,30.6z M14.7,1.5
				l11.1,0c1.2,0,2.2,1,2.2,2.2v3.6H14.7V1.5z M1.5,3.6c0-1.2,1-2.2,2.2-2.2l9.6,0v5.8H1.5V3.6z"/>
			<path id="Shape_1_" class="st3" d="M4.6,2.2c-0.9,0-1.8,0.5-2.1,1.3S2.3,5.3,2.9,5.9s1.6,0.8,2.4,0.4C6.2,6,6.7,5.1,6.6,4.2
				C6.6,3.1,5.7,2.3,4.6,2.2z M4.5,5.1C4.2,5.1,3.9,5,3.8,4.7C3.6,4.4,3.7,4.1,3.9,3.9c0.2-0.2,0.6-0.3,0.9-0.1
				C5,3.9,5.2,4.2,5.1,4.5C5.1,4.8,4.9,5,4.5,5.1L4.5,5.1z"/>
			<path id="Shape_2_" class="st3" d="M17,28.1c-0.1-0.4-0.5-0.6-0.8-0.5C12,28.3,8,25.7,6.9,21.7c-0.2-0.6-0.2-1.2-0.3-1.8
				c0.4,0.2,0.8,0.5,1.1,0.9c0.6,1,1.7,1.6,2.9,1.7c0.1,0,0.2,0,0.3,0c1.4-0.1,2.7-0.7,3.7-1.6c0.5-0.7,1.4-1.2,2.3-1.2
				c0.3,0,0.5-0.1,0.7-0.3s0.2-0.5,0.1-0.7s-0.3-0.4-0.6-0.5c-1.7-0.3-3.1,1.1-3.6,1.6c-0.8,0.7-1.8,1.1-2.8,1.2
				C10,21,9.3,20.6,8.9,20c-0.5-0.8-1.3-1.3-2.2-1.5c0.6-3.7,3.6-6.4,7.3-6.8c3.7-0.3,7.1,1.9,8.4,5.4c0.1,0.3,0.4,0.5,0.8,0.4
				c0.2-0.1,0.4-0.2,0.5-0.4c0.1-0.2,0.1-0.4,0-0.7c-1.6-4.6-6.4-7.3-11.2-6.2s-7.9,5.6-7.4,10.4s4.6,8.5,9.5,8.5
				c0.5,0,1.1,0,1.6-0.1c0.2,0,0.4-0.2,0.5-0.3C17,28.5,17,28.3,17,28.1z"/>
			<rect id="Rectangle-path" x="25.1" y="3.6" class="st3" width="1.5" height="1.5"/>
			<rect id="Rectangle-path_1_" x="22.1" y="3.6" class="st3" width="1.5" height="1.5"/>
			<rect id="Rectangle-path_2_" x="19.2" y="3.6" class="st3" width="1.5" height="1.5"/>
			<path id="Shape_3_" class="st3" d="M34.3,15.3h-1.1c-1,0-1.9,0.8-1.9,1.9V21h-1.6c-2.9,0-5.3,2.4-5.3,5.3V29h-0.5
				c-0.2,0-0.4-0.2-0.4-0.4v-7.4c0-1.3-1.1-2.4-2.5-2.4c-1.3,0-2.4,1.1-2.5,2.4v7.9c-0.7,0.3-1.1,1-1.1,1.7v0.5
				c-1.3,0.3-2.3,1.5-2.3,2.9c0,0.4,0.3,0.7,0.7,0.7h6.9c0.4,0,0.7-0.3,0.7-0.7c0-1.4-1-2.6-2.3-2.9v-0.5c0-0.7-0.5-1.4-1.1-1.7
				v-7.9c0-0.5,0.4-1,1-1c0.5,0,1,0.4,1,1v7.4c0,1,0.8,1.9,1.9,1.9h0.5v2.7c0,1,0.8,1.9,1.9,1.9h4c1.3,0,2.4-1.1,2.5-2.4V17.2
				c0-0.2,0.2-0.4,0.4-0.4h1.1c0.3,0,0.5-0.1,0.6-0.4c0.1-0.2,0.1-0.5,0-0.7C34.8,15.4,34.5,15.3,34.3,15.3L34.3,15.3z M20.5,32.7
				c0.6,0,1.1,0.3,1.4,0.8h-5c0.3-0.5,0.8-0.8,1.4-0.8h0.6c0-0.6,0-1.2,0-1.8c0-0.2,0.1-0.4,0.3-0.4c0,0,0,0,0,0h0c0,0,0.1,0,0.1,0
				h0c0.1,0,0.3,0,0.4,0.1c0.1,0.1,0.1,0.2,0.1,0.4c0,0.6,0,1.2,0,1.8L20.5,32.7z M25.8,27.3c0-1.8,1.3-4.4,3.1-4.8v4.8
				c0,0.2-0.2,0.4-0.4,0.4l-2.7,0L25.8,27.3z M30.3,33.5c-0.5,0-1-0.4-1-1c0-0.5,0.4-1,1-1c0.5,0,1,0.4,1,1
				C31.2,33.1,30.8,33.5,30.3,33.5L30.3,33.5z M31.2,30.3c-0.3-0.1-0.6-0.2-1-0.2c-1.3,0-2.4,1.1-2.5,2.4c0,0.3,0.1,0.7,0.2,1h-1.8
				c-0.2,0-0.4-0.2-0.4-0.4v-3.9h2.7c1,0,1.9-0.8,1.9-1.9v-4.8h0.8L31.2,30.3z"/>
		</g>
	</g>
</g>
</svg>
