<?xml version="1.0" encoding="utf-8"?>
<!-- Generator: Adobe Illustrator 21.0.0, SVG Export Plug-In . SVG Version: 6.00 Build 0)  -->
<svg version="1.1" id="Слой_1" xmlns="http://www.w3.org/2000/svg" xmlns:xlink="http://www.w3.org/1999/xlink" x="0px" y="0px"
	 viewBox="0 0 35 35" style="enable-background:new 0 0 35 35;" xml:space="preserve">
<style type="text/css">
	.st0{fill:#F8B96B;}
	.st1{fill:url(#SVGID_1_);}
	.st2{filter:url(#Adobe_OpacityMaskFilter);}
	.st3{fill:#FFFFFF;}
	.st4{mask:url(#mask-2);fill:#888888;}
	.st5{fill:#888888;}
	.st6{fill:url(#SVGID_2_);}
	.st7{fill:url(#SVGID_3_);}
</style>
<desc>Created with Sketch.</desc>
<path class="st0" d="M25.6,16c-3.6,0-6.5-2.9-6.5-6.5S22,3,25.6,3s6.5,2.9,6.5,6.5S29.2,16,25.6,16z M25.6,6c-1.9,0-3.5,1.6-3.5,3.5
	s1.6,3.5,3.5,3.5s3.5-1.6,3.5-3.5S27.5,6,25.6,6z"/>
<linearGradient id="SVGID_1_" gradientUnits="userSpaceOnUse" x1="13.7969" y1="17.1542" x2="29.1464" y2="1.8046">
	<stop  offset="0" style="stop-color:#F7DB87"/>
	<stop  offset="0.4974" style="stop-color:#FFFFFF"/>
</linearGradient>
<path class="st1" d="M25.5,1.5c-2.9,0-10.4,1.6-15.3,4v8.1c4.9,2.4,12.4,4,15.3,4c4.4,0,8-3.6,8-8S29.9,1.5,25.5,1.5z M25.5,16
	c-3.6,0-6.6-2.9-6.6-6.6c0-3.6,2.9-6.6,6.6-6.6c3.6,0,6.6,2.9,6.6,6.6C32,13.1,29.1,16,25.5,16z"/>
<g id="homepage">
	<g id="d" transform="translate(-1008.000000, -555.000000)">
		<g id="Group-8" transform="translate(1008.000000, 555.000000)">
			<g id="Group-3">
				<g id="Clip-2">
				</g>
				<defs>
					<filter id="Adobe_OpacityMaskFilter" filterUnits="userSpaceOnUse" x="0" y="0" width="35" height="35">
						<feColorMatrix  type="matrix" values="1 0 0 0 0  0 1 0 0 0  0 0 1 0 0  0 0 0 1 0"/>
					</filter>
				</defs>
				<mask maskUnits="userSpaceOnUse" x="0" y="0" width="35" height="35" id="mask-2">
					<g class="st2">
						<polygon id="path-1" class="st3" points="0,0 35,0 35,35 0,35 						"/>
					</g>
				</mask>
				<path id="Fill-1" class="st4" d="M30.6,29.2h-4.5l-0.3-1.5h1.9c0.4,0,0.7-0.3,0.7-0.7c0-0.4-0.3-0.7-0.7-0.7h-2.1l-1.4-7.4
					c0.5,0,0.9,0.1,1.3,0.1c1.9,0,3.6-0.5,5.1-1.5V29.2z M10.2,5.4c4.9-2.4,12.4-4,15.3-4c4.4,0,8,3.6,8,8s-3.6,8-8,8
					c-2.9,0-10.4-1.6-15.3-4V5.4z M5.8,12.4v2.3l-4.4,1.1V3.1l4.4,1.1v4.5c0,0.4,0.3,0.7,0.7,0.7c0.4,0,0.7-0.3,0.7-0.7V5.8h1.5v7.3
					H7.3v-0.7c0-0.4-0.3-0.7-0.7-0.7C6.2,11.7,5.8,12,5.8,12.4z M35,9.5C35,4.2,30.8,0,25.5,0C22.3,0,14.3,1.7,9.1,4.3
					c0,0,0,0-0.1,0H7.3V3.6c0-0.3-0.2-0.6-0.6-0.7L0.9,1.5c-0.1,0-0.1,0-0.2,0C0.3,1.5,0,1.8,0,2.2v14.6c0,0.4,0.3,0.7,0.7,0.7
					c0.1,0,0.1,0,0.2,0L6.7,16c0.3-0.1,0.6-0.4,0.6-0.7v-0.7h1.8c0,0,0,0,0.1,0c4,2,9.7,3.5,13.5,4.1L24.8,30
					c0.1,0.3,0.4,0.6,0.7,0.6h2.2v0.7c0,1.2-1,2.2-2.2,2.2h-6.9c-1.4,0-2.6-1.1-2.6-2.5c0-3-3.1-5.2-6.3-3.5C8.6,28.3,8,29.6,8,31
					c0,1.4-1.1,2.5-2.6,2.5h-4c-0.4,0-0.7,0.3-0.7,0.7c0,0.4,0.3,0.7,0.7,0.7h4c2.2,0,4-1.8,4-4c0-1.3,1-2.5,2.3-2.6
					c1.5-0.1,2.8,1.1,2.8,2.5c0,2.2,1.8,4,4,4h6.9c2,0,3.6-1.6,3.6-3.6v-0.7h2.2c0.4,0,0.7-0.3,0.7-0.7V16.3
					C33.9,14.6,35,12.2,35,9.5z"/>
			</g>
			<path id="Fill-4" class="st5" d="M20.5,10.2h4.3v4.3C22.6,14.2,20.8,12.4,20.5,10.2 M24.8,4.4v4.3h-4.3
				C20.8,6.5,22.6,4.7,24.8,4.4 M30.6,8.8h-4.3V4.4C28.5,4.8,30.2,6.5,30.6,8.8 M26.2,14.5v-4.3h4.3C30.3,12.4,28.5,14.2,26.2,14.5
				 M32.1,9.5c0-3.6-2.9-6.6-6.6-6.6c-3.6,0-6.6,2.9-6.6,6.6c0,3.6,2.9,6.6,6.6,6.6C29.1,16,32.1,13.1,32.1,9.5"/>
			<path id="Fill-6" class="st5" d="M12.4,10.2h4.4c0.4,0,0.7-0.3,0.7-0.7c0-0.4-0.3-0.7-0.7-0.7h-4.4c-0.4,0-0.7,0.3-0.7,0.7
				C11.7,9.9,12,10.2,12.4,10.2"/>
		</g>
	</g>
</g>
<linearGradient id="SVGID_2_" gradientUnits="userSpaceOnUse" x1="1.4684" y1="9.479" x2="8.7604" y2="9.479">
	<stop  offset="0" style="stop-color:#F7DB87"/>
	<stop  offset="0.4974" style="stop-color:#FFFFFF"/>
</linearGradient>
<path class="st6" d="M5.8,12.4v2.3l-4.4,1.1V3.1l4.4,1.1v4.5c0,0.4,0.3,0.7,0.7,0.7c0.4,0,0.7-0.3,0.7-0.7V5.8h1.5v7.3H7.3v-0.7
	c0-0.4-0.3-0.7-0.7-0.7C6.2,11.7,5.8,12,5.8,12.4z"/>
<linearGradient id="SVGID_3_" gradientUnits="userSpaceOnUse" x1="25.1587" y1="24.3144" x2="31.6339" y2="23.1726">
	<stop  offset="0" style="stop-color:#F7DB87"/>
	<stop  offset="0.4974" style="stop-color:#FFFFFF"/>
</linearGradient>
<path class="st7" d="M30.6,29.2h-4.5l-0.3-1.5h1.9c0.4,0,0.7-0.3,0.7-0.7c0-0.4-0.3-0.7-0.7-0.7h-2.1l-1.4-7.4
	c0.5,0,0.9,0.1,1.3,0.1c1.9,0,3.6-0.5,5.1-1.5V29.2z"/>
</svg>
