<svg xmlns="http://www.w3.org/2000/svg" viewBox="0 0 22 22"><g fill-rule="evenodd"><path d="M12.0933639,14.225025 L4.04526961,14.1934573 L3.63379141,14.1934573 C3.5913198,14.1945459 3.54939977,14.2070641 3.51023764,14.2228479 C3.46445655,14.2413531 3.42088178,14.265301 3.38116807,14.2946915 C3.35689858,14.3126525 3.33373224,14.3333347 3.31497854,14.3572826 L3.30946275,14.3649024 L2.25704935,15.9155277 L12.1066019,15.9155277 L12.0933639,14.225025 L12.0933639,14.225025 Z M12.9957478,7.83692771 C12.9665141,9.65152397 12.9957478,17.4672415 12.9957478,17.4672415 C12.9957478,17.4726842 12.9962993,17.4770384 12.9968509,17.4819368 C12.9990572,17.4906451 13.0029183,17.4988092 13.0078825,17.506429 C13.0271878,17.5374524 13.0575247,17.560856 13.0889647,17.5793611 C13.1534995,17.6169158 13.2279627,17.6337881 13.3024259,17.637598 C14.7685238,17.6805954 19.5258957,17.6370538 19.5258957,17.6370538 C19.6119421,17.6310668 19.7001948,17.6060304 19.7680391,17.5510591 C19.7906538,17.5325539 19.823197,17.4737728 19.823197,17.4737728 L19.8220938,7.82713085 C19.8220938,7.82713085 19.785138,7.76834968 19.7592138,7.74930023 C19.6897148,7.69759458 19.5165189,7.67146962 19.5165189,7.67146962 L13.3266954,7.67092535 C13.3266954,7.67092535 13.1419163,7.69324042 13.0674531,7.74603461 C13.0393225,7.76562833 13.0067794,7.79284184 12.9974025,7.82713085 C12.9962993,7.83039647 12.9962993,7.83366209 12.9957478,7.83692771 L12.9957478,7.83692771 Z M2.29069569,17.6370538 L12.1198398,17.6414079 L12.1137724,16.7765629 L1.87645959,16.7765629 L1.87701117,17.2304841 C1.87811433,17.2489892 1.88032065,17.2669502 1.88363012,17.2854553 C1.89080065,17.3235542 1.90238382,17.3605646 1.91948278,17.3953979 C1.96691861,17.4922779 2.05131025,17.56902 2.15280085,17.6082075 C2.1969272,17.6256241 2.29069569,17.6370538 2.29069569,17.6370538 L2.29069569,17.6370538 Z M12.0856418,13.2747295 L12.1198398,7.80862567 C12.1198398,7.80862567 12.1380419,7.63663634 12.1661724,7.55390729 C12.1865809,7.49240478 12.2141598,7.43307935 12.2472546,7.37647527 C12.39232,7.13046522 12.6410822,6.95575454 12.9146656,6.87139268 C13.038771,6.83329378 13.1667374,6.81424433 13.2958069,6.81043444 L19.5231378,6.81043444 C19.5231378,6.81043444 19.7818285,6.83274951 19.9064855,6.87139268 C20.1723467,6.95303319 20.4144901,7.11957982 20.560107,7.35579301 C20.5992691,7.41838406 20.6312608,7.48587354 20.6544271,7.55608437 C20.6814545,7.63826915 20.699105,7.80916994 20.699105,7.80916994 L20.699105,17.500442 C20.699105,17.500442 20.6809029,17.6724313 20.6527723,17.7551604 C20.6323639,17.8166629 20.6047849,17.8759883 20.5716902,17.9325924 C20.4271764,18.1786024 20.1778625,18.3533131 19.9037276,18.437675 C19.7801738,18.4757739 19.6522074,18.4948233 19.5231378,18.4986332 L18.9836932,18.4986332 L18.4602444,18.5051645 C13.0536636,18.5682998 7.66638806,18.5650342 2.28021568,18.4986332 C2.13735663,18.4931905 1.99725547,18.4692426 1.86267011,18.4213469 C1.51241722,18.2956205 1.22725069,18.0229412 1.09101059,17.6822282 C1.0347495,17.540718 1.00606737,17.3921323 1.00055158,17.2408252 L1,17.2103461 L1,16.3465895 L1,16.345501 C1,16.3346156 1.00055158,16.3231859 1.00165474,16.3117563 L1.00330948,16.2943396 C1.00496421,16.2785558 1.00827369,16.262772 1.01158317,16.2475324 C1.01213475,16.2458996 1.01213475,16.244811 1.01268633,16.2431782 C1.01765054,16.2230402 1.02426949,16.2029023 1.03254318,16.1833085 L1.03916213,16.1691575 L1.04633267,16.1533737 C1.04743582,16.1511966 1.04909056,16.1484753 1.05019372,16.1462982 C1.05736425,16.1332357 1.06453478,16.1207175 1.07280847,16.1081993 L1.07336005,16.107655 L2.58523906,13.8794135 C2.60785381,13.8483901 2.63102015,13.8173667 2.6563928,13.7885204 C2.73582022,13.6965388 2.83014029,13.6181639 2.93273405,13.5523072 C2.89302034,13.4864506 2.859374,13.416784 2.83289819,13.3443961 C2.78325605,13.2121385 2.75347076,12.9329279 2.75347076,12.9329279 L2.75347076,4.25998511 C2.75347076,4.25998511 2.78325605,3.98186312 2.83234661,3.84906124 C2.96417408,3.49474145 3.25430482,3.20845542 3.61503771,3.07837488 C3.74962307,3.02993485 4.03423802,3 4.03423802,3 L17.2489762,3 C17.2489762,3 17.5330395,3.02993485 17.6676249,3.07837488 C18.0283578,3.20845542 18.3190401,3.49474145 18.450316,3.84906124 C18.4999581,3.98131885 18.5297434,4.25998511 18.5297434,4.25998511 L18.5297434,6.81043444 L17.7018228,6.81043444 L17.6532838,4.27087051 C17.6532838,4.27087051 17.6405975,4.1783446 17.6234985,4.13425873 C17.5793722,4.02377192 17.48781,3.93396736 17.3758394,3.89042576 C17.3317131,3.87355339 17.2384962,3.86103518 17.2384962,3.86103518 L4.07064226,3.86049091 C4.07064226,3.86049091 3.96639376,3.86919923 3.91675162,3.88661587 C3.79650732,3.93015747 3.69998093,4.025949 3.65585458,4.14405559 C3.63985878,4.18814146 3.62993035,4.28175591 3.62993035,4.28175591 L3.62993035,12.9225868 C3.62993035,12.9225868 3.64261668,13.0151127 3.65971564,13.0591986 C3.70439357,13.1691411 3.79540416,13.2589457 3.90737477,13.3030316 C3.93385058,13.3128284 3.98845693,13.3253466 3.98845693,13.3253466 L12.0856418,13.2747295 L12.0856418,13.2747295 Z"></path><path d="M16.7951233 13.9371673C16.845317 13.9393444 16.8949591 13.9431543 16.9446013 13.9502298 17.0692582 13.9692792 17.1906057 14.0079224 17.3031278 14.0650708 17.5314817 14.180456 17.7184671 14.3693177 17.8298861 14.5973668 17.8806314 14.7013224 17.9153809 14.8123535 17.9330315 14.9261059 17.9512336 15.0436683 17.9512336 15.1634077 17.9330315 15.2804257 17.9153809 15.3941782 17.8806314 15.5057535 17.8298861 15.6091648 17.7681092 15.7359797 17.683166 15.8508207 17.5805723 15.9477008 17.4774269 16.0445808 17.3560795 16.1229557 17.2248036 16.177927 17.0797382 16.238341 16.9225381 16.2699086 16.7647864 16.2699086 16.6070347 16.2699086 16.4498346 16.238341 16.3047692 16.177927 16.1734933 16.1229557 16.0526975 16.0445808 15.9495521 15.9477008 15.8464068 15.8508207 15.7614636 15.7359797 15.6996867 15.6091648 15.6489414 15.5057535 15.6141919 15.3941782 15.5965413 15.2804257 15.5783392 15.1634077 15.5783392 15.0436683 15.5965413 14.9261059 15.6141919 14.8123535 15.6489414 14.7013224 15.6996867 14.5973668 15.8111057 14.3693177 15.9980911 14.180456 16.2264449 14.0650708 16.3389671 14.0079224 16.4603146 13.9692792 16.5855231 13.9502298 16.6346137 13.9431543 16.6842558 13.9393444 16.7344495 13.9371673L16.7951233 13.9371673 16.7951233 13.9371673zM16.7543064 14.7149292C16.695839 14.7171063 16.6384747 14.7301687 16.5855231 14.756838 16.4862388 14.8074551 16.411224 14.8988924 16.3830935 15.0061136 16.3709587 15.0540094 16.3676493 15.1040822 16.3742682 15.1536108 16.3792324 15.1911654 16.3897124 15.2281758 16.4057082 15.2630091 16.4250135 15.3060064 16.4525925 15.3451939 16.4862388 15.3783943 16.5198852 15.4115948 16.5595989 15.4388083 16.6031736 15.4578578 16.6506095 15.4790843 16.7024579 15.490514 16.7543064 15.4921468 16.807258 15.4932353 16.8602096 15.484527 16.9093002 15.4654775 16.9534265 15.4480609 16.9942434 15.4230245 17.0295445 15.3914568 17.0648456 15.3598891 17.0940793 15.3217902 17.1161424 15.2798815 17.1332414 15.2461367 17.1459277 15.2102149 17.1525467 15.1726603 17.161372 15.123676 17.1608204 15.0730588 17.1508919 15.0246188 17.1282772 14.9163091 17.057675 14.8210618 16.9605971 14.7660906 16.9098518 14.7372442 16.8535907 14.7209161 16.7956748 14.7160177 16.7818854 14.7149292 16.7680959 14.7143849 16.7543064 14.7149292L16.7543064 14.7149292zM17.5689928 9.08395991C17.6263571 9.08722553 17.6826182 9.10028801 17.7339151 9.12641297 17.7807993 9.14981658 17.8221678 9.18192851 17.8558141 9.22057168 17.8855994 9.25540496 17.9093173 9.29568095 17.9247615 9.33867828 17.9721973 9.46930308 17.9413089 9.61843307 17.8453341 9.72075583 17.8172035 9.75123496 17.7841088 9.77681565 17.7477045 9.79640937 17.6925466 9.82688849 17.6318729 9.84267232 17.5689928 9.84593794 17.0328577 9.85627907 16.4967226 9.85627907 15.961139 9.84593794 15.9032232 9.84267232 15.8475137 9.82960984 15.7956652 9.80402915 15.7493325 9.78062554 15.7074125 9.74851361 15.6743178 9.70932616 15.6439809 9.67449288 15.620263 9.63476117 15.6048188 9.59176384 15.5573829 9.46113903 15.5882714 9.31200905 15.6842462 9.20914201 15.7123767 9.17920716 15.7454715 9.15362647 15.7818757 9.13348848 15.8370337 9.10300936 15.8977074 9.0877698 15.961139 9.08395991 16.4967226 9.07361878 17.0328577 9.07361878 17.5689928 9.08395991L17.5689928 9.08395991z"></path></g></svg>