<svg viewBox="0 0 22 22" version="1.1" xmlns="http://www.w3.org/2000/svg" xmlns:xlink="http://www.w3.org/1999/xlink"><g fill-rule="evenodd"><g><path d="M4,13.0020869 C4,13.5508003 4.44910824,14 5.00010618,14 L17.9998938,14 C18.5556112,14 19,13.555266 19,13.0020869 L19,10 L4,10 L4,13.0020869 Z M4.00817993,9 L4.00685643,9.00567835 L19.0064077,9.00558328 L19.0049806,9 L20,9 L20,13.0020869 C20,14.1055038 19.1099416,15 17.9998938,15 L12,15 L12,17 L19.5095568,17 C19.7804211,17 20,17.2319336 20,17.5 C20,17.7761424 19.7850572,18 19.5095568,18 L3.49044323,18 C3.21957891,18 3,17.7680664 3,17.5 C3,17.2238576 3.21494281,17 3.49044323,17 L11,17 L11,15 L5.00010618,15 C3.89547804,15 3,14.1017394 3,13.0020869 L3,9 L4.00817993,9 Z M19.0048917,8.99965225 L17.5168994,3.17852244 C17.3651101,2.56082014 16.6558117,2.0075046 16.0119898,2.00899063 L6.83115086,2.03018118 C6.18413673,2.03167457 5.50108126,2.57865153 5.35928365,3.2032252 L4.00951104,8.994289 L3.01916504,8.99393479 L4.38409988,2.98182821 C4.62822874,1.90651773 5.71179705,1.03276213 6.82884273,1.03018384 L16.0096817,1.00899329 C17.115747,1.00644035 18.2263965,1.87526395 18.4880092,2.93988958 L19.9771729,9 L19.0048917,8.99965225 Z" fill-rule="nonzero"></path><rect x="3" y="20" width="17" height="1" rx="0.5"></rect><circle cx="6" cy="12" r="1"></circle><circle cx="9" cy="12" r="1"></circle><circle cx="16" cy="12" r="1"></circle></g></g></svg>