<svg xmlns="http://www.w3.org/2000/svg" viewBox="0 0 22 22"><g fill-rule="evenodd"><path d="M2,2.99079514 L2,19.0092049 C2,19.5524218 2.44650875,20 2.99079514,20 L19.0092049,20 C19.5524218,20 20,19.5534913 20,19.0092049 L20,2.99079514 C20,2.4475782 19.5534913,2 19.0092049,2 L2.99079514,2 C2.4475782,2 2,2.44650875 2,2.99079514 Z M1,2.99079514 C1,1.89130934 1.89821238,1 2.99079514,1 L19.0092049,1 C20.1086907,1 21,1.89821238 21,2.99079514 L21,19.0092049 C21,20.1086907 20.1017876,21 19.0092049,21 L2.99079514,21 C1.89130934,21 1,20.1017876 1,19.0092049 L1,2.99079514 Z"></path><path d="M6.5 9.5C8.15685425 9.5 9.5 8.15685425 9.5 6.5 9.5 4.84314575 8.15685425 3.5 6.5 3.5 4.84314575 3.5 3.5 4.84314575 3.5 6.5 3.5 8.15685425 4.84314575 9.5 6.5 9.5zM6.5 8.5C5.3954305 8.5 4.5 7.6045695 4.5 6.5 4.5 5.3954305 5.3954305 4.5 6.5 4.5 7.6045695 4.5 8.5 5.3954305 8.5 6.5 8.5 7.6045695 7.6045695 8.5 6.5 8.5zM6.5 18.5C8.15685425 18.5 9.5 17.1568542 9.5 15.5 9.5 13.8431458 8.15685425 12.5 6.5 12.5 4.84314575 12.5 3.5 13.8431458 3.5 15.5 3.5 17.1568542 4.84314575 18.5 6.5 18.5zM6.5 17.5C5.3954305 17.5 4.5 16.6045695 4.5 15.5 4.5 14.3954305 5.3954305 13.5 6.5 13.5 7.6045695 13.5 8.5 14.3954305 8.5 15.5 8.5 16.6045695 7.6045695 17.5 6.5 17.5zM15 18.5C16.9329966 18.5 18.5 16.9329966 18.5 15 18.5 13.0670034 16.9329966 11.5 15 11.5 13.0670034 11.5 11.5 13.0670034 11.5 15 11.5 16.9329966 13.0670034 18.5 15 18.5zM15 17.5C13.6192881 17.5 12.5 16.3807119 12.5 15 12.5 13.6192881 13.6192881 12.5 15 12.5 16.3807119 12.5 17.5 13.6192881 17.5 15 17.5 16.3807119 16.3807119 17.5 15 17.5zM15.5 8.5C16.6045695 8.5 17.5 7.6045695 17.5 6.5 17.5 5.3954305 16.6045695 4.5 15.5 4.5 14.3954305 4.5 13.5 5.3954305 13.5 6.5 13.5 7.6045695 14.3954305 8.5 15.5 8.5zM15.5 7.5C14.9477153 7.5 14.5 7.05228475 14.5 6.5 14.5 5.94771525 14.9477153 5.5 15.5 5.5 16.0522847 5.5 16.5 5.94771525 16.5 6.5 16.5 7.05228475 16.0522847 7.5 15.5 7.5z"></path></g></svg>