<svg viewBox="0 0 21 18" version="1.1" xmlns="http://www.w3.org/2000/svg" xmlns:xlink="http://www.w3.org/1999/xlink"><g fill-rule="evenodd"><path d="M18.511783,0 L8.3077014,0 C7.29492589,0 6.47096671,0.80748 6.47096671,1.8 L6.47096671,2 L5.45055854,2 C4.65235446,2 3.97141569,2.50156 3.71872181,3.2 L0.960762626,3.2 C0.622640177,3.2 0.348517728,3.46864 0.348517728,3.8 C0.348517728,4.13136 0.622640177,4.4 0.960762626,4.4 L3.71872181,4.4 C3.97141569,5.09844 4.65235446,5.6 5.45055854,5.6 L6.47096671,5.6 L6.47096671,5.8 C6.47096671,6.79252 7.29492589,7.6 8.3077014,7.6 L10.1444361,7.6 L10.1444361,8.2 C10.1444361,9.19252 10.9683953,10 11.9811708,10 L12.5934157,10 L12.5934157,10.6 C12.5934157,11.26168 13.1427218,11.8 13.8179055,11.8 L13.8179055,13.21104 C12.9008443,13.31088 12.1852524,14.07508 12.1852524,15 L12.1852524,16.2 C12.1852524,17.19252 13.0092116,18 14.0219871,18 L17.2872932,18 C18.3000687,18 19.1240279,17.19252 19.1240279,16.2 L19.1240279,7.4972 C19.8367218,7.24956 20.3485177,6.58224 20.3485177,5.8 L20.3485177,1.8 C20.3485177,0.80748 19.5245585,0 18.511783,0 Z M6.47096671,4.4 L5.45055854,4.4 C5.11296671,4.4 4.83831365,4.13084 4.83831365,3.8 C4.83831365,3.46916 5.11296671,3.2 5.45055854,3.2 L6.47096671,3.2 L6.47096671,4.4 Z M12.5934157,8.8 L11.9811708,8.8 C11.643579,8.8 11.3689259,8.53084 11.3689259,8.2 L11.3689259,7.6 L12.5934157,7.6 L12.5934157,8.8 Z M17.8995381,16.2 C17.8995381,16.53084 17.6248851,16.8 17.2872932,16.8 L14.0219871,16.8 C13.6843953,16.8 13.4097422,16.53084 13.4097422,16.2 L13.4097422,15 C13.4097422,14.66916 13.6843953,14.4 14.0219871,14.4 L14.4301504,14.4 C14.7682728,14.4 15.0423953,14.13136 15.0423953,13.8 L15.0423953,11.8 C15.0423953,11.13832 14.4930892,10.6 13.8179055,10.6 L13.8179055,7.6 L17.8995381,7.6 L17.8995381,16.2 Z M19.1240279,5.8 C19.1240279,6.13084 18.8493749,6.4 18.511783,6.4 L13.2056606,6.4 L8.3077014,6.4 C7.97010957,6.4 7.6954565,6.13084 7.6954565,5.8 L7.6954565,1.8 C7.6954565,1.46916 7.97010957,1.2 8.3077014,1.2 L18.511783,1.2 C18.8493749,1.2 19.1240279,1.46916 19.1240279,1.8 L19.1240279,5.8 Z M17.8995381,3 C17.8995381,3.33136 17.6254157,3.6 17.2872932,3.6 L14.4301504,3.6 C14.0920279,3.6 13.8179055,3.33136 13.8179055,3 C13.8179055,2.66864 14.0920279,2.4 14.4301504,2.4 L17.2872932,2.4 C17.6254157,2.4 17.8995381,2.66864 17.8995381,3 Z M15.2464769,9.4 C15.2464769,9.06864 15.5205994,8.8 15.8587218,8.8 L16.0628034,8.8 C16.4009259,8.8 16.6750483,9.06864 16.6750483,9.4 C16.6750483,9.73136 16.4009259,10 16.0628034,10 L15.8587218,10 C15.5205994,10 15.2464769,9.73136 15.2464769,9.4 Z" transform="translate(10.348518, 9.000000) scale(-1, 1) translate(-10.348518, -9.000000) "></path></g></svg>