<svg xmlns="http://www.w3.org/2000/svg" viewBox="0 0 22 22"><g fill-rule="evenodd"><path d="M4,5.00276013 L4,13.9972399 C4,14.5537106 4.44505952,15 4.99508929,15 L19.0049107,15 C19.5539738,15 20,14.5521644 20,13.9972399 L20,5.00276013 C20,4.44628939 19.5549405,4 19.0049107,4 L4.99508929,4 C4.4460262,4 4,4.44783555 4,5.00276013 Z M3,5.00276013 C3,3.89666625 3.8926228,3 4.99508929,3 L19.0049107,3 C20.1067681,3 21,3.89354265 21,5.00276013 L21,13.9972399 C21,15.1033337 20.1073772,16 19.0049107,16 L4.99508929,16 C3.8932319,16 3,15.1064574 3,13.9972399 L3,5.00276013 Z"></path><rect width="18" height="1" x="3" y="13"></rect><path d="M1,6.99850233 C1,6.44704472 1.45097518,6 1.99077797,6 L6.00922203,6 C6.55641359,6 7,6.44748943 7,6.99850233 L7,18.0014977 C7,18.5529553 6.54902482,19 6.00922203,19 L1.99077797,19 C1.44358641,19 1,18.5525106 1,18.0014977 L1,6.99850233 Z"></path><path fill="#FFFFFF" d="M2,18 L6.00922203,18 C5.9999002,18.0002607 6,7 6,7 L1.99077797,7 C2.0000998,6.99973931 2,18 2,18 Z"></path><rect width="8" height="1" x="8" y="18" rx=".5"></rect><circle cx="4" cy="10" r="1"></circle><rect width="1" height="4" x="10" y="15" transform="rotate(15 10.5 17)" rx=".5"></rect><rect width="1" height="4" x="13" y="15" transform="rotate(-15 13.5 17)" rx=".5"></rect></g></svg>