<svg xmlns="http://www.w3.org/2000/svg" viewBox="0 0 22 22"><g fill-rule="evenodd"><path d="M6,7.0085302 L6,14.9914698 C6,15.5469054 6.45267418,16 7.0085302,16 L14.9914698,16 C15.5469054,16 16,15.5473258 16,14.9914698 L16,7.0085302 C16,6.45309463 15.5473258,6 14.9914698,6 L7.0085302,6 C6.45309463,6 6,6.45267418 6,7.0085302 Z M5,7.0085302 C5,5.8992496 5.90195036,5 7.0085302,5 L14.9914698,5 C16.1007504,5 17,5.90195036 17,7.0085302 L17,14.9914698 C17,16.1007504 16.0980496,17 14.9914698,17 L7.0085302,17 C5.8992496,17 5,16.0980496 5,14.9914698 L5,7.0085302 Z"></path><circle cx="9" cy="9" r="1"></circle><circle cx="13" cy="13" r="1"></circle><rect width="2" height="2" x="7" y="2" rx="1"></rect><rect width="2" height="2" x="10" y="2" rx="1"></rect><rect width="2" height="2" x="13" y="2" rx="1"></rect><rect width="2" height="2" x="7" y="18" rx="1"></rect><rect width="2" height="2" x="10" y="18" rx="1"></rect><rect width="2" height="2" x="13" y="18" rx="1"></rect><rect width="2" height="2" x="2" y="7" rx="1"></rect><rect width="2" height="2" x="18" y="7" rx="1"></rect><rect width="2" height="2" x="2" y="10" rx="1"></rect><rect width="2" height="2" x="18" y="10" rx="1"></rect><rect width="2" height="2" x="2" y="13" rx="1"></rect><rect width="2" height="2" x="18" y="13" rx="1"></rect></g></svg>