<svg xmlns="http://www.w3.org/2000/svg" viewBox="0 0 22 22"><g fill-rule="evenodd"><path d="M2,15.5 C2,17.9817528 4.01358031,20 6.49154159,20 L15.5084584,20 C17.9863635,20 20,17.9842172 20,15.5 C20,13.0182472 17.9864197,11 15.5084584,11 L6.49154159,11 C4.01363646,11 2,13.0157828 2,15.5 Z M1,15.5 C1,12.4624339 3.4624142,10 6.49154159,10 L15.5084584,10 C18.5413531,10 21,12.4686147 21,15.5 C21,18.5375661 18.5375858,21 15.5084584,21 L6.49154159,21 C3.45864692,21 1,18.5313853 1,15.5 Z"></path><path d="M10.885 6.00357143C9.78555556 6.0394 8.68444444 5.99162857 7.58444444 6.00465714 7.45388889 6.00954286 7.32666667 6.03722857 7.20833333 6.09151429 7.10166667 6.14091429 7.005 6.20985714 6.925 6.294 6.85 6.37325714 6.79 6.465 6.74888889 6.56434286 6.71277778 6.65282857 6.69166667 6.74728571 6.68666667 6.84228571 6.68111111 6.93945714 6.69277778 7.03717143 6.72 7.13054286 6.79388889 7.37862857 6.98333333 7.58762857 7.22888889 7.69402857 7.34111111 7.74288571 7.46166667 7.76731429 7.58444444 7.77165714 8.22833333 7.77925714 8.87166667 7.7646 9.51555556 7.77274286 9.57833333 7.77491429 9.64055556 7.77871429 9.70277778 7.78631429 9.85444444 7.80422857 10.0038889 7.84114286 10.1461111 7.89434286 10.6333333 8.07837143 11.0238889 8.46162857 11.2033333 8.93228571 11.2722222 9.11305714 11.3072222 9.30197143 11.3144444 9.49414286 11.3205556 9.95122857 11.315 10.4083143 11.315 10.8648571 11.3127778 10.9365143 10.3961111 10.9218571 10.3927778 10.8952571 10.3766667 10.436 10.3977778 9.97565714 10.3916667 9.5164 10.3877778 9.42031429 10.3705556 9.32585714 10.3361111 9.2352 10.2466667 9.00014286 10.0511111 8.80851429 9.80777778 8.71677143 9.70666667 8.67877143 9.60055556 8.65977143 9.49222222 8.65597143 8.84833333 8.64837143 8.20444444 8.66302857 7.56111111 8.65542857 7.48277778 8.65217143 7.405 8.64674286 7.32777778 8.63534286 7.16222222 8.61145714 7.00055556 8.56531429 6.84833333 8.49962857 6.56444444 8.3764 6.31555556 8.18477143 6.12888889 7.94591429 5.99444444 7.77382857 5.89333333 7.5784 5.83222222 7.37157143 5.77666667 7.18537143 5.75388889 6.99102857 5.76444444 6.79777143 5.77444444 6.60668571 5.81666667 6.41777143 5.89 6.24025714 5.97222222 6.04157143 6.09166667 5.85754286 6.24166667 5.69957143 6.40111111 5.53182857 6.59444444 5.3934 6.80777778 5.29514286 6.97166667 5.21968571 7.14777778 5.16757143 7.32777778 5.14097143 7.405 5.12957143 7.48277778 5.12414286 7.56111111 5.12142857 8.22145522 5.11331443 10.2240969 5.10532531 10.9873657 5.09063721 11.5328979 5.08013916 11.8157883 4.56402408 11.9161111 4.20454286 11.9447121 4.10205867 11.9561111 3.995 11.9511111 3.8886 11.9466667 3.79957143 11.93 3.71162857 11.9022222 3.62748571 11.8655556 3.51674286 11.8083333 3.41251429 11.735 3.3224 11.6022222 3.159 11.4183333 3.04174286 11.2155556 2.99397143 11.1688889 2.98311429 11.1211111 2.97551429 11.0733333 2.97225714 11.0394444 2.96954286 11.005 2.96954286 10.9705556 2.96845714 10.9477778 2.96628571 10.9477778 2.96628571 10.925 2.96302857 10.8561111 2.95054286 10.7916667 2.92611429 10.7338889 2.88648571 10.6827778 2.85174286 10.6388889 2.80668571 10.6044444 2.75457143 10.5744444 2.70951429 10.5522222 2.65902857 10.5388889 2.60582857 10.4894444 2.41311429 10.565 2.20357143 10.7244444 2.08848571 10.7944444 2.03854286 10.875 2.01085714 10.9594444 2.00162857 10.9894444 1.99945714 11.0188889 2 11.0483333 2.00054286 11.1294444 2.00325714 11.2094444 2.00977143 11.2894444 2.02225714 11.475 2.05102857 11.6566667 2.10802857 11.8261111 2.19108571 12.0461111 2.29911429 12.2455556 2.45057143 12.41 2.6346 12.5644444 2.80831429 12.6883333 3.00971429 12.7722222 3.2274 12.8538889 3.43802857 12.8983333 3.66277143 12.9038889 3.8886 12.9088889 4.08457143 12.885 4.28108571 12.8322222 4.46891429 12.7777778 4.66597143 12.6780686 4.84051583 12.5788889 5.02317143 12.0690308 5.9621582 10.9166667 6.00031429 10.885 6.00357143zM15.5 18.5C17.1568542 18.5 18.5 17.1568542 18.5 15.5 18.5 13.8431458 17.1568542 12.5 15.5 12.5 13.8431458 12.5 12.5 13.8431458 12.5 15.5 12.5 17.1568542 13.8431458 18.5 15.5 18.5zM15.5 17.5C14.3954305 17.5 13.5 16.6045695 13.5 15.5 13.5 14.3954305 14.3954305 13.5 15.5 13.5 16.6045695 13.5 17.5 14.3954305 17.5 15.5 17.5 16.6045695 16.6045695 17.5 15.5 17.5zM5 13.5016756C5 12.6723231 5.66579723 12 6.5 12 7.32842712 12 8 12.6711894 8 13.5016756L8 17.4983244C8 18.3276769 7.33420277 19 6.5 19 5.67157288 19 5 18.3288106 5 17.4983244L5 13.5016756z"></path><path d="M3,15.5 C3,14.6715729 3.67118943,14 4.50167562,14 L8.49832438,14 C9.32767692,14 10,14.6657972 10,15.5 C10,16.3284271 9.32881057,17 8.49832438,17 L4.50167562,17 C3.67232308,17 3,16.3342028 3,15.5 Z"></path><path fill="#FFFFFF" d="M6,13.5016756 L6,17.4983244 C6,17.7762674 6.22359954,18 6.5,18 C6.7790754,18 7,17.7782388 7,17.4983244 L7,13.5016756 C7,13.2237326 6.77640046,13 6.5,13 C6.2209246,13 6,13.2217612 6,13.5016756 Z"></path><path fill="#FFFFFF" d="M4,15.5 C4,15.7790754 4.2217612,16 4.50167562,16 L8.49832438,16 C8.77626741,16 9,15.7764005 9,15.5 C9,15.2209246 8.7782388,15 8.49832438,15 L4.50167562,15 C4.22373259,15 4,15.2235995 4,15.5 Z"></path></g></svg>