<svg xmlns="http://www.w3.org/2000/svg" viewBox="0 0 22 22"><g fill-rule="evenodd"><path d="M2,5.99188419 L2,17.0081158 C2,17.5551171 2.444393,18 2.99079514,18 L19.0092049,18 C19.5522997,18 20,17.5531251 20,17.0081158 L20,5.99188419 C20,5.44488287 19.555607,5 19.0092049,5 L2.99079514,5 C2.44770034,5 2,5.44687492 2,5.99188419 Z M1,5.99188419 C1,4.89179693 1.89821238,4 2.99079514,4 L19.0092049,4 C20.1086907,4 21,4.89339733 21,5.99188419 L21,17.0081158 C21,18.1082031 20.1017876,19 19.0092049,19 L2.99079514,19 C1.89130934,19 1,18.1066027 1,17.0081158 L1,5.99188419 Z"></path><rect width="4" height="2" x="4" y="3" rx="1"></rect><path d="M13.5,16.5 C16.2614237,16.5 18.5,14.2614237 18.5,11.5 C18.5,8.73857625 16.2614237,6.5 13.5,6.5 C10.7385763,6.5 8.5,8.73857625 8.5,11.5 C8.5,14.2614237 10.7385763,16.5 13.5,16.5 Z M13.5,15.5 C11.290861,15.5 9.5,13.709139 9.5,11.5 C9.5,9.290861 11.290861,7.5 13.5,7.5 C15.709139,7.5 17.5,9.290861 17.5,11.5 C17.5,13.709139 15.709139,15.5 13.5,15.5 Z"></path><path d="M13.1838889,8.71428571 C13.2688889,8.71828571 13.3505556,8.73942857 13.4255556,8.78171429 C13.4683333,8.80628571 13.5077778,8.83714286 13.5427778,8.87257143 C13.6738889,9.00628571 13.7277778,9.20628571 13.6827778,9.39085714 C13.6672222,9.45371429 13.6411111,9.51371429 13.605,9.56742857 C13.525,9.68685714 13.3988889,9.76971429 13.26,9.79485714 C13.2027778,9.80457143 13.145,9.80228571 13.0872222,9.80457143 C13.0466667,9.80742857 13.0472222,9.80742857 13.0066667,9.81142857 C12.85,9.82971429 12.6972222,9.86742857 12.5516667,9.93085714 C12.15,10.1057143 11.8283333,10.4525714 11.6783333,10.8742857 C11.6333333,11.0011429 11.6033333,11.1337143 11.5905556,11.268 C11.5833333,11.3405714 11.585,11.4131429 11.58,11.4857143 C11.5772222,11.5074286 11.5744444,11.5285714 11.57,11.5497143 C11.5522222,11.6274286 11.5216667,11.7005714 11.4744444,11.7645714 C11.3627778,11.916 11.1772222,11.9977143 10.9938889,11.976 C10.945,11.9708571 10.8966667,11.9577143 10.8516667,11.9388571 C10.7933333,11.9142857 10.7388889,11.8782857 10.6927778,11.8342857 C10.6411111,11.7851429 10.5994444,11.7257143 10.5705556,11.6594286 C10.5383333,11.5862857 10.5244444,11.5085714 10.5238889,11.4285714 C10.5244444,11.3622857 10.5244444,11.3622857 10.5272222,11.296 C10.5327778,11.204 10.5405556,11.1125714 10.5544444,11.0217143 C10.5838889,10.8217143 10.6355556,10.6257143 10.7072222,10.4377143 C10.8477778,10.0708571 11.0666667,9.73771429 11.3438889,9.46571429 C11.5905556,9.224 11.8822222,9.03142857 12.1994444,8.90285714 C12.3822222,8.82914286 12.5727778,8.776 12.7672222,8.74571429 C12.8555556,8.73142857 12.9444444,8.72342857 13.0338889,8.71771429 C13.0838889,8.71542857 13.1338889,8.71371429 13.1838889,8.71428571 L13.1838889,8.71428571 Z"></path><rect width="4" height="1" x="4" y="6" rx=".5"></rect></g></svg>