<?xml version="1.0" encoding="UTF-8"?>
<svg width="123px" height="17px" viewBox="0 0 123 17" version="1.1" xmlns="http://www.w3.org/2000/svg" xmlns:xlink="http://www.w3.org/1999/xlink">
    <!-- Generator: Sketch 52 (66869) - http://www.bohemiancoding.com/sketch -->
    <title>service</title>
    <desc>Created with Sketch.</desc>
    <g id="Page-1" stroke="none" stroke-width="1" fill="none" fill-rule="evenodd">
        <g id="Artboard" transform="translate(-449.000000, -79.000000)">
            <g id="service" transform="translate(449.000000, 79.000000)">
                <path d="M39.9563788,0.0185389949 L43.9520167,0.0185389949 L43.9520167,14.8659661 C43.9520167,15.7286607 43.452562,16.5005453 42.7260824,16.8183801 C42.4990575,16.90919 42.2266276,17 41.9541978,17 C41.4093381,17 40.9098833,16.7729751 40.5466435,16.3643303 L27.1521756,6.2390207 L27.1521756,17 L23.1565377,17 L23.1565377,2.10716789 C23.1565377,1.24447335 23.6559925,0.472588754 24.3824721,0.154753923 C25.1543567,-0.163080909 26.0170512,0.0185389949 26.5619109,0.608803682 L39.9563788,10.7341133 L39.9563788,0.0185389949 Z M64.8837106,7.96440979 C64.4296609,7.46495505 63.8848012,7.10171524 63.2945365,6.82928539 C62.6588668,6.55685553 62.0231971,6.4206406 61.3421225,6.4206406 L50.6265482,6.4206406 C50.0362835,6.4206406 49.5822337,5.92118587 49.5822337,5.33092118 C49.5822337,4.74065649 50.0362835,4.24120176 50.6265482,4.24120176 L63.3399414,4.24120176 C64.4296609,4.24120176 65.3377604,3.28769726 65.3377604,2.15257286 C65.3377604,0.97204349 64.4296609,0.0639439708 63.3399414,0.0639439708 L50.6265482,0.0639439708 C49.9454735,0.0639439708 49.2643989,0.200158899 48.6741342,0.472588754 C48.0838695,0.74501861 47.5390098,1.10825842 47.0849601,1.60771315 C46.6309103,2.10716789 46.2676705,2.6520276 45.9952406,3.28769726 C45.7228108,3.92336693 45.5865959,4.64984654 45.5865959,5.33092118 C45.5865959,6.0574008 45.7228108,6.73847544 45.9952406,7.3741451 C46.2676705,8.00981476 46.6309103,8.55467447 47.0849601,9.05412921 C47.5390098,9.55358394 48.0838695,9.91682375 48.6741342,10.1892536 C49.3098039,10.4616835 49.9454735,10.5978984 50.6265482,10.5978984 L61.3421225,10.5978984 C61.9323872,10.5978984 62.386437,11.0973531 62.386437,11.6876178 C62.386437,12.2778825 61.9323872,12.7773372 61.3421225,12.7773372 L47.5844148,12.7773372 C46.4946954,12.7773372 45.5865959,13.7308417 45.5865959,14.8659661 C45.5865959,16.0464955 46.4946954,16.954595 47.5844148,16.954595 L61.3421225,16.954595 C62.0231971,16.954595 62.7042718,16.8183801 63.2945365,16.5459502 C63.8848012,16.2735204 64.4296609,15.9102806 64.8837106,15.4108258 C65.3377604,14.9113711 65.7010002,14.3665114 65.9734301,13.7308417 C66.2458599,13.0951721 66.3820748,12.3686925 66.3820748,11.6876178 C66.3820748,11.0065432 66.2458599,10.2800636 65.9734301,9.6443939 C65.7010002,9.00872423 65.3377604,8.41845955 64.8837106,7.96440979 Z M20.840884,8.5092695 C20.840884,13.185982 17.2084859,17 12.7587982,17 L3.31456324,17 L1.49836421,17 L-4.97379915e-14,17 L-4.97379915e-14,8.5092695 L-4.97379915e-14,0.0185389949 L12.7133933,0.0185389949 C17.2084859,0.0185389949 20.840884,3.83255697 20.840884,8.5092695 Z M16.981461,8.87250931 C16.981461,7.73738491 16.7090311,6.10280577 15.9371466,5.28551621 C15.165262,4.46822664 13.9393276,3.74174702 12.8042032,3.74174702 L3.85942296,3.74174702 L3.85942296,8.87250931 L3.85942296,13.0951721 L12.8042032,13.0951721 C13.9393276,13.0951721 14.9836421,12.6411223 15.7555267,11.8692377 C16.5274112,11.0973531 16.981461,10.0076337 16.981461,8.87250931 Z" id="SVGID_1_-Copy" fill="#F28A1E"></path>
                <rect id="Rectangle" fill="#3266CF" fill-rule="nonzero" x="71" y="0" width="52" height="17" rx="3"></rect>
                <path d="M75.356,5.584 C76.136,4.732 77.12,4.312 78.332,4.312 C78.584,4.312 78.836,4.336 79.1,4.372 C79.424,4.42 79.7,4.492 79.952,4.588 C80.588,4.84 80.912,5.188 80.912,5.656 C80.912,5.884 80.84,6.064 80.708,6.22 C80.564,6.376 80.384,6.46 80.168,6.46 C80.06,6.46 79.952,6.436 79.82,6.4 L79.64,6.328 L79.448,6.244 C79.076,6.112 78.704,6.04 78.332,6.04 C77.624,6.04 77.06,6.316 76.652,6.856 C76.268,7.348 76.076,7.984 76.076,8.764 C76.076,9.52 76.268,10.132 76.652,10.624 C77.06,11.152 77.624,11.416 78.332,11.416 C78.704,11.416 79.088,11.332 79.484,11.164 C79.868,10.996 80.12,10.912 80.24,10.912 C80.48,10.912 80.684,11.008 80.84,11.212 C80.972,11.38 81.032,11.548 81.032,11.728 C81.032,12.232 80.696,12.616 80.012,12.868 C79.76,12.964 79.46,13.036 79.124,13.084 C78.848,13.12 78.584,13.144 78.332,13.144 C77.12,13.144 76.136,12.724 75.356,11.872 C74.588,11.032 74.204,9.988 74.204,8.728 C74.204,7.468 74.588,6.412 75.356,5.584 Z M82.572,12.1 L82.572,5.5 C82.572,4.804 82.884,4.456 83.508,4.456 L86.484,4.456 C86.76,4.456 86.976,4.54 87.132,4.708 C87.264,4.864 87.336,5.056 87.336,5.284 C87.336,5.512 87.264,5.692 87.12,5.848 C86.964,6.028 86.748,6.112 86.484,6.112 L84.372,6.112 L84.372,7.864 L86.34,7.864 C86.616,7.864 86.844,7.948 87,8.116 C87.144,8.272 87.216,8.464 87.216,8.692 C87.216,8.92 87.144,9.1 87,9.256 C86.832,9.436 86.616,9.52 86.34,9.52 L84.372,9.52 L84.372,11.344 L86.592,11.344 C86.868,11.344 87.084,11.428 87.24,11.596 C87.372,11.752 87.444,11.944 87.444,12.172 C87.444,12.4 87.372,12.58 87.228,12.736 C87.072,12.916 86.856,13 86.592,13 L83.496,13 C83.232,13 83.016,12.916 82.836,12.748 C82.656,12.58 82.572,12.364 82.572,12.1 Z M88.828,12.136 L88.828,5.392 C88.828,4.768 89.14,4.456 89.764,4.456 L91.888,4.456 C92.776,4.456 93.508,4.72 94.084,5.248 C94.672,5.788 94.96,6.472 94.96,7.324 C94.96,8.176 94.66,8.872 94.072,9.4 C93.508,9.916 92.812,10.168 91.96,10.168 L90.628,10.168 L90.628,12.136 C90.628,12.436 90.544,12.664 90.376,12.832 C90.208,12.988 89.992,13.072 89.728,13.072 C89.464,13.072 89.248,12.988 89.08,12.832 C88.912,12.664 88.828,12.436 88.828,12.136 Z M90.628,6.04 L90.628,8.584 L91.852,8.584 C92.224,8.584 92.524,8.464 92.752,8.212 C92.98,7.984 93.088,7.684 93.088,7.312 C93.088,6.94 92.98,6.64 92.752,6.4 C92.524,6.16 92.224,6.04 91.852,6.04 L90.628,6.04 Z M96.2,12.088 L96.2,5.356 C96.2,5.08 96.284,4.852 96.464,4.684 C96.644,4.528 96.872,4.456 97.148,4.456 L99.452,4.456 C100.088,4.456 100.628,4.648 101.048,5.032 C101.492,5.428 101.708,5.944 101.708,6.568 C101.708,7.396 101.336,7.984 100.592,8.332 L100.592,8.356 C101.108,8.428 101.54,8.656 101.888,9.04 C102.236,9.424 102.416,9.88 102.416,10.396 C102.416,11.224 102.164,11.872 101.648,12.328 C101.156,12.772 100.484,13 99.632,13 L97.16,13 C96.884,13 96.656,12.916 96.476,12.76 C96.296,12.592 96.2,12.364 96.2,12.088 Z M98,6.04 L98,7.84 L98.936,7.84 C99.236,7.84 99.464,7.756 99.644,7.588 C99.824,7.42 99.908,7.192 99.908,6.892 C99.908,6.616 99.812,6.412 99.62,6.256 C99.44,6.112 99.212,6.04 98.936,6.04 L98,6.04 Z M98,9.424 L98,11.416 L99.416,11.416 C99.752,11.416 100.016,11.32 100.22,11.14 C100.436,10.96 100.544,10.696 100.544,10.372 C100.544,9.736 100.124,9.424 99.272,9.424 L98,9.424 Z M111.156,5.32 L111.156,12.136 C111.156,12.436 111.072,12.664 110.904,12.832 C110.736,12.988 110.52,13.072 110.256,13.072 C109.992,13.072 109.776,12.988 109.608,12.832 C109.44,12.664 109.356,12.436 109.356,12.136 L109.356,7.66 L109.332,7.66 L105.444,12.676 C105.24,12.94 104.988,13.072 104.688,13.072 C104.424,13.072 104.208,12.988 104.04,12.832 C103.872,12.664 103.788,12.436 103.788,12.136 L103.788,5.32 C103.788,5.02 103.872,4.792 104.04,4.624 C104.208,4.468 104.424,4.384 104.688,4.384 C104.952,4.384 105.168,4.468 105.336,4.624 C105.504,4.792 105.588,5.02 105.588,5.32 L105.588,9.856 L105.612,9.856 L109.5,4.78 C109.704,4.516 109.956,4.384 110.256,4.384 C110.52,4.384 110.736,4.468 110.904,4.624 C111.072,4.792 111.156,5.02 111.156,5.32 Z M113.752,5.584 C114.532,4.732 115.516,4.312 116.728,4.312 C116.98,4.312 117.232,4.336 117.496,4.372 C117.82,4.42 118.096,4.492 118.348,4.588 C118.984,4.84 119.308,5.188 119.308,5.656 C119.308,5.884 119.236,6.064 119.104,6.22 C118.96,6.376 118.78,6.46 118.564,6.46 C118.456,6.46 118.348,6.436 118.216,6.4 L118.036,6.328 L117.844,6.244 C117.472,6.112 117.1,6.04 116.728,6.04 C116.02,6.04 115.456,6.316 115.048,6.856 C114.664,7.348 114.472,7.984 114.472,8.764 C114.472,9.52 114.664,10.132 115.048,10.624 C115.456,11.152 116.02,11.416 116.728,11.416 C117.1,11.416 117.484,11.332 117.88,11.164 C118.264,10.996 118.516,10.912 118.636,10.912 C118.876,10.912 119.08,11.008 119.236,11.212 C119.368,11.38 119.428,11.548 119.428,11.728 C119.428,12.232 119.092,12.616 118.408,12.868 C118.156,12.964 117.856,13.036 117.52,13.084 C117.244,13.12 116.98,13.144 116.728,13.144 C115.516,13.144 114.532,12.724 113.752,11.872 C112.984,11.032 112.6,9.988 112.6,8.728 C112.6,7.468 112.984,6.412 113.752,5.584 Z" id="СЕРВИС" fill="#FFFFFF"></path>
            </g>
        </g>
    </g>
</svg>