<svg xmlns="http://www.w3.org/2000/svg" width="77" height="83.03" viewBox="0 0 77 83.03">
  <metadata><?xpacket begin="﻿" id="W5M0MpCehiHzreSzNTczkc9d"?>
<x:xmpmeta xmlns:x="adobe:ns:meta/" x:xmptk="Adobe XMP Core 5.6-c138 79.159824, 2016/09/14-01:09:01        ">
   <rdf:RDF xmlns:rdf="http://www.w3.org/1999/02/22-rdf-syntax-ns#">
      <rdf:Description rdf:about=""/>
   </rdf:RDF>
</x:xmpmeta>
                                                                                                    
                                                                                                    
                                                                                                    
                                                                                                    
                                                                                                    
                                                                                                    
                                                                                                    
                                                                                                    
                                                                                                    
                                                                                                    
                                                                                                    
                                                                                                    
                                                                                                    
                                                                                                    
                                                                                                    
                                                                                                    
                                                                                                    
                                                                                                    
                                                                                                    
                                                                                                    
                           
<?xpacket end="w"?></metadata>
<defs>
    <style>
      .cls-1 {
        fill-rule: evenodd;
      }
    </style>
  </defs>
  <path id="Forma_1" data-name="Forma 1" class="cls-1" d="M311.463,2876.32l-24.572-22.05,3.968-3.9a1.65,1.65,0,0,0,.93.28,1.678,1.678,0,0,0,1.165-.47l4.47-4.4a1.612,1.612,0,0,0,0-2.3l-17.31-17.04a1.671,1.671,0,0,0-2.329,0l-4.47,4.4a1.6,1.6,0,0,0-.194,2.06l-17.058,16.8a1.659,1.659,0,0,0-2.095.19l-4.47,4.4a1.6,1.6,0,0,0,0,2.29l17.309,17.04a1.654,1.654,0,0,0,2.33,0l4.47-4.4a1.6,1.6,0,0,0,.194-2.06l3.968-3.91,22.4,24.2a1.678,1.678,0,0,0,1.179.52h0.038a1.676,1.676,0,0,0,1.165-.47l8.97-8.83A1.61,1.61,0,0,0,311.463,2876.32Zm-32.513-46.44,14.98,14.75-2.14,2.11-14.98-14.75Zm-10.978,40.3-14.98-14.74,2.14-2.11,14.98,14.75Zm3.519-5.33-13.078-12.88,17.018-16.75,13.079,12.87ZM301.438,2884L280.1,2860.96l4.458-4.39,23.409,21.01Zm-6.548,12.15v-2.13a6.492,6.492,0,0,0-6.53-6.43H247.743a6.491,6.491,0,0,0-6.53,6.43v2.13a6.427,6.427,0,0,0,.316,12.85h53.044A6.427,6.427,0,0,0,294.89,2896.15Zm-0.317,9.61H241.529a3.185,3.185,0,1,1,0-6.37h36.842a1.625,1.625,0,1,0,0-3.25H244.508v-2.12a3.214,3.214,0,0,1,3.235-3.18H288.36a3.214,3.214,0,0,1,3.235,3.18v3.74a1.639,1.639,0,0,0,1.647,1.63h1.331A3.185,3.185,0,1,1,294.573,2905.76Zm-8.147-7.46a1.525,1.525,0,0,0-.094-0.31,1.642,1.642,0,0,0-.151-0.28,1.32,1.32,0,0,0-.2-0.24,1.435,1.435,0,0,0-.251-0.21,2.358,2.358,0,0,0-.285-0.14,1.144,1.144,0,0,0-.308-0.1,1.743,1.743,0,0,0-.644,0,1.192,1.192,0,0,0-.308.1,2.483,2.483,0,0,0-.283.14,1.435,1.435,0,0,0-.251.21,1.608,1.608,0,0,0-.483,1.14,1.654,1.654,0,0,0,.032.32,1.611,1.611,0,0,0,.245.58,1.954,1.954,0,0,0,.206.25,2,2,0,0,0,.251.2,1.534,1.534,0,0,0,.283.15,1.693,1.693,0,0,0,.308.09,1.765,1.765,0,0,0,.323.03,1.728,1.728,0,0,0,.321-0.03,1.648,1.648,0,0,0,.308-0.09,1.519,1.519,0,0,0,.285-0.15,1.922,1.922,0,0,0,.25-0.2,1.792,1.792,0,0,0,.2-0.25,1.642,1.642,0,0,0,.151-0.28,1.729,1.729,0,0,0,.094-0.3,1.58,1.58,0,0,0,.033-0.32A1.485,1.485,0,0,0,286.426,2898.3Zm-18.375-22.42a1.63,1.63,0,0,0-1.647,1.62v3.15a1.648,1.648,0,0,0,3.3,0v-3.15A1.631,1.631,0,0,0,268.051,2875.88Zm-9.31,5.93-2.944-2.9a1.672,1.672,0,0,0-2.33,0,1.612,1.612,0,0,0,0,2.3l2.944,2.89a1.654,1.654,0,0,0,2.33,0A1.6,1.6,0,0,0,258.741,2881.81Zm23.894-2.9a1.672,1.672,0,0,0-2.33,0l-2.944,2.9a1.6,1.6,0,0,0,0,2.29,1.654,1.654,0,0,0,2.33,0l2.944-2.89A1.612,1.612,0,0,0,282.635,2878.91Z" transform="translate(-235 -2825.97)"/>
</svg>
