<svg xmlns="http://www.w3.org/2000/svg" width="72" height="83" viewBox="0 0 72 83">
  <metadata><?xpacket begin="﻿" id="W5M0MpCehiHzreSzNTczkc9d"?>
<x:xmpmeta xmlns:x="adobe:ns:meta/" x:xmptk="Adobe XMP Core 5.6-c138 79.159824, 2016/09/14-01:09:01        ">
   <rdf:RDF xmlns:rdf="http://www.w3.org/1999/02/22-rdf-syntax-ns#">
      <rdf:Description rdf:about=""/>
   </rdf:RDF>
</x:xmpmeta>
                                                                                                    
                                                                                                    
                                                                                                    
                                                                                                    
                                                                                                    
                                                                                                    
                                                                                                    
                                                                                                    
                                                                                                    
                                                                                                    
                                                                                                    
                                                                                                    
                                                                                                    
                                                                                                    
                                                                                                    
                                                                                                    
                                                                                                    
                                                                                                    
                                                                                                    
                                                                                                    
                           
<?xpacket end="w"?></metadata>
<defs>
    <style>
      .cls-1 {
        fill-rule: evenodd;
      }
    </style>
  </defs>
  <path id="Forma_1" data-name="Forma 1" class="cls-1" d="M307.776,2335.45l-34.286-10.38a1.651,1.651,0,0,0-.984,0l-34.286,10.38a1.716,1.716,0,0,0-1.22,1.65v38.05c0,15.29,23.115,28.89,35.492,32.77a1.65,1.65,0,0,0,1.015,0c12.377-3.88,35.493-17.48,35.493-32.77V2337.1A1.723,1.723,0,0,0,307.776,2335.45Zm-2.2,39.7c0,12.14-19.073,24.91-32.571,29.31-13.5-4.4-32.572-17.17-32.572-29.31v-36.76L273,2328.53l32.571,9.86v36.76Zm-8.081-31.98-24-7.27a1.827,1.827,0,0,0-.984,0l-24,7.27a1.716,1.716,0,0,0-1.22,1.65v30.33c0,6.78,13.244,17.07,25.09,21.74a1.682,1.682,0,0,0,1.248,0c11.845-4.67,25.09-14.97,25.09-21.74v-30.33A1.723,1.723,0,0,0,297.49,2343.17Zm-2.2,31.98c0,4.1-10.42,13.41-22.286,18.27-11.866-4.86-22.286-14.17-22.286-18.27v-29.04L273,2339.36l22.286,6.75v29.04Zm-7.362-11.6-13.714-13.84a1.713,1.713,0,0,0-2.424,0l-13.714,13.84a1.732,1.732,0,0,0,1.214,2.95H261v12.1a1.72,1.72,0,0,0,1.714,1.73h6.857a1.72,1.72,0,0,0,1.715-1.73v-8.64h3.428v8.64a1.72,1.72,0,0,0,1.715,1.73h6.857A1.72,1.72,0,0,0,285,2378.6v-12.1h1.714a1.7,1.7,0,0,0,1.581-1.07A1.725,1.725,0,0,0,287.924,2363.55Zm-6.353,1.22v12.1h-3.428v-8.64a1.72,1.72,0,0,0-1.715-1.73h-6.857a1.72,1.72,0,0,0-1.714,1.73v8.64h-3.429v-12.1a1.735,1.735,0,0,0-1.114-1.62l9.686-9.77,9.686,9.77A1.735,1.735,0,0,0,281.571,2364.77Z" transform="translate(-237 -2325)"/>
</svg>
