<svg xmlns="http://www.w3.org/2000/svg" width="66" height="74" viewBox="0 0 66 74">
  <metadata><?xpacket begin="﻿" id="W5M0MpCehiHzreSzNTczkc9d"?>
<x:xmpmeta xmlns:x="adobe:ns:meta/" x:xmptk="Adobe XMP Core 5.6-c138 79.159824, 2016/09/14-01:09:01        ">
   <rdf:RDF xmlns:rdf="http://www.w3.org/1999/02/22-rdf-syntax-ns#">
      <rdf:Description rdf:about=""/>
   </rdf:RDF>
</x:xmpmeta>
                                                                                                    
                                                                                                    
                                                                                                    
                                                                                                    
                                                                                                    
                                                                                                    
                                                                                                    
                                                                                                    
                                                                                                    
                                                                                                    
                                                                                                    
                                                                                                    
                                                                                                    
                                                                                                    
                                                                                                    
                                                                                                    
                                                                                                    
                                                                                                    
                                                                                                    
                                                                                                    
                           
<?xpacket end="w"?></metadata>
<defs>
    <style>
      .cls-1 {
        fill-rule: evenodd;
      }
    </style>
  </defs>
  <path id="Forma_1" data-name="Forma 1" class="cls-1" d="M304.411,2697.1a1.586,1.586,0,0,0-1.588,1.58v19.64h-13.1v-24.25h0v-3.04h14.692a1.58,1.58,0,1,0,0-3.16h-16.28a1.585,1.585,0,0,0-1.587,1.58v0.8l-10.109-10.07a5.434,5.434,0,0,0-5.709-1.23,16.563,16.563,0,0,0,5.164-12.05,16.745,16.745,0,0,0-8.771-14.71,1.623,1.623,0,0,0-1.57.03,1.584,1.584,0,0,0-.777,1.36v14.08H253.4v-14.08a1.584,1.584,0,0,0-.777-1.36,1.623,1.623,0,0,0-1.57-.03,16.69,16.69,0,0,0-2.781,27.5v4.12H245.4a5.393,5.393,0,0,0-5.4,5.38v0.07a5.362,5.362,0,0,1,0,7.6v0.07a5.362,5.362,0,0,1,0,7.6v0.07a5.362,5.362,0,0,1,0,7.6v0.07a5.393,5.393,0,0,0,5.4,5.38h3.124a10.738,10.738,0,0,0,10.467,8.35h0.185a10.732,10.732,0,0,0,10.463-8.35h12.673a1.58,1.58,0,1,0,0-3.16H269.9v-13.05a1.587,1.587,0,0,0-3.174,0v13.88a7.548,7.548,0,0,1-7.549,7.52h-0.185a7.559,7.559,0,0,1-7.178-5.19h2.5a5.393,5.393,0,0,0,5.4-5.38v-0.07a5.362,5.362,0,0,1,0-7.6v-0.07a5.362,5.362,0,0,1,0-7.6v-0.07a5.362,5.362,0,0,1,0-7.6v-0.07a5.393,5.393,0,0,0-5.4-5.38h-2.868v-4.88a1.591,1.591,0,0,0-.623-1.26,13.519,13.519,0,0,1-.6-21.09v12.66a1.585,1.585,0,0,0,1.587,1.58h14.55a1.585,1.585,0,0,0,1.587-1.58v-12.66a13.521,13.521,0,0,1-.6,21.09,1.591,1.591,0,0,0-.623,1.26v3.32l-4.228,4.21a5.355,5.355,0,0,0,0,7.6l0.054,0.06a5.427,5.427,0,0,0,7.636,0l3.16-3.15a1.581,1.581,0,0,0,0-2.24,1.6,1.6,0,0,0-2.244,0l-3.161,3.15a2.221,2.221,0,0,1-3.145,0l-0.055-.05a2.219,2.219,0,0,1,0-3.14l6.3-6.27a2.22,2.22,0,0,1,3.144,0h0l12.354,12.3v25.18a1.585,1.585,0,0,0,1.587,1.58h16.28A1.585,1.585,0,0,0,306,2719.9v-21.22A1.585,1.585,0,0,0,304.411,2697.1Zm-47.875-.24v0.07a2.227,2.227,0,0,1-2.224,2.22H245.4a2.228,2.228,0,0,1-2.225-2.22v-0.07a2.221,2.221,0,0,1,2.225-2.22h8.911A2.221,2.221,0,0,1,256.536,2696.86Zm0,7.66v0.08a2.227,2.227,0,0,1-2.224,2.22H245.4a2.228,2.228,0,0,1-2.225-2.22v-0.08a2.219,2.219,0,0,1,2.225-2.21h8.911A2.219,2.219,0,0,1,256.536,2704.52Zm0,7.75a2.227,2.227,0,0,1-2.224,2.22H245.4a2.228,2.228,0,0,1-2.225-2.22v-0.08a2.219,2.219,0,0,1,2.225-2.21h8.911a2.219,2.219,0,0,1,2.224,2.21v0.08h0Zm0-23.08v0.07a2.227,2.227,0,0,1-2.224,2.22H245.4a2.228,2.228,0,0,1-2.225-2.22v-0.07a2.221,2.221,0,0,1,2.225-2.22h8.911A2.221,2.221,0,0,1,256.536,2689.19Z" transform="translate(-240 -2652)"/>
</svg>
