<svg xmlns="http://www.w3.org/2000/svg" width="490.682" height="457.824" viewBox="0 0 490.682 457.824">
  <title>Ресурс 1</title>
  <g id="0e545219-0123-4125-ae6a-f423c594a32d" data-name="Слой 2">
    <g id="b0e59e6c-98e5-45b6-84ad-23d29c1996c4" data-name="Capa 1">
      <g>
        <path d="M131.521,457.824"/>
        <path d="M179.115,457.824"/>
        <path d="M310.636,457.824"/>
        <path d="M359.161,457.824"/>
        <path d="M359.161,271.619V434.071a23.753,23.753,0,0,0,23.753,23.753h84.015a23.753,23.753,0,0,0,23.753-23.753V271.619a23.753,23.753,0,0,0-23.753-23.753H382.914A23.753,23.753,0,0,0,359.161,271.619Zm91.053,144.726H399.629V288.334h50.585Z"/>
        <path d="M0,23.753V434.071a23.753,23.753,0,0,0,23.753,23.753h84.015a23.753,23.753,0,0,0,23.753-23.753V23.753A23.753,23.753,0,0,0,107.768,0H23.753A23.753,23.753,0,0,0,0,23.753Zm40.468,393.6V40.468H91.053V417.356Z"/>
        <path d="M179.115,124.923V434.071a23.753,23.753,0,0,0,23.753,23.753h84.015a23.753,23.753,0,0,0,23.753-23.753V124.923a23.753,23.753,0,0,0-23.753-23.753H202.868A23.753,23.753,0,0,0,179.115,124.923Zm40.468,291.422V141.638h50.585V416.345Z"/>
      </g>
    </g>
  </g>
</svg>
