<svg width="497px" height="435px" viewBox="0 0 497 435" version="1.1" xmlns="http://www.w3.org/2000/svg" xmlns:xlink="http://www.w3.org/1999/xlink">
    <!-- Generator: Sketch 51.2 (57519) - http://www.bohemiancoding.com/sketch -->
    <desc>Created with Sketch.</desc>
    <defs>
        <polygon id="path-1" points="0 0.0002 496.58 0.0002 496.58 434.498 0 434.498"></polygon>
    </defs>
    <g id="homepage" stroke="none" stroke-width="1" fill="none" fill-rule="evenodd">
        <g id="d" transform="translate(-532.000000, -444.000000)">
            <g id="Group-3" transform="translate(532.000000, 444.000000)">
                <mask id="mask-2" fill="white">
                    <use xlink:href="#path-1"></use>
                </mask>
                <g id="Clip-2"></g>
                <path d="M426.098,205.3672 L248.29,383.1772 L70.479,205.3672 C33.305,168.1972 33.305,107.7212 70.479,70.5312 C88.486,52.5272 112.436,42.6242 137.896,42.6242 C163.36,42.6242 187.303,52.5272 205.303,70.5312 L233.222,98.4602 C241.225,106.4512 255.365,106.4512 263.366,98.4602 L291.275,70.5312 C309.276,52.5272 333.22,42.6242 358.692,42.6242 C384.155,42.6242 408.096,52.5272 426.098,70.5312 C463.277,107.7212 463.277,168.1962 426.098,205.3672 M456.233,40.3952 C430.177,14.3392 395.539,0.0002 358.69,0.0002 C321.835,0.0002 287.194,14.3392 261.129,40.3952 L248.289,53.2372 L235.45,40.3952 C209.393,14.3392 174.743,0.0002 137.896,0.0002 C101.05,0.0002 66.399,14.3392 40.344,40.3952 C-13.448,94.1932 -13.448,181.7232 40.344,235.5012 L233.097,428.2552 C236.249,431.4182 240.172,433.3552 244.272,434.1002 C245.646,434.3722 247.029,434.4982 248.413,434.4982 C253.867,434.4982 259.328,432.4182 263.481,428.2552 L456.235,235.5012 C510.03,181.7232 510.03,94.1932 456.233,40.3952" id="Fill-1" fill="#000000" mask="url(#mask-2)"></path>
            </g>
        </g>
    </g>
</svg>