<svg id="Слой_1" data-name="Слой 1" xmlns="http://www.w3.org/2000/svg" viewBox="0 0 149.69 19.34"><defs><style>.cls-1{fill:#ef6023;}.cls-2{fill:#135f8a;}.cls-3{fill:#f06022;fill-rule:evenodd;}</style></defs><title>logo-cm</title><path class="cls-1" d="M118.86,21.29c-1.31,0-2.61,0-3.92,0a3.69,3.69,0,0,1-.78-0.12,1.27,1.27,0,0,1-1-1.27,12.81,12.81,0,0,1,.29-2.72c0.18-1.22.39-2.43,0.59-3.65a4.09,4.09,0,0,1,.17-0.66,2.29,2.29,0,0,1,2.25-1.65c2.67,0,5.34,0,8,0a3.21,3.21,0,0,1,.94.18,1.25,1.25,0,0,1,.9,1.27,22.33,22.33,0,0,1-.22,2.28c-0.19,1.35-.42,2.69-0.65,4a4.08,4.08,0,0,1-.24.84A2.22,2.22,0,0,1,123,21.28c-1.37,0-2.74,0-4.11,0h0Zm-2.64-2.63h6.19l0.78-4.92H117Z" transform="translate(0 -7.27)"/><path class="cls-2" d="M72.08,11.21c-0.39.71-.75,1.37-1.12,2a0.94,0.94,0,0,1-.93.41c-1.92,0-3.84,0-5.76,0a0.32,0.32,0,0,0-.4.33c0,0.26-.07.52-0.12,0.84h0.53c1.66,0,3.31,0,5,0a4.73,4.73,0,0,1,1.08.17,1.21,1.21,0,0,1,1,1.22,11.27,11.27,0,0,1-.6,3.71,1.69,1.69,0,0,1-1.13,1.11,4.46,4.46,0,0,1-1.26.23c-2.73,0-5.47,0-8.2,0-0.34,0-.34,0-0.29-0.37q0.4-2.5.79-5c0.24-1.51.48-3,.71-4.54,0-.22.18-0.19,0.32-0.19H72.08Zm-9,7.62,0.26,0h4.36a0.3,0.3,0,0,0,.36-0.31c0-.3.11-0.59,0.15-0.89s0-.37-0.33-0.37h-2.3c-0.67,0-1.34,0-2,0a0.33,0.33,0,0,0-.26.15C63.24,17.88,63.18,18.34,63.1,18.83Z" transform="translate(0 -7.27)"/><path class="cls-1" d="M107.91,21.28l0.85-5.34-0.09-.08a2.08,2.08,0,0,1-.17.25l-3.28,3.62A2.86,2.86,0,0,1,105,20a0.79,0.79,0,0,1-1.33-.21l-2.14-3.64-0.21-.36c-0.07.44-.14,0.8-0.2,1.16-0.22,1.39-.44,2.78-0.67,4.16a0.27,0.27,0,0,1-.16.19H97.81l1.6-10.09c0.74,0,1.47,0,2.2,0a0.76,0.76,0,0,1,.43.38c0.86,1.36,1.7,2.73,2.54,4.1l0.53,0.84a2.62,2.62,0,0,1,.19-0.29c1.4-1.52,2.8-3,4.19-4.57a1.37,1.37,0,0,1,1.18-.5c0.45,0,.9,0,1.34,0h0.31L112,13.48l-0.85,5.35c-0.12.74-.23,1.48-0.35,2.22,0,0.13,0,.27-0.23.26H108Z" transform="translate(0 -7.27)"/><path class="cls-2" d="M83.55,18.71l-0.28,1.8a4.19,4.19,0,0,0-.08.51,0.25,0.25,0,0,1-.31.27H72.77c0-.34.08-0.64,0.13-0.94q0.71-4.47,1.42-8.94c0-.2.15-0.19,0.29-0.19h10c0,0.34-.09.64-0.14,0.95s-0.15.81-.19,1.22c0,0.24-.14.27-0.34,0.27H81.8c-1.51,0-3,0-4.53,0a0.28,0.28,0,0,0-.34.3c0,0.18,0,.36-0.08.54-0.06.33-.05,0.35,0.28,0.35H81l-0.38,2.45H80.35c-1.2,0-2.4,0-3.59,0-0.25,0-.38,0-0.4.33s-0.1.71-.17,1.12h7.37Z" transform="translate(0 -7.27)"/><path class="cls-2" d="M47.3,21.29c0-.32.09-0.64,0.14-1l1.15-7.22c0.09-.57.18-1.14,0.28-1.7a0.29,0.29,0,0,1,.2-0.19c0.84,0,1.68,0,2.57,0L50.7,17.07l0.06,0L51,16.91c1.85-1.73,3.71-3.45,5.55-5.19a1.73,1.73,0,0,1,1.33-.52c0.44,0,.87,0,1.35,0-0.05.36-.09,0.69-0.14,1l-1,6.51c-0.13.79-.25,1.59-0.39,2.38a0.27,0.27,0,0,1-.17.19c-0.83,0-1.66,0-2.5,0a0.3,0.3,0,0,1-.09,0l0.92-5.84-0.23.17c-1.95,1.8-3.89,3.61-5.85,5.4a1.17,1.17,0,0,1-.65.3C48.51,21.32,47.92,21.29,47.3,21.29Z" transform="translate(0 -7.27)"/><path class="cls-2" d="M85.05,21.27l0.28-1.77,0.79-5c0.16-1,.33-2.07.49-3.11a0.21,0.21,0,0,1,.26-0.2h1.62c2.24,0,4.48,0,6.72,0a3.67,3.67,0,0,1,1.07.19,1.24,1.24,0,0,1,.89,1.43c-0.14,1-.3,2.09-0.5,3.13a2.08,2.08,0,0,1-2,1.68c-1.88,0-3.77,0-5.65.06-0.45,0-.44,0-0.51.45-0.15,1-.32,2-0.47,2.94a0.2,0.2,0,0,1-.22.21H85.18Zm3.92-6,0.29,0h3.12l1.26,0a0.28,0.28,0,0,0,.31-0.3c0-.21.06-0.41,0.1-0.62,0.12-.63.1-0.66-0.54-0.66h-4.3Z" transform="translate(0 -7.27)"/><path class="cls-2" d="M46.3,21.28c-1.32,0-2.58,0-3.83,0a0.49,0.49,0,0,1-.3-0.19L39.52,17.9l-0.24-.27c-0.08.49-.16,0.92-0.23,1.35-0.11.7-.22,1.41-0.34,2.11a0.26,0.26,0,0,1-.17.18H36.06c0-.35.09-0.66,0.14-1q0.26-1.67.53-3.33l0.53-3.28c0.12-.74.24-1.49,0.35-2.23a0.27,0.27,0,0,1,.32-0.3c0.78,0,1.55,0,2.38,0l-0.53,3.39L40,14.31c1-1,2-2,3-3a0.65,0.65,0,0,1,.51-0.2h3.31l-0.29.31-4.49,4.31c-0.31.3-.32,0.23,0,0.56l3.83,4.48Z" transform="translate(0 -7.27)"/><path class="cls-1" d="M126.68,21.27c0.12-.48.22-0.94,0.36-1.39a0.66,0.66,0,0,1,.29-0.34,2.11,2.11,0,0,0,1-1.49c0.42-1.8.85-3.61,1.31-5.4a1.82,1.82,0,0,1,1.9-1.54c0.75,0,1.5-.05,2.25-0.06h3.68c0.22,0,.43,0,0.68,0l-1.62,10.18h-2.7l1.26-8-0.35,0c-0.76,0-1.52,0-2.28,0a0.35,0.35,0,0,0-.42.33c-0.61,2.47-1.24,4.94-1.87,7.4,0,0.08,0,.16-0.07.25h-3.41Z" transform="translate(0 -7.27)"/><path class="cls-1" d="M146.65,13.29h-2.7a0.28,0.28,0,0,0-.33.26c-0.63,2.49-1.27,5-1.89,7.48a0.28,0.28,0,0,1-.32.26h-3.12a1.41,1.41,0,0,1,0-.22c0.07-.28.15-0.56,0.2-0.85a1.1,1.1,0,0,1,.58-0.81,1.75,1.75,0,0,0,.79-1.23c0.44-1.82.86-3.64,1.32-5.45a1.85,1.85,0,0,1,2-1.62c1-.05,2.06,0,3.1-0.05H149c0.21,0,.41,0,0.66,0l-1.62,10.18h-2.68Z" transform="translate(0 -7.27)"/><path class="cls-2" d="M28.92,22.11a1.62,1.62,0,0,0,.65-0.8,1.07,1.07,0,0,0-.94-1.45A1.71,1.71,0,0,0,27,20.94a1.07,1.07,0,0,0,.94,1.44A1.62,1.62,0,0,0,28.92,22.11Z" transform="translate(0 -7.27)"/><path class="cls-2" d="M19.91,25.12a1.62,1.62,0,0,0,.65-0.8,1.07,1.07,0,0,0-.94-1.45A1.71,1.71,0,0,0,18,23.95a1.07,1.07,0,0,0,.94,1.44A1.62,1.62,0,0,0,19.91,25.12Z" transform="translate(0 -7.27)"/><path class="cls-2" d="M1.18,17.38L0,16.08l5.93-1.19a0.77,0.77,0,0,1,1,.35Z" transform="translate(0 -7.27)"/><path class="cls-2" d="M6.78,17.49l0.77,0.62,1.87-1a0.64,0.64,0,0,0,.22-0.78Z" transform="translate(0 -7.27)"/><path class="cls-3" d="M6.93,24.4h0a8.37,8.37,0,0,1,.24-0.85,17.5,17.5,0,0,1-2.28,0c0.22-.72,1.9-1.31,1.9-1.31L6,21.65s1.91-.44,2.53.56S8.44,23.9,6.93,24.4m2.55-3C7.94,18.88,3.62,21,3.62,21l1.44,0.46A19.88,19.88,0,0,1,.71,24.55c1.17,0.24,5,.36,5,0.36a3.72,3.72,0,0,1-.82,1.7C9.69,25.34,11,23.9,9.48,21.39Z" transform="translate(0 -7.27)"/><polygon class="cls-2" points="9.86 12.62 11.35 12.26 12.4 15.2 11.02 15.87 9.86 12.62"/><path class="cls-2" d="M23.18,16.82c-0.64-1.78-3.28-2.47-5.61-1.64a38.51,38.51,0,0,0-5.73,3L13.57,23a33.49,33.49,0,0,0,6.31-1.33C22.5,20.7,23.82,18.6,23.18,16.82Zm-9.81,2s0.78-.49,1.68-1a5.85,5.85,0,0,0,.05.68l-1.61.61ZM13.78,20l1.49-.57c0.05,0.18.11,0.36,0.18,0.53l-1.53.45Zm0.56,1.56-0.12-.34,1.62-.47a5.17,5.17,0,0,0,.34.52C15.18,21.43,14.34,21.52,14.34,21.52Zm7.47-3.71a6.47,6.47,0,0,0-5.32-.57q-0.32.1-.61,0.23A19.42,19.42,0,0,1,18.81,16c1.25-.44,2.66-0.08,3,0.88A1.5,1.5,0,0,1,21.81,17.81Z" transform="translate(0 -7.27)"/><path class="cls-2" d="M12.09,16.67c0.59-.35,1.42-0.82,2.32-1.29l-1.25-1.69A15.26,15.26,0,0,0,12,12.36a8.61,8.61,0,0,0-1.23-1.08,4.46,4.46,0,0,0-1.43-.68,15.53,15.53,0,0,0-4.23.06l-1.52.11,2,2.14,0.69,0a12.25,12.25,0,0,1,2,.07,3,3,0,0,1,1,.64A10.28,10.28,0,0,1,11,15.27Z" transform="translate(0 -7.27)"/><path class="cls-2" d="M31.08,15.53l-1-5.93c-0.14-.9-0.37-2.33-0.37-2.33L14.41,12.4s1.08,1.17,1.65,1.85l6-2.14,0.48,1.23-1.43.54a5.42,5.42,0,0,1,1.14.4l0.57-.22,0.3,0.77a3.68,3.68,0,0,1,1.16,1.61,4.26,4.26,0,0,1-1,4.29l3.9-1.39h0c1.44-.57,2.09-0.85,2.56-1.08C31.26,17.53,31.26,16.67,31.08,15.53Zm-3.63-5.37,0.23,1.22L26,12,25.65,10.8Zm-4.68,1.68,2.13-.76,0.32,1.24-2,.74Zm1.32,3.4-0.56-1.45,1.88-.71,0.39,1.52Zm0.84,2.15L24.37,16,26,15.35l0.38,1.49Zm1.24-4.6,1.65-.62,0.29,1.55-1.55.59Zm1,3.77-0.38-1.49,1.5-.57L28.53,16Z" transform="translate(0 -7.27)"/><path class="cls-1" d="M118.86,21.29c-1.31,0-2.61,0-3.92,0a3.69,3.69,0,0,1-.78-0.12,1.27,1.27,0,0,1-1-1.27,12.81,12.81,0,0,1,.29-2.72c0.18-1.22.39-2.43,0.59-3.65a4.09,4.09,0,0,1,.17-0.66,2.29,2.29,0,0,1,2.25-1.65c2.67,0,5.34,0,8,0a3.21,3.21,0,0,1,.94.18,1.25,1.25,0,0,1,.9,1.27,22.33,22.33,0,0,1-.22,2.28c-0.19,1.35-.42,2.69-0.65,4a4.08,4.08,0,0,1-.24.84A2.22,2.22,0,0,1,123,21.28c-1.37,0-2.74,0-4.11,0h0Zm-2.64-2.63h6.19l0.78-4.92H117Z" transform="translate(0 -7.27)"/><path class="cls-2" d="M72.08,11.21c-0.39.71-.75,1.37-1.12,2a0.94,0.94,0,0,1-.93.41c-1.92,0-3.84,0-5.76,0a0.32,0.32,0,0,0-.4.33c0,0.26-.07.52-0.12,0.84h0.53c1.66,0,3.31,0,5,0a4.73,4.73,0,0,1,1.08.17,1.21,1.21,0,0,1,1,1.22,11.27,11.27,0,0,1-.6,3.71,1.69,1.69,0,0,1-1.13,1.11,4.46,4.46,0,0,1-1.26.23c-2.73,0-5.47,0-8.2,0-0.34,0-.34,0-0.29-0.37q0.4-2.5.79-5c0.24-1.51.48-3,.71-4.54,0-.22.18-0.19,0.32-0.19H72.08Zm-9,7.62,0.26,0h4.36a0.3,0.3,0,0,0,.36-0.31c0-.3.11-0.59,0.15-0.89s0-.37-0.33-0.37h-2.3c-0.67,0-1.34,0-2,0a0.33,0.33,0,0,0-.26.15C63.24,17.88,63.18,18.34,63.1,18.83Z" transform="translate(0 -7.27)"/><path class="cls-1" d="M107.91,21.28l0.85-5.34-0.09-.08a2.08,2.08,0,0,1-.17.25l-3.28,3.62A2.86,2.86,0,0,1,105,20a0.79,0.79,0,0,1-1.33-.21l-2.14-3.64-0.21-.36c-0.07.44-.14,0.8-0.2,1.16-0.22,1.39-.44,2.78-0.67,4.16a0.27,0.27,0,0,1-.16.19H97.81l1.6-10.09c0.74,0,1.47,0,2.2,0a0.76,0.76,0,0,1,.43.38c0.86,1.36,1.7,2.73,2.54,4.1l0.53,0.84a2.62,2.62,0,0,1,.19-0.29c1.4-1.52,2.8-3,4.19-4.57a1.37,1.37,0,0,1,1.18-.5c0.45,0,.9,0,1.34,0h0.31L112,13.48l-0.85,5.35c-0.12.74-.23,1.48-0.35,2.22,0,0.13,0,.27-0.23.26H108Z" transform="translate(0 -7.27)"/><path class="cls-2" d="M83.55,18.71l-0.28,1.8a4.19,4.19,0,0,0-.08.51,0.25,0.25,0,0,1-.31.27H72.77c0-.34.08-0.64,0.13-0.94q0.71-4.47,1.42-8.94c0-.2.15-0.19,0.29-0.19h10c0,0.34-.09.64-0.14,0.95s-0.15.81-.19,1.22c0,0.24-.14.27-0.34,0.27H81.8c-1.51,0-3,0-4.53,0a0.28,0.28,0,0,0-.34.3c0,0.18,0,.36-0.08.54-0.06.33-.05,0.35,0.28,0.35H81l-0.38,2.45H80.35c-1.2,0-2.4,0-3.59,0-0.25,0-.38,0-0.4.33s-0.1.71-.17,1.12h7.37Z" transform="translate(0 -7.27)"/><path class="cls-2" d="M47.3,21.29c0-.32.09-0.64,0.14-1l1.15-7.22c0.09-.57.18-1.14,0.28-1.7a0.29,0.29,0,0,1,.2-0.19c0.84,0,1.68,0,2.57,0L50.7,17.07l0.06,0L51,16.91c1.85-1.73,3.71-3.45,5.55-5.19a1.73,1.73,0,0,1,1.33-.52c0.44,0,.87,0,1.35,0-0.05.36-.09,0.69-0.14,1l-1,6.51c-0.13.79-.25,1.59-0.39,2.38a0.27,0.27,0,0,1-.17.19c-0.83,0-1.66,0-2.5,0a0.3,0.3,0,0,1-.09,0l0.92-5.84-0.23.17c-1.95,1.8-3.89,3.61-5.85,5.4a1.17,1.17,0,0,1-.65.3C48.51,21.32,47.92,21.29,47.3,21.29Z" transform="translate(0 -7.27)"/><path class="cls-2" d="M85.05,21.27l0.28-1.77,0.79-5c0.16-1,.33-2.07.49-3.11a0.21,0.21,0,0,1,.26-0.2h1.62c2.24,0,4.48,0,6.72,0a3.67,3.67,0,0,1,1.07.19,1.24,1.24,0,0,1,.89,1.43c-0.14,1-.3,2.09-0.5,3.13a2.08,2.08,0,0,1-2,1.68c-1.88,0-3.77,0-5.65.06-0.45,0-.44,0-0.51.45-0.15,1-.32,2-0.47,2.94a0.2,0.2,0,0,1-.22.21H85.18Zm3.92-6,0.29,0h3.12l1.26,0a0.28,0.28,0,0,0,.31-0.3c0-.21.06-0.41,0.1-0.62,0.12-.63.1-0.66-0.54-0.66h-4.3Z" transform="translate(0 -7.27)"/><path class="cls-2" d="M46.3,21.28c-1.32,0-2.58,0-3.83,0a0.49,0.49,0,0,1-.3-0.19L39.52,17.9l-0.24-.27c-0.08.49-.16,0.92-0.23,1.35-0.11.7-.22,1.41-0.34,2.11a0.26,0.26,0,0,1-.17.18H36.06c0-.35.09-0.66,0.14-1q0.26-1.67.53-3.33l0.53-3.28c0.12-.74.24-1.49,0.35-2.23a0.27,0.27,0,0,1,.32-0.3c0.78,0,1.55,0,2.38,0l-0.53,3.39L40,14.31c1-1,2-2,3-3a0.65,0.65,0,0,1,.51-0.2h3.31l-0.29.31-4.49,4.31c-0.31.3-.32,0.23,0,0.56l3.83,4.48Z" transform="translate(0 -7.27)"/><path class="cls-1" d="M126.68,21.27c0.12-.48.22-0.94,0.36-1.39a0.66,0.66,0,0,1,.29-0.34,2.11,2.11,0,0,0,1-1.49c0.42-1.8.85-3.61,1.31-5.4a1.82,1.82,0,0,1,1.9-1.54c0.75,0,1.5-.05,2.25-0.06h3.68c0.22,0,.43,0,0.68,0l-1.62,10.18h-2.7l1.26-8-0.35,0c-0.76,0-1.52,0-2.28,0a0.35,0.35,0,0,0-.42.33c-0.61,2.47-1.24,4.94-1.87,7.4,0,0.08,0,.16-0.07.25h-3.41Z" transform="translate(0 -7.27)"/><path class="cls-1" d="M146.65,13.29h-2.7a0.28,0.28,0,0,0-.33.26c-0.63,2.49-1.27,5-1.89,7.48a0.28,0.28,0,0,1-.32.26h-3.12a1.41,1.41,0,0,1,0-.22c0.07-.28.15-0.56,0.2-0.85a1.1,1.1,0,0,1,.58-0.81,1.75,1.75,0,0,0,.79-1.23c0.44-1.82.86-3.64,1.32-5.45a1.85,1.85,0,0,1,2-1.62c1-.05,2.06,0,3.1-0.05H149c0.21,0,.41,0,0.66,0l-1.62,10.18h-2.68Z" transform="translate(0 -7.27)"/></svg>