<?xml version="1.0" encoding="UTF-8"?>
<svg width="158px" height="17px" viewBox="0 0 158 17" version="1.1" xmlns="http://www.w3.org/2000/svg" xmlns:xlink="http://www.w3.org/1999/xlink">
    <!-- Generator: Sketch 52 (66869) - http://www.bohemiancoding.com/sketch -->
    <title>dns main</title>
    <desc>Created with Sketch.</desc>
    <g id="Page-1" stroke="none" stroke-width="1" fill="none" fill-rule="evenodd">
        <g id="Artboard" transform="translate(-31.000000, -172.000000)" fill="#F28A1E">
            <g id="dns-main" transform="translate(31.000000, 172.000000)">
                <path d="M39.9563788,0.0185389949 L43.9520167,0.0185389949 L43.9520167,14.8659661 C43.9520167,15.7286607 43.452562,16.5005453 42.7260824,16.8183801 C42.4990575,16.90919 42.2266276,17 41.9541978,17 C41.4093381,17 40.9098833,16.7729751 40.5466435,16.3643303 L27.1521756,6.2390207 L27.1521756,17 L23.1565377,17 L23.1565377,2.10716789 C23.1565377,1.24447335 23.6559925,0.472588754 24.3824721,0.154753923 C25.1543567,-0.163080909 26.0170512,0.0185389949 26.5619109,0.608803682 L39.9563788,10.7341133 L39.9563788,0.0185389949 Z M64.8837106,7.96440979 C64.4296609,7.46495505 63.8848012,7.10171524 63.2945365,6.82928539 C62.6588668,6.55685553 62.0231971,6.4206406 61.3421225,6.4206406 L50.6265482,6.4206406 C50.0362835,6.4206406 49.5822337,5.92118587 49.5822337,5.33092118 C49.5822337,4.74065649 50.0362835,4.24120176 50.6265482,4.24120176 L63.3399414,4.24120176 C64.4296609,4.24120176 65.3377604,3.28769726 65.3377604,2.15257286 C65.3377604,0.97204349 64.4296609,0.0639439708 63.3399414,0.0639439708 L50.6265482,0.0639439708 C49.9454735,0.0639439708 49.2643989,0.200158899 48.6741342,0.472588754 C48.0838695,0.74501861 47.5390098,1.10825842 47.0849601,1.60771315 C46.6309103,2.10716789 46.2676705,2.6520276 45.9952406,3.28769726 C45.7228108,3.92336693 45.5865959,4.64984654 45.5865959,5.33092118 C45.5865959,6.0574008 45.7228108,6.73847544 45.9952406,7.3741451 C46.2676705,8.00981476 46.6309103,8.55467447 47.0849601,9.05412921 C47.5390098,9.55358394 48.0838695,9.91682375 48.6741342,10.1892536 C49.3098039,10.4616835 49.9454735,10.5978984 50.6265482,10.5978984 L61.3421225,10.5978984 C61.9323872,10.5978984 62.386437,11.0973531 62.386437,11.6876178 C62.386437,12.2778825 61.9323872,12.7773372 61.3421225,12.7773372 L47.5844148,12.7773372 C46.4946954,12.7773372 45.5865959,13.7308417 45.5865959,14.8659661 C45.5865959,16.0464955 46.4946954,16.954595 47.5844148,16.954595 L61.3421225,16.954595 C62.0231971,16.954595 62.7042718,16.8183801 63.2945365,16.5459502 C63.8848012,16.2735204 64.4296609,15.9102806 64.8837106,15.4108258 C65.3377604,14.9113711 65.7010002,14.3665114 65.9734301,13.7308417 C66.2458599,13.0951721 66.3820748,12.3686925 66.3820748,11.6876178 C66.3820748,11.0065432 66.2458599,10.2800636 65.9734301,9.6443939 C65.7010002,9.00872423 65.3377604,8.41845955 64.8837106,7.96440979 Z M20.840884,8.5092695 C20.840884,13.185982 17.2084859,17 12.7587982,17 L3.31456324,17 L1.49836421,17 L7.10542736e-15,17 L7.10542736e-15,8.5092695 L7.10542736e-15,0.0185389949 L12.7133933,0.0185389949 C17.2084859,0.0185389949 20.840884,3.83255697 20.840884,8.5092695 Z M16.981461,8.87250931 C16.981461,7.73738491 16.7090311,6.10280577 15.9371466,5.28551621 C15.165262,4.46822664 13.9393276,3.74174702 12.8042032,3.74174702 L3.85942296,3.74174702 L3.85942296,8.87250931 L3.85942296,13.0951721 L12.8042032,13.0951721 C13.9393276,13.0951721 14.9836421,12.6411223 15.7555267,11.8692377 C16.5274112,11.0973531 16.981461,10.0076337 16.981461,8.87250931 Z" id="SVGID_1_-Copy-2"></path>
                <path d="M77.5777821,6.1724286 L77.5777821,7.44376464 C77.5777821,7.67407914 77.5132941,7.84911816 77.3843179,7.97809428 C77.2553418,8.09785782 77.0895154,8.16234588 76.8868386,8.16234588 C76.6841619,8.16234588 76.5183354,8.09785782 76.3893593,7.97809428 C76.2603832,7.84911816 76.1958951,7.67407914 76.1958951,7.44376464 L76.1958951,6.66990792 L71.6909435,6.66990792 C71.4882667,6.66990792 71.3224403,6.60541986 71.2026768,6.48565632 C71.0644881,6.34746762 71,6.1724286 71,5.95132668 L71,0.77385672 C71,0.54354222 71.0644881,0.3685032 71.1934642,0.23952708 C71.3224403,0.11976354 71.4882667,0.05527548 71.6909435,0.05527548 C71.8936203,0.05527548 72.0594467,0.11976354 72.1884228,0.23952708 C72.3173989,0.3685032 72.381887,0.54354222 72.381887,0.77385672 L72.381887,5.45384736 L75.2746371,5.45384736 L75.2746371,0.77385672 C75.2746371,0.54354222 75.3391252,0.3685032 75.4681013,0.23952708 C75.5970774,0.11976354 75.7629039,0.05527548 75.9655806,0.05527548 C76.1682574,0.05527548 76.3340838,0.11976354 76.4630599,0.23952708 C76.5920361,0.3685032 76.6565241,0.54354222 76.6565241,0.77385672 L76.6565241,5.45384736 L76.8868386,5.45384736 C77.0895154,5.45384736 77.2553418,5.51833542 77.3751054,5.63809896 C77.5132941,5.77628766 77.5777821,5.95132668 77.5777821,6.1724286 Z" id="Path"></path>
                <path d="M84.0122575,0.77385672 L84.0122575,6.00660216 C84.0122575,6.23691666 83.9477694,6.41195568 83.8187933,6.5409318 C83.6898172,6.66069534 83.5239907,6.7251834 83.321314,6.7251834 C83.1186372,6.7251834 82.9528108,6.66069534 82.8238346,6.5409318 C82.6948585,6.41195568 82.6303705,6.23691666 82.6303705,6.00660216 L82.6303705,2.57030982 L82.6119453,2.57030982 L79.6270694,6.42116826 C79.4704555,6.62384502 79.2769913,6.7251834 79.0466768,6.7251834 C78.8440001,6.7251834 78.6781736,6.66069534 78.5491975,6.5409318 C78.4202214,6.41195568 78.3557333,6.23691666 78.3557333,6.00660216 L78.3557333,0.77385672 C78.3557333,0.54354222 78.4202214,0.3685032 78.5491975,0.23952708 C78.6781736,0.11976354 78.8440001,0.05527548 79.0466768,0.05527548 C79.2493536,0.05527548 79.41518,0.11976354 79.5441561,0.23952708 C79.6731323,0.3685032 79.7376203,0.54354222 79.7376203,0.77385672 L79.7376203,4.25621196 L79.7560455,4.25621196 L82.7409214,0.35929062 C82.8975353,0.15661386 83.0909995,0.05527548 83.321314,0.05527548 C83.5239907,0.05527548 83.6898172,0.11976354 83.8187933,0.23952708 C83.9477694,0.3685032 84.0122575,0.54354222 84.0122575,0.77385672 Z" id="Path"></path>
                <path d="M91.7180688,5.1590448 C91.2666524,5.6657367 90.6954724,5.91447636 90.0229541,5.91447636 C89.9492535,5.91447636 89.8387025,5.90526378 89.7005138,5.88683862 C89.5623251,5.86841346 89.4517741,5.8499883 89.3688609,5.82235056 L89.3688609,6.00660216 C89.3688609,6.23691666 89.3043729,6.41195568 89.1753967,6.5409318 C89.0464206,6.66069534 88.8805942,6.7251834 88.6779174,6.7251834 C88.4752407,6.7251834 88.3094142,6.66069534 88.1804381,6.5409318 C88.051462,6.41195568 87.9869739,6.23691666 87.9869739,6.00660216 L87.9869739,5.82235056 C87.9040607,5.8499883 87.7935097,5.86841346 87.655321,5.88683862 C87.5171323,5.90526378 87.4065814,5.91447636 87.3328807,5.91447636 C86.6603624,5.91447636 86.098395,5.6657367 85.6469786,5.1590448 C85.1955622,4.67077806 84.9744603,4.07196036 84.9744603,3.3625917 C84.9744603,2.65322304 85.1955622,2.04519276 85.6285534,1.55692602 C86.0799699,1.05023412 86.6511498,0.80149446 87.3328807,0.80149446 C87.4065814,0.80149446 87.5171323,0.81070704 87.6645336,0.8291322 C87.7935097,0.83834478 87.9040607,0.85676994 87.9869739,0.8751951 L87.9869739,0.77385672 C87.9869739,0.54354222 88.051462,0.3685032 88.1804381,0.23952708 C88.3094142,0.11976354 88.4752407,0.05527548 88.6779174,0.05527548 C88.8805942,0.05527548 89.0464206,0.11976354 89.1753967,0.23952708 C89.3043729,0.3685032 89.3688609,0.54354222 89.3688609,0.77385672 L89.3688609,0.8751951 C89.4517741,0.85676994 89.5623251,0.83834478 89.6913012,0.8291322 C89.8387025,0.81070704 89.9492535,0.80149446 90.0229541,0.80149446 C90.704685,0.80149446 91.275865,1.05023412 91.7272814,1.55692602 C92.1602727,2.04519276 92.3813746,2.65322304 92.3813746,3.3625917 C92.3813746,4.07196036 92.1602727,4.67077806 91.7180688,5.1590448 Z M90.5664963,2.43212112 C90.3177567,2.19259404 90.0229541,2.0728305 89.6820886,2.0728305 C89.6268132,2.0728305 89.5623251,2.08204308 89.497837,2.09125566 L89.4057112,2.1188934 L89.3320106,2.13731856 L89.3320106,4.56943968 L89.4149238,4.59707742 L89.497837,4.61550258 C89.5623251,4.63392774 89.6176006,4.64314032 89.6820886,4.64314032 C90.0321667,4.64314032 90.3269692,4.52337678 90.5664963,4.29306228 C90.815236,4.0535352 90.9442121,3.74030748 90.9442121,3.3625917 C90.9442121,2.98487592 90.815236,2.68086078 90.5664963,2.43212112 Z M88.0238242,4.56943968 L88.0238242,2.13731856 L87.9501236,2.1188934 L87.8672104,2.09125566 C87.7935097,2.08204308 87.7290217,2.0728305 87.6737462,2.0728305 C87.3328807,2.0728305 87.0380782,2.19259404 86.7893385,2.43212112 C86.5405989,2.68086078 86.4116227,2.98487592 86.4116227,3.3625917 C86.4116227,3.74030748 86.5405989,4.0535352 86.7893385,4.29306228 C87.0288656,4.52337678 87.3236682,4.64314032 87.6737462,4.64314032 C87.7566594,4.64314032 87.876423,4.61550258 88.0238242,4.56943968 Z" id="Combined-Shape"></path>
                <path d="M93.35279,6.00660216 L93.35279,0.8291322 C93.35279,0.35007804 93.592317,0.11055096 94.0713712,0.11055096 L95.7019979,0.11055096 C96.3837288,0.11055096 96.9456962,0.31322772 97.3879,0.71858124 C97.8393164,1.13314734 98.0604183,1.6582644 98.0604183,2.31235758 C98.0604183,2.96645076 97.8301038,3.5007804 97.3786874,3.90613392 C96.9456962,4.30227486 96.4113665,4.49573904 95.7572733,4.49573904 L94.734677,4.49573904 L94.734677,6.00660216 C94.734677,6.23691666 94.6701889,6.41195568 94.5412128,6.5409318 C94.4122367,6.66069534 94.2464102,6.7251834 94.0437335,6.7251834 C93.8410567,6.7251834 93.6752303,6.66069534 93.5462541,6.5409318 C93.417278,6.41195568 93.35279,6.23691666 93.35279,6.00660216 Z M94.734677,1.32661152 L94.734677,3.27967848 L95.6743601,3.27967848 C95.9599501,3.27967848 96.1902646,3.18755268 96.3653036,2.9940885 C96.5403426,2.81904948 96.6232559,2.58873498 96.6232559,2.303145 C96.6232559,2.01755502 96.5403426,1.78724052 96.3653036,1.60298892 C96.1902646,1.41873732 95.9599501,1.32661152 95.6743601,1.32661152 L94.734677,1.32661152 Z" id="Combined-Shape"></path>
                <path d="M99.5108879,5.8039254 C98.9212828,5.1590448 98.6264802,4.35755034 98.6264802,3.39022944 C98.6264802,2.42290854 98.9212828,1.6122015 99.5108879,0.97653348 C100.109706,0.3224403 100.865137,3.10862447e-15 101.795608,3.10862447e-15 C102.707653,3.10862447e-15 103.472297,0.33165288 104.071115,0.99495864 C104.669933,1.64905182 104.964735,2.4413337 104.964735,3.39022944 C104.964735,4.35755034 104.669933,5.1590448 104.08954,5.8039254 C103.490722,6.45801858 102.726078,6.78045888 101.795608,6.78045888 C100.865137,6.78045888 100.109706,6.45801858 99.5108879,5.8039254 Z M103.103794,4.87345482 C103.389384,4.48652646 103.527573,3.98904714 103.527573,3.39022944 C103.527573,2.79141174 103.380171,2.303145 103.094582,1.91621664 C102.772141,1.48322538 102.33915,1.27133604 101.795608,1.27133604 C101.252066,1.27133604 100.819074,1.48322538 100.496634,1.91621664 C100.211044,2.303145 100.063643,2.79141174 100.063643,3.39022944 C100.063643,3.98904714 100.201831,4.48652646 100.487421,4.87345482 C100.800649,5.2972335 101.23364,5.50912284 101.795608,5.50912284 C102.357575,5.50912284 102.790566,5.2972335 103.103794,4.87345482 Z" id="Combined-Shape"></path>
                <path d="M105.945363,5.96975184 L105.945363,0.80149446 C105.945363,0.58960512 106.009851,0.4145661 106.14804,0.28558998 C106.286229,0.16582644 106.461268,0.11055096 106.673157,0.11055096 L108.441972,0.11055096 C108.930239,0.11055096 109.344805,0.25795224 109.667246,0.5527548 C110.008111,0.85676994 110.173937,1.25291088 110.173937,1.73196504 C110.173937,2.36763306 109.888347,2.81904948 109.317168,3.0862143 L109.317168,3.10463946 C109.713308,3.15991494 110.044961,3.33495396 110.312126,3.62975652 C110.579291,3.92455908 110.71748,4.27463712 110.71748,4.67077806 C110.71748,5.30644608 110.524015,5.8039254 110.127875,6.15400344 C109.750159,6.4948689 109.234254,6.66990792 108.580161,6.66990792 L106.68237,6.66990792 C106.47048,6.66990792 106.295441,6.60541986 106.157253,6.48565632 C106.019064,6.3566802 105.945363,6.18164118 105.945363,5.96975184 Z M107.32725,1.32661152 L107.32725,2.70849852 L108.045831,2.70849852 C108.276146,2.70849852 108.451185,2.64401046 108.589374,2.51503434 C108.727562,2.38605822 108.79205,2.2110192 108.79205,1.9807047 C108.79205,1.76881536 108.71835,1.6122015 108.570949,1.49243796 C108.43276,1.381887 108.257721,1.32661152 108.045831,1.32661152 L107.32725,1.32661152 Z M107.32725,3.92455908 L107.32725,5.45384736 L108.414335,5.45384736 C108.672287,5.45384736 108.874964,5.38014672 109.031578,5.24195802 C109.197404,5.10376932 109.280317,4.90109256 109.280317,4.6523529 C109.280317,4.16408616 108.957877,3.92455908 108.303784,3.92455908 L107.32725,3.92455908 Z" id="Combined-Shape"></path>
                <path d="M111.311179,5.77628766 L113.162908,0.76464414 C113.356372,0.25795224 113.678812,8.8817842e-16 114.148654,8.8817842e-16 C114.627708,8.8817842e-16 114.959361,0.25795224 115.1344,0.76464414 L116.940066,5.77628766 C116.967703,5.84077572 116.986129,5.91447636 116.995341,5.97896442 C117.004554,6.0342399 117.013766,6.0803028 117.013766,6.11715312 C117.013766,6.29219214 116.949278,6.43959342 116.820302,6.55935696 C116.700539,6.66990792 116.553137,6.7251834 116.378098,6.7251834 C116.037233,6.7251834 115.806918,6.56856954 115.70558,6.24612924 L115.429203,5.38014672 L112.868105,5.38014672 L112.591728,6.23691666 C112.49039,6.55935696 112.269288,6.7251834 111.928422,6.7251834 C111.744171,6.7251834 111.587557,6.66069534 111.449368,6.5409318 C111.311179,6.42116826 111.246691,6.2645544 111.246691,6.0803028 C111.246691,6.01581474 111.255904,5.95132668 111.274329,5.88683862 L111.292754,5.82235056 L111.301967,5.79471282 L111.311179,5.77628766 Z M114.139441,1.43716248 L113.264246,4.10881068 L115.014636,4.10881068 L114.157866,1.43716248 L114.139441,1.43716248 Z" id="Combined-Shape"></path>
                <path d="M122.287457,0.8291322 L122.287457,6.00660216 C122.287457,6.23691666 122.222968,6.41195568 122.093992,6.5409318 C121.965016,6.66069534 121.79919,6.7251834 121.596513,6.7251834 C121.393836,6.7251834 121.22801,6.66069534 121.099034,6.5409318 C120.970058,6.41195568 120.90557,6.23691666 120.90557,6.00660216 L120.90557,4.0074723 L120.887144,4.0074723 L118.841952,6.48565632 C118.777464,6.56856954 118.685338,6.62384502 118.583999,6.66990792 C118.491874,6.70675824 118.399748,6.7251834 118.307622,6.7251834 C118.114158,6.7251834 117.948331,6.65148276 117.810143,6.50408148 C117.681167,6.36589278 117.616678,6.20006634 117.616678,6.01581474 C117.616678,5.87762604 117.681167,5.73943734 117.80093,5.61046122 L119.367069,3.93377166 C118.869589,3.85085844 118.464236,3.67581942 118.160221,3.39022944 C117.828568,3.07700172 117.662741,2.68086078 117.662741,2.19259404 C117.662741,0.80149446 118.427386,0.11055096 119.956674,0.11055096 L121.578088,0.11055096 C122.047929,0.11055096 122.287457,0.35007804 122.287457,0.8291322 Z M120.90557,3.01251366 L120.90557,1.381887 L119.956674,1.381887 C119.698722,1.381887 119.496045,1.45558764 119.339431,1.59377634 C119.182817,1.73196504 119.099904,1.9346418 119.099904,2.19259404 C119.099904,2.4413337 119.182817,2.64401046 119.339431,2.79141174 C119.496045,2.93881302 119.698722,3.01251366 119.956674,3.01251366 L120.90557,3.01251366 Z" id="Combined-Shape"></path>
                <path d="M131.922792,0.77385672 L131.922792,6.00660216 C131.922792,6.23691666 131.858304,6.41195568 131.729327,6.5409318 C131.600351,6.66069534 131.434525,6.7251834 131.231848,6.7251834 C131.029171,6.7251834 130.863345,6.66069534 130.734369,6.5409318 C130.605393,6.41195568 130.540905,6.23691666 130.540905,6.00660216 L130.540905,2.57030982 L130.522479,2.57030982 L127.537604,6.42116826 C127.38099,6.62384502 127.187525,6.7251834 126.957211,6.7251834 C126.754534,6.7251834 126.588708,6.66069534 126.459732,6.5409318 C126.330756,6.41195568 126.266267,6.23691666 126.266267,6.00660216 L126.266267,0.77385672 C126.266267,0.54354222 126.330756,0.3685032 126.459732,0.23952708 C126.588708,0.11976354 126.754534,0.05527548 126.957211,0.05527548 C127.159888,0.05527548 127.325714,0.11976354 127.45469,0.23952708 C127.583666,0.3685032 127.648154,0.54354222 127.648154,0.77385672 L127.648154,4.25621196 L127.66658,4.25621196 L130.651456,0.35929062 C130.808069,0.15661386 131.001534,0.05527548 131.231848,0.05527548 C131.434525,0.05527548 131.600351,0.11976354 131.729327,0.23952708 C131.858304,0.3685032 131.922792,0.54354222 131.922792,0.77385672 Z" id="Path"></path>
                <path d="M75.1825113,16.0434525 C74.8047955,16.3843179 74.2888911,16.559357 73.6347979,16.559357 L71.7370064,16.559357 C71.5251171,16.559357 71.350078,16.4948689 71.2118893,16.3751054 C71.0737006,16.2461292 71,16.0710902 71,15.8592009 L71,10.6909435 C71,10.4790542 71.0644881,10.3040151 71.2026768,10.175039 C71.3408655,10.0552755 71.5159045,10 71.7277938,10 L74.4731427,10 C74.685032,10 74.8508584,10.0644881 74.970622,10.1934642 C75.0719604,10.3132277 75.1272358,10.460629 75.1272358,10.635668 C75.1272358,10.810707 75.0719604,10.9488957 74.9614094,11.0686593 C74.8416459,11.206848 74.6758194,11.271336 74.4731427,11.271336 L72.381887,11.271336 L72.381887,12.5979476 L73.4689714,12.5979476 C74.1783401,12.5979476 74.7218823,12.7545614 75.1180233,13.0585766 C75.5510145,13.399442 75.7721164,13.8969213 75.7721164,14.5602271 C75.7721164,15.1958951 75.5786523,15.6933744 75.1825113,16.0434525 Z M72.381887,13.8140081 L72.381887,15.3432964 L73.4689714,15.3432964 C73.7269237,15.3432964 73.9296004,15.2695958 74.0862143,15.1314071 C74.2520407,14.9932184 74.334954,14.7905416 74.334954,14.5418019 C74.334954,14.0535352 74.0125137,13.8140081 73.3584205,13.8140081 L72.381887,13.8140081 Z" id="Combined-Shape"></path>
                <path d="M82,15.9513267 L82,10.7185812 C82,10.4882667 82.0644881,10.3132277 82.1934642,10.1842516 C82.3224403,10.0644881 82.4882667,10 82.6909435,10 C82.8936203,10 83.0594467,10.0644881 83.1884228,10.1842516 C83.3173989,10.3132277 83.381887,10.4882667 83.381887,10.7185812 L83.381887,15.9513267 C83.381887,16.1816412 83.3173989,16.3566802 83.1884228,16.4856563 C83.0594467,16.6054199 82.8936203,16.6699079 82.6909435,16.6699079 C82.4882667,16.6699079 82.3224403,16.6054199 82.1934642,16.4856563 C82.0644881,16.3566802 82,16.1816412 82,15.9513267 Z" id="Path"></path>
                <path d="M78.381887,12.5610972 L79.3307827,12.5610972 C80.0309388,12.5610972 80.5836936,12.7269237 80.9798346,13.049364 C81.4128258,13.399442 81.6339277,13.9061339 81.6339277,14.5694397 C81.6339277,15.2051077 81.4404636,15.7117996 81.0443226,16.0803028 C80.6573943,16.4395934 80.1414898,16.6146324 79.4966092,16.6146324 L77.7370064,16.6146324 C77.5251171,16.6146324 77.350078,16.5501444 77.2118893,16.4303808 C77.0737006,16.3014047 77,16.1263657 77,15.9144764 L77,10.7185812 C77,10.4882667 77.0644881,10.3132277 77.1934642,10.1842516 C77.3224403,10.0644881 77.4882667,10 77.6909435,10 C77.8936203,10 78.0594467,10.0644881 78.1884228,10.1842516 C78.3173989,10.3132277 78.381887,10.4882667 78.381887,10.7185812 L78.381887,12.5610972 Z M78.381887,13.7771578 L78.381887,15.3985719 L79.3307827,15.3985719 C79.5795224,15.3985719 79.7914117,15.3248712 79.9480256,15.1682574 C80.113852,15.0116435 80.1967653,14.7997542 80.1967653,14.5510145 C80.1967653,14.3207 80.113852,14.1364484 79.9480256,13.9982597 C79.7729866,13.8508584 79.5334595,13.7771578 79.2202318,13.7771578 L78.381887,13.7771578 Z" id="Combined-Shape"></path>
                <path d="M85.6306267,15.8960512 L85.6306267,11.271336 L84.6264554,11.271336 C84.4145661,11.271336 84.2579522,11.206848 84.1474013,11.0686593 C84.0460629,10.9488957 84,10.810707 84,10.635668 C84,10.460629 84.0552755,10.3132277 84.1658264,10.1934642 C84.28559,10.0644881 84.4329913,10 84.6264554,10 L88.0166849,10 C88.2101491,10 88.3575503,10.0644881 88.4773139,10.1934642 C88.5878648,10.3132277 88.6431403,10.460629 88.6431403,10.635668 C88.6431403,10.810707 88.5970774,10.9488957 88.495739,11.0686593 C88.3851881,11.206848 88.2285742,11.271336 88.0166849,11.271336 L87.0125137,11.271336 L87.0125137,15.8960512 C87.0125137,16.1263657 86.9480256,16.3014047 86.8190495,16.4303808 C86.6900734,16.5501444 86.5242469,16.6146324 86.3215702,16.6146324 C86.1188934,16.6146324 85.953067,16.5501444 85.8240908,16.4303808 C85.6951147,16.3014047 85.6306267,16.1263657 85.6306267,15.8960512 Z" id="Path"></path>
                <path d="M89.8844077,15.8039254 C89.2948026,15.1590448 89,14.3575503 89,13.3902294 C89,12.4229085 89.2948026,11.6122015 89.8844077,10.9765335 C90.4832254,10.3224403 91.2386569,10 92.1691275,10 C93.0811729,10 93.8458171,10.3316529 94.4446348,10.9949586 C95.0434525,11.6490518 95.338255,12.4413337 95.338255,13.3902294 C95.338255,14.3575503 95.0434525,15.1590448 94.4630599,15.8039254 C93.8642422,16.4580186 93.0995981,16.7804589 92.1691275,16.7804589 C91.2386569,16.7804589 90.4832254,16.4580186 89.8844077,15.8039254 Z M93.4773139,14.8734548 C93.7629039,14.4865265 93.9010926,13.9890471 93.9010926,13.3902294 C93.9010926,12.7914117 93.7536913,12.303145 93.4681013,11.9162166 C93.145661,11.4832254 92.7126697,11.271336 92.1691275,11.271336 C91.6255853,11.271336 91.192594,11.4832254 90.8701537,11.9162166 C90.5845638,12.303145 90.4371625,12.7914117 90.4371625,13.3902294 C90.4371625,13.9890471 90.5753512,14.4865265 90.8609412,14.8734548 C91.1741689,15.2972335 91.6071601,15.5091228 92.1691275,15.5091228 C92.7310949,15.5091228 93.1640862,15.2972335 93.4773139,14.8734548 Z" id="Combined-Shape"></path>
                <path d="M97,15.8592009 L97,10.6909435 C97,10.4790542 97.0644881,10.3040151 97.2026768,10.175039 C97.3408655,10.0552755 97.5159045,10 97.7277938,10 L99.4966092,10 C99.9848759,10 100.399442,10.1474013 100.721882,10.4422038 C101.062748,10.746219 101.228574,11.1423599 101.228574,11.6214141 C101.228574,12.2570821 100.942984,12.7084985 100.371804,12.9756633 L100.371804,12.9940885 C100.767945,13.049364 101.099598,13.224403 101.366763,13.5192056 C101.633928,13.8140081 101.772116,14.1640862 101.772116,14.5602271 C101.772116,15.1958951 101.578652,15.6933744 101.182511,16.0434525 C100.804796,16.3843179 100.288891,16.559357 99.6347979,16.559357 L97.7370064,16.559357 C97.5251171,16.559357 97.350078,16.4948689 97.2118893,16.3751054 C97.0737006,16.2461292 97,16.0710902 97,15.8592009 Z M98.381887,11.2160606 L98.381887,12.5979476 L99.1004682,12.5979476 C99.3307827,12.5979476 99.5058218,12.5334595 99.6440105,12.4044834 C99.7821992,12.2755073 99.8466872,12.1004682 99.8466872,11.8701537 C99.8466872,11.6582644 99.7729866,11.5016505 99.6255853,11.381887 C99.4873966,11.271336 99.3123576,11.2160606 99.1004682,11.2160606 L98.381887,11.2160606 Z M98.381887,13.8140081 L98.381887,15.3432964 L99.4689714,15.3432964 C99.7269237,15.3432964 99.9296004,15.2695958 100.086214,15.1314071 C100.252041,14.9932184 100.334954,14.7905416 100.334954,14.5418019 C100.334954,14.0535352 100.012514,13.8140081 99.3584205,13.8140081 L98.381887,13.8140081 Z" id="Combined-Shape"></path>
                <path d="M102.064488,15.7762877 L103.916217,10.7646441 C104.109681,10.2579522 104.432121,10 104.901963,10 C105.381017,10 105.71267,10.2579522 105.887709,10.7646441 L107.693374,15.7762877 C107.721012,15.8407757 107.739437,15.9144764 107.74865,15.9789644 C107.757863,16.0342399 107.767075,16.0803028 107.767075,16.1171531 C107.767075,16.2921921 107.702587,16.4395934 107.573611,16.559357 C107.453847,16.6699079 107.306446,16.7251834 107.131407,16.7251834 C106.790542,16.7251834 106.560227,16.5685695 106.458889,16.2461292 L106.182511,15.3801467 L103.621414,15.3801467 L103.345037,16.2369167 C103.243698,16.559357 103.022596,16.7251834 102.681731,16.7251834 C102.497479,16.7251834 102.340865,16.6606953 102.202677,16.5409318 C102.064488,16.4211683 102,16.2645544 102,16.0803028 C102,16.0158147 102.009213,15.9513267 102.027638,15.8868386 L102.046063,15.8223506 L102.055275,15.7947128 L102.064488,15.7762877 Z M104.89275,11.4371625 L104.017555,14.1088107 L105.767945,14.1088107 L104.911175,11.4371625 L104.89275,11.4371625 Z" id="Combined-Shape"></path>
                <path d="M112.670778,10.7185812 L112.670778,15.8960512 C112.670778,16.1263657 112.60629,16.3014047 112.477314,16.4303808 C112.348338,16.5501444 112.182511,16.6146324 111.979835,16.6146324 C111.777158,16.6146324 111.611331,16.5501444 111.482355,16.4303808 C111.353379,16.3014047 111.288891,16.1263657 111.288891,15.8960512 L111.288891,13.8969213 L111.270466,13.8969213 L109.225273,16.3751054 C109.160785,16.4580186 109.068659,16.5132941 108.967321,16.559357 C108.875195,16.5962073 108.783069,16.6146324 108.690944,16.6146324 C108.497479,16.6146324 108.331653,16.5409318 108.193464,16.3935305 C108.064488,16.2553418 108,16.0895154 108,15.9052638 C108,15.7670751 108.064488,15.6288864 108.184252,15.4999103 L109.75039,13.8232207 C109.252911,13.7403075 108.847557,13.5652685 108.543542,13.2796785 C108.211889,12.9664508 108.046063,12.5703098 108.046063,12.0820431 C108.046063,10.6909435 108.810707,10 110.339995,10 L111.961409,10 C112.431251,10 112.670778,10.2395271 112.670778,10.7185812 Z M111.288891,12.9019627 L111.288891,11.271336 L110.339995,11.271336 C110.082043,11.271336 109.879366,11.3450367 109.722752,11.4832254 C109.566139,11.6214141 109.483225,11.8240908 109.483225,12.0820431 C109.483225,12.3307827 109.566139,12.5334595 109.722752,12.6808608 C109.879366,12.8282621 110.082043,12.9019627 110.339995,12.9019627 L111.288891,12.9019627 Z" id="Combined-Shape"></path>
                <path d="M117.630627,15.8960512 L117.630627,11.271336 L116.626455,11.271336 C116.414566,11.271336 116.257952,11.206848 116.147401,11.0686593 C116.046063,10.9488957 116,10.810707 116,10.635668 C116,10.460629 116.055275,10.3132277 116.165826,10.1934642 C116.28559,10.0644881 116.432991,10 116.626455,10 L120.016685,10 C120.210149,10 120.35755,10.0644881 120.477314,10.1934642 C120.587865,10.3132277 120.64314,10.460629 120.64314,10.635668 C120.64314,10.810707 120.597077,10.9488957 120.495739,11.0686593 C120.385188,11.206848 120.228574,11.271336 120.016685,11.271336 L119.012514,11.271336 L119.012514,15.8960512 C119.012514,16.1263657 118.948026,16.3014047 118.819049,16.4303808 C118.690073,16.5501444 118.524247,16.6146324 118.32157,16.6146324 C118.118893,16.6146324 117.953067,16.5501444 117.824091,16.4303808 C117.695115,16.3014047 117.630627,16.1263657 117.630627,15.8960512 Z" id="Path"></path>
                <path d="M122,15.8684135 L122,10.8014945 C122,10.2671648 122.239527,10 122.718581,10 L125.003301,10 C125.21519,10 125.381017,10.0644881 125.50078,10.1934642 C125.602119,10.3132277 125.657394,10.460629 125.657394,10.635668 C125.657394,10.810707 125.602119,10.9488957 125.491568,11.0686593 C125.371804,11.206848 125.205978,11.271336 125.003301,11.271336 L123.381887,11.271336 L123.381887,12.6163727 L124.89275,12.6163727 C125.104639,12.6163727 125.279678,12.6808608 125.399442,12.8098369 C125.509993,12.9296004 125.565268,13.0770017 125.565268,13.2520407 C125.565268,13.4270798 125.509993,13.5652685 125.399442,13.685032 C125.270466,13.8232207 125.104639,13.8877088 124.89275,13.8877088 L123.381887,13.8877088 L123.381887,15.2880209 L125.086214,15.2880209 C125.298104,15.2880209 125.46393,15.352509 125.583694,15.4814851 C125.685032,15.6012486 125.740307,15.7486499 125.740307,15.9236889 C125.740307,16.098728 125.685032,16.2369167 125.574481,16.3566802 C125.454718,16.4948689 125.288891,16.559357 125.086214,16.559357 L122.709369,16.559357 C122.506692,16.559357 122.340865,16.4948689 122.202677,16.3658928 C122.064488,16.2369167 122,16.0710902 122,15.8684135 Z" id="Path"></path>
                <path d="M126.156614,15.5551857 L127.980705,13.1046395 L126.488267,11.0778719 C126.386928,10.9488957 126.340865,10.810707 126.340865,10.6725183 C126.340865,10.4698416 126.405354,10.3040151 126.543542,10.1842516 C126.672518,10.0644881 126.838345,10 127.041022,10 C127.280549,10 127.483225,10.110551 127.639839,10.3408655 L128.782199,11.9622795 L129.924559,10.3408655 C130.081173,10.110551 130.28385,10 130.523377,10 C130.726054,10 130.89188,10.0644881 131.020856,10.1842516 C131.159045,10.3040151 131.223533,10.4698416 131.223533,10.6725183 C131.223533,10.810707 131.17747,10.9488957 131.076132,11.0778719 L129.583694,13.1046395 L131.407784,15.5551857 C131.453847,15.6196738 131.490698,15.6841619 131.518335,15.7578625 C131.545973,15.8499883 131.564398,15.9421141 131.564398,16.0250273 C131.564398,16.2184915 131.49991,16.3751054 131.370934,16.4948689 C131.232745,16.6146324 131.066919,16.6699079 130.864242,16.6699079 C130.633928,16.6699079 130.440464,16.5685695 130.293062,16.3658928 L128.782199,14.2654245 L127.271336,16.3658928 C127.123935,16.5685695 126.930471,16.6699079 126.700156,16.6699079 C126.497479,16.6699079 126.331653,16.6146324 126.202677,16.4948689 C126.064488,16.3751054 126,16.2184915 126,16.0250273 C126,15.9421141 126.018425,15.8499883 126.055275,15.7578625 C126.082913,15.6841619 126.110551,15.6196738 126.156614,15.5551857 Z" id="Path"></path>
                <path d="M132,15.9513267 L132,10.7185812 C132,10.4882667 132.064488,10.3132277 132.193464,10.1842516 C132.32244,10.0644881 132.488267,10 132.690944,10 C132.89362,10 133.059447,10.0644881 133.188423,10.1842516 C133.317399,10.3132277 133.381887,10.4882667 133.381887,10.7185812 L133.381887,12.6716482 L136.274637,12.6716482 L136.274637,10.7185812 C136.274637,10.4882667 136.339125,10.3132277 136.468101,10.1842516 C136.597077,10.0644881 136.762904,10 136.965581,10 C137.168257,10 137.334084,10.0644881 137.46306,10.1842516 C137.592036,10.3132277 137.656524,10.4882667 137.656524,10.7185812 L137.656524,15.9513267 C137.656524,16.1816412 137.592036,16.3566802 137.46306,16.4856563 C137.334084,16.6054199 137.168257,16.6699079 136.965581,16.6699079 C136.762904,16.6699079 136.597077,16.6054199 136.468101,16.4856563 C136.339125,16.3566802 136.274637,16.1816412 136.274637,15.9513267 L136.274637,13.9429842 L133.381887,13.9429842 L133.381887,15.9513267 C133.381887,16.1816412 133.317399,16.3566802 133.188423,16.4856563 C133.059447,16.6054199 132.89362,16.6699079 132.690944,16.6699079 C132.488267,16.6699079 132.32244,16.6054199 132.193464,16.4856563 C132.064488,16.3566802 132,16.1816412 132,15.9513267 Z" id="Path"></path>
                <path d="M144.656524,10.7185812 L144.656524,15.9513267 C144.656524,16.1816412 144.592036,16.3566802 144.46306,16.4856563 C144.334084,16.6054199 144.168257,16.6699079 143.965581,16.6699079 C143.762904,16.6699079 143.597077,16.6054199 143.468101,16.4856563 C143.339125,16.3566802 143.274637,16.1816412 143.274637,15.9513267 L143.274637,12.5150343 L143.256212,12.5150343 L140.271336,16.3658928 C140.114722,16.5685695 139.921258,16.6699079 139.690944,16.6699079 C139.488267,16.6699079 139.32244,16.6054199 139.193464,16.4856563 C139.064488,16.3566802 139,16.1816412 139,15.9513267 L139,10.7185812 C139,10.4882667 139.064488,10.3132277 139.193464,10.1842516 C139.32244,10.0644881 139.488267,10 139.690944,10 C139.89362,10 140.059447,10.0644881 140.188423,10.1842516 C140.317399,10.3132277 140.381887,10.4882667 140.381887,10.7185812 L140.381887,14.2009365 L140.400312,14.2009365 L143.385188,10.3040151 C143.541802,10.1013384 143.735266,10 143.965581,10 C144.168257,10 144.334084,10.0644881 144.46306,10.1842516 C144.592036,10.3132277 144.656524,10.4882667 144.656524,10.7185812 Z" id="Path"></path>
                <path d="M146,16.0066022 L146,10.6817309 C146,10.4882667 146.064488,10.3316529 146.193464,10.2026768 C146.32244,10.0644881 146.488267,10 146.690944,10 C146.89362,10 147.059447,10.0644881 147.188423,10.1842516 C147.317399,10.3040151 147.381887,10.4698416 147.381887,10.6817309 L147.381887,12.6716482 L149.648182,10.2579522 C149.71267,10.1842516 149.78637,10.1289761 149.860071,10.0829132 C149.961409,10.0276377 150.062748,10 150.182511,10 C150.366763,10 150.523377,10.0644881 150.652353,10.1842516 C150.790542,10.3132277 150.864242,10.4698416 150.864242,10.6633058 C150.864242,10.8567699 150.716841,11.096297 150.412826,11.4003122 L148.671648,13.113852 L150.799754,15.3340838 C151.057706,15.6012486 151.186683,15.8407757 151.186683,16.0342399 C151.186683,16.2369167 151.112982,16.3935305 150.965581,16.5132941 C150.836605,16.6146324 150.670778,16.6699079 150.468101,16.6699079 C150.274637,16.6699079 150.03511,16.5225066 149.767945,16.2369167 L147.381887,13.6573943 L147.381887,16.0066022 C147.381887,16.1908538 147.317399,16.3474676 147.188423,16.4764437 C147.059447,16.6054199 146.89362,16.6699079 146.690944,16.6699079 C146.488267,16.6699079 146.32244,16.6054199 146.193464,16.4856563 C146.064488,16.3658928 146,16.2092789 146,16.0066022 Z" id="Path"></path>
                <path d="M152.064488,15.7762877 L153.916217,10.7646441 C154.109681,10.2579522 154.432121,10 154.901963,10 C155.381017,10 155.71267,10.2579522 155.887709,10.7646441 L157.693374,15.7762877 C157.721012,15.8407757 157.739437,15.9144764 157.74865,15.9789644 C157.757863,16.0342399 157.767075,16.0803028 157.767075,16.1171531 C157.767075,16.2921921 157.702587,16.4395934 157.573611,16.559357 C157.453847,16.6699079 157.306446,16.7251834 157.131407,16.7251834 C156.790542,16.7251834 156.560227,16.5685695 156.458889,16.2461292 L156.182511,15.3801467 L153.621414,15.3801467 L153.345037,16.2369167 C153.243698,16.559357 153.022596,16.7251834 152.681731,16.7251834 C152.497479,16.7251834 152.340865,16.6606953 152.202677,16.5409318 C152.064488,16.4211683 152,16.2645544 152,16.0803028 C152,16.0158147 152.009213,15.9513267 152.027638,15.8868386 L152.046063,15.8223506 L152.055275,15.7947128 L152.064488,15.7762877 Z M154.89275,11.4371625 L154.017555,14.1088107 L155.767945,14.1088107 L154.911175,11.4371625 L154.89275,11.4371625 Z" id="Combined-Shape"></path>
            </g>
        </g>
    </g>
</svg>