<svg xmlns="http://www.w3.org/2000/svg" width="41" height="40" viewBox="0 0 41 40">
  <defs>
    <style>
      .cls-1 {
        fill: #f7941d;
        fill-rule: evenodd;
      }
    </style>
  </defs>
  <path id="Forma_1" data-name="Forma 1" class="cls-1" d="M2387.71,1272.79h7.85v1.9h-7.85v-1.9Zm0,5.6h7.85v1.9h-7.85v-1.9Zm0,5.52h19.01v1.9h-19.01v-1.9Zm33.12-1.83h0a4.087,4.087,0,0,0-5.6,0l-2.1,2.02v-5.61a0.831,0.831,0,0,0-.29-0.66l-13.03-12.55c-0.2-.19.34-0.28,0.04-0.28h-16.78a1.841,1.841,0,0,0-2.08,2v36c0,1.27.06,2,1.39,2h28.55a1.85,1.85,0,0,0,2.08-2l0.12-8.12,7.7-7.41A3.722,3.722,0,0,0,2420.83,1282.08Zm-20.73-13.86,9.67,9.31h-9.67v-9.31Zm11.06,34.88h-28.2v-36.2h15.17v11.59a0.919,0.919,0,0,0,.99.95h12.04V1286l-9.41,9.07-0.84,6.19,6.43-.8,3.83-3.68v6.32h-0.01Zm8.28-17-12.98,12.49-3.32.52,0.54-3.19,12.98-12.5a2.018,2.018,0,0,1,2.78,0h0A1.843,1.843,0,0,1,2419.44,1286.1Z" transform="translate(-2381 -1265)"/>
</svg>
