<svg xmlns="http://www.w3.org/2000/svg" width="29" height="40" viewBox="0 0 29 40">
  <defs>
    <style>
      .cls-1 {
        fill-rule: evenodd;
        opacity: 0.6;
      }
    </style>
  </defs>
  <path id="Forma_1" data-name="Forma 1" class="cls-1" d="M5564.27,1289.76h-5a2.035,2.035,0,0,0-1.93-1.38h-2.11a3.4,3.4,0,0,0-5.47,0h-2.11a2.035,2.035,0,0,0-1.93,1.38h-5a2.725,2.725,0,0,0-2.72,2.73v31.79a2.723,2.723,0,0,0,2.72,2.72h23.55a2.731,2.731,0,0,0,2.73-2.72v-31.79A2.734,2.734,0,0,0,5564.27,1289.76Zm-18.55,4.06a2.031,2.031,0,0,0,1.93,1.39h9.69a2.031,2.031,0,0,0,1.93-1.39h3.66v29.12h-20.86v-29.12h3.65Zm1.93-4.14h2.46a0.638,0.638,0,0,0,.56-0.32,2.1,2.1,0,0,1,3.65,0,0.65,0.65,0,0,0,.56.32h2.46a0.736,0.736,0,0,1,.74.73v2.77h0a0.736,0.736,0,0,1-.74.73h-9.69a0.736,0.736,0,0,1-.74-0.73h0v-2.77A0.736,0.736,0,0,1,5547.65,1289.68Zm18.05,34.6a1.428,1.428,0,0,1-1.43,1.42h-23.55a1.434,1.434,0,0,1-1.43-1.42v-31.79a1.436,1.436,0,0,1,1.43-1.43h4.89v1.47h-4.19a0.649,0.649,0,0,0-.65.65v30.41a0.655,0.655,0,0,0,.65.65h22.16a0.655,0.655,0,0,0,.65-0.65v-30.41a0.649,0.649,0,0,0-.65-0.65h-4.2v-1.47h4.89a1.43,1.43,0,0,1,1.43,1.43v31.79Zm-13.2-31.84a0.655,0.655,0,0,0,.65-0.65v-1.38a0.65,0.65,0,1,0-1.3,0v1.38A0.649,0.649,0,0,0,5552.5,1292.44Zm0.69,8.99h4.15a0.65,0.65,0,0,0,0-1.3h-4.15A0.65,0.65,0,1,0,5553.19,1301.43Zm0,2.76h6.92a0.645,0.645,0,1,0,0-1.29h-6.92A0.645,0.645,0,1,0,5553.19,1304.19Zm-6.69-.19a0.619,0.619,0,0,0,.46.19,0.613,0.613,0,0,0,.45-0.19l3.47-3.45a0.651,0.651,0,0,0-.92-0.92l-3,3-1.62-1.62a0.651,0.651,0,0,0-.92.92Zm6.69,4.34h4.15a0.65,0.65,0,0,0,0-1.3h-4.15A0.65,0.65,0,1,0,5553.19,1308.34Zm0,2.76h6.92a0.645,0.645,0,1,0,0-1.29h-6.92A0.645,0.645,0,1,0,5553.19,1311.1Zm-6.69-.19a0.619,0.619,0,0,0,.46.19,0.613,0.613,0,0,0,.45-0.19l3.47-3.45a0.651,0.651,0,0,0-.92-0.92l-3,3-1.62-1.62a0.651,0.651,0,0,0-.92.92Zm6.69,4.34h4.15a0.65,0.65,0,0,0,0-1.3h-4.15A0.65,0.65,0,1,0,5553.19,1315.25Zm0,2.76h6.92a0.645,0.645,0,1,0,0-1.29h-6.92A0.645,0.645,0,1,0,5553.19,1318.01Zm-6.69-.19a0.619,0.619,0,0,0,.46.19,0.613,0.613,0,0,0,.45-0.19l3.47-3.45a0.651,0.651,0,1,0-.92-0.92l-3,3-1.62-1.62a0.651,0.651,0,0,0-.92.92Z" transform="translate(-5538 -1287)"/>
</svg>
