<?xml version="1.0" encoding="UTF-8"?>
<svg width="125px" height="17px" viewBox="0 0 125 17" version="1.1" xmlns="http://www.w3.org/2000/svg" xmlns:xlink="http://www.w3.org/1999/xlink">
    <!-- Generator: Sketch 52 (66869) - http://www.bohemiancoding.com/sketch -->
    <title>service</title>
    <desc>Created with Sketch.</desc>
    <g id="Page-1" stroke="none" stroke-width="1" fill="none" fill-rule="evenodd">
        <g id="Artboard" transform="translate(-449.000000, -172.000000)">
            <g id="service" transform="translate(449.000000, 172.000000)">
                <path d="M39.9563788,0.0185389949 L43.9520167,0.0185389949 L43.9520167,14.8659661 C43.9520167,15.7286607 43.452562,16.5005453 42.7260824,16.8183801 C42.4990575,16.90919 42.2266276,17 41.9541978,17 C41.4093381,17 40.9098833,16.7729751 40.5466435,16.3643303 L27.1521756,6.2390207 L27.1521756,17 L23.1565377,17 L23.1565377,2.10716789 C23.1565377,1.24447335 23.6559925,0.472588754 24.3824721,0.154753923 C25.1543567,-0.163080909 26.0170512,0.0185389949 26.5619109,0.608803682 L39.9563788,10.7341133 L39.9563788,0.0185389949 Z M64.8837106,7.96440979 C64.4296609,7.46495505 63.8848012,7.10171524 63.2945365,6.82928539 C62.6588668,6.55685553 62.0231971,6.4206406 61.3421225,6.4206406 L50.6265482,6.4206406 C50.0362835,6.4206406 49.5822337,5.92118587 49.5822337,5.33092118 C49.5822337,4.74065649 50.0362835,4.24120176 50.6265482,4.24120176 L63.3399414,4.24120176 C64.4296609,4.24120176 65.3377604,3.28769726 65.3377604,2.15257286 C65.3377604,0.97204349 64.4296609,0.0639439708 63.3399414,0.0639439708 L50.6265482,0.0639439708 C49.9454735,0.0639439708 49.2643989,0.200158899 48.6741342,0.472588754 C48.0838695,0.74501861 47.5390098,1.10825842 47.0849601,1.60771315 C46.6309103,2.10716789 46.2676705,2.6520276 45.9952406,3.28769726 C45.7228108,3.92336693 45.5865959,4.64984654 45.5865959,5.33092118 C45.5865959,6.0574008 45.7228108,6.73847544 45.9952406,7.3741451 C46.2676705,8.00981476 46.6309103,8.55467447 47.0849601,9.05412921 C47.5390098,9.55358394 48.0838695,9.91682375 48.6741342,10.1892536 C49.3098039,10.4616835 49.9454735,10.5978984 50.6265482,10.5978984 L61.3421225,10.5978984 C61.9323872,10.5978984 62.386437,11.0973531 62.386437,11.6876178 C62.386437,12.2778825 61.9323872,12.7773372 61.3421225,12.7773372 L47.5844148,12.7773372 C46.4946954,12.7773372 45.5865959,13.7308417 45.5865959,14.8659661 C45.5865959,16.0464955 46.4946954,16.954595 47.5844148,16.954595 L61.3421225,16.954595 C62.0231971,16.954595 62.7042718,16.8183801 63.2945365,16.5459502 C63.8848012,16.2735204 64.4296609,15.9102806 64.8837106,15.4108258 C65.3377604,14.9113711 65.7010002,14.3665114 65.9734301,13.7308417 C66.2458599,13.0951721 66.3820748,12.3686925 66.3820748,11.6876178 C66.3820748,11.0065432 66.2458599,10.2800636 65.9734301,9.6443939 C65.7010002,9.00872423 65.3377604,8.41845955 64.8837106,7.96440979 Z M20.840884,8.5092695 C20.840884,13.185982 17.2084859,17 12.7587982,17 L3.31456324,17 L1.49836421,17 L-4.97379915e-14,17 L-4.97379915e-14,8.5092695 L-4.97379915e-14,0.0185389949 L12.7133933,0.0185389949 C17.2084859,0.0185389949 20.840884,3.83255697 20.840884,8.5092695 Z M16.981461,8.87250931 C16.981461,7.73738491 16.7090311,6.10280577 15.9371466,5.28551621 C15.165262,4.46822664 13.9393276,3.74174702 12.8042032,3.74174702 L3.85942296,3.74174702 L3.85942296,8.87250931 L3.85942296,13.0951721 L12.8042032,13.0951721 C13.9393276,13.0951721 14.9836421,12.6411223 15.7555267,11.8692377 C16.5274112,11.0973531 16.981461,10.0076337 16.981461,8.87250931 Z" id="SVGID_1_-Copy" fill="#F28A1E"></path>
                <rect id="Rectangle" fill="#3266CF" fill-rule="nonzero" x="71" y="0" width="54" height="17" rx="2"></rect>
                <path d="M77.356,5.584 C78.136,4.732 79.12,4.312 80.332,4.312 C80.584,4.312 80.836,4.336 81.1,4.372 C81.424,4.42 81.7,4.492 81.952,4.588 C82.588,4.84 82.912,5.188 82.912,5.656 C82.912,5.884 82.84,6.064 82.708,6.22 C82.564,6.376 82.384,6.46 82.168,6.46 C82.06,6.46 81.952,6.436 81.82,6.4 L81.64,6.328 L81.448,6.244 C81.076,6.112 80.704,6.04 80.332,6.04 C79.624,6.04 79.06,6.316 78.652,6.856 C78.268,7.348 78.076,7.984 78.076,8.764 C78.076,9.52 78.268,10.132 78.652,10.624 C79.06,11.152 79.624,11.416 80.332,11.416 C80.704,11.416 81.088,11.332 81.484,11.164 C81.868,10.996 82.12,10.912 82.24,10.912 C82.48,10.912 82.684,11.008 82.84,11.212 C82.972,11.38 83.032,11.548 83.032,11.728 C83.032,12.232 82.696,12.616 82.012,12.868 C81.76,12.964 81.46,13.036 81.124,13.084 C80.848,13.12 80.584,13.144 80.332,13.144 C79.12,13.144 78.136,12.724 77.356,11.872 C76.588,11.032 76.204,9.988 76.204,8.728 C76.204,7.468 76.588,6.412 77.356,5.584 Z M84.572,12.1 L84.572,5.5 C84.572,4.804 84.884,4.456 85.508,4.456 L88.484,4.456 C88.76,4.456 88.976,4.54 89.132,4.708 C89.264,4.864 89.336,5.056 89.336,5.284 C89.336,5.512 89.264,5.692 89.12,5.848 C88.964,6.028 88.748,6.112 88.484,6.112 L86.372,6.112 L86.372,7.864 L88.34,7.864 C88.616,7.864 88.844,7.948 89,8.116 C89.144,8.272 89.216,8.464 89.216,8.692 C89.216,8.92 89.144,9.1 89,9.256 C88.832,9.436 88.616,9.52 88.34,9.52 L86.372,9.52 L86.372,11.344 L88.592,11.344 C88.868,11.344 89.084,11.428 89.24,11.596 C89.372,11.752 89.444,11.944 89.444,12.172 C89.444,12.4 89.372,12.58 89.228,12.736 C89.072,12.916 88.856,13 88.592,13 L85.496,13 C85.232,13 85.016,12.916 84.836,12.748 C84.656,12.58 84.572,12.364 84.572,12.1 Z M90.828,12.136 L90.828,5.392 C90.828,4.768 91.14,4.456 91.764,4.456 L93.888,4.456 C94.776,4.456 95.508,4.72 96.084,5.248 C96.672,5.788 96.96,6.472 96.96,7.324 C96.96,8.176 96.66,8.872 96.072,9.4 C95.508,9.916 94.812,10.168 93.96,10.168 L92.628,10.168 L92.628,12.136 C92.628,12.436 92.544,12.664 92.376,12.832 C92.208,12.988 91.992,13.072 91.728,13.072 C91.464,13.072 91.248,12.988 91.08,12.832 C90.912,12.664 90.828,12.436 90.828,12.136 Z M92.628,6.04 L92.628,8.584 L93.852,8.584 C94.224,8.584 94.524,8.464 94.752,8.212 C94.98,7.984 95.088,7.684 95.088,7.312 C95.088,6.94 94.98,6.64 94.752,6.4 C94.524,6.16 94.224,6.04 93.852,6.04 L92.628,6.04 Z M98.2,12.088 L98.2,5.356 C98.2,5.08 98.284,4.852 98.464,4.684 C98.644,4.528 98.872,4.456 99.148,4.456 L101.452,4.456 C102.088,4.456 102.628,4.648 103.048,5.032 C103.492,5.428 103.708,5.944 103.708,6.568 C103.708,7.396 103.336,7.984 102.592,8.332 L102.592,8.356 C103.108,8.428 103.54,8.656 103.888,9.04 C104.236,9.424 104.416,9.88 104.416,10.396 C104.416,11.224 104.164,11.872 103.648,12.328 C103.156,12.772 102.484,13 101.632,13 L99.16,13 C98.884,13 98.656,12.916 98.476,12.76 C98.296,12.592 98.2,12.364 98.2,12.088 Z M100,6.04 L100,7.84 L100.936,7.84 C101.236,7.84 101.464,7.756 101.644,7.588 C101.824,7.42 101.908,7.192 101.908,6.892 C101.908,6.616 101.812,6.412 101.62,6.256 C101.44,6.112 101.212,6.04 100.936,6.04 L100,6.04 Z M100,9.424 L100,11.416 L101.416,11.416 C101.752,11.416 102.016,11.32 102.22,11.14 C102.436,10.96 102.544,10.696 102.544,10.372 C102.544,9.736 102.124,9.424 101.272,9.424 L100,9.424 Z M113.156,5.32 L113.156,12.136 C113.156,12.436 113.072,12.664 112.904,12.832 C112.736,12.988 112.52,13.072 112.256,13.072 C111.992,13.072 111.776,12.988 111.608,12.832 C111.44,12.664 111.356,12.436 111.356,12.136 L111.356,7.66 L111.332,7.66 L107.444,12.676 C107.24,12.94 106.988,13.072 106.688,13.072 C106.424,13.072 106.208,12.988 106.04,12.832 C105.872,12.664 105.788,12.436 105.788,12.136 L105.788,5.32 C105.788,5.02 105.872,4.792 106.04,4.624 C106.208,4.468 106.424,4.384 106.688,4.384 C106.952,4.384 107.168,4.468 107.336,4.624 C107.504,4.792 107.588,5.02 107.588,5.32 L107.588,9.856 L107.612,9.856 L111.5,4.78 C111.704,4.516 111.956,4.384 112.256,4.384 C112.52,4.384 112.736,4.468 112.904,4.624 C113.072,4.792 113.156,5.02 113.156,5.32 Z M115.752,5.584 C116.532,4.732 117.516,4.312 118.728,4.312 C118.98,4.312 119.232,4.336 119.496,4.372 C119.82,4.42 120.096,4.492 120.348,4.588 C120.984,4.84 121.308,5.188 121.308,5.656 C121.308,5.884 121.236,6.064 121.104,6.22 C120.96,6.376 120.78,6.46 120.564,6.46 C120.456,6.46 120.348,6.436 120.216,6.4 L120.036,6.328 L119.844,6.244 C119.472,6.112 119.1,6.04 118.728,6.04 C118.02,6.04 117.456,6.316 117.048,6.856 C116.664,7.348 116.472,7.984 116.472,8.764 C116.472,9.52 116.664,10.132 117.048,10.624 C117.456,11.152 118.02,11.416 118.728,11.416 C119.1,11.416 119.484,11.332 119.88,11.164 C120.264,10.996 120.516,10.912 120.636,10.912 C120.876,10.912 121.08,11.008 121.236,11.212 C121.368,11.38 121.428,11.548 121.428,11.728 C121.428,12.232 121.092,12.616 120.408,12.868 C120.156,12.964 119.856,13.036 119.52,13.084 C119.244,13.12 118.98,13.144 118.728,13.144 C117.516,13.144 116.532,12.724 115.752,11.872 C114.984,11.032 114.6,9.988 114.6,8.728 C114.6,7.468 114.984,6.412 115.752,5.584 Z" id="СЕРВИС" fill="#FFFFFF"></path>
            </g>
        </g>
    </g>
</svg>