<?xml version="1.0" encoding="iso-8859-1"?>
<!-- Generator: Adobe Illustrator 19.2.1, SVG Export Plug-In . SVG Version: 6.00 Build 0)  -->
<svg version="1.1" id="&#x421;&#x43B;&#x43E;&#x439;_1"
	 xmlns="http://www.w3.org/2000/svg" xmlns:xlink="http://www.w3.org/1999/xlink" x="0px" y="0px" viewBox="0 0 463 463"
	 style="enable-background:new 0 0 463 463;" xml:space="preserve">
<style type="text/css">
	.st0{fill:#868686;}
</style>
<path class="st0" d="M372.96,351.14l-57.63-14.41l-17.29-17.29c-3.02-3.02-7.03-4.52-11.04-4.5v-13.95
	c2.61-1.83,5.16-3.79,7.63-5.87c3.1-0.62,24.42-5.02,46.1-12.91C374.56,269.9,391,255.93,391,239.5
	c0-95.67-22.2-164.24-65.97-203.81C290.68,4.64,251.69,0,231.5,0s-59.18,4.64-93.53,35.69C94.2,75.26,72,143.83,72,239.5
	c0,16.43,16.44,30.4,50.27,42.71c21.68,7.89,43,12.29,46.1,12.91c2.48,2.07,5.02,4.04,7.63,5.87v13.95
	c-4.01-0.02-8.03,1.48-11.04,4.5l-17.29,17.29l-57.63,14.41C65.29,357.32,48,379.46,48,404.98v34.52c0,12.96,10.54,23.5,23.5,23.5
	h320c12.96,0,23.5-10.54,23.5-23.5v-34.52C415,379.46,397.71,357.32,372.96,351.14z M287.43,330.04l14.27,14.27l-31.4,43.96
	c-0.03,0.05-0.13,0.17-0.34,0.2c-0.21,0.03-0.33-0.07-0.38-0.1l-26.33-21.07l43.5-37.29C286.95,329.85,287.25,329.86,287.43,330.04z
	 M135,183.5c0-17.56,3.14-35.01,9.12-50.92c16.93,7.96,45.1,16.98,78.01,24.84c37.5,8.96,75.55,15.12,105.76,17.16
	c0.06,3.54,0.11,7.37,0.11,8.91c0,36.16-12.82,68.65-33.09,90.75c-7.55,0.03-15.91-1.14-25.05-3.52c0.74-2.28,1.14-4.71,1.14-7.23
	c0-12.96-10.54-23.5-23.5-23.5S224,250.54,224,263.5s10.54,23.5,23.5,23.5c4.53,0,8.76-1.29,12.35-3.52
	c6.85,2.08,13.39,3.6,19.62,4.55C265.33,298.19,248.95,304,231.5,304C178.29,304,135,249.94,135,183.5L135,183.5z M123.25,216H111.5
	c-0.28,0-0.5-0.22-0.5-0.5v-40c0-0.28,0.22-0.5,0.5-0.5h8.72c-0.15,2.83-0.22,5.66-0.22,8.5C120,194.7,121.13,205.58,123.25,216z
	 M323.11,266.17c-1.72,1.22-3.54,2.3-5.45,3.24c7.71-11.4,13.92-24.35,18.26-38.41h7.17C341.4,240.5,336.61,256.58,323.11,266.17z
	 M352,215.5c0,0.28-0.22,0.5-0.5,0.5h-11.75c2.12-10.42,3.25-21.3,3.25-32.5c0-1.35-0.04-4.77-0.09-8.2h8.59
	c0.28,0,0.5,0.22,0.5,0.5V215.5z M247.5,272c-4.69,0-8.5-3.81-8.5-8.5s3.81-8.5,8.5-8.5s8.5,3.81,8.5,8.5S252.19,272,247.5,272z
	 M87,239.5c0-91.25,20.53-156.08,61.03-192.69C178.65,19.13,213.47,15,231.5,15s52.85,4.13,83.47,31.81
	C355.47,83.42,376,148.25,376,239.5c0,8.45-12.95,17.14-30.17,24.53c8.78-12.75,11.71-27.02,12.68-34.72
	c5.03-2.57,8.49-7.78,8.49-13.8v-39.7c0-8.55-6.95-15.5-15.5-15.5h-14.22c-0.55-0.16-1.12-0.26-1.72-0.29
	c-64.85-3.11-162.85-27.61-191.48-44.33c-1.84-1.07-4.05-1.32-6.08-0.66c-2.03,0.65-3.68,2.14-4.55,4.08
	c-5.7,12.78-9.65,26.64-11.73,40.9H111.5c-8.55,0-15.5,6.95-15.5,15.5v40c0,8.55,6.95,15.5,15.5,15.5h15.58
	c5.1,16.49,12.76,31.46,22.41,44.19C119.16,266.73,87,252.82,87,239.5L87,239.5z M231.5,319c14.28,0,27.94-3.28,40.5-9.26v13.16
	l-40.5,34.71L191,322.91v-13.16C203.56,315.72,217.22,319,231.5,319L231.5,319z M175.57,330.04c0.18-0.18,0.48-0.2,0.68-0.03
	l43.5,37.29l-26.33,21.07c-0.05,0.04-0.17,0.14-0.38,0.11c-0.21-0.03-0.3-0.16-0.34-0.2l-31.4-43.96L175.57,330.04L175.57,330.04z
	 M93.68,365.69l54.69-13.67l32.12,44.97c2.46,3.45,6.28,5.76,10.48,6.34c0.7,0.1,1.41,0.15,2.11,0.15c3.5,0,6.95-1.19,9.7-3.39
	L224,383.11v40.39c0,4.14,3.36,7.5,7.5,7.5s7.5-3.36,7.5-7.5v-40.39l21.22,16.98c2.76,2.2,6.2,3.39,9.7,3.39
	c0.7,0,1.41-0.05,2.11-0.15c4.2-0.58,8.02-2.89,10.48-6.34l32.12-44.97l54.69,13.67c1.61,0.4,3.17,0.9,4.69,1.48l-28.86,34.63
	c-5.9,7.08-9.15,16.07-9.15,25.29V448H127v-20.92c0-9.22-3.25-18.2-9.15-25.29l-28.86-34.63C90.5,366.59,92.07,366.09,93.68,365.69
	L93.68,365.69z M63,439.5v-34.52c0-11.67,4.96-22.37,13.1-29.84l30.22,36.27c3.66,4.39,5.68,9.96,5.68,15.68V448H71.5
	C66.81,448,63,444.19,63,439.5L63,439.5z M400,439.5c0,4.69-3.81,8.5-8.5,8.5H351v-20.92c0-5.72,2.02-11.29,5.68-15.68l30.22-36.27
	c8.14,7.48,13.1,18.17,13.1,29.84L400,439.5L400,439.5z"/>
</svg>
