<svg xmlns="http://www.w3.org/2000/svg" width="40" height="40" viewBox="0 0 40 40">
  <defs>
    <style>
      .cls-1 {
        fill-rule: evenodd;
        opacity: 0.6;
      }
    </style>
  </defs>
  <path id="Forma_1" data-name="Forma 1" class="cls-1" d="M5566.14,1109.86A19.99,19.99,0,1,0,5572,1124,19.864,19.864,0,0,0,5566.14,1109.86Zm-0.92,27.37a18.71,18.71,0,1,1,5.48-13.23A18.577,18.577,0,0,1,5565.22,1137.23ZM5552,1107.46a16.54,16.54,0,1,0,16.54,16.54A16.561,16.561,0,0,0,5552,1107.46Zm8.17,29.4-0.35-.61a0.654,0.654,0,0,0-.89-0.24,0.642,0.642,0,0,0-.24.88l0.36,0.62a14.915,14.915,0,0,1-6.41,1.72v-2.1a0.645,0.645,0,1,0-1.29,0v2.1a14.915,14.915,0,0,1-6.41-1.72l0.36-.62a0.645,0.645,0,0,0-1.12-.64l-0.36.61a15.4,15.4,0,0,1-4.69-4.68l0.62-.36a0.648,0.648,0,1,0-.65-1.12l-0.62.35a15.2,15.2,0,0,1-1.72-6.4h2.11a0.65,0.65,0,0,0,0-1.3h-2.11a15.282,15.282,0,0,1,1.72-6.41l0.62,0.36a0.656,0.656,0,0,0,.33.09,0.663,0.663,0,0,0,.56-0.32,0.654,0.654,0,0,0-.24-0.89l-0.62-.36a15.541,15.541,0,0,1,4.69-4.69l0.36,0.62a0.651,0.651,0,0,0,.56.33,0.62,0.62,0,0,0,.32-0.09,0.642,0.642,0,0,0,.24-0.88l-0.36-.63a15.048,15.048,0,0,1,6.41-1.71v2.1a0.645,0.645,0,1,0,1.29,0v-2.1a15.048,15.048,0,0,1,6.41,1.71l-0.36.63a0.642,0.642,0,0,0,.24.88,0.62,0.62,0,0,0,.32.09,0.639,0.639,0,0,0,.56-0.33l0.36-.62a15.429,15.429,0,0,1,4.69,4.69l-0.62.36a0.647,0.647,0,0,0,.33,1.21,0.62,0.62,0,0,0,.32-0.09l0.62-.36a15.282,15.282,0,0,1,1.72,6.41h-2.1a0.65,0.65,0,1,0,0,1.3h2.1a15.2,15.2,0,0,1-1.72,6.4l-0.62-.35a0.651,0.651,0,0,0-.89.23,0.663,0.663,0,0,0,.24.89l0.62,0.36A15.287,15.287,0,0,1,5560.17,1136.86Zm-5.85-11.45a2.707,2.707,0,0,0-1.68-4.05v-2.2a0.645,0.645,0,1,0-1.29,0v2.2a2.535,2.535,0,0,0-.76.31l-4.36-4.35a0.646,0.646,0,0,0-.91,0,0.658,0.658,0,0,0,0,.92l4.35,4.35a2.725,2.725,0,0,0,1.68,4.05v7.73a0.645,0.645,0,0,0,1.29,0v-7.73a2.593,2.593,0,0,0,.77-0.31l0.89,0.89a0.652,0.652,0,0,0,.92,0,0.646,0.646,0,0,0,0-.91Zm-3.75-1.41a1.425,1.425,0,1,1,1.43,1.43A1.43,1.43,0,0,1,5550.57,1124Z" transform="translate(-5532 -1104)"/>
</svg>
