<?xml version="1.0" encoding="UTF-8"?>
<svg width="112px" height="17px" viewBox="0 0 112 17" version="1.1" xmlns="http://www.w3.org/2000/svg" xmlns:xlink="http://www.w3.org/1999/xlink">
    <!-- Generator: Sketch 52 (66869) - http://www.bohemiancoding.com/sketch -->
    <title>tp</title>
    <desc>Created with Sketch.</desc>
    <g id="Page-1" stroke="none" stroke-width="1" fill="none" fill-rule="evenodd">
        <g id="Artboard" transform="translate(-625.000000, -172.000000)">
            <g id="tp" transform="translate(625.000000, 172.000000)">
                <path d="M39.9563788,0.0185389949 L43.9520167,0.0185389949 L43.9520167,14.8659661 C43.9520167,15.7286607 43.452562,16.5005453 42.7260824,16.8183801 C42.4990575,16.90919 42.2266276,17 41.9541978,17 C41.4093381,17 40.9098833,16.7729751 40.5466435,16.3643303 L27.1521756,6.2390207 L27.1521756,17 L23.1565377,17 L23.1565377,2.10716789 C23.1565377,1.24447335 23.6559925,0.472588754 24.3824721,0.154753923 C25.1543567,-0.163080909 26.0170512,0.0185389949 26.5619109,0.608803682 L39.9563788,10.7341133 L39.9563788,0.0185389949 Z M64.8837106,7.96440979 C64.4296609,7.46495505 63.8848012,7.10171524 63.2945365,6.82928539 C62.6588668,6.55685553 62.0231971,6.4206406 61.3421225,6.4206406 L50.6265482,6.4206406 C50.0362835,6.4206406 49.5822337,5.92118587 49.5822337,5.33092118 C49.5822337,4.74065649 50.0362835,4.24120176 50.6265482,4.24120176 L63.3399414,4.24120176 C64.4296609,4.24120176 65.3377604,3.28769726 65.3377604,2.15257286 C65.3377604,0.97204349 64.4296609,0.0639439708 63.3399414,0.0639439708 L50.6265482,0.0639439708 C49.9454735,0.0639439708 49.2643989,0.200158899 48.6741342,0.472588754 C48.0838695,0.74501861 47.5390098,1.10825842 47.0849601,1.60771315 C46.6309103,2.10716789 46.2676705,2.6520276 45.9952406,3.28769726 C45.7228108,3.92336693 45.5865959,4.64984654 45.5865959,5.33092118 C45.5865959,6.0574008 45.7228108,6.73847544 45.9952406,7.3741451 C46.2676705,8.00981476 46.6309103,8.55467447 47.0849601,9.05412921 C47.5390098,9.55358394 48.0838695,9.91682375 48.6741342,10.1892536 C49.3098039,10.4616835 49.9454735,10.5978984 50.6265482,10.5978984 L61.3421225,10.5978984 C61.9323872,10.5978984 62.386437,11.0973531 62.386437,11.6876178 C62.386437,12.2778825 61.9323872,12.7773372 61.3421225,12.7773372 L47.5844148,12.7773372 C46.4946954,12.7773372 45.5865959,13.7308417 45.5865959,14.8659661 C45.5865959,16.0464955 46.4946954,16.954595 47.5844148,16.954595 L61.3421225,16.954595 C62.0231971,16.954595 62.7042718,16.8183801 63.2945365,16.5459502 C63.8848012,16.2735204 64.4296609,15.9102806 64.8837106,15.4108258 C65.3377604,14.9113711 65.7010002,14.3665114 65.9734301,13.7308417 C66.2458599,13.0951721 66.3820748,12.3686925 66.3820748,11.6876178 C66.3820748,11.0065432 66.2458599,10.2800636 65.9734301,9.6443939 C65.7010002,9.00872423 65.3377604,8.41845955 64.8837106,7.96440979 Z M20.840884,8.5092695 C20.840884,13.185982 17.2084859,17 12.7587982,17 L3.31456324,17 L1.49836421,17 L6.39488462e-14,17 L6.39488462e-14,8.5092695 L6.39488462e-14,0.0185389949 L12.7133933,0.0185389949 C17.2084859,0.0185389949 20.840884,3.83255697 20.840884,8.5092695 Z M16.981461,8.87250931 C16.981461,7.73738491 16.7090311,6.10280577 15.9371466,5.28551621 C15.165262,4.46822664 13.9393276,3.74174702 12.8042032,3.74174702 L3.85942296,3.74174702 L3.85942296,8.87250931 L3.85942296,13.0951721 L12.8042032,13.0951721 C13.9393276,13.0951721 14.9836421,12.6411223 15.7555267,11.8692377 C16.5274112,11.0973531 16.981461,10.0076337 16.981461,8.87250931 Z" id="SVGID_1_-Copy-3" fill="#F28A1E"></path>
                <rect id="Rectangle-Copy" fill="#000000" fill-rule="nonzero" x="70" y="0" width="42" height="17" rx="2"></rect>
                <path d="M75.54,12.208 L75.54,5.272 C75.54,5.02 75.624,4.816 75.792,4.648 C75.96,4.468 76.176,4.384 76.44,4.384 C76.704,4.384 76.92,4.468 77.088,4.624 C77.256,4.78 77.34,4.996 77.34,5.272 L77.34,7.864 L80.292,4.72 C80.376,4.624 80.472,4.552 80.568,4.492 C80.7,4.42 80.832,4.384 80.988,4.384 C81.228,4.384 81.432,4.468 81.6,4.624 C81.78,4.792 81.876,4.996 81.876,5.248 C81.876,5.5 81.684,5.812 81.288,6.208 L79.02,8.44 L81.792,11.332 C82.128,11.68 82.296,11.992 82.296,12.244 C82.296,12.508 82.2,12.712 82.008,12.868 C81.84,13 81.624,13.072 81.36,13.072 C81.108,13.072 80.796,12.88 80.448,12.508 L77.34,9.148 L77.34,12.208 C77.34,12.448 77.256,12.652 77.088,12.82 C76.92,12.988 76.704,13.072 76.44,13.072 C76.176,13.072 75.96,12.988 75.792,12.832 C75.624,12.676 75.54,12.472 75.54,12.208 Z M91.24,5.392 L91.24,12.136 C91.24,12.436 91.156,12.664 90.988,12.832 C90.82,12.988 90.604,13.072 90.34,13.072 C90.076,13.072 89.86,12.988 89.692,12.832 C89.524,12.664 89.44,12.436 89.44,12.136 L89.44,6.04 L87.064,6.04 L87.064,8.728 C87.064,10.444 86.62,11.68 85.72,12.46 C85.24,12.868 84.76,13.072 84.292,13.072 C84.016,13.072 83.812,12.988 83.668,12.808 C83.536,12.652 83.476,12.472 83.476,12.244 C83.476,11.896 83.704,11.608 84.148,11.404 C84.448,11.272 84.7,11.02 84.904,10.66 C85.144,10.24 85.264,9.712 85.264,9.088 L85.264,5.392 C85.264,5.104 85.348,4.876 85.528,4.696 C85.684,4.54 85.9,4.456 86.164,4.456 L90.34,4.456 C90.604,4.456 90.82,4.54 90.976,4.696 C91.156,4.876 91.24,5.104 91.24,5.392 Z M99.104,5.656 L95.948,12.544 C95.78,12.892 95.528,13.072 95.18,13.072 C94.928,13.072 94.712,12.988 94.52,12.832 C94.316,12.664 94.22,12.46 94.22,12.208 C94.22,12.088 94.256,11.956 94.316,11.8 L95.012,10.276 L92.78,5.668 C92.72,5.536 92.684,5.404 92.684,5.248 C92.684,5.008 92.78,4.804 92.984,4.624 C93.176,4.468 93.392,4.384 93.644,4.384 C93.992,4.384 94.244,4.564 94.412,4.912 L95.996,8.14 L97.472,4.912 C97.628,4.564 97.892,4.384 98.264,4.384 C98.504,4.384 98.72,4.468 98.912,4.624 C99.104,4.792 99.2,4.996 99.2,5.248 C99.2,5.368 99.164,5.5 99.104,5.656 Z M102.552,9.424 L102.552,11.416 L103.968,11.416 C104.304,11.416 104.568,11.32 104.772,11.14 C104.988,10.96 105.096,10.696 105.096,10.372 C105.096,9.736 104.676,9.424 103.824,9.424 L102.552,9.424 Z M106.2,12.328 C105.708,12.772 105.036,13 104.184,13 L101.712,13 C101.436,13 101.208,12.916 101.028,12.76 C100.848,12.592 100.752,12.364 100.752,12.088 L100.752,5.356 C100.752,5.08 100.836,4.852 101.016,4.684 C101.196,4.528 101.424,4.456 101.7,4.456 L105.276,4.456 C105.552,4.456 105.768,4.54 105.924,4.708 C106.056,4.864 106.128,5.056 106.128,5.284 C106.128,5.512 106.056,5.692 105.912,5.848 C105.756,6.028 105.54,6.112 105.276,6.112 L102.552,6.112 L102.552,7.84 L103.968,7.84 C104.892,7.84 105.6,8.044 106.116,8.44 C106.68,8.884 106.968,9.532 106.968,10.396 C106.968,11.224 106.716,11.872 106.2,12.328 Z" id="КЛУБ" fill="#FFFFFF"></path>
            </g>
        </g>
    </g>
</svg>