<?xml version="1.0" encoding="iso-8859-1"?>
<!-- Generator: Adobe Illustrator 19.2.1, SVG Export Plug-In . SVG Version: 6.00 Build 0)  -->
<svg version="1.1" id="&#x421;&#x43B;&#x43E;&#x439;_1"
	 xmlns="http://www.w3.org/2000/svg" xmlns:xlink="http://www.w3.org/1999/xlink" x="0px" y="0px" viewBox="0 0 463 463"
	 style="enable-background:new 0 0 463 463;" xml:space="preserve">
<style type="text/css">
	.st0{fill:#868686;}
</style>
<g>
	<path class="st0" d="M135.5,296c-12.96,0-23.5,10.54-23.5,23.5s10.54,23.5,23.5,23.5s23.5-10.54,23.5-23.5S148.46,296,135.5,296z
		 M135.5,328c-4.69,0-8.5-3.81-8.5-8.5s3.81-8.5,8.5-8.5s8.5,3.81,8.5,8.5S140.19,328,135.5,328z"/>
	<path class="st0" d="M359.5,296c-12.96,0-23.5,10.54-23.5,23.5s10.54,23.5,23.5,23.5s23.5-10.54,23.5-23.5S372.46,296,359.5,296z
		 M359.5,328c-4.69,0-8.5-3.81-8.5-8.5s3.81-8.5,8.5-8.5s8.5,3.81,8.5,8.5S364.19,328,359.5,328z"/>
	<path class="st0" d="M455,281.94v-57.79c0-6.99-1.86-13.87-5.38-19.9l-42.38-84.65c-7.05-12.09-20.13-19.6-34.12-19.6H319.5
		c-8.55,0-15.5,6.95-15.5,15.5V264h-17V51.5c0-12.96-10.54-23.5-23.5-23.5h-240C10.54,28,0,38.54,0,51.5v252
		C0,316.46,10.54,327,23.5,327h57.02c3.68,27.07,26.92,48,54.98,48s51.3-20.93,54.98-48h114.04c3.67,27.07,26.92,48,54.98,48
		s51.3-20.93,54.98-48h33.02c8.55,0,15.5-6.95,15.5-15.5v-16C463,289.67,459.77,284.59,455,281.94L455,281.94z M431.5,280
		c-8.55,0-15.5,6.95-15.5,15.5V312h-1.52c-3.67-27.07-26.92-48-54.98-48c-15.96,0-30.37,6.78-40.5,17.61V223h62.56
		c4.41,0,8.55,1.72,11.67,4.83l9.94,9.94c5.95,5.95,13.86,9.23,22.27,9.23H440v33L431.5,280L431.5,280z M440,224.15V232h-14.56
		c-4.41,0-8.55-1.72-11.67-4.83l-9.94-9.94c-5.95-5.95-13.86-9.23-22.27-9.23H319v-61h86.86l30.8,64.81
		C438.85,215.55,440,219.82,440,224.15L440,224.15z M319.5,115h53.62c8.68,0,16.79,4.66,21.16,12.15l2.83,4.85H319v-16.5
		C319,115.22,319.22,115,319.5,115L319.5,115z M304,279v33h-17v-33H304z M15,247h17v24.5c0,4.69-3.81,8.5-8.5,8.5H15V247z M15,303.5
		V295h8.5c12.96,0,23.5-10.54,23.5-23.5v-32c0-4.14-3.36-8.5-7.5-8.5L15,232V51.5c0-4.69,3.81-8.5,8.5-8.5h240
		c4.69,0,8.5,3.81,8.5,8.5V312h-81.52c-3.68-27.07-26.92-48-54.98-48s-51.31,20.93-54.98,48H23.5C18.81,312,15,308.19,15,303.5z
		 M135.5,360c-22.32,0-40.49-18.15-40.5-40.47c0-0.01,0-0.02,0-0.03s0-0.02,0-0.03c0.01-22.32,18.18-40.47,40.5-40.47
		c22.33,0,40.5,18.17,40.5,40.5S157.83,360,135.5,360z M359.5,360c-22.33,0-40.5-18.17-40.5-40.5s18.17-40.5,40.5-40.5
		s40.5,18.17,40.5,40.5S381.83,360,359.5,360z M448,311.5c0,0.28-0.22,0.5-0.5,0.5H431v-16.5c0-0.28,0.22-0.5,0.5-0.5h16
		c0.28,0,0.5,0.22,0.5,0.5V311.5z"/>
	<path class="st0" d="M213.39,162l-27.2,27.2c-2.93,2.93-2.93,7.68,0,10.61c1.46,1.46,3.38,2.2,5.3,2.2s3.84-0.73,5.3-2.2l40-40
		c0.15-0.15,0.29-0.31,0.42-0.46c0.02-0.03,0.05-0.05,0.07-0.08c0.21-0.26,0.4-0.53,0.57-0.81c0.04-0.06,0.07-0.12,0.1-0.17
		c0.17-0.29,0.32-0.59,0.45-0.89c0,0,0-0.01,0.01-0.01c0,0,0,0,0,0c0.13-0.32,0.23-0.64,0.32-0.97c0.02-0.07,0.03-0.13,0.05-0.2
		c0.07-0.32,0.14-0.65,0.17-0.98c0-0.01,0-0.01,0-0.01c0.03-0.32,0.03-0.64,0.02-0.96c0-0.08-0.01-0.15-0.01-0.23
		c-0.02-0.32-0.06-0.65-0.12-0.97c0-0.01,0-0.01-0.01-0.02c-0.06-0.32-0.15-0.63-0.26-0.93c-0.02-0.06-0.04-0.12-0.06-0.18
		c-0.23-0.62-0.54-1.2-0.93-1.75c-0.04-0.06-0.09-0.13-0.14-0.19c-0.2-0.26-0.42-0.52-0.66-0.77l-40-40
		c-2.93-2.93-7.68-2.93-10.61,0c-2.93,2.93-2.93,7.68,0,10.61l27.2,27.2H55.5c-4.14,0-7.5,3.36-7.5,7.5s3.36,7.5,7.5,7.5H213.39z"/>
</g>
</svg>
