<svg id="Группа_34" data-name="Группа 34" xmlns="http://www.w3.org/2000/svg" width="27" height="24" viewBox="0 0 27 24">
  <defs>
    <style>
      .cls-1 {
        fill: #f7941d;
      }

      .cls-1, .cls-2, .cls-3 {
        fill-rule: evenodd;
      }

      .cls-2 {
        fill: #fcb116;
      }
    </style>
  </defs>
  <path id="Forma_1_copy_6" data-name="Forma 1 copy 6" class="cls-1" d="M2915.99,773.468a0.861,0.861,0,0,0-.96-0.471h-23.08a0.861,0.861,0,0,0-.96.471v13.058a0.862,0.862,0,0,0,.96.471h23.08a0.862,0.862,0,0,0,.96-0.471V773.468h0Z" transform="translate(-2890 -768)"/>
  <path id="Forma_1_copy_6-2" data-name="Forma 1 copy 6" class="cls-2" d="M2915.99,773.333a0.96,0.96,0,0,0-.96-0.336h-23.08a0.96,0.96,0,0,0-.96.336v9.327a0.958,0.958,0,0,0,.96.337h23.08a0.958,0.958,0,0,0,.96-0.337v-9.327h0Z" transform="translate(-2890 -768)"/>
  <path id="Forma_1" data-name="Forma 1" class="cls-3" d="M2916.12,772.48h-10.35l3.77-2.924a0.874,0.874,0,0,0-1.07-1.381l-4.98,3.859-4.97-3.859a0.877,0.877,0,0,0-1.08,1.381l3.77,2.924h-10.35a0.871,0.871,0,0,0-.87.874v14.814a0.872,0.872,0,0,0,.87.875h2.45v2.079a0.874,0.874,0,0,0,.88.875h18.6a0.874,0.874,0,0,0,.88-0.875v-2.079h2.45a0.872,0.872,0,0,0,.87-0.875V773.354A0.874,0.874,0,0,0,2916.12,772.48Zm-4.2,17.768h-16.86v-1.205h16.86v1.205h0Zm3.32-2.954h-23.5V774.233h23.5v13.061h0Z" transform="translate(-2890 -768)"/>
</svg>
