<svg width="80" height="13" viewBox="0 0 80 13" fill="none" xmlns="http://www.w3.org/2000/svg">
<g clip-path="url(#clip0)">
<path d="M5.31062 8.60576C5.42068 8.88267 5.38579 9.23755 5.33209 9.45263C5.23814 9.83439 4.98042 10.2242 4.21801 10.2242C3.50393 10.2242 3.06903 9.8102 3.06903 9.18647V8.07613H0.000610352V8.95795C0.000610352 11.512 2.00596 12.2836 4.15627 12.2836C6.22336 12.2836 7.92535 11.5792 8.19649 9.66771C8.33609 8.67835 8.23408 8.03043 8.18575 7.79116C7.70254 5.39304 3.36433 4.67791 3.0395 3.33637C2.9944 3.13853 2.99074 2.93347 3.02876 2.73415C3.1093 2.36583 3.35896 1.96525 4.07305 1.96525C4.74418 1.96525 5.13344 2.37927 5.13344 3.003V3.71275H7.9871V2.90621C7.9871 0.411312 5.75088 0.0214844 4.13479 0.0214844C2.09992 0.0214844 0.438189 0.69629 0.134837 2.56477C0.054301 3.07558 0.0408784 3.53262 0.161682 4.10796C0.658321 6.44692 4.72002 7.12442 5.31062 8.60576Z" fill="#034EA2"/>
<path d="M42.5104 8.60576C42.6205 8.88267 42.5856 9.23755 42.5319 9.45263C42.438 9.83439 42.1802 10.2242 41.4178 10.2242C40.7038 10.2242 40.2689 9.8102 40.2689 9.18647V8.07613H37.2004V8.95795C37.2004 11.512 39.2058 12.2836 41.3561 12.2836C43.4232 12.2836 45.1252 11.5792 45.3963 9.66771C45.5359 8.67835 45.4339 8.03043 45.3856 7.79116C44.9024 5.39304 40.5642 4.67791 40.2393 3.33637C40.1942 3.13853 40.1906 2.93347 40.2286 2.73415C40.3091 2.36583 40.5588 1.96525 41.2729 1.96525C41.944 1.96525 42.3333 2.37927 42.3333 3.003V3.71275H45.1869V2.90621C45.1869 0.411312 42.9507 0.0214844 41.3346 0.0214844C39.2997 0.0214844 37.638 0.69629 37.3347 2.56477C37.2541 3.07558 37.2407 3.53262 37.3615 4.10796C37.8582 6.44692 41.9198 7.12442 42.5104 8.60576Z" fill="#034EA2"/>
<path d="M12.2421 0.387454L10.1213 11.8376H13.2112L14.7763 1.44671H14.8407L16.3629 11.8376H19.4367L17.3293 0.384766L12.2421 0.387454ZM29.5171 0.387454L28.1077 9.1411H28.0406L26.6339 0.387454H21.9709L21.7185 11.8376H24.5802L24.65 1.54349H24.7145L26.6232 11.8376H29.5251L31.4365 1.54618H31.4983L31.5708 11.8376H34.4298L34.1774 0.384766L29.5171 0.387454Z" fill="#034EA2"/>
<path d="M52.0808 10.122C52.8754 10.122 53.1197 9.57355 53.1761 9.29395C53.2003 9.17028 53.2029 9.0036 53.2029 8.85573V0.387058H56.0969V8.59495C56.0974 8.84612 56.0885 9.09723 56.07 9.34772C55.8687 11.4851 54.1828 12.1787 52.0808 12.1787C49.9761 12.1787 48.2902 11.4851 48.0889 9.34772C48.0809 9.23481 48.0594 8.80465 48.0621 8.59495V0.384369H50.956V8.85304C50.9533 9.0036 50.9587 9.17028 50.9828 9.29395C51.0365 9.57355 51.2835 10.122 52.0808 10.122ZM66.0618 0.387058L66.2175 9.37461H66.1558L63.525 0.387058H59.2834V11.7163H62.0941L61.9384 2.41685H62.0001L64.8216 11.7163H68.894V0.387058H66.0618ZM75.9275 10.0037C76.7543 10.0037 77.0443 9.47946 77.0953 9.17028C77.1194 9.04392 77.1221 8.88262 77.1221 8.74013V7.07328H75.949V5.40643H79.9999V8.47666C79.9999 8.69174 79.9946 8.84767 79.9597 9.22943C79.7717 11.3157 77.9651 12.0604 75.9382 12.0604C73.9114 12.0604 72.1074 11.3157 71.9168 9.22943C71.8846 8.84767 71.8765 8.69174 71.8765 8.47666V3.65892C71.8765 3.4546 71.9034 3.09434 71.9249 2.90615C72.1799 0.763443 73.9114 0.0751953 75.9382 0.0751953C77.9651 0.0751953 79.7422 0.758066 79.9516 2.90346C79.9892 3.2691 79.9785 3.65623 79.9785 3.65623V4.04069H77.0953V3.39814C77.0953 3.39814 77.0953 3.1293 77.0604 2.96261C77.0067 2.70989 76.7919 2.12918 75.9168 2.12918C75.0846 2.12918 74.8403 2.68032 74.7785 2.96261C74.7436 3.11316 74.7302 3.31749 74.7302 3.50299V8.73744C74.7302 8.88262 74.7356 9.04393 74.757 9.17297C74.8107 9.47946 75.1007 10.0037 75.9275 10.0037Z" fill="#034EA2"/>
</g>
<defs>
<clipPath id="clip0">
<rect width="80" height="12.2846" fill="white"/>
</clipPath>
</defs>
</svg>
