<svg width="25" height="40" viewBox="0 0 25 40" fill="none" xmlns="http://www.w3.org/2000/svg">
<path d="M13.3839 35.8839C13.872 35.3957 13.872 34.6043 13.3839 34.1161C12.8957 33.628 12.1043 33.628 11.6161 34.1161C11.1279 34.6043 11.1279 35.3957 11.6161 35.8839C12.1043 36.3721 12.8957 36.3721 13.3839 35.8839Z" fill="#CCCCCC"/>
<path fill-rule="evenodd" clip-rule="evenodd" d="M3.75 0H21.25C23.3179 0 25 1.68212 25 3.75V36.25C25 38.3179 23.3179 40 21.25 40H3.75C1.68212 40 0 38.3179 0 36.25V3.75C0 1.68212 1.68212 0 3.75 0ZM21.25 2.5H3.75C3.0603 2.5 2.5 3.0603 2.5 3.75V30H22.5V3.75C22.5 3.0603 21.9397 2.5 21.25 2.5ZM3.75 37.5H21.25C21.9397 37.5 22.5 36.9397 22.5 36.25V32.5H2.5V36.25C2.5 36.9397 3.0603 37.5 3.75 37.5Z" fill="#CCCCCC"/>
</svg>
