<svg width="30" height="30" viewBox="0 0 30 30" fill="none" xmlns="http://www.w3.org/2000/svg">
<g clip-path="url(#clip0)">
<path fill-rule="evenodd" clip-rule="evenodd" d="M28.8576 29.998H1.13628C0.507285 29.998 -0.00256348 29.4882 -0.00256348 28.8591V1.13588C-0.00256348 0.506844 0.507285 -0.0027523 1.13628 -0.0027523H28.8576C29.4866 -0.0027523 29.9964 0.506844 29.9964 1.13588V28.8591C29.9964 29.4882 29.4866 29.998 28.8576 29.998Z" fill="#FF6700"/>
<path d="M23.521 9.43273H21.1609C21.0598 9.43273 20.978 9.51311 20.978 9.61216V20.381C20.978 20.4792 21.0598 20.5596 21.1609 20.5596H23.521C23.6212 20.5596 23.7041 20.4792 23.7041 20.381V9.61216C23.7041 9.51311 23.6212 9.43273 23.521 9.43273Z" fill="white"/>
<path d="M15.4622 9.43176H6.47228C6.37122 9.43176 6.28998 9.51215 6.28998 9.6112V20.38C6.28998 20.4782 6.37122 20.5586 6.47228 20.5586H8.83294C8.93342 20.5586 9.01668 20.4782 9.01668 20.38V11.9281C9.01668 11.8305 9.09791 11.7495 9.19896 11.7495H14.284C15.714 11.7495 16.1199 12.8448 16.1199 13.5514V20.38C16.1199 20.4782 16.202 20.5586 16.3031 20.5586H18.6623C18.7628 20.5586 18.8451 20.4782 18.8451 20.38V12.7406C18.8451 12.1104 18.7694 11.2043 17.9563 10.4067C17.1057 9.57416 16.3297 9.43176 15.4622 9.43176Z" fill="white"/>
<path d="M13.8086 13.7224H11.3302C11.2291 13.7224 11.1462 13.8028 11.1462 13.9013V20.3823C11.1462 20.4802 11.2291 20.5605 11.3302 20.5605H13.8086C13.9087 20.5605 13.9909 20.4802 13.9909 20.3823V13.9013C13.9909 13.8028 13.9087 13.7224 13.8086 13.7224Z" fill="white"/>
</g>
<defs>
<clipPath id="clip0">
<rect width="30" height="30" fill="white"/>
</clipPath>
</defs>
</svg>
