<svg width="80" height="16" viewBox="0 0 80 16" fill="none" xmlns="http://www.w3.org/2000/svg">
<g clip-path="url(#clip0)">
<path fill-rule="evenodd" clip-rule="evenodd" d="M22.7811 0C26.9652 0 30.3571 3.39192 30.3571 7.57606C30.3571 11.7602 26.9652 15.1521 22.7811 15.1521C18.5969 15.1521 15.205 11.7602 15.205 7.57606C15.205 3.39192 18.5969 0 22.7811 0ZM22.7811 2.62481C25.5157 2.62481 27.7323 4.84147 27.7323 7.57606C27.7323 10.3106 25.5157 12.5273 22.7811 12.5273C20.0465 12.5273 17.8298 10.3106 17.8298 7.57606C17.8298 4.84147 20.0465 2.62481 22.7811 2.62481Z" fill="black"/>
<path d="M11.4684 15.1519H8.60105V8.83887H2.86682V15.1519H0V0.234042H2.86682V5.972H8.60105V0.232422L11.4684 0.234744V15.1519Z" fill="black"/>
<path d="M45.5831 15.1526H43.3748L37.0046 5.7577V15.1526H34.2127V0.275362H36.4601L42.8807 9.19638L42.7959 0.235352C43.7251 0.235352 44.654 0.235352 45.5831 0.235352V15.1526Z" fill="black"/>
<path d="M68.3724 0.235352H74.641C76.1383 0.235352 77.3955 1.2024 77.8883 1.77335C78.302 2.25245 79.0035 3.45022 79.0035 4.78844C79.0035 5.55225 78.9171 6.76185 78.3941 7.62664C77.9073 8.43154 76.9216 9.34228 75.7955 9.61409L80 15.1526H76.6443L71.0392 8.64277V15.1526H68.3723V0.235352H68.3724ZM71.2422 2.82048V7.19781H73.6946C75.3973 7.19781 76.189 6.16909 76.2148 4.97785C76.2381 3.89088 75.1066 2.81384 73.9679 2.81562L71.2422 2.82048Z" fill="black"/>
<path fill-rule="evenodd" clip-rule="evenodd" d="M57.0145 0C61.1986 0 64.5905 3.39192 64.5905 7.57606C64.5905 11.7602 61.1986 15.1521 57.0145 15.1521C52.8303 15.1521 49.4384 11.7602 49.4384 7.57606C49.4384 3.39192 52.8303 0 57.0145 0ZM57.0145 2.62481C59.7491 2.62481 61.9657 4.84147 61.9657 7.57606C61.9657 10.3106 59.7491 12.5273 57.0145 12.5273C54.2799 12.5273 52.0632 10.3106 52.0632 7.57606C52.0632 4.84147 54.2799 2.62481 57.0145 2.62481Z" fill="black"/>
</g>
<defs>
<clipPath id="clip0">
<rect width="80" height="15.1522" fill="white"/>
</clipPath>
</defs>
</svg>
