<svg width="33" height="40" viewBox="0 0 33 40" fill="none" xmlns="http://www.w3.org/2000/svg">
<path d="M28.2031 5.9375C28.2031 6.58471 27.6785 7.10938 27.0312 7.10938C26.384 7.10938 25.8594 6.58471 25.8594 5.9375C25.8594 5.29029 26.384 4.76562 27.0312 4.76562C27.6785 4.76562 28.2031 5.29029 28.2031 5.9375Z" fill="#CCCCCC"/>
<path d="M22.3438 7.10938C22.991 7.10938 23.5156 6.58471 23.5156 5.9375C23.5156 5.29029 22.991 4.76562 22.3438 4.76562C21.6965 4.76562 21.1719 5.29029 21.1719 5.9375C21.1719 6.58471 21.6965 7.10938 22.3438 7.10938Z" fill="#CCCCCC"/>
<path d="M18.8281 5.9375C18.8281 6.58471 18.3035 7.10938 17.6562 7.10938C17.009 7.10938 16.4844 6.58471 16.4844 5.9375C16.4844 5.29029 17.009 4.76562 17.6562 4.76562C18.3035 4.76562 18.8281 5.29029 18.8281 5.9375Z" fill="#CCCCCC"/>
<path d="M5.9375 7.10938H9.41406C10.0612 7.10938 10.5859 6.58469 10.5859 5.9375C10.5859 5.29031 10.0612 4.76562 9.41406 4.76562H5.9375C5.29031 4.76562 4.76562 5.29031 4.76562 5.9375C4.76562 6.58469 5.29031 7.10938 5.9375 7.10938Z" fill="#CCCCCC"/>
<path fill-rule="evenodd" clip-rule="evenodd" d="M16.4844 14.1406C11.315 14.1406 7.10938 18.3463 7.10938 23.5156C7.10938 28.685 11.315 32.8906 16.4844 32.8906C21.6537 32.8906 25.8594 28.685 25.8594 23.5156C25.8594 18.3463 21.6537 14.1406 16.4844 14.1406ZM16.4844 16.4844C19.9545 16.4844 22.8451 19.0113 23.4138 22.3216C23.4136 22.3291 23.4127 22.3363 23.4127 22.3438C23.4127 23.8568 21.4697 24.5293 20.6293 23.1694C19.963 22.0914 18.407 22.0931 17.742 23.1692C17.1356 24.1501 15.8362 24.1534 15.228 23.1693C14.5618 22.0913 13.0056 22.0933 12.3408 23.1692C11.5012 24.5272 9.55609 23.8592 9.55609 22.3438L9.55587 22.3372L9.55521 22.3273L9.555 22.3217C10.1237 19.0113 13.0143 16.4844 16.4844 16.4844ZM16.4844 30.5469C13.5091 30.5469 10.9598 28.6892 9.93469 26.073C11.2805 26.4959 12.7572 26.1523 13.7844 25.1048C15.2803 26.6305 17.69 26.6297 19.1855 25.1048C20.2144 26.1543 21.6909 26.495 23.0341 26.073C22.009 28.6892 19.4596 30.5469 16.4844 30.5469Z" fill="#CCCCCC"/>
<path d="M24.6484 32.8906H26.9922C27.6394 32.8906 28.1641 33.4153 28.1641 34.0625C28.1641 34.7097 27.6394 35.2344 26.9922 35.2344H24.6484C24.0012 35.2344 23.4766 34.7097 23.4766 34.0625C23.4766 33.4153 24.0012 32.8906 24.6484 32.8906Z" fill="#CCCCCC"/>
<path fill-rule="evenodd" clip-rule="evenodd" d="M29.375 0H3.51562C1.57711 0 0 1.57711 0 3.51562V36.4844C0 38.4229 1.57711 40 3.51562 40H29.375C31.3135 40 32.8906 38.4229 32.8906 36.4844V3.51562C32.8906 1.57711 31.3135 0 29.375 0ZM3.51562 2.34375H29.375C30.0212 2.34375 30.5469 2.86945 30.5469 3.51562V9.45312H2.34375V3.51562C2.34375 2.86945 2.86945 2.34375 3.51562 2.34375ZM29.375 37.6562H3.51562C2.86945 37.6562 2.34375 37.1305 2.34375 36.4844V11.7969H30.5469V36.4844C30.5469 37.1305 30.0212 37.6562 29.375 37.6562Z" fill="#CCCCCC"/>
</svg>
