<svg width="69" height="30" viewBox="0 0 69 30" fill="none" xmlns="http://www.w3.org/2000/svg">
<g clip-path="url(#clip0)">
<path d="M41.1884 5.2207H36.7081V24.6146H50.4706V20.8376H41.1884V5.2207Z" fill="#6D6E70"/>
<path d="M60.3266 17.2226H63.9704V20.6131C63.2995 20.87 61.9889 21.1268 60.7407 21.1268C56.7068 21.1268 55.3626 19.0769 55.3626 14.917C55.3626 10.9492 56.642 8.61241 60.6747 8.61241C62.9166 8.61241 64.1948 9.31692 65.251 10.6611L68.0402 8.10112C66.3432 5.66954 63.3703 4.93262 60.5822 4.93262C54.31 4.93262 51.0083 8.35676 51.0083 14.8822C51.0083 21.38 53.9848 24.9002 60.545 24.9002C63.5539 24.9002 66.4992 24.1321 68.0991 23.0123V13.6064H60.3218L60.3266 17.2226Z" fill="#6D6E70"/>
<path d="M14.9919 4.24795e-06C12.0303 0.00223138 9.13562 0.880974 6.67258 2.52551C4.20953 4.17005 2.28833 6.5068 1.15105 9.24133C0.0137644 11.9759 -0.28872 14.9858 0.281709 17.892C0.852138 20.7981 2.26996 23.4704 4.35652 25.5722C6.44309 27.6739 9.10505 29.1111 12.007 29.7026C14.9089 30.294 17.921 30.0134 20.6637 28.8959C23.4064 27.7785 25.757 25.8743 27.4194 23.4232C29.0817 20.9722 29.9814 18.0839 30.0051 15.1224V14.8824C29.9734 10.9225 28.3774 7.13568 25.565 4.34778C22.7526 1.55989 18.952 -0.0029737 14.9919 4.24795e-06Z" fill="url(#paint0_radial)"/>
<path d="M4.84423 4.84599C-0.168973 9.85919 -0.675454 17.4984 3.72085 21.9007C8.11715 26.303 15.7552 25.7965 20.7696 20.7809C25.784 15.7653 26.3025 8.12011 21.9038 3.72021C19.8946 1.70748 17.211 0.719727 14.4026 0.719727C11.0732 0.719727 7.57106 2.11795 4.84423 4.84599Z" fill="url(#paint1_linear)"/>
<path d="M14.2237 21.7235L14.5945 21.5122V8.8394L14.5021 8.69178L14.5945 8.66418V8.64137H14.6593L15.7803 8.25611L15.9819 8.60297C16.0032 8.62975 16.0131 8.66378 16.0095 8.69778L15.9987 20.2388H18.7232L18.9416 20.5809C18.962 20.6061 18.9752 20.6337 18.9752 20.7201V21.8819C18.9764 21.8939 18.9751 21.906 18.9714 21.9175C18.9678 21.9291 18.9619 21.9397 18.9541 21.9489C18.9462 21.9581 18.9366 21.9656 18.9258 21.971C18.915 21.9764 18.9032 21.9796 18.8912 21.9803H14.7193C14.6454 21.9809 14.5729 21.96 14.5105 21.9203L14.2237 21.7235ZM27.757 14.3111H18.4783V15.7969L18.7088 16.1054C18.7298 16.1252 18.7578 16.136 18.7868 16.1354H26.552C26.1512 22.0067 21.1992 26.6022 15.2822 26.6022C13.8001 26.6056 12.3319 26.3169 10.9614 25.7527C9.59091 25.1884 8.34503 24.3596 7.29495 23.3137C6.24601 22.276 5.414 21.0399 4.84737 19.6775C4.28073 18.3151 3.99079 16.8536 3.99442 15.378C3.99442 12.3776 5.1046 9.49711 7.23494 7.38357C9.36528 5.27003 12.0717 4.15505 15.3002 4.08424L15.9087 4.07464H15.9771C16.0191 4.07464 16.0551 4.07464 16.0551 3.97623V2.76043C16.0575 2.7145 16.0471 2.66881 16.0251 2.62841L15.7515 2.28516L15.1334 2.37277L14.8213 2.47599C7.77502 2.47599 2.49178 8.36653 2.49178 15.3792C2.4889 17.0517 2.81894 18.7079 3.46266 20.2515C4.10638 21.7951 5.0509 23.1951 6.24118 24.3699C8.65356 26.7703 11.8509 27.9885 15.2618 27.9885C18.6728 27.9885 21.9085 26.6959 24.3185 24.2931C25.5089 23.1187 26.4533 21.7189 27.0967 20.1755C27.74 18.632 28.0694 16.9758 28.0655 15.3036V14.5727L27.757 14.3111ZM10.3986 8.43614C10.0035 8.43898 9.618 8.55871 9.29076 8.78025C8.96352 9.00179 8.70917 9.31522 8.55975 9.68105C8.41033 10.0469 8.37252 10.4488 8.4511 10.836C8.52967 11.2233 8.7211 11.5787 9.00128 11.8574C9.28146 12.1361 9.63785 12.3256 10.0256 12.4021C10.4133 12.4786 10.8149 12.4386 11.1799 12.2872C11.545 12.1358 11.857 11.8798 12.0768 11.5514C12.2966 11.223 12.4142 10.8368 12.415 10.4417C12.4131 9.90848 12.1997 9.39784 11.8216 9.02183C11.4436 8.64583 10.9318 8.43518 10.3986 8.43614Z" fill="url(#paint2_linear)"/>
<path d="M14.5285 21.4303L14.2236 21.7219H18.7231L18.4291 21.4219L14.5285 21.4303Z" fill="#626D77"/>
<path d="M18.4292 20.5266L18.7232 20.2422H15.778L15.4287 20.5266H18.4292Z" fill="#8699A3"/>
<path d="M15.7779 8.25977H14.2236L14.5153 8.53821L15.4454 8.53701L15.7779 8.25977Z" fill="#8D9AA1"/>
<path d="M15.4535 20.5041L15.7775 20.2425V8.25977L15.4451 8.53701L15.4535 20.5041Z" fill="url(#paint3_linear)"/>
<path d="M18.4291 20.5266V21.422L18.7232 21.722V20.2422L18.4291 20.5266Z" fill="url(#paint4_linear)"/>
<path d="M14.2236 8.25977V21.7223L14.5285 21.4307L14.5153 8.53821L14.2236 8.25977Z" fill="#B4BDC3"/>
<path d="M8.24921 10.2114C8.24897 10.5989 8.36364 10.9777 8.57873 11.3C8.79381 11.6222 9.09963 11.8735 9.45752 12.0219C9.81541 12.1703 10.2093 12.2093 10.5893 12.1338C10.9693 12.0584 11.3185 11.8719 11.5925 11.5981C11.8666 11.3242 12.0532 10.9752 12.1289 10.5952C12.2046 10.2152 12.1659 9.82131 12.0176 9.46333C11.8694 9.10535 11.6184 8.79937 11.2962 8.58409C10.9741 8.36881 10.5954 8.25391 10.2079 8.25391C9.95071 8.25359 9.69596 8.304 9.45826 8.40225C9.22055 8.5005 9.00455 8.64466 8.82262 8.82647C8.64069 9.00829 8.4964 9.2242 8.39801 9.46185C8.29961 9.6995 8.24905 9.95421 8.24921 10.2114ZM11.875 10.2114C11.8759 10.5416 11.7789 10.8647 11.5961 11.1397C11.4133 11.4147 11.153 11.6293 10.8482 11.7562C10.5434 11.8832 10.2077 11.9169 9.88377 11.8529C9.55981 11.789 9.2621 11.6304 9.02836 11.3971C8.79461 11.1639 8.63535 10.8665 8.57072 10.5427C8.5061 10.2189 8.53902 9.88318 8.66533 9.57809C8.79164 9.27299 9.00565 9.01224 9.28026 8.82886C9.55486 8.64548 9.87771 8.54772 10.2079 8.54796C10.4267 8.54748 10.6434 8.59016 10.8456 8.67354C11.0478 8.75693 11.2316 8.87938 11.3865 9.0339C11.5413 9.18841 11.6642 9.37195 11.748 9.57401C11.8318 9.77606 11.875 9.99267 11.875 10.2114Z" fill="url(#paint5_linear)"/>
<path d="M26.4898 15.4588L18.7138 15.4492L18.4257 15.7529H26.191L26.3458 15.592L26.4898 15.4588Z" fill="#505C61"/>
<path d="M18.7138 14.5726L27.4104 14.5582L27.7044 14.2617L18.4257 14.2641L18.7138 14.5726Z" fill="#8F9CA4"/>
<path d="M27.704 15.0023V14.2678L27.4099 14.5642V15.0023C27.4073 17.457 26.6771 19.8559 25.3116 21.8958C23.9461 23.9357 22.0066 25.525 19.7382 26.463C17.4697 27.4009 14.9741 27.6454 12.5667 27.1655C10.1594 26.6856 7.94827 25.5029 6.21285 23.7668C4.47743 22.0307 3.29557 19.8192 2.81662 17.4116C2.33767 15.0041 2.58311 12.5086 3.52195 10.2405C4.46078 7.97239 6.05087 6.03347 8.09128 4.66876C10.1317 3.30405 12.5308 2.57478 14.9856 2.57312L15.4656 2.56712L15.7561 2.28627L14.9856 2.28027C7.98484 2.28027 2.28033 7.98239 2.28033 15.0023C2.28033 18.3732 3.61942 21.6061 6.00302 23.9897C8.38661 26.3733 11.6195 27.7123 14.9904 27.7123C18.3613 27.7123 21.5941 26.3733 23.9777 23.9897C26.3613 21.6061 27.7004 18.3732 27.7004 15.0023H27.704Z" fill="url(#paint6_linear)"/>
<path d="M15.4585 3.49007L15.1309 3.48047H14.8224C11.7973 3.52689 8.91199 4.76192 6.79016 6.91859C4.66833 9.07526 3.48044 11.9803 3.48328 15.0058C3.48612 18.0312 4.67945 20.934 6.80533 23.0867C8.9312 25.2394 11.8188 26.469 14.844 26.5098H15.1405C18.0317 26.4652 20.8009 25.3375 22.9008 23.3496C25.0006 21.3618 26.2783 18.6584 26.4811 15.774L26.4919 15.456L26.3455 15.5892L26.1906 15.75C26.0463 17.9007 25.2854 19.9643 23.999 21.694C22.7127 23.4236 20.9553 24.7461 18.937 25.5032C16.9188 26.2603 14.7252 26.42 12.6186 25.9631C10.5121 25.5063 8.58166 24.4523 7.05837 22.9272C5.48901 21.3581 4.42027 19.3589 3.98735 17.1823C3.55444 15.0058 3.7768 12.7497 4.62631 10.6996C5.47582 8.64941 6.91431 6.89727 8.75979 5.66481C10.6053 4.43234 12.7748 3.77492 14.994 3.77572L15.7502 3.78292L15.4585 3.49007Z" fill="url(#paint7_linear)"/>
<path d="M18.7138 14.5731L18.4257 14.2646V15.7529L18.7138 15.4492V14.5731Z" fill="#B4BDC3"/>
<path d="M15.4599 3.49233L15.7503 3.78277V2.28613L15.4599 2.56698V3.49233Z" fill="url(#paint8_linear)"/>
<path d="M14.3879 8.4185V21.5654H18.5682V20.3928H15.5857V8.4185H14.3879ZM14.8248 2.43915C7.98847 2.52076 2.43518 8.12205 2.43518 15.0028C2.43315 17.4863 3.16798 19.9146 4.54668 21.9802C5.92537 24.0459 7.88593 25.6561 10.1802 26.607C12.4744 27.5579 14.9992 27.8068 17.435 27.3221C19.8708 26.8374 22.108 25.6409 23.8634 23.8842C25.0332 22.7206 25.9603 21.3364 26.5912 19.8118C27.222 18.2873 27.544 16.6527 27.5384 15.0028V14.4315H27.0415H18.5778V15.5956H26.3454C26.3454 15.6233 26.3454 15.7433 26.3454 15.7661C26.1968 17.9806 25.4043 20.1035 24.0651 21.8736C22.726 23.6437 20.8988 24.9838 18.8081 25.7291C16.7174 26.4744 14.4545 26.5924 12.2976 26.0686C10.1408 25.5448 8.18403 24.402 6.66806 22.7808C5.1521 21.1596 4.14302 19.1307 3.76492 16.9436C3.38683 14.7565 3.6562 12.5065 4.53992 10.4705C5.42364 8.43446 6.88317 6.70111 8.739 5.48361C10.5948 4.26611 12.766 3.61757 14.9856 3.61774C15.1164 3.61774 15.4417 3.61774 15.5857 3.61774V2.44155C15.4657 2.44155 15.2712 2.44155 15.1164 2.43555L14.8248 2.43915Z" fill="url(#paint9_radial)"/>
<path d="M8.40131 10.2114C8.40131 10.5675 8.50689 10.9156 8.70471 11.2116C8.90253 11.5077 9.18369 11.7384 9.51265 11.8747C9.84161 12.0109 10.2036 12.0466 10.5528 11.9771C10.902 11.9077 11.2228 11.7362 11.4746 11.4844C11.7264 11.2326 11.8978 10.9119 11.9673 10.5626C12.0368 10.2134 12.0011 9.85144 11.8648 9.52248C11.7286 9.19352 11.4978 8.91235 11.2018 8.71454C10.9057 8.51672 10.5577 8.41113 10.2016 8.41113C9.72413 8.41113 9.26622 8.60081 8.9286 8.93842C8.59098 9.27604 8.40131 9.73396 8.40131 10.2114Z" fill="url(#paint10_radial)"/>
<path d="M10.5247 8.73387C10.9222 8.73746 11.3071 8.87392 11.6181 9.12153C11.4641 8.91727 11.2682 8.74834 11.0435 8.62609C10.8188 8.50384 10.5706 8.43112 10.3155 8.4128C10.0603 8.39449 9.80423 8.43101 9.56438 8.51991C9.32454 8.6088 9.10651 8.74802 8.92495 8.9282C8.74339 9.10838 8.60251 9.32534 8.51178 9.56449C8.42105 9.80365 8.38257 10.0595 8.39893 10.3147C8.4153 10.57 8.48612 10.8188 8.60665 11.0444C8.72717 11.27 8.8946 11.4672 9.09768 11.6227C8.8563 11.3141 8.72379 10.9343 8.72082 10.5426C8.72082 10.0651 8.91049 9.60719 9.24811 9.26957C9.58573 8.93195 10.0436 8.74227 10.5211 8.74227" fill="white"/>
<path d="M15.5844 2.44492C15.4284 2.44492 15.1296 2.43652 14.9843 2.43652C8.06883 2.43652 2.43634 8.07142 2.43634 15.0025C2.43139 16.6522 2.75353 18.2866 3.38411 19.811C4.0147 21.3355 4.94122 22.7198 6.11012 23.884C6.18573 23.9596 6.26495 24.0316 6.34176 24.106C4.10931 21.7728 2.86855 18.6649 2.88041 15.4358C2.88041 8.5275 7.76759 2.79178 15.5844 2.44492Z" fill="white"/>
<path d="M15.5847 20.3926C15.5847 20.3926 16.4429 20.6434 18.566 20.6434V20.3926H15.5847Z" fill="white"/>
<path d="M15.5848 8.78785V8.41699H14.3846V21.5651C14.3846 21.5651 14.7626 19.5632 14.7626 8.78785H15.5848Z" fill="white"/>
<path d="M27.5371 14.4241H18.5764V15.5894H18.9029V14.7493C26.7101 14.7493 27.5371 14.4229 27.5371 14.4229" fill="white"/>
<path d="M26.3467 15.5918C26.3467 15.6182 26.3467 15.743 26.3395 15.7658C26.1932 17.9471 25.4216 20.04 24.117 21.7942C22.8123 23.5484 21.03 24.8896 18.983 25.6574C16.9361 26.4252 14.7114 26.587 12.5749 26.1235C10.4385 25.66 8.48076 24.5908 6.93604 23.0438C5.55068 21.6652 4.54769 19.95 4.02557 18.0666C4.70057 20.5041 6.15828 22.652 8.17414 24.1794C10.19 25.7069 12.6522 26.5292 15.1814 26.5196C20.8991 26.5196 26.1667 22.0416 26.4932 15.5978L26.3467 15.5918Z" fill="white"/>
</g>
<defs>
<radialGradient id="paint0_radial" cx="0" cy="0" r="1" gradientUnits="userSpaceOnUse" gradientTransform="translate(13.4867 14.7037) scale(15.6354)">
<stop stop-color="#BF0C3F"/>
<stop offset="0.5" stop-color="#BF0C3F"/>
<stop offset="0.75" stop-color="#BD0B3E"/>
<stop offset="0.86" stop-color="#B6093A"/>
<stop offset="0.94" stop-color="#A90534"/>
<stop offset="1" stop-color="#99002C"/>
</radialGradient>
<linearGradient id="paint1_linear" x1="8.85647" y1="1.93792" x2="16.7705" y2="23.6818" gradientUnits="userSpaceOnUse">
<stop stop-color="#F38895"/>
<stop offset="0.09" stop-color="#EB7588"/>
<stop offset="0.31" stop-color="#D84869"/>
<stop offset="0.52" stop-color="#CA2752"/>
<stop offset="0.69" stop-color="#C21344"/>
<stop offset="0.8" stop-color="#BF0C3F"/>
<stop offset="1" stop-color="#BF0C3F"/>
</linearGradient>
<linearGradient id="paint2_linear" x1="4.99058" y1="7.31156" x2="23.1435" y2="25.4645" gradientUnits="userSpaceOnUse">
<stop stop-color="#CD425C"/>
<stop offset="0.09" stop-color="#BE3351"/>
<stop offset="0.25" stop-color="#AA1F43"/>
<stop offset="0.43" stop-color="#9B1039"/>
<stop offset="0.65" stop-color="#930833"/>
<stop offset="1" stop-color="#900531"/>
</linearGradient>
<linearGradient id="paint3_linear" x1="15.4451" y1="14.3819" x2="15.7775" y2="14.3819" gradientUnits="userSpaceOnUse">
<stop stop-color="#B4BDC3"/>
<stop offset="0.04" stop-color="#AEB7BD"/>
<stop offset="0.5" stop-color="#6C737A"/>
<stop offset="0.83" stop-color="#434950"/>
<stop offset="1" stop-color="#333940"/>
</linearGradient>
<linearGradient id="paint4_linear" x1="18.4291" y1="20.9815" x2="18.7232" y2="20.9815" gradientUnits="userSpaceOnUse">
<stop stop-color="#B3BBC1"/>
<stop offset="0.08" stop-color="#A6AEB4"/>
<stop offset="0.52" stop-color="#636B70"/>
<stop offset="0.84" stop-color="#3A4246"/>
<stop offset="1" stop-color="#2A3236"/>
</linearGradient>
<linearGradient id="paint5_linear" x1="7.98468" y1="8.17806" x2="10.7456" y2="10.939" gradientUnits="userSpaceOnUse">
<stop stop-color="#ABBAC2"/>
<stop offset="1" stop-color="#262A30"/>
</linearGradient>
<linearGradient id="paint6_linear" x1="3.21552" y1="5.92142" x2="21.3786" y2="24.0845" gradientUnits="userSpaceOnUse">
<stop stop-color="#B4BDC3"/>
<stop offset="1" stop-color="#3E454D"/>
</linearGradient>
<linearGradient id="paint7_linear" x1="25.0205" y1="15.2575" x2="2.0435" y2="15.2575" gradientUnits="userSpaceOnUse">
<stop stop-color="#B4BDC3"/>
<stop offset="1" stop-color="#485159"/>
</linearGradient>
<linearGradient id="paint8_linear" x1="52.8722" y1="40.1212" x2="53.575" y2="40.1212" gradientUnits="userSpaceOnUse">
<stop stop-color="#B3BBC1"/>
<stop offset="0.08" stop-color="#A6AEB4"/>
<stop offset="0.52" stop-color="#636B70"/>
<stop offset="0.84" stop-color="#3A4246"/>
<stop offset="1" stop-color="#2A3236"/>
</linearGradient>
<radialGradient id="paint9_radial" cx="0" cy="0" r="1" gradientUnits="userSpaceOnUse" gradientTransform="translate(9.5396 9.51512) scale(19.2777)">
<stop stop-color="white"/>
<stop offset="0.35" stop-color="white"/>
<stop offset="0.51" stop-color="#FBFCFC"/>
<stop offset="0.68" stop-color="#EEF2F3"/>
<stop offset="0.85" stop-color="#DAE1E5"/>
<stop offset="1" stop-color="#C0CCD2"/>
</radialGradient>
<radialGradient id="paint10_radial" cx="0" cy="0" r="1" gradientUnits="userSpaceOnUse" gradientTransform="translate(9.06573 9.38221) scale(2.81529)">
<stop stop-color="white"/>
<stop offset="0.35" stop-color="white"/>
<stop offset="0.54" stop-color="#FBFCFC"/>
<stop offset="0.73" stop-color="#EEF2F4"/>
<stop offset="0.93" stop-color="#DAE2E6"/>
<stop offset="1" stop-color="#D0DADF"/>
</radialGradient>
<clipPath id="clip0">
<rect width="68.1037" height="30" fill="white"/>
</clipPath>
</defs>
</svg>
