<svg width="35" height="38" viewBox="0 0 35 38" fill="none" xmlns="http://www.w3.org/2000/svg">
<path d="M28.75 38H6.24998C5.55908 38 4.99996 37.441 4.99996 36.75V12.5H1.25003C0.55912 12.5 0 11.9409 0 11.25V1.25003C0 0.55912 0.55912 0 1.25003 0H12.5C13.191 0 13.7501 0.55912 13.7501 1.25003C13.7501 3.31786 15.4322 5.00003 17.5001 5.00003C19.568 5.00003 21.25 3.31786 21.25 1.25003C21.25 0.55912 21.8091 0 22.5 0H33.75C34.441 0 35.0001 0.55912 35.0001 1.25003V11.25C35.0001 11.9409 34.441 12.5 33.75 12.5H30V36.75C30 37.4409 29.4409 38 28.75 38ZM7.50001 35.5H27.5V11.25C27.5 10.5591 28.059 9.99999 28.75 9.99999H32.5V2.49998H23.6243C23.0432 5.34913 20.5188 7.50001 17.5 7.50001C14.4812 7.50001 11.9568 5.34913 11.3757 2.49998H2.49998V9.99999H6.24998C6.94089 9.99999 7.50001 10.559 7.50001 11.25V35.5Z" fill="#CCCCCC"/>
</svg>
