<svg width="80" height="17" viewBox="0 0 80 17" fill="none" xmlns="http://www.w3.org/2000/svg">
<path d="M7.69454 4.68262L0 16.5962H5.25926L12.6558 5.20692L7.69454 4.68262Z" fill="#00539B"/>
<path d="M7.87332 4.41534C7.87332 4.41534 9.68962 1.45508 10.1394 0.87082C10.5703 0.28035 11.1409 0.0287828 11.7406 0.0287828C12.3389 0.0287828 19.6793 0.0287828 19.6793 0.0287828V4.0595C19.6793 4.0595 20.083 2.51257 20.7942 1.7779C21.4609 1.08599 22.3511 0.127124 24.3848 0H39.3392V4.41534H7.87332Z" fill="#00539B"/>
<path d="M80 4.41886V0H63.9993C61.9716 0.127124 61.0774 1.08599 60.4089 1.77804C59.6975 2.51271 59.2973 4.05964 59.2973 4.05964V4.41534L80 4.41886Z" fill="#00539B"/>
<path d="M44.5895 0.0214844H40.1184V4.41551H44.5895V0.0214844Z" fill="#00539B"/>
<path d="M59.2661 0.0214844H54.799V4.41551H59.2661V0.0214844Z" fill="#00539B"/>
<path d="M59.2678 6.00155L54.8755 5.74179V10.8393C54.8755 10.8393 54.8621 12.3079 53.428 12.3079C52.0058 12.3079 45.8794 12.3079 45.8794 12.3079C45.8794 12.3079 44.6012 12.2041 44.6012 10.853C44.6012 9.50514 44.6012 5.04988 44.6012 5.04988L40.1653 4.73242V12.5499C40.8821 16.3 44.3037 16.5884 44.3037 16.5884C44.3037 16.5884 44.6516 16.6118 44.7089 16.6173H54.9045C54.9045 16.6173 59.2678 16.2692 59.2678 12.1249C59.2678 7.97937 59.2678 6.00155 59.2678 6.00155Z" fill="#00539B"/>
<path d="M15.1407 16.5982H36.0526C39.6948 15.8753 40.0754 12.6034 40.0754 12.6034C40.2467 11.6311 40.1466 10.8446 40.1466 10.8446C40.0371 10.189 38.778 7.29468 36.0445 7.04269C34.4144 6.89257 19.9077 5.75283 19.9077 5.75283C20.1885 7.19112 20.8423 7.91718 21.2768 8.3327C22.284 9.28958 23.8867 9.5609 23.8867 9.5609C24.2735 9.5973 35.0665 10.4812 35.0665 10.4812C35.4104 10.4989 36.0621 10.5854 36.0543 11.4288C36.0543 11.531 35.9599 12.2744 35.1317 12.2744C34.1245 12.2744 19.4888 12.2744 19.4888 12.2744V5.716L15.1409 5.40137V16.5982H15.1407Z" fill="#00539B"/>
<path d="M59.3076 12.2484C59.3076 12.2484 73.8335 12.2484 74.8423 12.2484C75.2001 12.2484 75.586 12.039 75.586 12.039C75.7477 11.895 75.8788 11.6318 75.8788 11.3781C75.8788 10.5365 75.1773 10.4996 74.8251 10.4819C74.8251 10.4819 63.9111 9.58034 63.5307 9.54986C63.5307 9.54986 62.018 9.31932 61.0088 8.3582C60.5703 7.94677 59.9898 7.49726 59.5575 6.01367C59.5575 6.01367 74.1467 6.86488 75.7677 7.01472C78.5044 7.27419 79.7867 9.95381 79.9021 10.8452C79.9021 10.8452 80.019 11.651 79.8765 12.6406C79.8765 12.6406 79.3096 16.4079 75.2964 16.6369H59.2973L59.3076 12.2484Z" fill="#00539B"/>
</svg>
