<svg width="80" height="15" viewBox="0 0 80 15" fill="none" xmlns="http://www.w3.org/2000/svg">
<g clip-path="url(#clip0)">
<path d="M28.5467 14.1885C25.6603 14.1885 22.9809 13.3229 21.1924 11.7176C19.8412 10.5048 19.1919 8.85744 19.1919 7.16192C19.1919 5.48704 19.8692 3.82832 21.1923 2.62192C22.8532 1.10816 25.7857 0.160156 28.5467 0.160156C31.602 0.160156 34.0475 0.929756 35.9169 2.62608C37.247 3.83312 37.89 5.48448 37.89 7.16208C37.89 8.78816 37.2076 10.5198 35.9169 11.7176C34.1761 13.3333 31.4404 14.1885 28.5467 14.1885V12.3382C30.0787 12.3382 31.4998 11.8093 32.4923 10.8218C33.4779 9.84096 33.9371 8.63536 33.9371 7.16192C33.9371 5.7504 33.4417 4.43072 32.4923 3.49472C31.5131 2.53024 30.058 1.98752 28.5467 1.98752C27.0307 1.98752 25.5747 2.52464 24.5947 3.49472C23.6503 4.4304 23.1537 5.75392 23.1537 7.16192C23.1537 8.5656 23.6561 9.88832 24.5947 10.8219C25.5755 11.7976 27.0263 12.3384 28.5467 12.3384V14.1886V14.1885ZM7.45002 0.166876C5.90602 0.166876 4.15194 0.455676 2.66154 1.12128C1.28602 1.73504 0.160096 2.72768 0.160096 4.37328C0.159456 5.85536 1.10138 6.72336 1.07578 6.69936C1.47642 7.06816 2.12138 7.69616 3.80762 8.06496C4.56122 8.22976 6.17242 8.48288 7.7769 8.65056C9.36954 8.81856 10.9369 8.97824 11.5753 9.13984C12.0825 9.26896 12.9345 9.4448 12.9345 10.4006C12.9345 11.3526 12.0369 11.6432 11.8809 11.7062C11.7251 11.7678 10.6483 12.2619 8.71258 12.2619C7.28346 12.2619 5.56538 11.8322 4.93914 11.6082C4.21722 11.3512 3.45994 11.0114 2.75354 10.1485C2.57786 9.93456 2.30074 9.34624 2.30074 8.76368H0.548896V13.6725H2.4961V13.0093C2.4961 12.9338 2.5905 12.6232 2.91738 12.7709C3.3241 12.9557 4.51802 13.431 5.76634 13.6917C6.78986 13.9058 7.44986 14.0592 8.72234 14.0592C10.7985 14.0592 11.9139 13.721 12.6849 13.5008C13.4113 13.2928 14.3089 12.9194 15.038 12.3379C15.4329 12.0235 16.2988 11.2176 16.2988 9.75472C16.2988 8.35056 15.5452 7.47904 15.2801 7.21392C14.919 6.85264 14.4779 6.57264 14.0182 6.3568C13.6177 6.16832 12.9857 5.94192 12.4686 5.81536C11.4649 5.56896 9.19546 5.26496 8.11018 5.15136C6.9721 5.03248 4.99786 4.86896 4.20938 4.62496C3.97034 4.55088 3.48298 4.31872 3.48298 3.75296C3.48298 3.35056 3.70586 3.00944 4.14634 2.73376C4.84554 2.29568 6.25786 2.02336 7.73002 2.02336C9.4705 2.01696 10.9444 2.41488 11.882 2.83408C12.2009 2.97648 12.574 3.18096 12.8703 3.42288C13.2047 3.69552 13.6742 4.26208 13.8439 5.05232H15.4167V0.779356H13.6606V1.276C13.6606 1.43632 13.495 1.64464 13.1819 1.47248C12.3959 1.06016 10.1739 0.170556 7.4497 0.166876H7.45002ZM45.9355 0.943356L54.5022 8.67456L54.4142 3.46928C54.4055 2.78672 54.2798 2.50176 53.5415 2.50176H51.9308V0.944636H59.2556V2.50176H57.6844C56.9315 2.50176 56.8839 2.74256 56.8748 3.46928L57.0076 13.4154H54.4991L44.6319 4.60896L44.634 10.8589C44.6427 11.5382 44.6745 11.8582 45.3745 11.8582H47.1337V13.4147H39.9401V11.8584H41.6217C42.2499 11.8584 42.2249 11.2595 42.2249 10.8235V3.52848C42.2249 3.0576 42.1588 2.50288 41.1726 2.50288H39.8081V0.943356H45.9355ZM67.6257 11.8554C67.6945 11.8554 68.0001 11.8466 68.0593 11.8285C68.2284 11.7757 68.3431 11.655 68.3963 11.5293C68.4187 11.4765 68.4299 11.2429 68.4299 11.1922L68.4311 8.73136C68.4311 8.67216 68.4268 8.64656 68.3263 8.51472C68.2159 8.37072 63.8391 3.41072 63.6388 3.19232C63.39 2.92112 62.9532 2.50192 62.2895 2.50192H60.7675V0.944156H69.3574V2.5H68.3219C68.0823 2.5 67.9231 2.7272 68.1278 2.97968C68.1278 2.97968 71.0179 6.4368 71.0452 6.47296C71.0721 6.50976 71.0951 6.51856 71.1319 6.48496C71.1681 6.45056 74.0945 3.01136 74.1175 2.98416C74.2567 2.81744 74.1623 2.50176 73.8623 2.50176H72.8001V0.944156H79.8401V2.50176H78.2673C77.6967 2.50176 77.4646 2.60736 77.0353 3.09264C76.839 3.31472 72.4155 8.36384 72.2951 8.50064C72.2321 8.57216 72.2375 8.67184 72.2375 8.73104V11.1915C72.2375 11.2414 72.2487 11.4754 72.2711 11.5278C72.3244 11.6542 72.4398 11.7749 72.6087 11.827C72.6679 11.8453 72.9694 11.8542 73.038 11.8542H74.6468V13.4117H66.1012V11.8541L67.626 11.8554H67.6257Z" fill="black"/>
</g>
<defs>
<clipPath id="clip0">
<rect width="80" height="14.3483" fill="white"/>
</clipPath>
</defs>
</svg>
