<svg width="24" height="24" viewBox="0 0 24 24" fill="none" xmlns="http://www.w3.org/2000/svg">
<path d="M10.0047 12.3345C10.0047 13.6237 11.05 14.669 12.3392 14.669C13.6283 14.669 14.6737 13.6237 14.6737 12.3345C14.6737 11.0453 13.6283 10 12.3392 10C11.05 10 10.0047 11.0453 10.0047 12.3345ZM3 12.3345C3 13.6237 4.04533 14.669 5.3345 14.669C6.62367 14.669 7.669 13.6237 7.669 12.3345C7.669 11.0453 6.62367 10 5.3345 10C4.04533 10 3 11.0453 3 12.3345V12.3345ZM17.0082 12.3345C17.0082 13.6237 18.0535 14.669 19.3427 14.669C20.6318 14.669 21.6772 13.6237 21.6772 12.3345C21.6772 11.0453 20.6318 10 19.3427 10C18.0535 10 17.0082 11.0453 17.0082 12.3345Z" fill="white"/>
</svg>
