<svg width="24" height="24" viewBox="0 0 24 24" fill="none" xmlns="http://www.w3.org/2000/svg">
<path fill-rule="evenodd" clip-rule="evenodd" d="M11.96 1H11.9672C13.7042 1 15.1603 2.22784 15.5848 3.8809L15.63 4.07751C15.6824 4.33535 15.7099 4.60241 15.7099 4.8758V7.32408L19.5017 7.32409L19.9596 7.35783C20.7195 7.47749 21.3887 7.89785 21.8421 8.53661C22.2953 9.17517 22.4815 9.95935 22.3671 10.7416L21.1653 18.8735C21.0622 19.5794 20.7158 20.2251 20.1886 20.69C19.6696 21.1478 19.0093 21.4 18.3258 21.4L5.87201 21.4C4.28118 21.4 3 20.0599 3 18.4276V12.1035C3 10.4712 4.28116 9.1311 5.87194 9.13108L7.74626 9.13074L10.933 1.69461C11.0896 1.32896 11.4174 1.07124 11.8133 1.01122L11.821 1.01004L11.96 1ZM12.6326 3.49554L9.61476 10.5062V19.069H18.3258C18.5875 19.069 18.8264 18.8875 18.9078 18.6225L18.9309 18.5174L20.1316 10.3925C20.1566 10.2214 20.1159 10.0519 20.0174 9.91322C19.9199 9.77584 19.7802 9.68866 19.6221 9.6627L19.5696 9.65674L19.5134 9.65503L14.5794 9.65507C13.9969 9.65507 13.5263 9.20414 13.4576 8.63467L13.4561 8.62269L13.4485 8.48961L13.4489 4.8758C13.4489 4.27894 13.1198 3.75174 12.6326 3.49554ZM5.87794 11.1192L5.75892 11.1262C5.34136 11.1789 4.99578 11.5227 4.93876 11.9737L4.93094 12.099L4.93062 18.4223L4.93677 18.5406C4.99109 19.0361 5.39542 19.4118 5.8719 19.4118L7.63286 19.4109L7.68307 19.3588V11.1712L7.63285 11.1191L5.87794 11.1192Z" fill="white"/>
</svg>
