<svg width="170" height="18" viewBox="0 0 170 18" fill="none" xmlns="http://www.w3.org/2000/svg">
<path fill-rule="evenodd" clip-rule="evenodd" d="M14.3509 17.9776C19.3916 17.9776 23.4781 13.9532 23.4781 8.98881C23.4781 4.02439 19.3916 0 14.3509 0H0V8.98881V17.9776H1.66336H3.71052H14.3509ZM110.051 7.41432C109.026 7.41432 108.171 7.05392 107.511 6.3428C106.861 5.64356 106.532 4.76137 106.532 3.72086C106.532 2.67045 106.862 1.78782 107.512 1.09781C108.171 0.388014 109.026 0.0273972 110.051 0.0273972C111.067 0.0273972 111.919 0.39461 112.582 1.1187C113.237 1.82278 113.57 2.69882 113.57 3.72086C113.57 4.75763 113.244 5.63916 112.602 6.34171C111.94 7.05392 111.082 7.41432 110.051 7.41432ZM94.7378 6.52208C93.9744 6.52208 93.3298 6.23776 92.8221 5.67683C92.3218 5.14382 92.0668 4.47514 92.0668 3.69234C92.0668 2.9113 92.3144 2.24086 92.8027 1.69883C93.3102 1.13746 93.9612 0.853143 94.7378 0.853143C94.8204 0.853143 94.945 0.862598 95.1106 0.883268C95.1479 0.885687 95.1861 0.888985 95.2247 0.893822C95.2482 0.665139 95.3339 0.476914 95.4804 0.332888C95.6628 0.166212 95.8845 0.0841942 96.145 0.0841942C96.4058 0.0841942 96.6275 0.166212 96.8041 0.32805C96.9551 0.476035 97.0415 0.665139 97.0649 0.893822C97.1067 0.888985 97.1488 0.885027 97.1904 0.882168C97.3447 0.862598 97.4692 0.853143 97.5518 0.853143C98.3284 0.853143 98.9792 1.13746 99.4867 1.69839C99.9752 2.24086 100.223 2.9113 100.223 3.69234C100.223 4.47096 99.9716 5.13898 99.4762 5.67793C98.9696 6.23776 98.3217 6.52208 97.5518 6.52208C97.4686 6.52208 97.3435 6.5124 97.1877 6.49195C97.1486 6.4869 97.1091 6.4814 97.07 6.47524C97.0586 6.73647 96.9711 6.94932 96.8093 7.10852C96.6275 7.27542 96.4058 7.35743 96.145 7.35743C95.8845 7.35743 95.6628 7.27542 95.4859 7.1138C95.3189 6.94954 95.231 6.73647 95.2194 6.47546C95.1805 6.4814 95.141 6.4869 95.1019 6.49195C94.9461 6.5124 94.821 6.52208 94.7378 6.52208ZM91.4539 6.41613V1.02535C91.4539 0.736637 91.3655 0.503775 91.1862 0.327865C91.0094 0.166027 90.7877 0.0842285 90.5271 0.0842285C90.2208 0.0842285 89.9622 0.215942 89.7582 0.476289L86.9825 4.04485V1.02535C86.9825 0.736637 86.8943 0.503775 86.7148 0.327865C86.538 0.166027 86.3163 0.0842285 86.0557 0.0842285C85.7954 0.0842285 85.5734 0.166027 85.3913 0.332922C85.2173 0.503775 85.1289 0.736637 85.1289 1.02535V6.41613C85.1289 6.7044 85.2171 6.93726 85.3966 7.11361C85.5734 7.27523 85.7954 7.35725 86.0557 7.35725C86.3622 7.35725 86.6208 7.22554 86.824 6.96607L89.6003 3.43884V6.41613C89.6003 6.7044 89.6885 6.93726 89.868 7.11361C90.0449 7.27523 90.2668 7.35725 90.5271 7.35725C90.7877 7.35725 91.0094 7.27523 91.1918 7.10856C91.3657 6.93726 91.4539 6.7044 91.4539 6.41613ZM83.7044 8.83777C83.9654 8.83777 84.1873 8.75597 84.3691 8.58929C84.543 8.418 84.6312 8.18492 84.6312 7.89643V6.58699C84.6312 6.30488 84.5396 6.07179 84.3597 5.89456C84.1947 5.73185 83.9681 5.64609 83.7044 5.64609H83.6676V1.02536C83.6676 0.737308 83.5794 0.504226 83.4001 0.327876C83.2233 0.166038 83.0013 0.08424 82.741 0.08424C82.4804 0.08424 82.2585 0.166038 82.0761 0.332933C81.9024 0.504226 81.8142 0.737308 81.8142 1.02536V5.64609H79.1964V1.02536C79.1964 0.737308 79.1082 0.504226 78.9287 0.327876C78.7518 0.166038 78.5299 0.08424 78.2696 0.08424C78.009 0.08424 77.7873 0.166038 77.6049 0.332933C77.431 0.504226 77.3428 0.737308 77.3428 1.02536V6.35897C77.3428 6.64065 77.4341 6.87373 77.6145 7.05184C77.7795 7.21455 78.0059 7.30031 78.2696 7.30031H82.778V7.89643C82.778 8.18492 82.8662 8.418 83.0457 8.59435C83.2224 8.75597 83.4438 8.83777 83.7044 8.83777ZM97.0312 4.78432L97.0455 4.7874C97.1094 4.80477 97.1478 4.81049 97.1936 4.81049C97.5048 4.81049 97.7609 4.71088 97.9775 4.50594C98.1978 4.29705 98.3097 4.02307 98.3097 3.69236C98.3097 3.36472 98.1998 3.09778 97.9746 2.87569C97.7544 2.66724 97.4981 2.56433 97.1936 2.56433C97.1522 2.56433 97.1051 2.57089 97.057 2.57759L97.0384 2.58016L97.0312 2.58214V4.78432ZM94.3095 4.50638C94.0886 4.29661 93.9766 4.02285 93.9766 3.69236C93.9766 3.36516 94.0862 3.098 94.3095 2.87811C94.5318 2.66724 94.7884 2.56433 95.0929 2.56433C95.1288 2.56433 95.1691 2.56937 95.2368 2.57782L95.2503 2.5795L95.255 4.7841C95.1697 4.80521 95.1206 4.81049 95.0929 4.81049C94.7819 4.81049 94.5256 4.71088 94.3095 4.50638ZM104.049 2.01764C104.195 2.16937 104.263 2.35473 104.263 2.60101C104.263 2.84486 104.194 3.03155 104.046 3.17821C103.905 3.33148 103.718 3.40602 103.474 3.40602H102.695V1.79578H103.474C103.717 1.79578 103.905 1.86834 104.049 2.01764ZM106.176 2.61023C106.176 3.34091 105.913 3.94363 105.395 4.40165C104.904 4.84451 104.304 5.06044 103.562 5.06044H102.697V6.41627C102.697 6.70388 102.609 6.93675 102.435 7.10848C102.253 7.27537 102.031 7.35739 101.77 7.35739C101.51 7.35739 101.288 7.27537 101.111 7.11376C100.932 6.93675 100.843 6.70388 100.843 6.41627V1.08244C100.843 0.475332 101.183 0.141102 101.799 0.141102H103.505C104.267 0.141102 104.907 0.369786 105.406 0.820336C105.917 1.28188 106.176 1.88416 106.176 2.61023ZM108.441 3.72084C108.441 3.15815 108.58 2.68737 108.854 2.32235C109.151 1.92963 109.542 1.73877 110.049 1.73877C110.557 1.73877 110.948 1.92963 111.244 2.32169C111.518 2.68737 111.657 3.15815 111.657 3.72084C111.657 4.29849 111.521 4.77257 111.253 5.12922C110.964 5.51513 110.57 5.70269 110.049 5.70269C109.528 5.70269 109.134 5.51513 108.845 5.12922C108.577 4.77257 108.441 4.29849 108.441 3.72084ZM116.677 2.8175H116.129V1.7959H116.677C116.853 1.7959 116.99 1.83724 117.097 1.92167C117.205 2.00787 117.253 2.11496 117.253 2.26866C117.253 2.4516 117.206 2.5798 117.106 2.67237C116.998 2.77132 116.862 2.8175 116.677 2.8175ZM116.129 5.64593H117.062C117.275 5.64593 117.442 5.59096 117.573 5.47772C117.701 5.37239 117.764 5.22001 117.764 5.02101C117.764 4.74945 117.667 4.47217 116.946 4.47217H116.129V5.64593ZM114.566 7.0614C114.751 7.21994 114.981 7.30042 115.249 7.30042H117.234C117.963 7.30042 118.554 7.10406 118.988 6.71837C119.443 6.32258 119.673 5.7579 119.673 5.03975C119.673 4.5826 119.513 4.17625 119.196 3.83278C118.995 3.61399 118.76 3.45172 118.495 3.34705C118.9 3.03041 119.105 2.58338 119.105 2.01233C119.105 1.45579 118.904 0.996445 118.508 0.649462C118.134 0.312153 117.657 0.1413 117.089 0.1413H115.239C114.964 0.1413 114.734 0.218481 114.55 0.375921C114.367 0.544795 114.274 0.773039 114.274 1.05384V6.37799C114.274 6.64977 114.373 6.88461 114.566 7.0614ZM123.779 4.26013L123.151 2.33105L122.509 4.26013H123.779ZM126.087 7.13249C126.265 6.97043 126.354 6.76748 126.354 6.52978C126.354 6.48822 126.347 6.43743 126.333 6.3598C126.321 6.27097 126.295 6.17884 126.266 6.11067L124.377 0.950117C124.166 0.346524 123.742 0.0274658 123.154 0.0274658C122.579 0.0274658 122.168 0.335749 121.931 0.946159L119.983 6.1331L119.951 6.23777C119.926 6.32198 119.914 6.40752 119.914 6.49196C119.914 6.74373 120.012 6.96032 120.196 7.1182C120.382 7.27696 120.596 7.35722 120.831 7.35722C121.272 7.35722 121.587 7.12853 121.719 6.71514L121.963 5.97148H124.344L124.588 6.72306C124.718 7.13205 125.037 7.35722 125.486 7.35722C125.721 7.35722 125.923 7.2818 126.087 7.13249ZM128.901 2.02063C128.78 2.12552 128.719 2.2823 128.719 2.48679C128.719 2.68447 128.781 2.84301 128.905 2.95757C129.031 3.07412 129.196 3.13085 129.411 3.13085H130.2V1.85242H129.411C129.197 1.85242 129.03 1.90739 128.901 2.02063ZM131.79 7.10846C131.964 6.93672 132.052 6.70386 132.052 6.41625V1.08242C132.052 0.47553 131.716 0.1413 131.106 0.1413H129.41C127.707 0.1413 126.806 0.952468 126.806 2.48685C126.806 3.04206 127.003 3.50625 127.391 3.8673C127.654 4.11116 127.993 4.28993 128.4 4.40119L127.005 5.87159C126.843 6.04288 126.758 6.23484 126.758 6.4257C126.758 6.6667 126.847 6.88813 127.015 7.06602C127.285 7.34923 127.649 7.44335 128.058 7.28239C128.158 7.23775 128.302 7.16343 128.401 7.03765L130.198 4.89264V6.41625C130.198 6.7043 130.286 6.93716 130.466 7.11373C130.643 7.27535 130.865 7.35737 131.125 7.35737C131.385 7.35737 131.607 7.27535 131.79 7.10846ZM141.503 0.0841942C141.764 0.0841942 141.986 0.166212 142.162 0.32783C142.342 0.5044 142.43 0.737262 142.43 1.02532V6.41609C142.43 6.70371 142.342 6.93679 142.168 7.1083C141.986 7.27542 141.764 7.35743 141.503 7.35743C141.243 7.35743 141.021 7.27542 140.844 7.1138C140.665 6.93679 140.577 6.70371 140.577 6.41609V3.43881L137.8 6.96603C137.597 7.22572 137.338 7.35743 137.032 7.35743C136.772 7.35743 136.55 7.27542 136.373 7.1138C136.193 6.93679 136.105 6.70371 136.105 6.41609V1.02532C136.105 0.737262 136.193 0.5044 136.367 0.332888C136.55 0.166212 136.772 0.0841942 137.032 0.0841942C137.292 0.0841942 137.514 0.166212 137.691 0.32783C137.87 0.5044 137.959 0.737262 137.959 1.02532V4.04504L140.734 0.476255C140.938 0.215907 141.197 0.0841942 141.503 0.0841942ZM80.0127 15.0579C80.733 15.0579 80.8301 15.3351 80.8301 15.6063C80.8301 15.8055 80.7674 15.9579 80.639 16.0632C80.5088 16.1764 80.3416 16.2312 80.1284 16.2312H79.1953V15.0579H80.0127ZM81.9793 13.9188C82.4872 14.3126 82.7435 14.8863 82.7435 15.6251C82.7435 16.3431 82.5129 16.9077 82.0579 17.3038C81.6238 17.6894 81.0331 17.8858 80.3039 17.8858H78.3185C78.0511 17.8858 77.8215 17.8053 77.636 17.647C77.4429 17.47 77.3438 17.2349 77.3438 16.9634V11.6392C77.3438 11.3584 77.4369 11.1302 77.6204 10.9611C77.8044 10.8036 78.0341 10.7267 78.3089 10.7267H81.1809C81.4604 10.7267 81.6857 10.8151 81.8504 10.9901C81.9974 11.1607 82.069 11.3578 82.069 11.5823C82.069 11.8101 81.9945 12.0007 81.8417 12.1645C81.6857 12.3418 81.4557 12.4379 81.1809 12.4379H79.1973V13.4027H80.1304C80.9042 13.4027 81.5263 13.5762 81.9793 13.9188ZM90.5781 10.9134C90.4015 10.7516 90.1798 10.6696 89.919 10.6696C89.6584 10.6696 89.4367 10.7516 89.2543 10.9182C89.0806 11.0891 88.9922 11.3222 88.9922 11.6109V17.0015C88.9922 17.2895 89.0804 17.5226 89.2599 17.6992C89.4367 17.861 89.6584 17.943 89.919 17.943C90.1798 17.943 90.4015 17.8606 90.5832 17.6937C90.7574 17.5224 90.8456 17.2895 90.8456 17.0015V11.6109C90.8456 11.3224 90.7574 11.0893 90.5781 10.9134ZM86.6967 15.5588C86.6967 15.3803 86.6373 15.2486 86.5098 15.1437C86.3627 15.0219 86.1569 14.9629 85.8793 14.9629H85.2062V16.2312H85.9948C86.2073 16.2312 86.3759 16.1712 86.4962 16.0529C86.6306 15.9276 86.6967 15.7629 86.6967 15.5588ZM88.6064 15.5777C88.6064 14.8364 88.3508 14.257 87.8471 13.856C87.3936 13.4925 86.7698 13.308 85.9935 13.308H85.2049V11.6107C85.2049 11.322 85.1167 11.0891 84.9372 10.9132C84.7604 10.7516 84.5387 10.6696 84.2781 10.6696C84.0178 10.6696 83.7959 10.7516 83.6137 10.9182C83.4398 11.0891 83.3516 11.322 83.3516 11.6107V16.9634C83.3516 17.235 83.4505 17.4694 83.6436 17.647C83.8296 17.8054 84.0591 17.8858 84.3264 17.8858H86.1672C86.8949 17.8858 87.4863 17.6822 87.9248 17.2816C88.3771 16.8671 88.6064 16.2939 88.6064 15.5777ZM96.3531 10.9902C96.5043 11.1512 96.5811 11.3502 96.5811 11.5821C96.5811 11.8108 96.5148 11.9993 96.3786 12.1583C96.2292 12.3423 96.0071 12.438 95.722 12.438H94.8755V17.0013C94.8755 17.2896 94.7874 17.5226 94.6134 17.6937C94.431 17.8611 94.2091 17.9431 93.9488 17.9431C93.6882 17.9431 93.4665 17.8611 93.2897 17.699C93.1102 17.5226 93.022 17.2896 93.022 17.0013V12.438H92.1755C91.8904 12.438 91.6683 12.3423 91.5156 12.1539C91.3827 11.9993 91.3164 11.8108 91.3164 11.5821C91.3164 11.3502 91.393 11.1512 91.5441 10.9902C91.7114 10.8128 91.9179 10.7266 92.1755 10.7266H95.722C95.9796 10.7266 96.1859 10.8128 96.3531 10.9902ZM98.4258 14.3063C98.4258 13.7434 98.5649 13.2726 98.8386 12.9076C99.1351 12.5151 99.5261 12.3242 100.034 12.3242C100.541 12.3242 100.932 12.5151 101.228 12.9071C101.502 13.2728 101.641 13.7434 101.641 14.3063C101.641 14.8842 101.506 15.3578 101.238 15.7147C100.948 16.1004 100.555 16.2879 100.034 16.2879C99.5129 16.2879 99.1188 16.1004 98.8295 15.7147C98.5615 15.3576 98.4258 14.8835 98.4258 14.3063ZM100.035 10.6129C101.051 10.6129 101.903 10.9801 102.567 11.7039C103.221 12.4082 103.554 13.2841 103.554 14.3063C103.554 15.3431 103.228 16.2246 102.586 16.9272C101.924 17.6392 101.066 18 100.035 18C99.0099 18 98.1552 17.6392 97.4948 16.9283C96.8453 16.229 96.5162 15.3468 96.5162 14.3063C96.5162 13.2557 96.8457 12.3733 97.4957 11.6833C98.155 10.9733 99.0097 10.6129 100.035 10.6129ZM106.657 13.4029H106.109V12.3813H106.657C106.833 12.3813 106.971 12.4227 107.077 12.5071C107.185 12.5933 107.234 12.7004 107.234 12.8541C107.234 13.0373 107.187 13.1652 107.087 13.2576C106.979 13.3568 106.842 13.4029 106.657 13.4029ZM107.744 15.6064C107.744 15.335 107.647 15.0577 106.927 15.0577H106.109V16.2311H107.043C107.256 16.2311 107.423 16.1763 107.553 16.0631C107.682 15.9577 107.744 15.8056 107.744 15.6064ZM109.18 14.4183C108.979 14.1995 108.744 14.0368 108.479 13.9324C108.884 13.616 109.089 13.1687 109.089 12.5979C109.089 12.0411 108.888 11.582 108.493 11.2348C108.118 10.8975 107.641 10.7266 107.073 10.7266H105.223C104.948 10.7266 104.718 10.8038 104.534 10.961C104.351 11.1297 104.258 11.3579 104.258 11.6392V16.9633C104.258 17.2351 104.357 17.4695 104.55 17.6472C104.736 17.8053 104.965 17.886 105.233 17.886H107.218C107.947 17.886 108.538 17.6894 108.972 17.3037C109.427 16.9077 109.657 16.343 109.657 15.6251C109.657 15.1681 109.497 14.7622 109.18 14.4183ZM113.763 14.8453L113.134 12.916L112.493 14.8453H113.763ZM116.318 16.9453C116.305 16.856 116.279 16.7636 116.25 16.6961L114.362 11.5356C114.15 10.932 113.727 10.6129 113.138 10.6129C112.563 10.6129 112.152 10.9212 111.915 11.5316L109.967 16.7185L109.935 16.8232C109.911 16.9074 109.898 16.9932 109.898 17.0774C109.898 17.3296 109.996 17.5458 110.181 17.7039C110.367 17.8624 110.58 17.9431 110.815 17.9431C111.256 17.9431 111.572 17.7142 111.704 17.3006L111.947 16.5569H114.329L114.572 17.3085C114.703 17.7177 115.022 17.9431 115.47 17.9431C115.705 17.9431 115.908 17.8675 116.071 17.7179C116.249 17.5554 116.339 17.3527 116.339 17.1152C116.339 17.0748 116.332 17.0255 116.318 16.9453ZM118.885 12.606C118.764 12.7106 118.703 12.8674 118.703 13.0724C118.703 13.27 118.766 13.4286 118.889 13.5427C119.015 13.6597 119.18 13.716 119.395 13.716H120.184V12.438H119.395C119.182 12.438 119.015 12.4927 118.885 12.606ZM122.036 11.6677C122.036 11.0609 121.7 10.7266 121.09 10.7266H119.394C117.691 10.7266 116.79 11.5378 116.79 13.0724C116.79 13.6274 116.987 14.0918 117.375 14.4529C117.638 14.6963 117.977 14.8753 118.384 14.9865L116.989 16.4569C116.827 16.6282 116.742 16.8202 116.742 17.011C116.742 17.252 116.831 17.4735 116.999 17.6513C117.269 17.9346 117.635 18.028 118.042 17.8677C118.141 17.8233 118.285 17.749 118.385 17.6232L120.182 15.4782V17.0014C120.182 17.2896 120.27 17.5225 120.45 17.6991C120.627 17.8609 120.849 17.9429 121.109 17.9429C121.369 17.9429 121.591 17.8609 121.774 17.6938C121.948 17.5223 122.036 17.2892 122.036 17.0014V11.6677ZM129.945 10.7267C130.203 10.7267 130.41 10.8128 130.577 10.9903C130.728 11.1513 130.805 11.3505 130.805 11.5822C130.805 11.8105 130.739 11.9989 130.603 12.1579C130.452 12.3424 130.23 12.438 129.945 12.438H129.099V17.0014C129.099 17.2892 129.011 17.5223 128.837 17.6938C128.655 17.8609 128.433 17.9429 128.172 17.9429C127.912 17.9429 127.69 17.8609 127.513 17.6991C127.334 17.5223 127.246 17.2892 127.246 17.0014V12.438H126.399C126.114 12.438 125.892 12.3424 125.739 12.1542C125.606 11.9989 125.54 11.8105 125.54 11.5822C125.54 11.3505 125.616 11.1513 125.768 10.9903C125.935 10.8128 126.141 10.7267 126.399 10.7267H129.945ZM135.363 16.4379C135.198 16.2629 134.973 16.1742 134.693 16.1742H133.115V15.1337H134.491C134.77 15.1337 134.998 15.0418 135.171 14.8598C135.324 14.6964 135.398 14.506 135.398 14.2777C135.398 14.0464 135.322 13.8472 135.17 13.6858C135.008 13.5127 134.773 13.4217 134.491 13.4217H133.115V12.4379H134.606C134.885 12.4379 135.109 12.3445 135.267 12.1648C135.42 12.0012 135.495 11.8108 135.495 11.5823C135.495 11.3574 135.423 11.1604 135.276 10.9897C135.111 10.8151 134.886 10.7267 134.606 10.7267H132.217C131.6 10.7267 131.261 11.0911 131.261 11.753V16.9731C131.261 17.2416 131.354 17.463 131.538 17.6325C131.72 17.8005 131.945 17.8859 132.207 17.8859H134.693C134.968 17.8859 135.199 17.7893 135.354 17.6121C135.507 17.4485 135.581 17.2583 135.581 17.0301C135.581 16.8053 135.51 16.6083 135.363 16.4379ZM141.982 16.4736C142.046 16.5611 142.091 16.6427 142.125 16.7318C142.168 16.8696 142.186 16.9785 142.186 17.0774C142.186 17.334 142.096 17.5467 141.918 17.7087C141.732 17.8677 141.515 17.9431 141.25 17.9431C140.942 17.9431 140.679 17.8057 140.487 17.5467L139.072 15.6088L137.657 17.5458C137.465 17.8057 137.202 17.9431 136.894 17.9431C136.626 17.9431 136.405 17.8642 136.235 17.7087C136.053 17.5533 135.958 17.3395 135.958 17.0774C135.958 16.9651 135.983 16.8443 136.03 16.7278C136.057 16.6557 136.094 16.5671 136.159 16.4765L137.98 14.0682L136.508 12.0998C136.383 11.9432 136.314 11.7559 136.314 11.5633C136.314 11.2886 136.409 11.0683 136.597 10.9087C136.768 10.7517 136.99 10.6694 137.25 10.6694C137.572 10.6694 137.847 10.8214 138.046 11.1083L139.072 12.5431L140.1 11.1059C140.296 10.8214 140.571 10.6694 140.893 10.6694C141.153 10.6694 141.375 10.7517 141.552 10.9133C141.735 11.0683 141.83 11.2884 141.83 11.5633C141.83 11.7559 141.761 11.9432 141.632 12.1051L140.164 14.0682L141.982 16.4736ZM148.78 10.9132C148.603 10.7516 148.381 10.6695 148.121 10.6695C147.86 10.6695 147.638 10.7516 147.456 10.9182C147.282 11.0891 147.194 11.3222 147.194 11.6109V13.4219H144.576V11.6109C144.576 11.3222 144.488 11.0891 144.308 10.9132C144.131 10.7516 143.91 10.6695 143.649 10.6695C143.389 10.6695 143.167 10.7516 142.985 10.9182C142.811 11.0891 142.722 11.3222 142.722 11.6109V17.0014C142.722 17.2895 142.811 17.5226 142.99 17.6991C143.167 17.861 143.389 17.943 143.649 17.943C143.91 17.943 144.131 17.861 144.314 17.6937C144.488 17.5226 144.576 17.2895 144.576 17.0014V15.1337H147.194V17.0014C147.194 17.2895 147.282 17.5226 147.462 17.6991C147.638 17.861 147.86 17.943 148.121 17.943C148.381 17.943 148.603 17.861 148.785 17.6937C148.959 17.5226 149.047 17.2895 149.047 17.0014V11.6109C149.047 11.3222 148.959 11.0891 148.78 10.9132ZM155.457 10.6695C155.718 10.6695 155.94 10.7516 156.117 10.9132C156.296 11.0898 156.384 11.3226 156.384 11.6109V17.0014C156.384 17.2891 156.296 17.5224 156.123 17.6937C155.94 17.861 155.718 17.943 155.457 17.943C155.197 17.943 154.975 17.861 154.798 17.6991C154.619 17.5224 154.531 17.2891 154.531 17.0014V14.0239L151.754 17.5516C151.551 17.8111 151.293 17.943 150.986 17.943C150.726 17.943 150.504 17.861 150.327 17.6991C150.147 17.5224 150.059 17.2891 150.059 17.0014V11.6109C150.059 11.3226 150.147 11.0898 150.321 10.9185C150.504 10.7516 150.726 10.6695 150.986 10.6695C151.247 10.6695 151.468 10.7516 151.645 10.9132C151.825 11.0898 151.913 11.3226 151.913 11.6109V14.6304L154.689 11.0616C154.893 10.8013 155.151 10.6695 155.457 10.6695ZM162.767 16.2267L160.679 14.0825L162.359 12.4551C162.722 12.0978 162.891 11.8115 162.891 11.5538C162.891 11.3034 162.795 11.0881 162.604 10.9133C162.312 10.6463 161.909 10.5799 161.528 10.7855C161.419 10.853 161.334 10.9227 161.266 10.999L159.248 13.1152V11.5729C159.248 11.2972 159.158 11.0753 158.98 10.9133C158.804 10.7517 158.582 10.6696 158.321 10.6696C158.049 10.6696 157.823 10.7613 157.657 10.9372C157.483 11.1085 157.395 11.3225 157.395 11.5729V17.0585C157.395 17.3213 157.485 17.537 157.662 17.699C157.839 17.8611 158.061 17.9431 158.321 17.9431C158.588 17.9431 158.812 17.8558 158.986 17.6845C159.16 17.5134 159.248 17.3028 159.248 17.0585V15.151L161.391 17.4327C161.712 17.7709 162.009 17.9431 162.272 17.9431C162.526 17.9431 162.743 17.8741 162.921 17.7362C163.125 17.5737 163.228 17.3551 163.228 17.0871C163.228 16.8285 163.072 16.5389 162.767 16.2267ZM167.426 14.8453L166.798 12.9164L166.156 14.8453H167.426ZM169.999 17.1152C169.999 17.0737 169.991 17.0229 169.978 16.9453C169.965 16.8564 169.94 16.7643 169.91 16.6961L168.022 11.5356C167.81 10.932 167.387 10.6129 166.798 10.6129C166.223 10.6129 165.812 10.9212 165.576 11.5316L163.627 16.7185L163.595 16.8232C163.571 16.9074 163.559 16.9932 163.559 17.0774C163.559 17.3296 163.656 17.5458 163.841 17.7039C164.027 17.8624 164.24 17.9431 164.476 17.9431C164.917 17.9431 165.232 17.7142 165.364 17.3006L165.607 16.5569H167.988L168.232 17.3085C168.363 17.7177 168.682 17.9431 169.13 17.9431C169.365 17.9431 169.567 17.8675 169.731 17.7179C169.909 17.5559 169.999 17.3529 169.999 17.1152ZM18.9357 8.98881C18.9357 7.78272 18.4588 6.64876 17.593 5.79581C16.7269 4.94309 15.5755 4.4734 14.3509 4.4734H4.5422V8.98881V13.5042H14.3509C15.5755 13.5042 16.7269 13.0343 17.593 12.1816C18.4588 11.3289 18.9357 10.1949 18.9357 8.98881ZM70.943 8.40171C71.4648 8.91558 71.8747 9.51456 72.1614 10.1819C72.4588 10.8743 72.6095 11.6083 72.6095 12.3639C72.6095 13.1192 72.4588 13.8534 72.1614 14.5456C71.8747 15.2132 71.4648 15.8119 70.943 16.3258C70.4212 16.8397 69.8131 17.2434 69.1352 17.5257C68.4324 17.8186 67.6871 17.9671 66.9199 17.9671H51.4132C50.1649 17.9671 49.1526 16.9705 49.1526 15.7409C49.1526 14.5113 50.1649 13.5148 51.4132 13.5148H66.9199C67.5643 13.5148 68.0885 12.9982 68.0885 12.3639C68.0885 11.7291 67.5643 11.213 66.9199 11.213V11.2202H54.844C54.0766 11.2202 53.3311 11.0718 52.6278 10.7789C51.9499 10.4964 51.3415 10.0926 50.8195 9.57855C50.2977 9.06467 49.8876 8.46547 49.6009 7.79767C49.3035 7.10525 49.1526 6.37104 49.1526 5.61528C49.1526 4.85975 49.3035 4.12532 49.6009 3.43289C49.8876 2.76531 50.2977 2.16612 50.8195 1.65202C51.3415 1.13792 51.9499 0.734206 52.6278 0.451869C53.3311 0.158978 54.0766 0.010334 54.844 0.010334H69.1573C70.4056 0.010334 71.4179 1.00709 71.4179 2.23648C71.4179 3.4661 70.4056 4.46285 69.1573 4.46285H54.844C54.1985 4.46285 53.6736 4.97981 53.6736 5.61528C53.6736 6.25076 54.1985 6.76772 54.844 6.76772H66.9199V6.76046C67.6871 6.76046 68.4324 6.90889 69.1352 7.20178C69.8131 7.48411 70.4212 7.88783 70.943 8.40171ZM48.0119 0H43.4907V11.3953L28.414 0.662523C27.7674 0.0257269 26.7953 -0.164696 25.9504 0.179869C25.1058 0.524433 24.555 1.33626 24.555 2.23648V17.9776H29.076V6.58235L44.1529 17.3151C44.5854 17.741 45.1634 17.9673 45.7517 17.9671C46.0429 17.9671 46.3367 17.9116 46.6165 17.7977C47.4611 17.453 48.0119 16.6414 48.0119 15.7409V0Z" fill="#FC8507"/>
</svg>
