<svg width="24" height="24" viewBox="0 0 24 24" fill="none" xmlns="http://www.w3.org/2000/svg">
<path d="M9.55116 9.55116C11.0507 8.05171 11.0509 5.62443 9.55116 4.12474C8.05171 2.62521 5.62443 2.62497 4.12474 4.12474C2.62521 5.62419 2.62497 8.05155 4.12474 9.55116C5.62419 11.0507 8.05147 11.051 9.55116 9.55116ZM6.83795 5.56459C7.54169 5.56459 8.11132 6.13413 8.11132 6.83803C8.11132 7.96262 6.74157 8.5425 5.93753 7.73838C5.14253 6.94338 5.70022 5.56459 6.83795 5.56459Z" fill="white"/>
<path d="M17.1653 13.3275C15.0448 13.3275 13.3281 15.0435 13.3281 17.1645C13.3281 20.5826 17.482 22.2742 19.8784 19.8777C22.3077 17.4486 20.548 13.3275 17.1653 13.3275ZM18.0656 18.0649C17.5692 18.5614 16.7613 18.5614 16.2648 18.0649C15.7672 17.5673 15.7671 16.7619 16.2648 16.264C16.7624 15.7664 17.5679 15.7663 18.0656 16.264C18.5633 16.7618 18.5633 17.5672 18.0656 18.0649Z" fill="white"/>
<path d="M19.4173 4.58483C18.9167 4.08419 18.1051 4.08419 17.6045 4.58483L4.69917 17.4902C3.8892 18.3001 4.47397 19.6784 5.60553 19.6784C5.9336 19.6784 6.2616 19.5533 6.51196 19.3029L19.4173 6.39754C19.918 5.89706 19.918 5.0854 19.4173 4.58483Z" fill="white"/>
</svg>
