<svg width="15" height="15" viewBox="0 0 15 15" fill="none" xmlns="http://www.w3.org/2000/svg">
<path d="M12.2942 10.4356C14.455 7.45467 13.7323 3.32692 10.6812 1.21639C7.6301 -0.894131 3.40521 -0.188606 1.24502 2.79286C-0.915172 5.77381 -0.193044 9.90106 2.85858 12.0116C5.03632 13.5179 7.91554 13.6339 10.2125 12.3086L12.5563 14.5693C13.0952 15.1235 13.9918 15.1457 14.5591 14.6192C15.1264 14.0932 15.1491 13.2173 14.6107 12.663C14.5937 12.6454 14.5772 12.6292 14.5591 12.6126L12.2942 10.4356ZM6.7655 10.8875C4.35445 10.888 2.3997 8.97969 2.39815 6.62407C2.39764 4.26846 4.35084 2.35865 6.76241 2.35764C9.17036 2.35663 11.1241 4.2619 11.1287 6.61449C11.1329 8.97061 9.18068 10.8834 6.7686 10.8875C6.76757 10.8875 6.76705 10.8875 6.7655 10.8875Z" fill="black"/>
</svg>
