<svg width="38" height="40" viewBox="0 0 38 40" fill="none" xmlns="http://www.w3.org/2000/svg">
<path fill-rule="evenodd" clip-rule="evenodd" d="M5.12429 18.0102C5.04974 18.0109 4.98287 18.0115 4.92276 18.0095C1.85848 18.0118 -0.226969 21.1188 0.930568 23.9498C2.49249 27.7694 5.20138 30.969 8.73264 33.1476L8.91759 33.2617L5.6956 37.6284C5.24884 38.2338 5.37751 39.0868 5.9831 39.5337C6.59228 39.9832 7.44453 39.8479 7.8885 39.2462L11.3798 34.5144L11.5243 34.5742C13.8698 35.5436 16.3894 36.0469 18.9654 36.0469H19.0378C21.6138 36.0469 24.1334 35.5436 26.4788 34.5742L26.6233 34.5144L30.1147 39.2462C30.5602 39.85 31.4131 39.9815 32.0201 39.5337C32.6256 39.0868 32.7543 38.2338 32.3076 37.6284L29.0856 33.2617L29.2705 33.1476C32.7969 30.972 35.5086 27.7748 37.0726 23.9498C37.6166 22.6194 37.4629 21.1128 36.6614 19.9192C35.9406 18.8458 34.9777 18.3734 34.181 18.166C33.7819 18.0621 33.4254 18.025 33.1638 18.0129C33.0331 18.0069 32.9263 18.0071 32.8495 18.0082C32.8387 18.0084 32.8288 18.0086 32.8195 18.0088C32.8068 18.009 32.7954 18.0093 32.7847 18.0095L32.7554 18.0101C32.7437 18.0104 32.7311 18.0105 32.7207 18.0104C32.7191 18.0104 32.7151 18.0104 32.7095 18.0102C32.7064 18.01 32.7029 18.0098 32.699 18.0095C32.3844 18.0103 32.0747 18.0462 31.7732 18.1135L31.4543 18.1847L33.284 11.1032C34.1311 7.82482 32.5988 4.3875 29.5927 2.82968C26.224 1.08419 22.6616 0.200078 19.0004 0.200001C15.3416 0.200078 11.7791 1.08418 8.41043 2.82961C5.40427 4.38743 3.87207 7.82474 4.71916 11.103L6.54888 18.1846L6.22994 18.1134C5.74095 18.0043 5.38548 18.0077 5.12429 18.0102ZM27.8577 21.0331L27.9145 20.9909L30.6454 10.4215C31.1789 8.35701 30.2301 6.22923 28.3388 5.24906C25.3642 3.70778 22.2227 2.92508 19.0027 2.925C15.7804 2.92508 12.6389 3.70777 9.66429 5.24914C7.77292 6.22915 6.82422 8.35701 7.35759 10.4214L10.0885 20.9909L10.1453 21.0331C12.3067 22.6364 15.5625 23.8059 19.0015 23.8059C22.437 23.8059 25.6919 22.6396 27.8577 21.0331ZM4.92631 20.7345C3.79331 20.7345 3.02641 21.8753 3.45306 22.9185C6.01789 29.1915 12.1332 33.322 18.9654 33.322H19.0378C25.8557 33.322 31.9795 29.2052 34.5502 22.9185C34.7525 22.4237 34.6972 21.8821 34.399 21.4382C34.1008 20.9941 33.7076 20.824 33.3716 20.7639C33.2061 20.7343 33.0554 20.7314 32.9396 20.7333C32.9048 20.7339 32.8686 20.7351 32.8385 20.7361L32.7954 20.7374C32.764 20.7381 32.7498 20.7376 32.7453 20.7375C32.7437 20.7374 32.7434 20.7374 32.744 20.7375L32.7267 20.7345H32.7091C32.2148 20.7345 31.75 20.9719 31.4313 21.375C29.4802 23.8418 24.7519 26.5308 19.0016 26.5308C13.2513 26.5308 8.52301 23.8419 6.57193 21.3751C6.2506 20.9688 5.87335 20.8138 5.55383 20.7598C5.39652 20.7332 5.25526 20.7313 5.14645 20.7335C5.11961 20.734 5.08382 20.7352 5.05461 20.7362L5.01104 20.7375C4.97543 20.7384 4.96204 20.7375 4.96001 20.7373L4.94328 20.7345H4.92631Z" fill="#CCCCCC"/>
</svg>
