<svg width="40" height="40" viewBox="0 0 40 40" fill="none" xmlns="http://www.w3.org/2000/svg">
<path d="M20.8839 28.3839C21.372 27.8957 21.372 27.1043 20.8839 26.6161C20.3957 26.128 19.6043 26.128 19.1161 26.6161C18.6279 27.1043 18.6279 27.8957 19.1161 28.3839C19.6043 28.8721 20.3957 28.8721 20.8839 28.3839Z" fill="#CCCCCC"/>
<path fill-rule="evenodd" clip-rule="evenodd" d="M3.75 0H36.25C38.3179 0 40 1.68212 40 3.75V28.75C40 30.8179 38.3179 32.5 36.25 32.5H26.322C26.5785 35.1676 27.5736 36.8198 28.0861 37.5H30V40H10V37.5H11.914C12.4264 36.8198 13.4214 35.1676 13.678 32.5H3.75C1.68212 32.5 0 30.8179 0 28.75V3.75C0 1.68212 1.68212 0 3.75 0ZM36.25 2.5H3.75C3.0603 2.5 2.5 3.0603 2.5 3.75V22.5H37.5V3.75C37.5 3.0603 36.9397 2.5 36.25 2.5ZM14.8292 37.5H25.1708C24.572 36.3241 24.0025 34.6421 23.827 32.5H16.173C15.9974 34.6422 15.428 36.3242 14.8292 37.5ZM3.75 30H36.25C36.9397 30 37.5 29.4397 37.5 28.75V25H2.5V28.75C2.5 29.4397 3.0603 30 3.75 30Z" fill="#CCCCCC"/>
</svg>
